<?xml version="1.0" encoding="UTF-8"?>
<svg id="Layer_1" xmlns="http://www.w3.org/2000/svg" viewBox="0 0 512 512">
    <defs><style>
        .cls-1{
            fill:#0C2340;
        }
        @media (prefers-color-scheme: light) {
            .cls-1 {
                fill: #0C2340;
            }
        }
        @media (prefers-color-scheme: dark) {
            .cls-1 {
                fill: #FFB549;
            }
        }
    </style></defs>
    <path class="cls-1" d="M272.16,98.26c2.42-37.99,52.49-34.53,55.43-2.94,2.42,39.89-54.39,40.41-55.43,2.94Z"/><path class="cls-1" d="M120.2,247.28v190.8s179.41,0,179.41,0h0c-4.65-13.53-17.38-22.62-31.69-22.62h-112.38c-7.03,0-12.72-5.7-12.72-12.72v-132.84c0-12.49-10.13-22.62-22.62-22.62h0Z"/><path class="cls-1" d="M338.98,248.14l34.71,5.53c5.87-14.16-1.9-30.22-16.58-34.36-15.37-4.32-28.15-14.68-35.57-28.84-7.77-14.85-17.79-32.12-24.17-44.72-5.7-10.71-20.2-13.99-31.25-10.71-11.74,4.83-22.97,10.71-34.36,16.4-12.95,6.73-26.42,13.99-37.3,19.86h-.17c-14.16,7.94-24.17,21.58-27.28,37.47l-6.91,35.74c-2.24,11.74,8.29,21.76,19.86,18.82l13.81-37.99c4.66-12.95,14.5-23.31,27.11-28.84l-6.91,82.19c-1.04,13.12-4.49,26.07-9.84,38.16h-.17s-23.66,52.63-23.66,52.63v-53.26c0-11.83-11.17-20.47-22.62-17.5v101.01h128.81c-4.65-13.53-17.38-22.62-31.69-22.62h-34.68l26.66-49.21c32.12,17.09,56.64,45.93,68.55,80.47l6.91,20.03c3.8,10.88,14.33,17.79,25.73,16.58l19.51-1.9-20.55-77.01c-4.83-18.3-14.68-35.05-28.32-48.35-26.42-25.73-36.95-63.54-27.63-99.11,11.4,15.89,28.66,26.42,48,29.53Z"/><path class="cls-1" d="M281.45,450.69H116.69c-7.03,0-12.72-5.7-12.72-12.72v-206.06c0-12.59-10.2-22.79-22.79-22.79h0v264.19s231.73,0,231.73,0h0c-4.54-13.51-17.2-22.62-31.46-22.62Z"/><path class="cls-1" d="M246.77,99.47c.52-8.63,2.42-16.06,5.18-22.45H38.16c0,12.49,10.13,22.62,22.62,22.62h185.99v-.17Z"/><path class="cls-1" d="M433.78,141.95c-21.4-26.71-50.11-47.14-82.08-58.76l1.4,10.49.05.53.36,5.73c.33,5.17,3.39,9.78,8.04,12.08,54.4,26.91,90.01,82.52,90.01,145.45,0,57.02-21.32,94.5-55.51,122.66-10.53,8.67-14.99,22.72-11.31,35.86h0c18.3-11.05,34.71-25.21,48.35-41.96,26.59-32.81,41.27-74.25,41.27-116.55s-13.99-82.19-40.41-115.35l-.17-.17Z"/><path class="cls-1" d="M413.75,244.52c.35,4.14.69,8.29.69,12.43,0,31.02-11.88,60.02-31.57,82.13-9.25,10.39-12.8,24.65-9.06,38.05l.05.17h0c11.4-7.94,21.76-17.44,30.73-28.32,21.07-25.9,32.46-58.54,32.46-91.86s-11.4-65.27-31.94-91c-15.02-18.99-34.71-33.67-56.81-43.17h0c-.03.08-.07.15-.1.23-4.94,10.73-1.28,23.33,8.71,29.62,25.75,16.21,44.63,41.44,52.86,70.99"/><path class="cls-1" d="M208.61,128.14h0l25.6-13.29s0,0,0,0H76.5c0,12.49,10.13,22.62,22.62,22.62h72.31c12.96,0,25.72-3.17,37.18-9.23l.18-.09h-.17Z"/><path class="cls-1" d="M463.13,116.74c-30.91-38.68-74.08-66.31-121.73-77.7h0c-.92-.23-1.86-.35-2.81-.35H0c0,12.49,10.13,22.62,22.62,22.62h242.63c19.68-15.71,49.04-14.68,68.72,0,0,0,0,0,0,0h0c2.29,0,4.58.27,6.8.86,87.65,23.41,148.43,102.17,148.43,193.39,0,82.48-31.93,127.93-81.79,161.8-11.06,7.51-15.98,21.33-12.32,34.19h0c25.73-13.99,48.69-32.81,67.17-55.77,32.12-39.54,49.73-89.27,49.73-140.21s-17.27-99.63-48.69-138.83h-.17Z"/>
</svg>