<?xml version="1.0" standalone="no"?>
<!DOCTYPE svg PUBLIC "-//W3C//DTD SVG 20010904//EN"
 "http://www.w3.org/TR/2001/REC-SVG-20010904/DTD/svg10.dtd">
<svg version="1.0" xmlns="http://www.w3.org/2000/svg"
 width="1000.000000pt" height="1000.000000pt" viewBox="0 0 1000.000000 1000.000000"
 preserveAspectRatio="xMidYMid meet">
<metadata>
Created by potrace 1.14, written by Peter Selinger 2001-2017
</metadata>
<g transform="translate(0.000000,1000.000000) scale(0.100000,-0.100000)"
fill="#000000" stroke="none">
<path d="M0 9916 c0 -72 5 -95 35 -172 20 -49 59 -134 86 -189 53 -106 195
-325 210 -325 5 0 9 -5 9 -11 0 -10 47 -70 105 -135 24 -28 206 -211 232 -234
62 -56 193 -161 283 -226 143 -105 347 -234 368 -234 6 0 12 -4 14 -9 5 -16
332 -175 468 -229 118 -46 250 -91 295 -99 11 -2 58 -12 105 -22 81 -19 147
-19 1492 -20 l1407 -1 38 32 c21 18 47 41 58 52 32 29 96 68 103 62 3 -3 12 0
21 8 21 18 80 27 231 35 69 4 116 9 105 10 -99 14 -351 15 -1750 13 -1790 -4
-1643 -10 -1880 69 -225 75 -448 179 -668 312 -65 40 -126 77 -135 82 -27 16
-76 49 -92 62 -8 6 -61 46 -117 88 -202 150 -409 353 -536 525 -27 36 -55 73
-63 83 -8 9 -14 20 -14 23 0 3 -13 24 -28 47 -66 97 -154 289 -198 430 l-18
57 -83 0 -83 0 0 -84z"/>
<path d="M7255 9923 c-4 -43 -8 -89 -10 -103 -2 -14 -7 -52 -10 -85 -3 -33 -8
-71 -10 -85 -2 -14 -7 -45 -10 -70 -3 -25 -14 -94 -25 -155 -10 -60 -22 -124
-25 -142 -3 -18 -9 -42 -14 -55 -5 -13 -9 -26 -9 -31 -3 -30 -18 -90 -32 -132
-10 -27 -18 -53 -19 -57 -12 -52 -82 -208 -139 -308 -91 -158 -125 -204 -242
-320 -102 -101 -124 -120 -198 -167 -31 -20 -59 -39 -62 -42 -3 -3 -30 -19
-61 -35 l-56 -30 -59 17 c-32 9 -100 23 -149 31 -91 15 -235 29 -202 20 9 -3
17 -10 17 -15 0 -6 4 -8 9 -5 13 9 118 -72 187 -145 62 -65 97 -88 169 -113
39 -13 42 -13 138 35 53 27 97 53 97 57 0 5 6 9 13 9 10 0 87 48 124 78 110
89 190 162 240 219 62 70 170 217 180 246 4 8 12 22 19 30 15 18 91 167 121
235 46 108 121 365 137 475 3 19 10 55 15 80 5 25 12 65 16 90 3 25 8 52 10
60 2 8 7 40 10 70 3 30 8 66 10 80 2 14 7 52 10 85 5 60 10 106 20 203 l6 52
-105 0 -104 0 -7 -77z"/>
<path d="M7789 9953 c0 -27 -2 -61 -4 -78 -2 -16 -6 -57 -10 -90 -7 -79 -15
-142 -21 -185 -3 -19 -7 -51 -10 -70 -9 -72 -56 -288 -80 -375 -14 -49 -26
-94 -28 -100 -46 -177 -153 -424 -265 -614 -60 -102 -190 -291 -224 -326 -7
-7 -32 -37 -57 -66 -58 -69 -269 -281 -339 -339 -29 -25 -58 -49 -65 -55 -28
-25 -116 -95 -181 -143 -73 -56 -67 -54 -152 -35 -23 5 -23 4 -23 -100 l0
-105 62 -25 63 -25 65 46 c88 63 224 166 284 216 110 91 136 116 262 241 117
116 176 182 279 309 34 43 155 215 155 221 0 2 14 24 30 48 76 114 219 422
274 592 15 48 63 214 70 245 2 8 9 33 14 55 21 78 51 242 67 355 25 178 25
186 40 378 l6 72 -106 0 -105 0 -1 -47z"/>
<path d="M9755 9985 c-16 -8 -91 -40 -165 -71 -74 -32 -138 -62 -142 -68 -4
-6 -8 -7 -8 -3 0 13 -279 -136 -292 -157 -4 -6 -8 -8 -8 -3 0 7 -32 -11 -140
-82 -93 -60 -238 -170 -344 -261 -65 -55 -245 -244 -240 -252 3 -4 1 -8 -5 -8
-13 0 -95 -105 -169 -215 -33 -49 -102 -171 -153 -270 -190 -369 -404 -718
-548 -894 -20 -25 -43 -54 -51 -66 -93 -136 -439 -465 -518 -492 -9 -3 -49
-39 -89 -80 l-72 -75 71 -71 c105 -106 235 -258 322 -377 43 -58 84 -113 92
-123 8 -9 14 -22 14 -27 0 -6 5 -10 10 -10 6 0 10 -4 10 -9 0 -5 22 -45 48
-88 69 -110 192 -373 175 -373 -3 0 -1 -6 5 -13 15 -18 89 -286 96 -352 1 -5
5 -30 10 -54 15 -81 17 -106 21 -326 2 -121 0 -240 -5 -265 -5 -25 -11 -65
-15 -90 -3 -25 -10 -62 -16 -82 -5 -20 -9 -40 -8 -45 1 -4 0 -15 -4 -23 -3 -8
-19 -64 -37 -125 -52 -183 -95 -291 -193 -484 -65 -129 -161 -287 -219 -362
-15 -20 -28 -42 -28 -48 0 -6 -4 -11 -8 -11 -4 0 -24 -21 -43 -48 -108 -143
-296 -325 -476 -460 l-82 -62 15 -36 c8 -20 13 -38 10 -41 -3 -3 1 -18 9 -34
8 -15 15 -39 15 -54 0 -14 6 -25 13 -25 18 0 177 106 201 133 10 12 21 22 25
22 14 -1 147 117 143 128 -1 5 2 6 7 3 12 -8 222 214 214 227 -3 6 -2 7 4 4 5
-3 27 17 49 46 21 29 41 54 44 57 16 16 170 237 170 244 0 2 17 33 38 67 175
289 331 721 368 1019 3 30 10 82 14 115 8 63 5 423 -4 464 -3 13 -8 49 -12 80
-3 31 -8 63 -9 71 -90 447 -208 717 -468 1077 -74 104 -75 105 -194 244 l-93
108 78 58 c83 62 333 306 397 388 22 28 43 52 46 55 3 3 42 55 87 115 45 61
86 115 90 120 35 46 50 73 44 80 -4 5 -2 6 3 2 6 -3 35 34 64 81 95 153 181
294 181 297 0 1 20 38 43 81 24 44 81 151 126 239 98 189 201 347 305 466 41
48 72 90 68 94 -4 5 -2 5 4 2 6 -3 20 4 31 16 38 43 168 159 243 217 25 19 47
37 50 40 22 23 252 170 350 223 30 17 73 40 95 52 55 30 306 145 330 151 6 2
60 21 120 44 61 23 116 43 123 46 8 2 12 27 12 79 l0 75 -107 -1 c-71 0 -118
-5 -138 -14z"/>
<path d="M0 8798 l0 -145 53 -54 c70 -70 174 -166 221 -204 21 -16 45 -37 54
-46 31 -30 212 -168 308 -235 140 -97 365 -234 375 -228 5 3 9 1 9 -5 0 -5 75
-47 167 -92 93 -45 179 -88 193 -95 114 -57 504 -189 622 -209 17 -3 34 -8 37
-10 6 -3 50 -11 151 -25 30 -4 658 -7 1395 -6 l1340 1 3 96 c2 81 0 98 -13
103 -9 3 -618 6 -1353 6 -1078 1 -1352 4 -1412 15 -251 45 -549 150 -855 301
-71 35 -134 63 -139 63 -5 0 -12 4 -15 9 -3 5 -23 19 -43 31 -21 11 -55 31
-75 42 -21 12 -69 41 -106 65 -37 24 -70 44 -73 44 -3 0 -10 5 -17 10 -37 30
-138 100 -146 100 -5 0 -11 4 -13 8 -2 4 -41 37 -88 72 -47 36 -90 70 -96 75
-6 6 -35 30 -65 55 -30 25 -134 124 -232 220 -98 96 -180 177 -183 179 -2 2
-4 -61 -4 -141z"/>
<path d="M5850 8190 c0 -5 5 -10 11 -10 5 0 7 5 4 10 -3 6 -8 10 -11 10 -2 0
-4 -4 -4 -10z"/>
<path d="M5523 7922 c-13 -2 -23 -7 -23 -12 0 -4 -24 -20 -54 -35 -29 -15 -75
-49 -102 -75 -42 -42 -60 -69 -105 -162 -30 -60 -29 -222 0 -277 6 -11 11 -29
11 -40 0 -10 3 -21 8 -23 4 -1 22 -25 41 -53 30 -45 118 -125 138 -126 4 0 15
-7 23 -14 8 -8 27 -16 40 -18 14 -3 44 -10 66 -17 77 -23 207 0 299 54 57 34
155 133 155 157 0 9 7 20 16 23 9 4 14 9 11 12 -3 4 2 25 11 48 12 29 17 69
17 136 0 95 -5 112 -53 208 -26 51 -111 134 -165 160 -26 13 -54 30 -63 39
-12 12 -41 16 -132 17 -64 1 -127 0 -139 -2z"/>
<path d="M7629 7058 c-97 -78 -93 -70 -50 -117 21 -22 36 -41 34 -41 -3 0 13
-21 34 -47 22 -27 59 -75 83 -108 24 -33 47 -61 52 -63 4 -2 8 -10 8 -17 0 -7
3 -15 8 -17 14 -6 135 -199 185 -295 100 -194 183 -487 227 -808 6 -44 13 -91
15 -105 15 -97 19 -170 20 -350 0 -179 -9 -372 -19 -389 -2 -3 -6 -28 -10 -56
-22 -181 -129 -566 -201 -722 -8 -17 -15 -34 -15 -37 0 -16 -145 -314 -193
-396 -188 -325 -578 -702 -981 -951 -93 -57 -107 -75 -87 -113 6 -11 12 -30
14 -41 2 -11 9 -31 15 -45 5 -14 13 -33 16 -42 4 -15 9 -16 31 -6 14 6 25 15
25 20 0 4 3 7 8 6 11 -4 274 160 292 182 3 3 30 24 60 45 30 22 64 47 75 56
244 202 453 415 585 595 24 32 46 61 50 64 3 3 19 28 36 56 l29 52 40 -19 c22
-10 83 -38 135 -62 203 -95 343 -159 540 -247 336 -151 400 -188 505 -295 72
-73 118 -125 109 -125 -4 0 0 -8 9 -17 34 -38 125 -245 142 -323 1 -8 8 -33
13 -55 12 -42 14 -55 31 -145 20 -111 37 -242 46 -355 3 -38 7 -83 10 -100 2
-16 7 -66 11 -110 3 -44 8 -93 9 -110 2 -16 6 -66 9 -110 6 -74 11 -121 21
-185 2 -14 6 -52 10 -85 3 -33 11 -89 16 -125 6 -36 13 -78 15 -95 3 -16 12
-66 20 -110 9 -44 17 -91 20 -105 14 -76 81 -311 120 -424 25 -72 48 -139 51
-149 4 -14 17 -17 74 -17 l69 0 0 118 c0 90 -5 131 -21 177 -56 167 -119 452
-143 650 -4 28 -8 61 -11 75 -7 39 -16 118 -30 258 -10 104 -14 148 -20 222
-6 77 -13 148 -20 210 -2 19 -7 64 -10 100 -4 36 -8 76 -10 90 -2 14 -6 48 -9
75 -4 28 -8 57 -11 65 -2 8 -7 35 -10 60 -32 229 -122 473 -238 645 -80 118
-243 263 -379 338 -26 14 -177 84 -335 156 -426 191 -653 297 -665 309 -7 7 3
38 32 99 108 227 205 509 264 766 17 74 19 82 41 217 44 276 41 632 -10 950
-2 14 -7 45 -10 70 -19 133 -95 457 -122 520 -3 8 -7 17 -8 20 -44 126 -174
395 -203 418 -9 6 -13 12 -9 12 8 0 -100 165 -137 211 -12 14 -30 38 -41 53
-53 75 -176 226 -183 226 -4 0 -37 -23 -73 -52z"/>
<path d="M0 6995 l0 -105 2138 0 c1913 0 2140 2 2160 16 12 8 22 12 22 9 0 -4
12 2 28 13 15 10 87 51 160 91 72 40 132 74 132 77 0 2 -1044 4 -2320 4
l-2320 0 0 -105z"/>
<path d="M5235 7004 c-75 -12 -193 -52 -219 -73 -8 -7 -19 -10 -25 -7 -5 3
-11 -1 -15 -9 -3 -8 -14 -15 -25 -15 -11 0 -22 -4 -26 -9 -7 -13 -64 -41 -82
-41 -7 0 -13 -4 -13 -10 0 -5 -19 -19 -42 -30 -43 -21 -79 -41 -88 -50 -3 -3
-23 -14 -45 -25 -22 -11 -57 -30 -77 -42 -21 -13 -44 -23 -53 -23 -8 0 -15 -4
-15 -9 0 -9 -58 -35 -72 -32 -5 0 -8 -4 -8 -9 0 -6 -12 -16 -27 -22 -16 -7
-45 -23 -65 -35 -21 -13 -38 -20 -38 -17 0 4 -8 1 -17 -7 -20 -16 -31 -22
-140 -80 -80 -43 -180 -97 -198 -108 -5 -3 -12 -6 -15 -6 -3 0 -16 -8 -30 -17
-43 -28 -133 -77 -182 -99 -35 -16 -48 -27 -49 -43 0 -11 0 -138 1 -281 l1
-260 -110 3 -111 3 0 -1302 0 -1302 503 7 c276 4 552 9 612 11 61 2 184 7 275
10 274 9 383 15 388 20 7 6 -16 82 -34 117 -8 14 -14 35 -14 46 0 17 -24 37
-41 34 -3 0 -87 -3 -188 -6 l-183 -6 7 33 c4 17 13 42 21 54 8 12 14 31 14 42
0 11 5 23 10 26 6 3 10 15 10 25 0 17 10 44 42 115 5 12 10 27 12 35 1 8 7 25
14 37 7 12 12 29 12 37 0 9 4 24 9 34 21 42 41 94 41 107 0 15 3 23 33 83 9
19 17 40 17 48 0 27 25 14 60 -31 19 -25 53 -64 75 -88 22 -23 58 -64 80 -92
22 -27 49 -59 60 -71 45 -49 121 -138 134 -158 8 -11 18 -23 22 -26 4 -3 9
-17 11 -30 2 -14 13 -46 25 -71 12 -26 24 -62 28 -80 4 -19 10 -38 14 -44 5
-8 44 -116 55 -150 2 -5 7 -21 13 -35 6 -14 24 -68 42 -120 17 -52 36 -103 41
-112 6 -10 10 -26 10 -35 0 -10 7 -27 15 -37 8 -11 15 -32 15 -47 0 -15 3 -29
8 -31 4 -1 20 -41 35 -88 16 -47 35 -98 44 -113 8 -15 12 -34 9 -42 -2 -7 1
-19 9 -25 7 -6 15 -23 18 -38 3 -15 16 -57 30 -94 14 -36 23 -69 19 -72 -3 -3
0 -6 6 -6 6 0 14 -14 17 -32 4 -18 11 -39 15 -48 8 -17 29 -76 35 -100 2 -8
13 -40 25 -70 12 -30 24 -63 27 -72 3 -9 10 -19 17 -21 11 -4 66 17 129 49 16
8 34 14 41 14 7 0 36 12 66 26 29 14 61 26 71 27 11 1 19 5 19 9 0 4 16 10 35
14 19 3 35 9 35 13 0 4 20 13 44 20 75 22 83 31 69 84 -7 25 -14 52 -15 59 -2
7 -5 15 -8 18 -8 8 -33 102 -34 130 -1 14 -7 29 -13 33 -7 4 -13 19 -13 33 0
13 -4 32 -10 42 -5 9 -19 51 -30 92 -10 41 -31 113 -45 160 -15 47 -28 90 -29
95 -2 6 -6 18 -11 28 -4 10 -5 21 -1 24 3 3 1 12 -5 19 -5 7 -12 25 -15 40 -3
15 -11 42 -19 62 -8 19 -15 44 -15 56 0 12 -4 26 -9 31 -5 6 -11 24 -13 40 -1
17 -6 32 -10 35 -4 3 -9 19 -12 35 -3 16 -10 41 -14 55 -5 14 -17 52 -27 85
-9 33 -21 70 -26 83 -5 13 -9 32 -9 42 0 11 -6 34 -14 52 -8 18 -26 74 -40
123 -15 50 -33 112 -41 139 -8 26 -12 52 -9 57 3 5 1 9 -5 9 -5 0 -12 13 -16
30 -4 16 -10 32 -15 35 -4 3 -18 24 -30 47 -12 24 -25 45 -29 48 -5 4 -14 20
-55 95 -6 10 -16 25 -23 32 -6 7 -17 26 -25 43 -7 16 -16 30 -19 30 -4 0 -10
11 -13 25 -4 14 -11 25 -16 25 -6 0 -10 6 -10 14 0 7 -7 19 -15 26 -8 7 -12
16 -9 21 3 5 0 9 -6 9 -6 0 -15 12 -20 26 -6 14 -25 47 -42 72 -18 26 -33 50
-33 53 0 3 -15 30 -34 60 -19 30 -43 70 -54 89 -11 19 -30 49 -43 67 -13 17
-24 35 -24 38 0 4 -9 20 -21 36 -11 16 -18 29 -14 29 3 0 -2 9 -12 19 -10 11
-27 37 -38 58 -11 21 -26 44 -32 51 -7 7 -13 19 -13 27 0 7 -6 15 -12 18 -10
3 -10 9 -1 25 7 12 22 50 34 84 12 35 25 68 30 74 5 6 10 19 12 30 5 23 11 40
43 117 13 32 24 63 24 69 0 9 22 64 40 98 4 9 11 30 14 48 4 17 12 34 17 37 5
4 9 17 9 30 0 13 5 27 10 30 6 3 10 15 10 26 0 30 38 25 46 -6 4 -14 9 -24 12
-21 2 3 31 -32 63 -77 31 -45 66 -91 76 -102 10 -11 29 -36 43 -55 28 -41 71
-81 80 -75 4 3 31 -5 61 -16 30 -11 81 -29 114 -40 234 -80 352 -121 367 -129
10 -6 27 -10 37 -10 11 0 22 -4 25 -9 4 -5 24 -12 46 -16 22 -4 42 -11 46 -16
3 -5 16 -9 29 -9 13 0 30 -6 37 -12 7 -7 22 -14 33 -16 11 -2 58 -16 104 -33
90 -31 87 -31 135 17 12 11 34 38 51 59 16 22 47 57 69 79 22 22 41 45 42 51
1 6 -16 19 -37 29 -22 11 -39 23 -39 28 0 4 -6 8 -14 8 -8 0 -16 3 -18 8 -3 8
-96 72 -104 72 -9 0 -98 64 -102 73 -2 4 -9 7 -15 7 -7 0 -36 18 -64 40 -29
22 -53 36 -53 32 0 -4 -7 1 -14 11 -8 10 -16 17 -18 15 -1 -1 -28 14 -58 35
-30 21 -93 63 -140 93 -47 31 -87 60 -88 65 -2 5 -7 7 -12 4 -4 -3 -13 2 -20
10 -7 8 -17 15 -22 15 -9 0 -23 10 -59 43 -10 9 -20 17 -21 16 -8 -3 -58 26
-58 33 0 4 -4 8 -9 8 -15 0 -102 61 -107 74 -2 6 -5 22 -6 36 -2 14 -8 30 -14
35 -7 6 -15 23 -18 39 -4 16 -16 48 -27 70 -10 22 -19 46 -19 53 0 7 -4 21 -9
31 -22 40 -41 86 -41 99 0 7 -4 21 -10 31 -5 9 -15 33 -23 52 -8 19 -20 49
-28 65 -7 17 -13 35 -14 40 0 6 -6 16 -12 23 -7 7 -13 20 -13 29 0 8 -6 27
-14 41 -31 59 -96 202 -96 212 0 5 -4 10 -10 10 -5 0 -10 9 -10 19 0 11 -4 21
-9 23 -5 2 -11 9 -13 17 -2 7 -12 23 -24 35 -12 12 -23 27 -25 32 -5 13 -94
74 -108 74 -6 0 -11 5 -11 10 0 6 -6 10 -13 10 -8 0 -27 7 -43 14 -49 25 -133
33 -209 20z m-749 -956 c3 -4 1 -16 -6 -28 -6 -11 -13 -35 -15 -53 -3 -18 -14
-75 -25 -127 -12 -52 -23 -106 -26 -120 -2 -14 -7 -36 -10 -50 -12 -50 -14
-66 -19 -114 -3 -27 -8 -53 -11 -58 -3 -5 -8 -28 -10 -51 -3 -23 -7 -53 -10
-67 -12 -60 -14 -96 -18 -290 -3 -197 8 -321 39 -440 14 -50 17 -151 6 -178
-6 -15 -13 -38 -15 -52 -3 -14 -14 -61 -26 -105 -11 -44 -23 -89 -25 -100 -6
-27 -24 -102 -35 -145 -39 -148 -36 -135 -43 -170 -3 -14 -10 -46 -17 -70 -12
-48 -24 -96 -36 -145 -10 -39 -9 -37 -17 -60 -3 -11 -8 -31 -11 -45 -2 -14
-19 -79 -36 -145 -17 -66 -33 -128 -35 -138 -8 -36 -15 -37 -221 -37 l-204 0
0 1131 c0 900 3 1130 13 1127 14 -5 13 13 21 -414 3 -188 8 -348 12 -357 6
-17 21 -17 179 -2 80 8 115 19 116 37 0 7 2 22 4 33 10 57 17 105 21 149 3 27
7 52 9 56 4 6 6 22 21 148 3 26 7 56 10 67 3 11 6 36 8 55 4 37 15 118 22 160
2 14 6 45 9 70 3 25 7 56 10 70 3 14 8 48 11 75 3 28 7 61 10 73 3 13 7 43 10
65 13 116 24 191 30 196 3 3 15 6 27 8 38 5 232 44 234 47 5 5 42 0 49 -6z"/>
<path d="M6066 6905 c-27 -25 -52 -43 -54 -40 -3 3 -10 -3 -17 -11 -21 -29 10
-77 64 -99 103 -42 280 -133 312 -161 8 -8 19 -14 22 -14 8 0 20 -9 121 -95
86 -72 186 -175 221 -227 6 -9 34 -49 63 -91 28 -42 52 -79 52 -82 0 -3 10
-22 23 -43 13 -20 36 -66 51 -102 15 -36 34 -78 41 -95 7 -16 25 -73 40 -125
28 -100 53 -160 66 -160 13 0 170 -112 176 -125 2 -8 11 -16 20 -19 13 -5 14
2 9 48 -3 30 -10 73 -15 97 -5 24 -12 55 -14 69 -21 112 -86 299 -151 433 -42
86 -165 284 -197 317 -8 8 -30 35 -50 60 -62 77 -175 185 -248 240 -19 14 -39
30 -45 35 -20 19 -150 102 -211 134 -66 35 -212 101 -223 101 -4 -1 -29 -21
-56 -45z"/>
<path d="M2289 3798 c-1 -1019 -2 -1864 -4 -1878 -16 -154 -17 -166 -34 -255
-5 -27 -9 -57 -9 -65 -1 -21 -56 -223 -81 -294 -24 -67 -106 -233 -127 -257
-8 -8 -14 -21 -14 -27 0 -7 -4 -12 -8 -12 -4 0 -15 -13 -24 -28 -52 -88 -236
-231 -373 -290 -161 -70 -523 -170 -706 -196 -25 -4 -57 -9 -70 -11 -13 -2
-81 -13 -151 -24 -133 -22 -274 -63 -368 -108 -30 -15 -57 -27 -60 -28 -20 -6
-60 -30 -60 -37 0 -4 -5 -8 -11 -8 -6 0 -51 -26 -100 -57 l-89 -58 0 -82 0
-83 65 0 c52 0 73 5 98 23 18 12 34 25 35 30 2 4 10 7 18 7 8 0 14 3 14 8 0 4
10 12 23 18 61 30 107 59 107 66 0 5 4 7 9 4 4 -3 32 6 61 20 86 41 238 77
470 110 73 10 79 11 210 38 69 14 136 30 150 35 14 5 70 22 125 37 305 83 492
178 652 332 235 227 376 562 439 1037 3 27 8 61 10 75 12 93 18 279 18 490 -1
135 -2 937 -3 1783 l-2 1537 -105 0 -104 0 -1 -1852z"/>
<path d="M2864 3668 c2 -1091 6 -2005 9 -2033 3 -27 8 -90 11 -140 7 -102 15
-186 21 -230 2 -16 7 -55 10 -85 3 -30 8 -67 11 -82 2 -16 6 -43 9 -60 3 -18
8 -46 11 -61 3 -16 7 -38 9 -50 4 -36 25 -135 51 -242 51 -207 124 -407 207
-565 22 -41 44 -85 51 -97 11 -22 16 -23 141 -23 72 0 125 4 120 8 -28 19
-135 210 -200 357 -39 88 -102 285 -119 370 -2 11 -11 50 -20 88 -15 64 -18
80 -31 157 -3 19 -8 42 -10 50 -2 8 -7 38 -10 65 -4 28 -8 61 -10 75 -2 14 -7
52 -10 85 -3 33 -8 80 -11 105 -3 25 -7 72 -10 105 -2 33 -7 92 -10 130 -3 39
-8 267 -11 508 -5 421 -4 437 13 438 23 0 921 6 1742 10 331 2 602 4 602 6 0
2 -4 11 -9 21 -5 9 -17 43 -26 74 -9 32 -21 61 -27 64 -5 3 -7 12 -4 19 2 7
-2 16 -10 19 -8 3 -525 3 -1149 0 l-1135 -6 0 1451 0 1451 -105 0 -104 0 3
-1982z"/>
<path d="M7253 4885 c-7 -8 -13 -19 -13 -24 0 -6 -47 -58 -105 -116 -84 -85
-106 -114 -115 -148 -14 -57 -57 -180 -85 -247 -13 -30 -26 -62 -29 -70 -22
-56 -160 -279 -207 -335 -111 -131 -238 -257 -295 -292 -10 -6 -17 -17 -15
-25 2 -7 8 -31 13 -53 5 -22 13 -44 19 -50 5 -5 9 -24 9 -41 0 -18 4 -36 10
-39 10 -6 59 16 82 37 7 7 35 31 63 53 69 56 194 183 258 263 65 80 157 216
157 231 0 6 3 11 8 11 4 0 17 21 30 48 12 26 27 54 32 62 5 8 24 47 41 85 79
175 149 425 165 590 3 33 8 63 11 68 8 13 -22 7 -34 -8z"/>
<path d="M5286 2203 c-3 -3 -1064 -12 -1508 -12 l-348 -1 0 -105 0 -105 788 6
c433 4 926 7 1095 8 l308 1 -6 34 c-4 18 -10 41 -14 50 -26 50 -41 93 -36 101
3 5 -5 12 -18 15 -21 6 -256 13 -261 8z"/>
</g>
</svg>
