<?xml version="1.0" encoding="UTF-8"?><svg id="Layer_1" xmlns="http://www.w3.org/2000/svg" viewBox="0 0 1920 1080"><defs><style>.cls-1{fill:#000;}.cls-1,.cls-2{stroke-width:0px;}.cls-3{stroke-dasharray:0 0 2.02 12.1;}.cls-3,.cls-4,.cls-5,.cls-6,.cls-7,.cls-8,.cls-9,.cls-10,.cls-11,.cls-12,.cls-13,.cls-14{stroke:#666;stroke-linecap:square;stroke-linejoin:round;}.cls-3,.cls-4,.cls-5,.cls-7,.cls-8,.cls-9,.cls-10,.cls-11,.cls-12,.cls-13,.cls-14{fill:none;stroke-width:6px;}.cls-4{stroke-dasharray:0 0 2.02 12.1;}.cls-5{stroke-dasharray:0 0 2.05 12.27;}.cls-6{fill:#f2f2f2;stroke-dasharray:0 0 24 100;stroke-width:24px;}.cls-15{font-size:178.34px;}.cls-15,.cls-2,.cls-16{fill:#666;}.cls-15,.cls-16{font-family:PlayfairDisplayRoman-Black, 'Playfair Display';font-variation-settings:'wght' 900;font-weight:800;}.cls-7{stroke-dasharray:0 0 2.01 12.09;}.cls-16{font-size:143.03px;}.cls-9{stroke-dasharray:0 0 1.99 11.96;}.cls-10{stroke-dasharray:0 0 2.05 12.27;}.cls-11{stroke-dasharray:0 0 2 12.02;}.cls-12{stroke-dasharray:0 0 2.05 12.27;}.cls-13{stroke-dasharray:0 0 2.02 12.11;}.cls-14{stroke-dasharray:0 0 2.05 12.27;}</style></defs><path class="cls-10" d="M1699.06,819.54c.56-2.28.86-4.66.86-7.12,0-.5-.01-.99-.04-1.47-.15-3.19-.81-6.24-1.9-9.09-4.25-11.15-15.05-19.07-27.69-19.07s-23.44,7.92-27.7,19.07c-1.09,2.84-1.74,5.9-1.9,9.09-.03.48-.04.98-.04,1.47,0,2.46.3,4.84.86,7.12,3.19,12.93,14.87,22.51,28.78,22.51s25.58-9.58,28.77-22.51Z"/><path class="cls-12" d="M704.98,819.54c.56-2.28.86-4.66.86-7.12,0-.5-.01-.99-.04-1.47-.15-3.19-.81-6.24-1.9-9.09-4.25-11.15-15.05-19.07-27.69-19.07s-23.44,7.92-27.7,19.07c-1.09,2.84-1.74,5.9-1.9,9.09-.03.48-.04.98-.04,1.47,0,2.46.3,4.84.86,7.12,3.19,12.93,14.87,22.51,28.78,22.51s25.58-9.58,28.77-22.51Z"/><path class="cls-6" d="M1910.25,805.84c0-2.71-.32-5.36-.93-7.9.61-1.55.93-3.22.93-4.95v-6.63c0-7.03-5.29-12.94-12.28-13.7-3.09-.34-5.89-1.67-8.03-3.73-2.14-2.03-3.62-4.74-4.11-7.83l-14.23-90.77c-6.35-40.42-38.07-72.1-78.51-78.39l-262.94-40.87c-17.41-2.69-33.71-10.25-47.05-21.77l-153.43-132.49c-17.07-14.76-38.88-22.87-61.43-22.87h-553.56c-20.03,0-39.55,6.39-55.69,18.27l-153.87,113.22c-2.63-.53-5.23-.78-7.79-.78-20.92,0-38.77,16.98-38.77,38.88v223.98c0,2.29.19,4.53.57,6.71-12.66,4.91-21.62,17.21-21.62,31.61,0,9.36,3.79,17.83,9.93,23.97s14.61,9.93,23.99,9.93h94.44c12.24,49.57,57,86.31,110.34,86.31,53.34,0,98.1-36.74,110.34-86.31h773.41c12.24,49.57,57,86.31,110.34,86.31s98.08-36.74,110.32-86.31h95.73c18.72,0,33.9-15.18,33.9-33.9Z"/><path class="cls-11" d="M534.15,731.97h-29.54c-5.17,0-9.34-4.17-9.34-9.32v-60.75c0-6.95,7.35-11.46,13.55-8.32l23.5,11.9c2.77,1.42,4.68,4.11,5.06,7.18l6.01,48.85c.68,5.55-3.64,10.46-9.25,10.46Z"/><path class="cls-5" d="M1101.37,648.33c0-9.93,8.05-18,18-18h36.53c9.93,0,18,8.07,18,18s-8.07,18-18,18h-36.53c-4.98,0-9.46-2.01-12.73-5.27s-5.27-7.77-5.27-12.73Z"/><path class="cls-14" d="M755.17,666.33h-36.53c-4.95,0-9.46-2.01-12.73-5.27s-5.27-7.77-5.27-12.73c0-9.93,8.07-18,18-18h36.53c9.95,0,18,8.07,18,18s-8.05,18-18,18Z"/><path class="cls-4" d="M676.21,751.72c17.91,0,34.05,7.81,45.14,20.2,8.51,9.44,14.06,21.53,15.29,34.85.19,1.86.28,3.75.28,5.65,0,9.82-2.35,19.1-6.52,27.31-10.02,19.78-30.53,33.37-54.19,33.37s-44.17-13.59-54.19-33.37c-4.17-8.22-6.52-17.49-6.52-27.31,0-1.91.08-3.79.28-5.65,1.23-13.32,6.78-25.41,15.29-34.85,11.1-12.39,27.23-20.2,45.14-20.2Z"/><path class="cls-8" d="M772.18,427.63c.22-.25.44-.5.67-.74h1"/><path class="cls-9" d="M785.81,426.89h191.52c7.67,0,14.72,4.62,17.34,11.82,0,.04.02.08.04.13l37.65,104.94c8.15,22.7-8.66,46.58-32.78,46.58h-286.21c-8.41,0-16.22-3.01-22.3-8.07-6.1-5.06-10.46-12.18-11.96-20.45-1.84-9.99.78-20.31,7.18-28.2l82.1-101.37"/><path class="cls-7" d="M1424,584.34l-4.81,2.94c-3.28,2.01-7.07,3.07-10.93,3.07h-290.39c-8.62,0-16.35-5.25-19.5-13.28l-47.83-121.56c-5.4-13.74,4.72-28.63,19.5-28.63h198.19c9.85,0,19.35,3.54,26.83,9.99l131.7,113.73c10.74,9.27,9.34,26.34-2.77,33.73Z"/><path class="cls-3" d="M1730.99,812.43c0,9.82-2.35,19.1-6.52,27.32-9.99,19.78-30.53,33.37-54.16,33.37s-44.17-13.59-54.19-33.37c-4.17-8.22-6.52-17.49-6.52-27.32,0-1.91.08-3.79.28-5.65,1.23-13.32,6.78-25.41,15.29-34.85,11.1-12.39,27.23-20.2,45.14-20.2s34.03,7.81,45.14,20.2c8.47,9.44,14.04,21.53,15.27,34.85.19,1.86.28,3.75.28,5.65Z"/><path class="cls-13" d="M1839.91,731.97h-6.92c-6.01,0-11.29-3.98-12.92-9.76l-13.83-48.89c-.34-1.21-.51-2.44-.51-3.66,0-5.19,3.05-10.08,8-12.26,4.32-1.91,9.34-1.4,13.17,1.33l11.5,8.17c2.69,1.91,4.59,4.74,5.31,7.96l9.25,40.72c1.93,8.39-4.47,16.39-13.06,16.39Z"/><path class="cls-2" d="M311.32,114.62c-4,4,0,9.34,4,8.01,13.34-2.67,26.68-4,42.69,9.34,13.34,10.67,32.02,20.01,42.69,2.67,9.34-17.34-1.33-37.36-24.02-42.69-20.01-4-48.03,6.67-65.37,22.68Z"/><path class="cls-2" d="M303.32,97.28c8-14.68,17.34-29.35,42.69-34.69,21.35-4,45.36-14.68,37.36-37.36-8-24.01-37.36-29.35-61.37-12.01-20.01,14.68-32.02,50.7-30.69,81.38,1.33,6.67,9.34,8.01,12.01,2.67Z"/><path class="cls-1" d="M243.28,328.86c33.35-1.33,62.71-20.01,78.72-45.36l-36.02-13.34c-14.68-5.34-25.35-16.01-32.02-29.35-6.67-13.34-6.67-29.35-1.33-44.03,8.3-23.51,30.93-38.42,56.01-37.3l.03-.06c-18.68-18.68-45.36-29.35-73.38-28.02-54.7,2.67-97.39,48.03-94.73,102.73,1.33,56.04,48.03,97.39,102.73,94.73Z"/><path class="cls-1" d="M460.4,298.36c0-2.67,1.33-5.34,1.33-8.02,0-6.68,0-14.7-1.33-22.71-5.34-26.72-22.68-49.44-46.7-60.13-2.67-1.34-4-2.67-6.67-2.67l-89.39-32.07h0c-18.68-6.67-40.02,2.67-48.03,20.01-1.33,1.33-1.33,2.67-2.67,4-1.33,5.34-2.67,10.67-2.67,16.01,1.33,16.01,10.67,30.69,26.68,36.02l89.39,32.02v1.33s0,1.33,0,1.33l-52.03,45.36c-13.34,12.01-30.69,17.34-48.03,17.34h-92.06c-32.02,0-61.37,9.34-88.05,26.68l-66.71,45.36C13.45,431.59,1.45,454.28.11,478.29c-1.33,24.01,9.34,46.7,28.02,62.71l90.72,76.05c8.01,6.67,17.34,9.34,26.68,9.34h8s0,24.09,0,24.09l-49.51,376.01c-2.68,25.42,14.72,49.51,41.48,53.52,2.68,0-1.31,0,1.36,0,24.02,0,44.03-17.37,46.7-41.42l44.03-342.05,42.69,342.05c2.67,24.05,24.02,41.42,46.7,41.42h6.67c25.35-2.67,44.03-26.72,41.36-53.45l-48.03-375.45v-220.46c0-2.67,0-5.34-1.33-8.02,20.01-6.68,38.69-16.03,54.7-30.73h0l52.03-45.43c14.68-12.03,24.02-28.06,28.02-45.43v-2.67ZM90.84,485.52l61.37-42.69s1.33,0,1.33-1.33v96.06s-62.71-52.03-62.71-52.03Z"/><text class="cls-15" transform="translate(90.4 173.81) rotate(-35.63)"><tspan x="0" y="0">?</tspan></text><text class="cls-16" transform="translate(150.85 122.48) rotate(-1.17)"><tspan x="0" y="0">?</tspan></text></svg>