<svg id="Layer_1" data-name="Layer 1" xmlns="http://www.w3.org/2000/svg" viewBox="0 0 612 792"><defs><style>.cls-1,.cls-3,.cls-8{fill:#ffb71b;}.cls-2,.cls-4{fill:#fff;}.cls-2,.cls-3{stroke:#231f20;}.cls-2,.cls-3,.cls-6{stroke-miterlimit:10;}.cls-2{stroke-width:5px;}.cls-3{stroke-width:6px;}.cls-3,.cls-8{opacity:0.85;}.cls-5{fill:#231f20;}.cls-6{fill:none;stroke:#111820;stroke-width:25px;}.cls-7,.cls-9{fill:#111820;}.cls-7{opacity:0.1;}</style></defs><path class="cls-1" d="M555.85,29.34,330.78,146.74l23.85,17.07c5.5,3.93,5.61,13.16.27,20.63L62.09,593.61c-8.08,11.29-7.9,25.26.41,31.2s21.58,1.6,29.66-9.69l93.31-130.39c4-5.61,10.61-7.76,14.73-4.81s4.21,9.88.2,15.49l-46.69,65.24c-4.35,6.08-4.26,13.61.22,16.81h0c4.47,3.21,11.63.87,16-5.22l60-83.79c4-5.61,10.61-7.76,14.73-4.81s4.21,9.88.2,15.49l-60.8,85c-3.9,5.44-3.81,12.18.2,15s10.4.78,14.3-4.67l6.85-9.57c4-5.6,10.6-7.75,14.72-4.81s4.21,9.89.2,15.49l-7.36,10.3c-3.61,5-3.53,11.28.18,13.94s9.64.72,13.25-4.33l247.53-345.9c5.34-7.46,14.13-10.33,19.62-6.4l23.85,17.07ZM323.41,389.54l-20.27,28.31c-4,5.61-10.6,7.76-14.72,4.81s-4.21-9.88-.2-15.49l20.26-28.32c4-5.6,10.6-7.75,14.73-4.8S327.42,383.93,323.41,389.54ZM262,409.28l-20.27,28.31c-4,5.61-10.6,7.76-14.72,4.81s-4.22-9.88-.2-15.49l20.26-28.32c4-5.6,10.6-7.75,14.73-4.8S266.05,403.67,262,409.28ZM141,610,120.71,638.3c-4,5.61-10.6,7.76-14.73,4.81s-4.21-9.89-.2-15.49l20.27-28.32c4-5.6,10.6-7.75,14.72-4.81S145,604.38,141,610Zm37.86,16.48-20.26,28.32c-4,5.61-10.61,7.76-14.73,4.81s-4.21-9.88-.2-15.49l20.26-28.32c4-5.6,10.61-7.75,14.73-4.8S182.84,620.86,178.83,626.46ZM92.44,677.81,82,692.35c-4,5.61-10.6,7.76-14.72,4.81s-4.22-9.89-.2-15.49l10.4-14.54c4-5.61,10.6-7.76,14.73-4.81S96.45,672.2,92.44,677.81Zm37,17.65L85.75,756.53c-4,5.61-10.6,7.76-14.73,4.81s-4.21-9.88-.2-15.49l43.71-61.07c4-5.61,10.6-7.76,14.73-4.81S133.47,689.85,129.46,695.46Z"/><path class="cls-2" d="M400.83,579.34H369.59a19,19,0,0,1-19-19V524.22H243.53v36.16a19,19,0,0,1-19,19H193.33a19,19,0,0,1-19-19V523a41.24,41.24,0,0,1-31.32-40V264.43a41.27,41.27,0,0,1,41.22-41.23h57.59l11.08-26.28h88.27L352.3,223.2h57.59a41.27,41.27,0,0,1,41.22,41.23V483a41.26,41.26,0,0,1-31.32,40v37.4A19,19,0,0,1,400.83,579.34Z"/><path class="cls-3" d="M227.73,508.42h138.7v52a3.17,3.17,0,0,0,3.16,3.16h31.24a3.17,3.17,0,0,0,3.16-3.16V508.77l7.43-.44A25.42,25.42,0,0,0,435.31,483V264.43A25.46,25.46,0,0,0,409.89,239H341.82l-11.09-26.28H263.42L252.34,239H184.27a25.45,25.45,0,0,0-25.42,25.43V483a25.41,25.41,0,0,0,23.88,25.34l7.44.44v51.61a3.17,3.17,0,0,0,3.16,3.16h31.24a3.17,3.17,0,0,0,3.16-3.16Z"/><path class="cls-1" d="M398.23,498.87l7-.41a23.81,23.81,0,0,0,22.6-23.55V271.82a23.87,23.87,0,0,0-24.05-23.63h-64.4l-10.5-24.42H265.24l-10.49,24.42h-64.4a23.87,23.87,0,0,0-24,23.63V474.91a23.8,23.8,0,0,0,22.6,23.55l7,.41"/><path class="cls-4" d="M394.56,474.64l6.78-.36c12.21-.65,21.79-9.73,21.79-20.68V275.24c0-11.44-10.41-20.75-23.19-20.75H337.87L327.76,233H266.39l-10.1,21.45H194.22c-12.79,0-23.19,9.31-23.19,20.75V453.6c0,10.95,9.57,20,21.78,20.68l6.78.36"/><path class="cls-5" d="M417.85,268.13,410,302.62a.59.59,0,0,1-1.17-.15c.85-18.65-5-31.81-19.28-37.94a.59.59,0,0,1,.19-1.14L413,262.34A4.74,4.74,0,0,1,417.85,268.13Z"/><path class="cls-5" d="M177.07,268.13,185,302.62a.59.59,0,0,0,1.17-.15c-.85-18.65,5-31.81,19.28-37.94a.59.59,0,0,0-.19-1.14l-23.32-1.05A4.74,4.74,0,0,0,177.07,268.13Z"/><path class="cls-6" d="M329.06,439.16c46.91-36.53,46.45-80,32.92-111.63,0,0-12.12,11.6-24.85,17.87,0,0,26.36-46.12-11.54-76.94,0,0-6.74,16.55-18.79,23.63-13.92,8.18-22.38,12.45-36.92,28.18,0,0,3.24-15.93,5.79-23.95,0,0-69.39,17.35-48.27,102.91,0,0,.52,28.3,20,44.18,19.14,14,55.33,11.08,77.53-1.48A34,34,0,0,0,329.06,439.16Z"/><path class="cls-4" d="M275,303.32l5.75-11.25s-20.48,2.64-38.81,21.57C224.06,332.09,221.27,358,221.27,358Z"/><path class="cls-4" d="M324.13,263.07A33,33,0,0,1,310,287.64c-12.66,8.91-29.8,13.73-40.56,29.22,0,0,1.82-17.07,10-24,0,0-74.48,16.17-54.14,105.53,0,0-.76,32.51,21.08,46.81s52,14.7,84.43-3.3C365,423,382.05,359.9,362.51,324.1c0,0-7.79,11.13-21.31,14.22,0,0,18.38-41-9.14-68.28"/><path class="cls-4" d="M324.15,263.07A33,33,0,0,1,310,287.64c-12.66,8.91-29.8,13.72-40.56,29.22,6.49-14.62,6.43-14.73,11.31-24.79,0,0-72.66,11.28-57.36,105,0,0-8.29-30,35.59-32.2,127.75-6.29,87.37,60.69,87.37,60.69,4.07-5.08,42.53-55.54,16.84-101.5,0,0-8.44,11.13-22,14.22,0,0,22.68-35.18-9.14-68.28"/><path class="cls-7" d="M310.53,368.31s-14.2,21.44-45.68,20.91-31.71-12.17-31.71-12.17l4.8-6.24S277.59,383.75,310.53,368.31Z"/><path class="cls-8" d="M350.53,391.07s20.28-17.1,3.18-45.91c0,0,.61,15.85-1.45,20.82l-9.4-7.52S351.58,378.25,350.53,391.07Z"/><path class="cls-8" d="M276.07,302.1l4.67-10S236.8,298.19,223.25,348C223.25,348,240.5,314.21,276.07,302.1Z"/><path class="cls-1" d="M363,323.38c-8.37,10.52-21.73,14.82-21.73,14.82.15-28.63-5.94-35.85-5.94-35.85.15,53.06-29.05,63.65-36.72,65.58,5.55-.89,22.1-1.22,33.62,13.57,6,7.69,4.11,15.83,4.21,24.94a100,100,0,0,0,10.24-6.08,56,56,0,0,1-8.21,21c-.1.56-.2,1.11-.31,1.65,4.27-1.59,11.84-9.38,11.84-9.38-.88,11.19-17,24.41-18.35,25.89.7,1.3,1.3,1.3,1.3,1.3s27.59-15.18,37.37-61.63C378.12,342.29,363,323.38,363,323.38Zm-12.28,67.23c2.56-11.34-7.28-31.15-7.28-31.15l8.79,6.65c2.06-5,1.45-20.82,1.45-20.82C369.63,373.36,350.75,390.61,350.75,390.61Z"/><path class="cls-1" d="M274,365.79a21.12,21.12,0,0,0,2.56,1.73A8.56,8.56,0,0,0,274,365.79Z"/><path class="cls-1" d="M252.69,339.27c7.84-11.82,18.33-25.9,18.33-25.9s1.88-3.83,5.42-12.12l-2,.65c-30.7,10.45-46.26,36.38-50.3,43.3-9.33,29.66.44,58.27.44,58.27s2.92-31.9,17.47-36.61c0,0-10.19-11.76-7.23-10.32C230.39,353.1,243.58,353,252.69,339.27Z"/><path class="cls-1" d="M324.13,263.07l7.95,8.63s15.87,48.14-23.56,60.57c0,0-12.64,49.58-71.92,25.1,0,0,2.18-2.15,5.42-5.57a82.58,82.58,0,0,1-15.72,9.1s25.23,20.89,62.67,14.51c21-3.58,29.83-14.55,33.34-21.33,6.14-3.56,16.88-10.39,19.64-15.88C365.65,291.1,324.13,263.07,324.13,263.07Z"/><path class="cls-9" d="M331.34,439.59c7.66-6.53,11.91-16.18,14.67-25.65l4.54,3.52a64.33,64.33,0,0,1-5.64,3.7c-3.43,2.19-9.6,4.42-13.43,6l2.6-7.71c2.36-6.95,5.11-15.24,7.27-22.25l6.41,4.17c-1.77,1.48-3.48,2.86-5.31,4.24-3.31,2.67-10.26,6.52-14.05,8.78l2.51-9.13c1.91-8.31,2.45-18.72-3.77-25.27a46.23,46.23,0,0,0-19-12.15c8.07.17,15.94,3.56,22.26,8.5,9.16,7.14,10.12,20.26,7.95,30.86l-5.71-4.3c6.13-3.91,14.47-11.61,20.13-16.37-3.34,11.51-7.17,24.6-11.88,35.56l-4.69-4.77a67.17,67.17,0,0,0,11-4.92l8.07-4.37-5.18,11.55c-4.1,8.2-10.09,16.36-18.75,20Z"/><path class="cls-9" d="M273.42,310.32a185.21,185.21,0,0,1-13.84,22.22,143.4,143.4,0,0,1-29.93,32.27l0-6.24a68.52,68.52,0,0,0,6.24,4c11,6.28,23.32,10.41,36,11,20.19.82,41.5-7.15,51.78-25.44A70.32,70.32,0,0,0,330,333.65c-1,10.82-5.16,21.56-12.64,29.71-11.44,12.62-29,18.17-45.71,17.89a84.3,84.3,0,0,1-46.85-16.48l-4.06-3.16A204,204,0,0,0,244,341.9c8.65-8.94,20.9-22.4,29.41-31.58Z"/><path class="cls-9" d="M281,406.24c-1-14.72,15.61-25.58,29.05-20.39-2.71,1.16-5.19,1.95-7.84,3-8.86,3.52-15.59,9.57-21.21,17.41Z"/><path class="cls-9" d="M269.27,406.34l0,.07s.06,0,0,.08-.05,0-.07-.05-.23-.28-.29-.36c-3.18-4.33-6.67-8.78-10.91-12-4.49-3.53-9.42-5.5-14.85-8,13.14-4.71,27.72,6.87,26.14,20.23Z"/><path class="cls-9" d="M306.29,427.68s6.58-1.85,9.61-.21c0,0,2.24,2.06.68,8.78,0,0-1.94-4.82-3.25-6S306.29,427.68,306.29,427.68Z"/><path class="cls-9" d="M296,417.21c2.6-.15,7.53-1.31,15.06-2.49,0,0-3-2.26-8.42-1.21S296,417.21,296,417.21Z"/><path class="cls-9" d="M243.9,414.21c2.7.58,6.8,1,14.54,2.92,0,0-.38-2.58-6.56-4C246.6,411.91,243.9,414.21,243.9,414.21Z"/><path class="cls-9" d="M241.1,367.63c-6.52,9.14-11.95,18.56-14.25,29.49-1,3.75-1.24,7.38-2,11.26-.43-.9-.8-1.84-1.15-2.78-5.21-14.43,3-32.54,17.39-38Z"/><path class="cls-9" d="M267.24,409.56c-6-6.23-11.55-11.23-20.51-10.52a17.83,17.83,0,0,0-7.95,2.34c2.64-6.16,11-8.05,17-6.25a17,17,0,0,1,11.44,14.43Z"/><path class="cls-9" d="M315.24,401.24a16.89,16.89,0,0,0-8.45-2.09,30.93,30.93,0,0,0-8.26.77c-5.71,1.55-10,5.22-14.73,9a19.28,19.28,0,0,1,4.75-8.5,17.78,17.78,0,0,1,13.88-5.86c4.81.17,10.79,1.87,12.81,6.69Z"/><path class="cls-9" d="M265.93,442s29.3,6,47.46-14.2l1.66,2.47S297.44,452.39,265.93,442Z"/><circle class="cls-9" cx="299.7" cy="406.29" r="9.43"/><circle class="cls-9" cx="253.01" cy="406.19" r="9.43"/><circle class="cls-4" cx="248.55" cy="408.5" r="2.49"/><circle class="cls-4" cx="296" cy="409.26" r="2.55"/><path class="cls-8" d="M235.37,358.4a137.09,137.09,0,0,0,18.85-20.21c8.75-11.76,14.41-20.19,15.59-21.95a49.25,49.25,0,0,1,10.68-10.68c6.49-4.83,9-5.92,9-5.92s7.61-4.18,10.62-5.85,9.12-5,12.95-8.48,7.7-8.94,9.23-13.93a32.89,32.89,0,0,0,1.66-8c.07-.57,8.05,7.24,8.05,7.24l8.19,16.89L336,319.58l-21.54,17.63-10.41,19.63-27.66,7.79-21.75,2.29-17.75-5Z"/></svg>