<svg id="Person" xmlns="http://www.w3.org/2000/svg" width="2090" height="1002" viewBox="0 0 2090 1002">
  <defs>
    <style>
      .cls-1, .cls-2 {
        fill: #cc0035;
      }

      .cls-1, .cls-3 {
        fill-rule: evenodd;
      }

      .cls-3 {
        fill: #0b2b8c;
      }
    </style>
  </defs>
  <path id="Color_Fill_13" data-name="Color Fill 13" class="cls-1" d="M410,675c0-14.433,4.859-30.105,8-42,1.517-5.744,2.092-9.281,4-15,6.754-20.25,11.834-44.647,18-65-1.116-8.9-2.109-16.163-3-22-1.555-15.111-2.879-30.759-2.843-39.834C434.209,478.225,435.5,466.721,437,454c1.226-10.409,3.294-24.165,6-34,0-2.666,2-5.334,2-8,1.583-5.143,4.374-11.6,5-18h-1v-1c-10.846,1.16-23.648,4.532-32,7-1.511,7.322-2.784,12.819-4,21-3.078,20.707-5.176,33.144-9,59-2.3,15.8-2.9,23.379-5,38,0.144,0.3-1.008,4.667-1,5-9.778.867-15.83,1.209-26,2-1.165-29.992-1.973-68.416-3-103,0.092-17.911-.033-30.064,0-40,8.76-6.121,28.314-15.836,45-26,33.037-20,62.81-39.363,97-53,16.054-6.4,36.193-1.437,47,6,8.451,5.816,11.4,14.774,16,26,7.138,16.652,10.514,25.541,17,43,3.2,8.61,5.384,16.227,10,23,12.072,14.231,23.548,22.954,33,31.192C651.887,444.06,653.138,444.35,672,457c17.327,11.62,24.72,16.363,39,26-7.939,10.9-9.715,12.973-19,24-16.918-5.131-16.693-4.9-33-10-17.107-5.354-31.222-9.969-48-16-7.735-3.107-9.737-3.969-20-9-7.133-10.06-21.683-27.8-28-35-0.968-.251-0.57-0.9-1,0-3.733,6.883-5.645,9.44-8,16-4.953,13.8-8.737,24.4-13,36-1.659,4.515-5.853,14.632-5,17,3.026,10.713,9.465,19.313,15,28,13.483,21.16,25.084,36.488,38,57,3.37,5.351,9.121,16.468,12,22a124.084,124.084,0,0,1,8,20c5.2,16.292,8.552,30.688,14,51,4.621,17.228,4.71,19.874,14,53,2.247,8.014,4.212,17.185,7,25,3.1,8.675,6.007,18.576,9,29-11.214,6-22.341,9.906-35,15-4.885,1.966-8.987,4.306-16,5-1.593-6.733-5.825-14.038-8-20-6.09-16.693-11.71-32.2-17-48-3.624-10.825-5.1-14.654-9-27-4.691-14.868-10.678-31.386-16-46-2.614-7.178-3.136-11.423-7-20-2.9-6.448-12.808-17.427-17-23-4.841-6.436-20.668-23.748-27-26a3.419,3.419,0,0,0,0,1,181.515,181.515,0,0,1-6,18c-4.8,11.743-10.548,25.242-15,37-1.438,4.377-3.57,11.732-5,17-7.333,0-12.409,1-22,1C438.636,675,418.648,675.112,410,675Z"/>
  <circle class="cls-2" cx="565" cy="251" r="43"/>
  <path id="Color_Fill_15" data-name="Color Fill 15" class="cls-3" d="M728,461c-9.12-9.313-14.123-14.609-22-18-19.172-61.083-38.869-78.57-58-95-8.051-6.914-23.15-15.731-33-20-5.889-2.552-6.049-2.416-14-6-0.877-1.3-.894-4.467-1-7a125.667,125.667,0,0,1,12.094-10.9C625.986,311.328,641.776,318.03,651,325,684.392,350.231,722.325,390.458,728,461Z"/>
  <path id="Color_Fill_12" data-name="Color Fill 12" class="cls-3" d="M561,801l-218,1V781l212-1v1h1C556.65,789.182,560.6,791.838,561,801Z"/>
  <path id="Color_Fill_11" data-name="Color Fill 11" class="cls-3" d="M286,435h21V725l228-1c1.778,7.041,5.28,12.431,6,21l-234,1c-1.151,76.681.649,157.688,23,212,6.28,15.261,14.976,28.753,23,42-8.666,0-17.334,2-27.412.69C316.558,983.318,312.611,976.8,309,965c-9.267-30.281-12.986-44.139-18-81q-1-14.5-2-29c-2.623-49.815-3-89.15-3-129V435Z"/>
  <path id="Color_Fill_10" data-name="Color Fill 10" class="cls-3" d="M229,435h21V712c0,85.337,3.053,151.429-34,203-22.039,30.674-61.519,41.53-103,53l-51,8c-11.44,3.187-23.577,7.182-33,13-9.64,5.952-12.116,10.851-29,11V983c16.713-7.939,30.458-19.557,50-26,14.258-4.7,29.478-3.1,45-7,37.648-9.452,80.78-17.067,101-44,34.025-45.321,33-107.313,33-187V435Z"/>
  <path id="Color_Fill_9" data-name="Color Fill 9" class="cls-3" d="M0,290H462v2c-0.667,0-10.129,5.209-16,9a80.2,80.2,0,0,1-19,10H0V290Z"/>
  <path id="Color_Fill_8" data-name="Color Fill 8" class="cls-3" d="M495,235a48.385,48.385,0,0,0,1,21H303c-27.848,0-71.563,3.971-95-2-53.4-13.6-96.312-33.537-136-60-20.538-13.694-34.969-25.462-56-43-6.268-5.227-13.6-9.607-16-15V106H1c9.6,14.167,30.024,31.458,44,42,13.84,10.439,22.235,18.441,33,26,39.338,27.624,85.178,47.068,139,60,11.67,2.261,15.917,2,29,2,19.665,0,40.335-1,60-1H495Z"/>
  <path id="Color_Fill_7" data-name="Color Fill 7" class="cls-3" d="M345,435h21V674c49.337,0.22,104.288-1,150-1,2.588,5.667,5.217,13.9,8,21-63.569,0-117.974.859-179,1V435Z"/>
  <path id="Color_Fill_6" data-name="Color Fill 6" class="cls-3" d="M725,512c2.433-4.735,4.34-7.365,4,2-1.016,9.976-1.87,15.95-4,23-4.585,15.174-8.9,30.149-15,44-8.375,19.019-31.1,51.709-47,63-5.686,4.038-8.14,5.908-11,8-1.549.936-5.971,4.807-7,4-2.19-7.748-4.574-15.413-6-21,21.247-11.241,44.032-45.007,54-68,3.112-7.178,7.3-20.351,10-32,1.667-1,4.333-4,6-5A115.962,115.962,0,0,0,725,512Z"/>
  <path id="Color_Fill_5" data-name="Color Fill 5" class="cls-3" d="M1000,1000H986c-4.062-17.384-12.429-35.639-17-54-5.162-20.731-7.391-36.084-10-62-0.667-10.666-1.469-19.976-2-32-0.826-14.657-1.517-17.933-3-32-2.9-27.536-6.613-54.675-19-75-20.735-34.024-58.966-47.337-97-64-12.084-5.294-24.216-11.643-41-17-8.243,14.383-14.915,22.333-23,32-18.648,22.3-38.588,38.2-62,55-9.852,7.071-19.953,15.527-33,21-0.984-7.908-4.6-12.14-5-21,38.312-22.04,79.748-56.148,103-93,17.569-27.845,27.473-58.839,38-94,8.739-29.188,15.132-70.783,10-108-2.945-21.357-7.662-43.018-14-60-10.618-28.449-23.872-50.566-40-74-5.012-7.282-10.978-13.419-17-21,5.732-3.733,10.327-8.426,17-13,0,0.333,1,.667,1,1,27.974,27.287,48.452,68.315,62,110,5.048,15.532,7.665,30.642,10,48,2.874,21.368,5.933,43.342,0,85-4.421,31.04-14.284,57.644-24,85-2.079,5.854-7.6,18.267-11,28,12.757,6.714,20.72,9.824,33,15,10.382,4.376,20.326,9.76,30,14,19.231,8.428,35.552,16.355,54,28,28.286,17.854,41.389,58.49,46,91,1.987,14.012,2,18.193,4,38,0,4,1,12,1,16,2.455,22.78,3.65,38.046,6,57,1.74,14.033,2.882,22.8,6,34C994.623,958.2,1003.11,972.753,1000,1000Z"/>
  <path id="Color_Fill_4" data-name="Color Fill 4" class="cls-3" d="M1000,0V15C937.137,39.46,880.9,67.893,845,119c-15.445,21.988-25.333,45.144-39,72-9.988,19.626-20.426,32.366-35,52a204.266,204.266,0,0,1-16,18c-14.369,14.446-25.544,25.265-43,40,0.631,1.754,3.193,3.971,4,5,1.614,2.4,1.985,2.584,5,6a330.28,330.28,0,0,1,22,28c16.684,23.65,26.84,39.937,38,72a224.949,224.949,0,0,1,9,40c3.465,21.56-2.254,66.759-5.093,79.463C780.783,549.919,779.755,553.475,777,563c-7.764,26.841-20.352,51.426-35,73a359.307,359.307,0,0,1-23,29c-12.783,14.686-23.684,24.648-38,35-6.036,4.365-11.475,8.756-20,13a161.508,161.508,0,0,0-5-21c15.122-10.28,35.838-26.578,46-39,4.911-6,11.478-13.574,16-20,23.575-33.5,37.774-63.391,47-110,4.421-22.332,5.613-50.221,4-72-0.862-11.606-7-28.334-10-40-12.849-30.781-30.356-55.368-50-79-6.351-7.64-20.635-22.206-28-32,5.593-4.578,10.49-8.609,16-13,13.9-11.079,50.761-44.757,74-80,15.26-23.142,19.417-31.22,32-57,4.307-8.825,14.084-29.61,21-38,23.112-28.041,46.95-53.341,78-73C928.06,22.5,958.43.164,1000,0Z"/>
  <path id="Color_Fill_3" data-name="Color Fill 3" class="cls-3" d="M779,0h21c1.458,61.289-22.489,132.239-46,170-7.516,12.072-16.857,23.551-26,34-9.751,11.144-16.446,19.45-26,29-3,3.333-17,14.667-20,18-11.133,9.305-9.076,7.119-20,16-5.182,4.212-8.919,6.082-16,11-5.85-1.54-6.891-1.972-13-4,0.3-7.889,1.2-17.417,0-23,0.333,0,4.193,1.295,6,2,2.722,0.8,3.1,2.082,5,0,9.709-6.8,11.01-6.973,21-15a325.794,325.794,0,0,0,28-25,154.345,154.345,0,0,0,14-15C745.643,146.9,777.322,88.057,779,0Z"/>
  <path id="Color_Fill_2" data-name="Color Fill 2" class="cls-3" d="M726,0h21c0.166,12.034-2.506,25.4-4,36-2.155,15.282-3.038,28.146-5.907,41.784C728.21,120,711.232,158.189,681,181c-13.118,9.9-24.149,16.782-49,31-4.582-1.849-4.858-2.207-9.962-4.071C617.11,202.266,613.567,197.987,609,194c-5.862-4.614-5.953-4.473-12-9v-3c16.206,2.741,24.347,4.5,36.98,6.984,6.776-3.517,7.729-3.653,13.02-6.984,8.9-5.6,27.7-16.67,34-25C714.256,113.037,720.562,71.847,726,0Z"/>
  <path id="Color_Fill_1" data-name="Color Fill 1" class="cls-3" d="M0,0H17c6.065,26.971,20.679,49.642,35,69A211.785,211.785,0,0,0,66,86c14.635,15.48,23.359,20.195,37,30,37.2,26.741,75.234,50.089,128,62l244-1h53c7.651,0,18.019-.968,24,1v2c-16.893-.033-24.26.658-34,10a23.61,23.61,0,0,0-7,9H228c-8.845-2.015-14.391-1.988-27-6a223.577,223.577,0,0,1-27-10C116.17,157.734,64.813,121.578,30,73,15.661,52.992-.061,34.3,0,0Z"/>
  <path id="This_Dallas_Life" data-name="This Dallas Life" class="cls-3" d="M1208.97,38.043h32.61a31.683,31.683,0,0,1,12.62,2.212,21.65,21.65,0,0,1,8.19,5.981A26.723,26.723,0,0,1,1267.14,55a54.616,54.616,0,0,1,2.3,10.57L1271.07,80h17.38l-1.64-58.667H1097.86L1096.22,80h17.37l1.8-14.421A59.439,59.439,0,0,1,1117.6,55a24.863,24.863,0,0,1,4.76-8.767,22.461,22.461,0,0,1,8.19-5.981,30.57,30.57,0,0,1,12.37-2.212h32.12V224.37q0,7.374-2.21,11.881a15.877,15.877,0,0,1-5.98,6.8,23.152,23.152,0,0,1-8.77,3.031,72.4,72.4,0,0,1-10.57.738h-7.7v14.093H1244.2V246.821h-7.7a66.731,66.731,0,0,1-10.66-.819,21.162,21.162,0,0,1-8.76-3.36,17.548,17.548,0,0,1-5.9-7.292q-2.22-4.752-2.21-12.619V38.043Zm188.28,208.778a72.4,72.4,0,0,1-10.57-.738,23.1,23.1,0,0,1-8.76-3.031,15.9,15.9,0,0,1-5.99-6.8q-2.205-4.506-2.21-11.881v-70.8a94.4,94.4,0,0,1,2.46-22.369A50.406,50.406,0,0,1,1379.64,114a33.847,33.847,0,0,1,12.61-10.979,39.739,39.739,0,0,1,18.11-3.851q10.17,0,17.21,3.031a27.206,27.206,0,0,1,11.39,8.932,38.778,38.778,0,0,1,6.31,14.421,87.271,87.271,0,0,1,1.96,19.5v115.86h58.34V246.821h-0.98a60.6,60.6,0,0,1-10.32-.819,19.034,19.034,0,0,1-8.2-3.36,16.735,16.735,0,0,1-5.4-7.292q-1.98-4.752-1.97-12.619V143.415q0-17.207-3.93-29.661t-11.48-20.4a45.967,45.967,0,0,0-18.6-11.8,76.817,76.817,0,0,0-25.31-3.851q-34.26,0-49.33,30.481h-1.64q0.33-4.752.66-9.669c0.21-2.84.38-5.925,0.49-9.259s0.16-6.527.16-9.587V5.923h-61.78V20.017h2.62a72.359,72.359,0,0,1,10.57.738,21.612,21.612,0,0,1,8.77,3.2,17.039,17.039,0,0,1,5.98,6.965q2.22,4.509,2.21,11.881V222.731q0,7.866-2.21,12.619a17.548,17.548,0,0,1-5.9,7.292,21.08,21.08,0,0,1-8.68,3.36,66.3,66.3,0,0,1-10.74.819h-2.62v14.093h90.3V246.821h-0.99Zm132.08,0v14.093h95.38V246.821h-4.43a66.6,66.6,0,0,1-10.65-.819,21.152,21.152,0,0,1-8.77-3.36,17.625,17.625,0,0,1-5.9-7.292q-2.2-4.752-2.21-12.619V80.978h-59.98V95.072h0.98a65.35,65.35,0,0,1,10.57.819,22.489,22.489,0,0,1,8.77,3.278,17.039,17.039,0,0,1,5.98,6.964q2.22,4.509,2.22,11.881V224.37q0,7.374-2.22,11.881a15.877,15.877,0,0,1-5.98,6.8,23.092,23.092,0,0,1-8.77,3.031,72.3,72.3,0,0,1-10.57.738h-4.42ZM1558.01,36.4a16.5,16.5,0,0,0,4.1,6.391,15.3,15.3,0,0,0,6.06,3.523,25.288,25.288,0,0,0,7.54,1.065,24.715,24.715,0,0,0,7.37-1.065,14.668,14.668,0,0,0,5.98-3.523,17.856,17.856,0,0,0,4.1-6.391,26.843,26.843,0,0,0,1.56-9.832,26.844,26.844,0,0,0-1.56-9.833,17.856,17.856,0,0,0-4.1-6.391,13.937,13.937,0,0,0-5.98-3.441,26.692,26.692,0,0,0-7.37-.983,27.314,27.314,0,0,0-7.54.983,14.519,14.519,0,0,0-6.06,3.441,16.5,16.5,0,0,0-4.1,6.391,28.317,28.317,0,0,0-1.48,9.833A28.316,28.316,0,0,0,1558.01,36.4Zm175.26,224.51A59.367,59.367,0,0,0,1754.16,251a45.244,45.244,0,0,0,13.44-16.47q4.755-9.833,4.75-22.942a53.473,53.473,0,0,0-2.95-18.518,41.071,41.071,0,0,0-9.09-14.421,68.8,68.8,0,0,0-15.65-11.8,214.344,214.344,0,0,0-22.78-10.979q-11.145-4.587-19.09-8.276a65.778,65.778,0,0,1-12.95-7.62,25.313,25.313,0,0,1-7.29-8.6,24.827,24.827,0,0,1-2.3-11.061,31.012,31.012,0,0,1,1.81-10.816,21.76,21.76,0,0,1,5.65-8.522,26.036,26.036,0,0,1,9.91-5.571,47.61,47.61,0,0,1,14.59-1.966q14.91,0,21.88,9.341t6.96,26.22q11.64,0,17.95-5.49t6.31-14.667a24.245,24.245,0,0,0-3.12-11.881,28.515,28.515,0,0,0-9.34-9.833,51.405,51.405,0,0,0-15.4-6.637,82.058,82.058,0,0,0-21.14-2.458,100.252,100.252,0,0,0-25.9,3.114,61.26,61.26,0,0,0-19.99,9.1,40.823,40.823,0,0,0-12.86,14.831,44.105,44.105,0,0,0-4.51,20.321,51.961,51.961,0,0,0,3.11,18.927,41.124,41.124,0,0,0,9.34,14.176,71.071,71.071,0,0,0,15.82,11.553q9.585,5.328,22.53,11.062,12.135,5.246,20.16,9.341a67.673,67.673,0,0,1,12.7,8.03,22.581,22.581,0,0,1,6.55,8.439,27.672,27.672,0,0,1,1.89,10.734,30.675,30.675,0,0,1-2.46,12.373,26.481,26.481,0,0,1-7.13,9.668,32.846,32.846,0,0,1-11.55,6.228,52.033,52.033,0,0,1-15.9,2.212q-10.155,0-17.12-3.36a29.444,29.444,0,0,1-11.23-9.177,36.721,36.721,0,0,1-6.06-13.519,72.052,72.052,0,0,1-1.8-16.552,24.229,24.229,0,0,0-6.64,1.065,19.21,19.21,0,0,0-6.88,3.688,20.97,20.97,0,0,0-5.41,7.128,25.311,25.311,0,0,0-2.21,11.226,29.825,29.825,0,0,0,3.93,15.486,32.87,32.87,0,0,0,11.14,11.144,54.381,54.381,0,0,0,17.46,6.718,108.442,108.442,0,0,0,22.86,2.213A104.6,104.6,0,0,0,1733.27,260.914ZM1306.96,438.992q-7.365-22.286-21.38-37.528a90.872,90.872,0,0,0-34.33-23.188q-20.325-7.947-46.22-7.948H1102.28v14.093h4.26a72.444,72.444,0,0,1,10.57.737,21.615,21.615,0,0,1,8.77,3.2,17.039,17.039,0,0,1,5.98,6.965q2.22,4.509,2.21,11.881V571.731q0,7.866-2.13,12.619a16.745,16.745,0,0,1-5.9,7.292,21.713,21.713,0,0,1-8.76,3.36,66.3,66.3,0,0,1-10.74.819h-4.26v14.093h102.75q27.375,0,47.85-8.439a89.538,89.538,0,0,0,34.09-24.09q13.6-15.648,20.49-37.855,6.87-22.2,6.88-49.737Q1314.34,461.28,1306.96,438.992ZM1168,592.871V387.043h29.49q39.825,0,59.74,26.384t19.91,76.366q0,24.912-5,44.083t-14.99,32.283a64.438,64.438,0,0,1-25,19.911q-14.985,6.8-34.98,6.8H1168Zm224.09-49a28.783,28.783,0,0,1,8.44-12.7,41.064,41.064,0,0,1,15.49-8.03q9.585-2.865,23.84-3.523l21.47-.984v27.2a56.866,56.866,0,0,1-3.12,19.337,40.8,40.8,0,0,1-8.93,14.749,39.245,39.245,0,0,1-14.09,9.341,49.646,49.646,0,0,1-18.44,3.277q-13.92,0-20.56-7.784t-6.64-23.516A54.46,54.46,0,0,1,1392.09,543.872Zm54.57-97.424a21.959,21.959,0,0,1,9.42,8.522,33.56,33.56,0,0,1,4.26,13.11,129.56,129.56,0,0,1,.99,16.633V504.87l-27.86.983q-38.52,1.149-57.52,14.093-19.02,12.948-19.01,39.658,0,13.765,3.93,23.844a45.584,45.584,0,0,0,10.9,16.716A43.629,43.629,0,0,0,1388.32,610a65.142,65.142,0,0,0,20.73,3.2,59.671,59.671,0,0,0,17.95-2.376,46.87,46.87,0,0,0,13.35-6.637,59.043,59.043,0,0,0,10.82-10.161q4.92-5.9,10.16-12.946h2.78l5.25,28.842h45.39V595.821h-0.98a35.19,35.19,0,0,1-9.59-1.147,13.2,13.2,0,0,1-6.47-3.933,17.33,17.33,0,0,1-3.61-7.375,49.386,49.386,0,0,1-1.14-11.635V484.713q0-16.059-3.85-27.121a42.037,42.037,0,0,0-11.56-17.945,45.82,45.82,0,0,0-19.17-9.914,105.934,105.934,0,0,0-26.88-3.032,144.76,144.76,0,0,0-23.43,1.8,74.2,74.2,0,0,0-19.26,5.653,34.943,34.943,0,0,0-13.03,9.915,23.168,23.168,0,0,0-4.75,14.749q0,11.637,7.29,16.387t21.23,4.753a87.345,87.345,0,0,1,1.14-14.585,29.069,29.069,0,0,1,4.51-11.636,21.949,21.949,0,0,1,9.34-7.62q5.985-2.7,15.65-2.7Q1440.51,443.416,1446.66,446.448Zm93.65,149.373v14.093h95.21V595.821h-4.26a66.177,66.177,0,0,1-10.73-.819,21.7,21.7,0,0,1-8.77-3.36,16.815,16.815,0,0,1-5.9-7.292q-2.13-4.752-2.13-12.619V354.923h-63.42v14.094h4.26a72.4,72.4,0,0,1,10.57.737,21.669,21.669,0,0,1,8.77,3.2,17.11,17.11,0,0,1,5.98,6.964q2.2,4.509,2.21,11.881V571.731q0,7.866-2.21,12.619a17.625,17.625,0,0,1-5.9,7.292,21.07,21.07,0,0,1-8.69,3.36,66.177,66.177,0,0,1-10.73.819h-4.26Zm110.77,0v14.093h95.22V595.821h-4.27A66.177,66.177,0,0,1,1731.3,595a21.814,21.814,0,0,1-8.77-3.36,16.815,16.815,0,0,1-5.9-7.292q-2.13-4.752-2.13-12.619V354.923h-63.42v14.094h4.26a72.305,72.305,0,0,1,10.57.737,21.561,21.561,0,0,1,8.77,3.2,17.036,17.036,0,0,1,5.98,6.964q2.22,4.509,2.22,11.881V571.731q0,7.866-2.22,12.619a17.548,17.548,0,0,1-5.9,7.292,21.026,21.026,0,0,1-8.68,3.36,66.3,66.3,0,0,1-10.74.819h-4.26Zm158.22-51.949a28.783,28.783,0,0,1,8.44-12.7,40.988,40.988,0,0,1,15.49-8.03q9.585-2.865,23.84-3.523l21.47-.984v27.2a56.866,56.866,0,0,1-3.12,19.337,40.8,40.8,0,0,1-8.93,14.749,39.332,39.332,0,0,1-14.09,9.341,49.646,49.646,0,0,1-18.44,3.277q-13.92,0-20.56-7.784t-6.64-23.516A54.181,54.181,0,0,1,1809.3,543.872Zm54.57-97.424a21.959,21.959,0,0,1,9.42,8.522,33.56,33.56,0,0,1,4.26,13.11,129.56,129.56,0,0,1,.99,16.633V504.87l-27.86.983q-38.52,1.149-57.52,14.093-19.02,12.948-19.01,39.658,0,13.765,3.93,23.844a45.459,45.459,0,0,0,10.9,16.716A43.629,43.629,0,0,0,1805.53,610a65.142,65.142,0,0,0,20.73,3.2,59.556,59.556,0,0,0,17.94-2.376,46.929,46.929,0,0,0,13.36-6.637,59.365,59.365,0,0,0,10.82-10.161q4.9-5.9,10.16-12.946h2.78l5.25,28.842h45.39V595.821h-0.98a35.19,35.19,0,0,1-9.59-1.147,13.2,13.2,0,0,1-6.47-3.933,17.33,17.33,0,0,1-3.61-7.375,49.324,49.324,0,0,1-1.15-11.635V484.713q0-16.059-3.85-27.121a42.02,42.02,0,0,0-11.55-17.945,45.881,45.881,0,0,0-19.17-9.914,105.934,105.934,0,0,0-26.88-3.032,144.76,144.76,0,0,0-23.43,1.8,74.2,74.2,0,0,0-19.26,5.653,34.863,34.863,0,0,0-13.03,9.915,23.168,23.168,0,0,0-4.75,14.749q0,11.637,7.29,16.387t21.23,4.753a87.345,87.345,0,0,1,1.14-14.585,29.069,29.069,0,0,1,4.51-11.636,21.949,21.949,0,0,1,9.34-7.62q5.985-2.7,15.65-2.7Q1857.72,443.416,1863.87,446.448Zm186.81,163.466a59.417,59.417,0,0,0,20.9-9.914,45.217,45.217,0,0,0,13.43-16.47q4.755-9.832,4.76-22.942a53.71,53.71,0,0,0-2.95-18.518,41.1,41.1,0,0,0-9.1-14.421,68.579,68.579,0,0,0-15.65-11.8,214.344,214.344,0,0,0-22.78-10.979q-11.145-4.587-19.09-8.276a66.075,66.075,0,0,1-12.95-7.62,25.313,25.313,0,0,1-7.29-8.6,24.828,24.828,0,0,1-2.29-11.061,31.245,31.245,0,0,1,1.8-10.816,21.869,21.869,0,0,1,5.65-8.522,26.086,26.086,0,0,1,9.92-5.571,47.541,47.541,0,0,1,14.58-1.967q14.91,0,21.88,9.341t6.97,26.22q11.625,0,17.94-5.49t6.31-14.667a24.344,24.344,0,0,0-3.11-11.881,28.514,28.514,0,0,0-9.34-9.832,51.473,51.473,0,0,0-15.41-6.637,82.05,82.05,0,0,0-21.14-2.458,100.178,100.178,0,0,0-25.89,3.113,61.189,61.189,0,0,0-19.99,9.1,40.765,40.765,0,0,0-12.87,14.831,44.232,44.232,0,0,0-4.51,20.321,51.75,51.75,0,0,0,3.12,18.928,40.988,40.988,0,0,0,9.34,14.175,70.764,70.764,0,0,0,15.81,11.553q9.585,5.328,22.54,11.062,12.12,5.246,20.15,9.341a67.724,67.724,0,0,1,12.7,8.03,22.615,22.615,0,0,1,6.56,8.439,27.866,27.866,0,0,1,1.88,10.734,30.671,30.671,0,0,1-2.46,12.373,26.456,26.456,0,0,1-7.12,9.668,32.983,32.983,0,0,1-11.56,6.228,51.981,51.981,0,0,1-15.89,2.212q-10.17,0-17.13-3.359a29.5,29.5,0,0,1-11.22-9.178,36.574,36.574,0,0,1-6.07-13.519,72.61,72.61,0,0,1-1.8-16.552,24.229,24.229,0,0,0-6.64,1.065,19.293,19.293,0,0,0-6.88,3.688,21.1,21.1,0,0,0-5.41,7.128,25.45,25.45,0,0,0-2.21,11.226,29.825,29.825,0,0,0,3.93,15.486,32.991,32.991,0,0,0,11.15,11.144,54.23,54.23,0,0,0,17.45,6.718,108.577,108.577,0,0,0,22.86,2.213A104.6,104.6,0,0,0,2050.68,609.914Zm-768.46,349,2.29-72.105h-17.53l-3.28,25.073a52.334,52.334,0,0,1-2.54,10.816,33.052,33.052,0,0,1-5.33,9.75,25.966,25.966,0,0,1-8.76,7.047,28.152,28.152,0,0,1-12.87,2.7H1168v-186q0-7.376,2.21-11.881a17.039,17.039,0,0,1,5.98-6.965,21.561,21.561,0,0,1,8.77-3.2,72.444,72.444,0,0,1,10.57-.737h4.42V719.328h-97.67v14.093h4.26a66.644,66.644,0,0,1,10.74.819,21.771,21.771,0,0,1,8.76,3.36,16.78,16.78,0,0,1,5.9,7.292q2.13,4.755,2.13,12.619v163.22q0,7.866-2.13,12.619a16.745,16.745,0,0,1-5.9,7.292,21.713,21.713,0,0,1-8.76,3.36,66.3,66.3,0,0,1-10.74.819h-4.26v14.093h179.94Zm30.8-14.093v14.093h95.38V944.821h-4.43a66.6,66.6,0,0,1-10.65-.819,21.152,21.152,0,0,1-8.77-3.36,17.625,17.625,0,0,1-5.9-7.292q-2.2-4.752-2.21-12.619V778.978h-59.98v14.094h0.98a65.4,65.4,0,0,1,10.57.819,22.486,22.486,0,0,1,8.77,3.278,17.036,17.036,0,0,1,5.98,6.964q2.22,4.51,2.22,11.881V922.37q0,7.374-2.22,11.881a15.877,15.877,0,0,1-5.98,6.8,23.109,23.109,0,0,1-8.77,3.032,72.444,72.444,0,0,1-10.57.737h-4.42ZM1341.7,734.4a16.489,16.489,0,0,0,4.1,6.391,15.306,15.306,0,0,0,6.06,3.524,25.332,25.332,0,0,0,7.54,1.065,24.712,24.712,0,0,0,7.37-1.065,14.675,14.675,0,0,0,5.98-3.524,17.849,17.849,0,0,0,4.1-6.391,31.767,31.767,0,0,0,0-19.665,17.858,17.858,0,0,0-4.1-6.391,13.929,13.929,0,0,0-5.98-3.441,26.672,26.672,0,0,0-7.37-.984,27.345,27.345,0,0,0-7.54.984,14.51,14.51,0,0,0-6.06,3.441,16.5,16.5,0,0,0-4.1,6.391A33.4,33.4,0,0,0,1341.7,734.4Zm177.63,210.417a66.7,66.7,0,0,1-10.65-.819,21.152,21.152,0,0,1-8.77-3.36,17.7,17.7,0,0,1-5.9-7.292q-2.205-4.752-2.21-12.619V794.874h47.36v-15.9H1491.8V759.149a124.832,124.832,0,0,1,1.23-18.681,41.881,41.881,0,0,1,4.18-13.52,20.447,20.447,0,0,1,7.78-8.276,23.86,23.86,0,0,1,12.05-2.786,22.288,22.288,0,0,1,10.65,2.294,18.762,18.762,0,0,1,6.8,6.064,24.856,24.856,0,0,1,3.61,8.6,45.97,45.97,0,0,1,1.06,9.915,46.343,46.343,0,0,0,11.06-1.229,28.414,28.414,0,0,0,8.69-3.605,17.393,17.393,0,0,0,5.74-5.9,15.89,15.89,0,0,0,2.04-8.112,18.766,18.766,0,0,0-2.45-9.505,20.558,20.558,0,0,0-7.95-7.374,47.939,47.939,0,0,0-14.51-4.834,120.2,120.2,0,0,0-22.12-1.721,71.624,71.624,0,0,0-24.74,4.015,49.636,49.636,0,0,0-18.69,11.881,52.268,52.268,0,0,0-11.79,19.337q-4.11,11.473-4.1,26.548v16.715h-30.65v15.9h30.65V920.731q0,7.866-2.21,12.619a17.7,17.7,0,0,1-5.9,7.292,21.124,21.124,0,0,1-8.69,3.36,66.177,66.177,0,0,1-10.73.819h-4.43v14.093h103.74V944.821h-12.79Zm140.03-146.833a31.352,31.352,0,0,1,11.22,12.127,62.628,62.628,0,0,1,6.23,18.846,138.071,138.071,0,0,1,1.97,24.253h-77.19q1.8-29.168,11.88-44.328t28.76-15.159Q1652.4,793.727,1659.36,797.988Zm12.95,160.926a67.937,67.937,0,0,0,18.43-8.193,36.116,36.116,0,0,0,10.98-10.734q3.6-5.815,3.61-10.9a13.162,13.162,0,0,0-2.05-7.375,10.554,10.554,0,0,0-4.34-4.1,43.16,43.16,0,0,1-7.63,8.767,55.677,55.677,0,0,1-10.73,7.456,60.961,60.961,0,0,1-13.52,5.244,63.125,63.125,0,0,1-16.14,1.967,52.276,52.276,0,0,1-21.14-4.015,38.067,38.067,0,0,1-15.49-12.537q-6.3-8.518-9.67-21.713t-3.68-31.546H1712.7v-15.4q0-19.825-4.83-34.823t-13.85-25.073a56.9,56.9,0,0,0-21.96-15.159,79.329,79.329,0,0,0-29.17-5.08q-35.73,0-55.06,23.762-19.35,23.763-19.34,70.794,0,21.8,5.33,38.921,5.31,17.125,15.32,28.924a64.68,64.68,0,0,0,24.5,17.944q14.5,6.145,32.69,6.146A91.978,91.978,0,0,0,1672.31,958.914Z"/>
</svg>
