<?xml version="1.0" encoding="utf-8"?>
<!-- Generator: Adobe Illustrator 28.3.0, SVG Export Plug-In . SVG Version: 6.00 Build 0)  -->
<svg version="1.1" id="Layer_1" xmlns="http://www.w3.org/2000/svg" xmlns:xlink="http://www.w3.org/1999/xlink" x="0px" y="0px"
	 viewBox="0 0 400 42.7" style="enable-background:new 0 0 400 42.7;" xml:space="preserve">
<style type="text/css">
	.st0{fill:#FFFFFF;}
</style>
<path class="st0" d="M17.8,4c7.5,0,13,1.6,16.7,4.8c3.6,3.2,5.4,7.8,5.4,13.7c0,3.9-0.9,7.3-2.7,10.2s-4.4,5.2-7.7,6.8
	s-7.4,2.4-12.2,2.4c-0.6,0-1.3,0-2.3,0c-0.9,0-1.9-0.1-3-0.1c-1,0-2,0-2.8,0c-1.8,0-3.5,0-5.2,0c-1.7,0-3.1,0.1-4.1,0.1v-1.1
	c1.1-0.1,1.9-0.2,2.5-0.4c0.5-0.2,0.9-0.6,1.1-1.3c0.2-0.6,0.3-1.6,0.3-2.9V9.6c0-1.3-0.1-2.3-0.3-2.9C3.4,6.1,3,5.7,2.4,5.4
	C1.9,5.2,1.1,5.1,0,5V4C1,4,2.4,4,4.1,4.1s3.4,0.1,5.1,0c1.3,0,2.8-0.1,4.5-0.1C15.3,4,16.7,4,17.8,4L17.8,4z M18.6,4.9
	c-1.6,0-2.7,0.3-3.2,0.9s-0.8,1.8-0.8,3.7v26.8c0,1.9,0.3,3.1,0.8,3.7c0.5,0.6,1.6,0.9,3.2,0.9c2.4,0,4.4-0.7,5.8-2.1
	s2.5-3.5,3.2-6.2s1-6,1-9.9s-0.4-7.3-1-9.9c-0.7-2.6-1.8-4.6-3.3-5.9S21,4.9,18.6,4.9L18.6,4.9z"/>
<path class="st0" d="M50.2,42.2c-1.7,0-3-0.3-4.1-1s-1.8-1.5-2.3-2.5c-0.5-1-0.7-2.1-0.7-3.3c0-1.5,0.3-2.7,1-3.7
	c0.7-0.9,1.6-1.7,2.7-2.3s2.2-1.1,3.5-1.5s2.4-0.8,3.5-1.1c1.1-0.4,2-0.8,2.7-1.3s1-1.2,1-2v-4.8c0-0.6-0.1-1.2-0.3-1.9
	c-0.2-0.7-0.6-1.3-1.1-1.8c-0.5-0.5-1.3-0.8-2.4-0.8c-0.6,0-1.1,0.1-1.6,0.2s-1,0.4-1.4,0.7c1.2,0.5,2.2,1.1,2.7,2
	c0.6,0.8,0.9,1.8,0.9,2.8c0,1.4-0.5,2.5-1.5,3.4s-2.2,1.2-3.5,1.2c-1.4,0-2.5-0.5-3.3-1.3c-0.8-0.9-1.2-2-1.2-3.3
	c0-1.1,0.3-2,0.8-2.8c0.5-0.8,1.4-1.5,2.5-2.1c1.1-0.6,2.3-1,3.8-1.3s3.1-0.4,4.7-0.4c1.8,0,3.4,0.2,4.9,0.5s2.8,1.1,3.9,2.2
	c0.8,0.8,1.2,1.8,1.4,2.9c0.2,1.2,0.3,2.7,0.3,4.5v14.3c0,0.9,0.1,1.5,0.2,1.8c0.1,0.3,0.3,0.5,0.7,0.5c0.3,0,0.6-0.1,0.8-0.3
	c0.3-0.2,0.5-0.4,0.8-0.5l0.5,0.9c-0.8,0.7-1.8,1.2-2.9,1.5c-1.2,0.3-2.4,0.5-3.7,0.5c-1.5,0-2.7-0.2-3.6-0.6
	c-0.8-0.4-1.4-0.9-1.8-1.5c-0.3-0.6-0.5-1.3-0.6-2c-0.8,1.2-1.7,2.2-2.8,2.9C53.5,41.8,52.1,42.2,50.2,42.2L50.2,42.2z M55.3,37.9
	c0.4,0,0.7-0.1,1-0.2c0.3-0.1,0.6-0.4,0.9-0.7V25.7c-0.2,0.5-0.6,0.9-1,1.4c-0.4,0.5-0.8,0.9-1.3,1.4s-0.8,1-1.2,1.5
	c-0.4,0.5-0.7,1.1-0.9,1.9c-0.2,0.7-0.3,1.5-0.3,2.4c0,1.4,0.3,2.3,0.8,2.9S54.5,37.9,55.3,37.9L55.3,37.9z"/>
<path class="st0" d="M83.9,0v36.9c0,1.5,0.2,2.5,0.7,3s1.2,0.8,2.3,0.8v1.1c-0.7,0-1.8-0.1-3.2-0.1s-2.9-0.1-4.4-0.1s-3,0-4.6,0.1
	c-1.5,0-2.7,0.1-3.5,0.1v-1.1c1.1,0,1.9-0.3,2.3-0.8c0.4-0.5,0.7-1.5,0.7-3V6.4c0-1.6-0.2-2.8-0.6-3.6s-1.2-1.1-2.3-1.1V0.6
	c1.1,0.1,2.2,0.2,3.3,0.2c1.8,0,3.4-0.1,5-0.2C81.1,0.4,82.6,0.2,83.9,0L83.9,0z"/>
<path class="st0" d="M101.4,0v36.9c0,1.5,0.2,2.5,0.7,3s1.2,0.8,2.3,0.8v1.1c-0.7,0-1.8-0.1-3.2-0.1s-2.9-0.1-4.4-0.1s-3,0-4.6,0.1
	c-1.5,0-2.7,0.1-3.5,0.1v-1.1c1.1,0,1.9-0.3,2.3-0.8c0.4-0.5,0.7-1.5,0.7-3V6.4c0-1.6-0.2-2.8-0.6-3.6s-1.2-1.1-2.3-1.1V0.6
	c1.1,0.1,2.2,0.2,3.3,0.2c1.8,0,3.4-0.1,5-0.2C98.7,0.4,100.1,0.2,101.4,0L101.4,0z"/>
<path class="st0" d="M113.7,42.2c-1.7,0-3.1-0.3-4.1-1s-1.8-1.5-2.3-2.5s-0.7-2.1-0.7-3.3c0-1.5,0.3-2.7,1-3.7
	c0.7-0.9,1.6-1.7,2.7-2.3c1.1-0.6,2.2-1.1,3.4-1.5s2.4-0.8,3.4-1.1c1.1-0.4,2-0.8,2.7-1.3s1-1.2,1-2v-4.8c0-0.6-0.1-1.2-0.3-1.9
	c-0.2-0.7-0.6-1.3-1.1-1.8c-0.5-0.5-1.3-0.8-2.4-0.8c-0.6,0-1.1,0.1-1.6,0.2s-1,0.4-1.4,0.7c1.2,0.5,2.2,1.1,2.7,2
	c0.6,0.8,0.9,1.8,0.9,2.8c0,1.4-0.5,2.5-1.5,3.4s-2.2,1.2-3.5,1.2c-1.4,0-2.5-0.5-3.3-1.3c-0.8-0.9-1.2-2-1.2-3.3
	c0-1.1,0.3-2,0.8-2.8c0.6-0.8,1.4-1.5,2.5-2.1c1.1-0.6,2.3-1,3.8-1.3s3.1-0.4,4.7-0.4c1.8,0,3.4,0.2,4.9,0.5s2.8,1.1,3.8,2.2
	c0.8,0.8,1.2,1.8,1.4,2.9c0.2,1.2,0.3,2.7,0.3,4.5v14.3c0,0.9,0.1,1.5,0.2,1.8c0.1,0.3,0.4,0.5,0.7,0.5c0.3,0,0.6-0.1,0.8-0.3
	s0.5-0.4,0.8-0.5l0.5,0.9c-0.8,0.7-1.8,1.2-2.9,1.5s-2.4,0.5-3.7,0.5c-1.5,0-2.7-0.2-3.6-0.6c-0.8-0.4-1.4-0.9-1.8-1.5
	c-0.3-0.6-0.5-1.3-0.6-2c-0.8,1.2-1.7,2.2-2.8,2.9C117,41.8,115.6,42.2,113.7,42.2L113.7,42.2z M118.8,37.9c0.4,0,0.7-0.1,1-0.2
	c0.3-0.1,0.6-0.4,0.9-0.7V25.7c-0.2,0.5-0.6,0.9-1,1.4c-0.4,0.5-0.8,0.9-1.3,1.4s-0.8,1-1.2,1.5c-0.4,0.5-0.7,1.1-0.9,1.9
	c-0.2,0.7-0.3,1.5-0.3,2.4c0,1.4,0.3,2.3,0.8,2.9S118,37.9,118.8,37.9L118.8,37.9z"/>
<path class="st0" d="M146.1,13.3c1.6,0,2.9,0.2,4.1,0.5c1.2,0.3,2.1,0.6,2.6,0.9c1.2,0.8,2,0.3,2.3-1.4h1.1c-0.1,1-0.1,2.3-0.2,3.8
	c0,1.5-0.1,3.4-0.1,5.9H155c-0.1-1.3-0.4-2.6-0.9-3.9c-0.5-1.3-1.2-2.4-2.1-3.2s-2.1-1.3-3.6-1.3c-0.9,0-1.6,0.3-2.2,0.8
	s-0.9,1.3-0.9,2.2c0,1.1,0.3,2,1,2.9s1.5,1.6,2.5,2.4s2,1.6,3,2.4c1.1,0.9,2.1,1.8,2.9,2.6c0.9,0.9,1.5,1.8,2.1,2.8
	c0.5,1,0.8,2.2,0.8,3.6c0,1.6-0.5,3-1.5,4.3s-2.3,2.2-3.9,2.9c-1.6,0.7-3.4,1-5.4,1c-1.2,0-2.3-0.1-3.3-0.4
	c-0.9-0.3-1.7-0.6-2.2-0.9c-0.6-0.3-1.1-0.5-1.5-0.7s-0.8-0.2-1.2-0.2c-0.4,0-0.7,0.2-0.9,0.6c-0.2,0.4-0.4,0.8-0.6,1.3h-1.1
	c0.1-1.1,0.1-2.5,0.2-4.2c0-1.6,0.1-3.8,0.1-6.5h1.1c0.2,1.9,0.6,3.6,1.3,5c0.6,1.5,1.4,2.6,2.4,3.5c1,0.8,2.1,1.3,3.4,1.3
	c0.6,0,1.1-0.1,1.6-0.3s0.8-0.5,1.1-1c0.3-0.4,0.4-1,0.4-1.7c0-1.6-0.5-2.9-1.4-4s-2.1-2.2-3.6-3.5c-1.1-1-2.1-2-3-2.9
	c-0.9-0.9-1.7-2-2.3-3.1s-0.9-2.4-0.9-3.8c0-1.6,0.5-3,1.4-4.1c0.9-1.1,2.2-2,3.7-2.6C142.7,13.6,144.4,13.3,146.1,13.3L146.1,13.3z
	"/>
<path class="st0" d="M195.4,4V5c-1.1,0.2-1.9,0.6-2.4,1.1c-0.6,0.5-0.9,1.4-1.1,2.5c-0.2,1.1-0.3,2.7-0.3,4.7v12.9
	c0,2.2-0.1,4.3-0.4,6.3c-0.3,2-0.9,3.7-1.7,5.1c-0.9,1.5-2.3,2.8-4.1,3.6s-4.3,1.3-7.4,1.3c-1.6,0-3.4-0.2-5.2-0.5s-3.4-1-4.9-2
	c-1.2-0.9-2.1-2-2.8-3.3s-1.1-2.8-1.3-4.5c-0.2-1.7-0.3-3.7-0.3-5.8V9.6c0-1.3-0.1-2.3-0.3-2.9c-0.2-0.6-0.5-1.1-1.1-1.3
	c-0.5-0.2-1.4-0.4-2.5-0.4V4c1,0,2.4,0.1,4.1,0.1s3.5,0.1,5.3,0.1s3.6,0,5.4-0.1s3.1-0.1,4.2-0.1V5c-1.2,0-2.1,0.2-2.8,0.4
	s-1,0.7-1.3,1.3c-0.2,0.6-0.3,1.6-0.3,2.9v21.8c0,1.8,0.1,3.2,0.4,4.4c0.3,1.2,0.7,2.2,1.3,2.9c0.6,0.7,1.2,1.2,2.1,1.5
	c0.8,0.3,1.8,0.5,2.9,0.5c2.4,0,4.3-0.6,5.6-1.7s2.3-2.8,2.9-4.9c0.6-2.1,0.9-4.5,0.9-7.2V14.4c0-2.4-0.1-4.2-0.3-5.5
	c-0.2-1.3-0.7-2.2-1.4-2.8c-0.8-0.6-2-1-3.7-1.2V3.9c0.7,0,1.6,0.1,2.8,0.1s2.2,0.1,3.2,0.1c0.8,0,1.6,0,2.4-0.1
	C194.3,4,194.9,4,195.4,4L195.4,4z"/>
<path class="st0" d="M216.7,13.3c1.3,0,2.3,0.3,3,0.8c0.7,0.6,1.2,1.2,1.5,2.1c0.3,0.8,0.4,1.7,0.4,2.5c0,1.6-0.4,2.9-1.4,3.8
	c-0.9,1-2.1,1.4-3.6,1.4c-1.6,0-2.8-0.4-3.6-1.1s-1.2-1.6-1.2-2.8c0-1.2,0.3-2.2,0.8-3c0.5-0.8,1.2-1.4,1.9-2
	c-0.6,0-1.2,0.1-1.7,0.4c-0.4,0.2-0.8,0.4-1.2,0.7c-0.4,0.3-0.7,0.7-1,1.1c-0.3,0.4-0.5,0.9-0.7,1.4c-0.2,0.5-0.2,1-0.2,1.5v16.1
	c0,1.7,0.4,2.9,1.1,3.5s1.9,0.9,3.5,0.9v1.1c-0.8,0-2-0.1-3.7-0.1c-1.6,0-3.3-0.1-5-0.1c-1.6,0-3.2,0-4.9,0.1
	c-1.6,0-2.9,0.1-3.7,0.1v-1.1c1.1,0,1.9-0.3,2.3-0.8s0.7-1.5,0.7-3v-17c0-1.6-0.2-2.8-0.6-3.6c-0.4-0.8-1.2-1.1-2.4-1.1v-1.1
	c1.1,0.1,2.2,0.2,3.3,0.2c1.8,0,3.4-0.1,5-0.2c1.6-0.1,3-0.3,4.3-0.6v3.8c0.5-0.9,1-1.7,1.7-2.3c0.7-0.6,1.4-1,2.3-1.3
	C214.8,13.5,215.7,13.3,216.7,13.3L216.7,13.3z"/>
<path class="st0" d="M233.8,0v41.9c-1.2-0.5-2.4-0.8-3.6-0.8s-2.4,0.1-3.3,0.4s-1.8,0.7-2.3,1.2l-0.8-0.5c0.2-0.5,0.3-1,0.3-1.5
	c0-0.5,0.1-1,0.1-1.5V6.4c0-1.6-0.2-2.8-0.6-3.6s-1.2-1.1-2.4-1.1V0.6c1.1,0.1,2.2,0.2,3.3,0.2c1.8,0,3.4-0.1,5-0.2
	C231,0.4,232.4,0.2,233.8,0L233.8,0z M241.9,13.3c2.6,0,4.9,1.1,6.6,3.3s2.7,5.6,2.7,10.1c0,4-0.6,7.2-1.7,9.5s-2.7,4-4.6,4.9
	c-1.9,0.9-4,1.4-6.2,1.4c-1.2,0-2.3-0.1-3.3-0.2s-2-0.5-2.9-1.1l0.6-0.9c0.5,0.4,1,0.6,1.6,0.8s1.1,0.3,1.6,0.3
	c1.7,0,2.9-1.1,3.7-3.4s1.2-5.6,1.2-10.2c0-3.2-0.2-5.6-0.5-7.3s-0.8-2.9-1.3-3.6c-0.5-0.7-1.1-1-1.8-1c-1,0-1.9,0.4-2.7,1.1
	c-0.8,0.7-1.2,1.6-1.2,2.8v-2.6c0.8-1.4,1.9-2.4,3.3-3C238.5,13.7,240.1,13.3,241.9,13.3L241.9,13.3z"/>
<path class="st0" d="M261.2,42.2c-1.7,0-3-0.3-4.1-1s-1.9-1.5-2.3-2.5s-0.7-2.1-0.7-3.3c0-1.5,0.3-2.7,1-3.7
	c0.7-0.9,1.6-1.7,2.6-2.3s2.2-1.1,3.5-1.5c1.2-0.4,2.4-0.8,3.5-1.1c1.1-0.4,2-0.8,2.6-1.3s1-1.2,1-2v-4.8c0-0.6-0.1-1.2-0.3-1.9
	c-0.2-0.7-0.6-1.3-1.1-1.8c-0.5-0.5-1.3-0.8-2.4-0.8c-0.6,0-1.1,0.1-1.6,0.2c-0.5,0.2-1,0.4-1.4,0.7c1.2,0.5,2.2,1.1,2.7,2
	c0.6,0.8,0.9,1.8,0.9,2.8c0,1.4-0.5,2.5-1.5,3.4s-2.2,1.2-3.5,1.2c-1.4,0-2.5-0.5-3.3-1.3c-0.8-0.9-1.2-2-1.2-3.3
	c0-1.1,0.3-2,0.8-2.8c0.5-0.8,1.4-1.5,2.5-2.1c1.1-0.6,2.4-1,3.9-1.3s3.1-0.4,4.7-0.4c1.8,0,3.4,0.2,4.9,0.5s2.8,1.1,3.9,2.2
	c0.8,0.8,1.2,1.8,1.4,2.9c0.2,1.2,0.3,2.7,0.3,4.5v14.3c0,0.9,0.1,1.5,0.2,1.8c0.1,0.3,0.4,0.5,0.7,0.5c0.3,0,0.6-0.1,0.8-0.3
	s0.5-0.4,0.8-0.5l0.5,0.9c-0.8,0.7-1.8,1.2-2.9,1.5s-2.4,0.5-3.7,0.5c-1.5,0-2.7-0.2-3.6-0.6c-0.8-0.4-1.4-0.9-1.8-1.5
	s-0.5-1.3-0.6-2c-0.8,1.2-1.7,2.2-2.8,2.9C264.6,41.8,263.1,42.2,261.2,42.2L261.2,42.2z M266.3,37.9c0.4,0,0.7-0.1,1-0.2
	c0.3-0.1,0.6-0.4,0.9-0.7V25.7c-0.2,0.5-0.6,0.9-1,1.4c-0.4,0.5-0.8,0.9-1.3,1.4c-0.4,0.5-0.8,1-1.2,1.5c-0.4,0.5-0.7,1.1-0.9,1.9
	c-0.2,0.7-0.4,1.5-0.4,2.4c0,1.4,0.3,2.3,0.8,2.9S265.5,37.9,266.3,37.9L266.3,37.9z"/>
<path class="st0" d="M303.6,13.3c1.6,0,2.9,0.2,3.9,0.6c0.9,0.4,1.7,0.9,2.2,1.5c0.5,0.6,0.9,1.5,1.2,2.6s0.4,2.5,0.4,4.3v14.5
	c0,1.5,0.2,2.5,0.7,3s1.2,0.8,2.3,0.8v1.1c-0.7,0-1.8-0.1-3.2-0.1c-1.4,0-2.9-0.1-4.2-0.1c-1.5,0-3,0-4.4,0.1
	c-1.4,0-2.5,0.1-3.2,0.1v-1.1c0.9,0,1.6-0.3,1.9-0.8c0.4-0.5,0.5-1.5,0.5-3V19.5c0-0.8-0.1-1.4-0.3-1.9s-0.5-0.9-0.8-1.1
	c-0.4-0.2-0.9-0.4-1.5-0.4s-1.3,0.2-1.9,0.5s-1.1,0.8-1.4,1.4c-0.4,0.6-0.6,1.3-0.6,2v16.9c0,1.5,0.2,2.5,0.6,3s1,0.8,1.9,0.8v1.1
	c-0.7,0-1.7-0.1-3-0.1c-1.3,0-2.7-0.1-4.1-0.1c-1.5,0-3,0-4.5,0.1s-2.7,0.1-3.5,0.1v-1.1c1.1,0,1.9-0.3,2.3-0.8
	c0.4-0.5,0.7-1.5,0.7-3v-17c0-1.6-0.2-2.8-0.6-3.6c-0.4-0.8-1.2-1.1-2.4-1.1v-1.1c1.1,0.1,2.2,0.2,3.3,0.2c1.8,0,3.5-0.1,5-0.2
	c1.5-0.1,3-0.3,4.3-0.6v3.8c0.9-1.4,2-2.4,3.5-3.1C300,13.6,301.6,13.3,303.6,13.3L303.6,13.3z"/>
<path class="st0" d="M328.5,13.5v23.4c0,1.5,0.2,2.5,0.7,3s1.2,0.8,2.3,0.8v1.1c-0.7,0-1.8-0.1-3.2-0.1s-2.9-0.1-4.4-0.1
	s-3,0-4.5,0.1c-1.5,0-2.7,0.1-3.5,0.1v-1.1c1.1,0,1.9-0.3,2.3-0.8c0.5-0.5,0.7-1.5,0.7-3v-17c0-1.6-0.2-2.8-0.6-3.6
	c-0.4-0.8-1.2-1.1-2.4-1.1v-1.1c1.1,0.1,2.2,0.2,3.3,0.2c1.8,0,3.5-0.1,5-0.2C325.7,13.9,327.2,13.7,328.5,13.5L328.5,13.5z
	 M323.4,0c1.9,0,3.3,0.4,4.3,1.1s1.5,1.9,1.5,3.4s-0.5,2.7-1.5,3.5c-1,0.8-2.5,1.1-4.3,1.1s-3.3-0.4-4.3-1.1s-1.5-1.9-1.5-3.4
	s0.5-2.7,1.5-3.5C320.1,0.4,321.5,0,323.4,0z"/>
<path class="st0" d="M344.7,13.3c1.6,0,3,0.2,4.1,0.5c1.2,0.3,2.1,0.6,2.6,0.9c1.2,0.8,2,0.3,2.3-1.4h1.1c-0.1,1-0.1,2.3-0.2,3.8
	s0,3.4,0,5.9h-1.1c-0.1-1.3-0.5-2.6-0.9-3.9c-0.5-1.3-1.2-2.4-2.1-3.2s-2.1-1.3-3.6-1.3c-0.9,0-1.6,0.3-2.2,0.8s-0.9,1.3-0.9,2.2
	c0,1.1,0.3,2,1,2.9c0.6,0.8,1.5,1.6,2.5,2.4s2,1.6,3,2.4c1.1,0.9,2.1,1.8,2.9,2.6c0.9,0.9,1.5,1.8,2.1,2.8c0.5,1,0.8,2.2,0.8,3.6
	c0,1.6-0.5,3-1.5,4.3s-2.3,2.2-3.9,2.9c-1.6,0.7-3.4,1-5.4,1c-1.2,0-2.3-0.1-3.3-0.4c-0.9-0.3-1.7-0.6-2.2-0.9
	c-0.6-0.3-1.1-0.5-1.5-0.7s-0.8-0.2-1.2-0.2c-0.4,0-0.7,0.2-0.9,0.6c-0.2,0.4-0.5,0.8-0.6,1.3h-1.1c0.1-1.1,0.1-2.5,0.2-4.2
	c0-1.6,0-3.8,0-6.5h1.1c0.2,1.9,0.6,3.6,1.3,5c0.6,1.5,1.4,2.6,2.4,3.5s2.1,1.3,3.4,1.3c0.6,0,1.1-0.1,1.5-0.3s0.8-0.5,1.1-1
	c0.3-0.4,0.4-1,0.4-1.7c0-1.6-0.5-2.9-1.4-4s-2.1-2.2-3.6-3.5c-1.1-1-2.1-2-3-2.9s-1.7-2-2.3-3.1s-0.9-2.4-0.9-3.8
	c0-1.6,0.5-3,1.4-4.1c0.9-1.1,2.2-2,3.7-2.6C341.3,13.6,343,13.3,344.7,13.3L344.7,13.3z"/>
<path class="st0" d="M371.1,5.4v8.7h5.2v1.1h-5.2v22.2c0,0.7,0.1,1.2,0.4,1.5c0.2,0.3,0.7,0.5,1.2,0.5c0.4,0,0.9-0.1,1.4-0.3
	c0.5-0.2,1-0.6,1.5-1.2l0.8,0.6c-0.8,1.3-1.7,2.3-3,3.1c-1.2,0.8-2.8,1.2-4.6,1.2c-1.2,0-2.2-0.2-3.2-0.5s-1.7-0.8-2.3-1.4
	c-0.8-0.8-1.3-1.8-1.5-2.9c-0.2-1.2-0.3-2.7-0.3-4.5V15.1h-4.1v-1.1h4.1V7.8c1.9,0,3.6-0.2,5.2-0.6C368.2,6.8,369.7,6.2,371.1,5.4
	L371.1,5.4z"/>
<path class="st0" d="M388.7,13.3c1.6,0,3,0.2,4.1,0.5c1.2,0.3,2.1,0.6,2.6,0.9c1.2,0.8,2,0.3,2.3-1.4h1.1c-0.1,1-0.1,2.3-0.2,3.8
	s0,3.4,0,5.9h-1.1c-0.1-1.3-0.5-2.6-0.9-3.9s-1.2-2.4-2.1-3.2s-2.1-1.3-3.6-1.3c-0.9,0-1.6,0.3-2.2,0.8s-0.9,1.3-0.9,2.2
	c0,1.1,0.3,2,1,2.9c0.6,0.8,1.5,1.6,2.5,2.4s2,1.6,3,2.4c1.1,0.9,2.1,1.8,2.9,2.6c0.9,0.9,1.5,1.8,2.1,2.8c0.5,1,0.8,2.2,0.8,3.6
	c0,1.6-0.5,3-1.5,4.3s-2.3,2.2-3.9,2.9c-1.6,0.7-3.4,1-5.4,1c-1.2,0-2.3-0.1-3.3-0.4c-0.9-0.3-1.7-0.6-2.2-0.9
	c-0.6-0.3-1.1-0.5-1.5-0.7s-0.8-0.2-1.2-0.2c-0.4,0-0.7,0.2-0.9,0.6c-0.2,0.4-0.5,0.8-0.6,1.3h-1.1c0.1-1.1,0.1-2.5,0.2-4.2
	c0-1.6,0-3.8,0-6.5h1.1c0.2,1.9,0.6,3.6,1.3,5c0.6,1.5,1.4,2.6,2.4,3.5s2.1,1.3,3.4,1.3c0.6,0,1.1-0.1,1.5-0.3s0.8-0.5,1.1-1
	c0.3-0.4,0.4-1,0.4-1.7c0-1.6-0.5-2.9-1.4-4s-2.1-2.2-3.6-3.5c-1.1-1-2.1-2-3-2.9c-1-0.9-1.7-2-2.3-3.1s-0.9-2.4-0.9-3.8
	c0-1.6,0.5-3,1.4-4.1c0.9-1.1,2.2-2,3.7-2.6C385.3,13.6,386.9,13.3,388.7,13.3L388.7,13.3z"/>
</svg>
