<?xml version="1.0" encoding="UTF-8"?><svg id="Layer_1" xmlns="http://www.w3.org/2000/svg" viewBox="0 0 400 42.69"><defs><style>.cls-1{fill:#000;stroke-width:0px;}</style></defs><path class="cls-1" d="M17.81,3.96c7.49,0,13.04,1.6,16.66,4.79,3.62,3.19,5.43,7.77,5.43,13.72,0,3.89-.89,7.28-2.67,10.19-1.78,2.91-4.36,5.16-7.73,6.77-3.37,1.61-7.43,2.41-12.17,2.41-.57,0-1.33-.02-2.27-.05-.95-.04-1.93-.06-2.97-.08-1.03-.02-1.96-.03-2.78-.03-1.78,0-3.52,0-5.22.03-1.69.02-3.06.06-4.09.13v-1.07c1.1-.07,1.93-.21,2.46-.43.53-.21.89-.64,1.07-1.28.18-.64.27-1.61.27-2.89V9.63c0-1.32-.09-2.29-.27-2.92-.18-.62-.54-1.05-1.1-1.28-.55-.23-1.36-.37-2.43-.4v-1.07c1.03.04,2.4.08,4.09.13,1.69.05,3.4.06,5.11.03,1.32-.04,2.81-.07,4.47-.11,1.66-.03,3.04-.05,4.15-.05ZM18.61,4.92c-1.64,0-2.71.3-3.21.91-.5.61-.75,1.84-.75,3.69v26.75c0,1.86.26,3.09.78,3.69.52.61,1.6.91,3.24.91,2.42,0,4.37-.7,5.83-2.11,1.46-1.41,2.52-3.47,3.18-6.18.66-2.71.99-6.01.99-9.9s-.35-7.3-1.04-9.92c-.7-2.62-1.78-4.58-3.26-5.88-1.48-1.3-3.4-1.95-5.75-1.95Z"/><path class="cls-1" d="M50.23,42.2c-1.68,0-3.05-.32-4.12-.96s-1.85-1.48-2.33-2.51c-.48-1.03-.72-2.12-.72-3.26,0-1.5.34-2.72,1.02-3.66.68-.94,1.56-1.71,2.65-2.3,1.09-.59,2.24-1.08,3.45-1.47,1.21-.39,2.36-.78,3.45-1.15,1.09-.37,1.97-.82,2.65-1.34.68-.52,1.02-1.19,1.02-2.01v-4.76c0-.57-.1-1.19-.29-1.87-.2-.68-.56-1.27-1.1-1.77-.53-.5-1.34-.75-2.41-.75-.57,0-1.11.08-1.63.24-.52.16-.97.38-1.36.67,1.25.46,2.16,1.12,2.73,1.95.57.84.86,1.76.86,2.76,0,1.43-.5,2.55-1.5,3.37-1,.82-2.18,1.23-3.53,1.23-1.43,0-2.53-.45-3.32-1.34-.78-.89-1.18-2-1.18-3.32,0-1.11.28-2.04.83-2.81.55-.77,1.38-1.47,2.49-2.11,1.07-.61,2.35-1.04,3.85-1.31,1.5-.27,3.07-.4,4.71-.4,1.75,0,3.37.17,4.87.51,1.5.34,2.78,1.06,3.85,2.17.75.78,1.23,1.77,1.44,2.94.21,1.18.32,2.69.32,4.55v14.33c0,.89.06,1.5.19,1.82.12.32.35.48.67.48.28,0,.56-.09.83-.27.27-.18.53-.36.78-.54l.53.91c-.78.68-1.76,1.18-2.92,1.5-1.16.32-2.38.48-3.66.48-1.53,0-2.72-.19-3.56-.56-.84-.37-1.43-.87-1.77-1.5-.34-.62-.53-1.29-.56-2.01-.75,1.18-1.69,2.15-2.81,2.92-1.12.77-2.59,1.15-4.41,1.15ZM55.31,37.93c.39,0,.74-.06,1.04-.19.3-.12.62-.37.94-.72v-11.29c-.25.46-.58.92-.99,1.36-.41.45-.83.9-1.26,1.36s-.83.96-1.2,1.5c-.37.53-.68,1.15-.91,1.85-.23.69-.35,1.51-.35,2.43,0,1.36.26,2.31.78,2.86.52.55,1.17.83,1.95.83Z"/><path class="cls-1" d="M83.87,0v36.86c0,1.5.22,2.51.67,3.05.45.54,1.22.8,2.33.8v1.12c-.71-.04-1.78-.08-3.21-.13-1.43-.05-2.89-.08-4.39-.08s-3.01.03-4.55.08c-1.53.05-2.69.1-3.48.13v-1.12c1.1,0,1.88-.27,2.33-.8.45-.53.67-1.55.67-3.05V6.42c0-1.6-.21-2.79-.64-3.56-.43-.77-1.21-1.15-2.35-1.15V.59c1.14.11,2.25.16,3.32.16,1.78,0,3.45-.06,5-.19,1.55-.12,2.99-.31,4.31-.56Z"/><path class="cls-1" d="M101.42,0v36.86c0,1.5.22,2.51.67,3.05.45.54,1.22.8,2.33.8v1.12c-.71-.04-1.78-.08-3.21-.13-1.43-.05-2.89-.08-4.39-.08s-3.01.03-4.55.08c-1.53.05-2.69.1-3.48.13v-1.12c1.1,0,1.88-.27,2.33-.8.45-.53.67-1.55.67-3.05V6.42c0-1.6-.21-2.79-.64-3.56-.43-.77-1.21-1.15-2.35-1.15V.59c1.14.11,2.25.16,3.32.16,1.78,0,3.45-.06,5-.19,1.55-.12,2.99-.31,4.31-.56Z"/><path class="cls-1" d="M113.72,42.2c-1.68,0-3.05-.32-4.12-.96s-1.85-1.48-2.33-2.51c-.48-1.03-.72-2.12-.72-3.26,0-1.5.34-2.72,1.02-3.66.68-.94,1.56-1.71,2.65-2.3,1.09-.59,2.24-1.08,3.45-1.47,1.21-.39,2.36-.78,3.45-1.15,1.09-.37,1.97-.82,2.65-1.34.68-.52,1.02-1.19,1.02-2.01v-4.76c0-.57-.1-1.19-.29-1.87-.2-.68-.56-1.27-1.1-1.77-.53-.5-1.34-.75-2.41-.75-.57,0-1.11.08-1.63.24-.52.16-.97.38-1.36.67,1.25.46,2.16,1.12,2.73,1.95.57.84.86,1.76.86,2.76,0,1.43-.5,2.55-1.5,3.37-1,.82-2.18,1.23-3.53,1.23-1.43,0-2.53-.45-3.32-1.34-.78-.89-1.18-2-1.18-3.32,0-1.11.28-2.04.83-2.81.55-.77,1.38-1.47,2.49-2.11,1.07-.61,2.35-1.04,3.85-1.31,1.5-.27,3.07-.4,4.71-.4,1.75,0,3.37.17,4.87.51,1.5.34,2.78,1.06,3.85,2.17.75.78,1.23,1.77,1.44,2.94.21,1.18.32,2.69.32,4.55v14.33c0,.89.06,1.5.19,1.82.12.32.35.48.67.48.28,0,.56-.09.83-.27.27-.18.53-.36.78-.54l.53.91c-.78.68-1.76,1.18-2.92,1.5-1.16.32-2.38.48-3.66.48-1.53,0-2.72-.19-3.56-.56-.84-.37-1.43-.87-1.77-1.5-.34-.62-.53-1.29-.56-2.01-.75,1.18-1.69,2.15-2.81,2.92-1.12.77-2.59,1.15-4.41,1.15ZM118.8,37.93c.39,0,.74-.06,1.04-.19.3-.12.62-.37.94-.72v-11.29c-.25.46-.58.92-.99,1.36-.41.45-.83.9-1.26,1.36s-.83.96-1.2,1.5c-.37.53-.68,1.15-.91,1.85-.23.69-.35,1.51-.35,2.43,0,1.36.26,2.31.78,2.86.52.55,1.17.83,1.95.83Z"/><path class="cls-1" d="M146.13,13.32c1.57,0,2.95.17,4.15.51,1.19.34,2.06.65,2.59.94,1.25.75,2.01.29,2.3-1.39h1.07c-.07,1.03-.13,2.29-.16,3.77-.04,1.48-.05,3.43-.05,5.86h-1.07c-.14-1.32-.45-2.62-.94-3.9-.48-1.28-1.18-2.35-2.09-3.21s-2.1-1.28-3.56-1.28c-.89,0-1.64.27-2.25.8-.61.53-.91,1.27-.91,2.19,0,1.07.32,2.02.96,2.86.64.84,1.46,1.64,2.46,2.41,1,.77,2,1.58,3,2.43,1.11.89,2.09,1.77,2.94,2.62.86.86,1.54,1.79,2.06,2.81.52,1.02.78,2.22.78,3.61,0,1.6-.49,3.03-1.47,4.28-.98,1.25-2.28,2.22-3.91,2.92-1.62.7-3.43,1.04-5.43,1.04-1.25,0-2.34-.13-3.26-.4-.93-.27-1.68-.58-2.25-.94-.57-.28-1.06-.51-1.47-.67-.41-.16-.81-.24-1.2-.24-.36,0-.66.19-.91.56-.25.37-.45.81-.59,1.31h-1.07c.07-1.14.12-2.53.16-4.17.03-1.64.05-3.82.05-6.53h1.07c.21,1.89.63,3.57,1.26,5.03.62,1.46,1.43,2.61,2.41,3.45.98.84,2.11,1.26,3.4,1.26.57,0,1.09-.11,1.55-.32.46-.21.84-.54,1.12-.96.28-.43.43-.98.43-1.66,0-1.57-.47-2.89-1.42-3.96-.95-1.07-2.13-2.25-3.56-3.53-1.07-1-2.08-1.97-3.02-2.92-.95-.94-1.72-1.98-2.33-3.1-.61-1.12-.91-2.38-.91-3.77,0-1.6.47-2.98,1.42-4.12.94-1.14,2.18-2.02,3.72-2.65,1.53-.62,3.17-.94,4.92-.94Z"/><path class="cls-1" d="M195.45,3.96v1.07c-1.07.21-1.88.59-2.43,1.12-.55.54-.92,1.36-1.1,2.49-.18,1.12-.27,2.7-.27,4.73v12.89c0,2.21-.15,4.3-.45,6.26-.3,1.96-.88,3.66-1.74,5.08-.93,1.53-2.31,2.75-4.15,3.64-1.84.89-4.29,1.34-7.35,1.34-1.64,0-3.37-.18-5.19-.54-1.82-.36-3.44-1.03-4.87-2.03-1.21-.89-2.14-1.98-2.78-3.26-.64-1.28-1.07-2.78-1.28-4.49-.21-1.71-.32-3.66-.32-5.83V9.63c0-1.32-.09-2.29-.27-2.92-.18-.62-.53-1.05-1.07-1.28-.53-.23-1.36-.37-2.46-.4v-1.07c1.03.04,2.4.07,4.09.11,1.69.04,3.47.05,5.32.05s3.64-.02,5.35-.05c1.71-.03,3.12-.07,4.23-.11v1.07c-1.21.04-2.13.17-2.75.4-.62.23-1.04.66-1.26,1.28-.21.62-.32,1.6-.32,2.92v21.82c0,1.75.14,3.22.43,4.41.28,1.19.7,2.15,1.26,2.86.55.71,1.25,1.22,2.09,1.53.84.3,1.81.45,2.92.45,2.39,0,4.26-.58,5.62-1.74,1.36-1.16,2.32-2.78,2.89-4.87.57-2.09.86-4.5.86-7.25v-12.41c0-2.39-.1-4.22-.29-5.48-.2-1.27-.67-2.18-1.42-2.76-.75-.57-1.98-.96-3.69-1.18v-1.07c.71.04,1.64.07,2.78.11,1.14.04,2.21.05,3.21.05.82,0,1.63-.02,2.43-.05.8-.03,1.47-.07,2.01-.11Z"/><path class="cls-1" d="M216.74,13.32c1.28,0,2.28.28,3,.83.71.55,1.21,1.25,1.5,2.09.28.84.43,1.67.43,2.49,0,1.6-.45,2.88-1.36,3.82-.91.95-2.09,1.42-3.56,1.42-1.57,0-2.76-.36-3.56-1.07-.8-.71-1.2-1.64-1.2-2.78,0-1.21.26-2.21.78-3,.52-.78,1.17-1.44,1.95-1.98-.64,0-1.21.13-1.71.37-.43.18-.84.43-1.23.75s-.73.69-1.02,1.1c-.29.41-.51.87-.67,1.36-.16.5-.24,1.02-.24,1.55v16.05c0,1.71.36,2.87,1.07,3.48.71.61,1.89.91,3.53.91v1.12c-.82-.04-2.04-.08-3.66-.13-1.62-.05-3.29-.08-5-.08-1.61,0-3.23.03-4.87.08-1.64.05-2.87.1-3.69.13v-1.12c1.1,0,1.88-.27,2.33-.8.45-.53.67-1.55.67-3.05v-16.96c0-1.6-.21-2.79-.64-3.56-.43-.77-1.21-1.15-2.35-1.15v-1.12c1.14.11,2.25.16,3.32.16,1.78,0,3.45-.06,5-.19,1.55-.12,2.99-.31,4.31-.56v3.85c.46-.93,1.03-1.68,1.71-2.27.68-.59,1.45-1.02,2.33-1.31.87-.28,1.83-.43,2.86-.43Z"/><path class="cls-1" d="M233.75,0v41.94c-1.18-.5-2.38-.77-3.61-.8-1.23-.03-2.35.09-3.34.37s-1.76.68-2.3,1.18l-.75-.54c.18-.5.29-.99.32-1.47.04-.48.05-.97.05-1.47V6.42c0-1.6-.21-2.79-.64-3.56-.43-.77-1.21-1.15-2.35-1.15V.59c1.14.11,2.25.16,3.32.16,1.78,0,3.45-.06,5-.19,1.55-.12,2.99-.31,4.31-.56ZM241.88,13.32c2.64,0,4.85,1.1,6.63,3.29s2.67,5.57,2.67,10.14c0,4.03-.57,7.2-1.71,9.52-1.14,2.32-2.66,3.95-4.55,4.9-1.89.94-3.96,1.42-6.2,1.42-1.21,0-2.32-.07-3.32-.21-1-.14-1.96-.5-2.89-1.07l.59-.86c.46.36.98.62,1.55.8.57.18,1.11.27,1.61.27,1.68,0,2.92-1.12,3.72-3.37.8-2.25,1.2-5.63,1.2-10.16,0-3.17-.16-5.62-.48-7.33s-.75-2.9-1.28-3.56c-.54-.66-1.14-.99-1.82-.99-1,0-1.89.36-2.67,1.07-.79.71-1.18,1.64-1.18,2.78v-2.62c.82-1.35,1.93-2.36,3.32-3.02,1.39-.66,3-.99,4.81-.99Z"/><path class="cls-1" d="M261.25,42.2c-1.68,0-3.05-.32-4.12-.96-1.07-.64-1.85-1.48-2.33-2.51-.48-1.03-.72-2.12-.72-3.26,0-1.5.34-2.72,1.02-3.66.68-.94,1.56-1.71,2.65-2.3,1.09-.59,2.24-1.08,3.45-1.47,1.21-.39,2.36-.78,3.45-1.15,1.09-.37,1.97-.82,2.65-1.34.68-.52,1.02-1.19,1.02-2.01v-4.76c0-.57-.1-1.19-.29-1.87-.2-.68-.56-1.27-1.1-1.77-.53-.5-1.34-.75-2.41-.75-.57,0-1.12.08-1.63.24-.52.16-.97.38-1.36.67,1.25.46,2.16,1.12,2.73,1.95.57.84.86,1.76.86,2.76,0,1.43-.5,2.55-1.5,3.37-1,.82-2.18,1.23-3.53,1.23-1.43,0-2.53-.45-3.32-1.34-.79-.89-1.18-2-1.18-3.32,0-1.11.28-2.04.83-2.81.55-.77,1.38-1.47,2.49-2.11,1.07-.61,2.35-1.04,3.85-1.31,1.5-.27,3.07-.4,4.71-.4,1.75,0,3.37.17,4.87.51,1.5.34,2.78,1.06,3.85,2.17.75.78,1.23,1.77,1.44,2.94.21,1.18.32,2.69.32,4.55v14.33c0,.89.06,1.5.19,1.82.12.32.35.48.67.48.28,0,.56-.09.83-.27.27-.18.53-.36.78-.54l.54.91c-.79.68-1.76,1.18-2.92,1.5-1.16.32-2.38.48-3.66.48-1.53,0-2.72-.19-3.56-.56-.84-.37-1.43-.87-1.77-1.5s-.53-1.29-.56-2.01c-.75,1.18-1.69,2.15-2.81,2.92-1.12.77-2.59,1.15-4.41,1.15ZM266.33,37.93c.39,0,.74-.06,1.04-.19.3-.12.62-.37.94-.72v-11.29c-.25.46-.58.92-.99,1.36-.41.45-.83.9-1.26,1.36-.43.46-.83.96-1.2,1.5-.37.53-.68,1.15-.91,1.85-.23.69-.35,1.51-.35,2.43,0,1.36.26,2.31.78,2.86.52.55,1.17.83,1.95.83Z"/><path class="cls-1" d="M303.56,13.32c1.64,0,2.93.21,3.88.62.94.41,1.67.92,2.17,1.52.53.64.93,1.5,1.18,2.57.25,1.07.37,2.51.37,4.33v14.5c0,1.5.22,2.51.67,3.05.45.54,1.22.8,2.33.8v1.12c-.71-.04-1.79-.08-3.24-.13-1.44-.05-2.86-.08-4.25-.08-1.5,0-2.96.03-4.39.08-1.43.05-2.5.1-3.21.13v-1.12c.93,0,1.57-.27,1.92-.8.36-.53.54-1.55.54-3.05v-17.38c0-.75-.09-1.37-.27-1.87-.18-.5-.45-.87-.83-1.12-.37-.25-.88-.37-1.53-.37s-1.26.16-1.85.48c-.59.32-1.07.78-1.44,1.36-.37.59-.56,1.26-.56,2.01v16.9c0,1.5.19,2.51.56,3.05.37.54,1.01.8,1.9.8v1.12c-.68-.04-1.68-.08-2.99-.13-1.32-.05-2.67-.08-4.07-.08-1.5,0-3.01.03-4.55.08s-2.69.1-3.48.13v-1.12c1.1,0,1.88-.27,2.33-.8.44-.53.67-1.55.67-3.05v-16.96c0-1.6-.21-2.79-.64-3.56-.43-.77-1.21-1.15-2.35-1.15v-1.12c1.14.11,2.25.16,3.32.16,1.78,0,3.45-.06,5-.19,1.55-.12,2.99-.31,4.31-.56v3.85c.86-1.43,2.01-2.45,3.45-3.08,1.44-.62,3.13-.94,5.06-.94Z"/><path class="cls-1" d="M328.48,13.48v23.38c0,1.5.22,2.51.67,3.05.45.54,1.22.8,2.33.8v1.12c-.71-.04-1.78-.08-3.21-.13-1.43-.05-2.89-.08-4.39-.08s-3.01.03-4.55.08c-1.53.05-2.69.1-3.48.13v-1.12c1.1,0,1.88-.27,2.33-.8.45-.53.67-1.55.67-3.05v-16.96c0-1.6-.21-2.79-.64-3.56-.43-.77-1.21-1.15-2.35-1.15v-1.12c1.14.11,2.25.16,3.32.16,1.78,0,3.45-.06,5-.19,1.55-.12,2.99-.31,4.31-.56ZM323.35,0c1.85,0,3.29.38,4.31,1.15,1.02.77,1.52,1.92,1.52,3.45s-.51,2.68-1.52,3.45c-1.02.77-2.45,1.15-4.31,1.15s-3.29-.38-4.31-1.15c-1.02-.77-1.52-1.92-1.52-3.45s.51-2.68,1.52-3.45c1.02-.77,2.45-1.15,4.31-1.15Z"/><path class="cls-1" d="M344.74,13.32c1.57,0,2.95.17,4.15.51,1.19.34,2.06.65,2.59.94,1.25.75,2.02.29,2.3-1.39h1.07c-.07,1.03-.12,2.29-.16,3.77-.04,1.48-.05,3.43-.05,5.86h-1.07c-.14-1.32-.45-2.62-.93-3.9-.48-1.28-1.18-2.35-2.09-3.21s-2.1-1.28-3.56-1.28c-.89,0-1.64.27-2.25.8s-.91,1.27-.91,2.19c0,1.07.32,2.02.96,2.86.64.84,1.46,1.64,2.46,2.41,1,.77,2,1.58,2.99,2.43,1.11.89,2.09,1.77,2.94,2.62.86.86,1.54,1.79,2.06,2.81.52,1.02.78,2.22.78,3.61,0,1.6-.49,3.03-1.47,4.28-.98,1.25-2.28,2.22-3.91,2.92-1.62.7-3.43,1.04-5.43,1.04-1.25,0-2.34-.13-3.26-.4-.93-.27-1.68-.58-2.25-.94-.57-.28-1.06-.51-1.47-.67-.41-.16-.81-.24-1.2-.24-.36,0-.66.19-.91.56-.25.37-.45.81-.59,1.31h-1.07c.07-1.14.12-2.53.16-4.17.03-1.64.05-3.82.05-6.53h1.07c.21,1.89.63,3.57,1.26,5.03.62,1.46,1.43,2.61,2.41,3.45.98.84,2.11,1.26,3.4,1.26.57,0,1.09-.11,1.55-.32.46-.21.84-.54,1.12-.96.28-.43.43-.98.43-1.66,0-1.57-.47-2.89-1.42-3.96-.95-1.07-2.13-2.25-3.56-3.53-1.07-1-2.08-1.97-3.02-2.92s-1.72-1.98-2.33-3.1c-.61-1.12-.91-2.38-.91-3.77,0-1.6.47-2.98,1.42-4.12.94-1.14,2.18-2.02,3.72-2.65,1.53-.62,3.17-.94,4.92-.94Z"/><path class="cls-1" d="M371.12,5.4v8.67h5.24v1.07h-5.24v22.2c0,.68.12,1.17.37,1.47.25.3.66.45,1.23.45.39,0,.86-.12,1.39-.35.53-.23,1.03-.63,1.5-1.2l.8.64c-.75,1.28-1.74,2.31-2.97,3.08-1.23.77-2.77,1.15-4.63,1.15-1.18,0-2.24-.15-3.18-.45s-1.72-.76-2.33-1.36c-.79-.78-1.28-1.76-1.5-2.92-.21-1.16-.32-2.67-.32-4.52V15.14h-4.07v-1.07h4.07v-6.31c1.89,0,3.61-.19,5.16-.56,1.55-.37,3.04-.97,4.47-1.79Z"/><path class="cls-1" d="M388.71,13.32c1.57,0,2.95.17,4.15.51,1.19.34,2.06.65,2.59.94,1.25.75,2.01.29,2.3-1.39h1.07c-.07,1.03-.12,2.29-.16,3.77-.04,1.48-.05,3.43-.05,5.86h-1.07c-.14-1.32-.45-2.62-.94-3.9s-1.18-2.35-2.09-3.21-2.1-1.28-3.56-1.28c-.89,0-1.64.27-2.25.8-.61.53-.91,1.27-.91,2.19,0,1.07.32,2.02.96,2.86.64.84,1.46,1.64,2.46,2.41,1,.77,2,1.58,3,2.43,1.11.89,2.09,1.77,2.94,2.62.86.86,1.54,1.79,2.06,2.81.52,1.02.78,2.22.78,3.61,0,1.6-.49,3.03-1.47,4.28-.98,1.25-2.28,2.22-3.91,2.92-1.62.7-3.43,1.04-5.43,1.04-1.25,0-2.34-.13-3.26-.4-.93-.27-1.68-.58-2.25-.94-.57-.28-1.06-.51-1.47-.67-.41-.16-.81-.24-1.2-.24-.36,0-.66.19-.91.56-.25.37-.45.81-.59,1.31h-1.07c.07-1.14.12-2.53.16-4.17.03-1.64.05-3.82.05-6.53h1.07c.21,1.89.63,3.57,1.26,5.03.62,1.46,1.43,2.61,2.41,3.45.98.84,2.11,1.26,3.4,1.26.57,0,1.09-.11,1.55-.32s.84-.54,1.12-.96c.29-.43.43-.98.43-1.66,0-1.57-.47-2.89-1.42-3.96-.95-1.07-2.13-2.25-3.56-3.53-1.07-1-2.08-1.97-3.02-2.92-.95-.94-1.72-1.98-2.33-3.1-.61-1.12-.91-2.38-.91-3.77,0-1.6.47-2.98,1.42-4.12.94-1.14,2.18-2.02,3.72-2.65,1.53-.62,3.17-.94,4.92-.94Z"/></svg>