<?xml version="1.0" encoding="UTF-8"?><svg id="Layer_1" xmlns="http://www.w3.org/2000/svg" viewBox="0 0 200 200"><defs><style>.cls-1{fill:#1f3c70;}.cls-2{fill:#17b9a3;}.cls-3{fill:#22b86a;}.cls-4{fill:#19b790;}.cls-5{fill:#10b6ad;}.cls-6{fill:#1cb780;}.cls-7{fill:#1db59a;}.cls-8{fill:#0fb4c7;}.cls-9{fill:#1db688;}.cls-10{fill:#11b5dd;}.cls-11{fill:#0cb4d3;}.cls-12{fill:#14b5a7;}.cls-13{fill:#0bb5e2;}</style></defs><path class="cls-1" d="M81.87,82.53c.03,3.06.05,6.12.08,9.18-.01,2.54-.02,5.09-.03,7.63,0,19.23,0,38.47,0,57.7,0,1.68-.01,3.35-.02,5.03,0,.5.05.91.72.9,3.43-.08,6.85.13,10.28-.11.23.13.46.13.69,0,.69.16,1.38.16,2.06,0,.77.17,1.53.16,2.3,0h.45c.15.11.31.11.46,0,.08,0,.15,0,.23,0,.14.08.29.17.45.03-7.41.03-14.83.04-22.24.12-1.02.01-1.25-.26-1.25-1.26.04-7.91,0-15.83.05-23.74,0-.95-.23-1.21-1.19-1.2-13.84.03-27.68.04-41.52,0-1.07,0-1.22.36-1.22,1.3.04,7.91,0,15.83.05,23.74,0,.89-.2,1.15-1.12,1.15-9.98-.03-19.96-.03-29.93,0-.86,0-1.15-.15-1.16-1.11-.07-5.8.89-11.34,3.87-16.4,4.76-8.08,11.77-12.97,21.04-14.54,1.07-.18,1.47-.47,1.46-1.65-.05-15.18-.01-30.35-.05-45.53,0-1.08.3-1.39,1.32-1.28,1.5.16,3.03-.22,4.52.21-.02.15-.05.3-.05.45-.04,8.66,0,17.32.2,25.97-.24.35-.13.74-.13,1.11,0,6.42.03,12.84-.03,19.26,0,1.11.36,1.29,1.35,1.28,13.79-.03,27.59-.02,41.38-.02.38,0,.76-.03,1.14-.05.23-.39.11-.82.11-1.23,0-10.65,0-21.29,0-31.94,0-5,.03-9.99.04-14.99,1.89,0,3.78,0,5.68,0ZM26.35,146.99c0-3.09-.02-6.19.01-9.28,0-.66-.14-.85-.83-.74-9.53,1.57-17.31,9.34-19.04,18.98-.15.82.1.94.83.93,6.03-.02,12.07-.03,18.1,0,.76,0,.95-.22.94-.96-.04-2.98-.02-5.96-.02-8.94Z"/><path class="cls-8" d="M150.42,83.94c2.93,1.59,5.87,3.18,8.8,4.78,1.77.97,3.49,2.03,5.29,2.95.72.37.93.8.93,1.59-.02,20.82,0,41.64-.04,62.47,0,1.2.33,1.5,1.45,1.43,1.48-.09,2.98-.1,4.47,0,1.13.08,1.63-.26,1.47-1.41.69.51.61,1.38.26,1.79-.28.33-.87.98-1.72.51-.61-.33-.3.41-.41.67-1.22,0-2.45,0-4.29-.09-.19.03.23.24.6-.04.08-.06.04-.47-.05-.51-.51-.26-.76.3-.55.56.66.4.84.54,1.15.54.87,0,1.74,0,2.6,0,.31,0,.49-.14.53-.46.5-.13.72.36,1.1.5.29.1.48.48.87.1.22-.21.62-.22.72.2.12.49-.22.58-.61.58-1.03,0-2.06-.02-3.1,0-.76.02-1.54-.12-2.39.13.41.48.81.31,1.16.32,2.75.02,5.51-.04,8.26.03,1.04.03,1.35-.26,1.35-1.33-.03-26.38-.02-52.75-.02-79.13,0-.59,0-1.14-.52-1.55-.4-.32-.35-.54.18-.64.28-.05.33-.29.29-.54-.04-.22-.2-.33-.41-.33-.91.02-1.5-.66-2.23-1.02-.93-.45-1.7-1.26-2.83-1.29h0c.22-.78-.7-1.13-.69-1.83.06-.05.1-.1.14-.17,1.61,1.76,3.53,3.09,5.79,3.89.47.17.63.51.62.98,0,.5,0,.99,0,1.49,0,27.29,0,54.59-.02,81.88,0,.62.34,1.35-.33,1.87-.09-2.02.4-1.84-1.94-1.84-3.52,0-7.03,0-10.55,0-.38,0-.81-.11-1.14.14,0,.11,0,.23,0,.34h8.45c-1.07,1.16-2.27.34-3.18.93,2.78.33,5.59-.04,8.36.42-1.6.21-3.2.08-4.8.09-4.2.02-8.41-.02-12.61.03-.95.01-1.22-.23-1.21-1.18.03-10.82.02-21.64.01-32.45,0-10.93-.04-21.86-.01-32.79,0-.76-.29-1.09-.87-1.41-3.83-2.11-7.66-4.23-11.48-6.35-.09-.05-.16-.16-.24-.24-.84-1.05.86-1.01.78-1.73-1.1-.53-1.73.21-2.4.81-.08.02-.14,0-.2-.06-.05-.61.69-1.21.02-1.84-.03-.03,0-.16.05-.21.59-.6.4-1.36.36-2.05-.06-.95.15-1.55,1.24-1.46,0,0-.02,0-.02,0q1.19,1.87,2.7,1.46s0,0,0,0c.15.4.48.48.85.48Z"/><path class="cls-11" d="M170.9,158.72c.12-.25-.19-1,.41-.67.86.47,1.45-.18,1.72-.51.35-.42.44-1.28-.26-1.79-.01-.3-.04-.61-.04-.91,0-23.64,0-47.28,0-70.92,0-.3.03-.61.04-.91.59-.77.72-1.53-.02-2.29,0,0,0-.03,0-.03,0-.15,0-.3-.02-.46-.06-.58.32-1.5-.93-1.15-.32.09-.49-.22-.37-.52.3-.73.21-1.22-.63-1.48-.47-.14-.37-.61-.34-.98.04-.44.45-.24.65-.36.54-.33,1.27-.38,1.63-.99,1.13.03,1.9.84,2.83,1.29.74.36,1.32,1.04,2.23,1.02.21,0,.37.11.41.33.04.25-.01.48-.29.54-.53.1-.58.33-.18.64.52.41.52.96.52,1.55,0,26.38-.01,52.75.02,79.13,0,1.07-.31,1.35-1.35,1.33-2.75-.07-5.5-.02-8.26-.03-.35,0-.75.16-1.16-.32.85-.25,1.63-.11,2.39-.13,1.03-.03,2.06,0,3.1,0,.39,0,.73-.09.61-.58-.1-.42-.5-.42-.72-.2-.39.38-.58,0-.87-.1-.38-.14-.61-.62-1.1-.5h0Z"/><path class="cls-10" d="M190.77,80.73c.01.99.04,1.99.04,2.98,0,23.93,0,47.86,0,71.79q0,1.62,1.59,1.63c.11,0,.23,0,.34,0,2.92,0,2.94,0,2.92,2.88,0,.95.41,2.18-.18,2.76-.58.57-1.81.18-2.76.18-2.22.02-4.44-.06-6.65.03-.99.04-1.16-.33-1.13-1.18.05-1.22.02-2.45.02-3.67,0-26.72,0-53.44-.02-80.16,0-.74.15-1.21.92-1.47.85-.29,1.65-.75,2.47-1.13,0,.28-.07.53-.34.67-.3.16-.92.13-.65.68.23.47.67.36,1.06.04.25-.22.58-.29.78.06.18.32-.07.52-.29.77-.36.42-1,.2-1.47.69.58.1,1.03.12,1.44.26.25.09.88,3.24.67,3.46-.42.47-.27,1.02-.27,1.53,0,23.82,0,47.64,0,71.45,0,.23,0,.46,0,.69.01.3-.04.65.39.7.45.06.6-.29.69-.62.07-.25.06-.53.06-.79,0-23.74.01-47.48-.03-71.22,0-1.05-.19-2.07.39-3.02Z"/><path class="cls-4" d="M93.59,162.87c-.23.13-.46.13-.69,0-.06-.13-.08-.33-.18-.39-.59-.34-1.2-.65-1.8-.98-.29-.16-.51-.41-.42-.73.09-.34.45-.18.7-.22.52-.07,1.1.16,1.7-.25-.6-.34-1.21-.16-1.69-.56-1.02-.85.57-.8.39-1.37-.54-.3-1.24.1-2-.39,1.44-.69,2.76-.37,4.03-.33.48.02,1.03.38,1.37-.1.34-.46.34-1.06-.03-1.59,0-14.91,0-29.81-.01-44.72,0-.47.2-1-.24-1.41-.24-1.01-1.32-1.24-1.84-1.99-.01-.39.17-.83-.46-1-.58-.16-.75-.68-.48-1.16.43-.76-.09-.62-.51-.65-.24-.02-.48.3-.79-.04.82-.81.73-1.77.46-2.81-.15-.58-.16-1.38.78-1.24.62.09,1.44.21,1.76.77.37.62.81.56,1.33.55,0,0,0,0,0,0,0,.38.23.48.57.44.71.46,1.39.96,1.96,1.59.08.09.16.17.25.26,0,0-.01-.02-.01-.02.1.07.19.14.29.2,0,0-.02-.03-.02-.03.01.27.2.3.41.31,0,0,0,0,0,0,2.27,1.96,1.83,4.62,1.83,7.15,0,16.22,0,32.45,0,48.67,0,.69-.04,1.37-.24,2.03-.15,0-.31.01-.46.02-.17.14-.31.05-.46-.03-.08-.18-.15-.17-.23,0-.15.11-.31.11-.46,0-.15-.26-.3-.27-.45,0-.77.17-1.53.17-2.3,0-.69-.09-1.38-1.01-2.07,0ZM94.6,160.29c-.07-.16-.22-.19-.37-.17-.14.02-.34.02-.29.24.04.17.21.19.36.18.14-.02.31-.02.3-.24ZM92.93,105.51c-.15,0-.32,0-.36.17-.05.22.14.23.29.25.15.02.32,0,.36-.17.05-.22-.15-.21-.29-.25Z"/><path class="cls-13" d="M190.77,80.73c-.58.95-.4,1.97-.39,3.02.04,23.74.03,47.48.03,71.22,0,.27,0,.54-.06.79-.09.33-.23.68-.69.62-.43-.05-.38-.4-.39-.7,0-.23,0-.46,0-.69,0-23.82,0-47.64,0-71.45,0-.51-.15-1.06.27-1.53.2-.22-.42-3.37-.67-3.46-.41-.14-.86-.16-1.44-.26.47-.49,1.11-.27,1.47-.69.21-.25.47-.44.29-.77-.19-.35-.52-.28-.78-.06-.38.33-.83.44-1.06-.04-.27-.55.35-.52.65-.68.27-.15.35-.39.34-.67.36-.23.72-.47,1.07-.7.03.03.06.05.09.08.14.21.29.59.57.27.25-.29-.03-.46-.34-.49l-.07-.07c.16-.15.33-.29.49-.44.07.12.15.28.3.15.05-.04-.05-.24-.07-.37,0,0,0,.01,0,.01.08-.09.16-.19.24-.28,1.67-1.97,2.93-4.11,3.34-6.73.8-5.15-1.56-10.17-6.09-12.73-.23-.13-.45-.29-.67-.43-.08-.62-.56-.42-.93-.45,0,0,0,0,0,0-.02-.33-.12-.68-.5-.62-.69.12-1.11-.56-1.89-.28.47-.73,1.22-.26,1.77-.95-1.09,0-1.96.01-2.82,0-.35,0-.86.15-.87-.45,0-.6.5-.43.85-.46.87-.07,1.77.14,2.63-.25-1.11-.41-2.48.18-3.38-.96,1.44-.81,2.86.95,4.3.1-.87-.99-2.14-.57-3.19-1.04,1.49.16,2.76-.68,4.18-.7,4.13,1.19,7.32,3.69,9.62,7.25,4.9,7.61,3.75,16.97-2.75,23.26-.79.76-1.6,1.51-2.64,1.95-.09.06-.18.13-.27.19,0,0-.04.01-.04.01-.07.03-.13.07-.18.13-.11.12-.22.24-.33.36Z"/><path class="cls-3" d="M32.31,109.11c-.2-8.66-.24-17.31-.2-25.97,0-.15.04-.3.05-.45.01,5.88.02,11.77.05,17.65,0,.39-.26.93.2,1.13.37.15.63-.33.92-.56,9.77-7.86,19.53-15.72,29.28-23.6.59-.48.94-.49,1.53.02,1.32,1.15,2.79,2.11,4.02,3.36-.2.06-.6.18-.32.38,1.19.87,1.26,1.77.27,2.82-.04.05,0,.17-.04.22-.59.79-.12,2.4-1.8,2.34-.69-.53-1.43-1.02-2.06-1.62-.61-.58-1.05-.48-1.65.01-2.42,2.01-4.88,3.97-7.33,5.95-5.78,4.66-11.55,9.34-17.36,13.98-1.84,1.47-3.55,3.09-5.56,4.34Z"/><path class="cls-7" d="M124.79,69.7c3.15,1.5,6.15,3.26,9.14,5.05-.9-.18-1.77.72-2.89.15.47-.35.97.05,1.17-.49-1.19-.9-2.51-1.58-3.98-1.96-.23-.71-.46-.35-.69,0-.15,0-.3,0-.45,0,.53-1.52-1.06-1.06-1.58-1.57-.64-.62-.28.63-.72.67-.36.34-.21.79-.21,1.19,0,27.35,0,54.69,0,82.04,0,.4-.15.85.22,1.19h0c.08.13.15.13.23,0,.48.46.69,2.05.26,2.14-.68.15-1.52.57-2.09-.31.25-.63-.27-.44-.52-.45-1.07-.02-2.14-.01-3.21-.01-.82,0-1.11-.57-.76-1.12.42-.66.35-1.3.35-1.97,0-34.39,0-68.78.05-103.16,0-1.22-.92-2.21-.55-3.47.11-.37-.38-.42-.68-.39-1.72.19-3.43.4-5.14.63-.51.07-.87.28-.62.93.13.33-.13.45-.43.51-.36.07-.74.12-1.05.48.13.11.24.2.35.28.36.26,1.14.08,1.06.78-.08.69-.75.48-1.22.52-.15.01-.34.02-.35.21,0,.12.08.3.18.37.35.26.75.38,1.19.33,1.07-.12,2.19.29,3.21-.41.32-.22.8-.03.88.44.11.62-.44.45-.69.41-.54-.09-.79.42-1.24.48-.09-.19-.22-.27-.41-.11-2.17-.22-4.34-.03-6.51-.11-.35-.01-.78.23-1.03-.24.16-.02.44.06.44-.16,0-.25-.29-.27-.51-.29.02-2.89.02-5.79.07-8.68.01-.75-.4-.75-.95-.75-4.99.01-9.98.01-14.98.01,0,0,0,0,0,0,.02-.19.07-.35.25-.45,3.23.43,6.47.17,9.7.22,1.33.02,1.72-.46,1.78-1.79.06-1.23-.15-2.38-.7-3.48-.65-.43-1.36-.16-2.04-.19-.55,0-1.1,0-1.65,0-1.29,0-2.57,0-3.86,0-1,0-2,0-3,0-1.54,0-3.07,0-4.61,0-.29,0-.58,0-.87,0-.16,0-.32,0-.48,0-.13-.01-.26-.03-.4-.04.51-.34,1.08-.11,1.61-.11,8.22-.02,16.44-.01,24.66-.01,1.61,0,1.61,0,1.61,1.56,0,2.45.03,4.89-.01,7.34-.01.78.2,1.07,1.02,1.05,1.8-.06,3.59.02,5.39-.03.77-.02,1,.23.95.97-.06.84-.02,1.68-.02,2.52,0,34.91,0,69.81,0,104.72q0,2.02,1.97,2.02c.73,0,1.45-.03,2.18,0,.6.02.83-.24.81-.82-.02-.53,0-1.07,0-1.61,0-28.18,0-56.35.01-84.53.1.07.2.15.3.22.02-.23.04-.47.06-.7ZM107.67,52.55c.06.03.14.09.19.07.05-.02.06-.12.09-.18-.06-.03-.14-.09-.19-.07-.05.02-.06.12-.09.18Z"/><path class="cls-6" d="M81.87,82.53c-1.89,0-3.78,0-5.68,0-.01-.72-.03-1.45-.03-2.18,0-11.04,0-22.08,0-33.12,0,0,.01-.04.01-.04.34-.2.72-.21,1.11-.21,1.89,0,3.79-.05,5.68.02.92.03,1.37-.21,1.27-1.17.54.75.19,1.68-.73,1.82-.53.08-.99.68-.73.74,1.31.33.49,2.51,2.3,2.25-1.08.43-2.19-.08-3.08.66-.19.15-.52.13-.52.49,0,.21.07.38.3.42.3.06.6.09.82-.22.2-.28.28-.81.82-.56.54.25.59.75.56,1.27-.45.09-.96-.16-1.37.21-.84,0-.69.61-.69,1.13,0,5.99,0,11.98,0,17.96,0,3.51-.02,7.02-.03,10.52Z"/><path class="cls-5" d="M128.23,72.45c1.47.38,2.79,1.06,3.98,1.96-.2.54-.7.14-1.17.49,1.12.58,1.99-.32,2.89-.15,0,0,.03,0,.03,0,.2.82.49,1.42,1.56,1.41.57,0,1.15.44,1.65.84.7.56,1.5.9,2.42.9.05-.02.09,0,.11.05.25.81.85.98,1.6.9,1.93.92,3.81,1.94,5.59,3.13-1.09-.09-1.3.51-1.24,1.46.04.69.24,1.45-.36,2.05-.05.05-.08.18-.05.21.67.63-.08,1.23-.02,1.84-2.18-1.14-4.37-2.28-6.44-3.62-.02-.51-.36-.5-.73-.43,0,0,.02.01.02.01-.12-.51-.5-.55-.92-.49,0,0,.02,0,.02,0-.05-.14-.14-.21-.29-.18,0,0,0,.03,0,.02-.03-.44-.37-.31-.62-.34-.09-.04-.18-.08-.27-.12.02-1.08-.78-.74-1.36-.79h-.11s-.1-.04-.1-.04c-.09-.06-.17-.12-.26-.19,0,0,0,.02,0,.02.04-.38-.03-.62-.48-.75-.41-.11-1.01-.35-.98-.76.05-.66-.29-.59-.67-.58-.45,0-.91.05-1.36.08,0,0,.01.01.01.01-.2-.59-.32-.79-.69-.04-.73,1.5-.16,3-.16,4.5,0,24.81,0,49.61,0,74.42,0,1.27-.3,2.53-.06,3.8.08.45-.24.57-.56.49-.88-.22-1.73.13-2.6.02-1.3-.01-2.59-.38-3.9-.23,0-.15,0-.31,0-.46h.92c1.44,0,2.88,0,4.31,0,.35,0,.73,0,.69-.51-.03-.43-.38-.4-.68-.4-1.14,0-2.27,0-3.41,0-1.53,0-3.06,0-4.59,0,.11-.63.61-.45.99-.45,1.4-.02,2.81,0,4.21-.01.38,0,.88.18.99-.45.69,0,1.38,0,2.06,0,.07.2.15.57.38.19.16-.26.08-.67.08-1.01,0-25.38,0-50.76,0-76.14,0-.53-.04-1.02-.28-1.54-.3-.67-.46-1.47.37-2.03.2-.13.5-.51.12-.61-1.18-.3-.85-1.2-.88-1.94-.03-.77.11-1.57-.9-1.86-.27-.08-.3-.37-.2-.57.18-.35.34-.01.53.05.4.12.81.21,1.22.26.11.01.28-.12.35-.23.09-.15,0-.32-.18-.33-.71-.05-.93-.85-1.62-1.01-.52-.12-.44-.53-.12-.88.15,0,.3,0,.45,0,.23.07.46.37.69,0Z"/><path class="cls-8" d="M172.74,74.75c-.37.61-1.09.66-1.63.99-.19.12-.61-.08-.65.36-.03.37-.13.84.34.98.84.26.93.75.63,1.48-.12.3.05.61.37.52,1.26-.35.88.56.93,1.15.01.15.01.3.02.46-4.17-2.52-6.97-6.08-8.47-10.73-2.02-6.28.29-14.5,5.39-18.72.96-.8,1.88-1.67,3.07-2.13.08.72-.38,1.39-.91,1.35-.94-.07-.88,1.17-1.72,1.07-.11-.01-.17.38-.05.51.55.6.99,1.33,1.83,1.62.31.11.85-.35.92.43.06.64-.17.84-.73,1.03-.52.18-.79.66-.71,1.28.08.58.51.44.87.47-2.09,2.77-3.1,5.86-2.74,9.36.25,2.45,1.27,4.58,2.7,6.54-.04.06-.09.12-.14.17-.33-.15-.8-.29-.65.28.18.68.2,1.64,1.34,1.55h0ZM169.93,77.7c-.06-.09-.1-.21-.19-.25-.15-.07-.21.06-.18.18.02.09.12.15.2.22,0,0,.09-.08.16-.15ZM171.19,72.37c.03-.06.09-.14.07-.19-.02-.05-.12-.06-.18-.09-.03.06-.09.14-.07.19.02.05.12.06.18.09Z"/><path class="cls-11" d="M172.24,56.84c-.36-.03-.79.12-.87-.47-.08-.62.19-1.1.71-1.28.56-.19.8-.4.73-1.03-.08-.78-.61-.32-.92-.43-.84-.29-1.28-1.02-1.83-1.62-.12-.13-.06-.52.05-.51.85.1.78-1.14,1.72-1.07.53.04.99-.64.91-1.35,3.53-2.23,7.4-2.76,11.47-2.3,1.08.12,2.15.3,3.14.78-1.42.02-2.69.86-4.18.7,1.05.47,2.32.05,3.19,1.04-1.45.85-2.86-.91-4.3-.1.89,1.14,2.27.55,3.38.96-.86.39-1.76.18-2.63.25-.35.03-.86-.13-.85.46,0,.59.52.44.87.45.86.02,1.73,0,2.82,0-.55.7-1.3.23-1.77.95.78-.28,1.2.4,1.89.28.38-.07.48.29.5.62-2.83-.84-5.66-1.1-8.49-.05-.17.06-.38.05-.57.07-.43-.05-.84-.05-1.02.46,0,0,.01,0,.01,0-.34-.03-.67-.05-.72.43,0,0,0,0,0,0-1.52.2-3.01,1.47-3.21,2.72l-.03.03ZM179.18,50.14c.68.58,1.28,1.05,2.08.56.18-.11.39-.27.29-.54-.08-.22-.31-.19-.48-.18-.58.04-1.19-.13-1.89.16ZM184.3,47.49c-.91-.12-1.7-.78-2.85-.67.82,1.3,1.89.73,2.85.67Z"/><path class="cls-9" d="M94.98,102.26c-.52.01-.96.07-1.33-.55-.33-.56-1.14-.68-1.76-.77-.94-.14-.93.66-.78,1.24.27,1.04.36,2-.46,2.81.31.34.54.02.79.04.42.03.94-.11.51.65-.27.48-.1,1,.48,1.16.62.17.44.6.46,1-.11-.03-.24-.03-.32-.09-2.52-2.05-5.02-4.13-7.56-6.14-.99-.79-1.87-1.75-3.07-2.26,0-2.54.02-5.09.03-7.63,4.38,3.47,8.78,6.92,13.04,10.54Z"/><path class="cls-6" d="M66.28,86.45c1.68.06,1.22-1.55,1.8-2.34.04-.05,0-.17.04-.22.98-1.04.92-1.95-.27-2.82-.28-.2.12-.32.32-.38,2.43,1.93,4.85,3.86,7.28,5.8.39.41.48.9.47,1.46-.03,1.56,0,3.11-.02,4.67,0,.47.19.99-.22,1.41-3.2-2.45-6.35-4.96-9.41-7.58Z"/><path class="cls-7" d="M126.62,162.62c.87.11,1.72-.24,2.6-.02.32.08.64-.04.56-.49-.24-1.27.06-2.53.06-3.8,0-24.81,0-49.61,0-74.42,0-1.5-.57-3,.16-4.5.37-.76.49-.55.69.04-.5-.03-.41.35-.41.63-.01,1.03-.02,2.06-.02,3.09,0,26.28,0,52.56.02,78.84,0,.74-.17.98-.95.98-5-.03-10.01-.01-15.01-.02-.18,0-.36-.07-.54-.11.22-.01.44-.03.66-.04,3.82.01,7.64.02,11.46.04.27,0,.54.02.73-.22Z"/><path class="cls-4" d="M114.44,162.81c-.22.01-.44.03-.66.04,0,0,0,0,0,0,0-36.11,0-72.21,0-108.32,0-.37.11-.77-.16-1.11,0-.12,0-.24,0-.35.19-.16.31-.08.41.11,0,36.06,0,72.12,0,108.18,0,.52-.13,1.09.43,1.45Z"/><path class="cls-2" d="M113.61,53.42c.27.34.16.73.16,1.11,0,36.11,0,72.21,0,108.32-.36-.25-.2-.63-.2-.95,0-35.97,0-71.94,0-107.91,0-.19.03-.38.05-.57Z"/><path class="cls-7" d="M75.69,94.02c.41-.41.22-.94.22-1.41.03-1.56,0-3.11.02-4.67.01-.56-.08-1.05-.47-1.46.84.08.56-.57.56-.94.03-2.36.01-4.73.01-7.09,0-10.03,0-20.06,0-30.09,0-.37-.12-.76.11-1.12,0,11.04,0,22.08,0,33.12,0,.73.02,1.45.03,2.18-.01,5-.04,9.99-.04,14.99,0,10.65,0,21.29,0,31.94,0,.41.11.84-.11,1.23,0-11.83.01-23.67.03-35.51,0-.44-.09-.82-.36-1.17Z"/><path class="cls-9" d="M100.01,162.88c.2-.66.24-1.34.24-2.03,0-16.22,0-32.45,0-48.67,0-2.53.44-5.19-1.83-7.15,1.46.76,2.09,1.8,2.08,3.6-.09,17.66-.05,35.33-.06,52.99,0,.41.13.84-.13,1.23,0,0,.03,0,.03,0-.11.01-.22.03-.32.04Z"/><path class="cls-7" d="M84.22,45.84c.11.96-.35,1.21-1.27,1.17-1.89-.07-3.79-.02-5.68-.02-.39,0-.76.01-1.11.21.21-.52.66-.26.99-.26,1.91-.03,3.82-.07,5.73,0,.95.04,1.16-.33,1.16-1.19,0-2.75-.14-5.5.07-8.24.03.18.06.35.09.53v7.81Z"/><path class="cls-7" d="M139.59,77.92c-.92,0-1.73-.34-2.42-.9-.5-.41-1.08-.85-1.65-.84-1.07.01-1.36-.59-1.56-1.41,1.92.97,3.8,2.02,5.63,3.16Z"/><path class="cls-7" d="M130.68,79.42c.45-.03.91-.07,1.36-.08.38,0,.72-.08.67.58-.03.41.58.65.98.76.45.13.52.37.48.75-1.19-.63-2.43-1.16-3.49-2.01Z"/><path class="cls-5" d="M145.41,87.62c.68-.6,1.3-1.33,2.4-.81.08.72-1.62.68-.78,1.73-.63-.15-1.14-.52-1.62-.92Z"/><path class="cls-7" d="M90.13,42.84c0,2.9-.01,5.8-.03,8.71,0,.41.1.84-.12,1.24-.03-.03-.06-.06-.09-.09,0-.07,0-.13,0-.2,0-.39,0-.78,0-1.17,0-2.67,0-5.33,0-8,.08-.16.15-.32.23-.49h0Z"/><path class="cls-8" d="M172.27,56.81c.2-1.26,1.69-2.52,3.21-2.72-1.22.73-2.13,1.83-3.21,2.72Z"/><path class="cls-5" d="M149.58,83.46q-1.51.41-2.7-1.46c.99.33,1.88.84,2.7,1.46Z"/><path class="cls-7" d="M82.58,52.92c.41-.37.91-.12,1.37-.21,1.91,0,3.83,0,5.74,0h.1s.1,0,.1,0c.03.03.06.06.09.09-1.27.4-2.56.12-3.85.17-1.18.04-2.37-.02-3.55-.04Z"/><path class="cls-8" d="M172.76,80.7c.74.76.61,1.52.02,2.29,0-.76-.01-1.53-.02-2.29Z"/><path class="cls-7" d="M141.3,78.87c-.75.08-1.35-.09-1.6-.9.59.2,1.14.47,1.6.9Z"/><path class="cls-7" d="M134.63,81.64c.57.06,1.38-.29,1.36.79-.48-.22-1-.36-1.36-.79Z"/><path class="cls-6" d="M84.21,38.03c-.03-.18-.06-.35-.09-.53-.05-.16-.04-.3.12-.39.13.01.26.03.4.04-.04.34.15.79-.42.88Z"/><path class="cls-11" d="M186.27,53.19c.37.03.85-.17.93.45-.42.08-.66-.2-.93-.45Z"/><path class="cls-8" d="M176.19,53.67c.18-.51.59-.51,1.02-.46-.26.32-.63.42-1.02.46Z"/><path class="cls-4" d="M124.79,69.7c-.02.23-.04.47-.06.7-.1-.07-.2-.15-.3-.22-.21-.41-.1-.58.36-.48Z"/><path class="cls-7" d="M137.14,83.04c.42-.06.8-.02.92.49-.37-.05-.69-.18-.92-.49Z"/><path class="cls-4" d="M105.99,52.26c.22.02.5.04.51.29,0,.22-.27.14-.44.16-.02-.15-.05-.3-.07-.46Z"/><path class="cls-7" d="M138.05,83.51c.37-.07.7-.08.73.43-.31-.03-.55-.18-.73-.43Z"/><path class="cls-5" d="M150.42,83.94c-.37,0-.71-.08-.85-.48.35.04.63.21.85.48Z"/><path class="cls-9" d="M95.54,102.7c-.33.04-.56-.07-.57-.44.27.05.42.24.57.44Z"/><path class="cls-8" d="M175.49,54.08c.04-.47.38-.46.72-.43-.24.14-.48.28-.72.43Z"/><path class="cls-10" d="M190.38,73.8c.03.13.12.33.07.37-.15.12-.23-.03-.3-.15.08-.07.15-.14.23-.21Z"/><path class="cls-7" d="M136.25,82.55c.25.02.59-.1.62.34-.26-.01-.46-.14-.62-.34Z"/><path class="cls-9" d="M98.41,105.03c-.21-.01-.4-.05-.41-.31.19.03.33.14.41.31Z"/><path class="cls-10" d="M190.62,73.54c-.08.09-.16.19-.24.28.08-.09.16-.19.24-.28Z"/><path class="cls-7" d="M136.86,82.86c.15-.03.25.04.29.18-.1-.06-.2-.12-.29-.18Z"/><path class="cls-13" d="M189.42,74.67c.08-.07.16-.14.24-.22,0,0,.07.07.07.07-.07.07-.15.15-.22.22-.03-.03-.06-.05-.09-.08Z"/><path class="cls-9" d="M98.02,104.74c-.1-.07-.19-.14-.29-.2.1.07.19.14.29.2Z"/><path class="cls-10" d="M191.11,80.38c.05-.06.11-.1.18-.13-.06.04-.12.09-.18.13Z"/><path class="cls-10" d="M191.32,80.23c.09-.06.18-.13.27-.19-.03.14-.12.21-.27.19Z"/><path class="cls-9" d="M97.75,104.55c-.08-.09-.16-.17-.25-.26.08.09.16.17.25.26Z"/><path class="cls-7" d="M134.16,81.42c.09.06.17.12.26.19-.15.02-.23-.04-.26-.19Z"/><path class="cls-1" d="M100.33,162.84s-.02,0-.03,0c.05.13.06.11.03,0Z"/><path class="cls-9" d="M81.92,157.05c3.98.03,7.96.04,11.94.09.92.01.73-.66.85-1.17.09,0,.17,0,.26,0,.37.52.37,1.12.03,1.59-.34.48-.9.11-1.37.1-1.28-.04-2.6-.36-4.03.33.76.49,1.46.09,2,.39.17.57-1.42.52-.39,1.37.48.4,1.09.23,1.69.56-.6.41-1.17.18-1.7.25-.25.04-.6-.12-.7.22-.09.32.14.57.42.73.6.33,1.21.63,1.8.98.1.06.12.26.18.39-3.42.24-6.85.03-10.28.11-.67.02-.73-.4-.72-.9.01-1.68.02-3.35.02-5.03Z"/><path class="cls-9" d="M93.59,162.87c.69-1.01,1.38-.09,2.07,0-.69.16-1.38.16-2.07,0Z"/><path class="cls-9" d="M97.95,162.87c.15-.27.3-.26.45,0-.15,0-.3,0-.45,0Z"/><path class="cls-9" d="M98.86,162.87c.07-.18.15-.19.23,0-.08,0-.15,0-.23,0Z"/><path class="cls-11" d="M178.26,162.86c-2.76-.46-5.57-.09-8.36-.42.91-.59,2.11.23,3.18-.93h-8.45c0-.11,0-.23,0-.34.34-.26.76-.14,1.14-.14,3.52-.01,7.03-.01,10.55,0,2.34,0,1.85-.18,1.94,1.84,0,0,0,0,0,0Z"/><path class="cls-11" d="M172.74,74.74c-1.14.09-1.16-.87-1.34-1.55-.15-.57.31-.44.65-.28,0,.7.91,1.05.69,1.83Z"/><path class="cls-11" d="M167.23,158.72c1.22,0,2.45,0,3.67,0h0c-.04.32-.22.46-.53.46-.87,0-1.74,0-2.6,0-.31,0-.49-.14-.53-.46Z"/><path class="cls-11" d="M166,158.54c.41-.17.66-.73,1.17-.47.09.05.13.46.05.51-.37.28-.79.07-1.22-.05Z"/><path class="cls-6" d="M94.96,155.96c-.09,0-.17,0-.26,0-.02-.34-.05-.68-.05-1.03,0-14.69,0-29.38,0-44.07,0-.34.04-.68.06-1.03.45.4.24.94.24,1.41.01,14.91.01,29.81.01,44.72Z"/><path class="cls-9" d="M94.6,160.29c.01.22-.16.22-.3.24-.15.02-.32,0-.36-.18-.05-.22.15-.22.29-.24.15-.02.29.01.37.17Z"/><path class="cls-9" d="M92.93,105.51c.14.04.34.03.28.25-.04.17-.21.19-.36.17-.14-.02-.34-.03-.29-.25.04-.17.21-.18.37-.17Z"/><path class="cls-10" d="M189.5,74.75c.07-.07.15-.15.22-.22.32.03.59.2.34.49-.28.32-.43-.06-.57-.27Z"/><path class="cls-2" d="M114.44,162.81c-.55-.36-.43-.93-.43-1.45,0-36.06,0-72.12,0-108.18.45-.06.7-.57,1.24-.48.25.04.8.21.69-.41-.09-.47-.56-.66-.88-.44-1.02.7-2.14.29-3.21.41-.44.05-.84-.07-1.19-.33-.1-.08-.19-.25-.18-.37,0-.19.2-.19.35-.21.47-.05,1.13.16,1.22-.52.09-.7-.69-.52-1.06-.78-.11-.08-.22-.17-.35-.28.31-.36.69-.41,1.05-.48.31-.06.56-.19.43-.51-.25-.65.11-.86.62-.93,1.71-.23,3.43-.43,5.14-.63.3-.03.79.02.68.39-.37,1.26.55,2.25.55,3.47-.05,34.39-.04,68.78-.05,103.16,0,.66.07,1.31-.35,1.97-.35.55-.05,1.12.76,1.12,1.07,0,2.14-.01,3.21.01.25,0,.77-.18.52.45-.76,0-1.53,0-2.29,0-.28,0-.53.11-.62.41-.11.36.18.43.41.57,1.1.62,2.37.55,3.55.81.98.22,2.05.04,3.09.04h.92c0,.15,0,.31,0,.46-.69,0-1.38,0-2.06,0-2,0-4.01.04-6.01-.02-.85-.03-.84.34-.65.94-.85.05-1.82-.26-2.43.71.95.65,1.97.73,3.03.68.87-.04,1.74,0,2.61,0,1.31-.14,2.6.22,3.9.23-.19.25-.47.22-.73.22-3.82-.01-7.64-.02-11.46-.04ZM112.96,49.7c-.07-.16-.22-.19-.37-.17-.14.02-.35.04-.28.24.03.09.23.16.35.17.14.01.31-.02.29-.24Z"/><path class="cls-12" d="M127.31,159.63c-1.03,0-2.1.17-3.09-.04-1.18-.26-2.45-.19-3.55-.81-.24-.13-.52-.21-.41-.57.09-.3.34-.4.62-.41.76-.01,1.53,0,2.29,0,.57.88,1.41.45,2.09.31.43-.09.22-1.68-.26-2.14-.08,0-.15,0-.23,0,0,0,0,0,0,0,0-28.14,0-56.28,0-84.42.44-.04.08-1.29.72-.67.52.51,2.11.05,1.58,1.57-.32.35-.4.76.12.87.68.15.9.96,1.62,1.01.18.01.27.17.18.33-.07.11-.24.24-.35.23-.41-.05-.82-.14-1.22-.26-.19-.06-.35-.39-.53-.05-.11.21-.07.5.2.57,1.01.29.87,1.09.9,1.86.03.74-.3,1.65.88,1.94.39.1.08.48-.12.61-.83.56-.67,1.36-.37,2.03.24.52.28,1.01.28,1.54,0,25.38,0,50.76,0,76.14,0,.34.08.75-.08,1.01-.23.38-.31,0-.38-.19,0-.15,0-.31,0-.46,0-25.22,0-50.44,0-75.66,0-.77-.01-1.49-.93-2.14v77.8Z"/><path class="cls-9" d="M84.21,38.03c.57-.09.38-.54.42-.88.16,0,.32,0,.48,0,.29.28.58.28.87,0,1.54,0,3.07,0,4.61,0,.02.49-.56.83-.32,1.38.56,1.27.37,2.57.09,3.86-.18.09-.23.26-.25.45-.08.16-.15.32-.23.49-.34.31-.2.71-.2,1.08-.01,1.91-.01,3.82,0,5.72,0,.4-.15.85.2,1.2,0,.39,0,.78,0,1.17-.07.07-.13.14-.2.2-1.91,0-3.83,0-5.74,0,.04-.52-.02-1.02-.56-1.27-.54-.25-.62.27-.82.56-.22.31-.52.28-.82.22-.23-.04-.29-.22-.3-.42,0-.36.33-.34.52-.49.9-.74,2-.22,3.08-.66-1.81.26-.99-1.92-2.3-2.25-.27-.07.2-.67.73-.74.92-.13,1.27-1.07.73-1.82,0-2.6,0-5.21,0-7.81Z"/><path class="cls-4" d="M90.37,42.4c.28-1.3.47-2.59-.09-3.86-.24-.54.34-.89.32-1.38,1,0,2,0,3,0,1.29.33,2.57.33,3.86,0,.55,0,1.1,0,1.65,0,.65.4,1.36.1,2.04.19.55,1.1.76,2.25.7,3.48-.06,1.33-.45,1.81-1.78,1.79-3.23-.05-6.48.21-9.7-.22Z"/><path class="cls-4" d="M124.78,71.54c0,28.14,0,56.28,0,84.42-.37-.34-.22-.79-.22-1.19,0-27.35,0-54.69,0-82.04,0-.4-.15-.85.21-1.19Z"/><path class="cls-9" d="M97.47,37.15c-1.29.32-2.57.33-3.86,0,1.29,0,2.57,0,3.86,0Z"/><path class="cls-9" d="M101.16,37.35c-.68-.09-1.4.21-2.04-.19.68.04,1.4-.24,2.04.19Z"/><path class="cls-12" d="M128.23,72.45c-.23.37-.46.07-.69,0,.23-.35.46-.72.69,0Z"/><path class="cls-4" d="M107.67,52.55c.03-.06.04-.16.09-.18.05-.02.12.05.19.07-.03.06-.04.16-.09.18-.05.02-.12-.05-.19-.07Z"/><path class="cls-6" d="M85.99,37.15c-.29.28-.58.28-.87,0,.29,0,.58,0,.87,0Z"/><path class="cls-2" d="M124.79,155.96c.08,0,.15,0,.23,0-.08.13-.15.13-.23,0Z"/><path class="cls-12" d="M122.72,162.39c-.87,0-1.74-.03-2.61,0-1.06.05-2.08-.03-3.03-.68.6-.97,1.57-.65,2.43-.71-.08.65.14.97.86.93.78-.05,1.57-.01,2.35-.01,0,.15,0,.31,0,.46Z"/><path class="cls-2" d="M122.72,161.93c-.78,0-1.57-.04-2.35.01-.72.05-.94-.28-.86-.93.15,0,.31,0,.46,0,1.53,0,3.06,0,4.59,0,.05.66-.96.26-.92.92h-.92Z"/><path class="cls-12" d="M123.64,161.93c-.05-.66.96-.26.92-.92,1.14,0,2.27,0,3.41,0,.3,0,.65-.03.68.4.04.51-.34.51-.69.51-1.44,0-2.88,0-4.31,0Z"/><path class="cls-12" d="M119.97,161.01c-.15,0-.31,0-.46,0-.19-.59-.2-.96.65-.94,2,.06,4,.02,6.01.02-.11.63-.61.45-.99.45-1.4.02-2.81,0-4.21.01-.38,0-.88-.18-.99.45Z"/><path class="cls-11" d="M169.93,77.7c-.07.06-.16.15-.16.15-.08-.06-.18-.13-.2-.22-.03-.11.03-.25.18-.18.08.04.12.16.19.25Z"/><path class="cls-11" d="M171.19,72.37c-.06-.03-.16-.04-.18-.09-.02-.05.04-.12.07-.19.06.03.16.04.18.09.02.05-.04.12-.07.19Z"/><path class="cls-13" d="M179.18,50.14c.71-.29,1.31-.13,1.89-.16.18-.01.4-.03.48.18.1.27-.11.43-.29.54-.8.49-1.4.02-2.08-.56Z"/><path class="cls-13" d="M184.3,47.49c-.95.06-2.03.63-2.85-.67,1.15-.11,1.93.55,2.85.67Z"/><path class="cls-6" d="M89.89,51.33c-.36-.35-.2-.79-.2-1.2-.02-1.91-.01-3.82,0-5.72,0-.37-.13-.77.2-1.08,0,2.67,0,5.33,0,8Z"/><path class="cls-6" d="M89.69,52.71c.07-.07.13-.14.2-.2.01.07.01.13,0,.2,0,0-.1.01-.1.01,0,0-.1,0-.1,0Z"/><path class="cls-5" d="M127.31,159.63v-77.8c.91.65.93,1.37.93,2.14,0,25.22,0,50.44,0,75.66h-.92Z"/><path class="cls-7" d="M112.96,49.7c.02.22-.15.25-.29.24-.13-.01-.32-.08-.35-.17-.07-.2.14-.22.28-.24.15-.02.29,0,.37.17Z"/></svg>