<?xml version="1.0" encoding="UTF-8"?><svg id="Layer_1" xmlns="http://www.w3.org/2000/svg" viewBox="0 0 200 200"><defs><style>.cls-1{fill:#fdfdfe;}.cls-2{fill:#345dae;}</style></defs><path class="cls-1" d="M36.46,95.91c-3.51,0-7.01,0-10.52-.01-.48,0-.66.1-.66.62.03,2.88.03,5.76,0,8.63,0,.59.21.65.71.65,2.76-.02,5.52,0,8.28-.02.47,0,.61.14.6.6-.03,1.58-.03,3.17,0,4.75,0,.46-.18.68-.55.89-1.77,1.01-3.68,1.48-5.69,1.63-4.25.33-8.08-.67-11.11-3.8-3.02-3.14-4.03-7-3.59-11.26.85-8.23,7.69-13.19,15.8-11.53,2.99.61,5.56,2.03,7.89,3.93.26.22.42.37.73,0,2.42-2.94,4.86-5.87,7.32-8.79.28-.33.22-.47-.08-.72-1.83-1.52-3.79-2.87-5.94-3.88-6.2-2.93-12.71-3.58-19.37-2.23-7.02,1.42-12.6,5.12-16.45,11.23-3.26,5.17-4.38,10.85-3.58,16.86,1.26,9.55,6.45,16.15,15.33,19.81,5.02,2.07,10.27,2.41,15.62,1.7,5.98-.79,11.33-3.1,16.06-6.84.29-.23.41-.47.41-.84-.01-6.91-.01-13.82,0-20.72,0-.56-.17-.67-.69-.67-3.51.02-7.01.01-10.52.01ZM54.25,100.67c0,7.77,0,15.54-.01,23.31,0,.59.14.76.74.75,7.11-.02,14.21-.02,21.32,0,2.19,0,4.36-.17,6.5-.63,5.81-1.27,10.78-3.98,14.49-8.7,4.1-5.23,5.5-11.22,4.73-17.77-.56-4.78-2.4-9.01-5.65-12.56-4.95-5.41-11.26-8.02-18.46-8.25-7.63-.24-15.27-.06-22.9-.1-.65,0-.77.18-.77.79.02,7.72.01,15.44.01,23.17ZM108.35,100.06c0,7.84,0,15.68-.01,23.52,0,.6.16.76.76.76,4.01-.03,8.02-.03,12.03,0,.6,0,.75-.16.75-.75-.03-4.15,0-8.3-.03-12.45,0-.55.12-.74.7-.73,1.92.04,3.84.01,5.76.02,3.43,0,6.79-.4,10.03-1.6,4.23-1.56,7.58-4.16,9.55-8.32,1.46-3.08,1.78-6.35,1.48-9.69-.4-4.42-2.21-8.15-5.77-10.92-3.71-2.88-8.05-4.04-12.63-4.14-7.34-.15-14.69-.05-22.04-.08-.67,0-.58.35-.58.76,0,7.87,0,15.73,0,23.6ZM178.8,125.28c1.49,0,2.97-.09,4.44-.3,1.47-.21,2.92-.53,4.34-.98,5.08-1.62,8.97-4.85,12.15-9.03.36-.47.42-.7-.14-1.08-2.93-2.04-5.83-4.12-8.74-6.19q-.82-.58-1.47.18c-2.33,2.73-5.09,4.71-8.79,5.07-4.02.39-7.49-.75-10.07-3.93-3.21-3.95-3.8-8.5-2.5-13.29,1.89-6.95,8.82-10.43,15.5-7.89,2.38.91,4.21,2.55,5.81,4.47.27.33.43.39.78.11,3.1-2.42,6.21-4.82,9.33-7.22.3-.23.38-.39.12-.72-2.47-3.27-5.48-5.9-9.26-7.55-5.09-2.22-10.41-2.69-15.85-1.77-6.68,1.13-12.14,4.35-16.13,9.85-4.38,6.03-5.61,12.82-4.32,20.07,2.14,12.08,12.56,20.33,24.81,20.21Z"/><path class="cls-2" d="M36.46,95.91c3.51,0,7.01.01,10.52-.01.52,0,.69.11.69.67-.02,6.91-.02,13.82,0,20.72,0,.37-.11.61-.41.84-4.73,3.74-10.08,6.04-16.06,6.84-5.34.71-10.59.37-15.62-1.7-8.88-3.67-14.07-10.27-15.33-19.81-.79-6.02.32-11.7,3.58-16.86,3.85-6.1,9.44-9.81,16.45-11.23,6.66-1.35,13.17-.7,19.37,2.23,2.16,1.02,4.11,2.36,5.94,3.88.3.25.36.39.08.72-2.46,2.92-4.9,5.85-7.32,8.79-.31.37-.46.22-.73,0-2.33-1.9-4.9-3.32-7.89-3.93-8.1-1.66-14.95,3.3-15.8,11.53-.44,4.26.56,8.12,3.59,11.26,3.03,3.14,6.86,4.14,11.11,3.8,2-.16,3.92-.62,5.69-1.63.37-.21.56-.43.55-.89-.03-1.58-.03-3.17,0-4.75,0-.47-.13-.61-.6-.6-2.76.02-5.52,0-8.28.02-.49,0-.71-.06-.71-.65.03-2.88.03-5.76,0-8.63,0-.53.17-.63.66-.62,3.51.02,7.01.01,10.52.01Z"/><path class="cls-2" d="M54.25,100.67c0-7.72,0-15.44-.01-23.17,0-.61.12-.8.77-.79,7.63.04,15.27-.14,22.9.1,7.2.23,13.52,2.84,18.46,8.25,3.25,3.55,5.09,7.78,5.65,12.56.77,6.54-.63,12.54-4.73,17.77-3.71,4.72-8.68,7.43-14.49,8.7-2.14.47-4.31.64-6.5.63-7.11-.01-14.21-.01-21.32,0-.61,0-.75-.16-.74-.75.02-7.77.01-15.54.01-23.31ZM93.37,103.7c-.07,0-.14,0-.21,0,0,.44.03.87,0,1.3-.04.52-.36.79-.88.88-.56.09-.56-.25-.54-.64,0-.12-.04-.26-.2-.23-.07.01-.16.13-.16.2-.05.67-.4,1.26-.34,1.97.09.99.02.95-.96,1-.6.03-.71-.2-.69-.74.04-1.1.02-2.21,0-3.31,0-.24.1-.61-.32-.58-.55.05-.48-.3-.48-.63q0-.94-.97-.94c-.1,0-.19.01-.29,0-.73-.12-1.06.13-.95.91.03.21.18.64-.23.63-.68-.02-.57.41-.57.81,0,1.94-.02,3.89.01,5.83.01.56-.16.7-.69.67-.77-.04-1.54-.04-2.3,0-.48.02-.67-.08-.66-.62.02-3.43.02-6.86,0-10.29,0-.38.12-.59.43-.81,1.3-.92,1.79-2.42,1.32-3.86-.47-1.43-1.76-2.38-3.25-2.39-1.48,0-2.79.93-3.28,2.35-.5,1.43-.02,2.93,1.27,3.87.34.24.43.5.43.9-.01,4.46,0,8.92-.02,13.38,0,.24.24.71-.33.69-.54-.03-.28-.47-.29-.72-.03-1.1-.11-2.22.01-3.31.16-1.43-.63-2.42-1.33-3.55-.79,1.17-1.51,2.25-1.34,3.72.13,1.11,0,2.25.04,3.38.02.54-.3.54-.64.47-.3-.06-.82.3-.83-.42,0-.49.25-1.16-.14-1.42-.34-.24-.97-.08-1.47-.1-.1,0-.19-.01-.29,0-.46.07-.56-.14-.56-.57.02-1.87,0-3.74,0-5.61,0-.29.02-.56-.19-.81-.6-.71-1.2-1.44-1.77-2.18-.24-.31-.37-.24-.58.03-.5.64-1.01,1.28-1.55,1.89-.27.31-.39.63-.38,1.04.02,1.05,0,2.11.01,3.17,0,.3-.04.49-.42.49-.38,0-.43-.18-.42-.49.02-.41,0-.82,0-1.22.01-.3-.1-.4-.41-.43-1.5-.12-1.5-.13-1.5,1.35,0,.05,0,.1,0,.14.08.5-.11.72-.63.64-.51-.09-.65.14-.63.64.03,1.13.02,2.25,0,3.38,0,.22.17.57-.29.58-.47,0-.3-.35-.31-.57-.01-1.32-.02-2.64,0-3.96,0-.4-.11-.55-.53-.54-.79.03-1.59.05-2.38,0-.63-.05-.74.2-.74.77.02,3.72.03,7.44,0,11.15,0,.61.12.81.78.8,5.45-.03,10.9-.02,16.35-.01,2.24,0,4.46-.2,6.63-.72,5.59-1.33,10.16-4.17,13.33-9.05.19-.29.31-.58.3-.93-.01-1.53-.03-3.07,0-4.6.01-.49-.16-.65-.62-.6-.35.04-.69.04-.62-.49.02-.15.05-.38-.2-.36-.17.02-.14.22-.16.35-.07.47-.47.68-.87.42-.3-.19-.54-.45-.52-.88.02-.4.07-.83-.05-1.22Z"/><path class="cls-2" d="M108.35,100.06c0-7.87,0-15.73,0-23.6,0-.41-.08-.76.58-.76,7.35.03,14.69-.07,22.04.08,4.58.09,8.92,1.25,12.63,4.14,3.56,2.77,5.37,6.49,5.77,10.92.3,3.34-.02,6.61-1.48,9.69-1.97,4.16-5.32,6.75-9.55,8.32-3.23,1.19-6.6,1.6-10.03,1.6-1.92,0-3.84.02-5.76-.02-.59-.01-.71.18-.7.73.02,4.15,0,8.3.03,12.45,0,.59-.15.76-.75.75-4.01-.03-8.02-.03-12.03,0-.6,0-.76-.16-.76-.76.02-7.84.01-15.68.01-23.52ZM121.86,93.39c0,1.94.02,3.88-.01,5.83,0,.52.11.71.67.69,1.37-.04,2.74-.02,4.1-.01,1.41,0,2.83.04,4.22-.28,4.8-1.09,6.85-6.47,3.84-10.18-1.28-1.58-3.08-2.14-5.01-2.33-2.42-.24-4.84-.05-7.26-.12-.46-.01-.56.16-.56.58.02,1.94,0,3.88,0,5.83Z"/><path class="cls-2" d="M178.8,125.28c-12.25.12-22.67-8.13-24.81-20.21-1.29-7.25-.05-14.04,4.32-20.07,3.99-5.5,9.45-8.73,16.13-9.85,5.44-.92,10.76-.44,15.85,1.77,3.78,1.65,6.79,4.28,9.26,7.55.25.34.18.49-.12.72-3.12,2.39-6.23,4.8-9.33,7.22-.35.28-.51.21-.78-.11-1.6-1.92-3.43-3.56-5.81-4.47-6.68-2.54-13.61.94-15.5,7.89-1.31,4.79-.71,9.34,2.5,13.29,2.58,3.18,6.05,4.32,10.07,3.93,3.7-.36,6.46-2.35,8.79-5.07q.65-.76,1.47-.18c2.91,2.07,5.81,4.16,8.74,6.19.56.39.5.61.14,1.08-3.18,4.19-7.07,7.41-12.15,9.03-1.42.45-2.86.77-4.34.98-1.48.21-2.96.31-4.44.3Z"/><path class="cls-1" d="M93.37,103.7c.12.39.07.82.05,1.22-.02.43.22.69.52.88.41.26.8.05.87-.42.02-.14-.02-.34.16-.35.25-.02.22.22.2.36-.07.53.27.53.62.49.46-.05.63.11.62.6-.03,1.53-.02,3.07,0,4.6,0,.36-.11.64-.3.93-3.18,4.88-7.75,7.72-13.33,9.05-2.18.52-4.39.72-6.63.72-5.45,0-10.9-.02-16.35.01-.66,0-.78-.19-.78-.8.03-3.72.03-7.44,0-11.15,0-.57.1-.82.74-.77.79.06,1.58.03,2.38,0,.42-.01.53.14.53.54-.02,1.32-.01,2.64,0,3.96,0,.22-.16.58.31.57.46,0,.29-.37.29-.58.02-1.13.03-2.26,0-3.38-.02-.49.12-.72.63-.64.51.09.7-.14.63-.64,0-.05,0-.1,0-.14,0-1.48,0-1.47,1.5-1.35.31.02.42.13.41.43-.02.41,0,.82,0,1.22-.01.31.04.49.42.49.38,0,.42-.19.42-.49-.01-1.06.01-2.11-.01-3.17,0-.41.11-.73.38-1.04.54-.61,1.05-1.25,1.55-1.89.21-.27.34-.34.58-.03.57.74,1.17,1.46,1.77,2.18.21.25.19.53.19.81,0,1.87.01,3.74,0,5.61,0,.43.1.64.56.57.09-.01.19,0,.29,0,.5.02,1.13-.14,1.47.1.38.27.13.94.14,1.42,0,.72.53.36.83.42.34.06.65.07.64-.47-.04-1.13.09-2.27-.04-3.38-.17-1.47.55-2.55,1.34-3.72.7,1.13,1.49,2.12,1.33,3.55-.12,1.09-.04,2.2-.01,3.31,0,.25-.25.69.29.72.57.03.33-.44.33-.69.02-4.46,0-8.92.02-13.38,0-.39-.1-.65-.43-.9-1.29-.94-1.76-2.44-1.27-3.87.49-1.42,1.8-2.36,3.28-2.35,1.48,0,2.78.96,3.25,2.39.47,1.44-.02,2.94-1.32,3.86-.31.22-.43.43-.43.81.02,3.43.02,6.86,0,10.29,0,.54.19.64.66.62.77-.04,1.54-.04,2.3,0,.53.03.7-.11.69-.67-.04-1.94-.01-3.89-.01-5.83,0-.4-.11-.82.57-.81.41.01.26-.42.23-.63-.12-.78.22-1.03.95-.91.09.02.19,0,.29,0q.96,0,.97.94c0,.33-.07.68.48.63.42-.03.32.34.32.58,0,1.1.03,2.21,0,3.31-.02.53.09.77.69.74.97-.05,1.04-.01.96-1-.06-.71.29-1.31.34-1.97,0-.07.1-.19.16-.2.15-.03.2.1.2.23-.02.39-.02.73.54.64.52-.08.83-.36.88-.88.03-.43,0-.87,0-1.3.07,0,.14,0,.21,0Z"/></svg>