<svg id="Person" xmlns="http://www.w3.org/2000/svg" width="5769" height="1002" viewBox="0 0 5769 1002">
  <defs>
    <style>
      .cls-1, .cls-2 {
        fill: #cc0035;
      }

      .cls-1, .cls-3 {
        fill-rule: evenodd;
      }

      .cls-3 {
        fill: #0b2b8c;
      }
    </style>
  </defs>
  <path id="Color_Fill_13" data-name="Color Fill 13" class="cls-1" d="M410,675c0-14.433,4.859-30.105,8-42,1.516-5.744,2.092-9.281,4-15,6.754-20.25,11.834-44.647,18-65-1.116-8.9-2.109-16.163-3-22-1.555-15.111-2.879-30.759-2.843-39.834C434.209,478.225,435.5,466.721,437,454c1.226-10.409,3.294-24.165,6-34,0-2.666,2-5.334,2-8,1.583-5.143,4.374-11.6,5-18h-1v-1c-10.846,1.16-23.648,4.532-32,7-1.511,7.322-2.784,12.819-4,21-3.078,20.707-5.176,33.144-9,59-2.3,15.8-2.9,23.379-5,38,0.144,0.3-1.008,4.667-1,5-9.778.867-15.83,1.209-26,2-1.165-29.992-1.973-68.416-3-103,0.091-17.911-.033-30.064,0-40,8.76-6.121,28.314-15.836,45-26,33.037-20,62.809-39.363,97-53,16.054-6.4,36.193-1.437,47,6,8.451,5.816,11.4,14.773,16,26,7.138,16.652,10.514,25.541,17,43,3.2,8.61,5.384,16.227,10,23,12.072,14.231,23.548,22.954,33,31.192C651.887,444.06,653.138,444.35,672,457c17.327,11.62,24.72,16.362,39,26-7.939,10.9-9.715,12.973-19,24-16.918-5.131-16.693-4.9-33-10-17.107-5.354-31.222-9.969-48-16-7.735-3.107-9.737-3.969-20-9-7.133-10.06-21.683-27.8-28-35-0.968-.251-0.57-0.9-1,0-3.733,6.883-5.645,9.44-8,16-4.953,13.8-8.737,24.4-13,36-1.66,4.515-5.853,14.632-5,17,3.025,10.713,9.465,19.313,15,28,13.483,21.16,25.084,36.488,38,57,3.37,5.351,9.121,16.468,12,22a124.084,124.084,0,0,1,8,20c5.2,16.292,8.552,30.688,14,51,4.621,17.228,4.71,19.874,14,53,2.247,8.014,4.211,17.185,7,25,3.1,8.675,6.006,18.576,9,29-11.214,6-22.341,9.906-35,15-4.885,1.966-8.988,4.306-16,5-1.593-6.733-5.825-14.038-8-20-6.09-16.693-11.71-32.2-17-48-3.624-10.825-5.1-14.654-9-27-4.692-14.868-10.678-31.386-16-46-2.614-7.178-3.136-11.423-7-20-2.9-6.448-12.809-17.428-17-23-4.841-6.436-20.668-23.749-27-26a3.419,3.419,0,0,0,0,1,181.515,181.515,0,0,1-6,18c-4.8,11.743-10.548,25.242-15,37-1.438,4.377-3.57,11.732-5,17-7.333,0-12.409,1-22,1C438.636,675,418.648,675.112,410,675Z"/>
  <circle class="cls-2" cx="565" cy="251" r="43"/>
  <path id="Color_Fill_15" data-name="Color Fill 15" class="cls-3" d="M728,461c-9.12-9.313-14.123-14.609-22-18-19.172-61.083-38.869-78.57-58-95-8.051-6.914-23.15-15.731-33-20-5.889-2.552-6.049-2.416-14-6-0.878-1.3-.895-4.467-1-7a125.546,125.546,0,0,1,12.094-10.9C625.986,311.328,641.775,318.03,651,325,684.392,350.23,722.325,390.458,728,461Z"/>
  <path id="Color_Fill_12" data-name="Color Fill 12" class="cls-3" d="M561,801l-218,1V781l212-1v1h1C556.65,789.182,560.6,791.838,561,801Z"/>
  <path id="Color_Fill_11" data-name="Color Fill 11" class="cls-3" d="M286,435h21V725l228-1c1.778,7.041,5.28,12.431,6,21l-234,1c-1.151,76.681.649,157.688,23,212,6.28,15.261,14.976,28.753,23,42-8.666,0-17.334,2-27.412.69C316.558,983.317,312.611,976.8,309,965c-9.267-30.281-12.986-44.139-18-81q-1-14.5-2-29c-2.623-49.815-3-89.15-3-129V435Z"/>
  <path id="Color_Fill_10" data-name="Color Fill 10" class="cls-3" d="M229,435h21V712c0,85.337,3.053,151.429-34,203-22.039,30.674-61.519,41.53-103,53l-51,8c-11.439,3.187-23.577,7.182-33,13-9.64,5.952-12.116,10.851-29,11V983c16.712-7.939,30.457-19.557,50-26,14.258-4.7,29.478-3.1,45-7,37.647-9.452,80.78-17.067,101-44,34.024-45.321,33-107.313,33-187V435Z"/>
  <path id="Color_Fill_9" data-name="Color Fill 9" class="cls-3" d="M0,290H462v2c-0.667,0-10.129,5.209-16,9a80.2,80.2,0,0,1-19,10H0V290Z"/>
  <path id="Color_Fill_8" data-name="Color Fill 8" class="cls-3" d="M495,235a48.385,48.385,0,0,0,1,21H303c-27.849,0-71.563,3.971-95-2-53.4-13.6-96.312-33.537-136-60-20.538-13.694-34.969-25.462-56-43-6.269-5.227-13.6-9.607-16-15V106H1c9.6,14.167,30.024,31.458,44,42,13.84,10.439,22.235,18.441,33,26,39.338,27.624,85.178,47.068,139,60,11.669,2.261,15.917,2,29,2,19.665,0,40.335-1,60-1H495Z"/>
  <path id="Color_Fill_7" data-name="Color Fill 7" class="cls-3" d="M345,435h21V674c49.337,0.22,104.288-1,150-1,2.588,5.667,5.217,13.9,8,21-63.569,0-117.975.859-179,1V435Z"/>
  <path id="Color_Fill_6" data-name="Color Fill 6" class="cls-3" d="M725,512c2.432-4.735,4.34-7.365,4,2-1.016,9.976-1.87,15.95-4,23-4.585,15.174-8.9,30.149-15,44-8.375,19.019-31.1,51.709-47,63-5.687,4.038-8.14,5.908-11,8-1.549.936-5.971,4.807-7,4-2.19-7.748-4.574-15.413-6-21,21.247-11.241,44.032-45.007,54-68,3.112-7.178,7.3-20.351,10-32,1.666-1,4.333-4,6-5A115.962,115.962,0,0,0,725,512Z"/>
  <path id="Color_Fill_5" data-name="Color Fill 5" class="cls-3" d="M1000,1000H986c-4.062-17.385-12.429-35.639-17-54-5.162-20.731-7.391-36.084-10-62-0.667-10.666-1.469-19.976-2-32-0.826-14.657-1.517-17.933-3-32-2.9-27.536-6.613-54.675-19-75-20.735-34.024-58.966-47.337-97-64-12.085-5.294-24.217-11.643-41-17-8.243,14.383-14.915,22.333-23,32-18.648,22.3-38.588,38.2-62,55-9.852,7.071-19.953,15.527-33,21-0.985-7.908-4.6-12.14-5-21,38.312-22.04,79.748-56.148,103-93,17.569-27.845,27.473-58.839,38-94,8.738-29.188,15.132-70.783,10-108-2.945-21.357-7.662-43.018-14-60-10.618-28.449-23.872-50.566-40-74-5.012-7.282-10.978-13.419-17-21,5.732-3.733,10.326-8.426,17-13,0,0.333,1,.667,1,1,27.974,27.287,48.451,68.315,62,110,5.048,15.532,7.665,30.642,10,48,2.874,21.368,5.933,43.342,0,85-4.421,31.04-14.284,57.644-24,85-2.079,5.854-7.6,18.267-11,28,12.757,6.714,20.72,9.824,33,15,10.382,4.376,20.326,9.76,30,14,19.231,8.428,35.552,16.355,54,28,28.286,17.854,41.389,58.49,46,91,1.987,14.012,2,18.193,4,38,0,4,1,12,1,16,2.455,22.78,3.65,38.046,6,57,1.739,14.033,2.882,22.8,6,34C994.623,958.2,1003.11,972.753,1000,1000Z"/>
  <path id="Color_Fill_4" data-name="Color Fill 4" class="cls-3" d="M1000,0V15C937.137,39.46,880.9,67.893,845,119c-15.445,21.988-25.333,45.144-39,72-9.988,19.626-20.426,32.366-35,52a204.427,204.427,0,0,1-16,18c-14.369,14.446-25.544,25.265-43,40,0.631,1.754,3.193,3.971,4,5,1.614,2.4,1.985,2.584,5,6a330.483,330.483,0,0,1,22,28c16.684,23.65,26.84,39.937,38,72a224.949,224.949,0,0,1,9,40c3.465,21.56-2.254,66.759-5.093,79.463C780.783,549.919,779.755,553.475,777,563c-7.764,26.841-20.352,51.426-35,73a359.534,359.534,0,0,1-23,29c-12.783,14.686-23.684,24.648-38,35-6.037,4.365-11.475,8.756-20,13a161.508,161.508,0,0,0-5-21c15.122-10.28,35.838-26.578,46-39,4.911-6,11.478-13.574,16-20,23.575-33.5,37.774-63.391,47-110,4.42-22.332,5.613-50.221,4-72-0.863-11.606-7-28.335-10-40-12.849-30.781-30.356-55.368-50-79-6.351-7.64-20.635-22.206-28-32,5.593-4.578,10.49-8.609,16-13,13.9-11.079,50.761-44.757,74-80,15.259-23.142,19.417-31.22,32-57,4.307-8.825,14.084-29.61,21-38,23.112-28.041,46.95-53.341,78-73C928.06,22.5,958.43.164,1000,0Z"/>
  <path id="Color_Fill_3" data-name="Color Fill 3" class="cls-3" d="M779,0h21c1.458,61.289-22.489,132.239-46,170-7.516,12.072-16.857,23.551-26,34-9.752,11.144-16.447,19.45-26,29-3,3.333-17,14.667-20,18-11.133,9.305-9.076,7.119-20,16-5.182,4.212-8.919,6.082-16,11-5.85-1.54-6.891-1.972-13-4,0.3-7.889,1.2-17.417,0-23,0.333,0,4.193,1.295,6,2,2.722,0.8,3.1,2.081,5,0,9.709-6.8,11.01-6.973,21-15a326.1,326.1,0,0,0,28-25,154.469,154.469,0,0,0,14-15C745.643,146.9,777.321,88.057,779,0Z"/>
  <path id="Color_Fill_2" data-name="Color Fill 2" class="cls-3" d="M726,0h21c0.166,12.034-2.506,25.4-4,36-2.155,15.282-3.038,28.146-5.908,41.784C728.21,120,711.232,158.189,681,181c-13.119,9.9-24.15,16.782-49,31-4.582-1.849-4.859-2.207-9.962-4.071C617.11,202.266,613.567,197.987,609,194c-5.862-4.614-5.953-4.473-12-9v-3c16.205,2.741,24.347,4.5,36.98,6.984,6.776-3.517,7.729-3.653,13.02-6.984,8.9-5.6,27.7-16.67,34-25C714.256,113.037,720.562,71.847,726,0Z"/>
  <path id="Color_Fill_1" data-name="Color Fill 1" class="cls-3" d="M0,0H17c6.065,26.971,20.679,49.642,35,69A211.766,211.766,0,0,0,66,86c14.635,15.48,23.359,20.195,37,30,37.2,26.741,75.234,50.089,128,62l244-1h53c7.65,0,18.018-.968,24,1v2c-16.893-.033-24.26.658-34,10a23.61,23.61,0,0,0-7,9H228c-8.845-2.015-14.391-1.988-27-6a223.577,223.577,0,0,1-27-10C116.17,157.734,64.813,121.578,30,73,15.661,52.992-.061,34.3,0,0Z"/>
  <path id="This_Dallas_Life" data-name="This Dallas Life" class="cls-3" d="M1355.81,319.954h59.53q13.755,0,23.04,4.041a39.47,39.47,0,0,1,14.95,10.925,48.8,48.8,0,0,1,8.68,16.013,99.54,99.54,0,0,1,4.19,19.305l2.99,26.339h31.71l-2.99-107.152H1152.99l-3,107.152h31.71l3.3-26.339a106.618,106.618,0,0,1,4.03-19.305,45.387,45.387,0,0,1,8.68-16.013A40.963,40.963,0,0,1,1212.67,324q9.12-4.041,22.58-4.041h58.64V660.268q0,13.468-4.04,21.7a29.051,29.051,0,0,1-10.92,12.421,42.3,42.3,0,0,1-16.01,5.537,132.049,132.049,0,0,1-19.29,1.347h-14.06v25.741h190.56V701.273h-14.06a121.665,121.665,0,0,1-19.45-1.5,38.54,38.54,0,0,1-16-6.136,32.119,32.119,0,0,1-10.77-13.319q-4.035-8.679-4.04-23.047V319.954Zm343.71,381.319a132.049,132.049,0,0,1-19.29-1.347,42.242,42.242,0,0,1-16.01-5.537,28.986,28.986,0,0,1-10.92-12.421q-4.035-8.229-4.04-21.7v-129.3a172.7,172.7,0,0,1,4.49-40.856q4.485-18.408,13.61-31.427a61.82,61.82,0,0,1,23.04-20.054q13.9-7.029,33.05-7.034,18.555,0,31.41,5.538a49.558,49.558,0,0,1,20.79,16.312q7.935,10.774,11.52,26.339a158.933,158.933,0,0,1,3.59,35.618V727.014h106.5V701.273h-1.8a110.705,110.705,0,0,1-18.84-1.5,34.632,34.632,0,0,1-14.96-6.136,30.516,30.516,0,0,1-9.87-13.319q-3.585-8.679-3.59-23.047V512.41q0-31.428-7.18-54.175t-20.94-37.264a84.076,84.076,0,0,0-33.95-21.55q-20.2-7.029-46.22-7.034-62.535,0-90.05,55.671h-2.99q0.6-8.677,1.2-17.659,0.585-7.779.9-16.911,0.285-9.126.29-17.509V261.29H1536.48v25.74h4.79a132.288,132.288,0,0,1,19.3,1.347,39.438,39.438,0,0,1,16,5.837,31.116,31.116,0,0,1,10.92,12.72q4.035,8.236,4.04,21.7V657.275q0,14.367-4.04,23.047a32.119,32.119,0,0,1-10.77,13.319,38.474,38.474,0,0,1-15.85,6.136,121.041,121.041,0,0,1-19.6,1.5h-4.79v25.741h164.84V701.273h-1.8Zm241.1,0v25.741h174.11V701.273h-8.08a121.63,121.63,0,0,1-19.44-1.5,38.584,38.584,0,0,1-16.01-6.136,32.274,32.274,0,0,1-10.77-13.319q-4.035-8.679-4.03-23.047v-258.9H1946.91v25.741h1.79a119.506,119.506,0,0,1,19.3,1.5,41.15,41.15,0,0,1,16,5.986,31.112,31.112,0,0,1,10.92,12.721q4.035,8.235,4.04,21.7V660.268q0,13.468-4.04,21.7A28.986,28.986,0,0,1,1984,694.389a42.253,42.253,0,0,1-16,5.537,132.288,132.288,0,0,1-19.3,1.347h-8.08Zm52.36-384.312a30.168,30.168,0,0,0,7.47,11.673,28.1,28.1,0,0,0,11.07,6.435,46.268,46.268,0,0,0,13.76,1.946,45.223,45.223,0,0,0,13.47-1.946,26.9,26.9,0,0,0,10.91-6.435,32.671,32.671,0,0,0,7.48-11.673q2.85-7.183,2.84-17.958t-2.84-17.959a32.671,32.671,0,0,0-7.48-11.673,25.553,25.553,0,0,0-10.91-6.285,48.839,48.839,0,0,0-13.47-1.8,49.974,49.974,0,0,0-13.76,1.8,26.663,26.663,0,0,0-11.07,6.285,30.168,30.168,0,0,0-7.47,11.673q-2.7,7.184-2.7,17.959T1992.98,316.961ZM2312.9,727.014q22.29-5.985,38.15-18.109a82.733,82.733,0,0,0,24.53-30.08q8.67-17.958,8.67-41.9,0-19.152-5.38-33.822a75.061,75.061,0,0,0-16.61-26.339q-11.205-11.673-28.56-21.55a390.568,390.568,0,0,0-41.59-20.054q-20.34-8.376-34.85-15.115t-23.63-13.918q-9.135-7.184-13.31-15.714-4.2-8.529-4.19-20.2a56.874,56.874,0,0,1,3.29-19.754,39.762,39.762,0,0,1,10.32-15.564,47.435,47.435,0,0,1,18.1-10.177q11.055-3.591,26.62-3.591,27.225,0,39.94,17.06t12.71,47.889q21.24,0,32.76-10.026t11.52-26.789a44.37,44.37,0,0,0-5.69-21.7,51.962,51.962,0,0,0-17.05-17.959q-11.37-7.632-28.12-12.122t-38.59-4.489q-26.025,0-47.26,5.686-21.255,5.689-36.5,16.612a74.569,74.569,0,0,0-23.48,27.087q-8.235,16.164-8.23,37.115,0,20.055,5.68,34.57a74.838,74.838,0,0,0,17.06,25.89q11.355,11.379,28.86,21.1t41.14,20.2q22.125,9.583,36.79,17.061t23.19,14.666q8.52,7.183,11.96,15.415a50.756,50.756,0,0,1,3.44,19.6,56.1,56.1,0,0,1-4.48,22.6,48.522,48.522,0,0,1-13.02,17.659A60.008,60.008,0,0,1,2296,699.627q-12.555,4.041-29.02,4.041-18.54,0-31.26-6.136a53.863,53.863,0,0,1-20.49-16.761,67.174,67.174,0,0,1-11.07-24.693,132.709,132.709,0,0,1-3.29-30.231,44.072,44.072,0,0,0-12.11,1.946,35.142,35.142,0,0,0-12.57,6.734,38.374,38.374,0,0,0-9.87,13.02q-4.035,8.236-4.04,20.5,0,16.163,7.18,28.285a60.192,60.192,0,0,0,20.34,20.353q13.17,8.235,31.86,12.271A198.163,198.163,0,0,0,2263.4,733Q2290.61,733,2312.9,727.014Zm678.9-312.179q-13.455-40.7-39.04-68.542t-62.67-42.352q-37.1-14.514-84.36-14.516H2618.16v25.74h7.78a132.288,132.288,0,0,1,19.3,1.347,39.438,39.438,0,0,1,16,5.837,31.116,31.116,0,0,1,10.92,12.72q4.035,8.236,4.04,21.7V657.275q0,14.367-3.89,23.047a30.793,30.793,0,0,1-10.77,13.319,39.7,39.7,0,0,1-16,6.136,121.041,121.041,0,0,1-19.6,1.5h-7.78v25.741h187.57q49.95,0,87.35-15.415t62.23-44q24.825-28.579,37.39-69.14t12.56-90.84Q3005.26,455.541,2991.8,414.835ZM2738.12,695.886V319.954h53.85q72.69,0,109.04,48.189t36.35,139.478q0,45.5-9.13,80.514T2900.86,647.1a117.572,117.572,0,0,1-45.62,36.366q-27.375,12.424-63.87,12.422h-53.25Zm409.08-89.494a52.558,52.558,0,0,1,15.4-23.2q10.77-9.428,28.27-14.666t43.53-6.435l39.19-1.8v49.685a104.1,104.1,0,0,1-5.69,35.319,74.709,74.709,0,0,1-16.3,26.937,71.7,71.7,0,0,1-25.73,17.061,90.568,90.568,0,0,1-33.65,5.986q-25.425,0-37.54-14.217t-12.12-42.951Q3142.56,620.161,3147.2,606.392Zm99.61-177.938a40.276,40.276,0,0,1,17.21,15.564,61.675,61.675,0,0,1,7.77,23.944,237.72,237.72,0,0,1,1.8,30.38v36.815l-50.86,1.8q-70.3,2.1-105,25.74t-34.7,72.433q0,25.141,7.18,43.549t19.89,30.53a79.7,79.7,0,0,0,30.22,17.958A118.825,118.825,0,0,0,3178.16,733q19.14,0,32.76-4.34a85.672,85.672,0,0,0,24.38-12.122,107.9,107.9,0,0,0,19.74-18.557q8.97-10.776,18.55-23.646h5.08l9.58,52.679h82.86V701.273h-1.79a64.069,64.069,0,0,1-17.5-2.1A24.13,24.13,0,0,1,3340,692a31.512,31.512,0,0,1-6.58-13.469q-2.1-8.376-2.1-21.251V498.342q0-29.329-7.03-49.535t-21.09-32.775q-14.055-12.57-35-18.108t-49.06-5.537a264.2,264.2,0,0,0-42.78,3.292q-20.04,3.3-35.15,10.326t-23.78,18.109q-8.67,11.076-8.67,26.937,0,21.257,13.31,29.931t38.74,8.68a159.285,159.285,0,0,1,2.09-26.638,53,53,0,0,1,8.23-21.251,40.027,40.027,0,0,1,17.05-13.918q10.92-4.938,28.57-4.939Q3235.59,422.916,3246.81,428.454Zm170.96,272.819v25.741h173.8V701.273h-7.78a120.826,120.826,0,0,1-19.59-1.5,39.583,39.583,0,0,1-16-6.136,30.653,30.653,0,0,1-10.77-13.319q-3.9-8.679-3.89-23.047V261.29H3417.77v25.74h7.77a132.288,132.288,0,0,1,19.3,1.347,39.438,39.438,0,0,1,16,5.837,31.116,31.116,0,0,1,10.92,12.72q4.05,8.236,4.04,21.7V657.275q0,14.367-4.04,23.047a32.119,32.119,0,0,1-10.77,13.319,38.42,38.42,0,0,1-15.85,6.136,121.041,121.041,0,0,1-19.6,1.5h-7.77Zm202.21,0v25.741h173.81V701.273h-7.78a121.041,121.041,0,0,1-19.6-1.5,39.7,39.7,0,0,1-16-6.136,30.653,30.653,0,0,1-10.77-13.319q-3.885-8.679-3.89-23.047V261.29H3619.98v25.74h7.78a132.049,132.049,0,0,1,19.29,1.347,39.483,39.483,0,0,1,16.01,5.837,31.264,31.264,0,0,1,10.92,12.72q4.035,8.236,4.04,21.7V657.275q0,14.367-4.04,23.047a32.274,32.274,0,0,1-10.77,13.319,38.518,38.518,0,0,1-15.86,6.136,120.826,120.826,0,0,1-19.59,1.5h-7.78Zm288.82-94.881a52.558,52.558,0,0,1,15.4-23.2q10.77-9.428,28.27-14.666T3996,562.1l39.19-1.8v49.685a104.1,104.1,0,0,1-5.69,35.319,74.709,74.709,0,0,1-16.3,26.937,71.7,71.7,0,0,1-25.73,17.061,90.568,90.568,0,0,1-33.65,5.986q-25.425,0-37.54-14.217t-12.12-42.951Q3904.16,620.161,3908.8,606.392Zm99.61-177.938a40.276,40.276,0,0,1,17.21,15.564,61.675,61.675,0,0,1,7.77,23.944,237.72,237.72,0,0,1,1.8,30.38v36.815l-50.86,1.8q-70.3,2.1-105,25.74t-34.7,72.433q0,25.141,7.18,43.549t19.89,30.53a79.7,79.7,0,0,0,30.22,17.958A118.825,118.825,0,0,0,3939.76,733q19.14,0,32.76-4.34a85.672,85.672,0,0,0,24.38-12.122,107.9,107.9,0,0,0,19.74-18.557q8.97-10.776,18.55-23.646h5.08l9.58,52.679h82.86V701.273h-1.79a64.069,64.069,0,0,1-17.5-2.1A24.13,24.13,0,0,1,4101.6,692a31.512,31.512,0,0,1-6.58-13.469q-2.1-8.376-2.1-21.251V498.342q0-29.329-7.03-49.535t-21.09-32.775q-14.055-12.57-35-18.108t-49.06-5.537a264.2,264.2,0,0,0-42.78,3.292q-20.04,3.3-35.15,10.326t-23.78,18.109q-8.67,11.076-8.67,26.937,0,21.257,13.31,29.931t38.74,8.68a159.285,159.285,0,0,1,2.09-26.638,53,53,0,0,1,8.23-21.251,40.027,40.027,0,0,1,17.05-13.918q10.92-4.938,28.57-4.939Q3997.19,422.916,4008.41,428.454Zm341.02,298.56q22.29-5.985,38.14-18.109a82.658,82.658,0,0,0,24.54-30.08q8.67-17.958,8.67-41.9,0-19.152-5.38-33.822a75.061,75.061,0,0,0-16.61-26.339q-11.22-11.673-28.57-21.55a389.39,389.39,0,0,0-41.58-20.054q-20.34-8.376-34.85-15.115t-23.63-13.918q-9.135-7.184-13.31-15.714-4.2-8.529-4.19-20.2a56.874,56.874,0,0,1,3.29-19.754,39.762,39.762,0,0,1,10.32-15.564,47.435,47.435,0,0,1,18.1-10.177q11.055-3.591,26.62-3.591,27.225,0,39.94,17.06t12.71,47.889q21.24,0,32.76-10.026t11.52-26.789a44.37,44.37,0,0,0-5.69-21.7,51.962,51.962,0,0,0-17.05-17.959q-11.37-7.632-28.12-12.122t-38.59-4.489q-26.025,0-47.26,5.686-21.255,5.689-36.5,16.612a74.569,74.569,0,0,0-23.48,27.087Q4203,458.535,4203,479.486q0,20.055,5.68,34.57a74.952,74.952,0,0,0,17.05,25.89q11.37,11.379,28.87,21.1t41.14,20.2q22.125,9.583,36.79,17.061t23.19,14.666q8.52,7.183,11.96,15.415a50.756,50.756,0,0,1,3.44,19.6,55.939,55.939,0,0,1-4.49,22.6,48.382,48.382,0,0,1-13.01,17.659,60.008,60.008,0,0,1-21.09,11.374q-12.555,4.041-29.02,4.041-18.54,0-31.26-6.136a53.787,53.787,0,0,1-20.49-16.761,67.012,67.012,0,0,1-11.07-24.693,132.709,132.709,0,0,1-3.29-30.231,44.072,44.072,0,0,0-12.11,1.946,35.142,35.142,0,0,0-12.57,6.734,38.374,38.374,0,0,0-9.87,13.02q-4.035,8.236-4.04,20.5,0,16.163,7.18,28.285a60.1,60.1,0,0,0,20.34,20.353q13.17,8.235,31.86,12.271A198,198,0,0,0,4299.92,733Q4327.145,733,4349.43,727.014Zm633.73,0,4.19-131.7h-32.01l-5.99,45.794a94.226,94.226,0,0,1-4.63,19.755,60.578,60.578,0,0,1-9.73,17.808,47.432,47.432,0,0,1-16,12.871q-9.72,4.938-23.48,4.938H4774.65V356.769q0-13.468,4.04-21.7a31.116,31.116,0,0,1,10.92-12.72,39.384,39.384,0,0,1,16-5.837,132.189,132.189,0,0,1,19.3-1.347h8.08v-25.74h-178.3v25.74h7.78a121.275,121.275,0,0,1,19.59,1.5,39.856,39.856,0,0,1,16.01,6.136,30.84,30.84,0,0,1,10.77,13.319q3.885,8.685,3.89,23.047V657.275q0,14.367-3.89,23.047a30.793,30.793,0,0,1-10.77,13.319,39.74,39.74,0,0,1-16.01,6.136,120.826,120.826,0,0,1-19.59,1.5h-7.78v25.741h328.47Zm56.23-25.741v25.741h174.1V701.273h-8.07a121.665,121.665,0,0,1-19.45-1.5,38.54,38.54,0,0,1-16-6.136,32.119,32.119,0,0,1-10.77-13.319q-4.05-8.679-4.04-23.047v-258.9H5045.67v25.741h1.79a119.506,119.506,0,0,1,19.3,1.5,41.15,41.15,0,0,1,16,5.986,31.112,31.112,0,0,1,10.92,12.721q4.035,8.235,4.04,21.7V660.268q0,13.468-4.04,21.7a28.986,28.986,0,0,1-10.92,12.421,42.253,42.253,0,0,1-16,5.537,132.288,132.288,0,0,1-19.3,1.347h-8.07Zm52.35-384.312a30.071,30.071,0,0,0,7.48,11.673,28.034,28.034,0,0,0,11.07,6.435,46.174,46.174,0,0,0,13.76,1.946,45.2,45.2,0,0,0,13.46-1.946,26.937,26.937,0,0,0,10.92-6.435,32.806,32.806,0,0,0,7.48-11.673q2.835-7.183,2.84-17.958t-2.84-17.959a32.806,32.806,0,0,0-7.48-11.673,25.588,25.588,0,0,0-10.92-6.285,48.818,48.818,0,0,0-13.46-1.8,49.872,49.872,0,0,0-13.76,1.8,26.6,26.6,0,0,0-11.07,6.285,30.071,30.071,0,0,0-7.48,11.673q-2.7,7.184-2.69,17.959T5091.74,316.961ZM5416,701.273a121.63,121.63,0,0,1-19.44-1.5,38.638,38.638,0,0,1-16.01-6.136,32.178,32.178,0,0,1-10.76-13.319q-4.05-8.679-4.04-23.047V427.406h86.45V398.373h-86.45V362.157a229.107,229.107,0,0,1,2.24-34.121q2.25-14.662,7.63-24.693a37.23,37.23,0,0,1,14.21-15.115q8.82-5.087,21.99-5.089,11.655,0,19.44,4.191a34.412,34.412,0,0,1,12.42,11.074,45.384,45.384,0,0,1,6.58,15.714,84.373,84.373,0,0,1,1.94,18.108,84.476,84.476,0,0,0,20.19-2.245,51.857,51.857,0,0,0,15.86-6.585,31.726,31.726,0,0,0,10.47-10.775,28.966,28.966,0,0,0,3.74-14.815,34.151,34.151,0,0,0-4.49-17.36q-4.485-7.781-14.51-13.469t-26.47-8.83Q5440.535,255,5416.6,255q-25.125,0-45.17,7.333a90.46,90.46,0,0,0-34.1,21.7q-14.07,14.367-21.54,35.319t-7.48,48.488v30.529h-55.94v29.033h55.94V657.275q0,14.367-4.04,23.047a32.119,32.119,0,0,1-10.77,13.319,38.42,38.42,0,0,1-15.85,6.136,121.041,121.041,0,0,1-19.6,1.5h-8.07v25.741h189.36V701.273H5416Zm255.62-268.18a57.313,57.313,0,0,1,20.49,22.149q7.77,14.367,11.37,34.42a252.49,252.49,0,0,1,3.59,44.3h-140.9q3.285-53.273,21.68-80.963t52.51-27.686Q5658.9,425.311,5671.62,433.093Zm23.63,293.921q20.19-5.985,33.65-14.966t20.05-19.6q6.57-10.621,6.58-19.9a23.983,23.983,0,0,0-3.74-13.469q-3.75-5.682-7.93-7.483a78.928,78.928,0,0,1-13.91,16.013,101.919,101.919,0,0,1-19.59,13.618,111.39,111.39,0,0,1-24.68,9.578,115.244,115.244,0,0,1-29.47,3.592q-21.84,0-38.59-7.333a69.457,69.457,0,0,1-28.27-22.9q-11.52-15.56-17.65-39.658t-6.73-57.617h204.02V538.749q0-36.212-8.83-63.6t-25.27-45.794a103.9,103.9,0,0,0-40.09-27.687q-23.64-9.273-53.25-9.278-65.22,0-100.51,43.4-35.31,43.4-35.3,129.3,0,39.81,9.72,71.086T5543.43,689a118.119,118.119,0,0,0,44.72,32.775Q5614.625,733,5647.83,733,5675.055,733,5695.25,727.014Z"/>
</svg>
