<svg xmlns="http://www.w3.org/2000/svg" xmlns:xlink="http://www.w3.org/1999/xlink" width="8382" height="1002" viewBox="0 0 8382 1002">
  <defs>
    <style>
      .cls-1 {
        filter: url(#filter);
      }

      .cls-2, .cls-3 {
        fill: #cc0035;
      }

      .cls-2, .cls-4, .cls-5 {
        fill-rule: evenodd;
      }

      .cls-4, .cls-5 {
        fill: #0b2b8c;
      }

      .cls-5 {
        filter: url(#filter-3);
      }
    </style>
    <filter id="filter" filterUnits="userSpaceOnUse">
      <feFlood result="flood" flood-color="#fff"/>
      <feComposite result="composite" operator="in" in2="SourceGraphic"/>
      <feBlend result="blend" in2="SourceGraphic"/>
    </filter>
    <filter id="filter-3" x="1327.47" y="125" width="6853.31" height="708.844" filterUnits="userSpaceOnUse">
      <feFlood result="flood" flood-color="#fff"/>
      <feComposite result="composite" operator="in" in2="SourceGraphic"/>
      <feBlend result="blend" in2="SourceGraphic"/>
    </filter>
  </defs>
  <g id="Person" class="cls-1">
    <path id="Color_Fill_13" data-name="Color Fill 13" class="cls-2" d="M410,675c0-14.433,4.859-30.105,8-42,1.517-5.744,2.092-9.281,4-15,6.754-20.25,11.834-44.647,18-65-1.116-8.9-2.109-16.163-3-22-1.555-15.111-2.879-30.759-2.843-39.834C434.209,478.225,435.5,466.721,437,454c1.226-10.409,3.294-24.165,6-34,0-2.666,2-5.334,2-8,1.583-5.143,4.374-11.6,5-18h-1v-1c-10.846,1.16-23.648,4.532-32,7-1.511,7.322-2.784,12.819-4,21-3.078,20.707-5.176,33.144-9,59-2.3,15.8-2.9,23.379-5,38,0.144,0.3-1.008,4.667-1,5-9.778.867-15.83,1.209-26,2-1.165-29.992-1.973-68.416-3-103,0.092-17.911-.033-30.064,0-40,8.76-6.121,28.314-15.836,45-26,33.037-20,62.81-39.363,97-53,16.054-6.4,36.193-1.437,47,6,8.451,5.816,11.4,14.774,16,26,7.138,16.652,10.514,25.541,17,43,3.2,8.61,5.384,16.227,10,23,12.072,14.231,23.548,22.954,33,31.192C651.887,444.06,653.138,444.35,672,457c17.327,11.62,24.72,16.363,39,26-7.939,10.9-9.715,12.973-19,24-16.918-5.131-16.693-4.9-33-10-17.107-5.354-31.222-9.969-48-16-7.735-3.107-9.737-3.969-20-9-7.133-10.06-21.683-27.8-28-35-0.968-.251-0.57-0.9-1,0-3.733,6.883-5.645,9.44-8,16-4.953,13.8-8.737,24.4-13,36-1.659,4.515-5.853,14.632-5,17,3.026,10.713,9.465,19.313,15,28,13.483,21.16,25.084,36.488,38,57,3.37,5.351,9.121,16.468,12,22a124.084,124.084,0,0,1,8,20c5.2,16.292,8.552,30.688,14,51,4.621,17.228,4.71,19.874,14,53,2.247,8.014,4.212,17.185,7,25,3.1,8.675,6.007,18.576,9,29-11.214,6-22.341,9.906-35,15-4.885,1.966-8.987,4.306-16,5-1.593-6.733-5.825-14.038-8-20-6.09-16.693-11.71-32.2-17-48-3.624-10.825-5.1-14.654-9-27-4.691-14.868-10.678-31.386-16-46-2.614-7.178-3.136-11.423-7-20-2.9-6.448-12.808-17.427-17-23-4.841-6.436-20.668-23.748-27-26a3.419,3.419,0,0,0,0,1,181.515,181.515,0,0,1-6,18c-4.8,11.743-10.548,25.242-15,37-1.438,4.377-3.57,11.732-5,17-7.333,0-12.409,1-22,1C438.636,675,418.648,675.112,410,675Z"/>
    <circle class="cls-3" cx="565" cy="251" r="43"/>
  </g>
  <g id="Lines" class="cls-1">
    <path id="Color_Fill_15" data-name="Color Fill 15" class="cls-4" d="M728,461c-9.12-9.313-14.123-14.609-22-18-19.172-61.083-38.869-78.57-58-95-8.051-6.914-23.15-15.731-33-20-5.889-2.552-6.049-2.416-14-6-0.877-1.3-.894-4.467-1-7a125.667,125.667,0,0,1,12.094-10.9C625.986,311.328,641.776,318.03,651,325,684.392,350.231,722.325,390.458,728,461Z"/>
    <path id="Color_Fill_12" data-name="Color Fill 12" class="cls-4" d="M561,801l-218,1V781l212-1v1h1C556.65,789.182,560.6,791.838,561,801Z"/>
    <path id="Color_Fill_11" data-name="Color Fill 11" class="cls-4" d="M286,435h21V725l228-1c1.778,7.041,5.28,12.431,6,21l-234,1c-1.151,76.681.649,157.688,23,212,6.28,15.261,14.976,28.753,23,42-8.666,0-17.334,2-27.412.69C316.558,983.318,312.611,976.8,309,965c-9.267-30.281-12.986-44.139-18-81q-1-14.5-2-29c-2.623-49.815-3-89.15-3-129V435Z"/>
    <path id="Color_Fill_10" data-name="Color Fill 10" class="cls-4" d="M229,435h21V712c0,85.337,3.053,151.429-34,203-22.039,30.674-61.519,41.53-103,53l-51,8c-11.44,3.187-23.577,7.182-33,13-9.64,5.952-12.116,10.851-29,11V983c16.713-7.939,30.458-19.557,50-26,14.258-4.7,29.478-3.1,45-7,37.648-9.452,80.78-17.067,101-44,34.025-45.321,33-107.313,33-187V435Z"/>
    <path id="Color_Fill_9" data-name="Color Fill 9" class="cls-4" d="M0,290H462v2c-0.667,0-10.129,5.209-16,9a80.2,80.2,0,0,1-19,10H0V290Z"/>
    <path id="Color_Fill_8" data-name="Color Fill 8" class="cls-4" d="M495,235a48.385,48.385,0,0,0,1,21H303c-27.848,0-71.563,3.971-95-2-53.4-13.6-96.312-33.537-136-60-20.538-13.694-34.969-25.462-56-43-6.268-5.227-13.6-9.607-16-15V106H1c9.6,14.167,30.024,31.458,44,42,13.84,10.439,22.235,18.441,33,26,39.338,27.624,85.178,47.068,139,60,11.67,2.261,15.917,2,29,2,19.665,0,40.335-1,60-1H495Z"/>
    <path id="Color_Fill_7" data-name="Color Fill 7" class="cls-4" d="M345,435h21V674c49.337,0.22,104.288-1,150-1,2.588,5.667,5.217,13.9,8,21-63.569,0-117.974.859-179,1V435Z"/>
    <path id="Color_Fill_6" data-name="Color Fill 6" class="cls-4" d="M725,512c2.433-4.735,4.34-7.365,4,2-1.016,9.976-1.87,15.95-4,23-4.585,15.174-8.9,30.149-15,44-8.375,19.019-31.1,51.709-47,63-5.686,4.038-8.14,5.908-11,8-1.549.936-5.971,4.807-7,4-2.19-7.748-4.574-15.413-6-21,21.247-11.241,44.032-45.007,54-68,3.112-7.178,7.3-20.351,10-32,1.667-1,4.333-4,6-5A115.962,115.962,0,0,0,725,512Z"/>
    <path id="Color_Fill_5" data-name="Color Fill 5" class="cls-4" d="M1000,1000H986c-4.062-17.384-12.429-35.639-17-54-5.162-20.731-7.391-36.084-10-62-0.667-10.666-1.469-19.976-2-32-0.826-14.657-1.517-17.933-3-32-2.9-27.536-6.613-54.675-19-75-20.735-34.024-58.966-47.337-97-64-12.084-5.294-24.216-11.643-41-17-8.243,14.383-14.915,22.333-23,32-18.648,22.3-38.588,38.2-62,55-9.852,7.071-19.953,15.527-33,21-0.984-7.908-4.6-12.14-5-21,38.312-22.04,79.748-56.148,103-93,17.569-27.845,27.473-58.839,38-94,8.739-29.188,15.132-70.783,10-108-2.945-21.357-7.662-43.018-14-60-10.618-28.449-23.872-50.566-40-74-5.012-7.282-10.978-13.419-17-21,5.732-3.733,10.327-8.426,17-13,0,0.333,1,.667,1,1,27.974,27.287,48.452,68.315,62,110,5.048,15.532,7.665,30.642,10,48,2.874,21.368,5.933,43.342,0,85-4.421,31.04-14.284,57.644-24,85-2.079,5.854-7.6,18.267-11,28,12.757,6.714,20.72,9.824,33,15,10.382,4.376,20.326,9.76,30,14,19.231,8.428,35.552,16.355,54,28,28.286,17.854,41.389,58.49,46,91,1.987,14.012,2,18.193,4,38,0,4,1,12,1,16,2.455,22.78,3.65,38.046,6,57,1.74,14.033,2.882,22.8,6,34C994.623,958.2,1003.11,972.753,1000,1000Z"/>
    <path id="Color_Fill_4" data-name="Color Fill 4" class="cls-4" d="M1000,0V15C937.137,39.46,880.9,67.893,845,119c-15.445,21.988-25.333,45.144-39,72-9.988,19.626-20.426,32.366-35,52a204.266,204.266,0,0,1-16,18c-14.369,14.446-25.544,25.265-43,40,0.631,1.754,3.193,3.971,4,5,1.614,2.4,1.985,2.584,5,6a330.28,330.28,0,0,1,22,28c16.684,23.65,26.84,39.937,38,72a224.949,224.949,0,0,1,9,40c3.465,21.56-2.254,66.759-5.093,79.463C780.783,549.919,779.755,553.475,777,563c-7.764,26.841-20.352,51.426-35,73a359.307,359.307,0,0,1-23,29c-12.783,14.686-23.684,24.648-38,35-6.036,4.365-11.475,8.756-20,13a161.508,161.508,0,0,0-5-21c15.122-10.28,35.838-26.578,46-39,4.911-6,11.478-13.574,16-20,23.575-33.5,37.774-63.391,47-110,4.421-22.332,5.613-50.221,4-72-0.862-11.606-7-28.334-10-40-12.849-30.781-30.356-55.368-50-79-6.351-7.64-20.635-22.206-28-32,5.593-4.578,10.49-8.609,16-13,13.9-11.079,50.761-44.757,74-80,15.26-23.142,19.417-31.22,32-57,4.307-8.825,14.084-29.61,21-38,23.112-28.041,46.95-53.341,78-73C928.06,22.5,958.43.164,1000,0Z"/>
    <path id="Color_Fill_3" data-name="Color Fill 3" class="cls-4" d="M779,0h21c1.458,61.289-22.489,132.239-46,170-7.516,12.072-16.857,23.551-26,34-9.751,11.144-16.446,19.45-26,29-3,3.333-17,14.667-20,18-11.133,9.305-9.076,7.119-20,16-5.182,4.212-8.919,6.082-16,11-5.85-1.54-6.891-1.972-13-4,0.3-7.889,1.2-17.417,0-23,0.333,0,4.193,1.295,6,2,2.722,0.8,3.1,2.082,5,0,9.709-6.8,11.01-6.973,21-15a325.794,325.794,0,0,0,28-25,154.345,154.345,0,0,0,14-15C745.643,146.9,777.322,88.057,779,0Z"/>
    <path id="Color_Fill_2" data-name="Color Fill 2" class="cls-4" d="M726,0h21c0.166,12.034-2.506,25.4-4,36-2.155,15.282-3.038,28.146-5.907,41.784C728.21,120,711.232,158.189,681,181c-13.118,9.9-24.149,16.782-49,31-4.582-1.849-4.858-2.207-9.962-4.071C617.11,202.266,613.567,197.987,609,194c-5.862-4.614-5.953-4.473-12-9v-3c16.206,2.741,24.347,4.5,36.98,6.984,6.776-3.517,7.729-3.653,13.02-6.984,8.9-5.6,27.7-16.67,34-25C714.256,113.037,720.562,71.847,726,0Z"/>
    <path id="Color_Fill_1" data-name="Color Fill 1" class="cls-4" d="M0,0H17c6.065,26.971,20.679,49.642,35,69A211.785,211.785,0,0,0,66,86c14.635,15.48,23.359,20.195,37,30,37.2,26.741,75.234,50.089,128,62l244-1h53c7.651,0,18.019-.968,24,1v2c-16.893-.033-24.26.658-34,10a23.61,23.61,0,0,0-7,9H228c-8.845-2.015-14.391-1.988-27-6a223.577,223.577,0,0,1-27-10C116.17,157.734,64.813,121.578,30,73,15.661,52.992-.061,34.3,0,0Z"/>
  </g>
  <path id="This_Dallas_Life" data-name="This Dallas Life" class="cls-5" d="M1632.83,221.323h88.33q20.415,0,34.18,5.992a58.442,58.442,0,0,1,22.19,16.2,72.277,72.277,0,0,1,12.87,23.746,147.237,147.237,0,0,1,6.22,28.629l4.43,39.059h47.05l-4.44-158.9H1331.9l-4.44,158.9h47.05l4.88-39.059a158.229,158.229,0,0,1,5.99-28.629,67.189,67.189,0,0,1,12.88-23.746,60.783,60.783,0,0,1,22.19-16.2q13.53-5.993,33.51-5.992h87V725.987q0,19.973-6,32.179t-16.2,18.42a62.74,62.74,0,0,1-23.74,8.212,196.434,196.434,0,0,1-28.63,2h-20.86v38.171h282.73V786.8H1707.4a180.517,180.517,0,0,1-28.85-2.219,57.309,57.309,0,0,1-23.75-9.1q-9.975-6.877-15.97-19.752t-6-34.177V221.323ZM2142.81,786.8a196.135,196.135,0,0,1-28.63-2,62.668,62.668,0,0,1-23.75-8.212q-10.215-6.21-16.2-18.42t-5.99-32.179V534.241q0-33.289,6.66-60.586,6.645-27.3,20.19-46.6a91.749,91.749,0,0,1,34.18-29.738q20.64-10.423,49.04-10.431,27.525,0,46.61,8.212a73.7,73.7,0,0,1,30.85,24.19q11.745,15.978,17.09,39.059,5.325,23.084,5.32,52.819V824.966h158.01V786.8h-2.66a164.342,164.342,0,0,1-27.96-2.219,51.338,51.338,0,0,1-22.19-9.1q-9.33-6.877-14.65-19.752t-5.33-34.177V506.722q0-46.605-10.65-80.338t-31.07-55.26q-20.415-21.524-50.38-31.957t-68.57-10.431q-92.775,0-133.6,82.557h-4.44q0.885-12.869,1.77-26.187,0.885-11.536,1.33-25.078t0.45-25.966V134.327H1900.9V172.5h7.11a196.434,196.434,0,0,1,28.63,2,58.537,58.537,0,0,1,23.74,8.656,46.2,46.2,0,0,1,16.2,18.863q6,12.213,5.99,32.18V721.548q0,21.306-5.99,34.177t-15.98,19.752a57.052,57.052,0,0,1-23.52,9.1,179.429,179.429,0,0,1-29.07,2.219h-7.11v38.171h244.57V786.8h-2.66Zm357.73,0v38.171h258.32V786.8h-11.98a180.553,180.553,0,0,1-28.86-2.219,57.265,57.265,0,0,1-23.74-9.1q-9.99-6.877-15.98-19.752t-5.99-34.177V337.613H2509.86v38.172h2.66A177.276,177.276,0,0,1,2541.15,378a61.081,61.081,0,0,1,23.74,8.877,46.233,46.233,0,0,1,16.21,18.864q5.985,12.213,5.99,32.18V725.987q0,19.973-5.99,32.179t-16.21,18.42a62.74,62.74,0,0,1-23.74,8.212,196.334,196.334,0,0,1-28.63,2h-11.98Zm77.67-569.91a44.74,44.74,0,0,0,11.1,17.31,41.724,41.724,0,0,0,16.42,9.543,68.62,68.62,0,0,0,20.42,2.885,67.021,67.021,0,0,0,19.97-2.885,39.958,39.958,0,0,0,16.2-9.543,48.737,48.737,0,0,0,11.1-17.31q4.215-10.653,4.21-26.632t-4.21-26.631a48.72,48.72,0,0,0-11.1-17.31,37.941,37.941,0,0,0-16.2-9.321,72.352,72.352,0,0,0-19.97-2.664,74.087,74.087,0,0,0-20.42,2.664,39.566,39.566,0,0,0-16.42,9.321,44.725,44.725,0,0,0-11.1,17.31q-3.99,10.653-3.99,26.631T2578.21,216.885ZM3052.9,824.966q33.06-8.872,56.59-26.853a122.459,122.459,0,0,0,36.39-44.607q12.87-26.631,12.88-62.14,0-28.4-7.99-50.156a111.314,111.314,0,0,0-24.64-39.059q-16.635-17.31-42.39-31.958-25.74-14.646-61.69-29.738-30.2-12.42-51.71-22.415-21.54-9.986-35.07-20.639-13.545-10.653-19.75-23.3t-6.21-29.96a84.4,84.4,0,0,1,4.88-29.3,59.059,59.059,0,0,1,15.31-23.08q10.425-9.759,26.86-15.092,16.41-5.325,39.5-5.326,40.38,0,59.26,25.3,18.855,25.3,18.86,71.017,31.515,0,48.6-14.869t17.09-39.725a65.9,65.9,0,0,0-8.43-32.18q-8.445-15.313-25.3-26.631-16.875-11.319-41.73-17.976t-57.25-6.658q-38.625,0-70.13,8.433-31.53,8.438-54.15,24.634a110.715,110.715,0,0,0-34.85,40.169q-12.21,23.968-12.2,55.038,0,29.742,8.43,51.265a111.06,111.06,0,0,0,25.3,38.394q16.86,16.874,42.83,31.292t61.03,29.96q32.85,14.21,54.6,25.3,21.735,11.1,34.4,21.749,12.645,10.651,17.75,22.858t5.11,29.073a83.1,83.1,0,0,1-6.66,33.511,71.953,71.953,0,0,1-19.31,26.187q-12.645,10.881-31.29,16.867t-43.06,5.992q-27.525,0-46.38-9.1a79.834,79.834,0,0,1-30.4-24.856,99.528,99.528,0,0,1-16.43-36.618,196.1,196.1,0,0,1-4.88-44.83,65.521,65.521,0,0,0-17.97,2.885,52.141,52.141,0,0,0-18.65,9.987q-8.655,7.105-14.64,19.308t-6,30.4q0,23.968,10.66,41.944t30.18,30.182q19.53,12.213,47.27,18.2t61.92,5.992Q3019.82,833.844,3052.9,824.966ZM4060.19,362.025q-19.98-60.357-57.92-101.643t-92.99-62.805q-55.05-21.523-125.17-21.527h-278.3v38.171h11.55a196.151,196.151,0,0,1,28.62,2,58.512,58.512,0,0,1,23.75,8.655,46.212,46.212,0,0,1,16.2,18.864q6,12.213,5.99,32.179V721.548q0,21.306-5.77,34.177t-15.98,19.752a58.917,58.917,0,0,1-23.74,9.1,179.429,179.429,0,0,1-29.07,2.219h-11.55v38.171h278.3q74.13,0,129.61-22.858t92.32-65.247q36.84-42.381,55.48-102.53t18.64-134.711Q4080.16,422.39,4060.19,362.025ZM3683.8,778.805V221.323h79.89q107.865,0,161.79,71.461t53.93,206.836q0,67.473-13.54,119.4t-40.61,87.439a174.387,174.387,0,0,1-67.69,53.928q-40.605,18.425-94.76,18.42H3683.8Zm606.95-132.712a78.03,78.03,0,0,1,22.86-34.4q15.99-13.981,41.95-21.749t64.58-9.543l58.14-2.663v73.68q0,28.857-8.43,52.375t-24.19,39.947a106.428,106.428,0,0,1-38.17,25.3q-22.425,8.883-49.93,8.877-37.74,0-55.71-21.083t-17.97-63.694Q4283.88,666.51,4290.75,646.093Zm147.81-263.872a59.62,59.62,0,0,1,25.52,23.08q8.88,14.877,11.54,35.509a352.487,352.487,0,0,1,2.66,45.051v54.594l-75.45,2.663q-104.31,3.111-155.79,38.172T4195.55,688.7q0,37.284,10.65,64.581t29.52,45.273a118.18,118.18,0,0,0,44.83,26.631,176.473,176.473,0,0,0,56.14,8.656q28.41,0,48.61-6.436a127.028,127.028,0,0,0,36.17-17.977,160.011,160.011,0,0,0,29.29-27.519q13.32-15.978,27.52-35.064h7.55l14.2,78.118h122.95V786.8h-2.66q-15.1,0-25.97-3.107a35.819,35.819,0,0,1-17.53-10.653q-6.66-7.542-9.77-19.973t-3.1-31.514V485.861q0-43.494-10.43-73.458t-31.29-48.6q-20.88-18.642-51.94-26.854t-72.79-8.211a392.058,392.058,0,0,0-63.47,4.883q-29.745,4.888-52.15,15.313-22.425,10.434-35.29,26.853t-12.87,39.947q0,31.521,19.75,44.385t57.48,12.872a234.219,234.219,0,0,1,3.11-39.5q3.09-18.195,12.2-31.514t25.3-20.639q16.2-7.323,42.39-7.324Q4421.91,374.009,4438.56,382.221ZM4692.2,786.8v38.171h257.88V786.8h-11.54a179.251,179.251,0,0,1-29.07-2.219,58.8,58.8,0,0,1-23.74-9.1q-10.215-6.877-15.98-19.752t-5.77-34.177V134.327H4692.2V172.5h11.54a196.334,196.334,0,0,1,28.63,2,58.527,58.527,0,0,1,23.75,8.656,46.2,46.2,0,0,1,16.2,18.863q6,12.213,5.99,32.18V721.548q0,21.306-5.99,34.177t-15.98,19.752a57.107,57.107,0,0,1-23.52,9.1,179.466,179.466,0,0,1-29.08,2.219H4692.2Zm300.03,0v38.171h257.88V786.8h-11.54a179.251,179.251,0,0,1-29.07-2.219,58.9,58.9,0,0,1-23.75-9.1q-10.215-6.877-15.97-19.752-5.775-12.869-5.77-34.177V134.327H4992.23V172.5h11.54a196.334,196.334,0,0,1,28.63,2,58.582,58.582,0,0,1,23.75,8.656,46.276,46.276,0,0,1,16.2,18.863q5.985,12.213,5.99,32.18V721.548q0,21.306-5.99,34.177t-15.98,19.752a57.107,57.107,0,0,1-23.52,9.1,179.466,179.466,0,0,1-29.08,2.219h-11.54Zm428.53-140.7a77.862,77.862,0,0,1,22.86-34.4q15.975-13.981,41.94-21.749t64.58-9.543l58.15-2.663v73.68q0,28.857-8.44,52.375t-24.19,39.947a106.341,106.341,0,0,1-38.17,25.3q-22.41,8.883-49.93,8.877-37.74,0-55.71-21.083t-17.97-63.694Q5413.88,666.51,5420.76,646.093Zm147.8-263.872a59.62,59.62,0,0,1,25.52,23.08q8.88,14.877,11.54,35.509a352.4,352.4,0,0,1,2.67,45.051v54.594l-75.46,2.663q-104.31,3.111-155.79,38.172T5325.55,688.7q0,37.284,10.65,64.581,10.665,27.3,29.52,45.273a118.18,118.18,0,0,0,44.83,26.631,176.491,176.491,0,0,0,56.15,8.656q28.4,0,48.6-6.436a127.028,127.028,0,0,0,36.17-17.977,160.063,160.063,0,0,0,29.3-27.519q13.305-15.978,27.52-35.064h7.54l14.21,78.118h122.94V786.8h-2.66q-15.09,0-25.97-3.107a35.819,35.819,0,0,1-17.53-10.653q-6.66-7.542-9.76-19.973-3.12-12.422-3.11-31.514V485.861q0-43.494-10.43-73.458t-31.29-48.6q-20.865-18.642-51.93-26.854-31.08-8.207-72.79-8.211a392.094,392.094,0,0,0-63.48,4.883q-29.73,4.888-52.15,15.313t-35.29,26.853q-12.87,16.425-12.87,39.947,0,31.521,19.75,44.385t57.48,12.872a235.264,235.264,0,0,1,3.11-39.5q3.1-18.195,12.21-31.514,9.09-13.315,25.3-20.639,16.185-7.323,42.38-7.324Q5551.925,374.009,5568.56,382.221Zm505.98,442.745q33.06-8.872,56.59-26.853a122.586,122.586,0,0,0,36.4-44.607q12.87-26.631,12.87-62.14,0-28.4-7.99-50.156a111.314,111.314,0,0,0-24.64-39.059q-16.635-17.31-42.38-31.958t-61.7-29.738q-30.195-12.42-51.71-22.415T5956.92,497.4q-13.545-10.653-19.75-23.3-6.225-12.649-6.22-29.96a84.4,84.4,0,0,1,4.88-29.3,59.083,59.083,0,0,1,15.32-23.08q10.425-9.759,26.85-15.092t39.5-5.326q40.4,0,59.26,25.3t18.86,71.017q31.515,0,48.6-14.869t17.09-39.725a65.8,65.8,0,0,0-8.43-32.18q-8.445-15.313-25.3-26.631-16.875-11.319-41.72-17.976-24.87-6.658-57.26-6.658-38.61,0-70.13,8.433t-54.15,24.634a110.593,110.593,0,0,0-34.84,40.169q-12.21,23.968-12.21,55.038,0,29.742,8.43,51.265a111.2,111.2,0,0,0,25.3,38.394q16.875,16.874,42.84,31.292t61.03,29.96q32.835,14.21,54.59,25.3t34.4,21.749q12.645,10.651,17.75,22.858t5.11,29.073a83.1,83.1,0,0,1-6.66,33.511,71.839,71.839,0,0,1-19.31,26.187q-12.645,10.881-31.29,16.867t-43.05,5.992q-27.525,0-46.39-9.1a79.834,79.834,0,0,1-30.4-24.856,99.35,99.35,0,0,1-16.42-36.618,196.1,196.1,0,0,1-4.88-44.83,65.587,65.587,0,0,0-17.98,2.885,52.1,52.1,0,0,0-18.64,9.987q-8.655,7.105-14.65,19.308t-5.99,30.4q0,23.968,10.65,41.944t30.18,30.182q19.53,12.213,47.27,18.2t61.92,5.992Q6041.46,833.844,6074.54,824.966Zm940.27,0,6.21-195.3h-47.49l-8.88,67.91a140.623,140.623,0,0,1-6.87,29.294,89.906,89.906,0,0,1-14.43,26.41,70.437,70.437,0,0,1-23.75,19.086q-14.43,7.323-34.84,7.323H6705.44V275.917q0-19.972,6-32.179a46.138,46.138,0,0,1,16.2-18.864,58.413,58.413,0,0,1,23.74-8.655,196.191,196.191,0,0,1,28.63-2H6792V176.05H6527.46v38.171H6539a180.219,180.219,0,0,1,29.07,2.22,59.151,59.151,0,0,1,23.75,9.1q10.2,6.887,15.98,19.751,5.76,12.879,5.77,34.177v442.08q0,21.306-5.77,34.177t-15.98,19.752a58.961,58.961,0,0,1-23.75,9.1A179.429,179.429,0,0,1,6539,786.8h-11.54v38.171h487.35Zm83.43-38.171v38.171h258.32V786.8h-11.98a180.426,180.426,0,0,1-28.85-2.219,57.255,57.255,0,0,1-23.75-9.1q-9.99-6.877-15.98-19.752t-5.99-34.177V337.613H7107.56v38.172h2.66A177.276,177.276,0,0,1,7138.85,378a61.128,61.128,0,0,1,23.75,8.877,46.286,46.286,0,0,1,16.2,18.864q5.985,12.213,5.99,32.18V725.987q0,19.973-5.99,32.179t-16.2,18.42a62.789,62.789,0,0,1-23.75,8.212,196.334,196.334,0,0,1-28.63,2h-11.98Zm77.67-569.91a44.855,44.855,0,0,0,11.1,17.31,41.724,41.724,0,0,0,16.42,9.543,68.667,68.667,0,0,0,20.42,2.885,67.021,67.021,0,0,0,19.97-2.885,39.892,39.892,0,0,0,16.2-9.543,48.6,48.6,0,0,0,11.1-17.31q4.215-10.653,4.22-26.632t-4.22-26.631a48.584,48.584,0,0,0-11.1-17.31,37.882,37.882,0,0,0-16.2-9.321,72.352,72.352,0,0,0-19.97-2.664,74.138,74.138,0,0,0-20.42,2.664,39.566,39.566,0,0,0-16.42,9.321,44.84,44.84,0,0,0-11.1,17.31q-3.99,10.653-3.99,26.631T7175.91,216.885ZM7657.03,786.8a180.517,180.517,0,0,1-28.85-2.219,57.211,57.211,0,0,1-23.74-9.1q-9.99-6.877-15.98-19.752t-5.99-34.177V380.667h128.27V337.613H7582.47V283.907q0-28.848,3.33-50.6,3.315-21.741,11.31-36.618t21.09-22.415q13.08-7.542,32.62-7.545,17.31,0,28.85,6.214a50.916,50.916,0,0,1,18.42,16.423,67.4,67.4,0,0,1,9.77,23.3,124.681,124.681,0,0,1,2.88,26.853,125.543,125.543,0,0,0,29.96-3.329,76.948,76.948,0,0,0,23.52-9.765,47,47,0,0,0,15.54-15.978,42.889,42.889,0,0,0,5.55-21.971,50.585,50.585,0,0,0-6.66-25.744q-6.66-11.537-21.53-19.973t-39.28-13.094q-24.405-4.66-59.92-4.66-37.275,0-67.02,10.874t-50.6,32.179q-20.865,21.306-31.96,52.375t-11.09,71.9v45.273h-83.01v43.054h83.01V721.548q0,21.306-6,34.177-5.985,12.879-15.97,19.752a57.151,57.151,0,0,1-23.53,9.1,179.429,179.429,0,0,1-29.07,2.219h-11.99v38.171h280.96V786.8h-34.62ZM8036.29,389.1q18.855,11.548,30.41,32.846,11.535,21.3,16.86,51.043a373.836,373.836,0,0,1,5.33,65.691H7879.83q4.875-79,32.18-120.063t77.9-41.057Q8017.42,377.56,8036.29,389.1Zm35.07,435.866q29.955-8.872,49.93-22.192t29.74-29.073q9.75-15.75,9.76-29.516,0-11.536-5.55-19.974t-11.76-11.1a116.508,116.508,0,0,1-20.64,23.746,151.168,151.168,0,0,1-29.07,20.2,165.373,165.373,0,0,1-36.62,14.2,171.067,171.067,0,0,1-43.72,5.326q-32.4,0-57.25-10.874-24.87-10.872-41.95-33.955t-26.19-58.811q-9.09-35.724-9.98-85.442h302.71V545.781q0-53.7-13.1-94.319t-37.5-67.91a154.161,154.161,0,0,0-59.48-41.056q-35.07-13.753-79.01-13.76-96.765,0-149.13,64.359-52.38,64.362-52.38,191.746,0,59.035,14.43,105.415,14.415,46.388,41.5,78.341a175.236,175.236,0,0,0,66.36,48.6q39.27,16.644,88.54,16.645Q8041.4,833.844,8071.36,824.966Z"/>
</svg>
