<?xml version="1.0" encoding="UTF-8"?><svg id="b" xmlns="http://www.w3.org/2000/svg" viewBox="0 0 750 245.58"><defs><style>.d{fill:#0c2340;}.e{fill:#2676bf;}.f{fill:#184a7f;}.g{fill:#2e97e5;}</style></defs><polygon class="g" points="648.67 130.28 661.07 130.28 661.07 150.28 686.58 150.28 686.58 156.48 702.43 156.48 702.43 191.64 641.08 182.67 648.67 130.28"/><polygon class="g" points="300.55 46.88 279.87 46.88 279.87 91.68 272.98 91.68 272.98 177.16 293.66 177.16 293.66 115.81 300.55 115.81 300.55 46.88"/><polygon class="g" points="195.08 225.41 195.08 89.61 206.11 89.61 206.11 77.9 210.25 73.76 210.25 66.18 214.38 66.18 217.49 63.07 242.65 63.07 242.65 239.89 195.08 225.41"/><rect class="g" x="483.11" y="102.52" width="46.66" height="136.9"/><path class="e" d="M586.78,85.36s.22-6.6,4.4-6.6h6.38s4.4-3.52,7.92,0h18.71s4.62.44,5.06,5.06v83.85h-42.48v-82.31Z"/><rect class="f" x="287.19" width="36.98" height="33.34"/><rect class="d" x="247.95" y="167.66" width="18.6" height="77.91"/><polygon class="e" points="750 245.58 750 224.72 727.94 224.72 727.94 197.15 721.74 197.15 721.74 181.3 696.92 181.3 696.92 245.58 750 245.58"/><polygon class="e" points="0 245.58 4.83 229.55 23.44 229.55 23.44 222.66 56.53 222.66 56.53 245.58 0 245.58"/><polygon class="e" points="399.26 222.91 399.26 83.81 450.76 93.49 450.76 222.91 399.26 222.91"/><polygon class="e" points="125.25 60.37 149.68 18.44 174.77 60.37 174.77 207.28 125.25 207.28 125.25 60.37"/><rect class="e" x="465.51" y="120.79" width="24.21" height="101.9"/><polygon class="f" points="547.38 236.99 547.38 132.01 553.1 132.01 553.1 124.75 559.04 124.75 559.04 115.51 568.73 115.51 568.73 108.24 579.07 109.78 579.07 117.27 588.54 117.27 588.54 236.99 547.38 236.99"/><rect class="f" x="287.19" y="17.83" width="46.22" height="222.51"/><rect class="f" x="117.32" y="118.8" width="34" height="102.01"/><polygon class="f" points="167.86 245.58 167.86 139.28 170.68 139.28 170.68 129.41 174.91 129.41 174.91 124.7 192.31 108.24 210.66 129.41 214.42 129.41 214.42 140.69 218.65 140.69 218.65 245.58 167.86 245.58"/><rect class="f" x="392" y="99" width="40.94" height="94.42"/><path class="f" d="M470.2,146.1l-4.04-6.13v-23.58h-1.76v22.9l-4.82,6.81h-4.43v67.13h20.47v-67.13h-5.43ZM468.62,146.1h-2.46v-3.73l2.46,3.73ZM464.41,141.57v4.53h-3.2l3.2-4.53Z"/><polygon class="f" points="480.91 145 502.48 151.6 502.48 239.63 480.91 239.63 480.91 145"/><polygon class="f" points="603.28 172.29 603.28 113.31 619.57 113.31 619.57 106.04 632.99 106.04 632.99 113.75 640.04 113.75 640.04 109.12 649.94 109.12 649.94 169.65 603.28 172.29"/><rect class="d" x="257.63" y="132.01" width="37.97" height="113.57"/><polygon class="d" points="383.99 73.92 383.99 64.55 381.24 61.14 378.93 64.44 378.93 66.86 370.34 66.86 370.34 62.79 365.5 62.79 365.5 59.16 362.86 59.16 362.86 42.21 360.22 39.02 357.69 42.1 357.69 59.27 355.6 59.27 355.6 63.23 350.32 63.23 350.32 67.3 341.84 67.3 341.84 63.56 339.42 61.25 336.56 64.99 336.56 73.15 329.9 73.58 329.9 245.58 390.65 245.58 390.65 74.9 383.99 73.92"/><path class="d" d="M263.24,48.16c0-12.95-10.49-23.44-23.44-23.44s-23.44,10.49-23.44,23.44c0,8.47,4.49,15.89,11.23,20.01v177.41h24.43V68.16c6.73-4.12,11.22-11.54,11.22-20.01Z"/><polygon class="d" points="194.25 245.58 194.25 208.6 180.05 208.6 180.05 193.41 159.25 193.41 159.25 178.23 139.77 178.23 139.77 138.61 110.06 138.61 110.06 146.87 91.57 146.87 91.57 164.69 70.78 164.69 70.78 179.88 56.58 179.88 56.58 189.78 49.98 189.78 49.98 245.58 194.25 245.58"/><path class="d" d="M561.47,245.58v-77.91h6.82v-7.26h48.64c15.85,0,17.61,6.38,41.16,6.38s40.06-.44,42.26,1.76h7.26v77.03h-146.14Z"/><polygon class="d" points="385.72 245.58 385.72 141.58 410.81 141.58 446.14 145.22 446.14 245.58 385.72 245.58"/><polygon class="d" points="439.54 209.92 467.49 209.92 475.63 201.78 486.42 201.78 486.42 235.01 506.88 235.01 506.88 227.75 552.44 227.75 552.44 218.51 566.31 218.51 561.47 245.58 446.14 245.58 403.22 213.88 439.54 209.92"/><rect class="d" x="212.4" y="189.45" width="22.45" height="56.12"/><polygon class="d" points="216.36 211.9 204.48 211.9 204.48 235.67 185.99 235.67 194.25 245.58 221.84 245.58 216.36 211.9"/><polygon class="d" points="521.19 233.03 521.19 168.99 535.49 168.99 535.49 165.47 544.3 165.47 544.3 169.65 550.24 169.65 550.24 233.03 521.19 233.03"/><rect class="d" x="279.75" y="233.69" width="59.42" height="11.88"/><path class="d" d="M725.35,209.48c.57.12,1.16.19,1.76.19,4.69,0,8.49-3.8,8.49-8.49,0-4.43-3.4-8.07-7.73-8.45-1.27-5.56-6.24-9.7-12.19-9.7-6.91,0-12.5,5.6-12.5,12.5,0,2.03.49,3.95,1.35,5.64-.17-.01-.33-.03-.5-.03-4.69,0-8.49,3.8-8.49,8.49s3.8,8.49,8.49,8.49c.35,0,.68-.03,1.02-.07l.66.66c-.78.04-1.46.41-1.93.97-.28-.1-.59-.16-.9-.16-1.51,0-2.73,1.22-2.73,2.73,0,1.12.67,2.08,1.63,2.5-.05.25-.08.5-.08.76,0,2.11,1.71,3.81,3.81,3.81s3.82-1.71,3.82-3.81c0-.49-.09-.95-.26-1.38l1.76-.3,2.91,2.9v18.83h3.52v-15.48l4.29-4.16c.74.37,1.58.58,2.46.58,3.06,0,5.54-2.48,5.54-5.54,0-1.14-.35-2.21-.94-3.09.49-.64.79-1.44.79-2.31,0-2.11-1.71-3.81-3.82-3.81-1.86,0-3.4,1.33-3.74,3.08l-2.22.39,5.75-5.75ZM712.24,207.54c.48.14.98.25,1.48.33v6.37l-1.63-1.98c.27-.83.42-1.71.42-2.63,0-.72-.1-1.42-.27-2.09ZM717.25,207.93c1.27-.16,2.48-.51,3.61-1.02.06.06.11.13.17.19v5.05s-3.78,3.78-3.78,3.78v-8ZM722.2,210.97v-2.88c.58.41,1.2.75,1.87,1l-1.87,1.87ZM708.89,216.58v3.67l-2.47-2.47c.9-.26,1.73-.67,2.47-1.19ZM708.8,223.59c-.16-.28-.36-.54-.59-.77.22-.36.35-.78.37-1.23l1.73,1.73-1.52.26ZM710.07,221.42v-5.83c.76-.77,1.37-1.68,1.79-2.69l1.87,2.26v9.92l-3.66-3.66ZM721.75,215.46s0,.08,0,.12c0,.11,0,.23.02.34-1.95.86-3.3,2.8-3.3,5.06,0,1.74.8,3.29,2.06,4.31l-3.27,3.17v-10.87l1.63-1.63,2.88-.5Z"/><path class="d" d="M51.24,210.13c.53.11,1.08.17,1.64.17,4.36,0,7.9-3.54,7.9-7.9,0-4.12-3.16-7.5-7.19-7.86-1.18-5.17-5.81-9.02-11.33-9.02-6.42,0-11.63,5.21-11.63,11.63,0,1.89.45,3.67,1.25,5.25-.16-.01-.31-.02-.47-.02-4.36,0-7.9,3.54-7.9,7.9s3.54,7.9,7.9,7.9c.32,0,.64-.03.95-.06l.61.61c-.72.04-1.36.38-1.8.9-.26-.09-.54-.15-.84-.15-1.4,0-2.54,1.14-2.54,2.54,0,1.04.63,1.93,1.52,2.32-.05.23-.07.47-.07.71,0,1.96,1.59,3.55,3.55,3.55s3.55-1.59,3.55-3.55c0-.45-.09-.88-.24-1.28l1.63-.28,2.7,2.7v19.4h3.27v-16.29l3.99-3.87c.69.34,1.47.54,2.29.54,2.84,0,5.15-2.31,5.15-5.15,0-1.06-.32-2.05-.88-2.87.46-.6.73-1.34.73-2.15,0-1.96-1.59-3.55-3.55-3.55-1.73,0-3.16,1.23-3.48,2.87l-2.07.36,5.35-5.35ZM39.05,208.32c.45.13.91.23,1.38.31v5.92l-1.52-1.84c.25-.77.39-1.59.39-2.45,0-.67-.09-1.32-.25-1.94ZM43.71,208.68c1.18-.15,2.31-.47,3.35-.95.05.06.1.12.16.17v4.7s-3.51,3.51-3.51,3.51v-7.43ZM48.31,211.51v-2.67c.54.38,1.12.69,1.74.93l-1.74,1.74ZM35.94,216.73v3.41l-2.3-2.3c.83-.25,1.61-.62,2.3-1.11ZM35.85,223.25c-.15-.26-.34-.5-.55-.71.2-.34.32-.73.35-1.14l1.61,1.61-1.41.24ZM37.03,221.23v-5.42c.7-.71,1.27-1.56,1.66-2.5l1.74,2.1v9.22l-3.4-3.4ZM47.9,215.68s0,.08,0,.11c0,.11,0,.21.02.31-1.81.8-3.07,2.6-3.07,4.71,0,1.62.75,3.06,1.92,4l-3.04,2.95v-10.11l1.51-1.51,2.68-.47Z"/><path class="d" d="M327.61,200.79c0-2.5-1.18-4.73-3.01-6.16.42-.5.69-1.15.69-1.85,0-1.04-.55-1.95-1.38-2.46.18-.73.28-1.49.28-2.27,0-.31-.02-.62-.04-.93,1.09-.19,1.92-1.14,1.92-2.29,0-.86-.47-1.61-1.17-2.01.34-1.02.52-2.1.52-3.23,0-5.67-4.6-10.28-10.28-10.28-1.71,0-3.32.42-4.74,1.17-2.44-1.97-5.55-3.15-8.93-3.15-6.15,0-11.37,3.89-13.37,9.34-.68-.24-1.4-.38-2.17-.38-3.53,0-6.4,2.86-6.4,6.4,0,.07,0,.14.01.22-1.67,1.54-2.73,3.73-2.73,6.18,0,1.48.39,2.88,1.06,4.09-.91.24-1.58,1.07-1.58,2.05,0,1.18.95,2.13,2.13,2.13.02,0,.04,0,.07,0,0,.11-.02.22-.02.33,0,.5.05.99.12,1.46-1.3.76-2.18,2.16-2.18,3.77,0,2.08,1.45,3.81,3.38,4.27-.34.71-.54,1.49-.54,2.33,0,3,2.43,5.43,5.43,5.43.26,0,.51-.04.77-.08.04.02.09.05.13.07-.06.28-.09.57-.09.87,0,2.4,1.95,4.35,4.35,4.35s4.35-1.95,4.35-4.35c0-.55-.11-1.08-.3-1.57l2-.35,3.31,3.31v17.35h4.02v-13.53l4.89-4.74c.85.42,1.8.66,2.81.66,2.24,0,4.21-1.17,5.33-2.93,2.86-.16,5.13-2.5,5.13-5.4,0-.06-.02-.11-.02-.16,3.55-.74,6.22-3.88,6.22-7.66ZM289.91,208.08c-.03-.1-.06-.19-.09-.29l.26.26c-.06,0-.11.02-.17.03ZM290.9,206.97c1.02-.3,1.97-.76,2.82-1.36v4.18l-2.82-2.82ZM293.61,213.61c-.19-.32-.41-.61-.67-.88.24-.41.4-.89.42-1.4l1.98,1.97-1.73.3ZM299.23,215.3l-4.17-4.17v-6.65c.86-.87,1.56-1.91,2.04-3.06l2.13,2.58v11.31ZM299.23,202.94l-1.86-2.26c.31-.95.48-1.95.48-3,0-.82-.11-1.62-.31-2.38.55.16,1.11.28,1.69.38v7.26ZM308.89,195.94c.66.47,1.37.85,2.14,1.14l-2.14,2.14v-3.28ZM303.25,195.74c1.45-.18,2.83-.58,4.11-1.16.06.07.13.14.19.21v5.76s-4.31,4.31-4.31,4.31v-9.12ZM304.63,210.63c0,1.98.92,3.75,2.35,4.91l-3.73,3.62v-12.4l1.85-1.85,3.29-.57s0,.09,0,.14c0,.13,0,.26.02.38-2.22.98-3.77,3.19-3.77,5.78ZM308.46,203.63l-2.54.44,6.56-6.56c.06.01.13.02.2.03-.37.81-.61,1.7-.68,2.63-1.78.3-3.19,1.69-3.54,3.45Z"/></svg>