<?xml version="1.0" encoding="UTF-8"?><svg id="Layer_1" xmlns="http://www.w3.org/2000/svg" viewBox="0 0 200 200"><defs><style>.cls-1{fill:#feea17;}.cls-2{fill:#fee317;}.cls-3{fill:#242103;}.cls-4{fill:#fee617;}.cls-5{fill:#c5ad0f;}.cls-6{fill:#fedd16;}.cls-7{fill:#feec17;}.cls-8{fill:#262203;}.cls-9{fill:#1e1a02;}</style></defs><polygon class="cls-6" points="160.44 5.21 160.58 133.62 101.48 193.41 40.22 137.21 39.45 4.76 160.44 5.21 160.44 5.21"/><path d="M39.45,4.76l120.99.45.14,128.41-59.1,59.79-61.25-56.21-.77-132.44M34.68,0l.03,4.79.77,132.44v2.07s1.54,1.4,1.54,1.4l61.25,56.21,3.37,3.09,3.21-3.25,59.1-59.79,1.37-1.39v-1.95s-.14-128.41-.14-128.41V.48s-4.73-.02-4.73-.02L39.47.02l-4.79-.02h0Z"/><path class="cls-1" d="M160.44,5.21c-39.31,0-78.62,0-117.93-.01-1.03,0-2.13.3-3.06-.43.83-.04,1.65-.12,2.48-.12,38.64,0,77.27,0,115.91.03.85,0,1.95-.64,2.6.54Z"/><path d="M112.88,103.08c-1.01,1.67-2.51,3.13-2.32,5.31.09,1.02-.2,1.64-1.35,1.46-1.52-.24-1.71.57-1.69,1.84.06,4.15.04,8.31,0,12.46,0,.58.4,1.5-.69,1.59-1.31.11-.91-.94-.92-1.58-.08-8.46-.18-16.91-.16-25.37,0-2.62-1.89-4.22-2.98-6.23-.58-1.06-5.51-.25-6.13.92-1,1.89-2.11,3.71-1.98,6.06.19,3.24,0,6.49.07,9.74.02,1.15-.26,1.65-1.5,1.57-1.5-.1-3.03.08-4.53-.05-1.54-.13-2.1.33-2.05,1.97.12,3.77.06,7.55.02,11.32,0,.63.46,1.62-.84,1.68-1.43.08-1.06-.97-1.06-1.71-.02-4.61.01-9.21-.03-13.82,0-.97.26-1.62,1-2.33,2.16-2.06,2.19-4.86.22-6.82-1.75-1.75-4.77-1.79-6.56-.09-1.91,1.81-2.04,4.65-.13,6.68.69.73.97,1.4.96,2.37-.04,4.68-.01,9.36-.02,14.04,0,.77.28,1.63-1.06,1.78-.93.1-.47,1.1-.55,1.71-.06.45.04.91-.02,1.36-.15,1,.48,2.74-.37,2.85-1.26.16-1.42-1.65-1.9-2.65-.36-.76-.24-1.77-.25-2.66-.1-5.79.6-11.64-1.59-17.23-.28-.73-.06-2.07-.95-2.04-1.11.03-2.54.32-3.11,1.52-1.05,2.22-2.35,4.33-2.16,7.02.21,3.01.06,6.04.04,9.06,0,.49.21,1.15-.47,1.36-.65.2-.79-.29-1.05-.82-.37-.74-1.03-1.35-1.63-1.95-.68-.69-1.46-.73-2.14-.01-1.11,1.17-1.67,2.92-3.75,3-.64.03-.13,1.09-.45,1.6-2.15.74-4.29.78-6.43-.03,9.93-17.25,19.85-34.51,29.78-51.76,4.51-7.84,9.05-15.66,13.68-23.68.53.86.33,1.68.33,2.43.02,10.64.06,21.29-.03,31.93-.01,1.79.46,2.27,2.24,2.24,5.48-.09,5.48-.02,5.48-5.5,0-9.59,0-19.17,0-28.76,0-.72,0-1.45,0-2.17.15-.05.29-.1.44-.15,15.23,26.39,30.45,52.77,45.67,79.14-.43.68-1,.33-1.47.42-2.07.39-2.81-.47-2.57-2.54.09-.78.49-1.78-.42-2.46-1.64.35-3.28.4-4.91-.04-.49-.38-.51-.91-.44-1.44.23-1.65-.23-2.58-2.12-2.24-.83.15-1.36-.23-1.19-1.13.39-2.08-.88-1.96-2.35-2.09-2.15-.19-2.91.41-2.7,2.66.23,2.54.09,5.12.05,7.68,0,.56.45,1.58-.71,1.5-.88-.06-.54-.94-.54-1.47-.02-6.48-.11-12.97.04-19.45.05-2.12-.58-2.84-2.61-2.53-.59.09-1.21.08-1.81,0-1.42-.19-1.93.43-1.74,1.79.02.15-.02.31,0,.45.96,4.8-1.73,9.27-1.28,14.02.05.47-.06.95-.69.9-.65-.06-.54-.61-.54-1.03-.02-1.73-.05-3.47,0-5.2.03-1.04-.08-1.82-1.41-1.61-1.35.22-1.69-.45-1.6-1.68.09-1.28-.05-2.57.03-3.84.1-1.58.08-2.9-2.12-2.52-.73.13-.97-.46-.81-1,.65-2.13-1.64-3.28-1.68-5.18,0-.19-.44-.37-.67-.55-.5-.53-.37-1.2-.41-1.79-.03.58.13,1.26-.44,1.77Z"/><path d="M99.54,36.56c-6.79,0-13.59-.06-20.38.04-1.79.03-2.31-.37-2.01-2.22,1.81-11.08,11.2-19.22,22.36-19.27,11.35-.05,20.81,7.99,22.7,19.14.33,1.95-.13,2.39-2.07,2.36-6.87-.12-13.74-.05-20.6-.05Z"/><path d="M84.77,44.16c-12.26,11.68-24.07,22.94-36.29,34.59,0-1.14,0-1.78,0-2.41,0-10.11.02-20.23-.02-30.34,0-1.24.11-1.88,1.66-1.87,11.32.07,22.64.04,34.65.04Z"/><path d="M87,52.24c-3.42,6.02-6.82,12.07-10.27,18.07-8.98,15.62-17.99,31.23-26.99,46.84-.26.46-.56.89-.86,1.37-.75-.4-.37-1.07-.37-1.58-.03-8.98-.02-17.97-.03-26.95,0-.98,0-1.85.85-2.65,12.4-11.82,24.77-23.68,37.15-35.53.44-.18.58,0,.52.43Z"/><path d="M150.71,78.54c-11.73-11.28-23.5-22.61-35.27-33.92.39-.74.99-.44,1.45-.44,10.79-.02,21.58,0,32.37-.03,1.2,0,1.92.04,1.91,1.63-.07,10.64-.04,21.28-.05,31.91,0,.27.09.61-.41.85Z"/><path d="M113.88,51.82c10.96,10.69,21.8,21.52,32.96,32,3.25,3.05,4.61,6.09,4.41,10.53-.36,7.75-.1,15.52-.1,23.43-.9-.28-.97-1.04-1.27-1.55-11.92-20.61-23.82-41.24-35.71-61.87-.3-.52-.55-1.06-.83-1.6-.33-.61-.29-1.01.55-.95Z"/><path d="M118.3,14.39c.43-.44.98-.22,1.47-.23,9.8-.01,19.6.03,29.4-.05,1.59-.01,2.02.43,2,2.01-.09,6.18-.08,12.36,0,18.54.02,1.41-.29,1.95-1.84,1.93-6.11-.09-12.21-.05-18.32-.03-1,0-1.68-.06-1.79-1.36-.7-8.31-4.45-15.05-10.76-20.43-.09-.08-.1-.24-.16-.38Z"/><path d="M81.34,14.44c-2.84,2.34-5.15,4.88-6.95,7.84-2.35,3.86-3.85,8.03-4.18,12.55-.1,1.36-.54,1.77-1.91,1.75-6.04-.07-12.08-.09-18.12,0-1.48.02-1.72-.49-1.71-1.81.06-6.34.05-12.68.01-19.03,0-1.07.12-1.63,1.43-1.63,10.2.05,20.39.03,30.59.04.19,0,.38.12.85.27Z"/><path class="cls-4" d="M77.83,37.01h43.78c0,.07,0,.15,0,.22h-43.78c0-.07,0-.15,0-.22Z"/><path class="cls-2" d="M83.88,43.6h-34.68c0-.07,0-.13,0-.2h34.87l-.19.2Z"/><path class="cls-2" d="M150.19,43.64h-34.27c0-.07,0-.14,0-.21h34.23c.01.07.03.14.04.21Z"/><path class="cls-7" d="M118.64,13.45h31.54c0,.07,0,.14,0,.22h-31.58l.04-.22Z"/><path class="cls-7" d="M49.3,13.45h31.54v.22h-31.59c.01-.07.03-.14.04-.22Z"/><path class="cls-9" d="M52.37,127.95c2.14,0,4.29.02,6.43.03.03.1.06.2.09.3-1.07.79-2.29.22-3.43.39-.81.12-1.66-.21-2.44.23-.04.29-.15.6-.1.87.37,2.26-.72,2.71-2.75,2.16.48-1.48,1.34-2.73,2.2-3.99Z"/><path class="cls-4" d="M129.93,37.02h20.2v.21h-20.15c-.02-.07-.03-.14-.05-.21Z"/><path class="cls-4" d="M69.11,37.26h-19.89c0-.07,0-.13,0-.2h19.89v.2Z"/><path class="cls-5" d="M112.88,103.08v-3.98c.19-.02.39-.04.58-.06.53,1.28.16,2.71.26,4.06-.28,0-.56,0-.84-.01Z"/><path class="cls-1" d="M53.02,128.91c1.85-1.23,3.94-.22,5.87-.62-1.85,1.24-3.92.35-5.87.62Z"/><path class="cls-1" d="M140.59,127.05c1.64-.13,3.27-.19,4.91.04-1.64.61-3.28.9-4.91-.04Z"/><path class="cls-8" d="M113.88,51.82l-.55.95c-.46-.68-.92-1.37-1.55-2.3,1.28.04,1.65.74,2.1,1.35Z"/><path class="cls-3" d="M87,52.24c-.17-.14-.35-.28-.52-.43.24-.42.62-1.11,1.01-.79.53.43-.07.9-.49,1.22Z"/></svg>