<?xml version="1.0" ?><svg data-name="005_Buildings" id="_005_Buildings" viewBox="0 0 128 128" xmlns="http://www.w3.org/2000/svg" xmlns:xlink="http://www.w3.org/1999/xlink"><defs><style>.cls-1{fill:none;}.cls-2{opacity:0.3;}.cls-3,.cls-8{fill:#75859e;}.cls-4{clip-path:url(#clip-path);}.cls-5,.cls-8{opacity:0.5;}.cls-6{fill:#fff;}.cls-7{clip-path:url(#clip-path-2);}.cls-9{clip-path:url(#clip-path-3);}</style><clipPath id="clip-path"><path class="cls-1" d="M9.14,29.654C-.5226,39.5202-1.5054,53.0407,4.1038,64.8234c1.9966,4.194-1.4803,9.9823-2.4803,14.5184-.8906,4.0399,1.8386,8.3078,2.2993,12.7011a39.51182,39.51182,0,0,0,55.345,31.8836,22.43141,22.43141,0,0,1,18.6504.3842c15.4143,7.257,36.2193.9141,43.07581-21.646a17.72193,17.72193,0,0,0,.05449-8.5698,21.9669,21.9669,0,0,1,2.74451-15.545,30.34893,30.34893,0,0,0,2.19039-26.2865c-3.4225-8.9428,4.39261-47.3365-4.0591-50.0713C115.95069.2591,108.498,0,93.66479.9877c-9.1209.6073-10.5829,5.6636-20.0429,2.9149A30.95624,30.95624,0,0,0,41.6528,13.2772,21.43548,21.43548,0,0,1,28.034,20.2958,31.84419,31.84419,0,0,0,9.14,29.654Z"/></clipPath><clipPath id="clip-path-2"><path class="cls-1" d="M9.14,29.654A32.02473,32.02473,0,0,0,3.1038,65.8234,21.01787,21.01787,0,0,1,4.6235,79.3418a39.50837,39.50837,0,0,0,54.64429,44.5847,22.43141,22.43141,0,0,1,18.6504.3842c15.4143,7.257,36.2193.9141,43.07581-21.646a17.72193,17.72193,0,0,0,.05449-8.5698,21.9669,21.9669,0,0,1,2.74451-15.545,30.40982,30.40982,0,0,0-16.86871-44.3578,21.41229,21.41229,0,0,1-13.2595-12.2044,30.95722,30.95722,0,0,0-52.012-8.7105A21.43548,21.43548,0,0,1,28.034,20.2958,31.84419,31.84419,0,0,0,9.14,29.654Z"/></clipPath><clipPath id="clip-path-3"><path class="cls-1" d="M0,79.3418s3.4621,8.3078,3.9228,12.7011a39.51182,39.51182,0,0,0,55.345,31.8836,22.43141,22.43141,0,0,1,18.6504.3842c15.4143,7.257,36.2193.9141,43.07581-21.646a17.72193,17.72193,0,0,0,.05449-8.5698,21.9669,21.9669,0,0,1,2.74451-15.545,30.34893,30.34893,0,0,0,2.19039-26.2865C122.56089,43.3206,128,0,128,0H0Z"/></clipPath></defs><title/><g class="cls-2"><path class="cls-3" d="M9.14,29.654A32.02473,32.02473,0,0,0,3.1038,65.8234,21.01787,21.01787,0,0,1,4.6235,79.3418a39.50837,39.50837,0,0,0,54.64429,44.5847,22.43141,22.43141,0,0,1,18.6504.3842c15.4143,7.257,36.2193.9141,43.07581-21.646a17.72193,17.72193,0,0,0,.05449-8.5698,21.9669,21.9669,0,0,1,2.74451-15.545,30.40982,30.40982,0,0,0-16.86871-44.3578,21.41229,21.41229,0,0,1-13.2595-12.2044,30.95722,30.95722,0,0,0-52.012-8.7105A21.43548,21.43548,0,0,1,28.034,20.2958,31.84419,31.84419,0,0,0,9.14,29.654Z"/><g class="cls-4"><rect class="cls-3" height="10.005" width="50" x="6.998" y="54.026"/><g class="cls-5"><path class="cls-6" d="M28.99805,65.03076a1,1,0,0,1-1-1V54.02588a1,1,0,0,1,2,0V64.03076A1.00005,1.00005,0,0,1,28.99805,65.03076Z"/><path class="cls-6" d="M22.99805,65.03076a1,1,0,0,1-1-1V54.02588a1,1,0,0,1,2,0V64.03076A1.00005,1.00005,0,0,1,22.99805,65.03076Z"/><path class="cls-6" d="M16.99805,65.03076a1,1,0,0,1-1-1V54.02588a1,1,0,0,1,2,0V64.03076A1.00005,1.00005,0,0,1,16.99805,65.03076Z"/><path class="cls-6" d="M10.998,65.03076a1,1,0,0,1-1-1V54.02588a1,1,0,0,1,2,0V64.03076A1.00005,1.00005,0,0,1,10.998,65.03076Z"/><path class="cls-6" d="M52.99805,65.03076a1,1,0,0,1-1-1V54.02588a1,1,0,0,1,2,0V64.03076A1.00005,1.00005,0,0,1,52.99805,65.03076Z"/><path class="cls-6" d="M46.99805,65.03076a1,1,0,0,1-1-1V54.02588a1,1,0,0,1,2,0V64.03076A1.00005,1.00005,0,0,1,46.99805,65.03076Z"/><path class="cls-6" d="M40.99805,65.03076a1,1,0,0,1-1-1V54.02588a1,1,0,0,1,2,0V64.03076A1.00005,1.00005,0,0,1,40.99805,65.03076Z"/><path class="cls-6" d="M34.99805,65.03076a1,1,0,0,1-1-1V54.02588a1,1,0,0,1,2,0V64.03076A1.00005,1.00005,0,0,1,34.99805,65.03076Z"/></g><rect class="cls-3" height="10.005" width="50" x="6.998" y="69.026"/><rect class="cls-3" height="10.005" width="50" x="6.998" y="84.026"/><rect class="cls-3" height="10.005" width="50" x="6.998" y="99.026"/><rect class="cls-3" height="10.005" width="50" x="6.998" y="114.026"/><g class="cls-5"><path class="cls-6" d="M28.99805,80.03076a1,1,0,0,1-1-1V69.02588a1,1,0,0,1,2,0V79.03076A1.00005,1.00005,0,0,1,28.99805,80.03076Z"/><path class="cls-6" d="M22.99805,80.03076a1,1,0,0,1-1-1V69.02588a1,1,0,0,1,2,0V79.03076A1.00005,1.00005,0,0,1,22.99805,80.03076Z"/><path class="cls-6" d="M16.99805,80.03076a1,1,0,0,1-1-1V69.02588a1,1,0,0,1,2,0V79.03076A1.00005,1.00005,0,0,1,16.99805,80.03076Z"/><path class="cls-6" d="M10.998,80.03076a1,1,0,0,1-1-1V69.02588a1,1,0,0,1,2,0V79.03076A1.00005,1.00005,0,0,1,10.998,80.03076Z"/><path class="cls-6" d="M52.99805,80.03076a1,1,0,0,1-1-1V69.02588a1,1,0,0,1,2,0V79.03076A1.00005,1.00005,0,0,1,52.99805,80.03076Z"/><path class="cls-6" d="M46.99805,80.03076a1,1,0,0,1-1-1V69.02588a1,1,0,0,1,2,0V79.03076A1.00005,1.00005,0,0,1,46.99805,80.03076Z"/><path class="cls-6" d="M40.99805,80.03076a1,1,0,0,1-1-1V69.02588a1,1,0,0,1,2,0V79.03076A1.00005,1.00005,0,0,1,40.99805,80.03076Z"/><path class="cls-6" d="M34.99805,80.03076a1,1,0,0,1-1-1V69.02588a1,1,0,0,1,2,0V79.03076A1.00005,1.00005,0,0,1,34.99805,80.03076Z"/></g><g class="cls-5"><path class="cls-6" d="M28.99805,95.03076a1,1,0,0,1-1-1V84.02588a1,1,0,0,1,2,0V94.03076A1.00005,1.00005,0,0,1,28.99805,95.03076Z"/><path class="cls-6" d="M22.99805,95.03076a1,1,0,0,1-1-1V84.02588a1,1,0,0,1,2,0V94.03076A1.00005,1.00005,0,0,1,22.99805,95.03076Z"/><path class="cls-6" d="M16.99805,95.03076a1,1,0,0,1-1-1V84.02588a1,1,0,0,1,2,0V94.03076A1.00005,1.00005,0,0,1,16.99805,95.03076Z"/><path class="cls-6" d="M10.998,95.03076a1,1,0,0,1-1-1V84.02588a1,1,0,0,1,2,0V94.03076A1.00005,1.00005,0,0,1,10.998,95.03076Z"/><path class="cls-6" d="M52.99805,95.03076a1,1,0,0,1-1-1V84.02588a1,1,0,0,1,2,0V94.03076A1.00005,1.00005,0,0,1,52.99805,95.03076Z"/><path class="cls-6" d="M46.99805,95.03076a1,1,0,0,1-1-1V84.02588a1,1,0,0,1,2,0V94.03076A1.00005,1.00005,0,0,1,46.99805,95.03076Z"/><path class="cls-6" d="M40.99805,95.03076a1,1,0,0,1-1-1V84.02588a1,1,0,0,1,2,0V94.03076A1.00005,1.00005,0,0,1,40.99805,95.03076Z"/><path class="cls-6" d="M34.99805,95.03076a1,1,0,0,1-1-1V84.02588a1,1,0,0,1,2,0V94.03076A1.00005,1.00005,0,0,1,34.99805,95.03076Z"/></g><g class="cls-5"><path class="cls-6" d="M28.99805,110.03076a1,1,0,0,1-1-1V99.02588a1,1,0,0,1,2,0v10.00488A1.00005,1.00005,0,0,1,28.99805,110.03076Z"/><path class="cls-6" d="M22.99805,110.03076a1,1,0,0,1-1-1V99.02588a1,1,0,0,1,2,0v10.00488A1.00005,1.00005,0,0,1,22.99805,110.03076Z"/><path class="cls-6" d="M16.99805,110.03076a1,1,0,0,1-1-1V99.02588a1,1,0,0,1,2,0v10.00488A1.00005,1.00005,0,0,1,16.99805,110.03076Z"/><path class="cls-6" d="M10.998,110.03076a1,1,0,0,1-1-1V99.02588a1,1,0,0,1,2,0v10.00488A1.00005,1.00005,0,0,1,10.998,110.03076Z"/><path class="cls-6" d="M52.99805,110.03076a1,1,0,0,1-1-1V99.02588a1,1,0,0,1,2,0v10.00488A1.00005,1.00005,0,0,1,52.99805,110.03076Z"/><path class="cls-6" d="M46.99805,110.03076a1,1,0,0,1-1-1V99.02588a1,1,0,0,1,2,0v10.00488A1.00005,1.00005,0,0,1,46.99805,110.03076Z"/><path class="cls-6" d="M40.99805,110.03076a1,1,0,0,1-1-1V99.02588a1,1,0,0,1,2,0v10.00488A1.00005,1.00005,0,0,1,40.99805,110.03076Z"/><path class="cls-6" d="M34.99805,110.03076a1,1,0,0,1-1-1V99.02588a1,1,0,0,1,2,0v10.00488A1.00005,1.00005,0,0,1,34.99805,110.03076Z"/></g><g class="cls-5"><path class="cls-6" d="M28.99805,125.03076a1,1,0,0,1-1-1V114.02588a1,1,0,0,1,2,0v10.00488A1.00005,1.00005,0,0,1,28.99805,125.03076Z"/><path class="cls-6" d="M22.99805,125.03076a1,1,0,0,1-1-1V114.02588a1,1,0,0,1,2,0v10.00488A1.00005,1.00005,0,0,1,22.99805,125.03076Z"/><path class="cls-6" d="M16.99805,125.03076a1,1,0,0,1-1-1V114.02588a1,1,0,0,1,2,0v10.00488A1.00005,1.00005,0,0,1,16.99805,125.03076Z"/><path class="cls-6" d="M10.998,125.03076a1,1,0,0,1-1-1V114.02588a1,1,0,0,1,2,0v10.00488A1.00005,1.00005,0,0,1,10.998,125.03076Z"/><path class="cls-6" d="M52.99805,125.03076a1,1,0,0,1-1-1V114.02588a1,1,0,0,1,2,0v10.00488A1.00005,1.00005,0,0,1,52.99805,125.03076Z"/><path class="cls-6" d="M46.99805,125.03076a1,1,0,0,1-1-1V114.02588a1,1,0,0,1,2,0v10.00488A1.00005,1.00005,0,0,1,46.99805,125.03076Z"/><path class="cls-6" d="M40.99805,125.03076a1,1,0,0,1-1-1V114.02588a1,1,0,0,1,2,0v10.00488A1.00005,1.00005,0,0,1,40.99805,125.03076Z"/><path class="cls-6" d="M34.99805,125.03076a1,1,0,0,1-1-1V114.02588a1,1,0,0,1,2,0v10.00488A1.00005,1.00005,0,0,1,34.99805,125.03076Z"/></g><rect class="cls-6" height="4" width="46" x="8.998" y="45.026"/><path class="cls-3" d="M54.99805,50.02588h-46a1.00005,1.00005,0,0,1-1-1v-4a1,1,0,0,1,1-1h46a1.00005,1.00005,0,0,1,1,1v4A1.00006,1.00006,0,0,1,54.99805,50.02588Zm-45-2h44v-2h-44Z"/><rect class="cls-6" height="5.005" width="52" x="5.998" y="49.026"/><path class="cls-3" d="M57.99805,55.03076h-52a1,1,0,0,1-1-1V49.02588a1,1,0,0,1,1-1h52a1.00005,1.00005,0,0,1,1,1v5.00488A1.00005,1.00005,0,0,1,57.99805,55.03076Zm-51-2h50V50.02588h-50Z"/><rect class="cls-6" height="5.005" width="52" x="5.998" y="64.026"/><path class="cls-3" d="M57.99805,70.03076h-52a1,1,0,0,1-1-1V64.02588a1,1,0,0,1,1-1h52a1.00005,1.00005,0,0,1,1,1v5.00488A1.00005,1.00005,0,0,1,57.99805,70.03076Zm-51-2h50V65.02588h-50Z"/><path class="cls-3" d="M56.99805,65.03076h-50a1,1,0,0,1-1-1V54.02588a1,1,0,0,1,1-1h50a1.00005,1.00005,0,0,1,1,1V64.03076A1.00005,1.00005,0,0,1,56.99805,65.03076Zm-49-2h48V55.02588h-48Z"/><path class="cls-3" d="M9.998,46.02588a1.00005,1.00005,0,0,1-1-1v-1a1,1,0,0,1,2,0v1A1.00006,1.00006,0,0,1,9.998,46.02588Z"/><path class="cls-3" d="M13.99805,46.02588a1.00005,1.00005,0,0,1-1-1v-1a1,1,0,0,1,2,0v1A1.00006,1.00006,0,0,1,13.99805,46.02588Z"/><path class="cls-3" d="M17.99805,46.02588a1.00005,1.00005,0,0,1-1-1v-1a1,1,0,0,1,2,0v1A1.00006,1.00006,0,0,1,17.99805,46.02588Z"/><path class="cls-3" d="M21.99805,46.02588a1.00005,1.00005,0,0,1-1-1v-1a1,1,0,0,1,2,0v1A1.00006,1.00006,0,0,1,21.99805,46.02588Z"/><path class="cls-3" d="M25.99805,46.02588a1.00005,1.00005,0,0,1-1-1v-1a1,1,0,0,1,2,0v1A1.00006,1.00006,0,0,1,25.99805,46.02588Z"/><path class="cls-3" d="M29.99805,46.02588a1.00005,1.00005,0,0,1-1-1v-1a1,1,0,0,1,2,0v1A1.00006,1.00006,0,0,1,29.99805,46.02588Z"/><path class="cls-3" d="M33.99805,46.02588a1.00005,1.00005,0,0,1-1-1v-1a1,1,0,0,1,2,0v1A1.00006,1.00006,0,0,1,33.99805,46.02588Z"/><path class="cls-3" d="M37.99805,46.02588a1.00005,1.00005,0,0,1-1-1v-1a1,1,0,0,1,2,0v1A1.00006,1.00006,0,0,1,37.99805,46.02588Z"/><path class="cls-3" d="M41.99805,46.02588a1.00005,1.00005,0,0,1-1-1v-1a1,1,0,0,1,2,0v1A1.00006,1.00006,0,0,1,41.99805,46.02588Z"/><path class="cls-3" d="M45.99805,46.02588a1.00005,1.00005,0,0,1-1-1v-1a1,1,0,0,1,2,0v1A1.00006,1.00006,0,0,1,45.99805,46.02588Z"/><path class="cls-3" d="M49.99805,46.02588a1.00005,1.00005,0,0,1-1-1v-1a1,1,0,0,1,2,0v1A1.00006,1.00006,0,0,1,49.99805,46.02588Z"/><path class="cls-3" d="M53.99805,46.02588a1.00005,1.00005,0,0,1-1-1v-1a1,1,0,0,1,2,0v1A1.00006,1.00006,0,0,1,53.99805,46.02588Z"/><path class="cls-3" d="M56.99805,65.03076h-50a1,1,0,0,1,0-2h50a1,1,0,0,1,0,2Z"/><rect class="cls-6" height="5.005" width="52" x="5.998" y="79.026"/><path class="cls-3" d="M57.99805,85.03076h-52a1,1,0,0,1-1-1V79.02588a1,1,0,0,1,1-1h52a1.00005,1.00005,0,0,1,1,1v5.00488A1.00005,1.00005,0,0,1,57.99805,85.03076Zm-51-2h50V80.02588h-50Z"/><path class="cls-3" d="M56.99805,80.03076h-50a1,1,0,0,1-1-1V69.02588a1,1,0,0,1,1-1h50a1.00005,1.00005,0,0,1,1,1V79.03076A1.00005,1.00005,0,0,1,56.99805,80.03076Zm-49-2h48V70.02588h-48Z"/><path class="cls-3" d="M56.99805,80.03076h-50a1,1,0,0,1,0-2h50a1,1,0,0,1,0,2Z"/><rect class="cls-6" height="5.005" width="52" x="5.998" y="94.026"/><path class="cls-3" d="M57.99805,100.03076h-52a1,1,0,0,1-1-1V94.02588a1,1,0,0,1,1-1h52a1.00005,1.00005,0,0,1,1,1v5.00488A1.00005,1.00005,0,0,1,57.99805,100.03076Zm-51-2h50V95.02588h-50Z"/><path class="cls-3" d="M56.99805,95.03076h-50a1,1,0,0,1-1-1V84.02588a1,1,0,0,1,1-1h50a1.00005,1.00005,0,0,1,1,1V94.03076A1.00005,1.00005,0,0,1,56.99805,95.03076Zm-49-2h48V85.02588h-48Z"/><path class="cls-3" d="M56.99805,95.03076h-50a1,1,0,0,1,0-2h50a1,1,0,0,1,0,2Z"/><rect class="cls-6" height="5.005" width="52" x="5.998" y="109.026"/><path class="cls-3" d="M57.99805,115.03076h-52a1,1,0,0,1-1-1v-5.00488a1,1,0,0,1,1-1h52a1.00005,1.00005,0,0,1,1,1v5.00488A1.00005,1.00005,0,0,1,57.99805,115.03076Zm-51-2h50v-3.00488h-50Z"/><path class="cls-3" d="M56.99805,110.03076h-50a1,1,0,0,1-1-1V99.02588a1,1,0,0,1,1-1h50a1.00005,1.00005,0,0,1,1,1v10.00488A1.00005,1.00005,0,0,1,56.99805,110.03076Zm-49-2h48v-8.00488h-48Z"/><path class="cls-3" d="M56.99805,110.03076h-50a1,1,0,0,1,0-2h50a1,1,0,0,1,0,2Z"/><path class="cls-3" d="M56.99805,125.03076h-50a1,1,0,0,1-1-1V114.02588a1,1,0,0,1,1-1h50a1.00005,1.00005,0,0,1,1,1v10.00488A1.00005,1.00005,0,0,1,56.99805,125.03076Zm-49-2h48v-8.00488h-48Z"/><path class="cls-3" d="M56.99805,125.03076h-50a1,1,0,1,1,0-2h50a1,1,0,0,1,0,2Z"/><path class="cls-6" d="M75,54V51c0-.5523.32559-1,.72729-1h6.5454c.4017,0,.72731.4477.72731,1v3Z"/><path class="cls-3" d="M83,55H75a1,1,0,0,1-1-1V51a1.85848,1.85848,0,0,1,1.72705-2h6.54541A1.85853,1.85853,0,0,1,84,51v3A1,1,0,0,1,83,55Zm-7-2h6V51H76Z"/><polygon class="cls-6" points="78.5 50 79 42 79.5 50 78.5 50"/><path class="cls-3" d="M79.5,51h-1a.99992.99992,0,0,1-.99805-1.0625l.5-8a1,1,0,0,1,1.9961,0l.5,8A.99992.99992,0,0,1,79.5,51Z"/><path class="cls-6" d="M97.5,71v-.4086C97.5,59.9722,89.21729,53,79,53h0c-10.21731,0-18.5,6.9722-18.5,17.5914V71Z"/><rect class="cls-6" height="4" width="44" x="56.998" y="71.026"/><path class="cls-3" d="M100.99805,76.02588h-44a1.00005,1.00005,0,0,1-1-1v-4a1,1,0,0,1,1-1h44a1.00005,1.00005,0,0,1,1,1v4A1.00006,1.00006,0,0,1,100.99805,76.02588Zm-43-2h42v-2h-42Z"/><rect class="cls-3" height="10.005" width="44" x="56.998" y="81.026"/><path class="cls-3" d="M100.99805,92.03076h-44a1,1,0,0,1-1-1V81.02588a1,1,0,0,1,1-1h44a1.00005,1.00005,0,0,1,1,1V91.03076A1.00005,1.00005,0,0,1,100.99805,92.03076Zm-43-2h42V82.02588h-42Z"/><g class="cls-5"><path class="cls-6" d="M93.99805,92.03076a1,1,0,0,1-1-1V81.02588a1,1,0,0,1,2,0V91.03076A1.00005,1.00005,0,0,1,93.99805,92.03076Z"/><path class="cls-6" d="M83.99805,92.03076a1,1,0,0,1-1-1V81.02588a1,1,0,0,1,2,0V91.03076A1.00005,1.00005,0,0,1,83.99805,92.03076Z"/><path class="cls-6" d="M73.99805,92.03076a1,1,0,0,1-1-1V81.02588a1,1,0,0,1,2,0V91.03076A1.00005,1.00005,0,0,1,73.99805,92.03076Z"/><path class="cls-6" d="M63.99805,92.03076a1,1,0,0,1-1-1V81.02588a1,1,0,0,1,2,0V91.03076A1.00005,1.00005,0,0,1,63.99805,92.03076Z"/></g><rect class="cls-3" height="10.005" width="44" x="56.998" y="106.026"/><g class="cls-5"><path class="cls-6" d="M93.99805,117.03076a1,1,0,0,1-1-1V106.02588a1,1,0,0,1,2,0v10.00488A1.00005,1.00005,0,0,1,93.99805,117.03076Z"/><path class="cls-6" d="M83.99805,117.03076a1,1,0,0,1-1-1V106.02588a1,1,0,0,1,2,0v10.00488A1.00005,1.00005,0,0,1,83.99805,117.03076Z"/><path class="cls-6" d="M73.99805,117.03076a1,1,0,0,1-1-1V106.02588a1,1,0,0,1,2,0v10.00488A1.00005,1.00005,0,0,1,73.99805,117.03076Z"/><path class="cls-6" d="M63.99805,117.03076a1,1,0,0,1-1-1V106.02588a1,1,0,0,1,2,0v10.00488A1.00005,1.00005,0,0,1,63.99805,117.03076Z"/></g><path class="cls-3" d="M100.99805,117.03076h-44a1,1,0,0,1-1-1V106.02588a1,1,0,0,1,1-1h44a1.00005,1.00005,0,0,1,1,1v10.00488A1.00005,1.00005,0,0,1,100.99805,117.03076Zm-43-2h42v-8.00488h-42Z"/><path class="cls-3" d="M97.5,72h-37a1,1,0,0,1-1-1v-.40869C59.5,59.81885,67.70117,52,79,52s19.5,7.81885,19.5,18.59131V71A1,1,0,0,1,97.5,72ZM61.50928,70H96.49072C96.19531,60.69287,88.93115,54,79,54S61.80469,60.69287,61.50928,70Z"/><rect class="cls-6" height="2.9994" width="48" x="55" y="91"/><path class="cls-3" d="M103,94.99951H55a1,1,0,0,1-1-1V91a1,1,0,0,1,1-1h48a1,1,0,0,1,1,1v2.99951A1,1,0,0,1,103,94.99951Zm-47-2h46V92H56Z"/><rect class="cls-6" height="11.9994" width="46" x="56" y="94"/><path class="cls-3" d="M102,106.99951H56a1,1,0,0,1-1-1V94a1,1,0,0,1,1-1h46a1,1,0,0,1,1,1v11.99951A1,1,0,0,1,102,106.99951Zm-45-2h44V95H57Z"/><g class="cls-5"><path class="cls-3" d="M60,106.99951a1,1,0,0,1-1-1V94a1,1,0,0,1,2,0v11.99951A1,1,0,0,1,60,106.99951Z"/><path class="cls-3" d="M69,106.99951a1,1,0,0,1-1-1V94a1,1,0,0,1,2,0v11.99951A1,1,0,0,1,69,106.99951Z"/><path class="cls-3" d="M78,106.99951a1,1,0,0,1-1-1V94a1,1,0,0,1,2,0v11.99951A1,1,0,0,1,78,106.99951Z"/><path class="cls-3" d="M88,106.99951a1,1,0,0,1-1-1V94a1,1,0,0,1,2,0v11.99951A1,1,0,0,1,88,106.99951Z"/><path class="cls-3" d="M97,106.99951a1,1,0,0,1-1-1V94a1,1,0,0,1,2,0v11.99951A1,1,0,0,1,97,106.99951Z"/></g><rect class="cls-6" height="5.9994" width="48" x="55" y="75"/><path class="cls-3" d="M103,81.99951H55a1,1,0,0,1-1-1V75a1,1,0,0,1,1-1h48a1,1,0,0,1,1,1v5.99951A1,1,0,0,1,103,81.99951Zm-47-2h46V76H56Z"/><g class="cls-5"><path class="cls-3" d="M59,81.99951a1,1,0,0,1-1-1V75a1,1,0,0,1,2,0v5.99951A1,1,0,0,1,59,81.99951Z"/><path class="cls-3" d="M63,81.99951a1,1,0,0,1-1-1V75a1,1,0,0,1,2,0v5.99951A1,1,0,0,1,63,81.99951Z"/><path class="cls-3" d="M67,81.99951a1,1,0,0,1-1-1V75a1,1,0,0,1,2,0v5.99951A1,1,0,0,1,67,81.99951Z"/><path class="cls-3" d="M71,81.99951a1,1,0,0,1-1-1V75a1,1,0,0,1,2,0v5.99951A1,1,0,0,1,71,81.99951Z"/><path class="cls-3" d="M75,81.99951a1,1,0,0,1-1-1V75a1,1,0,0,1,2,0v5.99951A1,1,0,0,1,75,81.99951Z"/><path class="cls-3" d="M79,81.99951a1,1,0,0,1-1-1V75a1,1,0,0,1,2,0v5.99951A1,1,0,0,1,79,81.99951Z"/><path class="cls-3" d="M83,81.99951a1,1,0,0,1-1-1V75a1,1,0,0,1,2,0v5.99951A1,1,0,0,1,83,81.99951Z"/><path class="cls-3" d="M87,81.99951a1,1,0,0,1-1-1V75a1,1,0,0,1,2,0v5.99951A1,1,0,0,1,87,81.99951Z"/><path class="cls-3" d="M91,81.99951a1,1,0,0,1-1-1V75a1,1,0,0,1,2,0v5.99951A1,1,0,0,1,91,81.99951Z"/><path class="cls-3" d="M95,81.99951a1,1,0,0,1-1-1V75a1,1,0,0,1,2,0v5.99951A1,1,0,0,1,95,81.99951Z"/><path class="cls-3" d="M99,81.99951a1,1,0,0,1-1-1V75a1,1,0,0,1,2,0v5.99951A1,1,0,0,1,99,81.99951Z"/></g><rect class="cls-6" height="5.9994" width="3" x="63" y="97"/><path class="cls-3" d="M66,103.99951H63a1,1,0,0,1-1-1V97a1,1,0,0,1,1-1h3a1,1,0,0,1,1,1v5.99951A1,1,0,0,1,66,103.99951Zm-2-2h1V98H64Z"/><rect class="cls-6" height="5.9994" width="3" x="72" y="97"/><path class="cls-3" d="M75,103.99951H72a1,1,0,0,1-1-1V97a1,1,0,0,1,1-1h3a1,1,0,0,1,1,1v5.99951A1,1,0,0,1,75,103.99951Zm-2-2h1V98H73Z"/><rect class="cls-6" height="5.9994" width="3" x="81.5" y="97"/><path class="cls-3" d="M84.5,103.99951h-3a1,1,0,0,1-1-1V97a1,1,0,0,1,1-1h3a1,1,0,0,1,1,1v5.99951A1,1,0,0,1,84.5,103.99951Zm-2-2h1V98h-1Z"/><rect class="cls-6" height="5.9994" width="3" x="91" y="97"/><path class="cls-3" d="M94,103.99951H91a1,1,0,0,1-1-1V97a1,1,0,0,1,1-1h3a1,1,0,0,1,1,1v5.99951A1,1,0,0,1,94,103.99951Zm-2-2h1V98H92Z"/><g class="cls-5"><path class="cls-3" d="M91.98926,72H66.01074a1.00005,1.00005,0,0,1-1-1v-.40869C65.01074,59.81885,70.894,52,79,52s13.98926,7.81885,13.98926,18.59131V71A1.00005,1.00005,0,0,1,91.98926,72ZM67.01709,70H90.98291C90.78027,60.69287,85.80371,54,79,54S67.21973,60.69287,67.01709,70Z"/><path class="cls-3" d="M85.69141,72H72.30859a1.00005,1.00005,0,0,1-1-1v-.40869C71.30859,59.645,74.47119,52,79,52s7.69141,7.645,7.69141,18.59131V71A1.00005,1.00005,0,0,1,85.69141,72ZM73.31152,70h11.377C84.58105,59.97021,81.74414,54,79,54S73.419,59.97021,73.31152,70Z"/><path class="cls-3" d="M79,72a1,1,0,0,1-1-1V53a1,1,0,0,1,2,0V71A1,1,0,0,1,79,72Z"/></g><polygon class="cls-6" points="49 63.29 49 67.29 13 76.76 13 72.77 49 63.29"/><polygon class="cls-6" points="11.998 127.031 11.998 77.026 49.998 67.026 49.998 127.031 11.998 127.031"/><path class="cls-3" d="M49.99805,128.03076h-38a1,1,0,0,1-1-1V77.02588a1.00043,1.00043,0,0,1,.7456-.96729l38-10a1.00041,1.00041,0,0,1,1.2544.96729v60.00488A1.00005,1.00005,0,0,1,49.99805,128.03076Zm-37-2h36V68.32324l-36,9.47364Z"/><path class="cls-3" d="M11.99756,74.02588a1.00008,1.00008,0,0,1-.25391-1.96729l38-10a1.00018,1.00018,0,0,1,.50879,1.93457l-38,10A.99767.99767,0,0,1,11.99756,74.02588Z"/><path class="cls-3" d="M12.998,77.7627a1.00005,1.00005,0,0,1-1-1v-4a1,1,0,0,1,2,0v4A1.00006,1.00006,0,0,1,12.998,77.7627Z"/><path class="cls-3" d="M48.99805,68.2876a1.00005,1.00005,0,0,1-1-1v-4a1,1,0,0,1,2,0v4A1.00006,1.00006,0,0,1,48.99805,68.2876Z"/><polygon class="cls-3" points="15.998 127.031 15.998 81.026 45.998 73.026 45.998 127.031 15.998 127.031"/><path class="cls-6" d="M39.99805,128.03076a1,1,0,0,1-1-1V74.626a1,1,0,0,1,2,0v52.40478A1.00005,1.00005,0,0,1,39.99805,128.03076Z"/><path class="cls-6" d="M33.99805,128.03076a1,1,0,0,1-1-1V76.22607a1,1,0,0,1,2,0v50.80469A1.00005,1.00005,0,0,1,33.99805,128.03076Z"/><path class="cls-6" d="M27.99805,128.03076a1,1,0,0,1-1-1V77.82617a1,1,0,0,1,2,0v49.20459A1.00005,1.00005,0,0,1,27.99805,128.03076Z"/><path class="cls-6" d="M21.99805,128.03076a1,1,0,0,1-1-1v-47.605a1,1,0,0,1,2,0v47.605A1.00005,1.00005,0,0,1,21.99805,128.03076Z"/><path class="cls-6" d="M45.99805,112.02832h-30a1,1,0,1,1,0-2h30a1,1,0,0,1,0,2Z"/><path class="cls-6" d="M45.99805,122.02881h-30a1,1,0,0,1,0-2h30a1,1,0,1,1,0,2Z"/><path class="cls-6" d="M45.99805,92.02637h-30a1,1,0,1,1,0-2h30a1,1,0,0,1,0,2Z"/><path class="cls-6" d="M45.99805,82.02637h-30a1,1,0,1,1,0-2h30a1,1,0,0,1,0,2Z"/><path class="cls-6" d="M45.99805,102.02637h-30a1,1,0,1,1,0-2h30a1,1,0,0,1,0,2Z"/><path class="cls-3" d="M45.99805,128.03076h-30a1,1,0,0,1-1-1V81.02588a1.00014,1.00014,0,0,1,.74218-.96631l30-8a1,1,0,0,1,1.25782.96631v54.00488A1.00005,1.00005,0,0,1,45.99805,128.03076Zm-29-2h28V74.32764l-28,7.46631Z"/><path class="cls-3" d="M45.99805,128.03076h-30a1,1,0,0,1,0-2h30a1,1,0,1,1,0,2Z"/><path class="cls-3" d="M101.99805,18.02588a1.00005,1.00005,0,0,1-1-1v-4a1,1,0,0,1,2,0v4A1.00006,1.00006,0,0,1,101.99805,18.02588Z"/><rect class="cls-6" height="4" width="26" x="88.998" y="17.026"/><path class="cls-3" d="M114.99805,22.02588h-26a1.00005,1.00005,0,0,1-1-1v-4a1,1,0,0,1,1-1h26a1.00005,1.00005,0,0,1,1,1v4A1.00006,1.00006,0,0,1,114.99805,22.02588Zm-25-2h24v-2h-24Z"/><rect class="cls-6" height="100.005" width="38" x="82.998" y="21.026"/><path class="cls-3" d="M120.99805,122.03076h-38a1,1,0,0,1-1-1V21.02588a1,1,0,0,1,1-1h38a1.00005,1.00005,0,0,1,1,1V121.03076A1.00005,1.00005,0,0,1,120.99805,122.03076Zm-37-2h36V22.02588h-36Z"/><rect class="cls-3" height="80.005" width="30" x="86.998" y="25.026"/><path class="cls-6" d="M110.99805,106.03076a1,1,0,0,1-1-1V25.02588a1,1,0,0,1,2,0v80.00488A1.00005,1.00005,0,0,1,110.99805,106.03076Z"/><path class="cls-6" d="M104.99805,106.03076a1,1,0,0,1-1-1V25.02588a1,1,0,0,1,2,0v80.00488A1.00005,1.00005,0,0,1,104.99805,106.03076Z"/><path class="cls-6" d="M98.99805,106.03076a1,1,0,0,1-1-1V25.02588a1,1,0,0,1,2,0v80.00488A1.00005,1.00005,0,0,1,98.99805,106.03076Z"/><path class="cls-6" d="M92.99805,106.03076a1,1,0,0,1-1-1V25.02588a1,1,0,0,1,2,0v80.00488A1.00005,1.00005,0,0,1,92.99805,106.03076Z"/><path class="cls-6" d="M116.99805,86.03076h-30a1,1,0,0,1,0-2h30a1,1,0,0,1,0,2Z"/><path class="cls-6" d="M116.99805,96.03125h-30a1,1,0,0,1,0-2h30a1,1,0,0,1,0,2Z"/><path class="cls-6" d="M116.99805,56.02832h-30a1,1,0,0,1,0-2h30a1,1,0,0,1,0,2Z"/><path class="cls-6" d="M116.99805,66.02881h-30a1,1,0,0,1,0-2h30a1,1,0,0,1,0,2Z"/><path class="cls-6" d="M116.99805,76.0293h-30a1,1,0,0,1,0-2h30a1,1,0,0,1,0,2Z"/><path class="cls-6" d="M116.99805,36.02637h-30a1,1,0,0,1,0-2h30a1,1,0,0,1,0,2Z"/><path class="cls-6" d="M116.99805,46.02637h-30a1,1,0,0,1,0-2h30a1,1,0,0,1,0,2Z"/><path class="cls-3" d="M116.99805,106.03076h-30a1,1,0,0,1-1-1V25.02588a1,1,0,0,1,1-1h30a1.00005,1.00005,0,0,1,1,1v80.00488A1.00005,1.00005,0,0,1,116.99805,106.03076Zm-29-2h28V26.02588h-28Z"/><rect class="cls-6" height="16" width="30" x="86.998" y="105.031"/><path class="cls-3" d="M116.99805,122.03076h-30a1,1,0,0,1-1-1v-16a1.00005,1.00005,0,0,1,1-1h30a1.00006,1.00006,0,0,1,1,1v16A1.00005,1.00005,0,0,1,116.99805,122.03076Zm-29-2h28v-14h-28Z"/><path class="cls-3" d="M94.99805,122.03076a1,1,0,0,1-1-1v-16a1,1,0,0,1,2,0v16A1.00005,1.00005,0,0,1,94.99805,122.03076Z"/><path class="cls-3" d="M108.99805,122.03076a1,1,0,0,1-1-1v-16a1,1,0,0,1,2,0v16A1.00005,1.00005,0,0,1,108.99805,122.03076Z"/><path class="cls-3" d="M101.99805,122.03076a1,1,0,0,1-1-1v-16a1,1,0,0,1,2,0v16A1.00005,1.00005,0,0,1,101.99805,122.03076Z"/><path class="cls-3" d="M116.99805,106.03076h-30a1,1,0,0,1,0-2h30a1,1,0,0,1,0,2Z"/></g><path class="cls-6" d="M73,47a1.2467,1.2467,0,0,1-.18994-.02.61588.61588,0,0,1-.19043-.06006.56436.56436,0,0,1-.16992-.09033C72.38965,46.79,72.33984,46.75,72.29,46.71A1.051,1.051,0,0,1,72,46a.9996.9996,0,0,1,.07959-.38037A.9317.9317,0,0,1,72.29,45.29a1.03418,1.03418,0,0,1,1.09961-.21045A.99207.99207,0,0,1,73.71,45.29,1.00646,1.00646,0,0,1,74,46a.61442.61442,0,0,1-.02.18994,1.0788,1.0788,0,0,1-.05029.18994.92589.92589,0,0,1-.1001.16992A.6126.6126,0,0,1,73.71,46.71a.99881.99881,0,0,1-.32031.21A1.08986,1.08986,0,0,1,73,47Z"/><path class="cls-6" d="M74.001,42.99951H72.00146a1,1,0,0,1,0-2H74.001a1,1,0,0,1,0,2Z"/><path class="cls-6" d="M68.00049,42.99854h-3.999a1,1,0,1,1,0-2h3.999a1,1,0,0,1,0,2Z"/><path class="cls-6" d="M69.00049,47h-8a1,1,0,0,1,0-2h8a1,1,0,0,1,0,2Z"/><path class="cls-6" d="M70.94531,13c-1.18457,0-1.87451-.37451-2.05078-1.11279a1.37825,1.37825,0,0,1,.43359-1.3916c-.78808-.49219-1.75341-1.03809-2.72265-1.5254a1.00012,1.00012,0,0,1,.89844-1.7871,31.89319,31.89319,0,0,1,3.43994,1.95556,32.37494,32.37494,0,0,1,3.55029-2.03125,1.00013,1.00013,0,0,1,.90234,1.78516c-1.02343.51758-2.0249,1.08545-2.832,1.59375.60791.70508.5083,1.12451.44336,1.39892C72.74316,13,71.39014,13,70.94531,13Zm.14942-1.16211h0Z"/></g><g class="cls-7"><rect class="cls-6" height="4.005" width="70" x="48.998" y="99.026"/><path class="cls-3" d="M118.99805,104.03076h-70a1,1,0,0,1-1-1V99.02588a1,1,0,0,1,1-1h70a1.00005,1.00005,0,0,1,1,1v4.00488A1.00005,1.00005,0,0,1,118.99805,104.03076Zm-69-2h68v-2.00488h-68Z"/><rect class="cls-6" height="4.005" width="70" x="48.998" y="125.026"/><path class="cls-3" d="M118.99805,130.03076h-70a1,1,0,0,1-1-1v-4.00488a1,1,0,0,1,1-1h70a1.00005,1.00005,0,0,1,1,1v4.00488A1.00005,1.00005,0,0,1,118.99805,130.03076Zm-69-2h68v-2.00488h-68Z"/><rect class="cls-6" height="22.005" width="3" x="113.998" y="77.026"/><path class="cls-3" d="M116.99805,100.03076h-3a1,1,0,0,1-1-1V77.02588a1,1,0,0,1,1-1h3a1.00005,1.00005,0,0,1,1,1V99.03076A1.00005,1.00005,0,0,1,116.99805,100.03076Zm-2-2h1V78.02588h-1Z"/><path class="cls-3" d="M117.99805,95.03076h-5a1,1,0,0,1,0-2h5a1,1,0,0,1,0,2Z"/><rect class="cls-6" height="5.005" width="3" x="70.998" y="94.026"/><path class="cls-3" d="M73.99805,100.03076h-3a1,1,0,0,1-1-1V94.02588a1,1,0,0,1,1-1h3a1.00005,1.00005,0,0,1,1,1v5.00488A1.00005,1.00005,0,0,1,73.99805,100.03076Zm-2-2h1V95.02588h-1Z"/><path class="cls-3" d="M74.99805,95.03076h-5a1,1,0,0,1,0-2h5a1,1,0,0,1,0,2Z"/><rect class="cls-6" height="5.005" width="3" x="93.998" y="94.026"/><path class="cls-3" d="M96.99805,100.03076h-3a1,1,0,0,1-1-1V94.02588a1,1,0,0,1,1-1h3a1.00005,1.00005,0,0,1,1,1v5.00488A1.00005,1.00005,0,0,1,96.99805,100.03076Zm-2-2h1V95.02588h-1Z"/><path class="cls-3" d="M97.99805,95.03076h-5a1,1,0,0,1,0-2h5a1,1,0,0,1,0,2Z"/><path class="cls-3" d="M117.99805,83.03076h-5a1,1,0,0,1,0-2h5a1,1,0,0,1,0,2Z"/><rect class="cls-6" height="22.005" width="3" x="50.998" y="77.026"/><path class="cls-3" d="M53.99805,100.03076h-3a1,1,0,0,1-1-1V77.02588a1,1,0,0,1,1-1h3a1.00005,1.00005,0,0,1,1,1V99.03076A1.00005,1.00005,0,0,1,53.99805,100.03076Zm-2-2h1V78.02588h-1Z"/><path class="cls-3" d="M54.99805,95.03076h-5a1,1,0,1,1,0-2h5a1,1,0,0,1,0,2Z"/><path class="cls-3" d="M54.99805,83.03076h-5a1,1,0,1,1,0-2h5a1,1,0,0,1,0,2Z"/><path class="cls-3" d="M117.99805,121.03076h-1a1,1,0,0,1,0-2h1a1,1,0,0,1,0,2Z"/><rect class="cls-6" height="22.005" width="3" x="88.998" y="103.026"/><path class="cls-3" d="M91.99805,126.03076h-3a1,1,0,0,1-1-1V103.02588a1,1,0,0,1,1-1h3a1.00005,1.00005,0,0,1,1,1v22.00488A1.00005,1.00005,0,0,1,91.99805,126.03076Zm-2-2h1V104.02588h-1Z"/><path class="cls-3" d="M92.99805,121.03076h-5a1,1,0,0,1,0-2h5a1,1,0,0,1,0,2Z"/><rect class="cls-6" height="22.005" width="3" x="107.998" y="103.026"/><path class="cls-3" d="M110.99805,126.03076h-3a1,1,0,0,1-1-1V103.02588a1,1,0,0,1,1-1h3a1.00005,1.00005,0,0,1,1,1v22.00488A1.00005,1.00005,0,0,1,110.99805,126.03076Zm-2-2h1V104.02588h-1Z"/><path class="cls-3" d="M111.99805,121.03076h-5a1,1,0,0,1,0-2h5a1,1,0,0,1,0,2Z"/><path class="cls-3" d="M117.99805,109.03076h-1a1,1,0,0,1,0-2h1a1,1,0,0,1,0,2Z"/><path class="cls-3" d="M92.99805,109.03076h-5a1,1,0,0,1,0-2h5a1,1,0,0,1,0,2Z"/><path class="cls-3" d="M111.99805,109.03076h-5a1,1,0,0,1,0-2h5a1,1,0,0,1,0,2Z"/><rect class="cls-6" height="22.005" width="22" x="72.998" y="103.026"/><path class="cls-3" d="M94.99805,126.03076h-22a1,1,0,0,1-1-1V103.02588a1,1,0,0,1,1-1h22a1.00005,1.00005,0,0,1,1,1v22.00488A1.00005,1.00005,0,0,1,94.99805,126.03076Zm-21-2h20V104.02588h-20Z"/><rect class="cls-8" height="18.005" width="12" x="77.998" y="107.026"/><g class="cls-5"><path class="cls-3" d="M83.99805,126.03076a1,1,0,0,1-1-1V107.02588a1,1,0,0,1,2,0v18.00488A1.00005,1.00005,0,0,1,83.99805,126.03076Z"/></g><path class="cls-3" d="M89.99805,126.03076h-12a1,1,0,0,1-1-1V107.02588a1,1,0,0,1,1-1h12a1.00005,1.00005,0,0,1,1,1v18.00488A1.00005,1.00005,0,0,1,89.99805,126.03076Zm-11-2h10V108.02588h-10Z"/><rect class="cls-6" height="22.005" width="22" x="94.998" y="103.026"/><path class="cls-3" d="M116.99805,126.03076h-22a1,1,0,0,1-1-1V103.02588a1,1,0,0,1,1-1h22a1.00005,1.00005,0,0,1,1,1v22.00488A1.00005,1.00005,0,0,1,116.99805,126.03076Zm-21-2h20V104.02588h-20Z"/><rect class="cls-8" height="18.005" width="12" x="99.998" y="107.026"/><g class="cls-5"><path class="cls-3" d="M105.99805,126.03076a1,1,0,0,1-1-1V107.02588a1,1,0,0,1,2,0v18.00488A1.00005,1.00005,0,0,1,105.99805,126.03076Z"/></g><path class="cls-3" d="M111.99805,126.03076h-12a1,1,0,0,1-1-1V107.02588a1,1,0,0,1,1-1h12a1.00005,1.00005,0,0,1,1,1v18.00488A1.00005,1.00005,0,0,1,111.99805,126.03076Zm-11-2h10V108.02588h-10Z"/><rect class="cls-6" height="22.005" width="3" x="50.998" y="103.026"/><path class="cls-3" d="M53.99805,126.03076h-3a1,1,0,0,1-1-1V103.02588a1,1,0,0,1,1-1h3a1.00005,1.00005,0,0,1,1,1v22.00488A1.00005,1.00005,0,0,1,53.99805,126.03076Zm-2-2h1V104.02588h-1Z"/><path class="cls-3" d="M54.99805,121.03076h-5a1,1,0,1,1,0-2h5a1,1,0,0,1,0,2Z"/><path class="cls-3" d="M54.99805,109.03076h-5a1,1,0,1,1,0-2h5a1,1,0,0,1,0,2Z"/></g><g class="cls-9"><polygon class="cls-6" points="57.345 24.028 65.402 34.028 67.97 34.028 67.97 32.425 61.204 24.028 57.345 24.028"/><path class="cls-3" d="M67.9707,35.02734H65.40234a1.00088,1.00088,0,0,1-.7788-.37255l-8.05762-10a1.00023,1.00023,0,0,1,.77881-1.62745H61.2041a1.0009,1.0009,0,0,1,.77881.37256l6.7666,8.398a1.00131,1.00131,0,0,1,.22119.62744v1.60205A1,1,0,0,1,67.9707,35.02734Zm-2.08984-2H66.9707v-.24951l-6.24511-7.75049h-1.291Z"/><polygon class="cls-6" points="52.001 32.457 52.001 34.028 54.595 34.028 62.653 24.028 58.794 24.028 52.001 32.457"/><path class="cls-3" d="M54.5957,35.02734H52.00146a1.00005,1.00005,0,0,1-1-1V32.45752a1.00027,1.00027,0,0,1,.2212-.62744l6.793-8.43018a1.00093,1.00093,0,0,1,.77881-.37256h3.85889a1.00023,1.00023,0,0,1,.77881,1.62745l-8.05762,10A1.00089,1.00089,0,0,1,54.5957,35.02734Zm-1.59424-2h1.11573l6.44629-8H59.273l-6.27149,7.78272Z"/><polygon class="cls-6" points="76.345 24.028 84.402 34.028 86.97 34.028 86.97 32.425 80.204 24.028 76.345 24.028"/><path class="cls-3" d="M86.9707,35.02734H84.40234a1.00088,1.00088,0,0,1-.7788-.37255l-8.05762-10a1.00023,1.00023,0,0,1,.77881-1.62745H80.2041a1.0009,1.0009,0,0,1,.77881.37256l6.7666,8.398a1.00131,1.00131,0,0,1,.22119.62744v1.60205A1,1,0,0,1,86.9707,35.02734Zm-2.08984-2H85.9707v-.24951l-6.24511-7.75049h-1.291Z"/><polygon class="cls-6" points="71.001 32.457 71.001 34.028 73.595 34.028 81.653 24.028 77.794 24.028 71.001 32.457"/><path class="cls-3" d="M73.5957,35.02734H71.00146a1.00005,1.00005,0,0,1-1-1V32.45752a1.00027,1.00027,0,0,1,.2212-.62744l6.793-8.43018a1.00093,1.00093,0,0,1,.77881-.37256h3.85889a1.00023,1.00023,0,0,1,.77881,1.62745l-8.05762,10A1.00089,1.00089,0,0,1,73.5957,35.02734Zm-1.59424-2h1.11573l6.44629-8H78.273l-6.27149,7.78272Z"/><polygon class="cls-6" points="38.345 24.028 46.402 34.028 48.97 34.028 48.97 32.425 42.204 24.028 38.345 24.028"/><path class="cls-3" d="M48.9707,35.02734H46.40234a1.00088,1.00088,0,0,1-.7788-.37255l-8.05762-10a1.00023,1.00023,0,0,1,.77881-1.62745H42.2041a1.0009,1.0009,0,0,1,.77881.37256l6.7666,8.398a1.00131,1.00131,0,0,1,.22119.62744v1.60205A1,1,0,0,1,48.9707,35.02734Zm-2.08984-2H47.9707v-.24951l-6.24511-7.75049h-1.291Z"/><polygon class="cls-6" points="33.001 32.457 33.001 34.028 35.595 34.028 43.653 24.028 39.794 24.028 33.001 32.457"/><path class="cls-3" d="M35.5957,35.02734H33.00146a1.00005,1.00005,0,0,1-1-1V32.45752a1.00027,1.00027,0,0,1,.2212-.62744l6.793-8.43018a1.00093,1.00093,0,0,1,.77881-.37256h3.85889a1.00023,1.00023,0,0,1,.77881,1.62745l-8.05762,10A1.00089,1.00089,0,0,1,35.5957,35.02734Zm-1.59424-2h1.11573l6.44629-8H40.273l-6.27149,7.78272Z"/><polygon class="cls-6" points="19.345 24.028 27.402 34.028 29.97 34.028 29.97 32.425 23.204 24.028 19.345 24.028"/><path class="cls-3" d="M29.9707,35.02734H27.40234a1.00088,1.00088,0,0,1-.7788-.37255l-8.05762-10a1.00023,1.00023,0,0,1,.77881-1.62745H23.2041a1.0009,1.0009,0,0,1,.77881.37256l6.7666,8.398a1.00131,1.00131,0,0,1,.22119.62744v1.60205A1,1,0,0,1,29.9707,35.02734Zm-2.08984-2H28.9707v-.24951l-6.24511-7.75049h-1.291Z"/><polygon class="cls-6" points="14.001 32.457 14.001 34.028 16.595 34.028 24.653 24.028 20.794 24.028 14.001 32.457"/><path class="cls-3" d="M16.5957,35.02734H14.00146a1.00005,1.00005,0,0,1-1-1V32.45752a1.00027,1.00027,0,0,1,.2212-.62744l6.793-8.43018a1.00093,1.00093,0,0,1,.77881-.37256h3.85889a1.00023,1.00023,0,0,1,.77881,1.62745l-8.05762,10A1.00089,1.00089,0,0,1,16.5957,35.02734Zm-1.59424-2h1.11573l6.44629-8H21.273l-6.27149,7.78272Z"/><path class="cls-6" d="M103,37.0295h4.00149l-13-16h-3.0289l-.0021-.0022h-77v.0022h-2.974v16h3.005v-.0022h88.99679ZM86.99679,24.0273v10h-15.995v-10Zm-19,0v10h-15.995v-10Zm-19,0v10H33.0018v-10Zm-34.9953,0H29.9968v10H14.0015Zm76.00029,10v-10h2.434l8.1251,10Z"/><path class="cls-3" d="M10.99658,38.0293a.99943.99943,0,0,1-1-1v-16a1.00005,1.00005,0,0,1,1-1l79.97412-.002c.021,0,.04151.00049.0625.002h2.96826a.99831.99831,0,0,1,.77588.36963l13,16a.99981.99981,0,0,1-.77588,1.63037H103c-.021,0-.0415-.00049-.0625-.002l-91.94043.002Zm92.06446-2h1.83935l-11.375-14H90.97266c-.021,0-.04151-.00049-.0625-.002l-78.91358.00147V36.0293l91.002-.002C103.01953,36.02734,103.04,36.02783,103.061,36.0293Zm-2.5-1.002H90.00195a1.00005,1.00005,0,0,1-1-1v-10a1.00006,1.00006,0,0,1,1-1H92.436a.99834.99834,0,0,1,.77587.36963l8.125,10a.99981.99981,0,0,1-.77587,1.63037Zm-9.55909-2H98.46l-6.5-8h-.958Zm-4.00537,2H71.00195a1.00005,1.00005,0,0,1-1-1v-10a1.00006,1.00006,0,0,1,1-1H86.99658a1.00005,1.00005,0,0,1,1,1v10A1,1,0,0,1,86.99658,35.02734Zm-14.99463-2H85.99658v-8H72.00195Zm-4.00537,2H52.002a1.00005,1.00005,0,0,1-1-1v-10a1.00006,1.00006,0,0,1,1-1H67.99658a1.00005,1.00005,0,0,1,1,1v10A1,1,0,0,1,67.99658,35.02734Zm-14.99463-2H66.99658v-8H53.002Zm-4.00537,2H33.002a1.00005,1.00005,0,0,1-1-1v-10a1.00006,1.00006,0,0,1,1-1H48.99658a1.00005,1.00005,0,0,1,1,1v10A1,1,0,0,1,48.99658,35.02734Zm-14.99463-2H47.99658v-8H34.002Zm-4.00537,2H14.00146a1.00005,1.00005,0,0,1-1-1v-10a1.00006,1.00006,0,0,1,1-1H29.99658a1.00005,1.00005,0,0,1,1,1v10A1,1,0,0,1,29.99658,35.02734Zm-14.99512-2H28.99658v-8H15.00146Z"/><path class="cls-3" d="M38,17H29a.99992.99992,0,0,1-.91357-1.40625l4-9A.99983.99983,0,0,1,33,6h5a1,1,0,0,1,1,1v9A1,1,0,0,1,38,17Zm-7.46143-2H37V8H33.6499Z"/><path class="cls-3" d="M38,12H31.22217a1,1,0,0,1,0-2H38a1,1,0,0,1,0,2Z"/><path class="cls-6" d="M25,34H43v3a1,1,0,0,1-1,1H26a1,1,0,0,1-1-1Z"/><path class="cls-3" d="M42,39H26a2.002,2.002,0,0,1-2-2V34a1,1,0,0,1,1-1H43a1,1,0,0,1,1,1v3A2.002,2.002,0,0,1,42,39ZM26,35v2H42V35Z"/><rect class="cls-6" height="4" width="8" x="90" y="34"/><path class="cls-3" d="M98,39H90a1,1,0,0,1-1-1V34a1,1,0,0,1,1-1h8a1,1,0,0,1,1,1v4A1,1,0,0,1,98,39Zm-7-2h6V35H91Z"/><rect class="cls-6" height="14" width="4" x="7" y="22"/><rect class="cls-6" height="14" width="4" x="3" y="22"/><path class="cls-3" d="M11,37H7a1,1,0,0,1-1-1V22a1,1,0,0,1,1-1h4a1,1,0,0,1,1,1V36A1,1,0,0,1,11,37ZM8,35h2V23H8Z"/><path class="cls-3" d="M7,37H3a1,1,0,0,1-1-1V22a1,1,0,0,1,1-1H7a1,1,0,0,1,1,1V36A1,1,0,0,1,7,37ZM4,35H6V23H4Z"/><path class="cls-6" d="M42.5528,17.1056l1.8203,3.6406a10.47356,10.47356,0,0,1-.4863,10.2349L42.5875,33.06a1.99992,1.99992,0,0,1-1.696.94H25V18a2,2,0,0,1,2-2H40.7639A2,2,0,0,1,42.5528,17.1056Z"/><path class="cls-3" d="M42.5528,17.1056l1.8203,3.6406a10.47356,10.47356,0,0,1-.4863,10.2349h0l-6.8426-3.8353A4.00008,4.00008,0,0,1,35,23.6565V16h5.7639A2,2,0,0,1,42.5528,17.1056Z"/><path class="cls-3" d="M43.88574,31.981a.996.996,0,0,1-.48779-.12744l-6.84229-3.835A5.0062,5.0062,0,0,1,34,23.65674V16a1,1,0,0,1,2,0v7.65674a3.00382,3.00382,0,0,0,1.53369,2.61719l6.8418,3.83447a1,1,0,0,1-.48975,1.87256Z"/><path class="cls-3" d="M40.8916,35H25a1,1,0,0,1-1-1V18a3.00328,3.00328,0,0,1,3-3H40.76367a2.9843,2.9843,0,0,1,2.6836,1.6582h0l1.82031,3.64063a11.54375,11.54375,0,0,1-.53272,11.2124l-1.29931,2.07861A2.982,2.982,0,0,1,40.8916,35ZM26,33H40.8916a.9937.9937,0,0,0,.84766-.46973l1.29931-2.0791a9.53035,9.53035,0,0,0,.44-9.25781L41.6582,17.55273A.99469.99469,0,0,0,40.76367,17H27a1.0013,1.0013,0,0,0-1,1Z"/><path class="cls-3" d="M81,22.00049a.9933.9933,0,0,1-.30957-.04981l-43-14a.99981.99981,0,1,1,.61914-1.90136l43,14A1.00023,1.00023,0,0,1,81,22.00049Z"/><path class="cls-3" d="M13.001,22a1,1,0,0,1-.57422-1.81934l20-14a1,1,0,0,1,1.14648,1.63868l-20,14A.99512.99512,0,0,1,13.001,22Z"/><path class="cls-3" d="M96,49a1,1,0,0,1-1-1V38a1,1,0,0,1,2,0V48A1,1,0,0,1,96,49Z"/><path class="cls-3" d="M92,49a1,1,0,0,1-1-1V38a1,1,0,0,1,2,0V48A1,1,0,0,1,92,49Z"/><path class="cls-3" d="M94,56a1,1,0,0,1-1-1V52a1,1,0,0,1,2,0v3A1,1,0,0,1,94,56Z"/><circle class="cls-6" cx="93.99989" cy="49.0013" r="3"/><path class="cls-3" d="M94,53.00146a4,4,0,1,1,4-4A4.00458,4.00458,0,0,1,94,53.00146Zm0-6a2,2,0,1,0,2,2A2.002,2.002,0,0,0,94,47.00146Z"/><path class="cls-3" d="M94,60.00146a3.015,3.015,0,0,1-2.16992-.92822,1.00015,1.00015,0,1,1,1.44629-1.38183A.99074.99074,0,0,0,94,58.00146a1,1,0,0,0,0-2,1,1,0,0,1,0-2,3,3,0,0,1,0,6Z"/><circle class="cls-8" cx="93.99989" cy="49.0013" r="1"/><polygon class="cls-6" points="39 84.374 29 92.432 29 95 30.602 95 39 88.233 39 84.374"/><path class="cls-3" d="M30.60254,96H29a1,1,0,0,1-1-1V92.43213a1.0009,1.0009,0,0,1,.37256-.77881l10-8.05762A1.00023,1.00023,0,0,1,40,84.37451V88.2334a1.00091,1.00091,0,0,1-.37256.77881L31.23,95.77881A1.00028,1.00028,0,0,1,30.60254,96ZM30,94h.25L38,87.75488V86.46436l-8,6.44628Z"/><polygon class="cls-6" points="30.57 79.031 29 79.031 29 81.625 39 89.683 39 85.824 30.57 79.031"/><path class="cls-3" d="M39,90.68262a.99923.99923,0,0,1-.62744-.22119l-10-8.05762A1.00091,1.00091,0,0,1,28,81.625V79.03076a1.00005,1.00005,0,0,1,1-1h1.57031a1.00032,1.00032,0,0,1,.62744.22119l8.42969,6.793A1.00091,1.00091,0,0,1,40,85.82373v3.85889a1.00053,1.00053,0,0,1-1,1Zm-9-9.53614,8,6.44629V86.30225l-7.78223-6.27149H30Z"/><polygon class="cls-6" points="39 103.374 29 111.432 29 114 30.602 114 39 107.233 39 103.374"/><path class="cls-3" d="M30.60254,115H29a1,1,0,0,1-1-1v-2.56787a1.0009,1.0009,0,0,1,.37256-.77881l10-8.05762A1.00023,1.00023,0,0,1,40,103.37451v3.85889a1.00091,1.00091,0,0,1-.37256.77881L31.23,114.77881A1.00028,1.00028,0,0,1,30.60254,115ZM30,113h.25L38,106.75488v-1.29052l-8,6.44628Z"/><polygon class="cls-6" points="30.57 98.031 29 98.031 29 100.625 39 108.683 39 104.824 30.57 98.031"/><path class="cls-3" d="M39,109.68262a.99923.99923,0,0,1-.62744-.22119l-10-8.05762A1.00091,1.00091,0,0,1,28,100.625V98.03076a1.00005,1.00005,0,0,1,1-1h1.57031a1.00032,1.00032,0,0,1,.62744.22119l8.42969,6.793A1.00091,1.00091,0,0,1,40,104.82373v3.85889a1.00053,1.00053,0,0,1-1,1Zm-9-9.53614,8,6.44629v-1.29052l-7.78223-6.27149H30Z"/><polygon class="cls-6" points="39 122.374 29 130.432 29 133 30.602 133 39 126.233 39 122.374"/><path class="cls-3" d="M30.60254,134H29a1,1,0,0,1-1-1v-2.56787a1.0009,1.0009,0,0,1,.37256-.77881l10-8.05762A1.00023,1.00023,0,0,1,40,122.37451v3.85889a1.00091,1.00091,0,0,1-.37256.77881L31.23,133.77881A1.00028,1.00028,0,0,1,30.60254,134ZM30,132h.25L38,125.75488v-1.29052l-8,6.44628Z"/><polygon class="cls-6" points="30.57 117.031 29 117.031 29 119.625 39 127.683 39 123.824 30.57 117.031"/><path class="cls-3" d="M39,128.68262a.99923.99923,0,0,1-.62744-.22119l-10-8.05762A1.00091,1.00091,0,0,1,28,119.625v-2.59424a1.00005,1.00005,0,0,1,1-1h1.57031a1.00032,1.00032,0,0,1,.62744.22119l8.42969,6.793A1.00091,1.00091,0,0,1,40,123.82373v3.85889a1.00053,1.00053,0,0,1-1,1Zm-9-9.53614,8,6.44629v-1.29052l-7.78223-6.27149H30Z"/><polygon class="cls-6" points="39 65.374 29 73.432 29 76 30.602 76 39 69.233 39 65.374"/><path class="cls-3" d="M30.60254,77H29a1,1,0,0,1-1-1V73.43213a1.0009,1.0009,0,0,1,.37256-.77881l10-8.05762A1.00023,1.00023,0,0,1,40,65.37451V69.2334a1.00091,1.00091,0,0,1-.37256.77881L31.23,76.77881A1.00028,1.00028,0,0,1,30.60254,77ZM30,75h.25L38,68.75488V67.46436l-8,6.44628Z"/><polygon class="cls-6" points="30.57 60.031 29 60.031 29 62.625 39 70.683 39 66.824 30.57 60.031"/><path class="cls-3" d="M39,71.68262a.99923.99923,0,0,1-.62744-.22119l-10-8.05762A1.00091,1.00091,0,0,1,28,62.625V60.03076a1.00005,1.00005,0,0,1,1-1h1.57031a1.00032,1.00032,0,0,1,.62744.22119l8.42969,6.793A1.00091,1.00091,0,0,1,40,66.82373v3.85889a1.00053,1.00053,0,0,1-1,1Zm-9-9.53614,8,6.44629V67.30225l-7.78223-6.27149H30Z"/><polygon class="cls-6" points="39 46.374 29 54.432 29 57 30.602 57 39 50.233 39 46.374"/><path class="cls-3" d="M30.60254,58H29a1,1,0,0,1-1-1V54.43213a1.0009,1.0009,0,0,1,.37256-.77881l10-8.05762A1.00023,1.00023,0,0,1,40,46.37451V50.2334a1.00091,1.00091,0,0,1-.37256.77881L31.23,57.77881A1.00028,1.00028,0,0,1,30.60254,58ZM30,56h.25L38,49.75488V48.46436l-8,6.44628Z"/><polygon class="cls-6" points="30.57 41.031 29 41.031 29 43.625 39 51.683 39 47.824 30.57 41.031"/><path class="cls-3" d="M39,52.68262a.99923.99923,0,0,1-.62744-.22119l-10-8.05762A1.00091,1.00091,0,0,1,28,43.625V41.03076a1.00005,1.00005,0,0,1,1-1h1.57031a1.00032,1.00032,0,0,1,.62744.22119l8.42969,6.793A1.00091,1.00091,0,0,1,40,47.82373v3.85889a1.00053,1.00053,0,0,1-1,1Zm-9-9.53614,8,6.44629V48.30225l-7.78223-6.27149H30Z"/><path class="cls-6" d="M41.998,41V38.0259h-16V41.031H26V135h3V117.031H39V135h3V41ZM39,41.031V57.0259H29V41.031Zm-10,38H39V95.0259H29Zm0-3.0051V60.031H39V76.0259Zm0,38V98.031H39v15.9949Z"/><path class="cls-3" d="M42,136H39a1,1,0,0,1-1-1V118.03076H30V135a1,1,0,0,1-1,1H26a1,1,0,0,1-1-1l-.002-96.97363a.99943.99943,0,0,1,1-1.00049h16a1.00005,1.00005,0,0,1,1,1L43,135a1.00026,1.00026,0,0,1-1,1Zm-2-2h1l-.002-94.97412h-14L27,134h1V117.03076a1.00005,1.00005,0,0,1,1-1H39a1.00005,1.00005,0,0,1,1,1Zm-1-18.97412H29a1.00005,1.00005,0,0,1-1-1V98.03076a1.00005,1.00005,0,0,1,1-1H39a1.00005,1.00005,0,0,1,1,1v15.99512A1.00005,1.00005,0,0,1,39,115.02588Zm-9-2h8V99.03076H30Zm9-17H29a1.00005,1.00005,0,0,1-1-1V79.03076a1.00005,1.00005,0,0,1,1-1H39a1.00005,1.00005,0,0,1,1,1V95.02588A1.00005,1.00005,0,0,1,39,96.02588Zm-9-2h8V80.03076H30Zm9-17H29a1.00005,1.00005,0,0,1-1-1V60.03076a1.00005,1.00005,0,0,1,1-1H39a1.00005,1.00005,0,0,1,1,1V76.02588A1.00005,1.00005,0,0,1,39,77.02588Zm-9-2h8V61.03076H30Zm9-17H29a1.00005,1.00005,0,0,1-1-1V41.03076a1.00005,1.00005,0,0,1,1-1H39a1.00005,1.00005,0,0,1,1,1V57.02588A1.00005,1.00005,0,0,1,39,58.02588Zm-9-2h8V42.03076H30Z"/><rect class="cls-6" height="22.005" width="22" x="82.998" y="65.026"/><path class="cls-3" d="M104.99805,88.03076h-22a1,1,0,0,1-1-1V65.02588a1,1,0,0,1,1-1h22a1.00005,1.00005,0,0,1,1,1V87.03076A1.00005,1.00005,0,0,1,104.99805,88.03076Zm-21-2h20V66.02588h-20Z"/><path class="cls-3" d="M106.99805,66.02588h-26a1,1,0,0,1,0-2h26a1,1,0,0,1,0,2Z"/><rect class="cls-8" height="18.005" width="12" x="87.998" y="69.026"/><g class="cls-5"><path class="cls-3" d="M93.99805,88.03076a1,1,0,0,1-1-1V69.02588a1,1,0,0,1,2,0V87.03076A1.00005,1.00005,0,0,1,93.99805,88.03076Z"/></g><path class="cls-3" d="M99.99805,88.03076h-12a1,1,0,0,1-1-1V69.02588a1,1,0,0,1,1-1h12a1.00005,1.00005,0,0,1,1,1V87.03076A1.00005,1.00005,0,0,1,99.99805,88.03076Zm-11-2h10V70.02588h-10Z"/><path class="cls-3" d="M105.99707,66.02588a.99607.99607,0,0,1-.44629-.10547L93.99805,60.144,82.44531,65.92041a1.00011,1.00011,0,0,1-.89453-1.78906l12-6a1.00107,1.00107,0,0,1,.89453,0l12,6a1,1,0,0,1-.44824,1.89453Z"/></g></svg>