<?xml version="1.0" encoding="UTF-8"?><svg id="Layer_1" xmlns="http://www.w3.org/2000/svg" viewBox="0 0 1250 1250"><defs><style>.cls-1{fill:#0c2340;}</style></defs><path class="cls-1" d="M574.17,396.58l-28.5,63.4h41.82l28.5-52.61h0c31.36,16.69,55.31,44.85,66.94,78.58l6.75,19.56c3.71,10.62,14,17.37,25.13,16.19l19.05-1.86-20.07-75.21c-4.72-17.87-14.33-34.23-27.65-47.22h0c-25.8-25.13-36.09-62.05-26.98-96.79h0c11.13,15.51,27.99,25.8,46.88,28.84l33.89,5.4h0c5.73-13.83-1.86-29.51-16.19-33.56h0c-15.01-4.22-27.49-14.33-34.74-28.16-7.59-14.5-17.37-31.36-23.61-43.67-5.56-10.45-19.73-13.66-30.52-10.45-11.47,4.72-22.43,10.45-33.56,16.02h0c-12.65,6.58-25.8,13.66-36.42,19.39h-.17c-13.83,7.76-23.61,21.08-26.64,36.59l-6.75,34.91c-2.19,11.47,8.09,21.25,19.39,18.38h0l13.49-37.1c4.55-12.65,14.16-22.76,26.47-28.16h0l-6.75,80.27c-1.01,12.82-4.38,25.46-9.61,37.27h-.17Z"/><path class="cls-1" d="M640.78,183.1c2.36-37.1,51.26-33.73,54.13-2.87,2.36,38.95-53.12,39.46-54.13,2.87Z"/><path class="cls-1" d="M492.39,328.63v186.33s175.2,0,175.2,0h0c-4.54-13.22-16.97-22.09-30.94-22.09h-109.75c-6.86,0-12.42-5.56-12.42-12.42v-129.73c0-12.2-9.89-22.09-22.09-22.09h0Z"/><path class="cls-1" d="M623.83,455.44h-38.87s-2.02,3.71-2.02,3.71h-31.87v-63.18c0-11.55-10.91-19.99-22.09-17.09h0v98.65h125.8,0c-4.54-13.22-16.97-22.09-30.95-22.09Z"/><path class="cls-1" d="M649.85,527.27h-160.89c-6.86,0-12.42-5.56-12.42-12.42v-201.23c0-12.29-9.97-22.26-22.26-22.26h0v258h226.3,0c-4.43-13.2-16.8-22.09-30.72-22.09Z"/><path class="cls-1" d="M615.99,184.28c.51-8.43,2.36-15.68,5.06-21.92h-208.78c0,12.2,9.89,22.09,22.09,22.09h181.63v-.17Z"/><path class="cls-1" d="M798.61,225.77c-20.9-26.09-48.94-46.04-80.15-57.39l1.37,10.24.05.52.35,5.6c.32,5.05,3.31,9.55,7.85,11.8,53.12,26.28,87.9,80.59,87.9,142.04,0,55.68-20.82,92.28-54.21,119.78-10.29,8.47-14.64,22.19-11.05,35.02h0c17.87-10.79,33.89-24.62,47.22-40.98,25.97-32.04,40.3-72.51,40.3-113.82s-13.66-80.27-39.46-112.64l-.17-.17Z"/><path class="cls-1" d="M779.05,325.93c.34,4.05.67,8.09.67,12.14,0,30.29-11.6,58.61-30.83,80.21-9.03,10.14-12.5,24.08-8.84,37.16l.05.17h0c11.13-7.76,21.25-17.03,30.01-27.65,20.57-25.29,31.7-57.16,31.7-89.71s-11.13-63.74-31.2-88.87c-14.67-18.55-33.89-32.88-55.48-42.16h0c-.03.08-.07.15-.1.22-4.82,10.47-1.25,22.78,8.51,28.92,25.14,15.83,43.59,40.47,51.63,69.33"/><path class="cls-1" d="M578.72,212.28h0l25-12.98s0,0,0,0h-154.02c0,12.2,9.89,22.09,22.09,22.09h70.61c12.66,0,25.12-3.09,36.31-9.01l.17-.09h-.17Z"/><path class="cls-1" d="M827.28,201.15c-30.18-37.77-72.34-64.75-118.88-75.88h0c-.9-.22-1.82-.34-2.74-.34h-330.66c0,12.2,9.89,22.09,22.09,22.09h236.94s0,0,0,0c19.22-15.35,47.89-14.33,67.11,0h0s0,0,0,0c2.24,0,4.48.27,6.64.84,85.6,22.86,144.96,99.78,144.96,188.86,0,80.55-31.18,124.93-79.87,158.01-10.8,7.34-15.6,20.83-12.03,33.39h0c25.13-13.66,47.55-32.04,65.6-54.47,31.36-38.62,48.56-87.18,48.56-136.92s-16.86-97.3-47.55-135.58h-.17Z"/><path class="cls-1" d="M1125,618.39H125v19.07h1000v-19.07Z"/><path class="cls-1" d="M311.65,793.84c0,60.4-50.34,87.9-93.32,87.9h-93.33v-.54c4.81-3.77,9.62-6.74,15.84-10.25v-153.69c-6.22-3.24-11.03-6.2-15.84-9.98v-.54h88.52c48.64,0,98.13,27.77,98.13,87.09ZM256.22,793.57c0-63.63-15.56-81.43-46.38-81.43h-18.67v157.73c9.33,5.12,16.69,6.47,24.32,6.47,24.6,0,40.72-16.18,40.72-82.78Z"/><path class="cls-1" d="M472.28,870.95c6.79,3.78,11.03,6.47,15.84,10.25v.54h-83.99v-.54c4.53-3.24,9.33-6.47,16.12-10.25l-15.27-40.98h-59.95l-11.6,30.47c8.77,7.01,14.99,12.4,23.76,20.76v.54h-55.15v-.54c7.07-6.74,14.71-12.94,25.17-20.76l59.67-153.96h23.76l61.65,164.47ZM347,824.58h56l-27.71-74.42-28.28,74.42Z"/><path class="cls-1" d="M638.58,812.99c1.13,18.33,1.98,52.85,1.98,68.75h-146.49v-.54c4.81-3.77,9.62-6.74,15.84-10.25v-153.69c-6.22-3.24-11.03-6.2-15.84-9.98v-.54h82.3v.54c-4.53,3.51-9.62,6.74-16.12,9.98v153.69l16.97,5.39h13.29l46.66-63.36h1.41Z"/><path class="cls-1" d="M797.79,812.99c1.13,18.33,1.98,52.85,1.98,68.75h-146.49v-.54c4.81-3.77,9.62-6.74,15.84-10.25v-153.69c-6.22-3.24-11.03-6.2-15.84-9.98v-.54h82.3v.54c-4.53,3.51-9.62,6.74-16.12,9.98v153.69l16.97,5.39h13.29l46.66-63.36h1.41Z"/><path class="cls-1" d="M967.76,870.95c6.79,3.78,11.03,6.47,15.84,10.25v.54h-83.99v-.54c4.53-3.24,9.33-6.47,16.12-10.25l-15.27-40.98h-59.95l-11.6,30.47c8.77,7.01,14.99,12.4,23.76,20.76v.54h-55.15v-.54c7.07-6.74,14.71-12.94,25.17-20.76l59.67-153.96h23.76l61.65,164.47ZM842.47,824.58h56l-27.71-74.42-28.28,74.42Z"/><path class="cls-1" d="M990.38,875c.28-20.76.85-40.72,1.7-56.62h1.41l48.64,60.13c2.55.81,4.53,1.08,7.64,1.08,17.82,0,31.68-8.9,31.68-25.88,0-44.49-88.24-44.76-88.24-99.76,0-31.01,28.28-50.15,72.4-50.15,19.51,0,37.9,3.77,52.6,10.51,0,13.21-.85,33.97-1.98,53.93h-1.41l-44.68-57.43c-1.98-1.08-3.96-1.62-7.35-1.62-14.42,0-25.73,7.82-25.73,21.3,0,42.33,87.95,46.91,87.95,104.61,0,31.82-27.71,49.88-75.23,49.88-22.06,0-45.53-4.05-59.39-9.98Z"/><path class="cls-1" d="M125,1125.07h1000v-19.07H125v19.07Z"/><path class="cls-1" d="M211.93,920.24h34.24v.38c-4.19,4.76-9.32,9.7-15.22,14.65v66.96c0,24.54-9.89,43.37-44.32,43.37-31.77,0-50.79-15.98-50.79-43.56v-74.38c-4.19-2.28-7.42-4.37-10.84-7.04v-.38h54.21v.38c-2.66,2.47-5.52,4.76-9.51,7.04v74.57c-.38,21.87,9.89,37.47,28.72,37.47s28.72-14.27,28.72-37.47v-66.96c-5.71-4.95-10.84-9.89-15.22-14.65v-.38Z"/><path class="cls-1" d="M365.25,1035.51c4.37,2.47,8.75,5.33,11.98,7.8v.38h-58.4v-.38c3.04-2.47,7.61-5.52,10.46-7.04l-19.02-50.22h-12.74v50.03c4.37,2.47,7.8,4.76,11.03,7.23v.38h-55.54v-.38c3.23-2.66,6.47-4.76,10.65-7.23v-108.43c-4.18-2.28-7.42-4.37-10.65-7.04v-.38h62.58c25.87,0,45.65,10.65,45.65,30.44s-19.4,31.2-41.85,33.48v.57c8.37.76,16.17,2.09,24.35,3.99l21.5,46.79ZM297.53,982.25h16.74c11.41-6.47,14.27-15.79,14.27-28.91,0-20.54-8.75-29.29-20.54-29.29h-10.46v58.21Z"/><path class="cls-1" d="M447.24,977.87c25.11,0,42.23,13.51,42.23,33.29s-19.78,32.53-52.5,32.53h-58.78v-.38c3.23-2.66,6.47-4.76,10.65-7.23v-108.43c-4.18-2.28-7.42-4.37-10.65-7.04v-.38h60.87c25.87,0,42.61,10.27,42.61,27.96,0,14.84-11.6,22.83-36.71,29.67h2.28ZM422.7,924.04v53.83h16.74c7.04-6.66,11.22-14.46,11.22-27.01,0-19.21-7.04-26.82-19.21-26.82h-8.75ZM455.99,1013.07c0-20.35-9.32-31.39-26.44-31.39h-6.85v53.45c4.56,3.42,8.37,4.76,12.36,4.76,11.98,0,20.92-9.13,20.92-26.82Z"/><path class="cls-1" d="M599.61,1036.08c4.56,2.66,7.42,4.56,10.65,7.23v.38h-56.5v-.38c3.04-2.28,6.28-4.56,10.84-7.23l-10.27-28.91h-40.33l-7.8,21.49c5.9,4.95,10.08,8.75,15.98,14.65v.38h-37.09v-.38c4.76-4.76,9.89-9.13,16.93-14.65l40.14-108.62h15.98l41.47,116.03ZM515.34,1003.36h37.66l-18.64-52.5-19.02,52.5Z"/><path class="cls-1" d="M699.28,920.24h34.62v.38c-4.18,4.76-9.32,9.7-15.22,14.65v108.43h-12.94l-75.14-101.2v86.17c5.71,4.95,11.03,9.89,15.22,14.65v.38h-34.24v-.38c4.38-4.76,9.51-9.7,15.22-14.65v-90.93l-14.46-17.12v-.38h41.47l61.06,82.56v-67.53c-5.9-4.95-11.22-9.89-15.6-14.65v-.38Z"/><path class="cls-1" d="M796.87,920.62c-3.04,2.47-6.47,4.76-10.84,7.04v108.43c4.37,2.47,7.8,4.76,10.84,7.23v.38h-55.35v-.38c3.23-2.66,6.47-4.76,10.65-7.23v-108.43c-4.18-2.28-7.42-4.37-10.65-7.04v-.38h55.35v.38Z"/><path class="cls-1" d="M810.56,1038.94c.19-14.65.57-28.72,1.14-39.95h.95l32.72,42.42c1.71.57,3.04.76,5.14.76,11.98,0,21.31-6.28,21.31-18.26,0-31.39-59.35-31.58-59.35-70.38,0-21.88,19.02-35.38,48.7-35.38,13.13,0,25.49,2.66,35.38,7.42,0,9.32-.57,23.97-1.33,38.04h-.95l-30.05-40.52c-1.33-.76-2.66-1.14-4.95-1.14-9.7,0-17.31,5.52-17.31,15.03,0,29.86,59.16,33.1,59.16,73.8,0,22.45-18.64,35.19-50.6,35.19-14.84,0-30.63-2.85-39.95-7.04Z"/><path class="cls-1" d="M1024.18,920.24c0,11.22-.57,31.77-1.33,44.7h-.95l-31.2-40.9h-6.66v112.04c4.95,2.47,8.94,4.56,13.51,7.23v.38h-60.68v-.38c4.76-2.66,8.56-4.76,13.32-7.23v-112.04h-6.28l-31.2,40.9h-.95c-.95-12.94-1.33-33.48-1.33-44.7h113.75Z"/><path class="cls-1" d="M1034.45,1038.94c.19-14.65.57-28.72,1.14-39.95h.95l32.72,42.42c1.71.57,3.04.76,5.14.76,11.98,0,21.31-6.28,21.31-18.26,0-31.39-59.35-31.58-59.35-70.38,0-21.88,19.02-35.38,48.7-35.38,13.13,0,25.49,2.66,35.38,7.42,0,9.32-.57,23.97-1.33,38.04h-.95l-30.05-40.52c-1.33-.76-2.66-1.14-4.95-1.14-9.7,0-17.31,5.52-17.31,15.03,0,29.86,59.16,33.1,59.16,73.8,0,22.45-18.64,35.19-50.6,35.19-14.84,0-30.63-2.85-39.95-7.04Z"/></svg>