<?xml version="1.0" encoding="UTF-8"?><svg id="Layer_1" xmlns="http://www.w3.org/2000/svg" viewBox="0 0 1250 1250"><defs><style>.cls-1{fill:#0c2340;}</style></defs><path class="cls-1" d="M1000,434.99H250v14.3h750v-14.3Z"/><path class="cls-1" d="M389.99,566.58c0,45.3-37.75,65.92-69.99,65.92h-69.99v-.4c3.61-2.83,7.21-5.06,11.88-7.68v-115.27c-4.67-2.43-8.27-4.65-11.88-7.48v-.4h66.39c36.48,0,73.6,20.83,73.6,65.32ZM348.42,566.38c0-47.72-11.67-61.07-34.79-61.07h-14v118.3c7,3.84,12.51,4.85,18.24,4.85,18.45,0,30.54-12.13,30.54-62.08Z"/><path class="cls-1" d="M510.46,624.42c5.09,2.83,8.27,4.85,11.88,7.68v.4h-63v-.4c3.39-2.43,7-4.85,12.09-7.68l-11.45-30.74h-44.97l-8.7,22.85c6.58,5.26,11.24,9.3,17.82,15.57v.4h-41.36v-.4c5.3-5.06,11.03-9.71,18.88-15.57l44.75-115.47h17.82l46.24,123.35ZM416.5,589.64h42l-20.79-55.81-21.21,55.81Z"/><path class="cls-1" d="M635.18,580.94c.85,13.75,1.49,39.64,1.49,51.57h-109.87v-.4c3.61-2.83,7.21-5.06,11.88-7.68v-115.27c-4.67-2.43-8.27-4.65-11.88-7.48v-.4h61.72v.4c-3.39,2.63-7.21,5.06-12.09,7.48v115.27l12.73,4.05h9.97l35-47.52h1.06Z"/><path class="cls-1" d="M754.6,580.94c.85,13.75,1.49,39.64,1.49,51.57h-109.87v-.4c3.61-2.83,7.21-5.06,11.88-7.68v-115.27c-4.67-2.43-8.27-4.65-11.88-7.48v-.4h61.72v.4c-3.39,2.63-7.21,5.06-12.09,7.48v115.27l12.73,4.05h9.97l35-47.52h1.06Z"/><path class="cls-1" d="M882.07,624.42c5.09,2.83,8.27,4.85,11.88,7.68v.4h-63v-.4c3.39-2.43,7-4.85,12.09-7.68l-11.45-30.74h-44.97l-8.7,22.85c6.58,5.26,11.24,9.3,17.82,15.57v.4h-41.36v-.4c5.3-5.06,11.03-9.71,18.88-15.57l44.75-115.47h17.82l46.24,123.35ZM788.11,589.64h42l-20.79-55.81-21.21,55.81Z"/><path class="cls-1" d="M899.04,627.45c.21-15.57.64-30.54,1.27-42.47h1.06l36.48,45.1c1.91.61,3.39.81,5.73.81,13.36,0,23.76-6.67,23.76-19.41,0-33.37-66.18-33.57-66.18-74.82,0-23.26,21.21-37.61,54.3-37.61,14.64,0,28.42,2.83,39.45,7.89,0,9.91-.64,25.48-1.49,40.44h-1.06l-33.51-43.07c-1.49-.81-2.97-1.21-5.51-1.21-10.82,0-19.3,5.86-19.3,15.98,0,31.75,65.96,35.19,65.96,78.46,0,23.86-20.79,37.41-56.42,37.41-16.54,0-34.15-3.03-44.54-7.48Z"/><path class="cls-1" d="M250,815.01h750v-14.3H250v14.3Z"/><path class="cls-1" d="M315.2,661.38h25.68v.29c-3.14,3.57-6.99,7.28-11.41,10.99v50.22c0,18.4-7.42,32.53-33.24,32.53-23.82,0-38.09-11.98-38.09-32.67v-55.78c-3.14-1.71-5.56-3.28-8.13-5.28v-.29h40.66v.29c-2,1.86-4.14,3.57-7.13,5.28v55.93c-.29,16.41,7.42,28.11,21.54,28.11s21.54-10.7,21.54-28.11v-50.22c-4.28-3.71-8.13-7.42-11.41-10.99v-.29Z"/><path class="cls-1" d="M430.19,747.84c3.28,1.86,6.56,3.99,8.99,5.85v.29h-43.8v-.29c2.28-1.86,5.71-4.14,7.85-5.28l-14.27-37.66h-9.56v37.52c3.28,1.86,5.85,3.57,8.27,5.42v.29h-41.66v-.29c2.43-2,4.85-3.57,7.99-5.42v-81.32c-3.14-1.71-5.56-3.28-7.99-5.28v-.29h46.94c19.4,0,34.24,7.99,34.24,22.83s-14.55,23.4-31.39,25.11v.43c6.28.57,12.13,1.57,18.26,3l16.12,35.1ZM379.4,707.89h12.55c8.56-4.85,10.7-11.84,10.7-21.68,0-15.41-6.56-21.97-15.41-21.97h-7.85v43.66Z"/><path class="cls-1" d="M491.68,704.61c18.83,0,31.67,10.13,31.67,24.97s-14.84,24.4-39.38,24.4h-44.08v-.29c2.42-2,4.85-3.57,7.99-5.42v-81.32c-3.14-1.71-5.56-3.28-7.99-5.28v-.29h45.65c19.4,0,31.96,7.7,31.96,20.97,0,11.13-8.7,17.12-27.53,22.26h1.71ZM473.27,664.24v40.37h12.55c5.28-4.99,8.42-10.84,8.42-20.26,0-14.41-5.28-20.12-14.41-20.12h-6.56ZM498.24,731c0-15.27-6.99-23.54-19.83-23.54h-5.14v40.09c3.42,2.57,6.28,3.57,9.27,3.57,8.99,0,15.69-6.85,15.69-20.12Z"/><path class="cls-1" d="M605.95,748.26c3.42,2,5.56,3.42,7.99,5.42v.29h-42.37v-.29c2.28-1.71,4.71-3.42,8.13-5.42l-7.7-21.68h-30.24l-5.85,16.12c4.42,3.71,7.56,6.56,11.98,10.99v.29h-27.82v-.29c3.57-3.57,7.42-6.85,12.7-10.99l30.1-81.46h11.98l31.1,87.03ZM542.75,723.73h28.25l-13.98-39.38-14.27,39.38Z"/><path class="cls-1" d="M680.71,661.38h25.96v.29c-3.14,3.57-6.99,7.28-11.41,10.99v81.32h-9.7l-56.35-75.9v64.63c4.28,3.71,8.28,7.42,11.41,10.99v.29h-25.68v-.29c3.28-3.57,7.13-7.28,11.41-10.99v-68.19l-10.84-12.84v-.29h31.1l45.8,61.92v-50.65c-4.42-3.71-8.42-7.42-11.7-10.99v-.29Z"/><path class="cls-1" d="M753.9,661.67c-2.28,1.86-4.85,3.57-8.13,5.28v81.32c3.28,1.86,5.85,3.57,8.13,5.42v.29h-41.52v-.29c2.43-2,4.85-3.57,7.99-5.42v-81.32c-3.14-1.71-5.56-3.28-7.99-5.28v-.29h41.52v.29Z"/><path class="cls-1" d="M764.17,750.41c.14-10.99.43-21.54.86-29.96h.71l24.54,31.81c1.28.43,2.28.57,3.85.57,8.99,0,15.98-4.71,15.98-13.7,0-23.54-44.51-23.68-44.51-52.79,0-16.41,14.27-26.54,36.52-26.54,9.84,0,19.12,2,26.54,5.56,0,6.99-.43,17.98-1,28.53h-.71l-22.54-30.39c-1-.57-2-.86-3.71-.86-7.28,0-12.98,4.14-12.98,11.27,0,22.4,44.37,24.82,44.37,55.35,0,16.84-13.98,26.39-37.95,26.39-11.13,0-22.97-2.14-29.96-5.28Z"/><path class="cls-1" d="M924.39,661.38c0,8.42-.43,23.83-1,33.53h-.71l-23.4-30.67h-4.99v84.03c3.71,1.86,6.71,3.42,10.13,5.42v.29h-45.51v-.29c3.57-2,6.42-3.57,9.99-5.42v-84.03h-4.71l-23.4,30.67h-.71c-.71-9.7-1-25.11-1-33.53h85.31Z"/><path class="cls-1" d="M932.09,750.41c.14-10.99.43-21.54.86-29.96h.71l24.54,31.81c1.28.43,2.28.57,3.85.57,8.99,0,15.98-4.71,15.98-13.7,0-23.54-44.51-23.68-44.51-52.79,0-16.41,14.27-26.54,36.52-26.54,9.84,0,19.12,2,26.54,5.56,0,6.99-.43,17.98-1,28.53h-.71l-22.54-30.39c-1-.57-2-.86-3.71-.86-7.28,0-12.98,4.14-12.98,11.27,0,22.4,44.37,24.82,44.37,55.35,0,16.84-13.98,26.39-37.95,26.39-11.13,0-22.97-2.14-29.96-5.28Z"/></svg>