<?xml version="1.0" encoding="UTF-8"?><svg id="Layer_1" xmlns="http://www.w3.org/2000/svg" viewBox="0 0 1250 1250"><defs><style>.cls-1{fill:#0c2340;}</style></defs><path class="cls-1" d="M574.17,684.44l-28.5,63.4h41.82l28.5-52.61h0c31.36,16.69,55.31,44.85,66.94,78.58l6.75,19.56c3.71,10.62,14,17.37,25.13,16.19l19.05-1.86-20.07-75.21c-4.72-17.87-14.33-34.23-27.65-47.22h0c-25.8-25.13-36.09-62.05-26.98-96.79h0c11.13,15.51,27.99,25.8,46.88,28.84l33.89,5.4h0c5.73-13.83-1.86-29.51-16.19-33.56h0c-15.01-4.22-27.49-14.33-34.74-28.16-7.59-14.5-17.37-31.36-23.61-43.67-5.56-10.45-19.73-13.66-30.52-10.45-11.47,4.72-22.43,10.45-33.56,16.02h0c-12.65,6.58-25.8,13.66-36.42,19.39h-.17c-13.83,7.76-23.61,21.08-26.64,36.59l-6.75,34.91c-2.19,11.47,8.09,21.25,19.39,18.38h0l13.49-37.1c4.55-12.65,14.16-22.76,26.47-28.16h0l-6.75,80.27c-1.01,12.82-4.38,25.46-9.61,37.27h-.17Z"/><path class="cls-1" d="M640.78,470.96c2.36-37.1,51.26-33.73,54.13-2.87,2.36,38.95-53.12,39.46-54.13,2.87Z"/><path class="cls-1" d="M609,743.29h-24.03s-2.02,3.71-2.02,3.71h-31.87v-48.97c0-19.45-17.37-34.31-36.58-31.3h0v113.99h140.29,0c-4.41-21.78-23.56-37.43-45.78-37.43Z"/><path class="cls-1" d="M637.96,802.82h-133.15c-6.86,0-12.42-5.56-12.42-12.42v-173.07c0-21.05-17.06-38.11-38.11-38.11h0v258h226.3,0c-4.33-20.07-22.08-34.4-42.61-34.4Z"/><path class="cls-1" d="M779.05,613.79c.33,4.05.56,8.09.67,12.14,0,26.39-8.8,51.28-23.78,71.53-13.07,17.67-17.42,40.32-11.47,61.48v.04c11.14-7.76,25.11-17.74,33.88-28.36,21.23-23.94,37.63-53.41,37.63-104.52,0-46.88-17.89-78.84-38-103.37-16.06-18.36-38.84-34.73-57.22-41.73,0,0,0,0,0,0-8.56,16.94-3.86,37.62,11.27,49.08,20.8,15.74,36.03,37.95,43.14,63.46"/><path class="cls-1" d="M615.99,472.14l-166.28.17h0c0,20.4,16.53,36.93,36.93,36.93,15.22,0,30.6,0,45.83,0,15.92.6,32.01-1.47,46.25-9.01,0,0,37.27-28.08,37.27-28.08Z"/><path class="cls-1" d="M827.28,489c-30.18-37.77-72.34-64.75-118.88-75.88l-1.35-.34h-332.05s0,11.3,0,11.3c0,14.43,11.7,26.14,26.14,26.14h219.91c15.4-34.4,61.91-25.73,61.91-25.73,22.35,2.49,33.43,30.9,35.5,31.75,77,31.32,119.78,95.95,119.78,168.34,0,59.44-22.38,103.94-66.11,140.51-12.76,10.67-17.98,27.91-13.32,43.88l2.04,6.99c25.13-13.66,47.55-32.04,65.6-54.47,31.36-38.62,48.56-87.18,48.56-136.92s-16.86-97.3-47.55-135.58h-.17Z"/></svg>