<?xml version="1.0" encoding="UTF-8"?><svg id="Layer_1" xmlns="http://www.w3.org/2000/svg" viewBox="0 0 1250 1250"><defs><style>.cls-1{fill:#0c2340;}</style></defs><path class="cls-1" d="M599.59,654.72l-14.25,31.7h20.91l14.25-26.31h0c15.68,8.35,27.65,22.43,33.47,39.29l3.37,9.78c1.85,5.31,7,8.68,12.56,8.09l9.53-.93-10.03-37.6c-2.36-8.94-7.17-17.12-13.83-23.61h0c-12.9-12.56-18.04-31.03-13.49-48.4h0c5.56,7.76,14,12.9,23.44,14.42l16.95,2.7h0c2.87-6.91-.93-14.75-8.09-16.78h0c-7.5-2.11-13.74-7.17-17.37-14.08-3.79-7.25-8.68-15.68-11.8-21.84-2.78-5.23-9.86-6.83-15.26-5.23-5.73,2.36-11.21,5.23-16.78,8.01h0c-6.32,3.29-12.9,6.83-18.21,9.7h-.08c-6.91,3.88-11.8,10.54-13.32,18.3l-3.37,17.45c-1.1,5.73,4.05,10.62,9.7,9.19h0l6.75-18.55c2.28-6.32,7.08-11.38,13.24-14.08h0l-3.37,40.13c-.51,6.41-2.19,12.73-4.81,18.63h-.08Z"/><path class="cls-1" d="M632.89,547.98c1.18-18.55,25.63-16.86,27.06-1.43,1.18,19.48-26.56,19.73-27.06,1.43Z"/><path class="cls-1" d="M617,684.15h-12.02s-1.01,1.85-1.01,1.85h-15.94v-24.49c0-9.73-8.68-17.15-18.29-15.65h0v56.99h70.14,0c-2.21-10.89-11.78-18.71-22.89-18.71Z"/><path class="cls-1" d="M631.48,713.91h-66.58c-3.43,0-6.21-2.78-6.21-6.21v-86.53c0-10.52-8.53-19.05-19.05-19.05h0v129h113.15,0c-2.16-10.04-11.04-17.2-21.31-17.2Z"/><path class="cls-1" d="M702.03,619.39c.16,2.02.28,4.05.34,6.07,0,13.19-4.4,25.64-11.89,35.77-6.54,8.84-8.71,20.16-5.73,30.74v.02c5.57-3.88,12.55-8.87,16.94-14.18,10.62-11.97,18.82-26.7,18.82-52.26,0-23.44-8.95-39.42-19-51.68-8.03-9.18-19.42-17.37-28.61-20.86,0,0,0,0,0,0-4.28,8.47-1.93,18.81,5.64,24.54,10.4,7.87,18.02,18.98,21.57,31.73"/><path class="cls-1" d="M620.49,548.57l-83.14.08h0c0,10.2,8.27,18.46,18.46,18.46,7.61,0,15.3,0,22.92,0,7.96.3,16-.73,23.13-4.51,0,0,18.64-14.04,18.63-14.04Z"/><path class="cls-1" d="M726.14,557c-15.09-18.89-36.17-32.38-59.44-37.94l-.67-.17h-166.02s0,5.65,0,5.65c0,7.22,5.85,13.07,13.07,13.07h109.96c7.7-17.2,30.96-12.86,30.96-12.86,11.17,1.25,16.71,15.45,17.75,15.87,38.5,15.66,59.89,47.97,59.89,84.17,0,29.72-11.19,51.97-33.06,70.26-6.38,5.34-8.99,13.95-6.66,21.94l1.02,3.5c12.56-6.83,23.78-16.02,32.8-27.23,15.68-19.31,24.28-43.59,24.28-68.46s-8.43-48.65-23.78-67.79h-.08Z"/></svg>