<?xml version="1.0" encoding="UTF-8"?><svg id="Layer_1" xmlns="http://www.w3.org/2000/svg" viewBox="0 0 1250 1250"><defs><style>.cls-1{fill:#0c2340;}</style></defs><path class="cls-1" d="M613.02,639l-6.71,14.94h9.85l6.71-12.4h0c7.39,3.93,13.03,10.57,15.77,18.51l1.59,4.61c.87,2.5,3.3,4.09,5.92,3.81l4.49-.44-4.73-17.72c-1.11-4.21-3.38-8.07-6.52-11.12h0c-6.08-5.92-8.5-14.62-6.36-22.8h0c2.62,3.66,6.6,6.08,11.04,6.79l7.99,1.27h0c1.35-3.26-.44-6.95-3.81-7.91h0c-3.54-.99-6.48-3.38-8.18-6.63-1.79-3.42-4.09-7.39-5.56-10.29-1.31-2.46-4.65-3.22-7.19-2.46-2.7,1.11-5.28,2.46-7.91,3.77h0c-2.98,1.55-6.08,3.22-8.58,4.57h-.04c-3.26,1.83-5.56,4.97-6.28,8.62l-1.59,8.22c-.52,2.7,1.91,5.01,4.57,4.33h0l3.18-8.74c1.07-2.98,3.34-5.36,6.24-6.63h0l-1.59,18.91c-.24,3.02-1.03,6-2.26,8.78h-.04Z"/><path class="cls-1" d="M628.72,588.71c.56-8.74,12.08-7.95,12.75-.68.56,9.18-12.51,9.3-12.75.68Z"/><path class="cls-1" d="M621.23,652.87h-5.66s-.48.87-.48.87h-7.51v-11.54c0-4.58-4.09-8.08-8.62-7.37h0v26.86h33.05,0c-1.04-5.13-5.55-8.82-10.79-8.82Z"/><path class="cls-1" d="M628.05,666.89h-31.37c-1.62,0-2.93-1.31-2.93-2.93v-40.78c0-4.96-4.02-8.98-8.98-8.98h0v60.79h53.32,0c-1.02-4.73-5.2-8.11-10.04-8.11Z"/><path class="cls-1" d="M622.88,588.98l-39.18.04h0c0,4.81,3.9,8.7,8.7,8.7,3.59,0,7.21,0,10.8,0,3.75.14,7.54-.35,10.9-2.12,0,0,8.78-6.62,8.78-6.62Z"/><path class="cls-1" d="M672.66,592.96c-7.11-8.9-17.04-15.26-28.01-17.88l-.32-.08h-78.23s0,2.66,0,2.66c0,3.4,2.76,6.16,6.16,6.16h51.81c3.63-8.11,14.59-6.06,14.59-6.06,5.27.59,7.88,7.28,8.36,7.48,18.14,7.38,28.22,22.61,28.22,39.66,0,14-5.27,24.49-15.58,33.11-3.01,2.51-4.24,6.58-3.14,10.34l.48,1.65c5.92-3.22,11.2-7.55,15.45-12.83,7.39-9.1,11.44-20.54,11.44-32.26s-3.97-22.92-11.2-31.94h-.04Z"/></svg>