<?xml version="1.0" encoding="UTF-8"?>
<svg id="Layer_1" xmlns="http://www.w3.org/2000/svg" version="1.1" viewBox="0 0 1120 380">
  <!-- Generator: Adobe Illustrator 30.6.0, SVG Export Plug-In . SVG Version: 2.1.4 Build 109)  -->
  <defs>
    <style>
      .st0 {
        fill: #ffb549;
      }
    </style>
  </defs>
  <g>
    <path class="st0" d="M209,100.8c0,67.6-56.4,98.4-104.5,98.4H0v-.6c5.4-4.2,10.8-7.5,17.7-11.5V15.1C10.8,11.4,5.4,8.1,0,3.9v-.6h99.1c54.5,0,109.9,31.1,109.9,97.5h0ZM147,100.5c0-71.3-17.4-91.2-51.9-91.2h-20.9v176.7c10.4,5.7,18.7,7.2,27.2,7.2,27.6,0,45.6-18.1,45.6-92.7h0Z"/>
    <path class="st0" d="M388.9,187.2c7.6,4.2,12.4,7.2,17.7,11.5v.6h-94.1v-.6c5.1-3.6,10.4-7.2,18.1-11.5l-17.1-45.9h-67.1l-13,34.1c9.8,7.9,16.8,13.9,26.6,23.3v.6h-61.8v-.6c7.9-7.5,16.5-14.5,28.2-23.3L293.3,3h26.6l69,184.2h0ZM248.6,135.3h62.7l-31-83.3-31.7,83.3h0Z"/>
    <path class="st0" d="M575.2,122.3c1.3,20.5,2.2,59.2,2.2,77h-164.1v-.6c5.4-4.2,10.8-7.5,17.7-11.5V15.1c-7-3.6-12.4-6.9-17.7-11.2v-.6h92.2v.6c-5.1,3.9-10.8,7.5-18.1,11.2v172.1l19,6h14.9l52.3-71h1.6Z"/>
    <path class="st0" d="M753.5,122.3c1.3,20.5,2.2,59.2,2.2,77h-164.1v-.6c5.4-4.2,10.8-7.5,17.7-11.5V15.1c-7-3.6-12.4-6.9-17.7-11.2v-.6h92.2v.6c-5.1,3.9-10.8,7.5-18.1,11.2v172.1l19,6h14.9l52.3-71h1.6Z"/>
    <path class="st0" d="M943.9,187.2c7.6,4.2,12.4,7.2,17.7,11.5v.6h-94.1v-.6c5.1-3.6,10.4-7.2,18.1-11.5l-17.1-45.9h-67.1l-13,34.1c9.8,7.9,16.8,13.9,26.6,23.3v.6h-61.8v-.6c7.9-7.5,16.5-14.5,28.2-23.3L848.2,3h26.6l69,184.2h0ZM803.6,135.3h62.7l-31-83.3-31.7,83.3h0Z"/>
    <path class="st0" d="M969.2,191.7c.3-23.3,1-45.6,1.9-63.4h1.6l54.5,67.3c2.9.9,5.1,1.2,8.6,1.2,20,0,35.5-10,35.5-29,0-49.8-98.8-50.1-98.8-111.7S1004.1,0,1053.5,0s42.4,4.2,58.9,11.8c0,14.8-1,38-2.2,60.4h-1.6l-50-64.3c-2.2-1.2-4.4-1.8-8.2-1.8-16.2,0-28.8,8.8-28.8,23.9,0,47.4,98.5,52.5,98.5,117.2s-31,55.9-84.3,55.9-51-4.5-66.5-11.2h0Z"/>
  </g>
  <g>
    <path class="st0" d="M97.4,239.2h38.3v.4c-4.7,5.3-10.4,10.9-17,16.4v75c0,27.5-11.1,48.6-49.6,48.6s-56.9-17.9-56.9-48.8v-83.3c-4.7-2.6-8.3-4.9-12.1-7.9v-.4h60.7v.4c-3,2.8-6.2,5.3-10.7,7.9v83.5c-.4,24.5,11.1,42,32.2,42s32.2-16,32.2-42v-75c-6.4-5.5-12.1-11.1-17-16.4v-.4h0Z"/>
    <path class="st0" d="M269.1,368.3c4.9,2.8,9.8,6,13.4,8.7v.4h-65.4v-.4c3.4-2.8,8.5-6.2,11.7-7.9l-21.3-56.2h-14.3v56c4.9,2.8,8.7,5.3,12.4,8.1v.4h-62.2v-.4c3.6-3,7.2-5.3,11.9-8.1v-121.4c-4.7-2.6-8.3-4.9-11.9-7.9v-.4h70.1c29,0,51.1,11.9,51.1,34.1s-21.7,34.9-46.9,37.5v.6c9.4.9,18.1,2.3,27.3,4.5l24.1,52.4h0ZM193.2,308.6h18.7c12.8-7.2,16-17.7,16-32.4,0-23-9.8-32.8-23-32.8h-11.7v65.2h0Z"/>
    <path class="st0" d="M360.9,303.7c28.1,0,47.3,15.1,47.3,37.3s-22.2,36.4-58.8,36.4h-65.8v-.4c3.6-3,7.2-5.3,11.9-8.1v-121.4c-4.7-2.6-8.3-4.9-11.9-7.9v-.4h68.2c29,0,47.7,11.5,47.7,31.3s-13,25.6-41.1,33.2h2.6ZM333.4,243.5v60.3h18.7c7.9-7.5,12.6-16.2,12.6-30.3,0-21.5-7.9-30-21.5-30h-9.8ZM370.7,343.2c0-22.8-10.4-35.2-29.6-35.2h-7.7v59.9c5.1,3.8,9.4,5.3,13.8,5.3,13.4,0,23.4-10.2,23.4-30h0Z"/>
    <path class="st0" d="M531.6,368.9c5.1,3,8.3,5.1,11.9,8.1v.4h-63.3v-.4c3.4-2.6,7-5.1,12.1-8.1l-11.5-32.4h-45.2l-8.7,24.1c6.6,5.5,11.3,9.8,17.9,16.4v.4h-41.5v-.4c5.3-5.3,11.1-10.2,19-16.4l45-121.7h17.9l46.4,130h0ZM437.2,332.3h42.2l-20.9-58.8-21.3,58.8Z"/>
    <path class="st0" d="M643.2,239.2h38.8v.4c-4.7,5.3-10.4,10.9-17,16.4v121.4h-14.5l-84.2-113.3v96.5c6.4,5.5,12.4,11.1,17,16.4v.4h-38.3v-.4c4.9-5.3,10.7-10.9,17-16.4v-101.8l-16.2-19.2v-.4h46.4l68.4,92.5v-75.6c-6.6-5.5-12.6-11.1-17.5-16.4v-.4h0Z"/>
    <path class="st0" d="M752.5,239.6c-3.4,2.8-7.2,5.3-12.1,7.9v121.4c4.9,2.8,8.7,5.3,12.1,8.1v.4h-62v-.4c3.6-3,7.2-5.3,11.9-8.1v-121.4c-4.7-2.6-8.3-4.9-11.9-7.9v-.4h62v.4Z"/>
    <path class="st0" d="M767.8,372.1c.2-16.4.6-32.2,1.3-44.7h1.1l36.6,47.5c1.9.6,3.4.9,5.8.9,13.4,0,23.9-7,23.9-20.5,0-35.2-66.5-35.4-66.5-78.8s21.3-39.6,54.5-39.6,28.5,3,39.6,8.3c0,10.4-.6,26.8-1.5,42.6h-1.1l-33.7-45.4c-1.5-.9-3-1.3-5.5-1.3-10.9,0-19.4,6.2-19.4,16.8,0,33.4,66.3,37.1,66.3,82.7s-20.9,39.4-56.7,39.4-34.3-3.2-44.7-7.9h0Z"/>
    <path class="st0" d="M1007.1,239.2c0,12.6-.6,35.6-1.5,50.1h-1.1l-34.9-45.8h-7.5v125.5c5.5,2.8,10,5.1,15.1,8.1v.4h-68v-.4c5.3-3,9.6-5.3,14.9-8.1v-125.5h-7l-34.9,45.8h-1.1c-1.1-14.5-1.5-37.5-1.5-50.1h127.4Z"/>
    <path class="st0" d="M1018.6,372.1c.2-16.4.6-32.2,1.3-44.7h1.1l36.6,47.5c1.9.6,3.4.9,5.8.9,13.4,0,23.9-7,23.9-20.5,0-35.2-66.5-35.4-66.5-78.8s21.3-39.6,54.5-39.6,28.5,3,39.6,8.3c0,10.4-.6,26.8-1.5,42.6h-1.1l-33.7-45.4c-1.5-.9-3-1.3-5.5-1.3-10.9,0-19.4,6.2-19.4,16.8,0,33.4,66.3,37.1,66.3,82.7s-20.9,39.4-56.7,39.4-34.3-3.2-44.7-7.9h0Z"/>
  </g>
</svg>