<?xml version="1.0" encoding="UTF-8"?><svg id="Layer_1" xmlns="http://www.w3.org/2000/svg" viewBox="0 0 1000 612.3"><defs><style>.cls-1{fill:#fff;}</style></defs><path class="cls-1" d="M1000,0H0v19.07h1000V0Z"/><path class="cls-1" d="M186.65,175.46c0,60.4-50.34,87.9-93.32,87.9H0v-.54c4.81-3.77,9.62-6.74,15.84-10.25V98.88C9.62,95.65,4.81,92.68,0,88.91v-.54h88.52c48.64,0,98.13,27.77,98.13,87.09ZM131.22,175.19c0-63.63-15.56-81.43-46.38-81.43h-18.67v157.73c9.33,5.12,16.69,6.47,24.32,6.47,24.6,0,40.72-16.18,40.72-82.78Z"/><path class="cls-1" d="M347.28,252.57c6.79,3.78,11.03,6.47,15.84,10.25v.54h-83.99v-.54c4.53-3.24,9.33-6.47,16.12-10.25l-15.27-40.98h-59.95l-11.6,30.47c8.77,7.01,14.99,12.4,23.76,20.76v.54h-55.15v-.54c7.07-6.74,14.71-12.94,25.17-20.76l59.67-153.96h23.76l61.65,164.47ZM222,206.2h56l-27.71-74.42-28.28,74.42Z"/><path class="cls-1" d="M513.58,194.6c1.13,18.33,1.98,52.85,1.98,68.75h-146.49v-.54c4.81-3.77,9.62-6.74,15.84-10.25V98.88c-6.22-3.24-11.03-6.2-15.84-9.98v-.54h82.3v.54c-4.53,3.51-9.62,6.74-16.12,9.98v153.69l16.97,5.39h13.29l46.66-63.36h1.41Z"/><path class="cls-1" d="M672.79,194.6c1.13,18.33,1.98,52.85,1.98,68.75h-146.49v-.54c4.81-3.77,9.62-6.74,15.84-10.25V98.88c-6.22-3.24-11.03-6.2-15.84-9.98v-.54h82.3v.54c-4.53,3.51-9.62,6.74-16.12,9.98v153.69l16.97,5.39h13.29l46.66-63.36h1.41Z"/><path class="cls-1" d="M842.76,252.57c6.79,3.78,11.03,6.47,15.84,10.25v.54h-83.99v-.54c4.53-3.24,9.33-6.47,16.12-10.25l-15.27-40.98h-59.95l-11.6,30.47c8.77,7.01,14.99,12.4,23.76,20.76v.54h-55.15v-.54c7.07-6.74,14.71-12.94,25.17-20.76l59.67-153.96h23.76l61.65,164.47ZM717.47,206.2h56l-27.71-74.42-28.28,74.42Z"/><path class="cls-1" d="M865.38,256.62c.28-20.76.85-40.72,1.7-56.62h1.41l48.64,60.13c2.55.81,4.53,1.08,7.64,1.08,17.82,0,31.68-8.9,31.68-25.88,0-44.49-88.24-44.76-88.24-99.76,0-31.01,28.28-50.15,72.4-50.15,19.51,0,37.9,3.77,52.6,10.51,0,13.21-.85,33.97-1.98,53.93h-1.41l-44.68-57.43c-1.98-1.08-3.96-1.62-7.35-1.62-14.42,0-25.73,7.82-25.73,21.3,0,42.33,87.95,46.91,87.95,104.61,0,31.82-27.71,49.88-75.23,49.88-22.06,0-45.53-4.05-59.39-9.98Z"/><path class="cls-1" d="M0,506.69h1000v-19.07H0v19.07Z"/><path class="cls-1" d="M86.93,301.85h34.24v.38c-4.19,4.76-9.32,9.7-15.22,14.65v66.96c0,24.54-9.89,43.37-44.32,43.37-31.77,0-50.79-15.98-50.79-43.56v-74.38c-4.19-2.28-7.42-4.37-10.84-7.04v-.38h54.21v.38c-2.66,2.47-5.52,4.76-9.51,7.04v74.57c-.38,21.87,9.89,37.47,28.72,37.47s28.72-14.27,28.72-37.47v-66.96c-5.71-4.95-10.84-9.89-15.22-14.65v-.38Z"/><path class="cls-1" d="M240.25,417.13c4.37,2.47,8.75,5.33,11.98,7.8v.38h-58.4v-.38c3.04-2.47,7.61-5.52,10.46-7.04l-19.02-50.22h-12.74v50.03c4.37,2.47,7.8,4.76,11.03,7.23v.38h-55.54v-.38c3.23-2.66,6.47-4.76,10.65-7.23v-108.43c-4.18-2.28-7.42-4.37-10.65-7.04v-.38h62.58c25.87,0,45.65,10.65,45.65,30.44s-19.4,31.2-41.85,33.48v.57c8.37.76,16.17,2.09,24.35,3.99l21.5,46.79ZM172.53,363.86h16.74c11.41-6.47,14.27-15.79,14.27-28.91,0-20.54-8.75-29.29-20.54-29.29h-10.46v58.21Z"/><path class="cls-1" d="M322.24,359.49c25.11,0,42.23,13.51,42.23,33.29s-19.78,32.53-52.5,32.53h-58.78v-.38c3.23-2.66,6.47-4.76,10.65-7.23v-108.43c-4.18-2.28-7.42-4.37-10.65-7.04v-.38h60.87c25.87,0,42.61,10.27,42.61,27.96,0,14.84-11.6,22.83-36.71,29.67h2.28ZM297.7,305.66v53.83h16.74c7.04-6.66,11.22-14.46,11.22-27.01,0-19.21-7.04-26.82-19.21-26.82h-8.75ZM330.99,394.68c0-20.35-9.32-31.39-26.44-31.39h-6.85v53.45c4.56,3.42,8.37,4.76,12.36,4.76,11.98,0,20.92-9.13,20.92-26.82Z"/><path class="cls-1" d="M474.61,417.7c4.56,2.66,7.42,4.56,10.65,7.23v.38h-56.5v-.38c3.04-2.28,6.28-4.56,10.84-7.23l-10.27-28.91h-40.33l-7.8,21.49c5.9,4.95,10.08,8.75,15.98,14.65v.38h-37.09v-.38c4.76-4.76,9.89-9.13,16.93-14.65l40.14-108.62h15.98l41.47,116.03ZM390.34,384.98h37.66l-18.64-52.5-19.02,52.5Z"/><path class="cls-1" d="M574.28,301.85h34.62v.38c-4.18,4.76-9.32,9.7-15.22,14.65v108.43h-12.94l-75.14-101.2v86.17c5.71,4.95,11.03,9.89,15.22,14.65v.38h-34.24v-.38c4.38-4.76,9.51-9.7,15.22-14.65v-90.93l-14.46-17.12v-.38h41.47l61.06,82.56v-67.53c-5.9-4.95-11.22-9.89-15.6-14.65v-.38Z"/><path class="cls-1" d="M671.87,302.23c-3.04,2.47-6.47,4.76-10.84,7.04v108.43c4.37,2.47,7.8,4.76,10.84,7.23v.38h-55.35v-.38c3.23-2.66,6.47-4.76,10.65-7.23v-108.43c-4.18-2.28-7.42-4.37-10.65-7.04v-.38h55.35v.38Z"/><path class="cls-1" d="M685.56,420.55c.19-14.65.57-28.72,1.14-39.95h.95l32.72,42.42c1.71.57,3.04.76,5.14.76,11.98,0,21.31-6.28,21.31-18.26,0-31.39-59.35-31.58-59.35-70.38,0-21.88,19.02-35.38,48.7-35.38,13.13,0,25.49,2.66,35.38,7.42,0,9.32-.57,23.97-1.33,38.04h-.95l-30.05-40.52c-1.33-.76-2.66-1.14-4.95-1.14-9.7,0-17.31,5.52-17.31,15.03,0,29.86,59.16,33.1,59.16,73.8,0,22.45-18.64,35.19-50.6,35.19-14.84,0-30.63-2.85-39.95-7.04Z"/><path class="cls-1" d="M899.18,301.85c0,11.22-.57,31.77-1.33,44.7h-.95l-31.2-40.9h-6.66v112.04c4.95,2.47,8.94,4.56,13.51,7.23v.38h-60.68v-.38c4.76-2.66,8.56-4.76,13.32-7.23v-112.04h-6.28l-31.2,40.9h-.95c-.95-12.94-1.33-33.48-1.33-44.7h113.75Z"/><path class="cls-1" d="M909.45,420.55c.19-14.65.57-28.72,1.14-39.95h.95l32.72,42.42c1.71.57,3.04.76,5.14.76,11.98,0,21.31-6.28,21.31-18.26,0-31.39-59.35-31.58-59.35-70.38,0-21.88,19.02-35.38,48.7-35.38,13.13,0,25.49,2.66,35.38,7.42,0,9.32-.57,23.97-1.33,38.04h-.95l-30.05-40.52c-1.33-.76-2.66-1.14-4.95-1.14-9.7,0-17.31,5.52-17.31,15.03,0,29.86,59.16,33.1,59.16,73.8,0,22.45-18.64,35.19-50.6,35.19-14.84,0-30.63-2.85-39.95-7.04Z"/><path class="cls-1" d="M2.13,610.12c.11-4.6.23-9.03.46-12.54h.23l11.27,13.52q.29.06.52.06c3.16,0,5.81-1.73,5.81-4.95,0-9.32-17.6-10.06-17.6-21.62,0-6.73,6.04-11.1,15.76-11.1,3.97,0,7.76.81,10.93,2.3,0,2.7-.23,7.42-.46,12.02h-.17l-10.29-13c-.23-.12-.29-.12-.75-.12-2.47,0-4.54,1.44-4.54,3.97,0,8.8,17.54,10.81,17.54,22.83,0,6.79-5.69,10.81-16.05,10.81-4.77,0-9.83-.86-12.65-2.19Z"/><path class="cls-1" d="M68.96,574.12c0,3.39-.23,10.12-.46,14.15h-.29l-10.75-12.94h-.46v35.08h3.97v1.21h-19.73v-1.21h3.97v-35.08h-.46l-10.75,12.94h-.23c-.23-4.03-.46-10.75-.46-14.15h35.66Z"/><path class="cls-1" d="M107.33,610.41h2.88v1.21h-19.04v-1.21h3.51l-5.23-16.33h-3.28v16.33h2.93v1.21h-17.71v-1.21h2.93v-33.87c-1.27-.8-2.01-1.5-2.93-2.36v-.06h20.13c8.22,0,14.26,3.22,14.26,9.09s-6.27,9.78-13.4,10.29v.17c2.99.29,5.75.75,8.63,1.44l6.33,15.3ZM86.16,592.87h4.54c3.28-2.01,3.8-4.83,3.8-8.68,0-6.15-2.47-8.86-5.75-8.86h-2.59v17.54Z"/><path class="cls-1" d="M109.69,592.92c0-11.33,7.94-19.38,19.15-19.38s19.15,8.05,19.15,19.38-7.88,19.27-19.15,19.27-19.15-7.94-19.15-19.27ZM134.82,592.87c0-13.34-1.5-18.06-5.98-18.06s-5.98,4.72-5.98,18.06,1.5,18.06,5.98,18.06,5.98-4.72,5.98-18.06Z"/><path class="cls-1" d="M176.75,574.12h10.52v.06c-1.21,1.67-2.7,3.39-4.6,5.12v32.32h-4.66l-22.54-30.14v28.93h4.6v1.21h-10.41v-1.21h4.6v-30.48l-4.54-5.75v-.06h14.15l17.66,23.75v-18.58c-1.96-1.73-3.45-3.45-4.77-5.12v-.06Z"/><path class="cls-1" d="M206.14,593.73h17.83v1.21h-2.47v17.37h-.23l-5.52-1.55c-2.42.86-5.18,1.44-7.99,1.44-11.96,0-19.15-7.99-19.15-19.27,0-11.9,7.88-19.38,20.13-19.38,3.68,0,8.8,1.15,11.56,2.7,0,3.57-.17,7.99-.4,12.02h-.29l-10.7-13.52h-.34c-5.29,0-6.73,5.41-6.73,17.94,0,14.09,1.96,18.29,6.56,18.29.69,0,1.21-.29,1.5-.81v-15.24h-3.74v-1.21Z"/><path class="cls-1" d="M270.79,574.12c0,3.39-.23,10.12-.46,14.15h-.29l-10.75-12.94h-.46v35.08h3.97v1.21h-19.73v-1.21h3.97v-35.08h-.46l-10.75,12.94h-.23c-.23-4.03-.46-10.75-.46-14.15h35.66Z"/><path class="cls-1" d="M272.92,592.92c0-11.33,7.94-19.38,19.15-19.38s19.15,8.05,19.15,19.38-7.88,19.27-19.15,19.27-19.15-7.94-19.15-19.27ZM298.06,592.87c0-13.34-1.5-18.06-5.98-18.06s-5.98,4.72-5.98,18.06,1.5,18.06,5.98,18.06,5.98-4.72,5.98-18.06Z"/><path class="cls-1" d="M366.84,574.12v1.21h-4.2l-11.33,36.23h-6.73l-6.44-29.5-6.33,29.5h-7.3l-10.75-36.23h-2.65v-1.21h18.12v1.21h-3.28l7.3,24.44,4.26-20.47-.86-3.97h-2.7v-1.21h18v1.21h-3.16l4.89,25.25,7.76-25.25h-6.15v-1.21h11.56Z"/><path class="cls-1" d="M393.42,574.12h10.52v.06c-1.21,1.67-2.7,3.39-4.6,5.12v32.32h-4.66l-22.54-30.14v28.93h4.6v1.21h-10.41v-1.21h4.6v-30.48l-4.54-5.75v-.06h14.15l17.66,23.75v-18.58c-1.96-1.73-3.45-3.45-4.77-5.12v-.06Z"/><path class="cls-1" d="M406.02,610.12c.11-4.6.23-9.03.46-12.54h.23l11.27,13.52q.29.06.52.06c3.16,0,5.81-1.73,5.81-4.95,0-9.32-17.6-10.06-17.6-21.62,0-6.73,6.04-11.1,15.76-11.1,3.97,0,7.76.81,10.93,2.3,0,2.7-.23,7.42-.46,12.02h-.17l-10.29-13c-.23-.12-.29-.12-.75-.12-2.47,0-4.54,1.44-4.54,3.97,0,8.8,17.54,10.81,17.54,22.83,0,6.79-5.69,10.81-16.05,10.81-4.77,0-9.83-.86-12.65-2.19Z"/><path class="cls-1" d="M458.88,569.06h6.67v36.98h20.3v5.58h-26.97v-42.56Z"/><path class="cls-1" d="M489.3,596.26c0-9.55,5.98-15.99,15.36-15.99s15.41,6.44,15.41,15.99-6.04,15.93-15.41,15.93-15.36-6.38-15.36-15.93ZM513.8,596.26c0-6.84-3.45-11.21-9.14-11.21s-9.14,4.37-9.14,11.21,3.51,11.16,9.14,11.16,9.14-4.37,9.14-11.16Z"/><path class="cls-1" d="M554.24,600.28c-.4,7.71-5.29,11.9-13.34,11.9-9.83,0-14.55-6.5-14.55-15.93s5.06-15.99,14.49-15.99c8.05,0,13,4.31,13.4,12.02h-6.1c-.4-4.43-3.16-6.96-7.36-6.96-5.29,0-8.22,3.57-8.22,10.87s2.93,10.93,8.22,10.93c4.37,0,6.96-2.3,7.36-6.84h6.1Z"/><path class="cls-1" d="M580.75,607.3h-.11c-2.07,2.88-5.58,4.89-10.7,4.89-6.56,0-9.72-3.68-9.72-8.17,0-8.86,8.97-9.03,15.3-10.12,4.6-.75,5.23-1.09,5.23-3.28,0-3.22-2.13-5.46-6.33-5.46s-6.38,1.73-6.79,5.75h-5.92c.69-6.67,4.26-10.64,12.77-10.64s12.42,4.08,12.42,12.31v19.04h-6.15v-4.31ZM580.81,596.6c-6.33,1.67-14.44,1.15-14.44,6.44,0,2.7,2.3,4.43,5.46,4.43,5.23,0,8.97-3.16,8.97-8.17v-2.7Z"/><path class="cls-1" d="M596.34,569.06h6.15v42.56h-6.15v-42.56Z"/><path class="cls-1" d="M665.36,603.85c-3.45,5.23-8.97,8.34-16.56,8.34-12.65,0-20.42-8.68-20.42-21.91s7.53-21.8,19.9-21.8c7.76,0,13.52,3.22,16.85,9.49l-5.75,2.99c-2.24-4.54-6.21-6.79-11.16-6.79-8.11,0-13.05,6.38-13.05,16.05s5.69,16.28,13.69,16.28c4.72,0,8.63-2.19,10.98-5.92l5.52,3.28Z"/><path class="cls-1" d="M670.02,596.26c0-9.55,5.98-15.99,15.36-15.99s15.41,6.44,15.41,15.99-6.04,15.93-15.41,15.93-15.36-6.38-15.36-15.93ZM694.52,596.26c0-6.84-3.45-11.21-9.14-11.21s-9.14,4.37-9.14,11.21,3.51,11.16,9.14,11.16,9.14-4.37,9.14-11.16Z"/><path class="cls-1" d="M708.56,580.85h6.15v4.83h.11c2.07-3.34,4.95-5.41,10.06-5.41,7.36,0,10.06,4.08,10.06,11.21v20.13h-6.15v-18.46c0-5-1.61-7.59-5.98-7.59-4.95,0-8.11,3.28-8.11,8.45v17.6h-6.15v-30.77Z"/><path class="cls-1" d="M739.62,580.85h6.61l8.28,23.75,8.34-23.75h6.44l-11.79,30.77h-6.1l-11.79-30.77Z"/><path class="cls-1" d="M800.13,601.09c-.52,6.44-5.29,11.1-13.4,11.1-10.06,0-14.44-6.38-14.44-15.93s4.77-15.99,14.38-15.99,13.52,6.1,13.52,15.93v.98h-21.68c.17,6.67,3.11,10.06,7.94,10.06,4.26,0,7.13-2.19,7.59-6.15h6.1ZM794.09,593.15c-.17-4.66-2.7-8.05-7.42-8.05s-7.42,2.65-8.05,8.05h15.47Z"/><path class="cls-1" d="M808.87,580.85h6.15v4.77h.11c1.96-3.34,4.6-5.35,8.57-5.35.4,0,1.38.06,1.78.17v6.38c-.69-.23-1.67-.4-2.65-.4-4.72,0-7.82,3.11-7.82,8.34v16.85h-6.15v-30.77Z"/><path class="cls-1" d="M835.79,601.55c.34,4.49,3.34,5.98,7.36,5.98,3.68,0,5.75-1.38,5.75-4.14,0-7.25-18.12-1.78-18.12-13.86,0-5.23,3.8-9.26,11.5-9.26s11.85,3.62,12.13,10.41h-5.98c-.23-3.97-2.53-5.69-6.15-5.69-4.03,0-5.29,2.07-5.29,4.14,0,6.84,18.06,1.78,18.06,13.86,0,5.58-4.08,9.2-12.02,9.2s-12.88-3.22-13.23-10.64h5.98Z"/><path class="cls-1" d="M881.63,607.3h-.11c-2.07,2.88-5.58,4.89-10.7,4.89-6.56,0-9.72-3.68-9.72-8.17,0-8.86,8.97-9.03,15.3-10.12,4.6-.75,5.23-1.09,5.23-3.28,0-3.22-2.13-5.46-6.33-5.46s-6.38,1.73-6.79,5.75h-5.92c.69-6.67,4.26-10.64,12.77-10.64s12.42,4.08,12.42,12.31v19.04h-6.15v-4.31ZM881.68,596.6c-6.33,1.67-14.44,1.15-14.44,6.44,0,2.7,2.3,4.43,5.46,4.43,5.23,0,8.97-3.16,8.97-8.17v-2.7Z"/><path class="cls-1" d="M897.04,585.91h-4.31v-5.06h4.31v-7.94h6.15v7.94h7.19v5.06h-7.19v16.16c0,3.11,1.5,4.49,4.37,4.49.92,0,1.9-.11,2.99-.29v5.46c-1.21.23-2.47.46-4.08.46-5.92,0-9.43-2.88-9.43-9.78v-16.51Z"/><path class="cls-1" d="M916.37,571.53c0-2.3,1.55-3.97,3.91-3.97s3.97,1.67,3.97,3.97-1.73,3.91-3.97,3.91c-2.36,0-3.91-1.67-3.91-3.91ZM917.23,580.85h6.15v30.77h-6.15v-30.77Z"/><path class="cls-1" d="M931.38,596.26c0-9.55,5.98-15.99,15.36-15.99s15.41,6.44,15.41,15.99-6.04,15.93-15.41,15.93-15.36-6.38-15.36-15.93ZM955.88,596.26c0-6.84-3.45-11.21-9.14-11.21s-9.14,4.37-9.14,11.21,3.51,11.16,9.14,11.16,9.14-4.37,9.14-11.16Z"/><path class="cls-1" d="M969.92,580.85h6.15v4.83h.11c2.07-3.34,4.95-5.41,10.06-5.41,7.36,0,10.06,4.08,10.06,11.21v20.13h-6.15v-18.46c0-5-1.61-7.59-5.98-7.59-4.95,0-8.11,3.28-8.11,8.45v17.6h-6.15v-30.77Z"/></svg>