<?xml version="1.0" encoding="UTF-8"?><svg id="Layer_1" xmlns="http://www.w3.org/2000/svg" viewBox="0 0 1250 1250"><defs><style>.cls-1{fill:#0c2340;}</style></defs><path class="cls-1" d="M468.32,586.06c0,30.2-25.17,43.95-46.66,43.95h-46.66v-.27c2.4-1.89,4.81-3.37,7.92-5.12v-76.84c-3.11-1.62-5.51-3.1-7.92-4.99v-.27h44.26c24.32,0,49.07,13.89,49.07,43.54ZM440.61,585.92c0-31.82-7.78-40.71-23.19-40.71h-9.33v78.87c4.67,2.56,8.34,3.24,12.16,3.24,12.3,0,20.36-8.09,20.36-41.39Z"/><path class="cls-1" d="M548.64,624.61c3.39,1.89,5.51,3.24,7.92,5.12v.27h-42v-.27c2.26-1.62,4.67-3.24,8.06-5.12l-7.64-20.49h-29.98l-5.8,15.23c4.38,3.51,7.49,6.2,11.88,10.38v.27h-27.57v-.27c3.53-3.37,7.35-6.47,12.58-10.38l29.84-76.98h11.88l30.83,82.24ZM486,601.43h28l-13.86-37.21-14.14,37.21Z"/><path class="cls-1" d="M631.79,595.63c.57,9.17.99,26.42.99,34.38h-73.25v-.27c2.4-1.89,4.81-3.37,7.92-5.12v-76.84c-3.11-1.62-5.51-3.1-7.92-4.99v-.27h41.15v.27c-2.26,1.75-4.81,3.37-8.06,4.99v76.84l8.48,2.7h6.65l23.33-31.68h.71Z"/><path class="cls-1" d="M711.4,595.63c.57,9.17.99,26.42.99,34.38h-73.25v-.27c2.4-1.89,4.81-3.37,7.92-5.12v-76.84c-3.11-1.62-5.51-3.1-7.92-4.99v-.27h41.15v.27c-2.26,1.75-4.81,3.37-8.06,4.99v76.84l8.48,2.7h6.65l23.33-31.68h.71Z"/><path class="cls-1" d="M796.38,624.61c3.39,1.89,5.51,3.24,7.92,5.12v.27h-42v-.27c2.26-1.62,4.67-3.24,8.06-5.12l-7.64-20.49h-29.98l-5.8,15.23c4.38,3.51,7.49,6.2,11.88,10.38v.27h-27.57v-.27c3.53-3.37,7.35-6.47,12.58-10.38l29.84-76.98h11.88l30.83,82.24ZM733.74,601.43h28l-13.86-37.21-14.14,37.21Z"/><path class="cls-1" d="M807.69,626.64c.14-10.38.42-20.36.85-28.31h.71l24.32,30.06c1.27.4,2.26.54,3.82.54,8.91,0,15.84-4.45,15.84-12.94,0-22.24-44.12-22.38-44.12-49.88,0-15.5,14.14-25.08,36.2-25.08,9.76,0,18.95,1.89,26.3,5.26,0,6.61-.42,16.99-.99,26.96h-.71l-22.34-28.72c-.99-.54-1.98-.81-3.68-.81-7.21,0-12.87,3.91-12.87,10.65,0,21.17,43.98,23.46,43.98,52.31,0,15.91-13.86,24.94-37.61,24.94-11.03,0-22.77-2.02-29.69-4.99Z"/><path class="cls-1" d="M418.46,649.25h17.12v.19c-2.09,2.38-4.66,4.85-7.61,7.32v33.48c0,12.27-4.95,21.69-22.16,21.69-15.88,0-25.39-7.99-25.39-21.78v-37.19c-2.09-1.14-3.71-2.19-5.42-3.52v-.19h27.11v.19c-1.33,1.24-2.76,2.38-4.76,3.52v37.28c-.19,10.94,4.95,18.74,14.36,18.74s14.36-7.13,14.36-18.74v-33.48c-2.85-2.47-5.42-4.95-7.61-7.32v-.19Z"/><path class="cls-1" d="M495.13,706.89c2.19,1.24,4.37,2.66,5.99,3.9v.19h-29.2v-.19c1.52-1.24,3.8-2.76,5.23-3.52l-9.51-25.11h-6.37v25.01c2.19,1.24,3.9,2.38,5.52,3.61v.19h-27.77v-.19c1.62-1.33,3.23-2.38,5.33-3.61v-54.21c-2.09-1.14-3.71-2.19-5.33-3.52v-.19h31.29c12.94,0,22.83,5.33,22.83,15.22s-9.7,15.6-20.92,16.74v.29c4.19.38,8.08,1.05,12.17,2l10.75,23.4ZM461.27,680.26h8.37c5.71-3.23,7.13-7.89,7.13-14.46,0-10.27-4.38-14.65-10.27-14.65h-5.23v29.1Z"/><path class="cls-1" d="M536.12,678.07c12.55,0,21.11,6.75,21.11,16.64s-9.89,16.26-26.25,16.26h-29.39v-.19c1.62-1.33,3.23-2.38,5.33-3.61v-54.21c-2.09-1.14-3.71-2.19-5.33-3.52v-.19h30.44c12.94,0,21.3,5.14,21.3,13.98,0,7.42-5.8,11.41-18.36,14.84h1.14ZM523.85,651.16v26.92h8.37c3.52-3.33,5.61-7.23,5.61-13.51,0-9.61-3.52-13.41-9.61-13.41h-4.37ZM540.49,695.67c0-10.18-4.66-15.69-13.22-15.69h-3.42v26.73c2.28,1.71,4.18,2.38,6.18,2.38,5.99,0,10.46-4.57,10.46-13.41Z"/><path class="cls-1" d="M612.3,707.18c2.28,1.33,3.71,2.28,5.33,3.61v.19h-28.25v-.19c1.52-1.14,3.14-2.28,5.42-3.61l-5.14-14.46h-20.16l-3.9,10.75c2.95,2.47,5.04,4.38,7.99,7.32v.19h-18.55v-.19c2.38-2.38,4.95-4.56,8.46-7.32l20.07-54.31h7.99l20.73,58.02ZM570.17,690.82h18.83l-9.32-26.25-9.51,26.25Z"/><path class="cls-1" d="M662.14,649.25h17.31v.19c-2.09,2.38-4.66,4.85-7.61,7.32v54.21h-6.47l-37.57-50.6v43.08c2.85,2.47,5.52,4.95,7.61,7.32v.19h-17.12v-.19c2.19-2.38,4.76-4.85,7.61-7.32v-45.46l-7.23-8.56v-.19h20.73l30.53,41.28v-33.76c-2.95-2.47-5.61-4.95-7.8-7.32v-.19Z"/><path class="cls-1" d="M710.93,649.44c-1.52,1.24-3.23,2.38-5.42,3.52v54.21c2.19,1.24,3.9,2.38,5.42,3.61v.19h-27.68v-.19c1.62-1.33,3.23-2.38,5.33-3.61v-54.21c-2.09-1.14-3.71-2.19-5.33-3.52v-.19h27.68v.19Z"/><path class="cls-1" d="M717.78,708.6c.1-7.32.29-14.36.57-19.97h.47l16.36,21.21c.86.29,1.52.38,2.57.38,5.99,0,10.65-3.14,10.65-9.13,0-15.69-29.67-15.79-29.67-35.19,0-10.94,9.51-17.69,24.35-17.69,6.56,0,12.74,1.33,17.69,3.71,0,4.66-.29,11.98-.67,19.02h-.48l-15.03-20.26c-.67-.38-1.33-.57-2.47-.57-4.85,0-8.65,2.76-8.65,7.51,0,14.93,29.58,16.55,29.58,36.9,0,11.22-9.32,17.6-25.3,17.6-7.42,0-15.31-1.43-19.97-3.52Z"/><path class="cls-1" d="M824.59,649.25c0,5.61-.29,15.88-.67,22.35h-.48l-15.6-20.45h-3.33v56.02c2.47,1.24,4.47,2.28,6.75,3.61v.19h-30.34v-.19c2.38-1.33,4.28-2.38,6.66-3.61v-56.02h-3.14l-15.6,20.45h-.48c-.47-6.47-.67-16.74-.67-22.35h56.88Z"/><path class="cls-1" d="M829.73,708.6c.1-7.32.29-14.36.57-19.97h.47l16.36,21.21c.86.29,1.52.38,2.57.38,5.99,0,10.65-3.14,10.65-9.13,0-15.69-29.67-15.79-29.67-35.19,0-10.94,9.51-17.69,24.35-17.69,6.56,0,12.74,1.33,17.69,3.71,0,4.66-.29,11.98-.67,19.02h-.48l-15.03-20.26c-.67-.38-1.33-.57-2.47-.57-4.85,0-8.65,2.76-8.65,7.51,0,14.93,29.58,16.55,29.58,36.9,0,11.22-9.32,17.6-25.3,17.6-7.42,0-15.31-1.43-19.97-3.52Z"/></svg>