<?xml version="1.0" encoding="UTF-8"?><svg id="Layer_1" xmlns="http://www.w3.org/2000/svg" viewBox="0 0 1250 1250"><defs><style>.cls-1{fill:#0c2340;}</style></defs><path class="cls-1" d="M523.34,743.88l-57,126.81h83.64l57-105.22h0c62.73,33.39,110.62,89.71,133.89,157.16l13.49,39.12c7.42,21.25,27.99,34.74,50.25,32.38l38.11-3.71-40.13-150.42c-9.44-35.75-28.67-68.46-55.31-94.43h0c-51.6-50.25-72.17-124.11-53.96-193.58h0c22.26,31.03,55.98,51.6,93.76,57.67l67.79,10.79h0c11.47-27.65-3.71-59.02-32.38-67.11h0c-30.02-8.43-54.97-28.67-69.47-56.32-15.18-29-34.74-62.73-47.22-87.35-11.13-20.91-39.46-27.32-61.04-20.91-22.93,9.44-44.85,20.91-67.11,32.04h0c-25.29,13.15-51.6,27.32-72.85,38.78h-.34c-27.65,15.51-47.22,42.16-53.29,73.18l-13.49,69.81c-4.38,22.93,16.19,42.49,38.78,36.76h0l26.98-74.2c9.11-25.29,28.33-45.53,52.95-56.32h0l-13.49,160.53c-2.02,25.63-8.77,50.93-19.22,74.53h-.34Z"/><path class="cls-1" d="M656.56,316.92c4.72-74.2,102.52-67.45,108.26-5.73,4.72,77.91-106.23,78.92-108.26,5.73Z"/><path class="cls-1" d="M359.77,607.97v372.66s350.41,0,350.41,0h0c-9.08-26.43-33.94-44.18-61.89-44.18h-219.49c-13.72,0-24.85-11.12-24.85-24.85v-259.45c0-24.4-19.78-44.18-44.18-44.18h0Z"/><path class="cls-1" d="M622.66,861.58h-77.73s-4.05,7.42-4.05,7.42h-63.74v-126.35c0-23.1-21.82-39.98-44.18-34.18h0v197.29h251.59,0c-9.08-26.43-33.94-44.18-61.89-44.18Z"/><path class="cls-1" d="M674.7,1005.25h-321.78c-13.72,0-24.85-11.12-24.85-24.85v-402.45c0-24.59-19.93-44.52-44.52-44.52h0v516s452.59,0,452.59,0h0c-8.87-26.4-33.6-44.18-61.45-44.18Z"/><path class="cls-1" d="M606.98,319.28c1.01-16.86,4.72-31.36,10.12-43.84H199.54c0,24.4,19.78,44.18,44.18,44.18h363.26v-.34Z"/><path class="cls-1" d="M972.22,402.24c-41.8-52.17-97.87-92.07-160.3-114.77l2.74,20.48.1,1.04.71,11.19c.64,10.11,6.62,19.11,15.69,23.6,106.25,52.56,175.8,161.18,175.8,284.08,0,111.36-41.65,184.57-108.42,239.56-20.57,16.94-29.29,44.37-22.09,70.04h0c35.75-21.58,67.79-49.24,94.43-81.95,51.94-64.08,80.6-145.02,80.6-227.65s-27.32-160.53-78.92-225.29l-.34-.34Z"/><path class="cls-1" d="M933.1,602.57c.67,8.09,1.35,16.19,1.35,24.28,0,60.58-23.2,117.23-61.66,160.41-18.07,20.29-25,48.15-17.69,74.32l.09.33h0c22.26-15.51,42.49-34.06,60.03-55.3,41.14-50.59,63.4-114.33,63.4-179.42s-22.26-127.48-62.39-177.73c-29.34-37.1-67.79-65.76-110.95-84.31h0c-.07.15-.14.3-.2.45-9.64,20.95-2.5,45.56,17.02,57.85,50.29,31.65,87.17,80.93,103.25,138.66"/><path class="cls-1" d="M532.45,375.26h0l50-25.95s0-.01,0-.01h-308.03c0,24.4,19.78,44.18,44.18,44.18h141.23c25.31,0,50.24-6.19,72.62-18.03l.34-.18h-.34Z"/><path class="cls-1" d="M1029.56,353c-60.37-75.54-144.68-129.5-237.76-151.76h0c-1.79-.45-3.63-.67-5.48-.67H125c0,24.4,19.78,44.18,44.18,44.18h473.88s0,0,0,0c38.45-30.69,95.78-28.67,134.23,0,0,0,0,0,0,0h0c4.48,0,8.95.53,13.28,1.69,171.19,45.71,289.91,199.55,289.91,377.72,0,161.09-62.37,249.87-159.75,316.01-21.6,14.67-31.2,41.66-24.06,66.77h0c50.25-27.32,95.11-64.08,131.19-108.93,62.73-77.23,97.13-174.36,97.13-273.85s-33.73-194.59-95.11-271.15h-.34Z"/></svg>