<?xml version="1.0" encoding="UTF-8"?>
<svg id="Layer_1" data-name="Layer 1" xmlns="http://www.w3.org/2000/svg" viewBox="0 0 200 200">
  <defs>
    <style>
      .cls-1 {
        stroke-width: 0px;
      }
    </style>
  </defs>
  <path class="cls-1" d="m172.03,162.5c0,6.88-5.53,12.5-12.29,12.5H36.86c-6.76,0-12.29-5.62-12.29-12.5V37.5c0-6.88,5.53-12.5,12.29-12.5h98.3L159.74,0H36.86C16.59,0,0,16.88,0,37.5v125c0,20.62,16.59,37.5,36.86,37.5h122.88c20.27,0,36.86-16.88,36.86-37.5v-75l-24.58,25v50Z"/>
  <polygon class="cls-1" points="89.31 111.8 58.69 80.64 33.92 105.84 89.31 162.19 200 49.59 175.23 24.39 89.31 111.8"/>
</svg>