<?xml version="1.0" encoding="UTF-8"?>
<svg id="Layer_1" data-name="Layer 1" xmlns="http://www.w3.org/2000/svg" viewBox="0 0 200 200">
  <defs>
    <style>
      .cls-1 {
        stroke-width: 0px;
      }
    </style>
  </defs>
  <path class="cls-1" d="m186.15,0H53.84C46.53,0,40.62,6.45,40.62,14.33v12.78h0v121.14s.79,6.65-2.2,13.78c-.31.77-.7,1.55-1.11,2.33-.05.08-.07.17-.13.26-.01.01-.02.01-.04.02-1.84,3.3-4.72,6.47-9.29,8.43,3.24-7.96,3.29-14.41,3.29-23.77-.05-6.91-.05-75.35-.05-111.07-4.15-.05-9.08-.05-14.6-.1C2.97,38.06.45,50.44,0,56.18v109.48s.06,5.59,1,9.6c1.28,4.86,3.42,9.56,6.63,14.65,5.07,8.11,14.7,9.79,17.09,10.09h163.78c1.45-.08,3.21-.35,4.61-1.08,4.11-2.6,6.89-7.42,6.89-12.98V15.08C200,6.78,193.81,0,186.15,0Zm-26.33,149.15h-82.2c0-.05-4.37-.7-4.24-4.65.07-2.22,1.2-4.6,4.24-5.52h82.38c0,.92,5.79.42,5.72,5.52,0,1.87-.13,4.6-5.9,4.65Zm0-23.73h-82.2c0,.29-4.37-.38-4.24-4.32.07-2.22,1.2-4.6,4.24-5.85h82.38c0,1.25,5.79.75,5.72,5.85,0,1.86-.13,4.6-5.9,4.31Zm0-20.34h-82.2c0-1.81-4.37-2.47-4.24-6.42.07-2.22,1.2-4.6,4.24-3.75h82.38c0-.85,5.79-1.35,5.72,3.76,0,1.87-.13,4.6-5.9,6.41Zm.71-23.73h-82.19c0-1.39-4.37-2.05-4.24-6,.06-2.22,1.19-4.6,4.24-4.17h82.38c0-.42,5.79-.93,5.72,4.18,0,1.87-.13,4.6-5.9,5.99Zm0-23.73h-82.19c0-.86-4.37-1.53-4.24-5.47.06-2.22,1.19-4.59,4.24-4.7h82.38c0,.11,5.79-.4,5.72,4.7,0,1.87-.13,4.6-5.9,5.47Z"/>
</svg>