<?xml version="1.0" encoding="UTF-8"?>
<svg id="Layer_1" data-name="Layer 1" xmlns="http://www.w3.org/2000/svg" viewBox="0 0 200 200">
  <defs>
    <style>
      .cls-1 {
        fill-rule: evenodd;
        stroke-width: 0px;
      }
    </style>
  </defs>
  <path class="cls-1" d="m165.48,19.85l-9.09,15.13c16.61,15,27.25,37.87,27.25,63.52s-10.64,48.53-27.25,63.53l9.09,15.12c20.98-18.29,34.52-46.68,34.52-78.65s-13.53-60.35-34.52-78.65Zm-18.23,30.35l-9.17,15.27c7.92,8.3,12.92,19.98,12.92,33.04s-5,24.75-12.92,33.05l9.17,15.27c12.24-11.69,20.03-28.98,20.03-48.33s-7.78-36.63-20.03-48.3Zm-32.77-32.02c0-9.8-7.04-17.98-15.85-18.18-10.03-.22-13.04,6.21-13.04,6.21,0,0-25.03,30.57-42.27,44.06-3.17,2.25-6.66,4.26-12.82,4.26h-14.15C7.32,54.55,0,62.69,0,72.73v54.55c0,10.04,7.32,18.18,16.35,18.18h14.15c6.17,0,9.65,2.02,12.81,4.26,17.24,13.49,42.27,44.07,42.27,44.07,0,0,3.02,6.42,13.05,6.2,8.82-.19,15.85-8.37,15.85-18.18V18.18Z"/>
</svg>