<?xml version="1.0" encoding="UTF-8"?><svg id="Layer_1" xmlns="http://www.w3.org/2000/svg" viewBox="0 0 480 480"><defs><style>.cls-1{fill:#000;stroke-width:0px;}</style></defs><path class="cls-1" d="M170.96,272.7v8.01c1.44-.07,2.79-.46,4.01-1.08l-4.01-6.94Z"/><path class="cls-1" d="M162.09,276.19c.76,1.17,1.76,2.17,2.93,2.93l4-6.94-6.94,4Z"/><path class="cls-1" d="M160.49,271.28c.07,1.44.46,2.79,1.08,4.01l6.94-4.01h-8.01Z"/><path class="cls-1" d="M178.8,276.19l-6.94-4,4,6.94c1.17-.76,2.17-1.76,2.93-2.93Z"/><path class="cls-1" d="M161.57,266.24c-.62,1.21-1,2.57-1.08,4.01h8.01l-6.94-4.01Z"/><path class="cls-1" d="M184.82,281.81c1.04,0,1.89-.85,1.89-1.89s-.85-1.89-1.89-1.89-1.89.85-1.89,1.89.85,1.89,1.89,1.89ZM184.82,278.97c.52,0,.95.42.95.95s-.42.95-.95.95-.95-.42-.95-.95.42-.95.95-.95Z"/><path class="cls-1" d="M114.41,213.43c1.23.9,2.7.97,3.29.16.59-.81.08-2.19-1.15-3.09-1.23-.9-2.7-.97-3.29-.16s-.08,2.19,1.15,3.09Z"/><path class="cls-1" d="M162.09,265.34l6.94,4-4-6.94c-1.17.76-2.17,1.76-2.93,2.93Z"/><path class="cls-1" d="M169.93,280.72v-8.01l-4.01,6.94c1.21.62,2.57,1,4.01,1.08Z"/><path class="cls-1" d="M289.4,365.69c0,9.31,7.55,16.87,16.87,16.87s16.87-7.55,16.87-16.87-7.55-16.87-16.87-16.87c-.54,0-1.08.03-1.61.08l2.38,11.74c2.46.37,4.35,2.49,4.35,5.05,0,2.82-2.29,5.11-5.11,5.11s-5.11-2.29-5.11-5.11c0-1.84.98-3.45,2.44-4.35l-2.38-11.74c-6.84,2.15-11.81,8.54-11.81,16.09Z"/><path class="cls-1" d="M206.56,253.28l-1.02,5.29c.56.83,1.27,1.3,1.84,1.57l1.68-9.2c-1.02.72-1.92,1.65-2.49,2.33Z"/><path class="cls-1" d="M233.65,351.57c2.31,2.59,3.98,5.75,4.81,9.23l2.57-.39,4.47-19.72-.31-1.24-11.54,12.12Z"/><path class="cls-1" d="M304.38,260.14l1.68-9.2c-1.02.72-1.92,1.65-2.49,2.33l-1.02,5.29c.56.83,1.27,1.3,1.84,1.57Z"/><path class="cls-1" d="M180.4,271.28h-8.01l6.94,4.01c.62-1.21,1-2.57,1.08-4.01Z"/><path class="cls-1" d="M151.17,328.11c-2.28,0-4.49.29-6.6.83l8.51,25.26h0c.36,1.05-.21,2.2-1.27,2.55-.21.07-.43.11-.64.11-.84,0-1.62-.53-1.91-1.37l-8.51-25.26c-9.58,4.07-16.31,13.57-16.31,24.62,0,14.74,11.99,26.73,26.73,26.73s26.73-11.99,26.73-26.73-11.99-26.73-26.73-26.73Z"/><path class="cls-1" d="M234.12,361.46c-.65-2.51-1.86-4.79-3.49-6.7l-8.03,8.44,11.53-1.73Z"/><path class="cls-1" d="M179.32,266.24l-6.94,4.01h8.01c-.07-1.44-.46-2.79-1.08-4.01Z"/><path class="cls-1" d="M222.8,366.72c-.47,2.33-2.54,4.09-5.01,4.09-1.94,0-3.62-1.08-4.49-2.66l-.32.05.22-.23c-.34-.68-.53-1.45-.53-2.26,0-2.82,2.29-5.11,5.11-5.11.73,0,1.41.15,2.04.43l8.25-8.67c-2.85-2.2-6.42-3.51-10.29-3.51-9.31,0-16.87,7.55-16.87,16.87s7.55,16.87,16.87,16.87,16.87-7.55,16.87-16.87c0-.25,0-.51-.02-.76l-11.83,1.78Z"/><path class="cls-1" d="M203.18,115.36c7.87,0,14.28-6.4,14.28-14.27s-6.4-14.28-14.28-14.28-14.28,6.41-14.28,14.28,6.4,14.27,14.28,14.27Z"/><rect class="cls-1" x="348.56" y="128.27" width="20.22" height="20.22"/><path class="cls-1" d="M389,86.82c-6.14,0-11.12,4.97-11.12,11.12s4.98,11.12,11.12,11.12,11.12-4.97,11.12-11.12-4.98-11.12-11.12-11.12Z"/><rect class="cls-1" x="348.56" y="168.71" width="20.22" height="20.22"/><rect class="cls-1" x="378.89" y="128.27" width="20.22" height="20.22"/><rect class="cls-1" x="439.56" y="128.27" width="20.22" height="20.22"/><path class="cls-1" d="M279.3,258.96c.66-.56.5-1.83-.35-2.84s-2.08-1.36-2.74-.79c-.66.56-.5,1.83.35,2.84.85,1,2.08,1.36,2.74.79Z"/><path class="cls-1" d="M39.35,381.57c14.06,0,25.61-10.92,26.65-24.72h-26.64c-.75,0-1.44-.42-1.78-1.08-.35-.66-.3-1.46.12-2.08l15.06-21.98c-3.94-2.3-8.52-3.62-13.4-3.62-14.74,0-26.73,11.99-26.73,26.73s11.99,26.73,26.73,26.73Z"/><rect class="cls-1" x="409.22" y="168.71" width="20.22" height="20.22"/><path class="cls-1" d="M66,352.82c-.57-7.59-4.32-14.31-9.93-18.82l-12.9,18.82h22.83Z"/><rect class="cls-1" x="318.22" y="128.27" width="20.22" height="20.22"/><rect class="cls-1" x="409.22" y="128.27" width="20.22" height="20.22"/><rect class="cls-1" x="439.56" y="168.71" width="20.22" height="20.22"/><path class="cls-1" d="M480,391.29v-182.13h-80.89v-40.44h-20.22v40.44h-69.04c-6.54,0-11.85-5.3-11.85-11.85v-77.41c0-6.55,5.31-11.85,11.85-11.85h28.6v-7.49c0-3.49,1.86-6.71,4.88-8.47l40.62-23.56v-24.46c0-3.75,3.04-6.79,6.79-6.79h24.01c2.53,0,4.58,2.05,4.58,4.58v11.06c0,2.53-2.05,4.58-4.58,4.58h-20.7v11.03l40.62,23.56c3.02,1.76,4.88,4.99,4.88,8.47v7.49h40.44v-49.39c0-32.39-26.26-58.66-58.66-58.66H58.66C26.26,0,0,26.26,0,58.66v227.32h40.41v2.81H0v132.56c0,32.39,26.26,58.66,58.66,58.66h362.69c32.39,0,58.66-26.26,58.66-58.66v-24.79H2.51v-5.27h477.49ZM151.17,387.16c-17.85,0-32.32-14.47-32.32-32.32,0-13.53,8.32-25.11,20.11-29.93l-5.74-17.04-34.51,36.62,2.91-8.96,30.14-31.98-1.89-5.61-18.12,5.64c.13-1.4-.02-2.78-.43-4.08l17.27-5.37-2.95-8.76c-.33-.97.12-2.02,1.04-2.46l2.67-1.27,4.29,2.42-3.62,1.72,12.76,37.86c2.68-.72,5.49-1.11,8.39-1.11,17.85,0,32.32,14.47,32.32,32.32s-14.47,32.32-32.32,32.32ZM113.87,162.47c-.84-.76-1.35-1.14-1.68-1.29,1.17-.98,2.88-.99,5.39,1.29,2.78,2.52,4.32,8.18,4.32,8.18,0,0-5.79-.98-8.57-3.5-2.51-2.28-2.66-3.97-1.81-5.23.19.31.61.78,1.45,1.54,1.82,1.65,5.14,3.75,5.14,3.75,0,0-2.42-3.1-4.24-4.74ZM122.09,211.17c1.52.83,2.93,1.79,3.79,2.55.57.5.9.91.86,1.13-.03.13-.14.24-.3.34-.41.24-1.2.35-2.25.33-.93.29-7.4,2.33-9.79,4.27-27.77,22.57-26.31,2.67-25.27-2.09,2.17-9.89,11.95-16.14,21.84-13.97,4.7,1.03,8.57,3.79,11.12,7.45ZM128.26,165.29c-.71-.89-1.15-1.34-1.45-1.54,1.31-.78,3-.52,5.11,2.12,2.35,2.93,2.97,8.76,2.97,8.76,0,0-5.56-1.88-7.91-4.81-2.12-2.65-2-4.35-.95-5.46.13.34.47.87,1.19,1.76,1.53,1.91,4.48,4.52,4.48,4.52,0,0-1.9-3.44-3.43-5.35ZM124.3,232.7c-1.79,3.74-4.82,6.49-8.37,7.97-7.33-7-6.62-13.12-6.3-14.63,1.91-1.33,3.94-2.86,6.1-4.62,1.44-1.17,5.35-2.68,8.1-3.58,2.46,4.43,2.82,9.94.47,14.86ZM107.36,227.56c-.08,2.96.77,8.18,6.34,13.86-3.55.91-7.44.63-11.01-1.07-3.58-1.71-6.25-4.56-7.77-7.91,3.29-.04,7.41-1.66,12.44-4.88ZM140.36,273.06c2.7,1.52,3.66,4.95,2.14,7.66-1.03,1.83-2.94,2.86-4.9,2.86-.93,0-1.88-.23-2.75-.72l-49.9-28.11c-2.7-1.52-3.66-4.95-2.14-7.66,1.52-2.71,4.95-3.66,7.66-2.14l49.9,28.11ZM254.22,368.23c-.77,3.38-3.77,5.68-7.1,5.68-.53,0-1.08-.06-1.62-.18-3.93-.89-6.39-4.79-5.5-8.72l.21-.91-1.22.18c.03.47.05.94.05,1.41,0,11.73-9.51,21.24-21.24,21.24s-21.24-9.51-21.24-21.24,9.51-21.24,21.24-21.24c5.05,0,9.68,1.76,13.32,4.7l13.06-13.72-.16-.65-5.4-6.58c1.71.52,3.29.76,4.41.92l9.1,3.18-5.93,19.86c-1.48,4.97,1.35,10.21,6.32,11.7.74.22,1.5.35,2.27.38.11,0,.23,0,.34,0l-.9,3.99ZM379.79,234.32c1.13-3.02,1.97-6.17,2.76-9.34.35-1.64,2.03-2.68,3.74-2.35l4.38.88c1.71.33,2.79,2.09,2.39,3.92-.87,3.55-1.83,7.09-3.12,10.56-.61,1.8-2.57,2.67-4.16,2l-4.14-1.69c-1.62-.68-2.37-2.43-1.85-3.98ZM367.19,255.2c2.14-2.26,4.16-4.67,5.88-7.32.89-1.33,2.75-1.76,4.27-.87l3.85,2.27c1.48.87,1.94,2.96.86,4.58-2.07,3.15-4.5,6.09-7.11,8.84-1.38,1.4-3.48,1.46-4.66.13l-3.02-3.28c-1.14-1.27-1.18-3.23-.07-4.35ZM346.77,268.04c3.01-1.04,5.88-2.37,8.65-3.84,1.37-.81,3.25-.27,4.19,1.2l2.38,3.79c.94,1.47.34,3.47-1.35,4.47-3.33,1.78-6.76,3.34-10.29,4.57-1.82.63-3.71-.31-4.2-1.97l-1.28-4.27c-.49-1.69.38-3.4,1.91-3.93ZM312.62,238.39c1.53,0,2.86.84,3.58,2.08h3.69c.57,0,1.04.46,1.04,1.04s-.46,1.04-1.04,1.04h-3.12c0,2.3-1.86,4.15-4.15,4.15s-4.15-1.86-4.15-4.15,1.86-4.15,4.15-4.15ZM296.33,258.42l4.74-9.36c.28-.56.86-.89,1.48-.86l.82.04c.29.04.55.2.72.43s.24.53.19.82l-.19,1.02c1.24-1.09,2.88-2.15,4.57-2.15l3.57.41c1.01.12,1.91.68,2.44,1.54l2.86,4.6,4.39,2.44c1,.56,1.36,1.82.81,2.82-.38.68-1.09,1.07-1.82,1.07-.34,0-.69-.09-1.01-.26l-4.88-2.71c-.32-.18-.59-.43-.77-.75l-1.2-2-1.29,8.58,4.22,3.71c.45.35.76.86.87,1.42l1.93,9.93c.25,1.29-.59,2.55-1.89,2.8-.15.03-.31.04-.46.04-1.12,0-2.12-.79-2.34-1.93l-1.76-9.06-6.82-5.36c-1.16-.91-1.74-1.99-1.45-3.84l.02-.1c-.54-.22-1.24-.6-1.92-1.22l-.37,1.91c-.1.58-.65.98-1.23.89l-2.18-.49c-.92-.21-1.7-.83-2.11-1.69-.4-.86-.39-1.85.04-2.7ZM308.46,270.6v.28c0,.41-.06.8-.26,1.16l-4.61,8.73c-.43.79-1.25,1.24-2.09,1.24-.39,0-.78-.1-1.15-.3-1.15-.64-1.57-2.09-.94-3.24l4.27-8.19v-3.57c.19.19.34.41.56.58l4.22,3.31ZM292.39,307.66l4.25,1.72,7.14,35.23c.82-.1,1.64-.15,2.48-.15,11.73,0,21.24,9.51,21.24,21.24s-9.51,21.24-21.24,21.24-21.24-9.51-21.24-21.24c0-9.67,6.47-17.83,15.32-20.4l-1.13-5.59-34.7,16.84,1.36-4.57,32.62-15.83-1.07-5.29-26.21,3.24,1.1-3.68,24.41-3.01-3.14-15.48-3.64-1.47c1.06-.68,1.92-1.64,2.46-2.8ZM290.88,305.41c-.3,2.38-2.38,4.1-4.73,3.99-.12,0-.25-.02-.37-.03l-17.25-2.18c-1.31-.17-2.48-.89-3.21-1.98l-4.96-7.35c-2.39,5.12-5.2,11.26-6.49,17.37l12.24,4.28c3.68,1.29,5.7,5.23,4.58,8.97l-8.49,28.46c-.98,3.27-4.05,5.35-7.31,5.2-.58-.03-1.18-.12-1.76-.3-3.86-1.15-6.05-5.21-4.9-9.07l6.5-21.79-11.19-3.91c-5.67-.81-12.18-2.76-12.43-11.2.72-11.68,3.02-18.31,9.4-28.08,4.69-7.08,12.91-8.32,18.03-6.44.81.3,1.5.72,2.11,1.22.49.32.93.75,1.29,1.27l9.82,14.55,15.2,1.92c2.5.32,4.27,2.6,3.96,5.11ZM270.51,282.14c-1.15.06-2.33,0-3.51-.24-5.94-1.2-10.22-6.02-11.03-11.7,2.78.75,6.64.26,11.66-1.48-.67,2.59-.94,7.33,2.88,13.41ZM270.2,267.77c1.83-.73,3.78-1.59,5.88-2.6,1.32-.64,4.44-1.1,6.88-1.34.75,2.24.95,4.69.45,7.17-1.16,5.76-5.73,9.96-11.18,10.95l.46-.3c-5.19-7.79-2.94-12.98-2.49-13.87ZM254.4,256.71c3.81-7.9,13.3-11.22,21.2-7.41,3.76,1.81,6.47,4.91,7.88,8.51,1.12,1.01,2.12,2.1,2.69,2.91.38.54.58.95.5,1.12-.05.11-.16.18-.32.23-.39.12-1.08.06-1.96-.17-.83.05-6.7.48-9.11,1.64-27.92,13.47-22.72-3.01-20.89-6.82ZM238.39,136.51s6.42-9.82,12.14-3.39c-5.37-1.17-9.78,4.69-11.18,7.09-2.4-1.42-9.08-4.42-13.22-.8,1.89-8.4,12.26-2.91,12.26-2.91ZM234.44,164.93s6.42-9.82,12.14-3.39c-5.37-1.17-9.77,4.69-11.18,7.1-2.4-1.42-9.08-4.42-13.22-.8,1.89-8.4,12.26-2.91,12.26-2.91ZM218.99,267.8c.45.35.76.86.87,1.42l1.93,9.93c.25,1.29-.59,2.55-1.89,2.8-.15.03-.31.04-.46.04-1.12,0-2.12-.79-2.34-1.93l-1.76-9.06-6.82-5.36c-1.16-.91-1.74-1.99-1.45-3.84l.02-.1c-.54-.22-1.24-.6-1.92-1.22l-.37,1.91c-.1.58-.65.98-1.23.89l-2.18-.49c-.92-.21-1.7-.83-2.11-1.69-.4-.86-.39-1.85.04-2.7l4.74-9.36c.1-.2.25-.36.42-.5-.23.12-.47.22-.72.28-3.3.72-4.27-2.23-3.47-1.63.81.6,2.18.8,4.18-2.33,1.68-2.64,3.47-3,4.94-2.69,0-.17,0-.34.02-.51.18-2.09,1.73-3.88,3.88-4.27,2.59-.47,5.07,1.24,5.54,3.83.47,2.59-1.24,5.07-3.83,5.54-1.49.27-2.94-.18-3.99-1.11,0,0-.01-.01-.02-.02-.3-.26-.56-.56-.79-.9-.18-.26-.33-.54-.45-.84-1.71-.43-2.87,3.03-4.9,4.42.21-.09.44-.14.68-.13l.82.04c.29.04.55.2.72.43s.24.53.19.82l-.19,1.02c1.24-1.09,2.88-2.15,4.57-2.15l3.57.41c1.01.12,1.91.68,2.44,1.54l2.86,4.6,4.39,2.44c1,.56,1.36,1.82.81,2.82-.38.68-1.09,1.07-1.82,1.07-.34,0-.69-.09-1.01-.26l-4.88-2.71c-.32-.18-.59-.43-.77-.75l-1.2-2-1.29,8.58,4.22,3.71ZM211.46,270.6v.28c0,.41-.06.8-.26,1.16l-4.61,8.73c-.43.79-1.25,1.24-2.09,1.24-.39,0-.78-.1-1.15-.3-1.15-.64-1.57-2.09-.94-3.24l4.27-8.19v-3.57c.19.19.34.41.56.58l4.22,3.31ZM221.87,150.91c-5.37-1.16-9.77,4.69-11.18,7.09-2.39-1.42-9.08-4.42-13.22-.8,1.89-8.4,12.26-2.91,12.26-2.91,0,0,6.42-9.82,12.14-3.39ZM203.18,83.44c9.74,0,17.64,7.9,17.64,17.64s-7.9,17.64-17.64,17.64-17.64-7.9-17.64-17.64,7.9-17.64,17.64-17.64ZM187.82,261.34l6.72,14.49c.68,1.48.04,3.23-1.43,3.91-.4.19-.82.27-1.24.27-1.11,0-2.18-.63-2.67-1.71l-5.59-12.05-.79.28c-.43-1.24-1.03-2.4-1.79-3.45-.19-.58-.59-1.09-1.17-1.4-.09-.09-.17-.18-.26-.26l4.57-1.63c1.43-.51,3.02.15,3.66,1.54ZM169.93,268.83v-6.64l1.04.52v6.13l2.75-4.76.93.46-2.78,4.82,5.78-3.33h0c.34.17.7.25,1.08.25.93,0,1.76-.52,2.18-1.35.1-.2.16-.4.2-.61,1.14,1.88,1.8,4.09,1.8,6.46,0,6.88-5.58,12.46-12.46,12.46s-12.46-5.58-12.46-12.46c0-5.23,3.22-9.7,7.79-11.55,0,.02,0,.04.02.07.19.64.65,1.17,1.24,1.47l.8.4c-.67.18-1.31.43-1.92.74l4.01,6.94ZM184.82,276.7c1.78,0,3.22,1.44,3.22,3.22s-1.44,3.22-3.22,3.22-3.22-1.44-3.22-3.22,1.44-3.22,3.22-3.22ZM176.75,237c2.93,0,5.3,2.37,5.3,5.3s-2.37,5.3-5.3,5.3-5.3-2.37-5.3-5.3,2.37-5.3,5.3-5.3ZM172.19,247.97c2.05-.31,3.94,1.95,4.21,4.38.45,2.24.94,5.17,1.85,7.94-1.8-1.34-3.95-2.23-6.29-2.5l-.47-.23,2.54-4.44c.32-.56.4-1.22.23-1.84-.17-.63-.58-1.15-1.14-1.47-.37-.21-.78-.32-1.2-.32-.87,0-1.68.47-2.11,1.22l-1.74,3.06c-.09-3.46,2.12-5.48,4.12-5.78ZM177.61,260.58l-3.4-1.69c1.23.39,2.37.96,3.4,1.69ZM166.48,257.64l3.81-6.68c.52-.9,1.67-1.22,2.57-.7.9.52,1.22,1.67.7,2.57l-2.82,4.94,8.82,4.37c.93.46,1.31,1.59.85,2.53-.33.66-1,1.05-1.69,1.05-.28,0-.57-.06-.84-.2l-10.6-5.26c-.46-.23-.81-.64-.97-1.14-.15-.5-.09-1.03.17-1.48ZM157.84,252.08c.11-.51.62-.83,1.12-.72l6.23,1.38,1.03,4.25-.21.38c-.21.37-.32.79-.32,1.21-.31.12-.62.25-.93.4l-1.13-4.66-5.08-1.13c-.51-.11-.83-.62-.72-1.12ZM153.78,285.97h75.31v2.81h-75.31v-2.81ZM152.16,168.17s-5.76,1.12-9.25-.26c-3.15-1.25-3.89-2.78-3.53-4.27.29.23.85.52,1.9.94,2.28.9,6.13,1.71,6.13,1.71,0,0-3.35-2.05-5.63-2.95-1.05-.42-1.66-.59-2.03-.62.75-1.32,2.34-1.94,5.49-.69,3.49,1.38,6.92,6.14,6.92,6.14ZM137.84,146.94c3.34-1.7,9.18-1.12,9.18-1.12,0,0-2.97,5.06-6.32,6.76-3.02,1.53-4.66,1.07-5.53-.18.36-.06.95-.29,1.96-.81,2.19-1.11,5.34-3.46,5.34-3.46,0,0-3.76,1.16-5.94,2.27-1.01.51-1.54.86-1.81,1.11-.49-1.44.1-3.04,3.12-4.57ZM123.59,143.41c2.68-2.63,8.42-3.83,8.42-3.83,0,0-1.32,5.72-4,8.34-2.42,2.37-4.12,2.42-5.33,1.49.32-.17.82-.56,1.63-1.36,1.75-1.72,4.05-4.9,4.05-4.9,0,0-3.23,2.23-4.99,3.95-.81.79-1.21,1.28-1.39,1.6-.9-1.23-.82-2.93,1.6-5.3ZM106.78,143.53s-4.91,3.21-8.66,3.25c-3.39.03-4.65-1.11-4.88-2.61.35.1.98.16,2.12.15,2.45-.03,6.32-.73,6.32-.73,0,0-3.88-.63-6.33-.6-1.13.01-1.76.08-2.11.19.2-1.51,1.44-2.68,4.83-2.71,3.75-.04,8.73,3.07,8.73,3.07ZM82.57,149.45c-1.13-.04-1.76,0-2.12.09.27-1.5,1.57-2.61,4.95-2.48,3.75.14,8.57,3.49,8.57,3.49,0,0-5.06,2.97-8.81,2.83-3.38-.13-4.59-1.33-4.75-2.85.35.12.97.21,2.11.25,2.45.09,6.35-.43,6.35-.43,0,0-3.85-.82-6.29-.91ZM87.76,133.62c3.36-1.67,9.2-1.03,9.2-1.03,0,0-3.03,5.03-6.39,6.69-3.03,1.5-4.67,1.03-5.53-.23.36-.06.95-.28,1.97-.79,2.2-1.09,5.37-3.41,5.37-3.41,0,0-3.77,1.12-5.96,2.21-1.02.5-1.55.84-1.82,1.09-.48-1.45.13-3.04,3.17-4.54ZM73.55,132.17c2.68-2.62,8.42-3.83,8.42-3.83,0,0-1.32,5.72-4,8.34-2.42,2.37-4.12,2.42-5.33,1.49.32-.17.82-.56,1.63-1.36,1.75-1.72,4.05-4.9,4.05-4.9,0,0-3.23,2.23-4.99,3.95-.81.79-1.21,1.28-1.39,1.6-.9-1.23-.82-2.93,1.6-5.3ZM56.47,111.2c2.78-2.52,8.57-3.5,8.57-3.5,0,0-1.54,5.66-4.32,8.18-2.51,2.27-4.21,2.26-5.39,1.29.33-.16.84-.53,1.68-1.29,1.82-1.65,4.24-4.74,4.24-4.74,0,0-3.32,2.11-5.14,3.75-.84.76-1.26,1.23-1.45,1.55-.86-1.26-.7-2.96,1.81-5.23ZM53.43,124.38c.31.19.9.42,2,.71,2.37.63,6.28.97,6.28.97,0,0-3.57-1.64-5.94-2.26-1.1-.29-1.72-.39-2.09-.38.59-1.4,2.1-2.2,5.37-1.33,3.63.96,7.6,5.28,7.6,5.28,0,0-5.59,1.79-9.21.83-3.28-.87-4.19-2.3-4.01-3.82ZM33.98,136.62c-1.1-.29-1.72-.39-2.09-.38.59-1.4,2.1-2.2,5.37-1.33,3.63.96,7.6,5.28,7.6,5.28,0,0-5.59,1.79-9.21.83-3.28-.87-4.19-2.3-4.01-3.82.31.19.9.42,2,.71,2.37.63,6.28.97,6.28.97,0,0-3.57-1.64-5.94-2.26ZM44.29,131.59c.31.19.9.41,2,.71,2.37.63,6.28.97,6.28.97,0,0-3.57-1.64-5.94-2.26-1.1-.29-1.72-.39-2.09-.38.59-1.4,2.1-2.2,5.37-1.33,3.63.96,7.6,5.28,7.6,5.28,0,0-5.59,1.79-9.21.83-3.28-.87-4.19-2.3-4.01-3.82ZM37.77,115.14c1.42-3.47,6.22-6.86,6.22-6.86,0,0,1.06,5.77-.36,9.25-1.28,3.14-2.82,3.86-4.3,3.49.23-.29.53-.84.96-1.89.93-2.27,1.77-6.11,1.77-6.11,0,0-2.08,3.33-3.01,5.6-.43,1.05-.61,1.66-.64,2.02-1.32-.77-1.91-2.36-.63-5.5ZM29.75,106.8c1.34-3.5,6.07-6.99,6.07-6.99,0,0,1.18,5.75-.16,9.25-1.21,3.16-2.74,3.92-4.22,3.58.22-.29.51-.85.92-1.91.88-2.29,1.64-6.14,1.64-6.14,0,0-2.01,3.38-2.89,5.67-.41,1.06-.57,1.67-.6,2.03-1.33-.74-1.96-2.32-.75-5.48ZM18.34,100.04s4.99,3.09,6.61,6.47c1.46,3.05.97,4.68-.3,5.53-.06-.36-.27-.96-.76-1.98-1.06-2.21-3.34-5.41-3.34-5.41,0,0,1.07,3.78,2.13,5.99.49,1.02.82,1.56,1.07,1.83-1.45.46-3.04-.17-4.5-3.22-1.62-3.38-.91-9.21-.91-9.21ZM21.76,117.99c2.4,2.39,2.47,4.1,1.55,5.31-.17-.32-.57-.81-1.37-1.61-1.73-1.73-4.94-4-4.94-4,0,0,2.27,3.21,4,4.95.8.8,1.29,1.2,1.61,1.37-1.22.92-2.92.85-5.32-1.55-2.65-2.65-3.91-8.38-3.91-8.38,0,0,5.73,1.26,8.39,3.91ZM1.92,166.18v-24.6l5.26,1.62,9.59-13.43,10.31-2.81-.47-12.18h2.81l1.41,13.12,7.5-.94,13.59-9.84,1.41,2.81-13.12,11.24-20.15,4.22-5.26,10.15,23.63,7.27,19.82-11.78,25.65-.35,4.22,3.16-27.76,2.81-14.57,7.89,27.48,3.2,38.65-6.32,26.7,5.62-1.05,5.27-27.76-5.27-33.73,14.76-34.79-8.43-39.35,2.81ZM65.58,150.19c-1.08-.36-1.69-.49-2.06-.5.68-1.36,2.23-2.07,5.45-1,3.56,1.18,7.26,5.74,7.26,5.74,0,0-5.69,1.44-9.25.26-3.21-1.07-4.04-2.56-3.77-4.06.3.21.88.47,1.95.83,2.33.77,6.21,1.36,6.21,1.36,0,0-3.46-1.86-5.79-2.63ZM39.35,322.51c6.06,0,11.73,1.67,16.58,4.57l8.63-12.59c.26-.37.64-.65,1.06-.79l3.25-1.01-1.92-5.34c-4.37,1.24-13.19-1.44-13.06-3.56.09-1.38.76-2.78,1.29-3.68.35-.6.99-.98,1.68-1,1.5-.03,4.47-.09,7.9-.12,1.37-.01,2.82-.02,4.28-.02l-4.8-1.93c-.57-.18-1.17-.43-1.8-.73l-3.29-1.32c-1.8-.72-3.21-1.98-4.16-3.5-3.3-3.16-5.31-7.75-2.85-15.12,6.09-14.49,11.52-22.02,22.65-32.02,8.14-7.22,17.31-5.79,21.8-1.54,1.42,1.35,2.21,3.13,2.46,5.1l-7.79-4.39c-1.08-.61-2.31-.93-3.55-.93-2.61,0-5.03,1.41-6.31,3.69-.95,1.68-1.18,3.64-.66,5.5.52,1.86,1.73,3.41,3.42,4.36l9.36,5.27c-5.07,5.89-11.92,13.46-16.79,21.72l27.97,11.27c4.28,1.72,6.5,6.47,5.07,10.86l-15.46,47.55c-1.21,3.71-4.65,6.07-8.35,6.07-.9,0-1.82-.14-2.72-.43-4.61-1.5-7.14-6.46-5.64-11.07l12.92-39.75-8.56-3.45c-1.02.13-2.12.28-3.25.44-2.79.39-5.74.84-7.97,1.39l1.97,5.48,13.01-4.05,2.79,1.12-.81,2.48-13.62,4.24,6.44,17.86-2.03,6.24-8.25-22.91-2.76.86-8.24,12.02c7.07,5.53,11.78,13.93,12.36,23.45h4.31c.4,1.48,1.13,2.86,2.13,4.03h-6.44c-1.04,16.91-15.08,30.31-32.25,30.31s-32.32-14.47-32.32-32.32,14.47-32.32,32.32-32.32Z"/><rect class="cls-1" x="318.22" y="168.71" width="20.22" height="20.22"/></svg>