<?xml version="1.0" encoding="UTF-8"?><svg id="Layer_1" xmlns="http://www.w3.org/2000/svg" viewBox="0 0 480 480"><defs><style>.cls-1{fill:#000;stroke-width:0px;}</style></defs><path class="cls-1" d="M101.4,363.59c0,10.72,8.72,19.44,19.44,19.44s19.44-8.72,19.44-19.44-8.72-19.44-19.44-19.44-19.44,8.72-19.44,19.44ZM131.31,363.59c0,5.78-4.69,10.47-10.47,10.47s-10.47-4.69-10.47-10.47,4.69-10.47,10.47-10.47,10.47,4.69,10.47,10.47Z"/><path class="cls-1" d="M285.18,68.45c2.61,1.91,5.75,2.07,7.01.34,1.26-1.72.17-4.67-2.44-6.58-2.61-1.91-5.75-2.06-7.01-.34s-.17,4.67,2.44,6.58Z"/><path class="cls-1" d="M120.84,393.5c-16.52,0-29.91-13.39-29.91-29.91s13.39-29.91,29.91-29.91c4.71,0,9.14,1.12,13.1,3.05l15.82-22.9c-8.51-4.96-18.38-7.82-28.92-7.82-31.75,0-57.58,25.83-57.58,57.58s25.83,57.58,57.58,57.58c28.89,0,52.88-21.39,56.96-49.17h-28.27c-3.64,12.42-15.1,21.5-28.69,21.5Z"/><path class="cls-1" d="M157.14,318.93l-15.82,22.9c3.82,3.6,6.69,8.18,8.21,13.35h28.27c-2.14-14.56-9.75-27.36-20.67-36.25Z"/><path class="cls-1" d="M421.34,0H58.66C26.26,0,0,26.26,0,58.66v362.69c0,32.39,26.26,58.66,58.66,58.66h362.69c32.39,0,58.66-26.26,58.66-58.66V58.66c0-32.39-26.26-58.66-58.66-58.66ZM344.97,211.67c-2.2,3.9-6.26,6.09-10.44,6.09-1.99,0-4-.5-5.86-1.54l-106.19-59.83c-5.76-3.24-7.79-10.54-4.55-16.3,3.24-5.76,10.54-7.8,16.3-4.55l106.19,59.83c5.76,3.24,7.8,10.54,4.55,16.3ZM283.67,128.04c-7.56,1.94-15.82,1.35-23.42-2.27-7.62-3.64-13.3-9.71-16.55-16.84,6.99-.09,15.77-3.54,26.48-10.39-.18,6.29,1.65,17.4,13.49,29.51ZM275.02,95.29c4.08-2.84,8.39-6.09,12.99-9.83,3.06-2.48,11.38-5.7,17.23-7.62,5.23,9.43,5.99,21.15,1,31.63-3.8,7.97-10.26,13.81-17.82,16.97-15.6-14.9-14.09-27.93-13.41-31.15ZM231.4,77.52c4.62-21.04,25.43-34.36,46.47-29.74,10,2.2,18.25,8.06,23.66,15.86,3.24,1.78,6.25,3.82,8.08,5.42,1.22,1.07,1.92,1.94,1.82,2.4-.06.28-.29.52-.63.72-.87.51-2.56.75-4.79.71-1.99.61-15.75,4.95-20.84,9.09-59.1,48.03-56.01,5.67-53.78-4.46ZM201.58,372h-11.71c-4.17,34.39-33.52,61.14-69.02,61.14-38.35,0-69.55-31.2-69.55-69.55s31.2-69.55,69.55-69.55c13.06,0,25.28,3.62,35.73,9.91l17.56-25.42c.57-.82,1.39-1.43,2.34-1.73l6.84-2.16-4.12-11.33c-9.27,2.7-28.17-3.03-27.88-7.55.19-2.93,1.63-5.92,2.74-7.83.75-1.28,2.1-2.09,3.58-2.12,2.08-.04,5.47-.11,9.58-.16l5.98,2.41c1.49.7,2.81,1.23,4.05,1.63l21.43,8.63c-3.95.61-7.8,1.29-11.01,2.05l4.21,11.58,22.8-7.19,13.11,5.28-32.83,10.35,16.93,46.55-4.51,13.86-20.99-57.71-5.74,1.81-16.7,24.18c14.01,11.1,23.66,27.48,25.92,46.11h11.71c.44,0,.87.04,1.3.11-1.03,5.51.09,11.03,2.87,15.59-1.23.71-2.65,1.12-4.17,1.12ZM224.62,378.05c-1.92,0-3.86-.3-5.79-.92-9.82-3.19-15.19-13.74-12-23.56l27.51-84.6-55.93-22.52c-1.21-.38-2.48-.91-3.83-1.55l-6.99-2.82c-3.82-1.54-6.84-4.21-8.86-7.45-7.02-6.72-11.3-16.49-6.07-32.18,12.96-30.84,24.52-46.87,48.21-68.15,17.32-15.37,36.85-12.32,46.4-3.27,3.03,2.87,4.7,6.66,5.23,10.86l-16.58-9.34c-2.31-1.3-4.92-1.99-7.55-1.99-5.56,0-10.7,3.01-13.43,7.85-2.02,3.59-2.52,7.74-1.41,11.71,1.11,3.96,3.69,7.26,7.28,9.28l19.91,11.22c-10.78,12.54-25.38,28.65-35.74,46.22l59.54,23.98c9.12,3.67,13.83,13.78,10.8,23.12l-32.91,101.21c-2.57,7.9-9.9,12.92-17.78,12.92ZM359.16,433.14c-38.35,0-69.55-31.2-69.55-69.55,0-28.95,17.78-53.81,42.99-64.27l-11.96-35.23-16.75,17.91c1.92,3.98,1.31,8.92-1.89,12.31l-43.19,45.62c-1.57,1.65-3.53,2.71-5.61,3.16l14.43-44.38,18.44-19.48c2.89-3.05,7.14-4.06,10.93-3l20.37-21.77-3.88-11.43-34.28,10.81c-.6-2.98-1.8-5.81-3.52-8.3l34.92-11.01-6.39-18.81c-.76-2.23.34-4.67,2.51-5.58l2.38-1,9.9,5.58-4.94,2.08,27.04,79.65c5.76-1.55,11.82-2.39,18.06-2.39,38.35,0,69.55,31.2,69.55,69.55s-31.2,69.55-69.55,69.55Z"/><path class="cls-1" d="M359.15,306c-4.9,0-9.66.62-14.21,1.78l18.46,54.36c.8,2.35-.46,4.9-2.81,5.69-.48.16-.97.24-1.44.24-1.87,0-3.61-1.18-4.25-3.05l-18.46-54.35c-20.49,8.83-34.88,29.22-34.88,52.91,0,31.75,25.83,57.58,57.58,57.58s57.58-25.83,57.58-57.58-25.83-57.58-57.58-57.58Z"/></svg>