<?xml version="1.0" encoding="UTF-8"?><svg id="Layer_1" xmlns="http://www.w3.org/2000/svg" viewBox="0 0 480 480"><defs><style>.cls-1{fill:#000;stroke-width:0px;}</style></defs><path class="cls-1" d="M136.68,302.72l4.81,21.31,2.2,9.76,21.96-32.04c-7.2-4.19-15.56-6.61-24.48-6.61-2.07,0-4.11.14-6.12.4l1.62,7.19Z"/><path class="cls-1" d="M137.93,345.67c-.63-1.2-.55-2.67.22-3.79l1.78-2.59-2.2-9.76-5.86-25.99-1.61-7.15c-21.67,4.98-37.89,24.41-37.89,47.57,0,26.92,21.9,48.83,48.82,48.83s46.78-19.94,48.67-45.15h-48.67c-1.36,0-2.62-.76-3.25-1.97Z"/><path class="cls-1" d="M171.72,305.91l-23.56,34.38h41.7c-1.04-13.87-7.89-26.14-18.14-34.38Z"/><path class="cls-1" d="M265.75,98.5c2.24,1.64,4.93,1.77,6.01.29,1.08-1.48.14-4-2.09-5.64-2.24-1.64-4.93-1.77-6.01-.29s-.14,4,2.09,5.64Z"/><rect class="cls-1" x="127.07" y="179.54" width="9.11" height="30.33" transform="translate(-76.19 304.46) rotate(-83.78)"/><path class="cls-1" d="M132.8,285.53c2.74-.39,5.53-.6,8.38-.6,11.07,0,21.42,3.05,30.28,8.35l15.49-22.6-8.26-.92-50.72-5.67,3.22,14.26,1.62,7.18Z"/><path class="cls-1" d="M345.43,295.14c-4.16,0-8.2.53-12.06,1.51l15.55,46.14h0c.65,1.93-.39,4.01-2.31,4.66-.39.13-.78.2-1.17.2-1.54,0-2.97-.97-3.48-2.51l-15.54-46.13c-17.5,7.43-29.79,24.79-29.79,44.96,0,26.92,21.9,48.83,48.82,48.83s48.83-21.9,48.83-48.83c0-26.92-21.91-48.82-48.83-48.82Z"/><path class="cls-1" d="M421.34,0H58.66C26.26,0,0,26.26,0,58.66v362.69c0,32.39,26.26,58.66,58.66,58.66h362.69c32.39,0,58.66-26.26,58.66-58.66V58.66c0-32.39-26.26-58.66-58.66-58.66ZM324.75,196.68c4.76,0,8.62,3.86,8.62,8.61,0,4.48-3.42,8.16-7.79,8.58.19-.38.37-.76.53-1.16,2.23-5.71-.16-12.09-5.33-15.06,1.19-.62,2.54-.97,3.97-.97ZM323.83,211.82c-1.51,3.88-5.21,6.25-9.14,6.25-1.18,0-2.38-.21-3.55-.67l-88.23-34.31c-5.05-1.96-7.54-7.65-5.58-12.69,1.96-5.05,7.64-7.55,12.69-5.59l88.23,34.31c5.05,1.96,7.54,7.65,5.58,12.69ZM244.79,194.23l9.25,3.6c1.28,7.96,2.15,15.57,2.33,21.24-2.3,4.81-4.8,9.44-7.49,13.89-1.48-4.94-3.18-9.71-5.09-14.29.98-8.1,1.31-16.27,1-24.43ZM264.45,149.58c-6.48,1.67-13.56,1.16-20.08-1.95-6.54-3.12-11.4-8.32-14.18-14.43,5.99-.08,13.52-3.04,22.7-8.91-.15,5.39,1.41,14.92,11.56,25.29ZM257.04,121.51c3.49-2.43,7.2-5.23,11.14-8.43,2.62-2.13,9.75-4.89,14.77-6.53,4.49,8.08,5.14,18.13.86,27.11-3.26,6.83-8.8,11.84-15.27,14.55-13.37-12.77-12.08-23.94-11.49-26.7ZM219.65,106.28c3.96-18.04,21.8-29.45,39.84-25.49,8.58,1.88,15.64,6.91,20.28,13.59,2.78,1.52,5.35,3.27,6.92,4.64,1.04.91,1.65,1.66,1.56,2.06-.05.24-.25.45-.54.62-.74.44-2.19.64-4.1.61-1.7.53-13.5,4.25-17.86,7.79-50.66,41.17-48.01,4.86-46.1-3.82ZM92.45,195.01l19.96,2.18,1.39-12.7,37.44,4.08-1.38,12.7,19.96,2.18-5.96,54.68-77.37-8.43,5.96-54.68ZM200.09,347.64c-1.9,30.89-27.55,55.36-58.91,55.36s-59.04-26.43-59.04-59.04c0-28.07,19.6-51.55,45.85-57.54l-1.61-7.15-3.56-15.77-45.12-5.05c-1.34-.15-2.31-1.36-2.16-2.7.15-1.34,1.36-2.31,2.7-2.16l103.66,11.6,13.06,1.46-3.2-8.87c2.5,1.04,5.09,1.82,7.61,2.45.42.11.8.19,1.2.29l1.55,4.29,8.43-2.62,9.33,4.8-15.26,4.75,16.92,46.96-3.71,11.4-20.24-56.17-5.04,1.57-15.05,21.95c12.91,10.1,21.51,25.44,22.58,42.84h16.99c.59,2.69,1.78,5.21,3.5,7.36h-20.49ZM234.43,351.85c-1.57,0-3.17-.24-4.74-.75-8.04-2.62-12.44-11.27-9.83-19.32l18.84-57.86-28.79-14.82c-2.66.42-5.9-.23-9.92-1.24-1.95-.49-3.96-1.07-5.92-1.8h0s-10.71,0-10.71,0h-8.36c-2.03,0-3.68-1.65-3.68-3.67v-6.74c0-2.03,1.65-3.68,3.68-3.68h4.2c-1.12-3.34-1.63-7.39-1.3-12.33,3.92-27.12,9.78-42.21,24.19-63.97,10.57-15.76,26.68-17.36,36.12-12.15,5.09,2.8,7.61,8.53,7.87,14.92l-15.17-5.9c-1.43-.55-2.92-.84-4.44-.84-5.09,0-9.58,3.07-11.42,7.82-2.45,6.29.68,13.41,6.98,15.86l16.42,6.38c-5.66,11.43-12.39,25.21-16.29,39.18l42.17,21.7c6.7,3.45,9.89,11.2,7.55,18.36l-22.87,70.26c-2.11,6.47-8.11,10.58-14.57,10.58ZM345.42,403c-32.6,0-59.03-26.43-59.03-59.04,0-24.71,15.19-45.86,36.73-54.66l-10.49-31.13-51.96,55.14,5.33-16.38,43.97-46.66-3.45-10.25-38.6,12.02c-.78-.58-1.6-1.1-2.49-1.56l-6.49-3.34,45.23-14.08-5.39-16c-.21-.62-.24-1.26-.12-1.87l8.34,3.24,23.09,68.52c4.89-1.31,10.03-2.02,15.33-2.02,32.61,0,59.04,26.43,59.04,59.03,0,32.61-26.44,59.04-59.04,59.04Z"/></svg>