<?xml version="1.0" encoding="UTF-8"?><svg id="Layer_1" xmlns="http://www.w3.org/2000/svg" viewBox="0 0 480 480"><defs><style>.cls-1{fill:#000;stroke-width:0px;}</style></defs><path class="cls-1" d="M421.34,0H58.66C26.26,0,0,26.26,0,58.66v362.69c0,32.39,26.26,58.66,58.66,58.66h362.69c32.39,0,58.66-26.26,58.66-58.66V58.66c0-32.39-26.26-58.66-58.66-58.66ZM412,377.98c0,15.67-12.82,28.5-28.5,28.5H98.54c-15.67,0-28.5-12.82-28.5-28.5v-227.97c0-15.67,12.82-28.5,28.5-28.5h28.5v-28.5c0-15.67,12.82-28.5,28.5-28.5s28.5,12.82,28.5,28.5v28.5h113.98v-28.5c0-15.67,12.82-28.5,28.5-28.5s28.5,12.82,28.5,28.5v28.5h28.5c15.67,0,28.5,12.82,28.5,28.5v227.97Z"/><path class="cls-1" d="M329.41,329.47c-4.69,0-9.23.63-13.56,1.8l-20.29-59.76,3.71-1.56-7.43-4.18-1.78.75c-1.63.68-2.45,2.51-1.88,4.19l4.79,14.12-26.2,8.26c1.29,1.87,2.19,3.99,2.64,6.23l25.72-8.11,2.91,8.57-15.28,16.34c-2.85-.79-6.04-.03-8.21,2.25l-13.84,14.62-10.83,33.3c1.56-.34,3.04-1.13,4.21-2.37l32.41-34.23c2.41-2.54,2.86-6.25,1.42-9.24l12.57-13.44,8.98,26.44c-18.92,7.85-32.26,26.5-32.26,48.22,0,28.78,23.41,52.19,52.19,52.19s52.19-23.41,52.19-52.19-23.41-52.19-52.19-52.19ZM329.41,424.87c-23.83,0-43.21-19.38-43.21-43.21,0-17.78,10.8-33.08,26.17-39.7l13.85,40.78c.48,1.4,1.79,2.28,3.19,2.28.36,0,.72-.06,1.08-.18,1.76-.6,2.7-2.51,2.11-4.27l-13.85-40.79c3.41-.87,6.98-1.33,10.66-1.33,23.83,0,43.21,19.38,43.21,43.21s-19.38,43.21-43.21,43.21Z"/><path class="cls-1" d="M212.14,375.43c-.32-.05-.64-.08-.97-.08h-8.79c-1.69-13.98-8.93-26.26-19.45-34.6l12.53-18.14,4.31-1.36,15.75,43.31,3.38-10.4-12.7-34.93,24.64-7.77-9.83-3.96-17.11,5.39-3.16-8.69c2.41-.57,5.3-1.08,8.26-1.54l-16.08-6.48c-.92-.3-1.92-.7-3.04-1.22l-4.49-1.81c-3.09.04-5.63.09-7.19.12-1.11.02-2.13.63-2.69,1.59-.84,1.44-1.92,3.68-2.06,5.88-.22,3.39,13.97,7.69,20.92,5.66l3.09,8.5-5.13,1.62c-.71.22-1.33.68-1.76,1.3l-13.17,19.08c-7.84-4.72-17.02-7.44-26.81-7.44-28.78,0-52.19,23.41-52.19,52.19s23.41,52.19,52.19,52.19c26.64,0,48.66-20.07,51.79-45.87h8.79c1.14,0,2.2-.31,3.13-.84-2.09-3.42-2.93-7.57-2.16-11.7ZM150.59,396.25c-8.04,0-14.59-6.55-14.59-14.59s6.55-14.59,14.59-14.59,14.59,6.55,14.59,14.59-6.55,14.59-14.59,14.59ZM193.33,375.35h-21.21c-1.14-3.88-3.29-7.32-6.16-10.02l11.87-17.18c8.19,6.67,13.9,16.28,15.51,27.2ZM150.59,424.87c-23.83,0-43.21-19.38-43.21-43.21s19.38-43.21,43.21-43.21c7.91,0,15.31,2.14,21.7,5.87l-11.87,17.19c-2.97-1.45-6.3-2.29-9.83-2.29-12.4,0-22.45,10.05-22.45,22.45s10.05,22.45,22.45,22.45c10.2,0,18.8-6.81,21.53-16.13h21.21c-3.07,20.84-21.06,36.9-42.74,36.9Z"/><circle class="cls-1" cx="150.59" cy="381.66" r="7.86"/><path class="cls-1" d="M266.49,306.88c2.28-7.01-1.26-14.6-8.1-17.35l-44.67-17.99c7.78-13.18,18.73-25.27,26.82-34.68l-14.94-8.42c-2.69-1.52-4.63-3.99-5.46-6.96-.83-2.97-.45-6.09,1.06-8.78,2.05-3.63,5.91-5.89,10.08-5.89,1.98,0,3.94.52,5.67,1.49l12.44,7.01c-.4-3.14-1.65-5.99-3.92-8.15-7.17-6.79-21.82-9.08-34.82,2.45-17.78,15.97-26.45,27.99-36.17,51.13-3.92,11.77-.71,19.1,4.55,24.15,1.52,2.44,3.78,4.44,6.65,5.59l5.25,2.11c1.01.48,1.97.87,2.88,1.16l41.97,16.9-20.64,63.48c-2.4,7.37,1.64,15.28,9,17.68,1.44.47,2.9.69,4.34.69,5.91,0,11.41-3.77,13.34-9.69l24.69-75.94Z"/><path class="cls-1" d="M315.35,255.43l-79.68-44.89c-4.32-2.44-9.8-.91-12.23,3.42-2.43,4.32-.9,9.8,3.42,12.23l79.68,44.89c1.39.78,2.91,1.16,4.4,1.16,3.14,0,6.18-1.65,7.83-4.57,2.43-4.32.9-9.8-3.42-12.23Z"/><path class="cls-1" d="M276.03,172.96c-3.45,2.8-6.69,5.25-9.75,7.38-.51,2.41-1.65,12.19,10.06,23.37,5.67-2.37,10.52-6.75,13.37-12.73,3.75-7.86,3.18-16.66-.75-23.73-4.39,1.44-10.64,3.85-12.93,5.72Z"/><path class="cls-1" d="M262.64,182.77c-8.04,5.14-14.62,7.73-19.87,7.8,2.44,5.35,6.69,9.91,12.41,12.64,5.7,2.72,11.9,3.17,17.58,1.71-8.89-9.09-10.26-17.42-10.12-22.14Z"/><path class="cls-1" d="M293.6,162.45c.08-.34-.45-1-1.37-1.8-1.37-1.2-3.63-2.73-6.06-4.07-4.06-5.85-10.25-10.25-17.76-11.9-15.79-3.47-31.4,6.52-34.87,22.31-1.67,7.6-3.99,39.38,40.36,3.34,3.82-3.1,14.14-6.36,15.63-6.82,1.67.03,2.94-.15,3.59-.53.26-.15.43-.33.47-.54ZM273.9,160.2c-1.96-1.43-2.78-3.64-1.83-4.94s3.3-1.18,5.26.26c1.96,1.43,2.78,3.64,1.83,4.94-.94,1.29-3.3,1.18-5.26-.26Z"/></svg>