<?xml version="1.0" encoding="UTF-8"?>
<svg id="Layer_1" data-name="Layer 1" xmlns="http://www.w3.org/2000/svg" viewBox="0 0 200 200">
  <defs>
    <style>
      .cls-1 {
        stroke-width: 0px;
      }
    </style>
  </defs>
  <path class="cls-1" d="m165.61,129.04c-4.64,0-9.07.93-13.11,2.6l-19.36-56.69c-.36-1.05-1.43-1.67-2.52-1.46l-4.8.92c.45,1.53.32,3.14-.37,4.59l4.11-.79,9.87,28.89c-10.82,13.19-24.44,25.69-35.15,34.75l.11,5.7c10.67-8.86,25.04-21.73,36.73-35.53l3.01,8.82-39.66,30.86.1,5.54,41.07-31.96,2.85,8.34c-10.31,5.95-17.26,17.07-17.26,29.8,0,18.96,15.43,34.39,34.39,34.39s34.39-15.43,34.39-34.39c0-18.96-15.43-34.39-34.39-34.39Zm0,62.86c-15.7,0-28.47-12.77-28.47-28.47,0-10.13,5.32-19.03,13.3-24.08l2.71,7.93c2.82,8.81,10.5,17.29,10.82,17.65.44.48,1.04.72,1.64.72.53,0,1.07-.19,1.49-.58.91-.83.97-2.23.14-3.13-.07-.08-7.35-8.12-9.89-16.05l-2.95-8.63c3.44-1.48,7.22-2.3,11.2-2.3,15.7,0,28.47,12.77,28.47,28.47,0,15.7-12.77,28.47-28.47,28.47Z"/>
  <path class="cls-1" d="m85.25,137.17l-4.58-12.67c-1.5.29-2.98.55-4.44.78l9.27,25.65-.26-13.77Z"/>
  <path class="cls-1" d="m148.6,108.7c0,4.36,3.53,7.89,7.89,7.89s4.36-15.78,0-15.78-7.89,3.53-7.89,7.89Z"/>
  <path class="cls-1" d="m85.56,153.77l-17.94.81c-1.86-6.97-5.86-13.08-11.25-17.57l5.38-7.51c.58-.81.93-1.72,1.06-2.65-.6.05-1.18.08-1.74.12-.13.54-.36,1.06-.7,1.54l-5.33,7.44c-4.96-3.73-10.95-6.16-17.47-6.76l.96-9.4,10.93,1.11c.01-.53.03-1.1.04-1.71l-31.26-3.18c-2.16-.22-4.21.7-5.48,2.46-1.27,1.76-1.51,3.99-.62,5.97l4.3,9.67c-9.84,6.06-16.43,16.93-16.43,29.31,0,18.96,15.43,34.39,34.39,34.39,16.47,0,30.27-11.64,33.61-27.13l17.91.8c0-.08-.02-.16-.02-.25l-.33-17.47Zm-52.45,2.37c-1.61.2-3.04.98-4.07,2.13l-8.72-19.59c4.15-2.37,8.95-3.73,14.07-3.73.29,0,.58.01.88.02l-2.15,21.17Zm-2.78,6.48c0-1.97,1.6-3.57,3.57-3.57s3.57,1.6,3.57,3.57-1.6,3.57-3.57,3.57-3.57-1.6-3.57-3.58Zm31.21-7.77l-18.55.83,9.92-13.85c3.98,3.42,7.01,7.91,8.63,13.02Zm-9.95-14.09l-10.76,15.02-6,.27,2.13-20.98c5.46.49,10.49,2.53,14.62,5.68Zm-37.91-17c-.63-1.42-.47-3.02.45-4.28.91-1.26,2.38-1.92,3.93-1.76l18.77,1.91-.96,9.45c-.49-.02-.98-.04-1.48-.04-5.97,0-11.59,1.53-16.48,4.22l-4.23-9.5Zm20.71,68.14c-15.7,0-28.47-12.77-28.47-28.47,0-9.97,5.16-18.76,12.94-23.85l9.08,20.4c-.36.81-.56,1.7-.56,2.64,0,3.61,2.92,6.53,6.53,6.53l28.08,1.26c-3.13,12.33-14.31,21.48-27.6,21.48Z"/>
  <path class="cls-1" d="m102.21,122.03c-.02-1.32-.39-2.58-1.03-3.7-5.54,2.27-11.35,3.96-16.98,5.2l2.54,2.22.85,45.23c.08,4.24,3.54,7.62,7.76,7.62.05,0,.1,0,.15,0,4.29-.08,7.7-3.62,7.62-7.91l-.91-48.66Z"/>
  <path class="cls-1" d="m54.19,40.34c7.93-2.96,10.22-16.5,15.52-18.8-.22-1.12-.34-2.28-.34-3.46,0-.81.06-1.61.17-2.39-4.95-.28-10.59,1.81-14.86,11.22-5.12,11.3-9.75,11.25-12.7,9.66s1.65,7.72,12.22,3.77Z"/>
  <circle class="cls-1" cx="86.97" cy="18.08" r="15.9"/>
  <path class="cls-1" d="m54.12,90.84c-.03.1-.06.19-.08.29-2.28,10.54-2.43,33.93-2.43,33.93,0,0,30.74.6,53.49-10.68-11.3-13.58-23.42-27.4-25.16-29.38.12-.78.26-1.58.41-2.39.3-1.62.67-3.31,1.12-5.08l-11.06-22.67c-.76-1.56-.87-3.33-.3-4.97.57-1.64,1.74-2.97,3.3-3.73.9-.44,1.86-.66,2.85-.66,2.51,0,4.75,1.4,5.85,3.66l6.88,14.1c2.27-2.42,2.33-6.79,1.15-9.49-.11-.24-.36-.53-.71-.85-1.44-2.72-5.93-4.34-6.02-13.24-6.12-4.13-14.57-2.85-18.49,6.72-3.78,9.22,5.05,14.91-7.87,37.81-.27.48-.54.96-.83,1.45-1.11,1.89-1.77,3.62-2.08,5.19Z"/>
  <path class="cls-1" d="m80.57,49.9c-1.16-2.39-4.04-3.38-6.43-2.21-2.39,1.16-3.38,4.04-2.21,6.43l12.2,25.02c.81,1.67,2.5,2.7,4.32,2.7.19,0,.39-.01.58-.04l24.88-3.03,3.51,1.76c2.37,1.19,5.26.22,6.45-2.15,1.19-2.37.23-5.26-2.15-6.45l-4.81-2.4c-.85-.42-1.79-.59-2.73-.47l-22.92,2.79-10.7-21.94Z"/>
</svg>