<?xml version="1.0" encoding="UTF-8"?><svg id="Layer_1" xmlns="http://www.w3.org/2000/svg" viewBox="0 0 480 480"><defs><style>.cls-1{fill:#000;stroke-width:0px;}</style></defs><path class="cls-1" d="M165.4,316.66c-8.28-4.82-17.89-7.6-28.14-7.6s-19.68,2.72-27.9,7.45l27.79,41.36,28.25-41.21Z"/><path class="cls-1" d="M97.79,125.76c1.96,1.4,4.29,1.5,5.22.21.93-1.29.09-3.47-1.86-4.88s-4.29-1.49-5.22-.21c-.93,1.29-.09,3.47,1.86,4.88Z"/><path class="cls-1" d="M294.89,68.21c2.58,1.89,5.67,2.04,6.92.34,1.24-1.7.16-4.6-2.41-6.49-2.58-1.88-5.67-2.04-6.92-.34-1.24,1.7-.16,4.6,2.41,6.49Z"/><path class="cls-1" d="M172.37,320.83l-27.09,39.53h47.94c-1.19-15.95-9.07-30.06-20.85-39.53Z"/><path class="cls-1" d="M136.67,369.3c-1.43,0-2.82-.69-3.68-1.96l-30.95-46.05c-13.92,11.24-22.39,28.98-20.73,48.56,2.28,26.89,23.9,48.63,50.78,51.04,31.81,2.86,58.82-21.02,61.12-51.68h-55.72c-.27.05-.55.09-.83.09Z"/><path class="cls-1" d="M421.34,0H58.66C26.26,0,0,26.26,0,58.66v362.69c0,32.39,26.26,58.66,58.66,58.66h362.69c32.39,0,58.66-26.26,58.66-58.66V58.66c0-32.39-26.26-58.66-58.66-58.66ZM353.89,209.54c-2.17,3.85-6.18,6.01-10.3,6.01-1.96,0-3.95-.49-5.78-1.52l-104.79-59.04c-5.68-3.2-7.69-10.4-4.49-16.08,3.2-5.68,10.4-7.69,16.08-4.49l104.79,59.04c5.68,3.2,7.69,10.4,4.49,16.08ZM293.39,127.01c-7.46,1.92-15.62,1.33-23.11-2.24-7.53-3.59-13.13-9.58-16.33-16.62,6.9-.09,15.56-3.5,26.13-10.25-.18,6.21,1.63,17.17,13.31,29.12ZM284.86,94.7c4.02-2.8,8.28-6.02,12.82-9.7,3.02-2.45,11.23-5.62,17-7.52,5.17,9.3,5.92,20.87.99,31.21-3.75,7.87-10.13,13.63-17.58,16.75-15.39-14.7-13.9-27.56-13.23-30.74ZM241.82,77.16c4.56-20.77,25.09-33.91,45.86-29.34,9.87,2.17,18.01,7.95,23.35,15.65,3.2,1.75,6.16,3.77,7.97,5.35,1.2,1.05,1.9,1.91,1.8,2.37-.06.28-.28.51-.62.71-.85.5-2.53.74-4.72.7-1.96.61-15.54,4.89-20.56,8.97-58.32,47.39-55.27,5.6-53.07-4.4ZM119.08,225.99c.02.41,0,.8,0,1.2l21.07.82c4.13.16,7.82,2.61,9.58,6.34l17.59,37.33c2.61,5.53.23,12.12-5.29,14.73-.68.32-1.37.57-2.07.74-5.02,1.24-10.37-1.18-12.66-6.04l-1.82-3.86c1.32-.51,2.51-1.35,3.43-2.47,1.58-1.93,2.21-4.43,1.72-6.88-3.64-18.2-13.1-28.97-25.93-29.55-16.61-.75-39.28-5.94-44.45-42.14-.46-3.23-1.12-6.24-1.91-9.07,3.56-5.68,9.72-9.61,16.93-9.98,11.73-.6,21.73,8.41,22.33,20.14l1.48,28.67ZM91.01,145.38c2.84-2.04,5.83-4.36,9-6.99,2.06-1.71,7.4-3.91,11.62-5.39,2.31,3.64,3.74,7.9,3.94,12.51.46,10.73-5.79,20.18-15.03,24.32l.87-.95c-13.45-12.3-10.47-23.04-10.34-23.49l-.06-.02ZM97.26,171.04c-1.92.56-3.93.93-6.01,1.02-11.07.48-20.76-6.19-24.69-15.91,5.2.1,11.73-2.38,19.74-7.54,0,4.96,1.68,13.41,10.96,22.43ZM57.85,132.89c3.29-15.69,18.67-25.74,34.36-22.45,7.46,1.56,13.63,5.87,17.71,11.63,2.42,1.3,4.67,2.79,6.05,3.97.91.79,1.44,1.43,1.37,1.77-.04.21-.21.39-.46.54-.64.39-1.9.58-3.56.56-1.44.46-11.67,3.79-15.43,6.91-4.01,3.32-7.63,6.07-10.9,8.32l-.14-.04s-.03.09-.05.18c-32.15,22-30.38-4.54-28.94-11.38ZM40.16,159.01c-.93-3.2,2.35-5.99,5.37-4.59,9.92,4.61,26.6,16.12,30.34,42.3,5.4,37.83,28.82,45.03,48.63,45.93,14.88.68,20.11,17.61,21.79,26,.48,2.39-1.37,4.62-3.8,4.62h-66.41c-1.73,0-3.25-1.14-3.73-2.8l-32.2-111.46ZM235.21,374.68c-1.9,0-3.84-.29-5.75-.91-9.76-3.17-15.1-13.66-11.92-23.42l27.34-84.08-17.76-7.15c-2.17.29-4.49.59-6.85.93-6.14.86-12.52,1.89-17.09,3.13l4.06,11.26,27.51-8.56,5.9,2.38-1.7,5.24-28.82,8.97,13.62,37.78-4.29,13.21-17.46-48.46-5.45,1.7c-.17.13-.42.31-.6.44l-17.2,25.1c14.95,11.7,24.91,29.47,26.15,49.61h9.19l4.47,7.38h-13.9c-2.2,35.81-32.3,64.07-68.84,63.29-35.33-.75-64.45-29.21-65.97-64.51-.98-22.81,9.37-43.24,25.89-56.17l-17.33-25.78c-1.22-1.81-.96-4.33.85-5.87.81-.69,1.9-.99,2.97-.99h60.32s1.73,3.67,1.73,3.67c.98,2.08,2.42,3.83,4.15,5.18h-58.36l12.75,18.69c10.11-5.97,21.89-9.41,34.48-9.41s24.63,3.51,34.81,9.61l13.14-20.37h-18.94l5.28-7.38h20.5c.05-.02.1-.04.15-.06l6.88-2.14-3.96-10.99c-9.58,1.82-26.61-3.55-26.33-7.83.19-2.91,1.62-5.88,2.73-7.78.74-1.27,2.08-2.08,3.56-2.11,2.98-.06,8.68-.17,15.35-.23,2.88-.03,5.93-.05,9.03-.05l-10.16-4.09c-1.21-.38-2.47-.9-3.81-1.54l-6.95-2.8c-3.8-1.53-6.8-4.18-8.81-7.41-6.98-6.68-11.23-16.39-6.03-31.98,12.88-30.65,24.36-46.58,47.91-67.72,17.21-15.28,36.62-12.24,46.12-3.25,3.01,2.85,4.67,6.62,5.2,10.79l-16.48-9.29c-2.29-1.29-4.89-1.97-7.51-1.97-5.52,0-10.64,2.99-13.35,7.8-2.5,4.43-2.66,9.74-.31,14.47,1.39,2.79,3.71,5.02,6.43,6.55l19.5,10.99c-10.72,12.46-25.22,28.47-35.52,45.93l59.17,23.83c9.06,3.65,13.75,13.69,10.73,22.98l-32.7,100.58c-2.55,7.85-9.84,12.84-17.67,12.84ZM372.11,433.09c-37.49,0-67.88-30.39-67.88-67.89,0-28.41,17.47-52.74,42.24-62.86l-12.06-35.79-72.48,76.9,6.12-18.82,63.3-67.17-3.97-11.79-38.07,11.85c.28-2.93-.04-5.84-.9-8.58l36.26-11.29-6.2-18.39c-.69-2.03.26-4.25,2.19-5.17l5.61-2.67,9.01,5.08-7.61,3.61,26.79,79.51c5.62-1.51,11.53-2.33,17.63-2.33,37.49,0,67.89,30.39,67.89,67.89,0,37.49-30.4,67.89-67.89,67.89Z"/><path class="cls-1" d="M379.8,309.66c-7.72-1.12-15.19-.64-22.15,1.13l17.88,53.05v1.34c0,1.81-1.08,3.55-2.81,4.07-.4.12-.8.18-1.2.18-1.77,0-3.41-1.12-4.01-2.88l-17.87-53.05c-22.33,9.48-37.3,33.03-33.74,59.45,3.41,25.28,23.95,45.26,49.31,48.04,35.74,3.92,65.78-25.95,62.16-61.64-2.57-25.35-22.36-46.03-47.57-49.7Z"/></svg>