<?xml version="1.0" encoding="UTF-8"?>
<svg id="Layer_1" data-name="Layer 1" xmlns="http://www.w3.org/2000/svg" viewBox="0 0 498.07 261.11">
  <defs>
    <style>
      .cls-1 {
        fill: #000;
        stroke-width: 0px;
      }
    </style>
  </defs>
  <path class="cls-1" d="M314.85,137.75c4.1,1.44,9.66,2.25,13.22,1.28l1.99,5.46h-14.02c-.24,1.05-.66,2.05-1.28,2.97-.13.19-.27.35-.41.53h16.98l1.78,4.89-60.61,4.54c0,1.65-.33,3.33-1.01,4.96l-.49,1.17,64.26-4.81,13.48,36.95,3.01-9.26-10.27-28.16,19.91-1.49,2.01-6.17-24.05,1.8-5.29-14.5-5.73-2.31c-.82-.26-1.71-.62-2.7-1.09l-4.61-1.86c-2.72-1.1-5.01-2.95-6.67-5.38-.18,0-.37,0-.53.01-.99.02-1.89.56-2.39,1.42-.68,1.16-1.53,2.92-1.77,4.7l2.74,1.84c1,.67,1.84,1.53,2.47,2.51Z"/>
  <path class="cls-1" d="M204.2,142.47c-2.71-1.43-4.77-3.79-5.88-6.6-.4,0-.78.01-1.09.02-.99.02-1.89.56-2.39,1.42-.75,1.28-1.71,3.28-1.84,5.24-.2,3.14,13.47,7.16,19.35,4.81-2.97-1.32-5.74-2.97-8.06-4.84l-.08-.04Z"/>
  <polygon class="cls-1" points="299.79 147.99 295.16 144.88 295.16 147.99 299.79 147.99"/>
  <path class="cls-1" d="M451.57,168.11c-4.18,0-8.22.56-12.08,1.6l-18.08-53.25,5.27-2.21-6.62-3.73-3.55,1.49c-1.45.61-2.18,2.24-1.68,3.73l10.27,30.24-29.81,2.23-2.01,6.17,33.81-2.53,2.42,7.12-49.74,36.96-3.2,9.86,54.97-40.85,2.27,6.7c-16.85,6.99-28.74,23.62-28.74,42.97,0,25.64,20.86,46.5,46.5,46.5s46.5-20.86,46.5-46.5-20.86-46.5-46.5-46.5ZM451.57,253.11c-21.23,0-38.5-17.27-38.5-38.5,0-15.84,9.62-29.47,23.32-35.38l12.34,36.34c.42,1.25,1.59,2.04,2.84,2.04.32,0,.64-.05.96-.16,1.57-.53,2.41-2.24,1.88-3.81l-12.34-36.35c3.04-.77,6.22-1.19,9.5-1.19,21.23,0,38.5,17.27,38.5,38.5s-17.27,38.5-38.5,38.5Z"/>
  <path class="cls-1" d="M222.84,211.89l-70.06-.11-1.1,6,70.31.11c-.2-1.98.07-4.03.85-6Z"/>
  <path class="cls-1" d="M250.59,211.94l-2.53,6,100.32.16c-1.38-1.76-2.35-3.82-2.83-6.01l-94.96-.15Z"/>
  <path class="cls-1" d="M127.44,213.56l.33-1.82h-.81s-13.52-36.39-13.52-36.39l13.65-1.02-9.05-5.34-6.77.51-2.14-5.77-2.95-1.74c-6-2.74-9.56-7.09-10.63-12.97-2.54.04-4.64.08-5.95.1-.99.02-1.89.56-2.39,1.42-.75,1.28-1.71,3.28-1.83,5.24-.17,2.69,9.85,6.03,16.42,5.44l3.73,10.04-22.23,14.96c-8.51-11.01-21.83-18.12-36.79-18.12-25.64,0-46.5,20.86-46.5,46.5s20.86,46.5,46.5,46.5,44.8-19.21,46.39-43.43l30.69.05c.44.24.93.38,1.44.38.35,0,.7-.06,1.04-.19.13-.05.25-.12.38-.18h.97c-.22-1.37-.22-2.77.03-4.18ZM107.67,177.05l12.89,34.68-27.66-.04c-.46-7.43-2.68-14.4-6.25-20.49l21.02-14.15ZM84.88,211.67l-28.57-.05,23.7-15.95c2.72,4.79,4.44,10.22,4.88,16ZM46.5,253.11c-21.23,0-38.5-17.27-38.5-38.5s17.27-38.5,38.5-38.5c12.2,0,23.08,5.71,30.14,14.59l-31.82,21.42c-1.09.74-1.58,2.1-1.19,3.36.38,1.26,1.55,2.12,2.87,2.13l38.37.06c-1.57,19.8-18.17,35.44-38.37,35.44Z"/>
  <path class="cls-1" d="M393.87,145.13c2.03-6.25-1.12-13.01-7.22-15.46l-39.81-16.03c6.93-11.75,16.68-22.51,23.89-30.9l-13.31-7.5c-2.4-1.35-4.12-3.55-4.86-6.2-.74-2.65-.4-5.43.95-7.83,1.82-3.24,5.26-5.25,8.98-5.25,1.76,0,3.51.46,5.05,1.33l11.09,6.25c-.36-2.8-1.47-5.34-3.5-7.26-6.39-6.05-19.45-8.09-31.03,2.19-15.84,14.23-23.57,24.94-32.23,45.56-3.5,10.49-.64,17.02,4.06,21.51,1.35,2.17,3.37,3.96,5.92,4.98l4.68,1.88c.9.43,1.75.78,2.56,1.03l37.39,15.06-18.39,56.56c-2.14,6.57,1.46,13.62,8.02,15.75,1.28.42,2.59.62,3.87.62,5.27,0,10.17-3.36,11.89-8.64l22-67.67Z"/>
  <path class="cls-1" d="M366.41,59.29c-3.85-2.17-8.73-.81-10.9,3.04-2.17,3.85-.81,8.73,3.04,10.9l71,40c1.24.7,2.59,1.03,3.92,1.03,2.79,0,5.51-1.47,6.98-4.07,2.17-3.85.81-8.73-3.04-10.9l-71-40Z"/>
  <path class="cls-1" d="M402.38,25.8c-3.08,2.5-5.96,4.68-8.69,6.57-.46,2.15-1.46,10.87,8.96,20.83,5.05-2.11,9.37-6.02,11.91-11.35,3.34-7,2.83-14.84-.67-21.15-3.91,1.28-9.48,3.43-11.52,5.09Z"/>
  <path class="cls-1" d="M390.45,34.54c-7.16,4.58-13.03,6.89-17.7,6.95,2.17,4.77,5.96,8.83,11.06,11.26,5.08,2.42,10.6,2.82,15.66,1.52-7.92-8.09-9.14-15.52-9.02-19.73Z"/>
  <path class="cls-1" d="M418.04,16.44c.07-.31-.4-.89-1.22-1.6-1.22-1.07-3.23-2.44-5.4-3.62-3.62-5.22-9.13-9.13-15.82-10.6-14.07-3.09-27.98,5.81-31.07,19.88-1.49,6.77-3.55,35.09,35.96,2.98,3.4-2.76,12.6-5.67,13.93-6.08,1.49.03,2.62-.13,3.2-.48.23-.13.38-.29.42-.48ZM400.48,14.43c-1.74-1.28-2.48-3.25-1.63-4.4s2.94-1.05,4.69.23c1.74,1.28,2.48,3.25,1.63,4.4-.84,1.15-2.94,1.05-4.69-.23Z"/>
  <path class="cls-1" d="M269.37,161.48c2.11-5.01.05-10.81-4.76-13.36l-31.12-16.49c2.93-7.98,7.74-18.07,16.17-29.35l-9.51-15.57c-1.23-2.01-1.6-4.37-1.04-6.65.55-2.29,1.96-4.22,3.97-5.44,1.56-.95,3.35-1.39,5.16-1.27,2.85.19,5.44,1.76,6.93,4.2l8.44,13.83c.08-.21.17-.41.24-.61,1.11-3.29-5.88-22.11-7.05-23.75h0s0,0,0,0h0c-6.52-7.55-18-8.88-26.51,2.22-8.37,10.91,1.73,21.68-25.27,48.15-6.07,5.95-6.97,11.45-5.08,16.1.65,2.88,2.5,5.48,5.32,6.97l.28.15c3.39,2.79,7.66,4.9,11.63,6.17l29.1,15.42-21.24,50.37c-2.25,5.34.25,11.5,5.59,13.76,1.11.47,2.25.73,3.39.8,4.34.29,8.58-2.16,10.37-6.4l24.98-59.22Z"/>
  <path class="cls-1" d="M242.47,30.81c-5.24-.43-11.47,1.6-18.53,8.88-11.67,12.04-17.54,9.88-20.58,6.5s-1.43,10.58,13.84,10.38c10.23-.14,18.58-13.07,25.8-16.19-1.35-2.85-1.26-6.32-.53-9.57Z"/>
  <path class="cls-1" d="M267.18,44.3c-7.99,2.2-14.04,2.56-18.26,1.12.66,8.83,6.77,16.69,15.81,19.14,1.85.5,3.71.74,5.54.75-5.32-9.83-4.38-17.13-3.08-21.01Z"/>
  <path class="cls-1" d="M270.92,43.18c-.94,1.65-4.55,9.38,2.48,21.62l-.65.37c8.51-.96,15.97-6.97,18.35-15.73,1.02-3.76.97-7.56.05-11.08-3.78.11-8.64.51-10.74,1.36-3.4,1.37-6.56,2.51-9.49,3.46Z"/>
  <path class="cls-1" d="M297.06,35.66c.15-.26-.12-.91-.65-1.78-.8-1.3-2.23-3.08-3.85-4.75-1.81-5.68-5.67-10.73-11.27-13.9-11.78-6.67-26.73-2.53-33.4,9.25-3.21,5.67-12.91,30.52,31.46,12.63,3.82-1.54,12.88-1.6,14.19-1.6,1.33.44,2.39.6,3.01.46.24-.06.42-.16.51-.32ZM281.86,28.99c-1.21-1.63-1.33-3.6-.25-4.4,1.08-.8,2.93-.13,4.14,1.5s1.33,3.6.25,4.4c-1.08.8-2.93.13-4.14-1.5Z"/>
  <path class="cls-1" d="M253.21,78.73c-1.87-3.06-5.87-4.03-8.93-2.16-3.06,1.87-4.03,5.87-2.16,8.93l20.94,34.3c.49.8,1.14,1.48,1.92,2.01l38.86,26.13c.98.66,2.09,1.02,3.19,1.09,2.24.15,4.49-.87,5.83-2.86,2-2.98,1.21-7.02-1.77-9.02l-37.67-25.34-20.2-33.08Z"/>
  <path class="cls-1" d="M157.37,173.91c.76-4.12-1.14-8.28-4.76-10.41l-24.03-14.17c1.62-7.22,4.83-14.48,8.23-21.1l-10.3-15.1c-1.25-1.83-1.71-4.04-1.3-6.22.41-2.18,1.65-4.07,3.48-5.32,1.39-.94,3-1.44,4.67-1.44,2.75,0,5.31,1.35,6.86,3.62l5.48,8.03c2.84-6.64,1.63-14.56-4.32-17.64-6.89-3.57-18.63-2.78-26.31,7.4-10.46,14.06-14.71,23.88-17.52,41.63-.7,9.6,4,14.2,9.68,16.75l29.21,17.23-6.74,36.8c-1,5.43,2.6,10.64,8.03,11.64.61.11,1.21.17,1.81.17,4.73,0,8.94-3.38,9.82-8.2l8-43.67Z"/>
  <path class="cls-1" d="M152,72.24c-7.15,2.47-12.64,3.16-16.59,2.1,1.15,8.08,7.24,14.94,15.7,16.64,1.68.34,3.35.43,4.99.34-5.43-8.66-5.05-15.4-4.1-19.09Z"/>
  <path class="cls-1" d="M155.67,70.88c-.65,1.26-3.85,8.66,3.54,19.74l-.65.43c7.76-1.41,14.25-7.38,15.91-15.58.71-3.53.42-7.01-.64-10.2-3.47.33-7.91,1-9.79,1.9-2.99,1.44-5.77,2.67-8.36,3.7Z"/>
  <path class="cls-1" d="M179.1,62.42c.12-.24-.16-.83-.71-1.6-.82-1.15-2.24-2.7-3.83-4.13-2.01-5.12-5.87-9.53-11.22-12.1-11.24-5.42-24.75-.69-30.17,10.55-2.61,5.41-10.01,28.87,29.72,9.7,3.43-1.65,11.78-2.26,12.96-2.34,1.25.32,2.24.41,2.79.24.22-.07.38-.17.45-.32ZM164.71,57.21c-1.22-1.43-1.44-3.23-.5-4.03.94-.8,2.69-.3,3.9,1.13s1.44,3.23.5,4.03-2.69.3-3.9-1.13Z"/>
  <path class="cls-1" d="M190.7,153.86h23.79l2.91,7.68-59.21,4.44c1.02,1.78,1.6,3.81,1.64,5.89l59.79-4.48,10.39,27.46,3.38-8.02-7.54-19.92,16.46-1.23,1.04-2.48-5.98-3.17-13.73,1.03-3.93-10.39-3.41-1.81c-1.32-.43-2.62-.93-3.89-1.49-.05.46-.01.93.16,1.39l.6,1.59h-22.15c.15,1.18.04,2.37-.32,3.5Z"/>
  <path class="cls-1" d="M138.33,105.06c-1.87-2.74-5.6-3.44-8.34-1.57-2.74,1.87-3.44,5.6-1.57,8.34l17,24.92c.53.77,1.23,1.41,2.04,1.86l32.42,18c.92.51,1.92.76,2.91.76,2.11,0,4.15-1.11,5.25-3.09,1.61-2.9.56-6.55-2.33-8.16l-31.18-17.31-16.2-23.74Z"/>
</svg>