<?xml version="1.0" encoding="UTF-8"?>
<svg id="Layer_1" data-name="Layer 1" xmlns="http://www.w3.org/2000/svg" viewBox="0 0 498.07 261.11">
  <defs>
    <style>
      .cls-1 {
        fill: #000;
        stroke-width: 0px;
      }
    </style>
  </defs>
  <g>
    <path class="cls-1" d="M219.85,152.85c-2.09-.62-3.28-2.83-2.66-4.91l2.49-8.34-3.82-1.34c-.47-.07-1.14-.17-1.85-.39l2.27,2.77.07.27-5.49,5.76c-1.53-1.23-3.48-1.98-5.6-1.98-4.93,0-8.93,4-8.93,8.93s4,8.93,8.93,8.93,8.93-4,8.93-8.93c0-.2,0-.4-.02-.59l.51-.08-.09.38c-.37,1.65.66,3.29,2.31,3.67.23.05.46.08.68.08,1.4,0,2.66-.96,2.98-2.39l.38-1.68s-.1,0-.14,0c-.32-.01-.64-.07-.95-.16ZM207.28,152.57l3.37-3.54c.69.8,1.2,1.76,1.47,2.82l-4.84.73ZM212.35,153.62c0,3.91-3.17,7.09-7.09,7.09s-7.09-3.17-7.09-7.09,3.17-7.09,7.09-7.09c1.63,0,3.13.55,4.32,1.47l-3.47,3.64c-.26-.11-.55-.18-.86-.18-1.19,0-2.15.96-2.15,2.15,0,.34.08.66.22.95l-.09.1.13-.02c.36.67,1.07,1.12,1.89,1.12,1.04,0,1.91-.74,2.11-1.72l4.97-.75c0,.11,0,.21,0,.32ZM213.95,151.57c-.35-1.47-1.05-2.79-2.02-3.88l4.85-5.09.13.52-1.88,8.29-1.08.16Z"/>
    <path class="cls-1" d="M242.44,144.69c-.35,0-.7.02-1.04.06l-3-14.8-1.78-.72c-.23.48-.59.89-1.03,1.17l1.53.62,1.32,6.5-10.26,1.27-.46,1.54,11.01-1.36.45,2.22-13.71,6.65-.57,1.92,14.58-7.08.48,2.35c-3.72,1.08-6.43,4.51-6.43,8.57,0,4.93,4,8.93,8.93,8.93s8.93-4,8.93-8.93c0-4.93-4-8.93-8.93-8.93ZM242.44,160.71c-3.91,0-7.09-3.17-7.09-7.09,0-3.17,2.09-5.86,4.96-6.76l1,4.93c-.61.38-1.02,1.05-1.02,1.83,0,1.19.96,2.15,2.15,2.15s2.15-.96,2.15-2.15c0-1.08-.79-1.97-1.83-2.12l-1-4.93c.22-.02.45-.03.68-.03,3.91,0,7.09,3.17,7.09,7.09s-3.17,7.09-7.09,7.09Z"/>
    <path class="cls-1" d="M227.49,137.98c.47-1.57-.38-3.23-1.93-3.77l-5.14-1.8c.54-2.57,1.72-5.15,2.73-7.3l2.09,3.09c.31.46.8.76,1.35.83l7.25.92c.05,0,.1.01.16.01.99.04,1.86-.68,1.99-1.68.13-1.05-.61-2.01-1.66-2.15l-6.39-.81-4.13-6.11c-.15-.22-.33-.4-.54-.53-.26-.21-.55-.39-.89-.51-2.15-.79-5.6-.27-7.57,2.71-2.68,4.1-3.65,6.89-3.95,11.8.11,3.54,2.84,4.36,5.22,4.7l4.7,1.64-2.73,9.15c-.48,1.62.44,3.33,2.06,3.81.25.07.49.11.74.13,1.37.06,2.66-.81,3.07-2.19l3.57-11.96Z"/>
    <path class="cls-1" d="M225.94,118.41c.5.1.99.13,1.47.1-1.6-2.56-1.49-4.55-1.21-5.64-2.11.73-3.73.93-4.9.62.34,2.39,2.14,4.41,4.63,4.91Z"/>
    <path class="cls-1" d="M228.33,118.3l-.19.13c2.29-.42,4.21-2.18,4.7-4.6.21-1.04.12-2.07-.19-3.01-1.02.1-2.34.29-2.89.56-.88.43-1.7.79-2.47,1.09-.19.37-1.14,2.56,1.04,5.83Z"/>
    <path class="cls-1" d="M232.87,108.29c-.59-1.51-1.73-2.81-3.31-3.57-3.32-1.6-7.31-.2-8.91,3.12-.77,1.6-2.96,8.53,8.78,2.86,1.01-.49,3.48-.67,3.83-.69.37.09.66.12.82.07.06-.02.11-.05.13-.1.03-.07-.05-.25-.21-.47-.24-.34-.66-.8-1.13-1.22ZM229.96,108.44c-.36-.42-.42-.95-.15-1.19.28-.24.79-.09,1.15.33.36.42.42.95.15,1.19-.28.24-.79.09-1.15-.33Z"/>
  </g>
  <g>
    <path class="cls-1" d="M134.91,236.4c0-13.65-11.06-24.71-24.71-24.71-2.22,0-4.37.3-6.42.85l-9.75-28.94,2.77-1.32-3.28-1.85-2.04.97c-.71.33-1.05,1.14-.8,1.88l2.26,6.7-13.2,4.11c.31,1,.43,2.05.33,3.12l13.86-4.31,1.45,4.29-23.04,24.45-2.23,6.85,26.38-27.99,4.39,13.03c-9.02,3.68-15.37,12.54-15.37,22.88,0,13.65,11.06,24.71,24.71,24.71,13.65,0,24.71-11.06,24.71-24.71ZM89.76,236.4c0-8.44,5.15-15.71,12.47-18.82l6.51,19.31c.22.64.82,1.05,1.46,1.05.16,0,.33-.03.49-.08.81-.27,1.24-1.14.97-1.95h0s-6.51-19.31-6.51-19.31c1.62-.41,3.31-.63,5.05-.63,11.27,0,20.44,9.17,20.44,20.43s-9.17,20.44-20.44,20.44c-11.27,0-20.43-9.17-20.43-20.44Z"/>
    <path class="cls-1" d="M49.37,234.86c-.45-7.28-4.05-13.7-9.45-17.93l6.3-9.19,2.11-.66,6.31,17.51,1.55-4.77-4.92-13.66,10.42-3.24.62-1.89-2.13-.86-9.94,3.1-1.32-3.67h3.04c.85,0,1.54-.69,1.54-1.54v-.58l-9.38-3.78h-5.24c-.85,0-1.54.69-1.54,1.54v2.82c0,.85.69,1.54,1.54,1.54h6.76l1.65,4.58-2.49.77c-.33.1-.62.32-.81.6l-6.6,9.62c-3.71-2.22-8.04-3.5-12.67-3.5-13.65,0-24.71,11.06-24.71,24.71s11.06,24.71,24.71,24.71,23.86-10.24,24.66-23.17h4.92c-.76-.9-1.32-1.95-1.63-3.08h-3.3ZM24.71,256.83c-11.27,0-20.44-9.17-20.44-20.44s9.17-20.43,20.44-20.43c3.73,0,7.23,1.01,10.24,2.77l-11.52,16.8c-.32.47-.36,1.09-.09,1.59.26.5.79.82,1.36.82h20.37c-.79,10.55-9.62,18.9-20.37,18.9ZM27.63,234.86l9.86-14.39c4.29,3.45,7.16,8.58,7.59,14.39h-17.45Z"/>
    <path class="cls-1" d="M78.54,198.51c1.09-3.36-.6-6.99-3.88-8.31l-21.39-8.61c3.72-6.31,8.96-12.1,12.84-16.6l-7.15-4.03c-1.29-.73-2.22-1.91-2.61-3.33-.4-1.42-.22-2.92.51-4.2.98-1.74,2.83-2.82,4.82-2.82.95,0,1.88.25,2.71.71l5.96,3.36c-.19-1.51-.79-2.87-1.88-3.9-3.43-3.25-10.45-4.35-16.67,1.17-8.51,7.64-12.66,13.4-17.32,24.48-1.88,5.63-.34,9.14,2.18,11.56.73,1.17,1.81,2.13,3.18,2.68l2.51,1.01c.48.23.94.42,1.38.55l20.09,8.09-9.88,30.39c-1.15,3.53.78,7.32,4.31,8.46.69.22,1.39.33,2.08.33,2.83,0,5.46-1.8,6.39-4.64l11.82-36.35Z"/>
    <path class="cls-1" d="M63.79,152.4c-2.07-1.17-4.69-.43-5.85,1.63-1.16,2.07-.43,4.69,1.63,5.85l38.14,21.49c.67.38,1.39.55,2.11.55,1.5,0,2.96-.79,3.75-2.19,1.16-2.07.43-4.69-1.63-5.85l-38.14-21.49Z"/>
    <path class="cls-1" d="M73.13,148.88c2.73,1.3,5.7,1.52,8.41.82-4.25-4.35-4.91-8.34-4.84-10.6-3.85,2.46-7,3.7-9.51,3.73,1.17,2.56,3.2,4.74,5.94,6.05Z"/>
    <path class="cls-1" d="M83.25,149.12c2.71-1.14,5.03-3.23,6.4-6.1,1.79-3.76,1.52-7.97-.36-11.36-2.1.69-5.09,1.84-6.19,2.74-1.65,1.34-3.2,2.51-4.67,3.53-.25,1.15-.79,5.84,4.82,11.19Z"/>
    <path class="cls-1" d="M79.46,120.87c-7.56-1.66-15.03,3.12-16.69,10.68-.8,3.64-1.91,18.85,19.32,1.6,1.83-1.48,6.77-3.04,7.48-3.26.8.01,1.41-.07,1.72-.26.12-.07.2-.16.23-.26.04-.16-.22-.48-.65-.86-.66-.58-1.74-1.31-2.9-1.95-1.94-2.8-4.91-4.91-8.5-5.7ZM82.09,128.3c-.94-.69-1.33-1.74-.88-2.36s1.58-.56,2.52.12c.94.69,1.33,1.74.88,2.36s-1.58.56-2.52-.12Z"/>
  </g>
  <g>
    <path class="cls-1" d="M122.37,209.33c9.7,0,17.62-7.56,18.21-17.11h5.4c-.53-.66-.88-1.44-1.03-2.27h-4.37c-.33-5.38-2.99-10.12-6.98-13.24l4.65-6.79,1.56-.48,5.89,16.36,1.18-3.42-4.9-13.61,7.3-2.27-3.14-1.4-4.94,1.54-.98-2.71h2.25c.23,0,.45-.07.63-.19l-2.24-1c-1.8-.45-3.54-1.23-4.92-2.21l-.03-.02c-.53-.24-1-.56-1.41-.94h-1.69c-.63,0-1.14.51-1.14,1.14v2.08c0,.63.51,1.14,1.14,1.14h5l1.22,3.38-1.84.57c-.24.07-.46.23-.6.44l-4.87,7.11c-2.74-1.64-5.94-2.58-9.36-2.58-10.08,0-18.25,8.17-18.25,18.25,0,10.08,8.17,18.25,18.25,18.25ZM131.81,179.32c3.17,2.55,5.29,6.34,5.61,10.63h-12.89l7.28-10.63ZM122.37,175.99c2.76,0,5.34.75,7.57,2.04l-8.51,12.41c-.24.35-.26.8-.07,1.17.2.37.58.61,1.01.61h15.04c-.58,7.79-7.11,13.96-15.05,13.96s-15.09-6.77-15.09-15.1c0-8.32,6.77-15.09,15.09-15.09Z"/>
    <path class="cls-1" d="M171.68,150.46c-.52.25-.77.84-.59,1.39l1.67,4.95-11.98,3.73c.79.44,1.42,1.07,1.86,1.8l10.85-3.38,1.07,3.17-15.66,16.62-1.81,5.23,18.3-19.41,3.24,9.62c-6.66,2.72-11.36,9.26-11.36,16.9,0,10.08,8.17,18.25,18.25,18.25s18.25-8.17,18.25-18.25-8.17-18.25-18.25-18.25c-1.64,0-3.23.22-4.74.63l-7.2-21.38,2.97-1.41s.03-.02.04-.02l-2.7-1.23-2.2,1.04ZM184.43,191.44c.16.47.6.77,1.08.77.12,0,.24-.02.36-.06.59-.2.92-.84.71-1.44h0s-4.81-14.26-4.81-14.26c1.19-.3,2.44-.47,3.73-.47,8.32,0,15.1,6.77,15.1,15.09s-6.77,15.1-15.1,15.1-15.09-6.77-15.09-15.1c0-6.24,3.8-11.6,9.21-13.9l4.8,14.26Z"/>
    <path class="cls-1" d="M136.4,159.71c1.42,1.01,3.16,1.74,4.77,2.14l11.93,5.34-7.09,20.5c-.75,2.17.4,4.55,2.58,5.3.45.16.91.23,1.36.23,1.73,0,3.34-1.08,3.94-2.81l8.33-24.11c.71-2.04-.26-4.28-2.23-5.16l-12.75-5.71c1.04-3.54,2.9-8.13,6.52-13.37.87.11,1.7-.2,2.42-.72l-6.24-2.85c-1.75-.8-2.53-2.87-1.73-4.63.57-1.24,1.81-2.04,3.18-2.04.5,0,.99.11,1.45.31l4.16,1.9c-.87-2.22-1.94-4.47-2.21-4.81h0s0,0,0,0h0c-2.78-2.82-7.36-3.04-10.44,1.58-3.03,4.54,1.26,8.54-8.74,19.73-2.25,2.52-2.46,4.72-1.59,6.51.33,1.12,1.13,2.1,2.29,2.62l.11.05Z"/>
    <path class="cls-1" d="M152.44,132.97c-1.3-.59-2.83-.02-3.42,1.28-.59,1.3-.02,2.83,1.28,3.42l28.44,12.96c.35.16.71.23,1.07.23.98,0,1.92-.56,2.35-1.51.59-1.3.02-2.83-1.28-3.42l-28.44-12.96Z"/>
    <path class="cls-1" d="M138.81,126.14c4.05-.32,7.01-5.66,9.79-7.09-.61-1.09-.66-2.47-.46-3.77-2.09-.03-4.5.93-7.1,4-4.31,5.07-6.68,4.37-7.98,3.12s-.29,4.23,5.75,3.74Z"/>
    <path class="cls-1" d="M161.27,127.92l-.25.16c3.34-.6,6.14-3.18,6.85-6.71.31-1.52.19-3.02-.27-4.39-1.49.14-3.41.43-4.22.82-1.31.63-2.53,1.17-3.67,1.62-.33.68-1.56,3.83,1.55,8.49Z"/>
    <path class="cls-1" d="M151.07,120.89c.49,3.48,3.12,6.43,6.76,7.16.75.15,1.49.2,2.21.15-2.37-3.75-2.18-6.67-1.77-8.24-3.11,1.08-5.49,1.38-7.2.92Z"/>
    <path class="cls-1" d="M167.92,113.3c-.86-2.2-2.53-4.1-4.83-5.21-4.84-2.33-10.65-.3-12.98,4.54-1.12,2.33-4.31,12.42,12.79,4.17,1.47-.71,5.06-.97,5.58-1.01.54.14.96.18,1.2.1.09-.03.16-.07.19-.14.05-.11-.07-.36-.3-.69-.35-.49-.96-1.16-1.65-1.78ZM163.68,113.53c-.52-.61-.62-1.39-.21-1.74.4-.35,1.16-.13,1.68.49s.62,1.39.21,1.74-1.16.13-1.68-.49Z"/>
  </g>
  <g>
    <path class="cls-1" d="M223.32,243.37c-1.31-.51-2.34-1.51-2.9-2.8-.56-1.29-.59-2.72-.07-4.03l5.18-13.19-7.59-1.85h-.03c-.11-.02-.21-.03-.33-.05-.08-.01-.15-.03-.22-.04l.08.32-9.98,10.49c-2.79-2.25-6.33-3.59-10.18-3.59-8.97,0-16.24,7.27-16.24,16.24s7.27,16.24,16.24,16.24,16.24-7.27,16.24-16.24c0-.36-.02-.72-.04-1.08l2.65-.4-.73,2.8c-.56,2.15.73,4.35,2.88,4.91.34.09.68.13,1.02.13,1.79,0,3.42-1.2,3.9-3.02l1.19-4.56c-.36-.06-.71-.15-1.06-.29ZM209.76,241.63l-8.81,1.33,6.14-6.45c1.25,1.46,2.18,3.21,2.67,5.12ZM197.28,257.76c-7.12,0-12.89-5.77-12.89-12.89s5.77-12.89,12.89-12.89c2.96,0,5.69,1,7.87,2.68l-6.31,6.63c-.48-.21-1-.33-1.56-.33-2.16,0-3.91,1.75-3.91,3.91,0,.62.15,1.21.41,1.73l-.17.18.24-.04c.66,1.21,1.95,2.04,3.43,2.04,1.89,0,3.47-1.34,3.83-3.13l9.05-1.36c0,.19.01.39.01.58,0,7.12-5.77,12.89-12.89,12.89ZM216.86,240.56l-3.78.57c-.63-2.67-1.91-5.08-3.67-7.06l8.82-9.26,1.35,5.32-2.72,10.43Z"/>
    <path class="cls-1" d="M257.56,201.81l-4.7-1.9c.02.82-.2,1.63-.64,2.34-.05.08-.11.16-.16.24l3.16,1.28,2.4,11.83-19.97,2.47c.28.87.33,1.79.14,2.69l20.36-2.51.82,4.05-26.81,13.01-1.45,3.69,28.81-13.98.87,4.27c-6.76,1.96-11.71,8.2-11.71,15.6,0,8.97,7.27,16.24,16.24,16.24s16.24-7.27,16.24-16.24-7.27-16.24-16.24-16.24c-.64,0-1.28.04-1.9.11l-5.46-26.93ZM264.92,231.97c7.12,0,12.89,5.77,12.89,12.89s-5.77,12.89-12.89,12.89-12.89-5.77-12.89-12.89c0-5.77,3.8-10.66,9.03-12.3l1.82,8.98c-1.12.69-1.86,1.92-1.86,3.33,0,2.16,1.75,3.91,3.91,3.91s3.91-1.75,3.91-3.91c0-1.96-1.44-3.58-3.32-3.86l-1.82-8.97c.41-.04.82-.06,1.23-.06Z"/>
    <path class="cls-1" d="M211.9,185.3c4.24.13,7.99-4.46,11.18-6.42-1.72-1.06-2.16-2.95-2-4.83-1.71.48-3.6,1.55-5.68,3.51-5.7,5.38-8.39,4.25-9.74,2.61-1.35-1.64-.88,4.91,6.25,5.13Z"/>
    <path class="cls-1" d="M233.96,177.77c-.09.15-2.07,3.68,1.6,9.2l-.39.26c3.63-.66,6.66-3.45,7.43-7.28.33-1.65.2-3.28-.3-4.77-1.62.16-3.7.47-4.58.89-1.35.65-2.61,1.21-3.79,1.68h.02Z"/>
    <path class="cls-1" d="M224.36,179.43c.54,3.78,3.38,6.98,7.33,7.78.75.15,1.49.2,2.21.17-2.49-4-2.35-7.13-1.91-8.88-3.28,1.12-5.81,1.43-7.64.94Z"/>
    <path class="cls-1" d="M242.66,171.18c-.94-2.39-2.74-4.45-5.24-5.66-5.26-2.53-11.57-.32-14.1,4.93-1.11,2.29-4.05,11.51,9.23,6.55.02-.03.03-.05.03-.06l.05.03c1.35-.51,2.87-1.16,4.58-1.99,1.6-.77,5.51-1.06,6.06-1.09.58.15,1.05.19,1.31.11.1-.03.18-.08.21-.15.06-.11-.08-.39-.33-.75-.38-.54-1.04-1.26-1.79-1.93ZM238.05,171.42c-.57-.67-.67-1.51-.23-1.89s1.26-.14,1.82.53.67,1.51.23,1.89-1.26.14-1.82-.53Z"/>
    <path class="cls-1" d="M214.81,219.48c.98.36,2,.59,2.98.76.13.02.25.04.38.06l9.02,2.2-5.7,14.51c-.81,2.07.21,4.41,2.28,5.22.48.19.98.28,1.47.28,1.61,0,3.13-.97,3.75-2.56l7.39-18.8c.43-1.08.36-2.3-.17-3.33s-1.49-1.78-2.62-2.06l-10.97-2.67c.78-5.46,3.63-11.13,5.65-15.4l5.54,7.02c.57.72,1.43,1.13,2.32,1.13.22,0,.44-.02.66-.07l12.54-2.87c1.59-.36,2.59-1.95,2.22-3.54s-1.95-2.59-3.54-2.22l-10.71,2.45-7.23-9.17c-.32-.4-.72-.69-1.16-.87-.2-.13-.42-.25-.68-.36-3.23-1.38-8.52-.68-11.68,4.08-4.3,6.57-5.92,11.07-6.64,19.05-.01,3.14,1.2,5,2.89,6.16.49.45,1.09.79,1.78.96l.23.06Z"/>
  </g>
  <g>
    <path class="cls-1" d="M19.19,37.99l.25-4.1s0-.06,0-.09c-2.33-.02-4.54-.77-5.7-1.24l-.29-.02c-.28-.02-.54.09-.72.27-1.12.55-2.09,1.13-2.91,1.74l9.36,3.45Z"/>
    <path class="cls-1" d="M19.42,33.17c.15-.87.36-1.5.58-1.66.35-.24,1.89,1.05,2.87.58.98-.47,1.68-2.73,1.37-2.97s-.44-.22-1.38-.15-1.21-.89-1.68-1.48c-.13-.16-.33-.3-.55-.41.44-.94,1.04-1.66,1.04-1.66,0,0-1.35-.2-2.26.73-.12-.98-.02-1.83-.02-1.83,0,0-1.73.8-1.51,2.6-.63.82-2.72,3.51-3.97,4.64,0,0,.29.28.79.69,1.19.42,2.93.91,4.72.92ZM20.4,28.21c.26-.02.48.18.5.43s-.18.48-.43.5c-.26.02-.48-.18-.5-.43-.02-.26.18-.48.43-.5Z"/>
    <path class="cls-1" d="M54.91,44.17c-.17-2.81-1.56-5.29-3.65-6.93l2.43-3.55.81-.25,2.44,6.77.6-1.84-1.9-5.28,4.02-1.25.24-.73-.82-.33-3.84,1.2-.59-1.64c.67-.16,1.53-.29,2.34-.4l-4.1-1.65c-1.06,0-1.98.03-2.44.03-.21,0-.39.12-.5.29-.16.27-.35.68-.38,1.09-.04.64,2.7,1.46,3.95,1.02l.58,1.61-.96.3c-.13.04-.24.12-.31.23l-2.55,3.72c-1.43-.86-3.11-1.35-4.9-1.35-5.06,0-9.19,3.93-9.52,8.9h-9.36v-1.19c0-.95-.59-1.8-1.48-2.12L3.05,32.71c-1.48-.54-3.05.55-3.05,2.12v11.58c0,1.25,1.01,2.26,2.26,2.26h1.93s0-.09,0-.14c0-3.88,3.14-7.02,7.02-7.02s7.02,3.14,7.02,7.02c0,.05,0,.09,0,.14h6.01c1.25,0,2.26-1.01,2.26-2.26v-1.06h9.36c.31,5,4.45,8.95,9.53,8.95s9.22-3.96,9.53-8.95h1.9c-.29-.35-.51-.75-.63-1.19h-1.27ZM24.52,44.74c0,.3-.24.54-.54.54s-.54-.24-.54-.54.24-.54.54-.54.54.24.54.54ZM21.76,45.28c-.3,0-.54-.24-.54-.54s.24-.54.54-.54.54.24.54.54-.24.54-.54.54ZM45.39,36.87c1.44,0,2.79.39,3.96,1.07l-4.23,6.18h-7.59c.33-4.05,3.73-7.25,7.87-7.25ZM45.39,52.66c-4.15,0-7.57-3.22-7.87-7.3h15.74c-.31,4.08-3.72,7.3-7.87,7.3ZM46.52,44.17l3.81-5.56c1.66,1.33,2.76,3.32,2.93,5.56h-6.74Z"/>
    <path class="cls-1" d="M78.42,35.22c-.86,0-1.69.12-2.48.33l-3.77-11.18,1.07-.51-1.27-.71-.79.37c-.27.13-.41.44-.31.73l.87,2.59-5.1,1.59c.12.38.17.79.13,1.21l5.35-1.67.56,1.66-8.9,9.45-.86,2.65,10.19-10.82,1.7,5.03c-3.48,1.42-5.94,4.84-5.94,8.84,0,5.27,4.27,9.55,9.55,9.55s9.55-4.28,9.55-9.55-4.28-9.55-9.55-9.55ZM78.42,52.66c-4.35,0-7.9-3.54-7.9-7.9,0-3.26,1.99-6.07,4.82-7.27l2.51,7.46c.08.25.32.41.56.41.06,0,.13-.01.19-.03.31-.1.48-.44.37-.75h0s-2.51-7.46-2.51-7.46c.62-.16,1.28-.24,1.95-.24,4.35,0,7.9,3.54,7.9,7.9,0,4.35-3.54,7.9-7.9,7.9Z"/>
    <path class="cls-1" d="M66.19,30.13c.42-1.3-.23-2.7-1.5-3.21l-8.26-3.33c1.44-2.44,3.46-4.67,4.96-6.41l-2.76-1.56c-.5-.28-.86-.74-1.01-1.29-.15-.55-.08-1.13.2-1.62.38-.67,1.09-1.09,1.86-1.09.37,0,.73.1,1.05.28l2.3,1.3c-.07-.58-.31-1.11-.73-1.51-1.33-1.26-4.04-1.68-6.44.45-3.29,2.95-4.89,5.18-6.69,9.46-.73,2.18-.13,3.53.84,4.47.28.45.7.82,1.23,1.03l.97.39c.19.09.36.16.53.21l7.76,3.13-3.82,11.74c-.44,1.36.3,2.83,1.67,3.27.27.09.54.13.8.13,1.09,0,2.11-.7,2.47-1.79l4.57-14.05Z"/>
    <path class="cls-1" d="M60.49,12.31c-.8-.45-1.81-.17-2.26.63-.45.8-.17,1.81.63,2.26l14.74,8.3c.26.15.54.21.81.21.58,0,1.14-.3,1.45-.85.45-.8.17-1.81-.63-2.26l-14.74-8.3Z"/>
    <path class="cls-1" d="M68.01,11.04c1.05-.44,1.95-1.25,2.47-2.36.69-1.45.59-3.08-.14-4.39-.81.27-1.97.71-2.39,1.06-.64.52-1.24.97-1.8,1.36-.09.45-.3,2.26,1.86,4.32Z"/>
    <path class="cls-1" d="M64.1,10.95c1.05.5,2.2.59,3.25.32-1.64-1.68-1.9-3.22-1.87-4.1-1.49.95-2.7,1.43-3.68,1.44.45.99,1.24,1.83,2.3,2.34Z"/>
    <path class="cls-1" d="M66.54.13c-2.92-.64-5.81,1.21-6.45,4.13-.31,1.41-.74,7.28,7.46.62.71-.57,2.62-1.18,2.89-1.26.31,0,.54-.03.66-.1.05-.03.08-.06.09-.1.01-.06-.08-.18-.25-.33-.25-.22-.67-.51-1.12-.75-.75-1.08-1.9-1.9-3.28-2.2ZM67.56,3c-.36-.27-.51-.67-.34-.91s.61-.22.97.05c.36.27.51.67.34.91s-.61.22-.97-.05Z"/>
    <path class="cls-1" d="M17.08,48.54c0-3.23-2.63-5.87-5.87-5.87s-5.87,2.63-5.87,5.87,2.63,5.87,5.87,5.87,5.87-2.63,5.87-5.87ZM11.21,52.96c-2.43,0-4.41-1.98-4.41-4.41s1.98-4.41,4.41-4.41,4.41,1.98,4.41,4.41-1.98,4.41-4.41,4.41Z"/>
    <path class="cls-1" d="M12.87,48.54c0-.92-.75-1.66-1.66-1.66s-1.66.75-1.66,1.66.75,1.66,1.66,1.66,1.66-.75,1.66-1.66Z"/>
  </g>
  <g>
    <path class="cls-1" d="M187.75,79.73c-.31-5.08-2.82-9.56-6.59-12.5l4.34-6.33s.08-.06.12-.1l1.41-.44,4.4,12.22,1.08-3.33-3.43-9.52,7.26-2.26.43-1.32-1.49-.6-6.94,2.16-1.02-2.84c1.15-.31,2.76-.57,4.31-.79.6-.08,1.18-.16,1.73-.23l4.48,1.8-6.89,21.2c-.8,2.46.55,5.1,3.01,5.9.48.16.97.23,1.45.23,1.97,0,3.81-1.26,4.45-3.24l8.24-25.35c.76-2.34-.42-4.87-2.7-5.79l-14.92-6.01c2.6-4.4,6.25-8.44,8.95-11.58l-4.99-2.81c-.9-.51-1.55-1.33-1.82-2.32-.28-.99-.15-2.03.35-2.93.68-1.21,1.97-1.97,3.36-1.97.66,0,1.31.17,1.89.5l4.15,2.34c-.13-1.05-.55-2-1.31-2.72-2.39-2.27-7.29-3.03-11.63.82-5.94,5.33-8.83,9.35-12.08,17.07-1.31,3.93-.24,6.38,1.52,8.06.51.81,1.26,1.48,2.22,1.87l1.75.71c.34.16.66.29.96.39l2.56,1.03c-.78,0-1.55,0-2.28.01-1.68.02-3.12.04-3.87.06-.37,0-.71.21-.9.53-.28.48-.64,1.23-.69,1.96-.07,1.08,4.22,2.43,6.64,1.97l1,2.77-1.73.54s-.02.01-.04.01h-5.26c-.15.87-.62,1.68-1.34,2.25h4.81l-3.34,4.87c-2.58-1.55-5.61-2.44-8.84-2.44s-6.19.87-8.75,2.39l-3.24-4.82h14.82c-.44-.34-.8-.79-1.05-1.32l-.44-.93h-15.43c-.42,0-.8.23-.99.6-.2.37-.17.81.06,1.16l4.42,6.58c-4.03,3.15-6.63,8.06-6.63,13.58,0,9.52,7.72,17.24,17.24,17.24s16.64-7.14,17.2-16.16h3.43c-.53-.62-.92-1.36-1.14-2.15h-2.3ZM170.55,66.55c2.6,0,5.04.7,7.14,1.93l-7.17,10.46-7.06-10.5c2.09-1.2,4.51-1.89,7.08-1.89ZM170.55,95.06c-7.86,0-14.25-6.39-14.25-14.25,0-4.48,2.08-8.48,5.31-11.09l7.86,11.69c.22.32.57.5.93.5.07,0,.14,0,.21-.02h14.15c-.55,7.36-6.71,13.18-14.21,13.18ZM172.58,79.73l6.88-10.04c2.99,2.4,4.99,5.99,5.29,10.04h-12.17Z"/>
    <path class="cls-1" d="M230.17,63.57c-1.55,0-3.05.21-4.48.59l-6.8-20.19,1.93-.92-2.29-1.29-1.43.68c-.49.23-.73.8-.56,1.31l1.57,4.67-9.21,2.87c.22.69.3,1.43.23,2.18l9.66-3.01,1.01,2.99-16.07,17.05-1.55,4.78,18.4-19.52,3.06,9.09c-6.29,2.57-10.72,8.74-10.72,15.96,0,9.52,7.72,17.24,17.23,17.24s17.24-7.72,17.24-17.24c0-9.52-7.72-17.23-17.24-17.23ZM230.17,95.06c-7.86,0-14.25-6.39-14.25-14.25,0-5.89,3.59-10.96,8.7-13.12l4.54,13.47c.15.45.57.73,1.02.73.11,0,.23-.02.34-.06.56-.19.86-.8.67-1.36h0s-4.54-13.47-4.54-13.47c1.13-.29,2.31-.44,3.52-.44,7.86,0,14.25,6.39,14.25,14.25,0,7.86-6.4,14.25-14.25,14.25Z"/>
    <path class="cls-1" d="M221.46,42.43c.47.26.97.39,1.47.39,1.05,0,2.06-.55,2.61-1.53.81-1.44.3-3.27-1.14-4.08l-26.6-14.99c-1.44-.81-3.27-.3-4.08,1.14-.81,1.44-.3,3.27,1.14,4.08l26.6,14.99Z"/>
    <path class="cls-1" d="M204.32,19.77c1.9.91,3.97,1.06,5.87.57-2.97-3.03-3.42-5.82-3.38-7.39-2.68,1.72-4.88,2.58-6.63,2.6.81,1.79,2.23,3.31,4.15,4.22Z"/>
    <path class="cls-1" d="M211.38,19.93c1.89-.79,3.51-2.25,4.46-4.25,1.25-2.62,1.06-5.56-.25-7.92-1.47.48-3.55,1.29-4.32,1.91-1.15.94-2.23,1.75-3.26,2.46-.17.81-.55,4.07,3.36,7.8Z"/>
    <path class="cls-1" d="M208.74.23c-5.27-1.16-10.48,2.18-11.64,7.45-.56,2.54-1.33,13.15,13.47,1.12,1.27-1.04,4.72-2.12,5.22-2.28.56.01.98-.05,1.2-.18.09-.05.14-.11.16-.18.03-.12-.15-.33-.46-.6-.46-.4-1.21-.91-2.02-1.36-1.36-1.95-3.42-3.42-5.93-3.97ZM210.57,5.41c-.65-.48-.93-1.22-.61-1.65s1.1-.39,1.76.09c.65.48.93,1.22.61,1.65s-1.1.39-1.76-.09Z"/>
    <path class="cls-1" d="M176.31,60.99c.18-.04.35-.11.53-.19,1.4-.66,2.01-2.34,1.34-3.74l-4.47-9.48c-.45-.95-1.38-1.57-2.43-1.61l-5.35-.21c0-.1,0-.2,0-.31l-.38-7.28c-.15-2.98-2.69-5.27-5.67-5.11-1.83.09-3.39,1.09-4.3,2.53.2.72.37,1.48.49,2.3,1.31,9.19,7.07,10.51,11.28,10.7,3.26.15,5.66,2.88,6.58,7.5.12.62-.04,1.26-.44,1.75-.23.29-.54.5-.87.63l.46.98c.58,1.23,1.94,1.85,3.21,1.53Z"/>
    <path class="cls-1" d="M157.61,25.82c-2.04,1.31-3.69,1.94-5.01,1.91,1,2.47,3.46,4.16,6.27,4.04.53-.02,1.04-.12,1.53-.26-2.36-2.29-2.78-4.44-2.78-5.7Z"/>
    <path class="cls-1" d="M158.81,25h.02c-.03.12-.79,2.84,2.63,5.97l-.22.24c2.34-1.05,3.93-3.45,3.81-6.18-.05-1.17-.41-2.25-1-3.18-1.07.38-2.42.93-2.95,1.37-.8.67-1.56,1.26-2.28,1.77Z"/>
    <path class="cls-1" d="M159.11,16.13c-3.98-.83-7.89,1.72-8.72,5.7-.36,1.74-.82,8.47,7.35,2.89,0-.02.01-.04.01-.04h.04c.83-.56,1.75-1.26,2.77-2.1.96-.79,3.55-1.64,3.92-1.75.42,0,.74-.04.9-.14.06-.04.11-.08.12-.14.02-.09-.12-.25-.35-.45-.35-.3-.92-.68-1.53-1.01-1.04-1.46-2.6-2.55-4.5-2.95ZM160.53,20.02c-.5-.36-.71-.91-.47-1.24s.83-.3,1.32.05.71.91.47,1.24c-.23.33-.83.3-1.32-.05Z"/>
    <path class="cls-1" d="M172.84,56.33c-.43-2.13-1.75-6.43-5.53-6.6-5.03-.23-10.98-2.06-12.35-11.66-.95-6.65-5.18-9.57-7.7-10.74-.77-.36-1.6.35-1.36,1.16l8.17,28.3c.12.42.51.71.95.71h16.86c.62,0,1.09-.57.97-1.17Z"/>
  </g>
  <g>
    <path class="cls-1" d="M307.02,126.82l-5.36,5.68-1.03,3.75,7.89-8.38c-.6-.19-1.12-.56-1.51-1.06Z"/>
    <path class="cls-1" d="M271.94,157.51c7.77,0,14.13-6.06,14.6-13.72h4.73c-.51-.51-.9-1.14-1.13-1.82h-3.6c-.26-4.31-2.4-8.11-5.6-10.62l3.73-5.44,1.25-.39,4.48,12.44.84-3.05-3.58-9.93,6.9-2.15.07-.26-2.88-.78-4.71,1.47-1.09-3.03-2.57-.69c-.95-.08-2.97-.28-4.6-1.76-.2.39-.4.89-.43,1.39-.06.95,3.88,2.16,5.87,1.62l1.08,3-1.47.46c-.19.06-.37.19-.48.36l-3.91,5.7c-2.19-1.31-4.76-2.07-7.5-2.07-8.08,0-14.63,6.55-14.63,14.63s6.55,14.63,14.63,14.63ZM279.5,133.45c2.54,2.04,4.24,5.08,4.49,8.52h-10.33l5.84-8.52ZM271.94,130.78c2.21,0,4.28.6,6.06,1.64l-6.82,9.95c-.19.28-.21.64-.05.94.16.3.47.49.81.49h12.06c-.47,6.25-5.7,11.19-12.06,11.19s-12.1-5.43-12.1-12.1,5.43-12.1,12.1-12.1Z"/>
    <path class="cls-1" d="M295.86,103.7c-.24.45-.42.95-.49,1.49l-.9,6.12c-.07.51-.06,1,.03,1.48l7.15,1.93c1.2.32,2.24,1.13,2.86,2.21.22.39.39.81.49,1.24l.38.09,1.79,7.23c.27,1.09,1.24,1.81,2.31,1.81.19,0,.38-.02.58-.07,1.28-.32,2.06-1.61,1.74-2.89l-2.14-8.63c-.21-.86-.89-1.54-1.76-1.75l-4.42-1.06c.02-.08.04-.17.05-.25l.07-.47.41-2.79,5.98,2.19c.25.09.51.14.76.14.11,0,.21,0,.32-.02l1.25,3.71-1.85.57.44,1.77,1.99-.62.86,2.54-1.88,1.99.52,2.1,2.01-2.14,2.6,7.71c-5.34,2.18-9.1,7.42-9.1,13.55,0,8.08,6.55,14.63,14.63,14.63s14.63-6.55,14.63-14.63-6.55-14.63-14.63-14.63c-1.31,0-2.59.18-3.8.5l-5.77-17.14,1.77-.84-18.89-7.07ZM321.69,143.17c.13.38.48.62.86.62.1,0,.19-.02.29-.05.48-.16.73-.68.57-1.15h0s-3.85-11.43-3.85-11.43c.96-.24,1.96-.37,2.99-.37,6.67,0,12.1,5.43,12.1,12.1s-5.43,12.1-12.1,12.1-12.1-5.43-12.1-12.1c0-5,3.05-9.3,7.38-11.14l3.85,11.43Z"/>
    <polygon class="cls-1" points="302.6 95.22 302.6 95.22 302.62 95.23 302.6 95.22"/>
    <path class="cls-1" d="M301.47,95.7c-1.91.75-3.4,1-4.49.76.05.25.11.49.19.73l4.62,1.73c-.51-1.38-.47-2.5-.32-3.22Z"/>
    <path class="cls-1" d="M302.6,95.22h.01c-.04.08-.85,1.69.42,4.17l2.1.79c1.37-.81,2.39-2.2,2.65-3.89.15-.98.03-1.94-.3-2.81-.95.14-2.17.37-2.68.65-.78.42-1.51.79-2.2,1.1Z"/>
    <path class="cls-1" d="M307.59,91.09c-.62-1.39-1.74-2.56-3.25-3.21-3.18-1.36-6.85.12-8.21,3.29-.59,1.39-2.09,6.92,5.64,3.63,0-.02.01-.03.02-.03h.03c.79-.32,1.67-.75,2.66-1.28.93-.5,3.23-.77,3.55-.81.35.07.62.09.78.03.06-.02.1-.05.12-.09.03-.07-.06-.23-.22-.43-.24-.31-.65-.72-1.11-1.09ZM304.87,91.36c-.35-.38-.44-.88-.19-1.11s.74-.12,1.09.26.44.88.19,1.11c-.25.23-.74.12-1.09-.26Z"/>
    <path class="cls-1" d="M291.32,88.84c-2.52-2.57-2.91-4.94-2.87-6.28-2.28,1.46-4.14,2.19-5.63,2.21.69,1.52,1.9,2.81,3.52,3.58,1.62.77,3.37.9,4.98.48Z"/>
    <path class="cls-1" d="M292.34,88.5c1.61-.67,2.98-1.91,3.79-3.61,1.06-2.23.9-4.72-.21-6.73-1.24.41-3.01,1.09-3.66,1.62-.98.79-1.9,1.49-2.76,2.09-.15.68-.47,3.46,2.85,6.62Z"/>
    <path class="cls-1" d="M290.09,71.77c-4.48-.98-8.9,1.85-9.88,6.32-.47,2.15-1.13,11.16,11.44.95,1.08-.88,4.01-1.8,4.43-1.93.47,0,.83-.04,1.02-.15.07-.04.12-.09.13-.15.02-.1-.13-.28-.39-.51-.39-.34-1.03-.77-1.72-1.15-1.15-1.66-2.91-2.91-5.03-3.37ZM291.65,76.17c-.56-.41-.79-1.03-.52-1.4.27-.37.94-.33,1.49.07.56.41.79,1.03.52,1.4-.27.37-.94.33-1.49-.07Z"/>
    <path class="cls-1" d="M283.51,118.82l12.02,3.24-4.77,17.35c-.58,2.12.66,4.31,2.78,4.89.35.1.71.14,1.06.14,1.75,0,3.35-1.16,3.83-2.92l5.83-21.21c.28-1.02.14-2.11-.38-3.03-.53-.92-1.4-1.59-2.42-1.86l-12.99-3.5c.05-3.51.83-7.19,1.6-10.4l-3.63-1.36c-1.69-.63-2.55-2.53-1.92-4.22.48-1.27,1.71-2.13,3.07-2.13.39,0,.78.07,1.15.21l2.57.96c-.15-2.19-1.21-4.17-3.05-4.71-2.68-.79-6.68.51-8.48,5.1-2.44,6.32-3.08,10.47-2.56,17.57.7,4.64,3.59,5.65,6.28,5.87Z"/>
    <path class="cls-1" d="M288.49,94.72c-1.31-.49-2.78.17-3.28,1.49-.49,1.32.17,2.78,1.49,3.28l30.01,11.24c.29.11.6.16.89.16,1.03,0,2-.63,2.38-1.65.49-1.32-.17-2.78-1.49-3.28l-30.01-11.24Z"/>
  </g>
  <g>
    <path class="cls-1" d="M22.08,114.61l-5.83,2.23c.11.12.2.26.28.42.19.39.23.85.12,1.36-.29,1.41-.2,2.63.28,3.63.39.8.89,1.16.9,1.17l.11.08,8.82-3.37c1.33-.51,2.21-1.79,2.2-3.21l-.08-8.34-6.9-4.23.1,10.27Z"/>
    <path class="cls-1" d="M24.64,105.05l13.29,8.15.35,8.72c.22-.1.46-.16.74-.16.44,0,.87.16,1.29.48,1.15.87,2.3,1.31,3.41,1.31.89,0,1.44-.3,1.45-.3h.03s-.48-12.13-.48-12.13c-.05-1.13-.65-2.17-1.63-2.77l-12.43-7.63c.1-.24.21-.48.32-.72.78-1.72,1.84-3.71,3.34-5.87-.32-.4-.53-.88-.61-1.39l-1.52-9.73c-.26-1.63.87-3.17,2.52-3.42.15-.02.31-.04.47-.04,1.5,0,2.75,1.07,2.98,2.54l1.28,8.22.71.36c1.41-.68,2.13-2.64,2-4.02-.04-.47-.91-1.59-1.95-2.76-.46-1.09-.87-2.55-.05-5.04-1.05-1.37-2.57-2.22-4.22-2.26-.16-.02-.32-.03-.49-.02l-12.37.82c-.45.03-.88.19-1.23.47l-9.03,7.06c-.97.76-1.13,2.15-.37,3.11.44.56,1.09.85,1.75.85.48,0,.97-.16,1.38-.47l8.49-6.64,5.69-.38c-1.01,3.05-.64,6.87-8.36,13.53-2.1,1.81-2.58,3.57-2.14,5.14.62,2.23,3.09,4.05,5.41,5Z"/>
    <path class="cls-1" d="M38.71,90.82l-1.34-8.61c-.19-1.21-1.32-2.04-2.54-1.85-1.22.19-2.05,1.32-1.86,2.53l1.52,9.73c.11.7.55,1.31,1.19,1.63l12.15,6.15c.32.16.67.24,1.01.24.81,0,1.59-.44,1.99-1.21.56-1.09.12-2.42-.97-2.98l-11.13-5.64Z"/>
    <path class="cls-1" d="M24.01,68.54c-3.99,4.12-6,3.39-7.04,2.24s-.47,3.61,4.76,3.52c4.18-.07,7.43-6.35,10.21-5.74.03-.88.2-1.73.5-2.52-2.14-.97-5-1.04-8.42,2.5Z"/>
    <ellipse class="cls-1" cx="40.09" cy="68.85" rx="7.37" ry="7.33"/>
    <path class="cls-1" d="M49.07,134.92c.36,0,.91-.15,1.22-.33l.7-.4c.32-.18.66-.57.77-.87.11-.3.06-.78-.11-1.06s-.59-.6-.93-.71l-2.32-.73c-.17-.05-.61-.44-1.06-.95-.53.62-1.53,1.61-2.79,1.97l-.26-.88c1.13-.32,2.04-1.3,2.45-1.82-.25-.34-.46-.68-.57-.99-.03-.07-.05-.15-.08-.22-.46.48-1.12,1.03-2.01,1.49l-.43-.81c1.09-.57,1.79-1.28,2.16-1.75-.26-1.48-.06-2.73-.26-2.94,0,0-2.43,1.42-5.73-1.07-1.32-1-2.08.65-2.14,1.03l-.53,8.43c-.03.39.09.97.27,1.31l.38.69c.18.33.62.61.98.61h10.29Z"/>
    <path class="cls-1" d="M37.58,135.46c-1.01,0-1.83.81-1.83,1.82s.82,1.82,1.83,1.82,1.83-.81,1.83-1.82c0-.72-.43-1.34-1.04-1.63-.11-.05-.23-.1-.36-.13-.14-.03-.28-.06-.43-.06ZM37.58,138.12c-.47,0-.85-.38-.85-.84s.38-.84.85-.84.85.38.85.84-.38.84-.85.84Z"/>
    <path class="cls-1" d="M41.3,135.7c-.55.31-.93.9-.93,1.58,0,1.01.82,1.82,1.83,1.82s1.83-.81,1.83-1.82c0-.68-.38-1.26-.93-1.58-.27-.15-.57-.24-.9-.24-.33,0-.63.09-.9.24ZM42.19,138.12c-.47,0-.85-.38-.85-.84s.38-.84.85-.84.85.38.85.84-.38.84-.85.84Z"/>
    <path class="cls-1" d="M47.71,135.7c-.27-.15-.57-.24-.9-.24s-.63.09-.9.24c-.55.31-.93.9-.93,1.58,0,1.01.82,1.82,1.83,1.82s1.83-.81,1.83-1.82c0-.68-.38-1.26-.93-1.58ZM46.81,138.12c-.47,0-.85-.38-.85-.84s.38-.84.85-.84.85.38.85.84-.38.84-.85.84Z"/>
    <path class="cls-1" d="M49.6,137.28c0,1.01.82,1.82,1.83,1.82s1.83-.81,1.83-1.82-.82-1.82-1.83-1.82c-1.01,0-1.83.81-1.83,1.82ZM52.28,137.28c0,.47-.38.84-.85.84s-.85-.38-.85-.84.38-.84.85-.84.85.38.85.84Z"/>
    <path class="cls-1" d="M15.88,118.46c.34-1.62-1.49-1.59-1.86-1.47l-7.87,3.16c-.36.14-.85.5-1.07.81l-.46.64c-.22.31-.28.82-.13,1.14l4.45,9.23c.15.32.52.75.82.95l.67.45c.3.2.81.34,1.12.31.32-.03.73-.29.91-.56.18-.27.29-.79.24-1.14l-.34-2.4c-.02-.17.14-.74.4-1.36-.8-.21-2.12-.67-2.99-1.65l.69-.61c.78.87,2.06,1.26,2.71,1.42.2-.37.42-.71.65-.94.06-.06.11-.11.17-.17-.63-.21-1.42-.56-2.22-1.16l.55-.73c.99.74,1.94,1.05,2.53,1.18,1.23-.87,2.45-1.23,2.55-1.51,0,0-2.34-1.57-1.51-5.6Z"/>
    <path class="cls-1" d="M3.62,122.3c-.03-.14-.07-.28-.14-.41-.44-.91-1.53-1.29-2.44-.86-.91.43-1.3,1.52-.86,2.43s1.53,1.29,2.44.86c.65-.31,1.03-.96,1.03-1.64,0-.13-.01-.25-.04-.38ZM2.2,123.43c-.42.2-.93.02-1.13-.4-.2-.42-.02-.93.4-1.13.42-.2.93-.02,1.13.4.2.42.02.93-.4,1.13Z"/>
    <path class="cls-1" d="M5.48,126.03c-.14-.29-.36-.53-.61-.7-.52-.36-1.22-.45-1.83-.15-.91.43-1.3,1.52-.86,2.43s1.53,1.29,2.44.86c.62-.29.98-.88,1.03-1.52.02-.3-.03-.62-.17-.91ZM4.19,127.58c-.42.2-.93.02-1.13-.4-.2-.42-.02-.93.4-1.13s.93-.02,1.13.4c.2.42.02.93-.4,1.13Z"/>
    <path class="cls-1" d="M7.47,130.17c-.14-.29-.36-.53-.61-.7-.52-.36-1.22-.45-1.83-.15-.91.43-1.3,1.52-.86,2.43.44.91,1.53,1.29,2.44.86.62-.29.98-.88,1.03-1.52.02-.3-.03-.62-.17-.91ZM6.19,131.72c-.42.2-.93.02-1.13-.4-.2-.42-.02-.93.4-1.13.42-.2.93-.02,1.13.4s.02.93-.4,1.13Z"/>
    <path class="cls-1" d="M8.6,136.74c.91-.43,1.3-1.52.86-2.43s-1.53-1.29-2.44-.86-1.3,1.52-.86,2.43c.44.91,1.53,1.29,2.44.86ZM7.45,134.33c.42-.2.93-.02,1.13.4.2.42.02.93-.4,1.13s-.93.02-1.13-.4c-.2-.42-.02-.93.4-1.13Z"/>
  </g>
  <g>
    <path class="cls-1" d="M498.07,242.29c0-10.38-8.44-18.82-18.82-18.82-2.08,0-4.08.34-5.95.97l-5.62-14.29-2.37-.61,1.43,3.65-10.43.02,1.83,1.98,9.22-.02c.05,0,.11,0,.16-.02l1.85,4.71c-.06.03-.11.07-.16.12l-19.26,17.33-2.36,4.25c-.46.82-1.13,1.48-1.93,1.91h0s0,0,0,0c0,0,0,0,0,0,.06,0,.12,0,.18-.02.12-.02.24-.07.34-.13.02-.01.04-.03.06-.05.02-.02.05-.03.07-.06l23.8-21.41,1.32,3.35c-6.5,2.97-11.03,9.53-11.03,17.13,0,10.38,8.44,18.82,18.82,18.82s18.82-8.44,18.82-18.82ZM462.41,242.29c0-6.76,4.01-12.6,9.77-15.28l6.15,15.64c.15.39.53.63.92.63.12,0,.24-.02.36-.07.51-.2.76-.78.56-1.28l-6.15-15.64c1.65-.54,3.4-.83,5.23-.83,9.29,0,16.84,7.56,16.84,16.84s-7.56,16.84-16.84,16.84-16.84-7.56-16.84-16.84Z"/>
    <path class="cls-1" d="M439,241.44h-.99c-.28-6.34-3.71-11.86-8.75-15.06l5.44-9.7,6.35,16.55,1.25-2.26-6.04-15.74h6.37s-2.46-1.99-2.46-1.99h-4.67s-1.58-4.12-1.58-4.12c.24-.04.47-.09.67-.16-2.11-.58-4.45-2.36-6.01-4.57-.33.05-.63.24-.8.54-.3.51-.68,1.3-.73,2.07-.05.84,2.42,1.85,4.74,2.12l1.98,5.15-6.24,11.14c-2.51-1.24-5.34-1.95-8.32-1.95-10.38,0-18.82,8.44-18.82,18.82s8.44,18.82,18.82,18.82,18.2-7.84,18.79-17.69l2.93.02c-.85-.48-1.5-1.18-1.92-2ZM436.03,241.42l-15.14-.11,7.4-13.19c4.44,2.85,7.45,7.72,7.74,13.31ZM419.21,259.13c-9.29,0-16.84-7.56-16.84-16.84s7.56-16.84,16.84-16.84c2.64,0,5.13.61,7.36,1.69l-8.22,14.66c-.17.31-.17.68,0,.98.18.3.5.49.85.49l16.81.13c-.58,8.77-7.89,15.73-16.8,15.73Z"/>
    <path class="cls-1" d="M479.15,209.32c.26.01,2.16.15,2.16,2.06s-2.09,5.04-7.71,5.04c-.55,0-.99.44-.99.99s.44.99.99.99c7.06,0,9.69-4.31,9.69-7.02,0-1.14-.39-2-.95-2.63,1.51-.61,2.71-1.74,2.93-3.59.06-.54-.32-1.04-.87-1.1-.55-.07-1.04.32-1.1.87-.27,2.3-3.52,2.42-4.17,2.42,0,0,0,0,0,0,0,0,0,0-.01,0h-.14c.24.61.31,1.3.17,1.98Z"/>
    <path class="cls-1" d="M479.36,175.22l-.27-.07c-.04-.75-.16-1.49-.38-2.21-1.79.14-4.01.44-4.96.89-1.39.66-2.69,1.22-3.91,1.69l.15.09c-.09.15-2.08,3.6,1.38,9.03,2.14-.34,4.18-1.42,5.66-3.23.27-.33.5-.67.72-1.03.13-.08.26-.16.39-.27,1.49-1.28,1.55-4.32,1.55-4.45,0-.21-.14-.4-.35-.45ZM477.55,179.43c-.34.29-.73.4-1.2.34-2.04-.27-2.98-3.11-3.26-4.18l1.83-.52,3.84.94c-.07.94-.37,2.68-1.22,3.41Z"/>
    <path class="cls-1" d="M458.11,216.61s-.03-.05-.05-.07c-.05-.08-.11-.16-.16-.24-.02-.03-.05-.06-.07-.09-.05-.07-.11-.14-.17-.21-.01-.01-.02-.03-.03-.04l-12.71-13.72c2.41-1.5,5.42-3.05,9.19-4.38.38.63.82,1.07,1.27,1.37l-1.81-8.27c-.2-.91-.03-1.84.47-2.63s1.28-1.33,2.19-1.52c.25-.05.5-.08.75-.08,1.63,0,3.06,1.15,3.4,2.74l.82,3.77c.16-1.42.5-3.22,2.95-5.38-.48-3.93-3.96-6.9-9.21-5.13-5.16,1.74-5.8,7.85-18.95,10.26-14.92,2.73-6.15,14.29-.66,15.2l14.28,11.46-9.77,17.63c-1.06,1.91-.37,4.33,1.55,5.39.61.34,1.27.5,1.92.5,1.39,0,2.75-.74,3.47-2.04l11.35-20.49s0-.01.01-.02l.02-.04s.04-.08.06-.13c.03-.06.07-.12.09-.19.04-.08.06-.16.09-.24.01-.04.03-.07.04-.11.04-.11.07-.23.1-.34,0-.03.01-.06.02-.08.02-.09.04-.19.05-.28,0-.04,0-.07.01-.11,0-.09.02-.17.02-.26,0-.04,0-.09,0-.13,0-.08,0-.15,0-.23,0-.05,0-.1,0-.15,0-.07-.01-.14-.02-.21,0-.05-.02-.11-.02-.16-.01-.06-.02-.13-.04-.19-.01-.06-.03-.11-.04-.17-.02-.06-.04-.12-.05-.18-.02-.06-.04-.11-.06-.17-.02-.06-.05-.13-.08-.19-.02-.05-.04-.1-.06-.15-.05-.11-.11-.21-.17-.32Z"/>
    <path class="cls-1" d="M459.49,189.66c-.3-1.39-1.67-2.27-3.07-1.97-1.39.3-2.27,1.68-1.97,3.07l3.14,14.4c.21.95.93,1.7,1.88,1.95l15.62,4.01c.22.06.43.08.64.08,1.15,0,2.19-.77,2.49-1.94.35-1.38-.48-2.78-1.85-3.14l-14.08-3.62-2.8-12.85Z"/>
    <path class="cls-1" d="M441.62,179.93c-1.22-1.33-.53,4.2,5.52,4.07,6.05-.13,11.26-10.65,15.03-3.57v-.03c.54.85,1.2,1.63,2.01,2.3,1.73,1.41,3.81,2.09,5.88,2.06-2.45-4.14-2-7.26-1.51-8.77-2.36.82-4.33,1.23-5.89,1.23-1.02,0-1.9-.17-2.62-.52-1.12-.54-1.18-1.6-1.03-2.56-2.42-.91-5.56-.73-9.26,3.14-4.59,4.81-6.92,3.97-8.13,2.64Z"/>
    <path class="cls-1" d="M460.44,175.89c1.91.92,5.73.53,12.92-2.88,1.45-.68,4.81-.95,5.75-1.01.11.04.23.07.34.11,2.38.72,5.01.71,4.62.27-6.09-6.86-8.41-7.63-10.43-8.62-5.12-2.52-13.9.59-16.42,5.71-.42.86,3.04.9,3.09,2.59.03,1.25-1.12,3.23.13,3.83ZM473.38,166.39v.1c-2.52-.5-5.16.04-7.26.75l-.61-.72c4.41-1.39,7.86-.13,7.86-.13ZM464.63,170.13c.56-.36,1.11-.67,1.65-.93l.54.75c-1.19.54-1.93.99-1.93.99l-.26-.8ZM467.98,169.45l-.62-.73c4.85-1.9,8.79-.46,8.79-.46v.1c-2.91-.57-5.97.23-8.18,1.09ZM464.6,166.85l.55.76c-1.82.71-3.03,1.45-3.03,1.45l-.26-.8c.93-.6,1.85-1.06,2.74-1.41Z"/>
  </g>
  <g>
    <path class="cls-1" d="M372.01,62.98c-1.46,0-2.86.29-4.13.82l-6.1-17.85c-.11-.33-.45-.53-.79-.46l-1.51.29c.14.48.1.99-.12,1.44l1.29-.25,3.11,9.1c-3.41,4.15-7.7,8.09-11.07,10.94l.03,1.79c3.36-2.79,7.89-6.84,11.56-11.19l.95,2.78-12.49,9.72.03,1.74,12.93-10.06.9,2.63c-3.25,1.87-5.44,5.38-5.44,9.38,0,5.97,4.86,10.83,10.83,10.83s10.83-4.86,10.83-10.83c0-5.97-4.86-10.83-10.83-10.83ZM372.01,82.77c-4.94,0-8.97-4.02-8.97-8.97,0-3.19,1.67-5.99,4.19-7.58l.85,2.5c.89,2.77,3.3,5.44,3.41,5.56.14.15.33.23.52.23.17,0,.34-.06.47-.18.29-.26.31-.7.05-.99-.02-.03-2.31-2.56-3.11-5.05l-.93-2.72c1.08-.47,2.27-.72,3.53-.72,4.94,0,8.97,4.02,8.97,8.97,0,4.94-4.02,8.96-8.97,8.96Z"/>
    <path class="cls-1" d="M346.71,65.54l-1.44-3.99c-.47.09-.94.17-1.4.25l2.92,8.08-.08-4.33Z"/>
    <path class="cls-1" d="M366.65,56.58c0,1.37,1.11,2.48,2.48,2.48s1.37-4.97,0-4.97-2.48,1.11-2.48,2.48Z"/>
    <path class="cls-1" d="M346.8,70.77l-5.65.25c-.59-2.2-1.84-4.12-3.54-5.53l1.69-2.36c.18-.25.29-.54.33-.83-.19.01-.37.03-.55.04-.04.17-.11.34-.22.48l-1.68,2.34c-1.56-1.18-3.45-1.94-5.5-2.13l.3-2.96,3.44.35c0-.17,0-.35.01-.54l-9.84-1c-.68-.07-1.32.22-1.73.77-.4.55-.47,1.26-.2,1.88l1.36,3.04c-3.1,1.91-5.17,5.33-5.17,9.23,0,5.97,4.86,10.83,10.83,10.83,5.19,0,9.53-3.67,10.58-8.54l5.64.25s0-.05,0-.08l-.1-5.5ZM330.29,71.52c-.51.06-.96.31-1.28.67l-2.75-6.17c1.31-.75,2.82-1.18,4.43-1.18.09,0,.18,0,.28,0l-.68,6.67ZM329.41,73.56c0-.62.5-1.13,1.13-1.13s1.13.5,1.13,1.13-.5,1.13-1.13,1.13-1.13-.51-1.13-1.13ZM339.24,71.11l-5.84.26,3.12-4.36c1.25,1.08,2.21,2.49,2.72,4.1ZM336.11,66.67l-3.39,4.73-1.89.08.67-6.6c1.72.16,3.3.8,4.6,1.79ZM324.17,61.32c-.2-.45-.15-.95.14-1.35.29-.4.75-.6,1.24-.55l5.91.6-.3,2.98c-.15,0-.31-.01-.47-.01-1.88,0-3.65.48-5.19,1.33l-1.33-2.99ZM330.69,82.77c-4.94,0-8.97-4.02-8.97-8.97,0-3.14,1.62-5.91,4.07-7.51l2.86,6.42c-.11.25-.18.54-.18.83,0,1.14.92,2.06,2.06,2.06l8.84.4c-.98,3.88-4.51,6.76-8.69,6.76Z"/>
    <path class="cls-1" d="M352.05,60.85c0-.41-.12-.81-.32-1.17-1.74.72-3.57,1.25-5.35,1.64l.8.7.27,14.24c.02,1.33,1.11,2.4,2.44,2.4.02,0,.03,0,.05,0,1.35-.03,2.42-1.14,2.4-2.49l-.29-15.32Z"/>
    <path class="cls-1" d="M336.93,35.05c2.5-.93,3.22-5.19,4.89-5.92-.07-.35-.11-.72-.11-1.09,0-.26.02-.51.05-.75-1.56-.09-3.34.57-4.68,3.53-1.61,3.56-3.07,3.54-4,3.04s.52,2.43,3.85,1.19Z"/>
    <circle class="cls-1" cx="347.25" cy="28.04" r="5.01"/>
    <path class="cls-1" d="M336.9,50.95s-.02.06-.03.09c-.72,3.32-.77,10.68-.77,10.68,0,0,9.68.19,16.84-3.36-3.56-4.28-7.38-8.63-7.92-9.25.04-.24.08-.5.13-.75.1-.51.21-1.04.35-1.6l-3.48-7.14c-.24-.49-.27-1.05-.1-1.57.18-.52.55-.93,1.04-1.17.28-.14.58-.21.9-.21.79,0,1.5.44,1.84,1.15l2.17,4.44c.71-.76.73-2.14.36-2.99-.03-.08-.11-.17-.22-.27-.45-.86-1.87-1.37-1.9-4.17-1.93-1.3-4.59-.9-5.82,2.12-1.19,2.9,1.59,4.7-2.48,11.9-.09.15-.17.3-.26.46-.35.6-.56,1.14-.66,1.64Z"/>
    <path class="cls-1" d="M345.23,38.06c-.37-.75-1.27-1.06-2.02-.7-.75.37-1.06,1.27-.7,2.02l3.84,7.88c.26.52.79.85,1.36.85.06,0,.12,0,.18-.01l7.83-.95,1.11.55c.75.37,1.66.07,2.03-.68.37-.75.07-1.66-.68-2.03l-1.51-.76c-.27-.13-.56-.19-.86-.15l-7.22.88-3.37-6.91Z"/>
  </g>
  <g>
    <path class="cls-1" d="M332.7,211.78c-.42,0-.78.01-1.04.02-.33,0-.63.19-.8.47-.25.43-.57,1.09-.61,1.75-.05.79,2.53,1.75,4.64,1.83-.27-.36-.54-.77-.84-1.26-.38-.61-.98-1.6-1.35-2.81Z"/>
    <path class="cls-1" d="M326.36,261.11c8.42,0,15.33-6.6,15.82-14.9h1.14c-.13-.18-.25-.38-.35-.6-.17-.35-.28-.71-.36-1.07h-.41c-.24-5.34-3.12-9.99-7.37-12.68l4.58-8.17,5.09,13.26.86-2.43-4.63-12.06h1.54s-1.91-1.67-1.91-1.67h-.27s-.14-.36-.14-.36l-2.69-2.35,1.37,3.57-5.26,9.38c-2.12-1.05-4.5-1.64-7.01-1.64-8.74,0-15.86,7.11-15.86,15.86s7.11,15.86,15.86,15.86ZM340.53,244.53l-12.75-.1,6.23-11.11c3.74,2.4,6.28,6.51,6.52,11.21ZM326.36,231.07c2.22,0,4.32.51,6.2,1.43l-6.92,12.35c-.14.26-.14.57,0,.83.15.26.42.41.72.42l14.16.11c-.49,7.39-6.65,13.25-14.15,13.25s-14.19-6.36-14.19-14.19,6.36-14.19,14.19-14.19Z"/>
    <path class="cls-1" d="M369.01,220.74l-13.66.02,1.56,1.36c.11.1.22.2.32.31l12.3-.02s.09,0,.13-.01l1.56,3.97s-.07.04-.1.06l-17.31,13.8-1.05,2.97,19.09-15.22,1.12,2.85c-5.47,2.5-9.29,8.03-9.29,14.43,0,8.74,7.11,15.86,15.86,15.86s15.86-7.11,15.86-15.86-7.11-15.86-15.86-15.86c-1.75,0-3.44.29-5.01.82l-3.52-8.97-2.25-1.17.26.66ZM379.55,231.07c7.82,0,14.19,6.36,14.19,14.19s-6.36,14.19-14.19,14.19-14.19-6.36-14.19-14.19c0-5.7,3.38-10.62,8.23-12.87l5.18,13.18c.13.33.44.53.78.53.1,0,.2-.02.31-.06.43-.17.64-.65.47-1.08l-5.18-13.18c1.39-.45,2.87-.7,4.4-.7Z"/>
    <path class="cls-1" d="M375.25,223.44c-.15,0-.3.02-.46.02-.46,0-.83.37-.83.83s.37.83.83.83c1.15,0,2.15-.14,3.03-.37-.07-.03-.14-.06-.2-.09l-2.37-1.23Z"/>
    <path class="cls-1" d="M379.44,217.48s1.58.02,1.81,1.38c.7.52,1.16,1.28,1.32,2.11.26-.62.38-1.22.38-1.75,0-.96-.33-1.69-.8-2.22,1.28-.51,2.29-1.46,2.47-3.03.05-.46-.27-.87-.73-.93-.46-.06-.87.27-.93.73-.23,1.94-2.96,2.04-3.51,2.04,0,0,0,0,0,0,0,0,0,0-.01,0h-3.97l3.23,1.67h.75Z"/>
    <path class="cls-1" d="M348.78,227.13l-5.29,14.97c-.77,2.17.37,4.56,2.54,5.32.46.16.93.24,1.39.24,1.72,0,3.33-1.07,3.93-2.78l6.23-17.64c.57-1.61.1-3.41-1.19-4.53l-11.44-9.99c3.69-1.99,7.86-3.38,11.11-4.52l-1.99-2.65c-1.14-1.52-.83-3.68.68-4.81.6-.45,1.31-.69,2.06-.69,1.09,0,2.1.5,2.75,1.37l2.09,2.78c.49-.97.66-2.03.36-3.04-.85-2.81-4.29-5.57-9.35-4.51-6.95,1.49-10.96,3.32-16.89,7.85-4.08,3.65-2.67,7.09-1.07,9.7.6.99,1.12,1.74,1.74,2.16l12.34,10.77Z"/>
    <path class="cls-1" d="M376.06,190.03c-1.31.43-3.16,1.15-3.85,1.7-1.03.83-1.99,1.56-2.9,2.19-.15.72-.49,3.63,2.99,6.95,1.69-.71,3.13-2.01,3.98-3.79.16-.33.28-.66.39-.99.09-.09.18-.18.25-.29.96-1.35.4-3.85.38-3.95-.04-.17-.2-.3-.37-.3h-.22c-.16-.53-.38-1.04-.65-1.53ZM376.3,195.36c-.22.3-.52.47-.91.52-1.72.19-3.06-1.94-3.5-2.76l1.4-.79h3.33c.13.78.24,2.26-.31,3.04Z"/>
    <path class="cls-1" d="M368.23,194.65c-2.39,1.53-4.35,2.3-5.91,2.32.72,1.59,1.99,2.95,3.69,3.76,1.7.81,3.54.94,5.23.51-2.64-2.7-3.05-5.18-3.01-6.59Z"/>
    <path class="cls-1" d="M358.37,191.74c.82.13,2.1.17,2.34,1.06.28,1.01-.26,2.86.87,3.11,1.75.37,4.79-.72,10-4.95,1.05-.85,3.74-1.74,4.5-1.98.1,0,.2.01.3.02.33.02.67.02,1,0,1.72-.06,3.18-.48,2.83-.72-2.14-1.48-3.79-2.47-5.11-3.16-2.61-1.36-3.93-1.53-5.15-1.8-3.7-.81-8.56,1.69-10.95,5.09-.64.91-1.11,1.89-1.33,2.88-.06.28.26.37.7.44ZM363.86,187.22c3.33-2.02,6.41-1.69,6.41-1.69l.02.08c-2.16.1-4.22,1.07-5.79,2.07l-.64-.47ZM363.86,190.35c.38-.41.77-.77,1.17-1.1l.59.5c-.87.68-1.38,1.2-1.38,1.2l-.38-.61ZM366.46,189.13l-.65-.48c3.58-2.53,7.1-2.14,7.1-2.14l.02.08c-2.49.11-4.84,1.39-6.47,2.53ZM363.17,187.67l.6.51c-1.34.95-2.18,1.8-2.18,1.8l-.38-.61c.64-.68,1.3-1.24,1.96-1.7Z"/>
    <path class="cls-1" d="M358.97,201.87c-.89-1.18-2.56-1.42-3.74-.53-1.18.89-1.42,2.56-.53,3.74l8.07,10.74c.24.32.55.58.91.77l14.3,7.4c.39.2.81.3,1.23.3.97,0,1.9-.53,2.37-1.44.68-1.31.17-2.92-1.14-3.6l-13.76-7.12-7.7-10.25Z"/>
  </g>
  <g>
    <path class="cls-1" d="M128.97,71.19c-.09.16-.2.3-.31.43.79-.2,1.37-.91,1.37-1.76s-.6-1.58-1.41-1.77c.28.3.48.67.6,1.08.19.68.1,1.4-.24,2.02Z"/>
    <path class="cls-1" d="M103.9,96.64h-.18c-.02-.3-.05-.6-.08-.9l.31-.06c.03-.17.07-.33.12-.5l.23-.71-.86.15c-.07-.33-.16-.66-.26-.99l.99-.36-.39-1.06-.99.36c-.13-.32-.27-.63-.43-.93l.91-.52-.29-.49,1.74-1.13.62,1.71.78-2.39-.07-.19.16-.1.76-2.33-1.46.95-2.77-7.63c.38-.09.82-.18,1.28-.25l-4.5-1.81c-.21-.07-.44-.16-.7-.28l-.44-.18c-.33,0-.62.01-.82.02-.26,0-.49.14-.62.37-.19.33-.44.85-.47,1.35-.05.78,3.21,1.77,4.81,1.3l2.9,7.98-2.91,1.88s-.03-.05-.05-.07l.79-.66-.73-.86-.78.66c-.23-.25-.47-.5-.72-.73l.65-.78-.86-.73-.64.76c-.27-.21-.55-.42-.84-.61l.49-.85-.98-.56-.48.84c-.3-.16-.62-.31-.94-.45l.32-.89-1.06-.39-.32.88c-.33-.11-.66-.2-1.01-.29l.16-.9-1.11-.2-.16.89c-.34-.05-.69-.09-1.05-.11v-.88h-1.13v.87c-.36.01-.71.03-1.05.07l-.15-.84-1.11.2.14.82c-.35.07-.69.16-1.03.26l-.28-.77-1.06.39.27.76c-.33.13-.66.28-.97.44l-.4-.68-.98.56.39.67c-.3.19-.6.39-.89.6l-.49-.58-.86.73.48.58c-.27.24-.52.49-.77.75l-.57-.48-.73.86.56.47c-.22.28-.43.58-.63.88l-.62-.36-.56.98.61.35c-.17.32-.33.64-.47.98l-.65-.24-.39,1.06.65.24c-.11.34-.2.69-.28,1.05l-.68-.12-.2,1.11.68.12c-.05.36-.08.72-.1,1.08h-.68v1.13h.68c.02.37.05.73.1,1.08l-.68.12.2,1.11.68-.12c.08.36.17.71.28,1.05l-.65.24.39,1.06.65-.24c.14.33.3.66.47.98l-.61.35.56.98.62-.36c.2.3.41.59.63.88l-.56.47.73.86.57-.48c.25.26.5.51.77.75l-.48.58.86.73.49-.58c.29.21.58.41.89.6l-.39.67.98.56.39-.68c.32.16.64.31.97.44l-.27.75,1.06.39.28-.77c.34.1.68.19,1.03.26l-.14.82,1.11.2.15-.84c.35.04.7.06,1.05.07v.87h1.13v-.88c.35-.02.7-.06,1.05-.11l.16.89,1.11-.2-.16-.9c.34-.08.68-.18,1.01-.29l.32.88,1.06-.39-.32-.89c.32-.14.63-.29.94-.45l.48.84.98-.56-.49-.85c.29-.19.57-.39.84-.61l.64.76.86-.73-.65-.78c.25-.24.49-.48.72-.73l.78.66.73-.86-.79-.66c.21-.27.4-.56.58-.85l.9.52.56-.98-.91-.52c.15-.3.3-.61.43-.93l.99.36.39-1.06-.99-.36c.1-.32.18-.65.26-.99l1.04.18.2-1.11-1.05-.18c.03-.24.05-.47.07-.71h.65c-.26-.47-.42-1-.46-1.55ZM100.62,96.62l-6.79-.05,5.7-3.69c.61,1.13.99,2.4,1.09,3.74ZM91.24,106.73c-5.19,0-9.41-4.22-9.41-9.41s4.22-9.41,9.41-9.41c3.03,0,5.73,1.44,7.45,3.67l-7.87,5.09c-.29.19-.42.54-.32.87s.4.55.74.56l9.38.07c-.43,4.8-4.47,8.57-9.37,8.57Z"/>
    <path class="cls-1" d="M144.54,95.74l1.05-.18-.2-1.11-1.04.18c-.07-.33-.16-.66-.26-.99l.99-.36-.39-1.06-.99.36c-.13-.32-.27-.63-.43-.93l.91-.52-.56-.98-.9.52c-.18-.29-.37-.57-.58-.85l.79-.66-.73-.86-.78.66c-.23-.25-.47-.5-.72-.73l.65-.78-.86-.73-.64.76c-.27-.21-.55-.42-.84-.61l.49-.85-.98-.56-.48.84c-.3-.16-.62-.31-.94-.45l.32-.89-1.06-.39-.32.88c-.33-.11-.66-.2-1.01-.29l.16-.9-1.11-.2-.16.89c-.34-.05-.69-.09-1.05-.11v-.88h-1.13v.87c-.36.01-.71.03-1.05.07l-.15-.84-1.11.2.14.82c-.19.04-.38.08-.56.13l-4.48-13.19.27-.11-1.68-.95c-.27.19-.39.55-.28.87l1.15,3.38-6.88,4.45c-.03.15-.06.29-.11.44l-.61,1.87,8.11-5.25.61,1.79-11.64,12.44-1.13,3.47,13.33-14.25,1.62,4.76-.08.03.27.76c-.33.13-.66.28-.97.44l-.4-.68-.98.56.39.67c-.3.19-.6.39-.89.6l-.49-.58-.86.73.48.58c-.27.24-.52.49-.77.75l-.57-.48-.73.86.56.47c-.22.28-.43.58-.63.88l-.62-.36-.56.98.61.35c-.17.32-.33.64-.47.98l-.65-.24-.39,1.06.65.24c-.11.34-.2.69-.28,1.05l-.68-.12-.2,1.11.68.12c-.05.36-.08.72-.1,1.08h-.68v1.13h.68c.02.37.05.73.1,1.08l-.68.12.2,1.11.68-.12c.08.36.17.71.28,1.05l-.65.24.39,1.06.65-.24c.14.33.3.66.47.98l-.61.35.56.98.62-.36c.2.3.41.59.63.88l-.56.47.73.86.57-.48c.25.26.5.51.77.75l-.48.58.86.73.49-.58c.29.21.58.41.89.6l-.39.67.98.56.39-.68c.32.16.64.31.97.44l-.27.75,1.06.39.28-.77c.34.1.68.19,1.03.26l-.14.82,1.11.2.15-.84c.35.04.7.06,1.05.07v.87h1.13v-.88c.35-.02.7-.06,1.05-.11l.16.89,1.11-.2-.16-.9c.34-.08.68-.18,1.01-.29l.32.88,1.06-.39-.32-.89c.32-.14.63-.29.94-.45l.48.84.98-.56-.49-.85c.29-.19.57-.39.84-.61l.64.76.86-.73-.65-.78c.25-.24.49-.48.72-.73l.78.66.73-.86-.79-.66c.21-.27.4-.56.58-.85l.9.52.56-.98-.91-.52c.15-.3.3-.61.43-.93l.99.36.39-1.06-.99-.36c.1-.32.18-.65.26-.99l1.04.18.2-1.11-1.05-.18c.04-.34.07-.67.09-1.02h1.07v-1.13h-1.07c-.02-.34-.05-.68-.09-1.02ZM132.14,87.91c5.19,0,9.41,4.22,9.41,9.41s-4.22,9.41-9.41,9.41-9.41-4.22-9.41-9.41c0-3.92,2.41-7.29,5.83-8.7l3.04,8.95c.11.32.41.53.73.53.08,0,.17-.01.25-.04.4-.14.62-.58.48-.98l-3.03-8.92c.68-.16,1.38-.24,2.11-.24Z"/>
    <path class="cls-1" d="M104.77,94.96l-.13.41c-.55,1.69.38,3.51,2.07,4.06.33.11.67.16,1,.16,1.36,0,2.62-.87,3.06-2.23l.16-.48-6.16-1.92Z"/>
    <path class="cls-1" d="M104.78,71.04c1.74-2.74,3.99-5.23,5.7-7.21l-3.43-1.93c-.62-.35-1.06-.92-1.25-1.6-.19-.68-.1-1.4.24-2.02.47-.83,1.36-1.35,2.32-1.35.45,0,.9.12,1.3.34l2.86,1.61c-.09-.72-.38-1.38-.9-1.87-.68-.64-1.65-1.11-2.76-1.25-5.6.27-6.45,3.82-7.35,7.58-.82,3.44-1.66,6.99-6.36,7.43-.06,0-.13,0-.19.01-.11.85-.04,1.58.16,2.2,3.56.2,8.32-1.44,9.66-1.93Z"/>
    <path class="cls-1" d="M116.45,79.91c.52-1.61-.29-3.35-1.86-3.99l-9.95-4.01c-1.67.59-5.58,1.84-8.89,1.84-.09,0-.18,0-.27,0,.24.42.54.78.87,1.1.35.56.87,1.02,1.53,1.29l1.21.49c.23.11.45.2.66.27l9.64,3.88-4.37,13.44,6.16,1.92,5.28-16.23Z"/>
    <path class="cls-1" d="M124.67,71.13l.98.55c.32.18.67.27,1.01.27.72,0,1.42-.38,1.8-1.05.56-.99.21-2.25-.78-2.81l-1.17-.66-1.83,3.7Z"/>
    <path class="cls-1" d="M106.55,58.56c-.56.99-.21,2.25.78,2.81l16.65,9.38,1.83-3.7-16.46-9.27c-.99-.56-2.25-.21-2.81.78Z"/>
    <path class="cls-1" d="M114.36,50.57c-1.85,1.18-3.36,1.78-4.57,1.79.56,1.23,1.54,2.28,2.85,2.9,1.31.62,2.73.73,4.04.39-2.04-2.09-2.36-4-2.33-5.09Z"/>
    <path class="cls-1" d="M120.88,48.09c-.12-.38-.28-.74-.47-1.09-1.01.33-2.44.89-2.97,1.31-.79.64-1.54,1.21-2.24,1.7-.12.55-.38,2.8,2.31,5.37,1.3-.55,2.42-1.55,3.07-2.93.12-.26.22-.52.31-.79.1-.08.18-.18.26-.29.69-1.04.09-2.99.07-3.08-.04-.12-.15-.21-.28-.21h-.05ZM120.65,51.05c-.14.22-.36.34-.66.38-1.33.15-2.36-1.5-2.71-2.13l1.08-.61h2.34c.15.6.33,1.77-.06,2.37Z"/>
    <path class="cls-1" d="M121.48,45.9c.02-.08-.1-.23-.31-.41-.32-.28-.83-.63-1.39-.93-.93-1.34-2.35-2.36-4.08-2.73-3.63-.8-7.22,1.5-8.01,5.13-.38,1.75-.92,9.05,9.27.77.88-.71,3.25-1.46,3.59-1.57.38,0,.68-.03.83-.12.06-.03.1-.08.11-.12ZM116.95,45.38c-.45-.33-.64-.84-.42-1.13s.76-.27,1.21.06c.45.33.64.84.42,1.13s-.76.27-1.21-.06Z"/>
    <path class="cls-1" d="M95.09,70.16c9.2-.86,2.14-14.81,14.17-15.02,0,0-8.54-3.76-14.73.97-6.19,4.73-8.64,14.91.56,14.05Z"/>
  </g>
  <g>
    <path class="cls-1" d="M277.37,223.25c2.7,0,4.96-1.9,5.52-4.43h24.76c.56,2.53,2.82,4.43,5.52,4.43,3.13,0,5.66-2.53,5.66-5.66s-2.43-5.55-5.47-5.66l-1.87-9.97h1c.35,0,.63-.28.63-.63v-.16c0-.35-.28-.63-.63-.63h-1.27l-1.9-10.15h2.2c.54,0,.98-.44.98-.98v-.25c0-.54-.44-.98-.98-.98h-1.93c-.21.5-.59.92-1.1,1.2-.35.19-.75.29-1.15.29-.91,0-1.75-.5-2.18-1.31l-.09-.18h-.81c-.54,0-.98.44-.98.98v.25c0,.54.44.98.98.98h2.56l1.9,10.15h-.87c-.35,0-.63.28-.63.63v.16c0,.35.28.63.63.63h1.13l1.04,5.57-7.64,8.75s-.03.05-.05.07h-19.46c-.56-2.53-2.82-4.43-5.52-4.43-3.13,0-5.66,2.53-5.66,5.66,0,3.13,2.53,5.66,5.66,5.66ZM311.7,216.36h-1.99c.29-.83.88-1.52,1.63-1.96l.37,1.96ZM316.87,217.59c0,2.04-1.66,3.69-3.69,3.69-1.6,0-2.97-1.03-3.48-2.46h3.48c.36,0,.71-.16.95-.44.23-.28.33-.65.26-1.01l-.64-3.42c1.77.28,3.12,1.8,3.12,3.64ZM310.62,210.62l.33,1.77c-1.65.71-2.9,2.18-3.3,3.97h-2.04l5.01-5.74ZM277.37,213.9c1.6,0,2.97,1.03,3.48,2.46h-3.6c-.68,0-1.23.55-1.23,1.23s.55,1.23,1.23,1.23h3.6c-.51,1.43-1.87,2.46-3.48,2.46-2.04,0-3.69-1.66-3.69-3.69s1.66-3.69,3.69-3.69Z"/>
    <circle class="cls-1" cx="303.26" cy="161.5" r="5.54" transform="translate(38.89 380.96) rotate(-67.73)"/>
    <path class="cls-1" d="M298.06,169.68c.35-.19.75-.29,1.15-.29.91,0,1.75.5,2.18,1.31l1.47,2.76c.66-2.16.11-4.64-1.66-5.39-1.99-.85-5.18-.21-6.98,3.15-2.44,4.64-3.31,7.77-3.55,13.27.08,2.37,1.01,3.63,2.22,4.34l-2.9,23.14c-.21,1.69.98,3.22,2.67,3.43.13.02.26.02.39.02,1.53,0,2.85-1.14,3.05-2.69l3.36-26.87c.02-.18.03-.36.02-.53.3-1.45.77-3.37,1.29-5.3l-3.73-7.03c-.64-1.2-.18-2.69,1.02-3.33Z"/>
    <path class="cls-1" d="M307.36,189.17c.31,0,.63-.07.92-.23.96-.51,1.33-1.7.82-2.66l-8.14-15.35c-.51-.96-1.7-1.33-2.66-.82-.96.51-1.33,1.7-.82,2.66l8.14,15.35c.35.67,1.04,1.05,1.74,1.05Z"/>
  </g>
  <g>
    <path class="cls-1" d="M431.13,160.23c0-8.22-6.69-14.91-14.91-14.91-1.31,0-2.59.17-3.8.49l-3.96-11.72,2.56-.97c.49-.19.76-.71.62-1.22l-3.79-13.68c-.1-.35-.37-.62-.72-.71l-3.37-.89c-.05-.01-.11-.02-.16-.02.37.67.5,1.43.39,2.18l2.06.54,3.39,12.23-2.61.99c-.51.19-.77.75-.6,1.27l1.02,3.02-9.94,2.32-.59,2.22,11.18-2.61.76,2.24-15.26,12.77-.91,3.4,16.87-14.11,1.15,3.41c-5.39,2.25-9.19,7.57-9.19,13.76,0,8.22,6.69,14.91,14.91,14.91s14.91-6.69,14.91-14.91ZM416.23,172.1c-6.54,0-11.87-5.32-11.87-11.87,0-4.86,2.94-9.04,7.13-10.88l3.78,11.2c.14.42.54.69.96.69.11,0,.22-.02.32-.05.53-.18.81-.75.64-1.28l-3.78-11.2c.91-.22,1.85-.34,2.82-.34,6.54,0,11.87,5.32,11.87,11.87s-5.32,11.87-11.87,11.87Z"/>
    <path class="cls-1" d="M382.07,159.34h-1.16c-.22-3.62-1.73-6.89-4.07-9.36l3.84-4.18,2.6,7.14.91-3.41-1.76-4.83,3.25-.76.59-2.22-4.55,1.06-1.33-3.65-5.15-1.12s-.05-.01-.08-.02c-.49-.07-1.24-.19-2.08-.48-.1.04-.2.07-.28.1-.3.1-.51.39-.55.76-.07.55-.12,1.39.07,2.13.31,1.18,4.85,1.36,6.39-.05l1.16,3.2-4.55,4.95c-2.55-2.05-5.79-3.28-9.32-3.28-8.22,0-14.91,6.69-14.91,14.91s6.69,14.91,14.91,14.91,14.28-6.09,14.86-13.78l2.05.02c-.1-.14-.2-.29-.29-.44-.29-.5-.48-1.04-.58-1.59ZM377.86,159.31l-9.54-.07,6.46-7.02c1.74,1.9,2.87,4.37,3.08,7.09ZM366.03,172.1c-6.54,0-11.87-5.32-11.87-11.87s5.32-11.87,11.87-11.87c2.73,0,5.25.93,7.26,2.49l-8,8.7c-.27.29-.34.72-.18,1.09.16.37.52.61.92.61l11.82.09c-.56,6.03-5.64,10.77-11.82,10.77Z"/>
    <path class="cls-1" d="M396.88,137.82c.3-1.11.13-2.3-.47-3.29-.6-.98-1.58-1.68-2.7-1.93l-12.65-2.76c.23-2.22.73-4.47,1.31-6.63l-4.95-6.7c-.55-.75-.78-1.66-.64-2.58s.62-1.73,1.37-2.28c.6-.45,1.32-.68,2.06-.68,1.1,0,2.14.53,2.8,1.41l1.94,2.62c.93-3.08.06-6.67-2.5-7.63-2.78-1.04-7.11.03-9.36,4.74-3.06,6.5-4.06,10.84-4.05,18.39.39,5.04,3.46,6.3,6.33,6.72.03,0,.05.02.08.02l12.15,2.65-4.68,17.44c-.6,2.25.73,4.56,2.98,5.17.37.1.73.15,1.09.15,1.86,0,3.57-1.24,4.07-3.13l5.82-21.71Z"/>
    <path class="cls-1" d="M382.38,112.85c-.89-1.2-2.58-1.45-3.78-.57-1.2.89-1.45,2.58-.57,3.78l7.65,10.35c.53.71,1.34,1.1,2.17,1.1.5,0,1.01-.14,1.46-.43l9.83-6.34.85.18c1.45.32,2.89-.61,3.21-2.06.32-1.46-.61-2.89-2.06-3.21l-1.94-.42c-.7-.15-1.43-.02-2.04.37l-8.64,5.57-6.14-8.31Z"/>
    <path class="cls-1" d="M387.37,100.25c-2.42,1.55-4.4,2.32-5.97,2.34.73,1.61,2.01,2.98,3.73,3.8,1.71.82,3.58.95,5.28.51-2.67-2.73-3.08-5.24-3.04-6.66Z"/>
    <path class="cls-1" d="M391.39,97.3c-1.04.84-2.01,1.58-2.93,2.22-.15.73-.49,3.67,3.02,7.03,1.7-.71,3.16-2.03,4.02-3.83,1.13-2.36.96-5.01-.23-7.14-1.32.43-3.2,1.16-3.89,1.72Z"/>
    <path class="cls-1" d="M396.68,94.14c.02-.1-.14-.3-.41-.54-.41-.36-1.09-.82-1.82-1.22-1.22-1.76-3.08-3.08-5.34-3.58-4.75-1.04-9.44,1.96-10.48,6.71-.5,2.29-1.2,11.84,12.13,1.01,1.15-.93,4.25-1.91,4.7-2.05.5,0,.88-.05,1.08-.16.08-.04.13-.1.14-.16ZM390.75,93.46c-.59-.43-.84-1.1-.55-1.48.28-.39.99-.35,1.58.08s.84,1.1.55,1.48-.99.35-1.58-.08Z"/>
  </g>
  <g>
    <path class="cls-1" d="M303.85,42.37c-1.58,0-3.08.32-4.45.88l-6.57-19.24c-.12-.36-.49-.57-.85-.5l-1.06.2c.33.41.53.9.58,1.42l.12-.02,3.35,9.8c-2.97,3.62-6.57,7.09-9.76,9.91l-.83,2.72c3.43-2.93,7.66-6.82,11.16-10.96l1.02,2.99-12.8,9.96-.77,2.51,14.08-10.96.97,2.83c-3.5,2.02-5.86,5.79-5.86,10.11,0,6.44,5.24,11.67,11.67,11.67s11.67-5.24,11.67-11.67-5.24-11.67-11.67-11.67ZM303.85,63.7c-5.33,0-9.66-4.33-9.66-9.66,0-3.44,1.8-6.46,4.51-8.17l.92,2.69c.96,2.99,3.56,5.87,3.67,5.99.15.16.35.25.56.25.18,0,.36-.06.51-.2.31-.28.33-.76.05-1.06-.02-.03-2.5-2.76-3.36-5.45l-1-2.93c1.17-.5,2.45-.78,3.8-.78,5.33,0,9.66,4.33,9.66,9.66s-4.33,9.66-9.66,9.66Z"/>
    <polygon class="cls-1" points="273.76 37.33 271.77 36.25 276.06 48.12 276.8 45.73 273.76 37.33"/>
    <path class="cls-1" d="M266.8,33.08c-.15-.18-.28-.38-.41-.59-.12.08-.22.21-.29.37-.19.43-.43,1.1-.46,1.76-.05,1.1,3.64,2.51,5.01,1.52.12-.09.28-.17.45-.25l-2.95-1.59c-.54-.29-1.01-.72-1.36-1.22Z"/>
    <path class="cls-1" d="M300.76,32.79c-1.48,0-2.68,1.2-2.68,2.68s1.2,2.68,2.68,2.68,1.48-5.35,0-5.35Z"/>
    <path class="cls-1" d="M274.56,53.02l.67-2.19-4.63.21c-.63-2.37-1.99-4.44-3.82-5.96l1.82-2.55c.43-.6.5-1.36.2-2.03s-.92-1.12-1.65-1.19l-13.32-1.36c-.73-.07-1.43.24-1.86.83s-.51,1.35-.21,2.03l1.46,3.28c-3.34,2.06-5.57,5.74-5.57,9.95,0,6.44,5.24,11.67,11.67,11.67,5.59,0,10.27-3.95,11.41-9.21l4.61.21c-.19-.22-.36-.46-.5-.72-.49-.92-.59-1.97-.28-2.96ZM259.47,51.54l.72-7.12c1.85.17,3.56.86,4.96,1.93l-3.65,5.1-2.04.09ZM258.89,51.57c-.55.07-1.03.33-1.38.72l-2.96-6.65c1.41-.8,3.04-1.27,4.77-1.27.1,0,.2,0,.3,0l-.73,7.18ZM257.94,53.77c0-.67.54-1.21,1.21-1.21s1.21.54,1.21,1.21-.54,1.21-1.21,1.21-1.21-.54-1.21-1.21ZM268.53,51.13l-6.29.28,3.37-4.7c1.35,1.16,2.38,2.68,2.93,4.42ZM268.28,40.74c.22.48.16,1.03-.14,1.45l-1.81,2.52c-1.68-1.27-3.72-2.09-5.93-2.29l.32-3.19,6.37.65c.53.05.97.37,1.19.85ZM252.29,40.58c-.21-.48-.16-1.03.15-1.45.28-.39.71-.61,1.18-.61.05,0,.1,0,.15,0l6.37.65-.33,3.21c-.17,0-.33-.01-.5-.01-2.03,0-3.93.52-5.59,1.43l-1.43-3.22ZM259.32,63.7c-5.33,0-9.66-4.33-9.66-9.66,0-3.38,1.75-6.37,4.39-8.09l3.08,6.92c-.12.27-.19.58-.19.9,0,1.22.99,2.22,2.22,2.22l9.53.43c-1.06,4.18-4.86,7.29-9.37,7.29Z"/>
    <circle class="cls-1" cx="278.38" cy="5.65" r="5.65"/>
    <path class="cls-1" d="M286.23,38.94c.44-1.43-.19-2.97-1.51-3.68l-9.54-5.15c-.28-.05-.55-.13-.8-.27-.6-.32-1.06-.88-1.26-1.54l-3.11-10.44c-.41-1.37.37-2.81,1.74-3.22.24-.07.49-.11.74-.11,1.13,0,2.15.76,2.48,1.85l1.09,3.65c.17-.84.33-1.63.47-2.36.72-2.5-.22-5.49-2.36-6.02-2.14-.53-5.25.63-6.51,4.3-1.71,5.06-2.07,8.36-1.43,13.93.24,1.21.65,2.09,1.18,2.74.27.41.65.76,1.11,1.01l10.96,5.92-4.2,13.69c-.51,1.66.42,3.41,2.08,3.92.31.09.62.14.92.14,1.34,0,2.58-.87,3-2.22l4.96-16.15Z"/>
    <path class="cls-1" d="M274.42,16.54c-.32-1.06-1.43-1.67-2.5-1.35-1.06.32-1.67,1.43-1.35,2.5l3.11,10.44c.15.51.5.94.98,1.2.29.16.62.24.95.24.2,0,.4-.03.59-.09l10.73-3.28.58.58c.78.78,2.06.78,2.84,0,.78-.78.78-2.06,0-2.84l-1.44-1.44c-.52-.53-1.3-.72-2.01-.5l-9.95,3.04-2.53-8.51Z"/>
  </g>
  <g>
    <path class="cls-1" d="M454.62,126.42c-.23-3.7-2.06-6.96-4.8-9.11l3.16-4.61s.06-.05.09-.07l1.03-.32,3.21,8.9.79-2.42-2.5-6.94,5.29-1.65.31-.96-1.08-.44-5.05,1.57-.76-2.11c.86-.22,2.01-.4,3.11-.55l-5.44-2.19c-1.3.01-2.41.03-2.98.04-.27,0-.52.15-.65.39-.2.35-.47.89-.5,1.43-.05.81,3.27,1.83,4.99,1.4l.74,2.05-1.26.39s-.02,0-.03.01h-20.45c-.3,0-.58.17-.72.43-.14.27-.13.59.04.84l3.22,4.79c-2.94,2.3-4.83,5.87-4.83,9.89,0,6.93,5.62,12.55,12.55,12.55s12.12-5.2,12.53-11.77h2.5c-.39-.45-.67-.99-.83-1.56h-1.67ZM433.36,112.88h17.6l-2.43,3.54c-1.88-1.13-4.08-1.78-6.44-1.78s-4.51.64-6.38,1.74l-2.36-3.51ZM442.07,125.84l-5.14-7.65c1.52-.87,3.28-1.38,5.16-1.38s3.67.51,5.2,1.4l-5.22,7.62ZM442.09,137.58c-5.72,0-10.38-4.66-10.38-10.38,0-3.26,1.51-6.17,3.87-8.08l5.72,8.51c.16.24.42.36.68.36.05,0,.1,0,.15-.02h10.3c-.4,5.36-4.89,9.6-10.35,9.6ZM443.57,126.42l5.01-7.31c2.18,1.75,3.63,4.36,3.86,7.31h-8.87Z"/>
    <path class="cls-1" d="M476,99.26c-.36.17-.53.58-.41.96l1.15,3.4-6.71,2.09c.16.51.22,1.04.17,1.59l7.04-2.19.73,2.18-11.7,12.42-1.13,3.48,13.4-14.22,2.23,6.62c-4.58,1.87-7.81,6.37-7.81,11.62,0,6.93,5.62,12.55,12.55,12.55s12.55-5.62,12.55-12.55-5.62-12.55-12.55-12.55c-1.13,0-2.22.15-3.26.43l-.81-2.4h1.34l.03.09c.15.45.62.72,1.09.6l8.84-2.27c.46-.12.75-.58.66-1.05l-1.98-10.45.29-.07c.27-.07.43-.34.36-.61-.07-.27-.34-.43-.61-.36l-12.47,3.2c-.27.07-.43.34-.36.61s.34.43.61.36l.29-.07.44,1.36h-1.44l-1.22-3.63,1.41-.67-1.67-.94-1.04.49ZM484.78,127.45c.11.33.41.53.74.53.08,0,.17-.01.25-.04.41-.14.63-.58.49-.99h0s-3.31-9.81-3.31-9.81c.82-.21,1.68-.32,2.56-.32,5.72,0,10.38,4.66,10.38,10.38s-4.66,10.38-10.38,10.38-10.38-4.66-10.38-10.38c0-4.29,2.62-7.98,6.34-9.56l3.3,9.81ZM484.49,111.14c-.21.05-.42-.07-.47-.28l-1.79-6.98c-.05-.21.07-.42.28-.47.21-.05.42.07.47.28l1.79,6.98c.05.21-.07.42-.28.47ZM486.71,110.57c-.21.05-.42-.07-.47-.28l-1.79-6.98c-.05-.21.07-.42.28-.47.21-.05.42.07.47.28l1.79,6.98c.05.21-.07.42-.28.47ZM488.93,110.01c-.21.05-.42-.07-.47-.28l-1.79-6.98c-.05-.21.07-.42.28-.47.21-.05.42.07.47.28l1.79,6.98c.05.21-.07.42-.28.47ZM491.15,109.44c-.21.05-.42-.07-.47-.28l-1.79-6.98c-.05-.21.07-.42.28-.47s.42.07.47.28l1.79,6.98c.05.21-.07.42-.28.47ZM480.32,105.1l2.11,6.48h-1.35l-2.18-6.48h1.43Z"/>
    <path class="cls-1" d="M449.78,103.97l1.28.51c.25.12.48.21.7.28l10.2,4.11-5.02,15.44c-.58,1.79.4,3.72,2.19,4.3.35.11.71.17,1.06.17,1.44,0,2.77-.92,3.24-2.36l6-18.47c.55-1.71-.31-3.55-1.97-4.22l-10.86-4.37c1.89-3.21,4.55-6.14,6.52-8.43l-3.63-2.05c-.65-.37-1.13-.97-1.33-1.69-.2-.72-.11-1.48.26-2.14.5-.88,1.44-1.43,2.45-1.43.48,0,.96.13,1.38.36l3.03,1.7c-.1-.76-.4-1.46-.95-1.98-1.74-1.65-5.31-2.21-8.47.6-4.32,3.88-6.43,6.81-8.8,12.43-.95,2.86-.17,4.64,1.11,5.87.37.59.92,1.08,1.62,1.36Z"/>
    <path class="cls-1" d="M461.94,84.53c-1.05-.59-2.38-.22-2.97.83-.59,1.05-.22,2.38.83,2.97l19.38,10.92c.34.19.71.28,1.07.28.76,0,1.5-.4,1.9-1.11.59-1.05.22-2.38-.83-2.97l-19.38-10.92Z"/>
    <path class="cls-1" d="M466.69,82.74c1.39.66,2.89.77,4.27.42-2.16-2.21-2.49-4.24-2.46-5.38-1.95,1.25-3.56,1.88-4.83,1.9.59,1.3,1.63,2.41,3.02,3.07Z"/>
    <path class="cls-1" d="M471.83,82.86c1.38-.58,2.56-1.64,3.25-3.1.91-1.91.77-4.05-.18-5.77-1.07.35-2.59.94-3.14,1.39-.84.68-1.63,1.28-2.37,1.79-.12.59-.4,2.97,2.45,5.68Z"/>
    <path class="cls-1" d="M469.9,68.51c-3.84-.84-7.64,1.59-8.48,5.43-.41,1.85-.97,9.58,9.81.81.93-.75,3.44-1.55,3.8-1.66.41,0,.72-.04.87-.13.06-.04.1-.08.11-.13.02-.08-.11-.24-.33-.44-.33-.29-.88-.66-1.47-.99-.99-1.42-2.49-2.49-4.32-2.89ZM471.24,72.28c-.48-.35-.68-.89-.45-1.2s.8-.29,1.28.06c.48.35.68.89.45,1.2s-.8.29-1.28-.06Z"/>
    <rect class="cls-1" x="431.28" y="100.87" width="12.85" height="1.98"/>
    <path class="cls-1" d="M446.53,104.5h.22c.28,0,.51-.23.51-.51s-.23-.51-.51-.51h-18.11c-.28,0-.51.23-.51.51s.23.51.51.51h.22l1.83,6.03h14.01l1.83-6.03ZM433.12,109.17c-.21,0-.39-.17-.39-.39v-3.21c0-.21.17-.39.39-.39s.39.17.39.39v3.21c0,.21-.17.39-.39.39ZM435.41,109.17c-.21,0-.39-.17-.39-.39v-3.21c0-.21.17-.39.39-.39s.39.17.39.39v3.21c0,.21-.17.39-.39.39ZM437.7,109.17h0c-.21,0-.39-.17-.39-.39v-3.21c0-.21.17-.39.39-.39h0c.21,0,.39.17.39.39v3.21c0,.21-.17.39-.39.39ZM439.99,109.17c-.21,0-.39-.17-.39-.39v-3.21c0-.21.17-.39.39-.39s.39.17.39.39v3.21c0,.21-.17.39-.39.39ZM442.28,109.17c-.21,0-.39-.17-.39-.39v-3.21c0-.21.17-.39.39-.39s.39.17.39.39v3.21c0,.21-.17.39-.39.39Z"/>
  </g>
  <g>
    <path class="cls-1" d="M498.07,43.51c0-5.69-4.63-10.31-10.31-10.31-1.14,0-2.24.19-3.26.53l-3.08-7.83-1.3-.33.79,2h-5.72s1,1.09,1,1.09h5.05s.06-.01.09-.02l1.01,2.58s-.06.04-.09.07l-10.55,9.49-1.29,2.33c-.25.45-.62.81-1.06,1.05h0s0,0,0,0c0,0,0,0,0,0,.03,0,.07,0,.1,0,.07-.01.13-.04.19-.07.01,0,.02-.02.03-.03.01-.01.03-.02.04-.03l13.04-11.73.72,1.84c-3.56,1.63-6.04,5.22-6.04,9.38,0,5.69,4.63,10.31,10.31,10.31s10.31-4.63,10.31-10.31ZM478.53,43.51c0-3.7,2.2-6.9,5.35-8.37l3.37,8.57c.08.21.29.34.51.34.07,0,.13-.01.2-.04.28-.11.42-.42.31-.7l-3.37-8.57c.9-.3,1.86-.46,2.86-.46,5.09,0,9.23,4.14,9.23,9.23s-4.14,9.23-9.23,9.23-9.23-4.14-9.23-9.23Z"/>
    <path class="cls-1" d="M465.71,43.05h-.54c-.15-3.47-2.03-6.5-4.79-8.25l2.98-5.32,3.48,9.07.69-1.24-3.31-8.62h3.49s-1.35-1.09-1.35-1.09h-2.56s-.87-2.25-.87-2.25c.13-.02.26-.05.37-.09-1.16-.32-2.44-1.29-3.29-2.5-.18.03-.34.13-.44.3-.16.28-.37.71-.4,1.14-.03.46,1.32,1.01,2.6,1.16l1.08,2.82-3.42,6.1c-1.38-.68-2.92-1.07-4.56-1.07-5.69,0-10.31,4.63-10.31,10.31s4.63,10.31,10.31,10.31,9.97-4.29,10.29-9.69h1.6c-.47-.25-.82-.64-1.05-1.08ZM464.09,43.03l-8.29-.06,4.05-7.23c2.43,1.56,4.08,4.23,4.24,7.29ZM454.87,52.73c-5.09,0-9.23-4.14-9.23-9.23s4.14-9.23,9.23-9.23c1.44,0,2.81.33,4.03.93l-4.5,8.03c-.09.17-.09.37,0,.54.1.17.27.27.47.27l9.21.07c-.32,4.8-4.32,8.61-9.2,8.61Z"/>
    <path class="cls-1" d="M487.71,25.45c.14,0,1.18.08,1.18,1.13s-1.15,2.76-4.22,2.76c-.3,0-.54.24-.54.54s.24.54.54.54c3.87,0,5.31-2.36,5.31-3.85,0-.63-.21-1.1-.52-1.44.83-.33,1.49-.95,1.61-1.97.04-.3-.18-.57-.47-.6-.3-.04-.57.18-.6.47-.15,1.26-1.93,1.33-2.28,1.33,0,0,0,0,0,0,0,0,0,0,0,0h-.08c.13.34.17.71.09,1.09Z"/>
    <path class="cls-1" d="M487.82,6.77l-.15-.04c-.02-.41-.09-.82-.21-1.21-.98.08-2.2.24-2.71.49-.76.36-1.47.67-2.14.92l.08.05c-.05.08-1.14,1.97.76,4.95,1.17-.18,2.29-.78,3.1-1.77.15-.18.27-.37.39-.56.07-.04.14-.09.21-.15.81-.7.85-2.37.85-2.44,0-.12-.08-.22-.19-.25ZM486.83,9.07c-.18.16-.4.22-.66.18-1.12-.15-1.63-1.7-1.78-2.29l1-.28,2.1.52c-.04.52-.2,1.47-.67,1.87Z"/>
    <path class="cls-1" d="M476.18,29.44s-.02-.03-.03-.04c-.03-.04-.06-.09-.09-.13-.01-.02-.03-.03-.04-.05-.03-.04-.06-.08-.09-.11,0,0-.01-.01-.02-.02l-6.96-7.52c1.32-.82,2.97-1.67,5.04-2.4.21.35.45.59.7.75l-.99-4.53c-.11-.5-.02-1.01.26-1.44s.7-.73,1.2-.83c.13-.03.27-.04.41-.04.89,0,1.67.63,1.86,1.5l.45,2.07c.09-.78.27-1.76,1.62-2.95-.26-2.15-2.17-3.78-5.05-2.81-2.83.95-3.18,4.3-10.38,5.62-8.17,1.5-3.37,7.83-.36,8.33l7.82,6.28-5.35,9.66c-.58,1.05-.2,2.37.85,2.95.33.18.69.27,1.05.27.76,0,1.5-.4,1.9-1.12l6.22-11.22s0,0,0,0v-.02s.04-.05.05-.07c.02-.03.04-.07.05-.1.02-.04.04-.09.05-.13,0-.02.02-.04.02-.06.02-.06.04-.12.05-.19,0-.02,0-.03,0-.05.01-.05.02-.1.03-.15,0-.02,0-.04,0-.06,0-.05,0-.09.01-.14,0-.02,0-.05,0-.07,0-.04,0-.08,0-.13,0-.03,0-.05,0-.08,0-.04,0-.08-.01-.11,0-.03,0-.06-.01-.09,0-.03-.01-.07-.02-.1,0-.03-.01-.06-.02-.09,0-.03-.02-.07-.03-.1,0-.03-.02-.06-.03-.09-.01-.03-.03-.07-.04-.1-.01-.03-.02-.05-.03-.08-.03-.06-.06-.12-.09-.17Z"/>
    <path class="cls-1" d="M476.94,14.68c-.17-.76-.92-1.24-1.68-1.08-.76.17-1.24.92-1.08,1.68l1.72,7.89c.11.52.51.93,1.03,1.07l8.56,2.2c.12.03.24.04.35.04.63,0,1.2-.42,1.37-1.06.19-.75-.26-1.52-1.02-1.72l-7.71-1.98-1.54-7.04Z"/>
    <path class="cls-1" d="M467.15,9.35c-.67-.73-.29,2.3,3.02,2.23s6.17-5.83,8.23-1.95h0c.29.45.65.88,1.09,1.24.95.77,2.09,1.14,3.22,1.13-1.34-2.27-1.1-3.98-.83-4.8-1.29.45-2.37.68-3.23.68-.56,0-1.04-.1-1.43-.28-.61-.3-.65-.88-.56-1.4-1.33-.5-3.05-.4-5.07,1.72-2.51,2.63-3.79,2.18-4.46,1.45Z"/>
    <path class="cls-1" d="M477.46,7.14c1.05.51,3.14.29,7.08-1.58.79-.38,2.63-.52,3.15-.55.06.02.12.04.19.06,1.3.39,2.75.39,2.53.15-3.34-3.76-4.61-4.18-5.71-4.72-2.81-1.38-7.61.32-8.99,3.13-.23.47,1.67.49,1.69,1.42.02.68-.61,1.77.07,2.1ZM484.55,1.93v.06c-1.38-.27-2.83.02-3.97.41l-.33-.4c2.42-.76,4.31-.07,4.31-.07ZM479.75,3.98c.31-.2.61-.37.91-.51l.29.41c-.65.29-1.06.54-1.06.54l-.14-.44ZM481.59,3.61l-.34-.4c2.65-1.04,4.82-.25,4.82-.25v.06c-1.59-.31-3.27.13-4.48.6ZM479.73,2.18l.3.42c-1,.39-1.66.8-1.66.8l-.14-.44c.51-.33,1.01-.58,1.5-.77Z"/>
  </g>
  <g>
    <path class="cls-1" d="M405.81,16.9c-1.15,6.75,0,11.18,1.64,18.28.08.33.2.62.36.89.3,1.35.6,3.3.6,5.64,0,4.38-1.02,10.04-5.12,15.98-1.1,1.59-.7,3.76.89,4.86.61.42,1.3.62,1.98.62,1.11,0,2.2-.53,2.88-1.51,5.01-7.24,6.36-14.47,6.35-19.94,0-1.55-.11-2.97-.26-4.22.03,0,.06.01.09.02.11.06.22.12.34.17h0s0,0,.02,0h0s0,0,0,0c.24.11,2.4,1.14,4.4,3.27,1.06,1.12,2.08,2.53,2.85,4.28.76,1.75,1.28,3.86,1.28,6.48,0,1.96-.3,4.22-1.04,6.83-.53,1.85.54,3.79,2.39,4.32.32.09.65.14.96.14,1.52,0,2.92-1,3.35-2.53.91-3.17,1.32-6.09,1.32-8.76,0-3.68-.78-6.88-1.98-9.53-1.8-3.98-4.47-6.68-6.67-8.4-1.13-.88-2.15-1.51-2.9-1.92-1.2-5.02-.1-8,2-11.47,2.94,1.04,8.57,3.42,15.28,8.25.4.28.85.42,1.3.42.69,0,1.38-.32,1.82-.93.72-1,.49-2.4-.51-3.12-9.42-6.78-16.93-9.08-18.68-9.55-.1-.04-.19-.08-.29-.1-3.42-.79-6.84-1.58-10.26-2.37-.09-.02-.19-.03-.29-.03-.82-.22-2.35-.53-4.45-.53-3.94,0-9.88,1.13-16.67,5.89-1.01.71-1.26,2.1-.55,3.11.43.62,1.13.95,1.83.95.44,0,.89-.13,1.28-.4,6.08-4.25,11-5.08,14.11-5.09.12,0,.23,0,.34,0Z"/>
    <path class="cls-1" d="M439,68.26c.77,0,1.4-.63,1.4-1.4s-.63-1.4-1.4-1.4h-36.6c-2.14,0-4.26-.88-5.83-1.81-.79-.46-1.43-.93-1.87-1.27-.22-.17-.39-.31-.5-.41-.06-.05-.1-.08-.12-.11-.03-.02-.03-.03-.03-.03-.56-.53-1.45-.5-1.97.07-.53.56-.5,1.45.07,1.97.05.05,1.19,1.11,3.02,2.18,1.83,1.07,4.36,2.19,7.25,2.2,5.03,0,36.6,0,36.6,0Z"/>
    <path class="cls-1" d="M401.1,68.91c-2.01,0-3.63,1.63-3.63,3.63s1.63,3.63,3.63,3.63,3.63-1.63,3.63-3.63-1.63-3.63-3.63-3.63ZM401.1,74.27c-.95,0-1.72-.77-1.72-1.72s.77-1.72,1.72-1.72,1.72.77,1.72,1.72-.77,1.72-1.72,1.72Z"/>
    <path class="cls-1" d="M429.5,72.54c0,2.01,1.63,3.63,3.63,3.63s3.63-1.63,3.63-3.63-1.63-3.63-3.63-3.63-3.63,1.63-3.63,3.63ZM434.86,72.54c0,.95-.77,1.72-1.72,1.72s-1.72-.77-1.72-1.72.77-1.72,1.72-1.72,1.72.77,1.72,1.72Z"/>
    <circle class="cls-1" cx="420.56" cy="6.29" r="6.29"/>
  </g>
</svg>