<?xml version="1.0" encoding="UTF-8"?><svg id="Layer_1" xmlns="http://www.w3.org/2000/svg" viewBox="0 0 480 480"><defs><style>.cls-1{fill:#000;stroke-width:0px;}</style></defs><path class="cls-1" d="M194.45,157.03c-1.98-7.01-6.33-12.88-12.04-17.01l-85.94.68c-5.24,4.08-9.26,9.71-11.37,16.35.16.02,15.86,6.78,54.68,6.78s54.48-6.77,54.67-6.8Z"/><path class="cls-1" d="M383.53,140.71l-85.94-.68c-5.72,4.12-10.06,10-12.05,17.01.2.03,15.9,6.8,54.67,6.8s54.51-6.75,54.68-6.78c-2.11-6.64-6.13-12.27-11.37-16.35Z"/><path class="cls-1" d="M63.46,186.53c-.15,4.37,2.43,8.45,6.54,9.95.27.1.55.19.83.27l10.49,3c1.73.5,3.59-.14,4.67-1.58l1.67-2.25c1.45-1.95,1.01-4.71-.98-6.12l-.18-.11-16.13-7.42c-3.17-1.46-6.8.78-6.92,4.27Z"/><path class="cls-1" d="M421.34,0H58.66C26.26,0,0,26.26,0,58.66v362.69c0,32.39,26.26,58.66,58.66,58.66h362.69c32.39,0,58.66-26.26,58.66-58.66V58.66c0-32.39-26.26-58.66-58.66-58.66ZM255.92,83.04c12.88,0,23.32,10.44,23.32,23.32s-10.44,23.32-23.32,23.32-23.32-10.44-23.32-23.32,10.44-23.32,23.32-23.32ZM47,152.48c0-3.39,2.78-6.16,6.17-6.16h12.27c2.13,0,3.99,1.33,4.5,3.4l.28,1.02c.38,1.52,1.74,2.88,3.31,2.88h2.63l1.62-3.18c7.75-14.49,22.84-23.75,39.27-23.75h45.53c16.43,0,31.55,9.26,39.3,23.75l.7,1.37-16.83,15.33c-2.96,2.7-5.18,6.14-6.43,9.95l-7.72,23.73c-2.97-.31-5.99-.45-9.04-.45h-45.27c-6.77,0-13.47.69-19.63,2.52l-1.04.06c-4.11,1.22-3.66,5.19.69,5.99l3.55.82c2.93.54,5.97,1.15,9.01,1.15h58.45l-1.76,5.41c-1.44,4.44-1.51,9.11-.25,13.5h-73.36v5.05c0,4.94-3.17,8.64-8.11,8.64h-14.11c-4.94,0-9.02-3.7-9.02-8.64v-18.88c-3.71-4.88-5.87-10.86-5.87-17.16v-9.4c0-4.64,1.72-8.99,4.5-12.68l9.15-10.88,1.36-2.68h-16.74c-3.91,0-7.1-3.2-7.1-7.1v-3.62ZM89.75,277.92l-41.95,38.77v-18.19l24.73-20.58h17.21ZM47.8,380.54v-32.65l64.3-69.97h17.21l-81.52,102.62ZM76.47,396.96c25.07-39.68,50.14-79.36,75.21-119.04h17.21c-20.15,39.68-40.3,79.36-60.46,119.04h-31.97ZM181.92,396.96h-31.97c4.54-13.1,9.09-26.2,13.63-39.3.35.33.7.65,1.07.96,4.59,3.9,10.44,6.04,16.46,6.04,2.87,0,5.67-.48,8.31-1.39-2.5,11.23-5.01,22.46-7.51,33.69ZM223.44,396.96c1.52-24.56,3.04-49.11,4.57-73.67l11.9-14.03c2.02-2.39,3.57-5.07,4.6-8l5.77,12.76c1.71,27.65,3.43,55.3,5.14,82.94h-31.97ZM276.93,344.92l-34.77-76.93-8.34,28.68c-.55,1.88-1.48,3.61-2.74,5.1l-39.36,46.42c-2.75,3.24-6.66,4.9-10.6,4.9-3.17,0-6.37-1.08-8.98-3.3-5.85-4.96-6.57-13.72-1.61-19.57l37.45-44.16,14.05-48.29v-56.72l-10.64,9.69-11.81,36.32c-1.59,4.89-6.12,8-11,8-1.19,0-2.39-.18-3.58-.57-6.08-1.98-9.4-8.51-7.43-14.58l12.76-39.23c.62-1.91,1.73-3.62,3.21-4.97l32.78-29.87c3.46-4.21,8.72-6.9,14.6-6.9s11.53,2.9,14.98,7.39c.8.92,1.48,1.98,1.98,3.17v.03c.35.68.64,1.38.89,2.1l15.79,37.96,30.74,17.18c5.58,3.12,7.57,10.17,4.45,15.75-2.12,3.79-6.06,5.93-10.11,5.93-1.91,0-3.85-.47-5.64-1.47l-34.18-19.11v31.76l42.43,93.87c3.16,6.99.05,15.22-6.93,18.37-1.86.84-3.8,1.24-5.71,1.24-5.29,0-10.34-3.04-12.66-8.17ZM296.92,396.96c-2.4-10.76-4.8-21.53-7.2-32.29,3.59-.02,7.07-.78,10.35-2.26,5.58-2.52,9.97-6.87,12.54-12.36,5.42,15.64,10.85,31.27,16.27,46.91h-31.97ZM370.41,396.96c-20.15-39.68-40.3-79.36-60.46-119.04h17.21c25.07,39.68,50.14,79.36,75.21,119.04h-31.97ZM433,383.21l-83.48-105.29h17.21l66.26,72.28v33.01ZM433,318.66l-43.91-40.74h17.21l26.7,22.22v18.53ZM433,156.1c0,3.91-3.2,7.1-7.1,7.1h-16.74l1.36,2.68,9.15,10.88c2.77,3.7,4.5,8.05,4.5,12.68v9.4c0,6.3-2.16,12.28-5.87,17.16v18.88c0,4.94-4.08,8.64-9.02,8.64h-14.11c-4.94,0-8.11-3.7-8.11-8.64v-5.05h-68.25c.37-.54.72-1.1,1.05-1.68,2.96-5.29,3.72-11.4,2.16-17.24h48.11c3.05,0,6.08-.61,9.01-1.15l3.55-.82c4.34-.8,4.8-4.78.69-5.99l-1.04-.06c-6.16-1.83-12.86-2.52-19.63-2.52h-45.27c-.5,0-1.01.01-1.51.02-1.47-1.44-3.13-2.7-4.97-3.73l-27.24-15.23-9.13-23.77,3.55-7.23c7.75-14.49,22.87-23.75,39.3-23.75h45.53c16.43,0,31.53,9.26,39.27,23.75l1.62,3.18h2.63c1.57,0,2.93-1.36,3.31-2.88l.28-1.02c.51-2.07,2.37-3.4,4.5-3.4h12.27c3.39,0,6.16,2.77,6.16,6.16v3.62Z"/><path class="cls-1" d="M393.32,189.8c-1.99,1.4-2.42,4.17-.98,6.12l1.67,2.25c1.07,1.45,2.93,2.08,4.67,1.58l10.49-3c.28-.08.56-.17.83-.27,4.11-1.5,6.69-5.58,6.54-9.95-.12-3.48-3.75-5.72-6.92-4.27l-16.13,7.42-.18.11Z"/></svg>