<?xml version="1.0" encoding="UTF-8"?>
<svg id="Layer_1" data-name="Layer 1" xmlns="http://www.w3.org/2000/svg" viewBox="0 0 200 200">
  <defs>
    <style>
      .cls-1, .cls-2 {
        stroke-width: 0px;
      }

      .cls-2 {
        fill: gray;
      }
    </style>
  </defs>
  <path class="cls-1" d="m94.38,111.87c2.18-3.44,4.36-6.89,6.57-10.31.37-.58.39-.99.02-1.59-19.41-30.96-38.8-61.93-58.19-92.9-.31-.5-.62-.99-.94-1.5.37-.23.69-.14.99-.14,32.34,0,64.68,0,97.02-.02.76,0,1.17.24,1.56.87,19.43,31.24,38.88,62.47,58.33,93.7.37.59.36.99-.02,1.58-19.47,30.74-38.92,61.49-58.35,92.25-.36.58-.75.77-1.42.77-32.37-.02-64.74-.02-97.11-.02h-.88c-.06-.42.24-.65.41-.92,8.89-13.99,17.79-27.98,26.68-41.97.27-.42.53-.85.79-1.28.38-.01.75-.03,1.13-.03,7.78,0,15.56-.01,23.34.01.73,0,.95-.18.95-.93-.03-5.96-.02-11.92-.01-17.88,0-.32-.1-.67.11-1.01.35.16.49.48.68.75,4.65,6.19,9.3,12.38,13.94,18.58.27.36.5.63,1.04.63,4.92-.03,9.85-.02,14.77-.02.11,0,.22-.02.35-.03-.02-.41-.3-.6-.48-.84-2.48-3.27-4.95-6.55-7.47-9.8-.42-.54-.48-.82.1-1.32,6.09-5.22,5.99-13.71,2.83-18.84-3.06-4.97-7.57-7.57-13.38-7.74-4.45-.13-8.91-.05-13.36-.07Zm50.37.09c-6.33,0-12.67.01-19-.01-.67,0-.92.13-.91.87.04,3.39.04,6.77,0,10.16,0,.66.16.84.83.83,4.01-.03,8.03,0,12.04-.03.82,0,1.09.16,1.09,1.05-.04,8.22-.01,16.43-.04,24.65,0,.73.18.94.92.93,3.32-.04,6.65-.05,9.97,0,.89.02,1.07-.26,1.07-1.1-.03-8.18,0-16.37-.04-24.55,0-.78.2-.99.98-.99,4.01.04,8.03,0,12.04.03.69,0,.9-.15.89-.87-.04-3.35-.04-6.71,0-10.07,0-.75-.21-.93-.94-.93-6.3.03-12.61.02-18.91.02Z"/>
  <path class="cls-2" d="m94.38,111.87c4.45.02,8.91-.06,13.36.07,5.81.17,10.32,2.77,13.38,7.74,3.16,5.12,3.26,13.62-2.83,18.84-.58.5-.52.78-.1,1.32,2.51,3.25,4.99,6.53,7.47,9.8.18.24.46.42.48.84-.13.01-.24.03-.35.03-4.92,0-9.85,0-14.77.02-.54,0-.77-.27-1.04-.63-4.64-6.2-9.29-12.39-13.94-18.58-.2-.26-.33-.59-.68-.75-.21.33-.11.68-.11,1.01,0,5.96-.02,11.92.01,17.88,0,.75-.22.94-.95.93-7.78-.03-15.56-.02-23.34-.01-.38,0-.75.02-1.13.03-5.2,0-10.41,0-15.59,0-.16-.37.1-.53.22-.72,2.08-3.28,4.17-6.55,6.23-9.84.31-.49.64-.66,1.21-.64,1.19.05,2.38.01,3.76.01-1.38-2.17-2.69-4.24-4.07-6.4-.25.37-.44.63-.61.91-3.37,5.31-6.74,10.63-10.12,15.94-.21.33-.33.72-.88.72-4.2-.02-8.4-.01-12.82-.01,8.17-12.86,16.25-25.58,24.33-38.3.41.21.53.59.72.9,5.02,7.86,10.04,15.73,15.06,23.6.22.34.47.66.7.99,1.7,2.71,3.39,5.42,5.09,8.13.05-.03.1-.05.15-.08v-16.12c.01-5.53.04-11.07,0-16.6,0-.85.23-1.01,1.03-1,3.38.04,6.75,0,10.13-.02Zm7.6,17.95c1.97,0,3.95.01,5.92,0,1.78-.02,3.08-1.28,3.09-2.97.01-1.67-1.28-3.03-3.04-3.05-4.04-.04-8.08,0-12.12-.03-.51,0-.63.18-.62.65.02,1.53.04,3.07,0,4.6-.02.69.23.83.86.81,1.97-.04,3.94-.01,5.92-.01Z"/>
  <path class="cls-2" d="m13.28,150.44c-4.14,0-8.28-.01-12.42.01-.63,0-.86-.14-.86-.82.02-12.33.02-24.65,0-36.98,0-.63.2-.77.79-.77,7.9.02,15.81-.03,23.71.04,8.94.09,16.7,6.42,18.71,15.14,2.24,9.74-3.86,19.84-13.55,22.5-2.11.58-4.24.83-6.41.83-3.32,0-6.65,0-9.97,0,0,.01,0,.03,0,.04Zm-1.35-19.05c0,2.29,0,4.57,0,6.86,0,.47.03.75.63.74,3.88-.03,7.77.07,11.65-.05,4.11-.12,7.32-3.28,7.47-7.13.15-4.11-2.98-7.7-7.1-7.85-4-.15-8.02-.05-12.03-.09-.61,0-.63.28-.63.74.01,2.26,0,4.51,0,6.77Z"/>
  <path class="cls-1" d="m83.21,129.49c0,5.37,0,10.75,0,16.12-.05.03-.1.05-.15.08-1.7-2.71-3.39-5.42-5.09-8.13,1.55-2.41,3.1-4.82,4.65-7.23.18-.29.39-.56.58-.84Z"/>
  <path class="cls-2" d="m144.74,111.96c6.3,0,12.61.01,18.91-.02.73,0,.95.17.94.93-.04,3.35-.04,6.71,0,10.07,0,.72-.2.87-.89.87-4.01-.03-8.03,0-12.04-.03-.78,0-.99.2-.98.99.03,8.18,0,16.37.04,24.55,0,.84-.18,1.11-1.07,1.1-3.32-.06-6.65-.05-9.97,0-.75,0-.93-.2-.92-.93.03-8.22,0-16.43.04-24.65,0-.89-.26-1.06-1.09-1.05-4.01.04-8.03,0-12.04.03-.66,0-.83-.18-.83-.83.03-3.39.04-6.77,0-10.16,0-.74.23-.87.91-.87,6.33.02,12.67.01,19,.01Z"/>
  <path class="cls-1" d="m101.98,129.82c-1.97,0-3.95-.02-5.92.01-.63.01-.88-.12-.86-.81.05-1.53.03-3.07,0-4.6,0-.47.11-.66.62-.65,4.04.02,8.08-.01,12.12.03,1.75.02,3.05,1.38,3.04,3.05-.01,1.69-1.31,2.96-3.09,2.97-1.97.02-3.95,0-5.92,0Z"/>
</svg>