<?xml version="1.0" encoding="UTF-8"?><svg id="Layer_1" xmlns="http://www.w3.org/2000/svg" viewBox="0 0 480 480"><defs><style>.cls-1{fill:#fbcf06;}.cls-1,.cls-2,.cls-3{stroke-width:0px;}.cls-2{fill:#173a78;}.cls-3{fill:#fff;}</style></defs><rect class="cls-1" x="0" y="0" width="480" height="480" rx="58.66" ry="58.66"/><path class="cls-3" d="M230.86,258.81c3.5-5.52,6.98-11.07,10.54-16.56.73-1.13.82-1.89.06-3.1-31.67-50.49-63.3-101-94.93-151.52-.48-.76-.95-1.53-1.56-2.52.78,0,1.27,0,1.76,0,52.77,0,105.54,0,158.31-.03,1.24,0,1.9.4,2.54,1.43,31.63,50.87,63.29,101.73,94.98,152.56.76,1.22.74,2.03-.02,3.22-31.7,50.05-63.36,100.12-95.01,150.21-.59.93-1.19,1.29-2.31,1.28-52.87-.03-105.74-.03-158.61-.03h-1.38c.05-.76.52-1.2.83-1.69,14.7-23.12,29.41-46.24,44.11-69.35.19-.3.37-.62.55-.92.61-.05,1.21-.15,1.82-.15,12.69,0,25.38-.02,38.07.02,1.25,0,1.64-.3,1.64-1.6-.06-9.72-.03-19.44-.03-29.16,0-.53.05-1.05.09-1.9.55.67.87,1.05,1.17,1.44,7.58,10.1,15.17,20.2,22.73,30.32.57.77,1.12,1.12,2.12,1.12,7.73-.05,15.45-.02,23.18-.04.38,0,.8.16,1.23-.23-.29-.41-.57-.81-.87-1.21-4.05-5.33-8.08-10.68-12.19-15.98-.71-.91-.71-1.37.2-2.15,9.94-8.55,9.74-22.39,4.6-30.74-5-8.11-12.35-12.35-21.83-12.63-7.26-.21-14.53-.09-21.79-.11ZM312.98,258.95c-10.29,0-20.57.02-30.86-.02-1.14,0-1.59.19-1.57,1.48.08,5.47.07,10.95,0,16.42-.01,1.14.27,1.46,1.43,1.44,6.55-.06,13.1,0,19.65-.06,1.29-.01,1.71.23,1.7,1.64-.06,13.46-.02,26.92-.06,40.37,0,1.13.25,1.47,1.42,1.46,5.47-.07,10.95-.08,16.42,0,1.37.02,1.69-.36,1.68-1.7-.05-13.36-.01-26.71-.06-40.07,0-1.29.23-1.74,1.65-1.72,6.5.09,13,.01,19.5.06,1.14,0,1.57-.21,1.55-1.48-.08-5.42-.07-10.85,0-16.27.02-1.27-.32-1.61-1.6-1.61-10.28.05-20.57.03-30.86.03Z"/><path class="cls-2" d="M230.86,258.81c7.26.02,14.53-.1,21.79.11,9.48.28,16.84,4.52,21.83,12.63,5.14,8.35,5.34,22.18-4.6,30.74-.91.78-.91,1.23-.2,2.15,4.1,5.3,8.13,10.65,12.19,15.98.3.39.58.8.87,1.21-.43.38-.85.23-1.23.23-7.73.01-15.45-.01-23.18.04-1,0-1.55-.35-2.12-1.12-7.56-10.12-15.15-20.22-22.73-30.32-.3-.4-.62-.77-1.17-1.44-.04.84-.09,1.37-.09,1.9,0,9.72-.03,19.44.03,29.16,0,1.3-.39,1.6-1.64,1.6-12.69-.04-25.38-.03-38.07-.02-.61,0-1.21.1-1.82.15-.64-.27-1.31-.19-1.97-.19-7.37,0-14.73,0-22.1-.01-.43,0-1,.24-1.25-.25-.2-.4.25-.74.46-1.07,3.34-5.27,6.71-10.52,10.03-15.81.51-.81,1.09-1.08,2-1.04,1.53.06,3.07.03,4.6,0,.38,0,.9.21,1.11-.23.2-.41-.24-.74-.45-1.07-1.64-2.6-3.32-5.16-4.92-7.78-.69-1.12-1.09-1.2-1.83-.02-3.93,6.29-7.92,12.54-11.89,18.8-1.56,2.46-3.15,4.91-4.67,7.39-.48.79-1.05,1.1-1.98,1.1-6.19-.04-12.38-.02-18.57-.02-.45,0-1.05.2-1.3-.21-.32-.52.26-.93.52-1.33,10.11-15.94,20.23-31.87,30.35-47.8,2.47-3.89,4.93-7.77,7.4-11.66,1.05-1.66,1.06-1.67,2.1-.05,8.28,12.98,16.56,25.96,24.84,38.94.27.43.6.82.9,1.23,2.76,4.41,5.52,8.83,8.28,13.24.09-.04.18-.09.26-.13,0-8.75,0-17.51,0-26.26.02-8.88.04-17.76.06-26.65q0-2.05,2.09-2.05c5.36-.02,10.72-.04,16.08-.06ZM243.35,288.1c3.07,0,6.13,0,9.2,0,3.25-.01,5.45-2.02,5.43-4.95-.02-2.82-2.25-4.9-5.36-4.91-6.39-.02-12.78.02-19.16-.03-1.06,0-1.27.37-1.25,1.31.06,2.4.09,4.81-.01,7.2-.05,1.23.42,1.42,1.49,1.39,3.22-.06,6.44-.02,9.66-.02Z"/><path class="cls-2" d="M76.9,290.31c0-9.83.03-19.65-.03-29.48,0-1.47.27-2.03,1.92-2.02,12.18.08,24.36.07,36.54.03,8.55-.02,16.11,2.66,22.46,8.39,5.87,5.31,9.28,11.95,10.16,19.9,1.82,16.56-10.32,32.19-28.33,34.33-1.22.14-2.45.13-3.68.13-12.38.06-24.77.09-37.15.21-1.64.02-1.93-.54-1.92-2.02.06-9.83.03-19.65.03-29.48ZM96.31,290.74c0,3.53.07,7.06-.04,10.58-.05,1.48.49,1.8,1.84,1.77,3.07-.09,6.14.01,9.2-.04,3.47-.06,6.96.28,10.41-.2,6.54-.92,11.11-6.35,10.81-12.76-.3-6.28-5.61-11.45-12.11-11.57-6.24-.11-12.47-.02-18.71-.07-1.21-.01-1.44.5-1.42,1.56.05,3.58.02,7.16.02,10.74Z"/><path class="cls-2" d="M345.01,370.3c6.86,0,12.3,5.39,12.32,12.21.02,6.9-5.47,12.41-12.34,12.4-6.97-.02-12.33-5.35-12.4-12.34-.07-6.81,5.46-12.27,12.42-12.27ZM334.88,382.51c-.01,5.81,4.38,10.28,10.1,10.29,5.56,0,10.13-4.55,10.18-10.13.04-5.59-4.59-10.3-10.18-10.34-5.52-.04-10.08,4.57-10.09,10.18Z"/><path class="cls-1" d="M212.64,287.56c0,8.75,0,17.51,0,26.26-.09.04-.18.09-.26.13-2.76-4.41-5.52-8.83-8.28-13.24,2.53-3.93,5.06-7.86,7.59-11.79.3-.47.64-.91.96-1.37Z"/><path class="cls-2" d="M312.98,258.95c10.29,0,20.57.02,30.86-.03,1.28,0,1.62.34,1.6,1.61-.07,5.42-.07,10.85,0,16.27.02,1.27-.4,1.49-1.55,1.48-6.5-.05-13,.03-19.5-.06-1.42-.02-1.66.43-1.65,1.72.05,13.36,0,26.71.06,40.07,0,1.34-.31,1.72-1.68,1.7-5.47-.09-10.95-.07-16.42,0-1.17.01-1.43-.33-1.42-1.46.04-13.46,0-26.92.06-40.37,0-1.41-.41-1.65-1.7-1.64-6.55.07-13.1,0-19.65.06-1.16.01-1.44-.31-1.43-1.44.06-5.47.07-10.95,0-16.42-.02-1.29.44-1.49,1.57-1.48,10.29.04,20.57.02,30.86.02Z"/><path class="cls-1" d="M243.35,288.1c-3.22,0-6.44-.04-9.66.02-1.07.02-1.55-.17-1.49-1.39.1-2.4.07-4.8.01-7.2-.02-.95.18-1.32,1.25-1.31,6.39.05,12.78,0,19.16.03,3.11.01,5.33,2.09,5.36,4.91.02,2.92-2.17,4.94-5.43,4.95-3.07.01-6.13,0-9.2,0Z"/><path class="cls-2" d="M347.97,383.18c2.57,1.03,2.62,3.13,2.62,5.29,0,.79-.38,1.05-1.02.92-.79-.17-1.94.63-2.31-.74-.12-.43-.06-.91-.1-1.37-.21-1.96-.73-2.45-2.66-2.67-.89-.1-1.39.1-1.32,1.1.04.61-.06,1.23.02,1.84.2,1.45-.33,1.92-1.83,1.92-1.51,0-1.89-.46-1.85-1.92.1-3.42.07-6.84.01-10.26-.02-1.14.35-1.54,1.49-1.49,1.94.09,3.88-.03,5.82.11,2.74.19,4.05,1.84,3.81,4.48-.14,1.58-1.31,2.16-2.68,2.8ZM343.16,379.95c.17.91-.5,2.21,1.32,2.14,1.72-.07,2.73-.73,2.71-2.03-.01-1.23-1.17-1.96-2.98-1.96-1.56,0-.83,1.18-1.05,1.85Z"/></svg>