<?xml version="1.0" encoding="UTF-8"?><svg id="Layer_1" xmlns="http://www.w3.org/2000/svg" xmlns:xlink="http://www.w3.org/1999/xlink" viewBox="0 0 480 480"><defs><style>.cls-1{fill:#065573;}.cls-1,.cls-2,.cls-3,.cls-4,.cls-5,.cls-6,.cls-7,.cls-8,.cls-9,.cls-10,.cls-11,.cls-12,.cls-13,.cls-14,.cls-15,.cls-16,.cls-17,.cls-18,.cls-19,.cls-20,.cls-21,.cls-22,.cls-23,.cls-24,.cls-25,.cls-26,.cls-27,.cls-28,.cls-29,.cls-30,.cls-31,.cls-32,.cls-33,.cls-34,.cls-35,.cls-36,.cls-37,.cls-38,.cls-39,.cls-40,.cls-41,.cls-42{stroke-width:0px;}.cls-2{fill:#054f71;}.cls-3{fill:#989dc4;}.cls-4{fill:#055672;}.cls-5{fill:#04346b;}.cls-6{fill:#042a6a;}.cls-7{fill:#072769;}.cls-8{fill:#aab0ce;}.cls-9{fill:#043f73;}.cls-10{fill:#9b9fc5;}.cls-11{fill:#14587a;}.cls-12{fill:#18259a;}.cls-13{fill:#054e72;}.cls-14{fill:#9098c0;}.cls-15{fill:#032a6c;}.cls-16{fill:none;}.cls-17{fill:#ed0f15;}.cls-43{clip-path:url(#clippath-1);}.cls-18{fill:#054576;}.cls-19{fill:#055272;}.cls-20{fill:#858eb9;}.cls-21{fill:#01085b;}.cls-22{fill:#055770;}.cls-23{fill:#04276d;}.cls-24{fill:#5f96b3;}.cls-25{fill:#000e5e;}.cls-26{fill:#056272;}.cls-44{clip-path:url(#clippath);}.cls-27{fill:#d7d9e7;}.cls-28{fill:#00075b;}.cls-29{fill:#043d6f;}.cls-30{fill:#032d6a;}.cls-31{fill:#066472;}.cls-32{fill:#053e73;}.cls-33{fill:#a8aecd;}.cls-34{fill:#fff;}.cls-35{fill:#000b5b;}.cls-36{fill:#076a76;}.cls-37{fill:#031562;}.cls-38{fill:#043e6c;}.cls-39{fill:#053c6e;}.cls-40{fill:#031c64;}.cls-41{fill:#c0c5dc;}.cls-42{fill:#04376b;}</style><clipPath id="clippath"><rect class="cls-16" x="-500" y="0" width="480" height="480" rx="58.66" ry="58.66"/></clipPath><clipPath id="clippath-1"><rect class="cls-16" x="0" y="0" width="480" height="480" rx="58.66" ry="58.66"/></clipPath></defs><g class="cls-44"><path class="cls-35" d="M-686.6,465v-24.53c1.02-.44,1.64.4,2.41.75,1.19.53,2.44.87,3.46-.17.89-.91.88-2.13.39-3.25-.65-1.48-1.96-1.29-3.21-1.08-1.09.18-2.25.94-3.06-.52v-23.99c1.13-1.05,2.34-.56,3.48-.1,1.09.43,1.42,1.22.87,2.35-1.37,2.8-1.59,5.55.17,8.36,1.23,1.96.59,4.02-1.74,6.61,1.45.57,2.67-1.14,4.08-.29,1.21.74,2.39,1.54,3.73,2.04,1.72.63,3.5.55,5.27.35,2.84-.32,6.13-2.93,5.86-4.55-.62-3.74-3.83-6.1-7.52-5.48-1.5.25-2.86.87-4.16,1.7-2.07,1.32-3.78.87-5.23-1.2-1.31-1.86-1.08-3.17.88-4.79,1.16-.97,2.45-1.76,3.69-2.62,1.54-1.07,2.15-2.42.7-3.98-.78-.83-.6-1.49.18-1.95,1.32-.77,1.61-1.93,1.8-3.32.33-2.5,1.16-2.92,3.67-2.07.84.29,1.67.61,2.55.74.53.08,1.45.12,1.46-.26.11-2.56,3.32-3.83,2.58-6.78-.68-2.69-.35-2.89,2.4-2.56.42.05.9.36,1.23-.08.36-.48.14-1.01-.11-1.5-.51-.99-1.44-1.53-2.23-2.24-2.75-2.47-4.79-5.41-5.75-9.04.7-1.6,1.83-1.53,3.13-.83,1.91,1.51,3.08,3.6,4.54,5.5,2.37,3.09,3.66,6.58,4.87,10.16.5.8.49,2.51,2.18,1.16.24-.2.78,0,.99.24,1.83,2.13,4.79,2.16,7.04,3.84,1.18-2.13-.96-5.77,2.89-6.64,1.03-.18,2.12-.18,2.93-.99,1.27-1.09.6-3.43,2.72-3.99-1.25-.14-2.35-.43-3.41-.81-1.27-.45-1.73-1.45-1.55-2.73.18-1.33,1.09-2.24,2.33-2.05,2.26.36,4.5-1.16,6.85.33,1.41.9,2.64-.74,2.78-3.55-1.52-2.15-4.17-2.11-6.38-3.31.25.79.78,1.35.94,2.05.23,3.69-.3,4.17-3.96,4.32-1.53.06-3.16-.05-4.57.85-.66.42-1.4.94-2.13.19-.77-.8-.37-1.61.16-2.37.2-.29.4-.57.57-.88.39-.77,1.13-1.48,1.07-2.34-.2-2.67,1.48-3.87,3.51-4.87,1.05-1.88,3.73-.91,4.77-2.64.05-.32-.02-.47-.22-.55-4.6-1.88-5.14-3.25-3.09-7.76.33-.72.68-1.43,1.08-2.11,1.18-2,2.9-3.69,2.27-6.47-.34-1.51.99-2.79,2.32-3.61.85-.53,1.64-1.03,1.91-2.06.22-.34.51-.59.88-.76,2.23-.52,3.55,1.29,5.22,2.13,1.13.57,2.14,1.21,3.47.92,1.63-.35,3.16-.05,4.61.77.62.36,1.32.52,2.04.48,1.07-.06,1.88-.53,2.21-1.59.33-1.06-.31-1.7-1.1-2.18-1.44-.87-2.86-1.77-4.15-2.87-2.94-2.53-6.84-3.79-9.21-7.06-5.47-1.8-9.59-5.49-13.5-9.52-.83-.86-2.29-1.05-3.07-2.05-1.86-2.41-3.98-3.28-6.71-1.44-1.22-1.7-.58-3.17.94-4.05,2.21-1.28,3.4-3.27,4.44-5.18-4.44-.23-7.16,2.57-9.41,5.98,2.55,2,2.95,4.52,1.01,7.03-1.29.16-1.6-.88-2.06-1.71-.5-.9-1.09-1.71-2.27-1.4-2.55.65-4.77,1.89-6.39,4.02-.78,1.03-.75,2.12-.05,3.21.57.9,1.22,1.74,1.82,2.62.45.66.98,1.41.34,2.17-.69.82-1.61.58-2.43.14-.86-.46-1.73-.89-2.57-1.39-1.17-.7-2.17-.66-3.03.46-1.28,1.66-3.08,2.62-4.87,3.58-1.37,1.44-2.74,2.85-4.86,3.13-.7-.02-1.36-.14-1.61-.93,1.02-2.54,2.21-4.78,5.49-4.95,1.73-.09,2.77-1.49,3.47-2.98,1.99-4.21,5.53-7.11,9.01-9.84,2.47-1.95,4.54-3.85,5.44-6.87.99-.72,1.56.57,2.42.5-.77-2.08-.9-2.13-2.63-.97-1.97-.39-3.51,1.85-5.57.92-.13-.88.38-1.95-1.01-2.4-2.29-.73-2.66-2.55-2.52-4.69.18-2.76.13-2.76-2.47-2.07-.68.18-1.43.57-1.99-.07-.61-.7-.41-1.61.11-2.22,1.57-1.84,1.26-3.33-.38-4.99-.99-1-1.33-2.49-1.35-3.95-.02-1.14.36-2.18,1.52-2.56,1.31-.43,2.08.52,2.41,1.53.99,2.98,2.7,5.56,4.24,8.25.35.62.57,1.43,1.24,1.67,2.56.89,4.19,3.25,6.73,4.15,1,.35,2.1.84,2.65,1.71,1.55,2.44,3.43,1.98,5.47.88,2.18-.78,3.65-2.48,5.19-4.07.6-.57,1.18-1.16,1.73-1.78.43-.42.85-.88,1.55-.69.19.1.36.26.59.31.04-.31-.27-.45-.33-.72-.14-2.09,1.73-2.88,2.73-4.23.98-1.18,1.92-2.39,3.06-3.43.42-.33.79-.72,1.23-1.02,1.96-1.37,2.78-.96,3.22,1.55-1.57,2.67-3.75,4.91-5.33,7.58-1.32,4.26-4.38,7.39-7.01,10.81-1.78,2.32-1.78,3.07.58,4.77,4.16,3.01,8.02,6.43,12.45,9.06,2.21,1.31,2.71.97,2.81-1.63.05-1.5-.05-3.02.03-4.52.12-2.29-.58-4.06-2.48-5.52-2.12-1.62-1.85-2.68.61-3.69,4.83-1.98,6.75-6,7.17-10.81.16-1.88,1.19-3.8.18-5.72-1.31-3.73-.26-6.79,2.72-9.24,3.23-2.66,4.89-6.47,7.25-9.77.32-.45.44-1.04-.03-1.45-.47-.41-1.02-.12-1.49.12-1.56.79-2.64,2.08-3.44,3.59-1.39,2.63-3.64,4.55-5.5,6.8-.61.73-1.52,1.5-2.53.75-.87-.64-.48-1.63-.09-2.44.59-1.23.82-2.52.83-3.86.01-1.28.41-2.4,1.16-3.46,1.33-1.91.96-3.15-1.18-4.07-1.05-.45-2.25-.55-3.14-1.37-2.26-.97-4.62-1.75-6.29-3.74-.55-.65-1.45-.53-2.25-.59-3.17-.24-4.5-3.08-2.76-5.85.61-.96,1.71-1.55,2.14-2.96-2.11.09-3.98.58-5.71,1.55-.54.3-1.03.68-1.64.86-.89.26-1.79.35-2.43-.49-.72-.95-.32-1.85.3-2.67.68-.89,1.65-1.4,2.72-1.5,1.57-.14,2.97-.76,4.1-1.71,4.18-3.5,8.38-6.98,12.41-10.64.81-1.4,2.49-2.4,1.92-4.42-.09-.31-.18-.09.04-.23,2.42-1.51,1.82-3.99,2.03-6.21.7-1.11,1.62-1.93,2.89-2.32,2.08-.43,4.65.73,6.18-.62,1.55-1.36.56-3.98.95-6.02.46-2.4,1.21-4.66,2.63-6.59,3.46-4.68,5.31-9.67,4.03-15.58-.31-1.42-.33-3.01.68-4.33.93-.7,1.96-.62,3.01-.39,2.02.98,2.14,2.84,2.18,4.75.08,3.58.23,3.72,3.68,3.72.82,0,1.53.35,2.28.6,3.57,1.16,7.61.34,9.87-2.92,1.62-2.35,3.06-4.76,4.04-7.44.1-.27.23-.51.4-.74.76-.75,1.35-1.64,2-2.48,1.09-1.4,1.68-2.85.91-4.67-.68-1.59-.07-2.63,1.71-2.69,3.19-.11,6.38-.1,9.57,0,1.54.05,2.32.98,2.08,2.46-.75,4.64-1.76,9.22-7.02,10.91-2.15.69-2.63,2.64-3.36,4.19-1.12,2.36-1.11,5.2-.15,7.5,1.14,2.76,4.22,3.07,6.85,3.07,3.02,0,5.79.41,8.25,2.25,1.95,1.47,2.08,3.71,2.08,5.78,0,2.7,1.06,4.74,2.81,6.65,2.65,2.91,2.82,4.78.54,8.04-1.24,1.77-.52,3.07.54,4.28,3.07,3.51,4.89,7.78,7.28,11.7.83,2.21-.59,3.23-2.29,4.27,4.04-1.92,7.07-.39,10.22,2.13,6.45,5.15,7.8,5.07,15.38,1.6,5.26-2.4,10.73-2.12,16-.16,2.3.86,4.47,1.5,6.93,1.29,2.79-.24,3,.1,3.41,3.02,1.04,7.41.28,14.85.49,22.28.02.63-.08,1.24-.5,1.75-.21.21-.47.28-.77.22-1.1-.95-.88-2.26-.89-3.48-.04-4.89.01-9.77-.03-14.66-.04-4.09-.7-4.88-4.68-5.82-.87-.2-1.8-.3-2.55-.75-3.72-2.25-7.88-1.48-11.88-1.78-2.47-.19-4.47.9-6.21,2.57-1.95,1.87-4.75,2.77-5.95,5.51-.37.83-1.51.77-2.42.75-.85-.01-1.73-.45-2.63.21,1.4,1.41,3.09,1.26,4.75,1.02,2.44-.36,3.75.57,5.44,2.57,1.74,2.07,3.76,4.38,6.17,5.77,1.66.96,2.14,1.73,1.83,3.46-.51,2.91-.08,3.32,2.92,2.57,2.29-.57,4.14-.23,5.83,1.5,1.9,1.95,4.3,1.84,6.72,1.25,1.2-.29,2.38-.84,3.57.01.73,1.51-.45,1.82-1.43,2.21-3.43,1.4-7.02.47-10.54.7-.83.05-1.46-.63-1.83-1.38-.94-1.86-2.03-1.29-3.13-.21-2.8,2.76-6.64,4.38-8.48,8.26-.9,1.9-2.91,1.16-4.53.52-1.83-.73-2.62-2.19-2.38-4.03.76-5.91-.89-11.31-3.23-16.59-.36-.82-.74-1.68-1.48-2.18-3.33-2.26-5.58-5.64-8.76-8.12-5.99-4.67-12.43-7.77-20.11-8.1-2.03-.09-3.93-1.05-5.95-1.33-1.67-.23-3.36-.59-4.82.66-3.63,2.57-4.84,2.36-6.79-1.21-.33-.6-.58-1.1-1.37-.83-.92.32-1.29,1.03-.91,1.87,1.06,2.38,1.41,5.1,3.5,7,1.1,1,2.07,2.17,2.54,3.65.43,1.4,1.32,2.49,2.31,3.53.68.7,1.53,1.36,1.69,2.35.58,3.74,3.45,5.23,6.49,5.81,6.23,1.2,7.64,6.15,2.52,10.45-1.81,1.52-2.5,3.63-2.32,5.99.18,2.41-.49,4.47-2.03,6.4-2.4,3.01-3.29,6.64-3.49,10.44-.05.92.07,1.84.64,2.53,2.54,3.1,5.07,6.25,9.67,6.19,2.32-.03,3.99.97,5.15,3.11.96,1.77,2.78,2.49,5.16,2.82-.92-1.4-2.16-1.4-3.13-1.83-2.71-1.22-2.96-2.23-.84-4.21,1-.93,1.76-1.93,2.3-3.19.74-1.71,3.33-2.95,5.1-2.68,1.09.17,1.45.9,1.6,1.84.21,1.25-.09,2.47-.28,3.86,1.59-1.28,3.56-1.33,5.17-2.29.73-.43,1.56-.39,2.21.27.69.7.58,1.49.01,2.16-1.24,1.46-.58,2.16.93,2.62.78.24,1.42.71,2.02,1.26.33.3.78.77,1.14.52,3.02-2.1,7.4-.13,10.03-3.41.51-.64,1.44-.78,2.24-.55,4.36,1.23,8.43-.42,12.54-1.32,2.2-.48,4.39-.66,6.59-.76,1.35-.06,2.73.18,2.96,1.97-.9,2.46-3.01,3.55-5.18,4.57-2.09.83-4.23,1.3-6.49.75-1.64-.4-3.03.13-4.55.8-6.42,2.79-12.9,5.44-20.08,5.55-5.14.08-9.98,1.38-14.54,3.76-.39.21-.77.44-1.17.63-.83.37-1.68.69-2.51.07-.85-.64-.74-1.52-.53-2.42.15-.66.6-1.4-.08-1.98-.6-.52-1.31-.49-1.97-.04-.77.52-.72,1.21-.21,1.83,1.4,1.71,1.75,3.35.2,5.24-.81.99-.24,2,.74,2.72,1.24.9,2.65,1.41,4.11,1.82,3.92,1.12,7.82,2.31,11.88,2.85.44.06.88.14,1.3.29,1.12.4,2.84.51,2.47,2.15-.33,1.45-1.9.96-2.99.82-1.27-.16-2.45.32-3.69.3-2.17.54-4.32.64-6.57.21-2.35-.45-4.78-.33-7.14.24-.89.22-1.95.51-1.31,1.72,1.04,1.98.65,3.96.36,5.98-.18,1.3-.58,3.08,1.17,3.28,1.47.16,2.9-.74,2.59-2.84-.15-1.03.34-1.9,1.54-1.4,1.72.7,2.07-.18,2.05-1.56-.02-1.87.43-3.07,2.64-2.1,1.13.5,1.81-.22,2.57-.87,2.17-1.85,6.32-.72,7.21,1.95.37,1.11-.51,1.35-1.14,1.67,2.81,1.86,6.04,1.28,9.16,1.24,2.1-.03,2.19.89,2.42,2.75.39,3.14-.34,5.4-2.29,7.94-1.59,2.07-3.02,4.1-5.3,5.39-1.29.73-2.3,1.59-2.47,3.12.78.69,1.29.11,1.71-.23,2.57-2.13,5.44-4.04,5.76-7.84.04-.52.44-1.32.82-1.28,3.19.36,2.19-2.77,3.41-4.03,1.39-1.44,2.93-2.79,3.3-5,.28-1.72,1.54-2.17,3.2-1.43,2.83,1.27,3.72,3.82,2.75,7.85,1.41-1.55,1.35-1.71.59-3.79-.39-1.06-1.77-2.43-.47-3.3,1.35-.9,2.34.62,3.21,1.62.12.13.24.26.39.36,1.27.64,2.4.14,3.54-.4,1.37-.65,2.59-.66,3.25,1.02.44.93-.17,1.45-.76,1.98-.59.52-1.16,1.04-.93,1.98-.29-1.71,2.64-2,1.67-4.01-.06-1.13.64-1.61,1.59-1.89,1.74.61,3.12.82,4.17-1.38.71-1.48,2.42-1.7,3.88-.51,1.42,1.15,1.97,2.47.68,4.11-.42.53-1.07.96-1.04,1.97,1.93-.47,3.02-3.04,5.37-2.14,1.56.67,2.08,1.79,1.53,3.43-.53,1.6-1.35,2.6-3.28,2.34-2.42-.33-3.86,1.57-5.43,2.89-1.26,1.06-2.48,1.93-4.12,2.23-.77.14-2.16-.07-1.9,1.23.25,1.25,1.24,2.23,2.74,1.9,1.92-.41,3.34-1.56,4.22-3.35.81-1.64,1.96-2.54,3.84-1.63.85.41,1.62,1.09,1.28,2.07-.84,2.48.04,4.93-.04,7.38-.04,1.39.07,2.9-1.65,3.54-.36-.06-.79-.18-.91-.49-.67-1.72-1.54-1.48-2.8-.54-.84.63-1.97,1.01-3.03.52-2.91-1.34-5.73-2.84-8-5.17-.51-.53-.79-1.19-.84-1.91-.09-1.41-.85-1.37-1.78-.82-.92.55-2.57.37-2.53,1.93.05,1.48,1.57,1.39,2.56,1.89,3.54,1.79,7.28,3.42,8.33,7.88.33,1.41,1.41,1.43,2.23.75,2.58-2.14,5.02-1.42,7.61-.05,2.43,1.29,5.08,2.11,7.43,3.57,2.38,1.48,3.03,2.69,2.31,5.3-.5,1.82-.51,3.32.53,5.03,1.29,2.13-.23,4.15-3.05,3.96-2.39-.17-4.77-.17-7.16-.24-1.93-.05-3.73.15-5.07,1.75-.81.97-1.81,1.17-2.85.56-1.78-1.04-3.2-.5-4.56.76-.87.81-1.86,1.35-3.09,1.35-2.55,0-3.46-.97-3.17-3.51.11-1.01.17-2.11-.75-2.65-1.12-.66-1.43.66-2.01,1.22-.63.6-1.43.63-2.19.86-1.71.53-2.03,1.92-.78,3.21.25.26.53.49.86.62,4.51,1.74,8.78,4.03,13.13,6.12,1.8.87,3.6.77,5.34-.29,1.03-.62,2.21-.59,3.37-.55,3.76.9,7.5,2.21,11.17,3.01,6.72,1.46,13.1,4.3,20.03,4.88,2.77.23,5.14,1.88,7.73,2.78,1.13.39,1.39,1.44,1.66,2.53.76,3.08,0,5.9-1.21,8.67.3,1.67-.53,3.4.28,5.04,1.42,1.17.7,3.18,1.78,4.49.97.91,1.51,3.07,3.08,2.31,1.46-.71.73-2.7.65-4.16-.04-.72-.42-1.34-.73-1.98-2.32-3.99-3.21-8.35-3.47-12.9-.06-.97.24-1.74,1.07-2.23,1.04-.6,1.84-.22,2.44.74.5,1.38.27,2.81.29,4.22.02,1.55.72,2.29,2.27,2.29,1.33,0,2.66.03,3.99,0,2.46-.06,3.99-2.02,3.38-4.47-1.02-4.12-.61-8.3-.34-12.42.17-2.48.48-4.91.06-7.38-.27-1.55.27-2.86,1.96-2.8,3.15.1,5.93-.43,8.52-2.47,1.61-1.27,3.85-1.49,6.08-1.56-1.96-1.12-3.3-2.52-3.93-4.58-.21-.69-.86-1.21-1.64-1.15-2.9.23-4.53-1.61-6.12-3.6-.41-.52-.76-1.23-1.63-1.2-.36.83.16,1.34.63,1.87.55.62,1.61,1.09.91,2.17-.49.75-1.37.73-2.18.69-1.08-.06-2-.51-2.14-1.63-.2-1.58-.71-3.11-.71-4.72,0-2.04-.03-4.08,0-6.12.02-1.13-.17-2.5,1.25-2.92,1.38-.41,2.64.13,3.6,1.2,1.02,1.14,1.51,2.61,2.15,3.96.85,1.81,1.9,2.05,3.54.91,2.63-1.83,5.56-3.02,8.72-3.62,3.39,1.17,3.53,1.43,1.92,4.32-.37.67-.22,1.1,0,1.7,1.44,4.19,1.71,8.45.55,12.76-.14.53-.16,1-.05,1.55.53,2.57-.16,3.93-2.54,3.58-4.83-.71-9.22,1.09-13.82,1.66,2.09-.11,4.1-.71,6.13-1.12,1.67-.34,2.28.07,2.29,1.8.02,3.98,2.64,5.48,6.09,3.57,1.74-.96,2.34-.68,2.47,1.37.18,2.73-.02,5.47.52,8.2.35,1.78.78,3.43,2.01,4.8,5.47,6.35,9.67,7.2,17.24,3.47.32-.16.65-.27,1-.35,4.45.07,8.61-.8,12.2-3.66.99-.79,2.22-1.31,3.47-.63,1.12.61.91,1.82.94,2.87q.13,3.93,4.07,3.94c.62,0,1.24.01,1.87,0,2.55-.07,3.14-.62,3.16-3.16.04-5.95.01-11.9.01-17.85,0-.71-.01-1.42.01-2.13.05-1.26.02-2.78,1.65-2.88,1.66-.1,1.38,1.54,1.6,2.58,1.39,6.57,2.68,13.16,3.63,19.8.41,2.89,1.22,3.59,4.19,3.64,5.47.1,5.52.04,4.46-5.51q-.71-3.74,1.62-7.28c-.95.74-1.74,1.34-2.76.74-.98-.66-1.18-1.72-1.38-2.75-.75-3.8-1.41-7.63-2.31-11.4-.65-2.72-.23-5.06,1.92-6.97,2.33-2.22,2.63-5.3,3.36-8.18.15-.59,0-1.25.17-1.85.23-.82.65-1.51,1.62-1.48.91.03,1.46.6,1.7,1.44.41,1.47.02,2.78-.74,4.06-.48.8-1.33,1.78-.21,2.57,1.24.89,1.86-.41,2.59-1.1.26-.24.43-.57.67-.82,1.03-1.04,1.88-2.87,3.57-2.22,1.74.68,2.29,2.66,2.6,4.4.31,1.75-.9,3.1-2.35,3.47-5.35,1.37-7.31,5.88-9.78,9.95,1.01-1.74,5.15-3.64,6.7-3,2.14.88,4.99-.38,5.71-2.58.17-.5.19-1.07.54-1.48.83-.98,1.98-1.42,3.1-.89,1.39.65.74,1.93.23,2.76-2,3.26-2.66,6.87-3.18,10.57-.15,1.05.12,1.23,1.1,1.5,2,.55,3.84.24,5.75-.32,1.28-.38,1.69-1.1,1.53-2.36-.17-1.34-.79-2.14-2.22-2.13-.8,0-1.6.07-2.4.04-1.85-.06-2.79-.85-2.56-2.84.34-2.87,3.2-6.45,5.65-7.01,1.75-.4,3.32-.12,4.82.88,2.59,1.74,2.69,3.59.42,5.44,1.95-.76,1.89-2.51,1.45-4.33-.34-1.38-.85-2.7-1.36-4.03-.45-1.18-.14-2.31.81-3.15.74-.66,1.46-.53,2,.33.1.16.35.35.35.34.13-.33.07-.71.2-1.03.49-1.18.75-2.81,2.66-1.52.78,2.35.24,4.77.18,7.12-.19,7.96.4,15.92.12,23.88-.05,1.33-.02,2.65-.21,3.98-.23,1.63.1,3.18,1.77,4.05,2.64,3.91,6.37,6.8,9.66,10.12.5.5.98,1.03,1.52,1.49.71.61,1.34,1.7,2.44,1.23.97-.42.35-1.63.73-2.41.34-.72.73-1.43.21-2.25-1.05-1.66-.28-2.73,1.27-3.33,1.82-.71,3.51-1.32,4.7-3.16.81-1.25,2.16-.63,3.07.56,1.59,2.07,2.17,2.02,3.57-.17.33-.52.58-1.11,1.01-1.56,1.38-1.49,2.96-1.17,3.69.75.49,1.3.34,2.82,1.32,4.01.83-.44.79-1.35,1.18-1.99.67-1.11,1.5-1.85,2.82-1.18,1.32.68,2.54.45,3.84-.02,1.45-.53,3.1-1.02,3.9.87.73,1.71-.17,3.08-1.57,4.13-.36.27-.82.33-1.35.67,1.16.54,2.04.05,2.95-.37,3.34-1.53,6.61-2.73,10.47-1.37,2.33.81,4.92-.21,7.32-.79,1.2-.29,1.48-1.68,1.87-2.76.45-1.25.66-2.59,1.43-3.72,1.69-2.49,4.02-2.6,5.88-.26.39.49.66,1.05,1.03,1.55,1.35,1.86,2.95,3.25,5.4,3.5,1.63.16,3.15.67,2.72,2.91,2.1-.62,4.34-1.2,6.64-.57,1.08.3,1.6-.15,2.2-.93,1.21-1.58,2.6-1.47,3.75.02,1.32,1.71,2.63,1.98,4.18.37,1.27-1.32,2.69-1.26,4.1-.32,1.91,1.28,3.24.67,4.5-1.03,2.12-2.86,2.59-2.89,5.67-1.09.96.56,1.82,1.38,3.13.49,1.19-.81,2.68-1.43,3.93-.27,1.19,1.1.08,2.29-.32,3.42-.09.25-.12.51.11.78,1,.31,1.83-.38,2.74-.62,1.52-.4,2.94-.59,4.22.68,1.02,1.01,2.35,1.14,3.39.27,1.24-1.03,2.81-2.05,2.49-4.09-.11-.7-.4-1.37-.32-2.09.1-.87.52-1.51,1.34-1.83.81-.31,1.7-.25,2.2.44,1.06,1.46,2.67,2.71,2.22,4.89-.11.56-.4,1.3.51,1.53.64.17,1.37.05,1.68-.51,1-1.83,2.05-3.41,4.45-3.66.79-.08.86-1.45,1.31-2.21.99-1.67,2.08-1.81,2.89-.1.96,2.01,2.26,2.19,4.11,1.62,1.46-.44,3.01-.38,4.5-.22,2.15.22,2.71,1.31,1.84,3.3-.21.49-.54.92-.66,1.45-.08.35-.12.74.27.91.38.17.67-.06.88-.38.1-.15.2-.31.22-.48.34-3,2.07-3.62,4.7-2.81,1.07.33,1.63-.31,2.06-1.2.92-1.9,2.47-2.16,4.26-1.5,2.09.77,4.15,1.56,6.43.81.4-.13.89,0,1.31.14,1.45.45,3.17.83,3.16,2.71,0,1.69-1.65,1.83-2.91,2.21-.33.1-.71.03-1.03.44,2.02-.17,3.95-.33,5.82-.92.77-.24,1.65-.68,2.33-.37,2.88,1.31,4.51-.31,6.25-2.23,1.23-1.35,2.76-2.04,4.23-.04.83,1.12,1.51.49,2.02-.39.36-.62.58-1.29.69-2,.49-1.33.8-2.79,2.84-2.36.77.17,1.15-.71,1.67-1.16,1.84-1.61,2.95-1.39,4.16.79.65,1.17.85,2.51,1.5,3.68.26.66.29,1.36.39,2.04.19,1.39.29,2.98,1.77,3.54,1.53.58,2.57-.62,3.57-1.61,3.12-1.7,3.8-1.6,6.04.91.5.56,1.02,1.05,1.8.84.82-.22.89-.99,1.06-1.68q.8-3.29,4.04-2.24c.34.11.74.34,1.02.16,3.11-1.92,7.16-1.78,9.89-4.56.66-.67,1.23-1.28,1.2-2.24-.25-6.52.29-13.02.46-19.53.06-2.25-1.31-1.46-2.39-1.5-.88-.71-.71-1.72-.76-2.67-.13-2.44,1.1-5.01-.68-7.32-.18-.24-.14-.74.06-1.01,1.1-1.47.48-2.31-.93-3.05-.77-.41-.98-1.2-.63-2.06.66-.8,1.76-1.17,2.18-2.21.49-.6.75-1.37.3-1.97-2.27-3.05-.95-6.74-1.85-10.03-.32-1.16-.05-2.44-.64-3.62-.5-1.01-.27-2.12.17-3.1,2.06-4.57,1.9-9.5,2.37-14.32.15-1.49.15-3.02.13-4.52-.06-4.04,1.6-7.14,4.8-9.49.31-.32.67-.58,1.02-.85,2.27-1.82,2.96-1.7,4.55.84.6.96.97,2.15,2.39,2.23.26.08.5.2.73.34,1.03.7,1.94,2.32,3.37,1.09,1.11-.96,2.56-2,1.66-4.03-.53-1.18-.43-2.55,1.08-3.11,1.48-.56,3.14-.24,3.71,1.17,1.27,3.14,3.69,3.23,6.48,3.33,5.52.2,8.95,4.59,8.12,10.08-.59,3.87.61,5.13,4.61,4.85,1.24-.09,2.48-.08,3.7.19,3.14.69,6.24,1.78,9.54,1.16,2.41,1.33,3.84,4.18,3.19,6.32-.58,1.88-3.57,3.83-5.9,3.77-1.06-.03-2.14.12-3.19-.06-2.06-.36-2.92-1.74-3.25-3.69-.36-2.12-2.48-2.86-4.06-1.42-1.31,1.2-2.2,2.75-1.42,4.53,2.34,5.34,1.72,11.17,2.93,16.69.32,1.45-.21,2.69-1.64,3.27-1.66.68-3.47.64-5.22.76-.71.05-1.34-.44-1.68-1.14-.4-.83.17-1.3.67-1.82,1.07-1.14,1.08-5.2.04-6.29-.59-.62-1.29-.48-1.99-.29-1.02.28-1.74.89-1.92,1.98-.09.53-.01,1.06.08,1.59.26,1.54-.58,2.05-1.85,1.63-3.13-1.03-6.08-2.48-8.84-4.28-.71-.47-.89-1.35-.82-2.16.34-4.35-1.87-8.24-2.17-12.5-.19-2.79-1.22-5.51-.63-8.37.09-.44.1-.9-.11-1.3-.37-.68-.44-1.69-1.33-1.86-.83-.16-1.06.82-1.54,1.3-.77.78-1.19,1.76-1.26,2.87-1.31,2.35-2.29,2.79-4.65,1.4-1.83-1.09-2.8-.61-3.94.93-2.77,3.74-3.23,8.14-2.84,12.4.39,4.2,1.4,8.33.78,12.75,1.07-.71,1.83-1.73,3.2-1.53,1.19.17,2.19.71,3.1,1.43,1.48,1.17,3.05,1.79,4.93,1.13,1.12-.2,2.21-.52,3.4-.37,1.57.2,3.45.81,3.23-2.09-.07-.88,1.04-1.35,1.94-1.56,3.37-.8,7.42,2.73,6.72,6.12-.46,2.24-.02,3.57,2.12,4.31.79.35,1.57.75,2.46.78,1.99-.42,3.54.15,5.34,1.26,2.23,1.38,5.03,1.9,7.8,1.67,1.52.16,3.08,1.6,4.5-.47,1.51-2.22,4.02-4,2.7-7.22-.62-1.53-.26-2.76.86-3.86,2.65-2.62,5.43-5.1,8.57-7.12,1.39-.9,2.66-1.35,3.61.78.79,1.77,1.89-.48,2.88-.08,1.53-.1,2.37,1.27,3.71,1.78.06-.97-.67-1.82-.27-2.75.46-1.07,1.04-2.06,1.79-2.96.73-.6,1.45-.57,2.14.06,1.05,3.7,4.75,4.76,7.14,7.12.89.87,1.72,1.72,2.36,2.83,1.12,1.93,3.58,2.3,5.05,3.97.56.64,1.6-.3,2.34-.8,2.2-1.5,3.82-3.74,6.3-4.87.63-.22,1.26-.26,1.91-.13,1.02.28,1.59.95,1.66,2.15.97-.8,1.83-1.62,2.93-2.05,4.63-1.56,8.65-.04,12.5,2.45,1.11.72,1.69,1.78,2.22,3.33.67-1.14.74-2.5,2.13-2.6,1.13-.08,2.06.41,3.02.86,2.7,1.27,4.68,3.85,7.82,4.32,3.14,2.35,4.97,5.89,7.8,8.52.7,2.09,2.41,3.65,2.89,5.94.25,1.19,2.05,1.17,3.13,1.74,1.53.8,2.85,1.64,1.77,3.72,2.76-.59,5.61.71,7.06,3.19.35.6.79.97,1.41,1.07,1.55.25,3.1.57,5.16,1.07-2.22-3.7-4.86-6.16-7.95-8.17-.68-.44-1.51-.48-2.32-.4-.62.07-1.23.2-1.85.2-1.26.01-2.53-.03-3.37-1.18-.98-1.33,1.34-1.38.98-2.48-1.45-1.95-3.2-3.49-5.35-4.68-1.86-1.03-3.48-2.42-4.68-4.24-.6-.91-1.17-1.8-.7-2.95.49-1.05.52-2.05-.34-2.95-.56-.59-1.21-1.23-.52-2.06.6-.71,1.44-.51,2.23-.25.49.16,1,.46,1.59-.28-1.09-.68-2.78-1.02-2.25-2.88.47-1.62,1.87-2.05,3.26-2.38,2.2-.54,4.02-1.82,5.78-3.1,1.68-1.23,3.29-1.65,5.2-.87,1.2.59,3.3.04,3.48,1.81.16,1.68-1.83,1.56-2.95,2.15-.69.36-1.24.89-1.79,1.48,2.61-.57,3.36-.05,3.5,2.37.18,3.18.23,3.22,2.74,1.54.88-.58,1.78-.74,2.78-.63,1.01.12,1.92-.03,2.75-.69,1.53-1.22,1.51-1.82-.16-2.88-1.34-.84-3.3-1.66-2.37-3.54.93-1.88,2.9-1.03,4.52-.57,2.03.58,2.72,1.86,2.65,3.97-.13,3.65.23,3.84,3.78,2.76.7-.21,1.37-.44,2.06-.12,2.5,1.17,5.25.66,7.85,1.21,1.25.27,2.46-.02,3.48-.93.76-.67,1.81-1.31,2.67-.84,2.57,1.42,4.54.09,6.6-1.09,1.12-.26,2.33-.22,3.32-.97,1.39-.39,2.78-.79,4.17-1.17,1.91-.19,2.99.84,3.57,2.51.59,1.71,1.18,3.15,3.56,2.25,1.05-.4,2.22.42,3.28.84.97.38,1.13,1.3,1.04,2.23-.09,1-.59,1.68-1.68,1.67-2.15-.02-2.15,1.08-1.74,2.8.53,2.26,1.82,4.17,2.54,6.33.53,1.58,1.86,2.65,3.74,2.26,1.87-.39,2.15-1.88,2.13-3.49-.02-1.91.33-3.86-1.6-5.29-.89-.66-.79-1.7.2-2.48.79-.62,1.06-1.62,1.62-2.42.45-.65,1.07-1.56.07-2.04-1.25-.61-1.33.72-1.65,1.46-.25.56-.26,1.21-.5,1.79-.3.74-.79,1.2-1.63,1.02-.87-.19-1.13-.92-.97-1.64.36-1.57.23-3.18.56-4.74.31-1.5,1.2-2.72,2.77-2.85,1.96-.16,4.22-1.14,5.82.61,1.32,1.45.66,3.72,1.55,5.45-.45.86-1.72.95-2.04,2.4,1.03-.71,1.23-1.75,1.96-2.3.41-.3.97-.34,1.18.03,1.34,2.29,3.49,2.56,5.85,2.65,2.14.08,3.87,1.52,5.88,2.08,5.15,2.33,5.25,2.46.64,5.89-1.86,1.38-3.33,3.18-5.3,4.41-1.51.94-1.23,1.96.09,2.87.8.56,1.63,1.06,2.45,1.59,1.56,1.01,2.85,1.74,4.43-.37,1.42-1.89,6.4-2.37,8.48-1.36,1.45.71,1.76,2.21.58,3.81-1.25,1.7-2.6,3.33-3.63,5.52,1.82-.26,3.1-1.14,4.42-1.96.78-.49,1.53-1.35,2.6-.56v16.53c-2.11,4.09-4.09,8.26-6.53,12.16-1.3,2.08-.94,4.27-.76,6.46.12,1.44,1.45,1.34,2.42,1.63.72.22,1.4.19,1.84-.6.51-.93.34-1.65-.5-2.32-.84-.67-.83-1.64-.23-2.38,1.05-1.29,1.52-3.32,3.77-3.22,0,8-.04,16,.04,23.99.01,1.33-.3,1.86-1.64,1.61-.26-.05-.53,0-.8,0-282.8,0-565.61,0-848.41.05-2,0-2.58-.44-2.45-2.45.2-3.1.05-6.22.05-9.33,3.79-1.16,5.33-3.85,5.37-8.01-2.04,1.66-2.32,4.85-5.37,4.81Z"/><path class="cls-27" d="M-686.6,54.44c0-17.33.04-34.66-.05-51.99-.01-2,.45-2.45,2.45-2.45C-507.42.05-330.65.05-153.87.05-47.85.05,58.18.06,164.21,0c2,0,2.47.45,2.45,2.45-.1,14.84-.05,29.68-.05,44.52-.89.9-2.04,1-3.21,1.03-1.33.04-2.67.02-4,.02-154.27,0-308.54,0-462.8,0-2.82,0-5.6-.17-8.29,1.29-2.14,1.17-3.87-.36-5.27-1.93-1.26.81-1.69,1.93-2.04,3.15-.3,1.05-.86,2.19-2.01,2.25-1.34.08-1.52-1.28-1.84-2.27-.53-1.62-.71-3.27-.63-4.98.09-1.91-.49-3.36-2.47-4.25-2.1-.95-2.69-3.46-4.35-4.93-.56-.48-1.21-.87-1.59-1.54-.76-1.82-1.88-3.33-3.59-4.42-2.66-1.7-4.97-3.9-7.79-5.39-.98-.51-1.95-.76-3.02-.79-2.81-.99-5.68-1.76-8.64-2.19-11.26-1.6-21.57.43-30.56,7.8-3.03,2.49-5.57,5.4-7.97,8.47-.39.49-.85.91-1.34,1.3-2.51,2.77-3.91,6.1-4.69,9.68-.35,1.61-1.33,2.89-1.83,4.41-.36,1.12-1.34.96-2.24.72-2.2-.57-4.28-.83-6.23.87-.95.83-2.36.76-3.6.55-2.65-.45-5.32-.34-7.98-.34-86.54,0-173.09,0-259.63-.02-1.91,0-3.95.45-5.61-1.04Z"/><path class="cls-41" d="M-330.54,35.32c1.55.28,1.84,1.83,2.69,2.79,1.02,1.16,1.66,2.33,3.57,2.7,1.92.38,2.15,2.72,1.85,4.48-.43,2.48.29,4.7.9,7.04q1.28-1.21,1.2-2.94c-.04-.79.62-1,1.11-1.32.93-.6,1.81-1.16,1.28-2.53-.21-.55-.02-1.11.71-1.11.62,0,.81.39.93,1.02.73,3.62,2.78,4.42,5.62,2.16.63-.5,1.23-.62,1.95-.62.8,0,1.6,0,2.4,0,157.65,0,315.3,0,472.96,0v82.11c-1.05,1.04-2.4,1.05-3.74,1.05-15.82.02-31.65.38-47.45-.13-10.13-.33-20.25-.02-30.37-.43-26.29-1.08-52.59-.2-78.89-.48-2.51-.03-4.97-.12-7.32-1.1-.91-.38-1.88-.54-2.87-.49-6.17.29-12.44-.95-18.48,1.33-1.15.43-2.47.25-3.71.25-101.85,0-203.69,0-305.54,0-.71,0-1.43.07-2.13-.05-2.35-.4-4.29-.37-3.99,2.93.07.82-.58,1.5-1.44,1.71-.99.24-1.85-.21-2.24-1.04-.91-1.93-1.63-3.91-4.37-3.77-.61.03-.91-.78-1.06-1.4-.63-2.48-1.32-4.9-1.3-7.54.04-5.41.41-10.84-.26-16.23,0-.47.13-.91.42-1.29,5.29-2.32,10.13-5.32,14.21-9.48.81-.83,1.61-1.65,1.9-2.82.42-.98,1.04-1.85,1.68-2.7,5.76-7.73,8.18-16.51,8.11-26.04-.02-2.73-.49-5.45-.79-8.16-1.23-3.52-1.97-7.23-4.1-10.4-1.33-2.07-2.99-3.94-3.76-6.34-.02-.42.07-.8.35-1.12Z"/><path class="cls-8" d="M-348.07,102.81c.54,1.43.67,2.91.66,4.44-.04,4.89-.01,9.77-.04,14.66,0,1.18.53,2.13.93,3.19.73,1.9.74,3.97,3.73,2.74.47-.19,1.09.97,1.21,1.84.12.87.35,1.73.62,2.57.25.76.83,1.21,1.64.91.79-.29.98-.95.73-1.75-.19-.59-.55-1.21-.49-1.78.15-1.36.46-2.85,2.42-2.05,1.13.46,2.25.43,3.4.43,102.9,0,205.79,0,308.69.01,1.44,0,2.83-.06,4.1-.85,1.01-.64,2.13-.78,3.32-.77,3.29.04,6.58,0,9.86.02,2.91.02,5.85-.36,8.53,1.38.64.42,1.73.21,2.61.21,14.04,0,28.08.15,42.12-.03,21.31-.27,42.62.28,63.91.73,18.91.4,37.82.05,56.72.37v43.72c-1.13,1.12-2.59,1.04-4,1.05-4.35.02-8.7,0-13.06,0-53.74,0-107.48-.4-161.2.23-17.99.21-36,1.09-53.98.7-10.2-.22-20.41.02-30.6-.69-.76-.05-1.37-.02-1.86.66-1.24,1.71-2.21.76-3.14-.36-1.06-1.62-.55-3.44-.62-5.18-.08-2.12,0-4.25-.03-6.37-.02-1.58.26-3.49-1.81-3.92-2.02-.42-4.27-.95-5.74,1.34-.9,2.1-.31,4.3-.46,6.46.02,3.72.36,7.44-.38,11.13-1.03.45-1.93.85-2.37,2.18-.4,1.22-1.52,1.69-2.41.1-.37-6.34-.05-12.68-.18-19.01-.83-2.93-2.8-3.43-5.01-1.27-.75,2.64-.01,5.37-.46,8.02-.21.76-.79,1.45-.66,2.28.42,2.66-1.27,3.41-3.36,3.84-1.14.23-2.3.31-3.45.25-5.34-.29-10.63.75-15.97.58-.88-.03-1.7.13-2.47.76-2.44,1.98-2.67,1.92-4.57-.5-.66.73-.7,2.29-2.13,2-1.32-.26-1.59-1.52-1.9-2.65-.18-.65-.02-1.45-.97-1.99-.44,2.14-1.48,3.98-2.2,5.96-.26.71-.44,1.9-1.75,1.09-.83-2.78-.24-5.63-.4-8.44-.11-1.85.17-3.72-.21-5.56-.24-1.28-.66-2.44-1.98-3.02-4.94-1.98-10.24-2.38-15.38-2.59-9.72-.41-19.41-1.4-29.13-1.7-3.02-.09-6.04-.03-9.06-.03-1.25,0-2.49-.05-3.65-.59-3.96-1.47-7.93-1.58-11.93-.16-3.85.57-3.89.64-3.88,4.5.03,9.5,0,19.01.01,28.51,0,1.62,0,3.18-1.51,4.31-.77.58-.52,1.65-.75,2.49-.14.5-.27,1.12-.94,1.11-.64-.02-.78-.63-.91-1.13-.16-.6-.12-1.23-.13-1.86-.01-1.87.01-3.73,0-5.6-.04-3.66-.82-4.68-4.34-4.33-4.69.47-9.33.3-14.01-.02-3.26-.22-6.53.92-9.8.44-6.55-.95-13.12-.32-19.68-.47-3.57-.08-4.4.78-4.44,4.34-.05,4.17,0,8.35-.02,12.52,0,.8.04,1.6-.11,2.39-.1.53-.28,1.11-.87,1.21-.72.13-1.11-.42-1.39-.99-.37-.73-.4-1.54-.47-2.33-.33-3.82-1.93-4.93-5.51-3.82-2.62.81-2.78.73-2.8-2.14-.04-6.04-.01-12.08-.02-18.12,0-7.82.01-15.63,0-23.45,0-3-.75-3.75-3.81-3.76-12.35-.02-24.69,0-37.04-.02-1.24,0-2.49.15-3.7-.26-.68-.34-.98-.9-.99-1.64.17-6.37.59-12.71-.32-19.09-.56-3.93-.22-7.99.2-11.93.46-4.35.31-8.67.21-13-.02-.96-.46-1.98.83-2.46Z"/><path class="cls-33" d="M-101.02,173.87c.46.08.81.3.99.77.17.46.48.81.99.46.41-.28.5-.72.14-1.14-.5-.59-.87-1.28-.21-1.87.72-.64,1.32.05,1.81.53.8.77,1.76.72,2.74.73,15.08.17,30.16.38,45.24.52,6.66.06,13.33.22,19.98-.02,65.3-2.34,130.63-.39,195.94-1.03v31.99c-1.14,1.11-2.59,1.03-4.01,1.04-4.88.03-9.77-.14-14.65.04-9.22.34-18.43-.2-27.64-.04-1.52.03-2.98.13-4.4.81-1.81.87-3.8.79-5.75.79-18.55,0-37.11,0-55.66,0-1.33,0-2.75-.28-3.98.1-3.15.98-5.1-.15-6.33-2.99-1.43-1.76-3.13-1.8-4.99-.75-2.49,1.41-5.2.96-7.82.79-10.38-.68-20.75-.76-31.1.26-6.3.62-12.58.62-18.85-.16-4.78-.59-9.56-.49-14.35-.5-6.75-.01-13.49-.02-20.24,0-2.41,0-4.8-.02-7.07-.98-1.22-.52-2.21-.25-3.1.74-1.38,1.55-2.77,1.53-4.71.6-2.83-1.36-5.91-2.45-9.11-.7-1.21.67-2.56.86-3.87.34-2.39-.95-4.35-.16-6.11,1.38-1.33,1.16-2.52,1.5-4.31.67-2.3-1.06-4.73-1.87-7.33-2.19-2.75-.34-3.31-1.33-2.95-3.93.61-4.41.51-8.81.01-13.23-.43-3.79-.16-7.62-.11-11.44,0-.63.2-1.23.8-1.59Z"/><path class="cls-28" d="M166.61,282.65v67.18c-1.74.76-3.8.42-5.4,1.78-.67.57-1.49-.21-2.01-.84-.85-1.04-1.82-1.92-2.96-2.63-2.17-1.35-3.25-1.22-4.66.87-1.94,2.88-1.38,5.9-.2,8.88.81,2.04,2.07,3.94,1.89,6.27-1.47,1.93-1.89,1.94-3.54.05-.45-.52-.75-1.49-1.52-1.29-.89.23-.8,1.27-.91,2.04-.17,1.14-.06,2.31-.13,3.46-.18,2.76-1.37,3.75-4.16,3.5-1.47-.14-2.84-1.08-4.42-.51-.55.2-1.08-.24-1.25-.77-.67-2.08-2.42-3.78-2.08-6.21.16-1.17-.38-2.05-1.37-2.68-.89-.57-1.69-1.24-2-2.47-.88,1.55-1.18,2.98-.97,4.53.19,1.45-.31,2.45-1.94,2.55-1.25.08-1.94.9-2.24,1.97-.3,1.08.85,1.18,1.43,1.63.97.75,1.56,1.66,1.68,2.89.16,1.59.72,2.4,2.62,1.86,1.6-.46,2.15.37,1.5,1.87-.44,1.01-1.18,1.75-2.21,2.2-2.26.98-4.08,2.45-5.14,4.76-.46,1-1.27,1.71-2.27,2.15-.95.43-2.22.16-2.09-.77.29-2.02-.9-2.29-2.25-2.75-.83-.28-.75-1.36-1.53-2.05-2.19,2.48-5.31,3.93-7.28,6.69-.27.28-.59.5-.96.65-1.25.34-1.94-.43-2.61-1.28-.17-.19-.32-.39-.46-.61-1.25-1.68.06-3.18.43-5.34-1.13,1.75-2.38,2.41-4.13,2.19.96,1.57,3.42,2.17,2.42,4.54-.8.81-1.65.85-2.54.15-.77-1.14-1.87-1.41-3.21-1.47-2.51-.12-3.25-1.14-2.08-3.19,1.31-2.29,1.01-3.89-.62-5.92-2.25-2.81-2.37-6.61-3.74-9.86-.2-.48-.07-1.12.49-1.38.57-.26,1.05.12,1.38.53.78.97,1.56,1.93,2.69,2.53.22.14.41.31.59.49.86,1.22,1.62,2.52,3.08,3.19,1.64.75,1,2.2.8,3.51,1.95.42,3.27-.54,4.7-1.44,1.61-1.01,2.11-2.24,2.11-4.14,0-2.41,1.61-3.46,4.96-3.69-1.19-2.42-1.89-4.94-2.6-7.46.03-.56.31-1.01.83-1.58-2.01.44-3.05-.72-4.15-1.95-1.66-1.84-3.37-3.7-6-4.16-.95-.17-2.03-.46-2.72.49-.69.94.21,1.65.61,2.38.68,1.25,1.54,2.39,2.21,3.65.39.73.63,1.53.06,2.25-.58.73-1.45.77-2.19.41-1.3-.62-2.57-.38-3.9-.21-3.61.44-4.92-.96-4.31-4.45-3.08.07-3.48-.26-4.64-3.48-.77-2.13.81-3.05,2.05-4.16.46-.41,1-.74,1.59-.96,3.73-.53,5.16-3.48,6.41-6.4.85-1.97-.86-3.75-2.82-2.91-4.63,1.98-9.69.15-14.37,1.96-1.99.77-4.7-2.03-4.32-4.21.27-1.53.12-2.27-1.49-2.68-2.33-.6-3.2-2.41-3.19-4.65,0-2.15.92-3.83,3.13-4.41,1.99-.51,2.28-2.62,3.69-3.65.22-.16.31-.57.12-.72-2.02-1.71-1.92-5.14-5.22-5.92-2.55-.6-4.39.74-6.16,1.82-2.27,1.39-4.09,1.94-6.13-.16-.9-.93-2.08-.69-3.26-.5-2.67.42-5.18-.79-6.07-2.8-.94-2.13-.17-3.47,2.14-3.61,1.32-.08,2.66-.2,3.99.04.79.15,1.66.31,2.37-.03,3.02-1.43,6.11-2.31,9.5-1.8.88.13,1.05-.48.61-1.2-.28-.46-.69-.81-1.02-1.23-1.61-2.05-1.46-2.64.88-3.71,2.87-1.31,2.96-1.88.6-3.99-3.53-3.16-3.36-6.67.57-9.48,1.23-.88,2.12-1.76,2.1-3.42-.02-1.64,1-1.76,2.12-1,1.54,1.05,2.98,2.26,3.95,3.9,1.11,1.88,2.75,3.23,4.46,4.51,1.46,1.1,2.23.77,2.38-1.05.19-2.37.81-4.55,2.8-6.09,1.13-1.38,2.42-2.49,4.18-3.02,1.31-.39,2.28-1.36,1.87-2.73-.63-2.09.5-2.84,2.05-3.5,1.09-.97.82-2.57,1.69-3.64,1.19-2.26,1.85-4.68,2.23-7.19.19-1.2.27-2.46,1.46-3.21.66-.35,1.38-.47,2.12-.45,1.85-.15,3.93.88,5.45-1.04.6-1.06.45-2.23.46-3.36.04-4.57,0-9.13.03-13.7.01-1.39-.11-2.83.79-4.06,1.61-1.11,3.42-.84,5.1-.44,1.82.42,2.34,1.97,2.3,3.71-.09,4.32.21,8.63.24,12.95.04,5.02.01,5.02,4.63,6.29,1.6,1.06,2.2,2.73,2.56,4.48,1.55,7.55,3.19,15.11,2.83,22.87-.17,3.63.88,6.6,3.53,9.03,3.12,2.3,4.9,5.5,6.24,9.05.52,1.38,1.2,2.78,3.14,3.1-1.87-3-.87-7.42-5.18-9.27-2.17-.93-2.31-3.11-.63-4.81.51-.51,1.15-.81,1.76-1.18,2.92-1.79,2.99-4.86.26-6.89-2.53-1.88-5.12-3.67-7.9-5.19-1.41-2.24-1.53-4.84-2.02-7.33-.65-3.28-1.1-6.59-1.84-9.85-.32-1.43-.72-3,.92-4.04,2.07-.78,4.21-.52,6.33-.4,2.09.12,3.21,1.32,3.41,3.39.03.27.07.53.06.8-.07,5.84.27,5.25,5.54,5.31,4.9.06,5.63.82,5.7,5.81.09,7.11-.82,6.39,6.42,6.45,2.75.02,5.51-.02,8.26.02,1.25.02,2.51.04,3.48,1.01Z"/><path class="cls-3" d="M111.71,237.95c-.07,6.38-.15,12.76-.21,19.15,0,1.07.05,2.13-.43,3.13-2.07.77-4.26-.13-6.34.49l-2.09.13c-2.29.76-2.88,2.43-2.87,4.71,0,1.94.52,3.97-.53,5.83-.94,1.11.42,3.08-1.45,3.84-1.69-.04-3.15,1.03-4.83,1.02-2.89-.01-4.26-.97-3.99-3.72.5-4.96-1.84-8.29-4.99-11.69-2.64-2.86-5.5-4.17-9.3-4.09-5.67.12-11.35.05-17.03.02-1.13,0-2.33.2-3.28-.71-1.1-2.22-1.24-4.68-1.04-7.01.24-2.76-.11-5.49.06-8.23.11-1.78-.76-2.38-2.35-2.44-1.51-.05-3.02,0-4.52-.15-1.6-.17-2.81-.91-2.86-2.6-.22-8.41-1.24-16.81-.49-25.24.02-.26.15-.51.25-.75.98-.79,1.5-1.66.44-2.79-.26-1.3-.49-2.58.62-3.64.19.29.45.55.57.86.84,2.17,1.73,4.08,4.64,2.42.61-.35,1.57-.09,2.37-.09,19.71,0,39.41,0,59.12,0,1.87,0,3.72.09,5.31-1.21.81-.66,1.88-.41,2.84-.39,6.64.14,13.32.48,19.91.3,9.13-.25,18.25-.03,27.37-.31v44.26c-1.05,1.04-2.4,1.04-3.74,1.04-13.5.02-27.01.04-40.51,0-3.72-.01-4-.37-4-4.15,0-1.78.03-3.55,0-5.33-.05-2.35-.67-3.02-3.01-3-1.2.01-2.48-.4-3.62.33Z"/><path class="cls-14" d="M111.71,237.95c1.69-1.25,3.58-.67,5.35-.43,1.17.16,1.57,1.29,1.56,2.48-.02,2.13.13,4.27-.04,6.39-.17,2.15.65,2.72,2.73,2.71,12.25-.08,24.51-.04,36.76-.04,2.84,0,5.68,0,8.53,0v33.59c-5.67.03-11.33.02-17,.09-1.61.02-2.2-.61-2.16-2.21.07-2.57-.07-5.14,0-7.7.04-1.8-.62-2.6-2.51-2.47-2.03.14-4.07.04-6.11.12-1.79.07-2.62-.68-2.53-2.51.08-1.59.06-3.19.07-4.78.01-1.74-.83-2.63-2.6-2.58-2.21.06-4.42.11-6.63.16-1.05.74-2.12.99-3.2.06-.09-.02-.17-.06-.26-.07-5.56-.58-5.58-.58-5.62-6.39-.03-4.25.02-8.51-.01-12.76-.03-3.65-.36-3.96-3.95-3.87-.79.02-1.59.13-2.38.21Z"/><path class="cls-38" d="M152.74,364.23c-.38-2.1-1.21-4.02-2.13-5.94-2.08-4.35-1.47-8.56,1.39-11.21,1.12-1.03,2.33-1.46,3.54-.47,1.47,1.2,3.48,1.78,4.35,3.72.28.64.97,1.43,1.56.45,1.42-2.35,3.32-1.33,5.15-.95v36.79c-2.98,1.35-5.76,2.93-7.65,5.77-.57.86-1.65.93-2.65.54-1.14-1.48.96-2.44.62-3.8,1.14-.99,2.34-1.9,3.47-2.9,1.49-1.32,1.23-2.36-.22-3.43-1.28-.95-2.65-1.8-3.65-3.09-.95-1.46-.58-2.8.19-4.24.8-1.48,1.32-3.04-1.09-3.68-.82-.22-1.46-.86-1.54-1.68-.21-2.02-1.23-3.85-1.35-5.88Z"/><path class="cls-35" d="M155.95,392.5c1.41.16,2.25-.33,3.16-1.6,1.78-2.48,3.99-4.65,7.51-4.28v31.99c-.54.38-1.17.35-1.79.39-3.7.24-4.64-.97-3.55-4.47-.98,1.02-2.4,1.25-2.43-.4-.1-4.57-3.32-6.19-6.62-7.89-.24-.12-.5-.17-.77-.23-1.58-.69-1.71-1.91-1.03-3.25,1.12-2.23,1.33-4.41.42-6.81-.77-2.05-.15-2.7,2.39-3.18.93.16,1.74-.82,2.71-.27Z"/><path class="cls-23" d="M152.21,405.3c2.13.93,3.9,2.41,5.6,3.92,1.23,1.1,3,2.18,1.56,4.35-.34.51-.13,1.12.54,1.19.74.07,1.15-.35,1-1.17-.11-.65-.17-1.42.81-1.16.76.2.26.87.19,1.35-.11.7-.21,1.4-.34,2.09-.37,1.85.21,2.8,2.23,2.33,1.01-.24,1.93-.09,2.82.41v7.46c-2.22.86-3.85,2.81-6.24,3.39-.69.17-1.43.62-1.97-.02-.62-.73.11-1.26.53-1.82,1.32-1.75,2.62-3.52,3.92-5.29.91-1.24.66-2.59-.81-2.5-2.32.13-4.89-1.02-6.98.94-.25.23-.81.34-.85.56-.64,4.45-2.97,1.05-4.29.74-1.37-.33-2.59-1.47-3.77-2.39-1.41-1.09-1.91-2.04-.06-3.53,1.03-.83,4.2-.8,2.51-3.7-.16-.27.38-.7.7-.51,2.88,1.77,3.36-2.11,5.52-2.39.98-.13.11-1.72-.75-1.74-1.01-.02-1.64-.52-2.39-.93-.43-.73.1-1.14.53-1.58Z"/><path class="cls-1" d="M166.61,454.34c-1.57.83-2.08,2.6-3.31,3.75-.44.41-.71,1.25.32,1.36,3.21.34.92,2.2.78,3.22-.16,1.16-1,2.19-2.47,1.14-.63-.46-1.37-.27-2.05-.42-.69-.16-1.79-.52-1.56-1.13.67-1.82-.84-3.64-.11-5.18,2.1-4.44,4.48-8.74,6.83-13.06.31-.58,1.04-.93,1.58-1.39v11.73Z"/><path class="cls-37" d="M-31.23,372.23c-1-.08-1.95.08-2.82.6-.86.52-1.66.37-2.51-.08-2.91-1.54-5.98-1.93-9.22-1.28-2.46.49-5.02-2.27-4.49-4.77,1.46-6.87-1.49-10.53-8.6-10.44-2.57.03-4.47-.36-5.1-3.36-.33-1.55-1.94-1.79-3.3-1.3-1.11.39-.94,1.57-.46,2.26,1.95,2.82-.89,4.02-2.12,5.13-1.56,1.42-3.04-.2-4.03-1.7.73-.69,1.51-.09,2.26-.1,1.48,0,2.35-.74,2.29-2.26-.07-1.59-.88-1.96-2.2-1.06-1.27.86-2.24,1.99-2.86,3.4-1.23.14-1.86-.53-2.42-1.55-1.78-3.26-1.82-3.24-4.53-1.11-1.06-2.84-.07-6.75,2.2-8.66,2.07.7.16,2.34.87,3.45,1.27.44,1.57-1.63,2.86-1.27.92.83.07,2.07.8,3.24,2.05-2.28,4.12-4.49,7.28-4.97.32-.2.67-.61.5-.85-1.23-1.77-2.23-3.7-3.45-5.45-.88-1.26-2.69-1.58-4.33-1.68-.89-.05-1.82.04-2.64-.28-1.92-.76-2.81.11-4.33,1.43-2.67,2.31-5.7,4.41-8.88,6.07-1.47.77-3.02-.17-3.76-1.67-.87-1.79.64-2.32,1.86-2.85,1.34-.58,2.51-1.29,3.26-2.6,1.01-1.76,2.51-2.97,4.36-3.77-3.07.93-5.6,3.05-8.73,3.89-1.35.36-2.13,1.53-1.56,3.17.41,1.18.39,2.5-1.01,2.87-1.53.41-2.15-.86-2.55-2.11-.41-1.27-.67-2.57-1.01-3.86-.67-2.58-.62-2.64,2.14-3.06.25-.04.48-.23.73-.31,1.52.47,2.53.08,2.98-1.58.58-2.11,2.12-2.93,4.23-2.89,2.31.05,4.61-.08,6.89-.51,1.54-.29,2.66-.97,3.03-2.57.57-2.43,2.17-3.49,4.27-3.55-1.19.17-2.68.45-4.2.18-.91-.16-1.79-.43-2.03-1.44-.26-1.11.61-1.56,1.4-1.99,1.02-.56,2.15-.83,2.83-1.11-2.84.78-6.16,1.41-9.24,2.85-.91.43-2.04.47-2.83-.14-2.31-1.8-4.78-1.42-7.52-.72.28,1.24,1.42,1.92,1.99,2.93.91,1.61.97,2.9-1.26,3.31-.85-1.43-1.67-2.86-3.09-3.84-1.53-1.06-2.33-2.38-2.34-4.41,0-2.28-1.33-2.88-3.38-1.76-1.39.76-2.83,1.42-4.24,2.15-.62.32-1.27.71-1.92.02-.37-.38-.63-1.2-1.03-1.15-2.79.31-4.81-1.95-7.54-2.03-5.12-.14-6.58-2.83-4.46-7.78,1.93.1,1.7,1.77,1.85,2.88.3,2.18,1.34,2.88,3.4,2.36.59-.15,1.21-.24,1.82-.26,1.88-.05,2.33-1.1,2.2-2.79-.16-1.89-1.17-3.73-.4-5.69,1.43-.84,1.59.53,1.97,1.23,1,1.85.87,3.96,1.14,5.97.24,1.8.93,1.63,1.98.67.8-.73,1.44-1.58,1.76-2.62.5-1.62,1.3-3.1,2.03-4.62,1.6-3.35,2.74-3.79,6.02-2.25,1.36.64,2.87,1.09,4.06,1.98,2.45,1.83,4.7,1.01,7.07-1.32,1.35-1.32,1.79-3.24,2.53-4.94.51-1.17-.52-1.47-1.27-1.94-1.06-.65-2.6-.91-2.4-2.7,2.71-.58,5.09.95,7.67,1.28,2.99.37,3.71,3.3,4.92,5.72,1.72,3.43,2.44,7.2,4.21,10.58-1.68-3.64-2.1-7.68-3.77-11.37-1.46-3.26.4-4.68,5.07-4.49.53.02,1.13.2,1.46.58,3.22,3.64,6.06,1.56,8.94-.52.95-.69,1.26-1.62,1.45-2.71.47-2.8,4.08-5.9,6.91-5.85,1.43.03,2.82-.24,4.24-.24,1.98,0,2.29-.99,1.54-2.57-.81-1.72-1.2-3.36.52-4.79,1.29.11,1.39,1.23,1.67,2.1,1,3.05,1.69,6.14,1.18,9.45,1.38-1.68,2.34-3.56,3.16-5.54,1.67-4,5.89-6.01,10.13-4.83.15-2.49-.05-4.96.1-7.43.06-1.04-.29-2.39,1.3-2.75,1.26,1.19.94,2.79,1.04,4.24.13,2.03.08,4.08.03,6.12-.04,1.79.67,2.63,2.51,2.55,2.76-.12,5.45.26,8.13,1.01,3.03.84,3.89,1.72,4.23,4.91.27,2.57-.36,5.1-.13,7.7.2,2.28,1.13,3.13,3.35,2.95,1.5-.12,3.02-.11,4.52.05,1.01.1,2.21,0,2.56,1.37-1.17,1.3-2.75,1.03-4.22,1.06-4.95.11-4.96.09-4.96,5.12,0,2.12.01,4.25.03,6.37.01,1.8.85,2.58,2.61,2.53.79-.02,1.6-.04,2.39.01,2,.14,2.63-.85,2.61-2.72-.04-3.18-.13-6.37.45-9.53.18-.96.22-1.94.96-2.69.27-3.53.09-7.07.17-10.6.03-1.32-.12-2.69.88-3.79,1.74-.14,1.38,1.3,1.44,2.17.17,2.83.14,5.68.04,8.51-.07,2.1.55,3.71,2.1,5.19,2.3,2.19,2.38,3.05.82,5.83-.94,1.67-1.32,3.47-1.62,5.31-.25,1.5-.8,2.9-1.36,4.29-.95,2.34-2.91,2.58-5.06,2.54-3.91-.07-3.83-.04-4.29,3.81-.36,3.02.45,5.63,2.32,7.93.79.97,2.14,1.43,2.38-.13.52-3.39,2.85-4.67,5.57-5.77.48-.19.94-.51,1.1-1.08-2.77-2.03-3.23-5.72-.98-9.52,1.17-1.98,2.57-3.83,3.85-5.74,1.19-1.76,2.83-1.99,4.64-.89,1.77,1.07,2.78,2.74,3.31,4.66,1.12,4.05,3.02,7.49,6.64,9.92,1.6,1.08,2.69,2.83,3.73,4.47,1.38,2.19,2.94,4.21,4.78,6.03.79.79,1.76,1.6,1.27,2.97-1.16.67-1.83-.25-2.51-.86-1.87-1.66-3.57-3.47-4.79-5.68-1.03-1.85-2.56-3.13-4.39-4.15-1.31-.73-2.45-.67-3.17.68-1.2,2.24-2.99,2.66-5.36,2.37-1.72-.22-3.49-.51-5.29-.01-2.59.72-5.03,1.2-6.05,4.39-.7,2.19-2.49,2.55-4.85,1.87-2.54-.74-3.68-.04-3.9,2.64-.16,2.03-.55,4.03-.33,6.11.29,2.73-1.51,4.69-3.05,6.58-1.05,1.29-2.6.6-3.93-.06-.91-.45-1.75-1.37-2.91-.64-.23.15-.21.48-.06.72.68,1.14,1.85.75,2.86.99,2.69.63,5.42.88,8.16,1.17,3.46.36,4.55-.38,5.01-3.74.31-2.25,1.77-3.03,3.65-3.15,2.57-.17,4.37-.83,4.28-3.93-.04-1.28.91-2.3,2.09-2.89,1.41-.71,2.16-1.79,2.13-3.39,0-.35.06-.71.18-1.05.57-1.52,2.77-2.92,3.76-2.26,1.47.98,1.22,2.45.65,3.83-.58,1.39-1.27,2.77-2.16,3.97-1.76,2.39-3.1,4.79-3.1,7.96,0,2.98-2.68,3.86-5.45,4.77,1.69,1.14,3.26,1.15,4.8,1.14,2.24-.01,4.44.12,6.55.96,2.07.82,4.02-.06,6.01-.42.88-.16,1.7-.53,2.57-.7,1.13-.22,2.15-.06,2.72,1.11.56,1.17.06,2.11-.84,2.81-1.33,1.03-2.73,1.99-4.07,3.01-.48.37-1.04.67-1.32,1.5,1.97.72,3.62.03,5.24-.87,1.61-.89,3.27-1.48,5.04-.43,1.31.77,1.67,1.7.62,3.04-1.53,1.95-3.91,2.71-5.73,4.27-.89.76-1.85-.04-2.56-.75-1.36-1.35-2.69-2.08-4.69-.96-1.54.86-2.46-.34-2.95-1.73-.34-.95-.75-1.66-1.91-1.01-1.22.68-2.35.85-3.24-.52-.92-1.4-.03-2.32.85-3.25.18-.2.32-.43.21-.92-2.76.34-5.29-1.26-8.15-1.09-1.13.07-2.02.12-2.17,1.33-.32,2.59-1.92,4.79-2.12,7.4-.1.27-.25.5-.43.71-.97.79-1.84.71-2.6-.31-.25-.52-.28-1.07-.16-1.63.22-.74.85-1.39.56-2.26-.59-1.81-.08-3.46,1.16-5.56-1.76,1.6-3.06,1.7-3.93.07-.69-1.29-1.91-1.46-2.64-.83-3.18,2.72-5.93,1.01-8.58-.7-1.71-1.11-2.62-1.16-3.11,1.01-.2.87-1.07,1.56-1.8,1.1-1.47-.93-2.45-.05-3.62.48-3.64,1.66-5.22.54-6.24-3.25-.88-3.27-1.03-6.8-2.91-9.8-1.04-1.66-.63-3.21.85-4.5,1.19-1.04,2.42-2.04,3.35-3.42-1.08-.59-1.87-.06-2.66.25-3.14,1.22-4.47.87-6.61-1.86-.82-1.04-1.51-2.18-2.74-2.84-2.07-1.11-2.99-.66-3.05,1.67-.03,1.42-.39,2.84-.38,4.2.03,2.63-.97,4.79-2.15,6.99-1.32,2.47-.96,4.1,1.11,6.39,1.96,3.26,5.68,3.71,8.66,5.28,4.98,2.62,8.74,6.48,12.22,10.73.16.2.18.49.19.76-.05.12-.1.24-.15.36Z"/><path class="cls-15" d="M152.21,405.3c-.18.53-.35,1.06-.53,1.58-2.08-.27-3.81-1.5-5.81-2.08-1.26-.36-2.29.26-3.57-.02-2.19-.48-1.5-3.14-3.42-3.24h.01c-.57-1.34-3.04-2.1-1.29-4.2.09-.11-.19-.67-.42-.9-1.79-1.81-3.84-.02-5.8-.33-1.34-.21-1.95,1.62-1.89,2.78.07,1.44.21,2.76-.54,4.06-.22.38-.11.91.44,1.06.55.14.84-.22.9-.7.11-.97.05-1.97.61-2.83.46-.71.53-1.92,1.63-1.88,1.04.03,1.62,1.04,2.18,1.8.8,1.06-.22,1.83-.88,2.12-1.5.66-.05,3.62-2.67,3.29-.03,0,.37.86.75,1.22,1.63,1.55,2.36,6.73,1.18,8.5-.82,1.24-2.02,1.64-3.46,1.48-2.06-.22-3.32-1.65-3.74-3.33-.6-2.4-1.97-4.44-2.68-6.77-.32-1.07-.33-1.87.44-2.66.64-.65,1.24-1.35,2.25-.54.37.29.87.44,1.09-.13.26-.66.21-1.99-.04-1.97-1.44.11-2.67-1.82-3.69-1.05-3.07,2.3-3.31-.56-3.88-2.08-.57-1.52-.89-2.9-2.88-2.8-1.32-1.22-3.11-.77-4.25,1.07-.74,1.37-2.06.97-3.23,1.04-1.74-.85-2.82-2.33-3.7-3.97-.33-.61-.45-1.38-1.24-1.6-1.6-.45-2.66-1.41-1.8-3.05.85-1.63,2.74-1.95,4.11-1.1,1.4.88,2.5.15,3.72.12,1.69-.04.5-1.01.48-1.61.77-2.29,2.95-3.23,4.56-4.7.82-.74,1.94-1.07,2.13-2.44.09-.66.84-.88,1.52-.66.58.19,1.38.44,1.16,1.2-.47,1.61.35,1.79,1.62,1.85,1.61.07,3.37.22,1.22,2.33-.31.31-.24.63.05.92.28.28.65.39.96.15.7-.53,1.74-.99,1.98-1.7,1.04-3.11,3.23-4.71,6.21-5.71.91-.31,1.49-1.46,1.71-2.53-.29-.4-.65-.35-.93-.12-.67.54-1.35,1.58-2.22.95-.95-.68-1.97-1.68-1.6-3.09.44-1.67-.71-2.26-1.79-2.8-.81-.41-2.57-.49-1.88-1.51.82-1.2,1-3.66,3.18-3.32,2.13.34,2.06-.45,1.56-1.95-.83-2.45,1.52-4.04,1.78-6.38.49,2.24,1.5,3.9,3.68,4.64.31.11.49.7.66,1.1.55,1.32-.85,2.73.25,4.08.89,1.09,1.67,2.3,1.48,4.32,1.33-1.29,2.27-1.33,3.62-.55,2.94,1.7,4.85.41,4.86-2.99,0-1.59-.1-3.19.46-4.74.23-.65.13-1.51,1.03-1.66.83-.14,1.26.59,1.68,1.12.49.62.79,1.38,1.24,2.04.76,1.12,1.42.79,1.98-.21.82,1.65,2.49,2.93,1.91,5.18-.15.59.29,1.43,1.28,1.76,2.37.79,2.93,2.31,1.53,4.53-.86,1.36-.98,2.58-.44,3.99-2.43-.68-2.54-1.03-1.53-5.33-1.11.25-1.29,1.15-1.65,1.84-.98,1.92-2.35,2.81-4.53,1.86-1.44-.62-2.44-.42-2.41,1.46,0,.44.01.96-.27,1.28-2.07,2.35-.71,3.75,1.35,4.96,1.57,1.31,3.31,2.49,3.46,4.81.76,1.03,1.96.17,2.84.67.65.93-.09,1.58-.45,2.31-3.03.13-3.05.27-1.79,2.94,1.03,2.2.61,4.39-.73,6.36-.91,1.34-1.12,2.28.92,2.45Z"/><path class="cls-26" d="M14.16,396.79c-2.2,1.89-4.36,3.82-6.6,5.66-1.53,1.26-2.92,1.07-3.94-.72-.22-.38-.34-1.13-.54-1.14-4.13-.25-4.1-5.03-7.12-6.46-.23-.11-.4-.42-.62-.45-3.23-.4-4.11-2.8-4.7-5.46-.78-1.01-2.01-1.75-1.84-3.29,1.14-5.3,2.04-10.68,5.04-15.37h0c.28-.34.38-1,.75-1.05,2.9-.42,5.32-2.35,8.27-2.59,1.16-.1,2.08.25,2.76,1.22,3.05,4.29,3.88,2.81,7.71,2.05,1.47-.29,2.32-.56,3.35.83,1.66,2.23,4.18,1.56,6.37,1.15,3.09-.58,3.21-.58,2.63,2.49-.1.53-.19,1.06-.07,1.58.45,1.9-.6,2.84-2.19,3.36-2.03.66-4.04,1.33-5.83,2.53-2.29.76-4.09-.63-5.99-1.44-3.19-1.36-5.45-.04-5.41,3.46.02,1.82,1.52,2.37,3.13,2.49.24,0,.49.01.73.06,2.02.36,2.91,1.26,1.58,3.26-.34.51-.14,1.02.17,1.49.13.21.24.42.34.65.53,1.29.74,2.72,1.81,3.78.52.51.73,1.22.21,1.93Z"/><path class="cls-30" d="M9.84,386.09c-2.13,1.21-3.21-.62-4.51-1.63-1.41-1.1.15-1.81.51-2.63,2.02-4.49,2.19-4.43,6.77-2.51,1.47.62,2.9,1.75,4.7,1.44-.28,2.97,1.15,4.33,4.03,4.86,1.76.32,3.28,1.58,5.24,1.58,1.24,0,1.42,1.11,1.32,2.17-.11,1.16.47,1.39,1.45,1.1,2.46-.72,4.89-.33,7.31.22,1,.32,1.8,1.2,2.95-.22.69-.85,2.31-1.12,3.66-1.13.25.04.48.15.69.29-.14,2.76-.51,3.13-3.1,2.96-.65-.04-1.21.04-1.7.46-1.12,2.05-3.15,2.33-5.26,2.49,1.09,1.7,3.66,2.39,4.97,1.48.62-.43.27-.92.14-1.4-.24-.85-.56-1.7.1-2.51.13-.13.31-.28.45-.23,3.2,1.11,5.23-.61,7.05-2.87,1.3-.55,3.61-.5,1.6-2.93-.56-.68-.38-1.53.22-2.2.67-.76,1.51-.96,2.41-.55,1.8.82,3.69,1.1,5.8,1.03-3.45-1.26-4.31-5.18-7.42-6.8-1.27-.66-1.25-1.91-.5-2.99.9-1.31,2.15-1.54,3.46-.59,1.38,1,2.25,2.5,3.37,3.76.79.89,1.5,1.73,2.87,1.56.74-.1,1.45.22,1.87.83,1.22,1.76,2.87,2.09,4.89,1.94,2.41-.18,2.99.66,2.42,3.03-.45,1.86.27,2.88,2.06,2.42,2.24-.58,4.87.44,6.75-1.66.27-.3.85-.07,1.23.21,1.08,4.2-1.07,5.92-6.1,4.81-1.56-.35-3.08-.93-4.6.06-1.63-.8-2.87-.4-4.33.76-1.89,1.5-3.87,3.11-6.53,3.26-.56.03-1.07.59-1.65.81-.88.34-.93,1.03-.79,1.75.19,1.03.9.88,1.64.62.62-.22,1.61-.26,1.52.39-.13.96-.79,1.89-1.38,2.72-.4.56-.95.26-1.31-.22-.6-.77-1.27-1.24-2.45-.59,1.18,1.45,2.99,2.78,1.37,4.92-1.05-3.34-4.39-2.82-6.78-4.1.23,1.39,2.41,1.36,2,3.04-2.95-.12-4.73-2.51-7.13-3.69-.63-.31-1.21-.73-1.83-1.05-.7-.36-1.48-.86-2.24-.36-.81.53-.51,1.4-.37,2.18.06.32.08.64.15,1.21-1.36-.47-2.96-.09-2.57-2.3.16-.92-.76-1.72-1.53-1.99-3.28-1.14-6.09-4.19-10.11-2.55-.61.25-1.4.03-2.1.03-1.07.08-1.01-.72-1.1-1.41.04-.55.25-1.04.54-1.5,1.33-1.61.86-3.22-.02-4.82-2.57-.99-1.14,1.41-1.75,2.06.26,1.32-.81,2.45-.51,3.77.01.25-.02.49-.08.72-.22.65-.75.95-1.35,1.17-.69.01-1.38.03-2.08.04-.87-1.99-2.73-3.51-2.73-5.9,1.88-.37,1.56,1.88,2.94,2.39.89-1.45.78-3.08-.44-3.97-1.44-1.06-1.66,1-2.49,1.59-.9-.5-1.49-1.37-.67-2.12,1.95-1.8.25-2.1-.92-2.69.45-.61,1.17-.71,1.81-.96.55-.22.89-.59.72-1.19-.15-.53-.53-.97-1.11-.94-.61.03-.79.59-.97,1.08-.24.65-.05,1.4-.45,2.01Z"/><path class="cls-9" d="M66.92,391.91c.14-2.44,2.23-1.84,3.09-1.37,2.19,1.19,4.28.36,6.4.31,1.01-.02,1.95-.42.85-1.56-.95-.97-.33-1.51.31-2.14.11-.36.38-.8.67-.73,1.99.52,3.89.33,5.87-.17.92-.24,1.45.68,1.1,1.6-.67,1.8-1.02,3.61.98,4.66,2.31,1.21,4.71,2.75,7.49,1.4,1.02-.49,2.18-.64,3.37-1.36-2.1-1.32-2.75-2.87-.87-5.03-1.43.09-2.65.19-3.81-.23-.82-.3-1.47-.77-1.25-1.74.2-.86.91-1,1.68-.88,2.16.34,4.46-.31,6.51.88.59.34,1.19.23,1.79-.02,1.25-.52,2.03.05,2.59,1.11.73.89,1.43.29,2.13-.05.56-.68.9-1.83,2.17-1.06v.02c.59.68.13,2.76,2.12,1.59.17-.18.34-.36.52-.54,1.11.24,2.23.67,1.82,2.03-.36,1.2-1.8.2-2.06.39-2.25,1.64-4.11-1.01-6.21-.37-.83.25-1.53.4-1.5,1.48.04,1.1.66,1.36,1.6,1.2.54-.09,1.35-.19,1.33.41-.05,2.75,2.65,3.86,3.44,6.07-.87.61-1.81,1.14-2.6,1.84-.97.88-1.77.93-2.77.03-1.36-1.22-2.62-1.18-3.82.41-1.26,1.67-3.21,1.16-4.69.72-2.51-.75-5.32.49-7.71-1.43-.51-.41-2.03,1.3-3.53,1.16-1.77-.17-2.8-.39-2.45-2.67.56-3.57-1.19-5.54-4.31-5.36-.6.03-1.36-.12-1.56.68-.17.69.32,1.22.85,1.53.99.58,2.04,1.07,3.09,1.53.72.32,1.28.62.91,1.56-.7,1.77-3.63,3.4-5.62,2.9-1.15-.28-1.8-.02-2.47.91-.6.83-1.29,1.89-2.6,1.27-1.24-.59-1.39-1.75-1.24-2.97.06-.52.29-1.04.29-1.56,0-.64-.26-1.24-.94-1.46-.68-.22-1.26-.05-1.45.72-.21.82-.5,1.43-1.4.66-.77-.66-.75-1.27.09-1.95,1.22-.99,1.95-2.72,4.01-2.39.42.07,1.04-.25,1.18-1.09-.99-.68-2.43-.06-3.38-.93Z"/><path class="cls-4" d="M80.24,440.49c-.48-3.3,1.19-6.07,2.26-8.99.19-.52.7-.46,1.12-.22.61.34,1.47.58,1.77,1.11,2.26,3.98,6,3.55,9.6,3.17,1.2-.12,1.84-.01,2.24,1.09.68,1.82,1.89,3.12,3.6,4.06.82.45,1.81,1.18,1.57,2.25-.25,1.11-1.37,1.45-2.42,1.78-4.82,1.53-8.7-.02-11.89-3.65-.86-.98-2.44-1.02-2.89-2.56-.22-.75-.99-.62-1.29.21-.66,1.84-2.15,1.87-3.72,1.72l.03.03Z"/><path class="cls-13" d="M63.7,417.52c.62.46,1.41.79,1.31,1.79-.83.46-1.73-.66-2.64.3,1.09,1.63,2.75,1.27,4.14.92,2.17-.55,3.59.44,5.3,1.55,2.67,1.73,3.97,4.75,6.62,6.4.4.25.7.65.42,1.11-.5.8-1.49,1.51-2.2,1.11-1.7-.96-3.63-.66-5.35-1.32-.9-.34-2.05-.45-1.29-1.94.45-.88-.33-.81-.8-.82-.88-.03-1.51-.47-2.05-1.08-.86-.96-1.7-1.25-2.59-.02-.34.47-.7,1.25-1.43.63-.7-.59-.77-1.55-.13-2.14,1.6-1.46.24-2.13-.77-2.3-1.61-.28-2.74-2.1-4.81-1.16,1.14-1.7.58-2.92-.4-4.19-.68-.88-1.51-1.79-1.36-3.08,1.12-.36,1.67.49,2.07,1.2,1.33,2.37,3.42,3.12,5.96,3.04Z"/><path class="cls-19" d="M63.7,417.52c-1.48,1.24-4.06.79-5.47-.96-.87-1.08-1.28-2.51-2.55-3.28-2.07-1.87-4.35-3.53-5.59-6.18-.35-.73-1.22-1.22-1.85-1.82-.64-1.37-2.67-1.05-3.17-2.62-.18-.57-.69-1.11-.09-1.7.63-.62,1.13-.15,1.6.27.88.79,1.85,1.45,3.08,1.36,2.79-.21,3.65,1.24,3.38,3.74-.53,2.02,1.29,2.81,2.23,3.98.8.99,1.94,1.87,3.11,2.36,2.39,1.01,3.98,2.78,5.35,4.84Z"/><path class="cls-39" d="M75.43,446.26c.02,2.71-2.26,4.22-4.8,3.1-1.04-.46-2.08-.35-3.12-.35-1.65,0-2.71-.83-3.17-2.31-.51-1.65.31-2.89,1.57-3.92,1.22-.99,2.43-1,3.58.03.73.65,1.4.77,2.4.57,2.44-.48,3.52.49,3.54,2.88Z"/><path class="cls-29" d="M1.43,446.35c-2.71-.03-3.41-1.15-2.33-3.33.43-.87.68-1.86,1.24-2.63.7-.97.74-1.66-.21-2.46-.78-.66-1.48-1.65-.28-2.39.98-.6,1.98.17,2.34,1.1.95,2.48,3.25,2.52,5.23,2.89,1.07.2,1.8.76.99,1.29-2.29,1.48-4,3.5-5.92,5.34-.26.25-.84.16-1.05.2Z"/><path class="cls-4" d="M96.73,431.27c-.08,1.81-1.05,3.14-3.15,3.27-1.87.12-3.04-.94-3.15-2.77-.13-2.08,1.69-4.48,3.21-4.59,1.73-.12,3.01,1.48,3.09,4.08Z"/><path class="cls-15" d="M139.41,409.12c0-.59,0-.94,0-1.3-.03-.96.32-1.75,1.18-2.21.71-.39,1.16.13,1.56.61.76.9.27,1.62-.38,2.32-.24.26-.41.57-.6.86-.43.66.27,2.22-1.05,2.01-1.3-.21-.38-1.68-.71-2.29Z"/><path class="cls-9" d="M112.24,396.77c-1.49.01-1.51-.53-.5-1.39,1.44-1.22,3.46-.89,4.92-2.01.65.95.08,1.62-.17,2.33-1.31.79-2.71,1.19-4.25,1.07Z"/><path class="cls-40" d="M19.95,395.14c.02.6,0,1.21.56,1.62-.29.31-.54.68-.87.94-1.46,1.14-2.27.97-2.79-.48-.07-.2-.4-.31-.61-.46.36-.53.71-1.06,1.07-1.6.88,0,1.76,0,2.64-.01Z"/><path class="cls-15" d="M138.88,401.55c-.14.67-.25,1.35-.43,2.02-.18.65-.27,1.48-1.18,1.48-.79,0-1.24-.63-1.45-1.3-.27-.91.34-1.55,1.05-1.88.6-.27,1.34-.22,2.02-.31,0,0-.01,0-.01,0Z"/><path class="cls-4" d="M80.21,440.46c-.12.67.49,1.63-.71,1.86-.16.03-.51-.24-.56-.43-.31-1.12.5-1.27,1.3-1.4,0,0-.03-.03-.03-.03Z"/><path class="cls-10" d="M-101.02,173.87c-.5,7.64.67,15.24.47,22.87-.02.8.04,1.61-.07,2.4-.53,4.02-.41,4.62,3.47,4.34,2.76-.2,4.38,1.53,6.51,2.31,1.16.43,1.74.47,2.46-.38,2.18-2.56,4.19-3.09,7.42-1.93,1.18.43,2.33.36,3.27-.46,1.76-1.53,3.73-1.45,5.71-.76.98.34,1.72,1.03,2.89.21.78-.56,1.1.42,1.44,1.06.97,1.86,2.23,1.74,3.15.1,1.27-2.27,2.85-2.41,4.86-1.19,1.2.73,2.5.78,3.85.78,8.98-.02,17.95.12,26.93-.05,7.46-.14,14.81,1.68,22.27,1.1,10.79-.84,21.58-1.3,32.41-1.09,3.37.07,6.68.85,10.07.6,1.19-.09,2.29-.13,3.13-1.08,1.05.95.96,2.25.97,3.47.04,9.06.02,18.11.02,27.17,0,2.03-.38,3.91-2.05,5.26-1.03.83-1.11,1.95-1.13,3.12-.03,3.29.02,6.57-.02,9.86-.06,4.42-.97,5.51-5.29,5.41-8.25-.18-16.5.3-24.75-.12-.45-.02-.88.07-1.28.28-.23.17-.48.33-.7.51-.98.91-.7,2.12-.81,3.25-.27,2.65-1.7,3.57-4.31,3.32-6.45-.62-12.91-.78-19.33.27-2.16.35-3.89,1.31-4.92,3.54-.84,1.83-1.79,3.66-2.99,5.32-.32.44-.76.83-1.31.81-.77-.03-.67-.7-.66-1.2.02-1.56-1.19-1.51-2.2-1.74-6.75-2.57-13.63-4.9-18.97-10.13-.82-.8-1.63-1.63-2.84-1.84-.83-.4-1.74-.19-2.6-.32-5.24.33-10.44-.61-15.67-.29-2.28.14-3.25-1.1-3.25-3.23,0-9.23-.27-18.46.14-27.68.07-1.69.15-3.37-.05-5.05.15-3.71.15-7.42.11-11.14-.03-3.22-.45-3.49-3.68-3.42-3,.06-5.99-.42-9.01-.43-3.19,0-6.35.22-9.5.71-4.67-.2-5.78-1.36-5.55-5.83.05-1.05.06-2.1-.17-3.13-.1-3.85-.1-7.71-.02-11.56.37-4.67-.19-9.34-.04-14.01.11-3.53.06-7.06,0-10.6-.06-3.84-1.32-4.62-4.98-3.13-1.31,1.15-1.2,2.69-1.2,4.2.04,13.13-.13,26.26.29,39.38.1,3.08-1.22,4.33-4.1,4.16-2-.12-3.1-1.02-3.1-3.15,0-14.2-.02-28.4.02-42.6,0-.62.06-1.24.39-1.8.22-.33.52-.43.89-.3.02,6.93.04,13.85.06,20.78,1.03,1.09.9,2.47.87,3.78-.15,5.49.41,10.99-.32,16.47-.06.42.08.85.26,1.25-.23-.71-.36-1.61.39-1.9,1.89-.72,1.62-2.28,1.76-3.75.53-5.39-.36-10.81.3-16.2.1-.78-.07-1.61.43-2.31,0-3.73.01-7.46.02-11.19.71-2.26-.17-4.64.48-6.91,1.13-2.05,3.92-2.88,7.16-2.1,2.28.55,1.96,2.38,1.96,4.04.02,3.97.03,7.94.05,11.9Z"/><path class="cls-40" d="M4.38,256.46c.75-.72,1.67-.41,2.53-.41,8.65,0,17.29-.06,25.94.05,2.45.03,3.34-.88,3.27-3.26-.13-4.16-.1-8.33-.14-12.49,0-.96-.23-2.15,1.07-2.39,2.23-.42,2.03-1.97,2.04-3.64.06-10.54-.37-21.09.14-31.63,1.84-.75,3.64-1.06,5.26.52,0,1.42,0,2.84,0,4.25.44.52.48,1.03-.04,1.52-1.16,5.45-.08,10.94-.25,16.41-.1,3.27.14,6.55.11,9.83-.01,1.71.63,2.43,2.36,2.31,1.41-.1,2.84-.05,4.25-.03,3.5.04,3.45.22,3.49,3.62.05,4.94-.37,9.9.27,14.84.58.6,1.28.35,1.99.35,5.76.04,11.52-.33,17.27.22.75.07,1.77-.24,2.05.77.27.99-.52,1.63-1.22,2.18-1.42,1.1-3.15,1.62-4.7,2.46-.31.17-.63.34-.8.87.94,1.16,2.41,1.58,3.74,2.21,2.72,1.3,3.52,2.82,2.76,5.78-.37,1.45-.48,2.78.33,4.09.55.89,1.27,1.44,2.38,1.41,1.2-.03,1.67-.8,2.01-1.79.43-1.26.84-2.52,1.21-3.8.26-.89.74-1.68,1.81-1.65.93.03,1.43.72,1.61,1.53.3,1.33.8,2.48,1.84,3.43.85.77.54,1.75.2,2.72-1.55,4.41-1.29,5.11,2.65,7.47-2.15,1.45-2.58,3.65-2.63,6.02-.02.88.13,1.87-.86,2.34-1.07.51-1.74-.29-2.6-.78-3.92-2.27-5.31-7.05-9.71-9.44,1.07,2.97-.5,4.16-2.66,5.42-3.09,1.81-3.11,5.51-.34,7.75,1.07.87,2.86,1.37,2.65,3.01-.24,1.82-2.02,2.37-3.6,2.67-1.94.37-1.25,1.01-.49,2.04.81,1.11,3.07,1.6,2.17,3.46-.93,1.92-2.72.34-4.11.43-1.85.12-3.67-.05-5.31,1.21-1.4,1.09-3.16,1.34-4.82.72-1.59-.6-3.09.42-4.7-.09-.85-.27-.85.92-.78,1.6.22,2.19,3.31,4.27,5.46,3.27,2.22-1.03,3.53-.24,4.83,1.28,1.13,1.32,2.04,1.12,3.33.02,3.9-3.34,6.5-3.56,10.44-1.26.81.47,1.64.96,1.4,2-.27,1.21.19,1.6,1.25,2.14,1.74.89,1.58,2-.21,3.11-.23.14-.64.29-.64.43.04,3.01-2.72,2.42-4.26,3.44-1.35.9-1.55,2.52-1.27,4.07.28,1.58,1,2.91,2.82,3.08,2.17.2,3.69.65,1.77,3.14-.71.92.13,1.45.65,2.01.87.94,1.53,2.33,3.22,1.73,3.21-1.14,6.42-1.76,9.87-1.01,1.69.37,3.09-1.12,4.74-1.45,1.35-.27,3.98,1.72,3.87,3.1-.21,2.88-4.74,7.48-7.87,8,.74-1.91,2.05-3.55,2.4-5.68.22-1.36,0-1.86-1.37-1.69-1.41.18-2.83.25-4.19.68-2.16.69-4.29.83-6.54.23-2.43-.65-4.85.84-7.37.21-.78-.2-1.3.79-1.65,1.53-.76,1.62-2.09,1.96-3.54,1.27-3.22-1.52-7.15-1.19-9.93-3.88-.65-.64-1.51-.1-2.27.1-2.89.74-3.44.23-3.05-2.82.03-.26.07-.54-.28-.81-2.72.7-5.57,1.3-8.47,1.61-1.16.12-1.98.7-2.53,1.71-.59,1.08-1.47,1.78-2.71,1.92-1.35.15-1.67.91-1.69,2.18-.03,2.03-.19,4.08-1.71,5.7-1.58-.22-1.61-1.43-1.55-2.59.09-1.86.07-3.75.63-5.54,1.72-5.53.53-10.88-.98-16.18-1.07-3.74-.83-4.69,2.61-6.67.62-.36,1.29-.66,1.69-1.26,1.26-1.87,2.86-2.54,5.03-1.65,1.07.44,1.3,0,1.25-1.14-.15-3.3-1.79-6.31-1.71-9.64.02-.97-.72-1.34-1.62-1.38-1.02-.04-2.13.14-2.68.93-1.87,2.66-4.5,4.78-5.67,7.91-1.03,2.76-2.72,3.43-4.67,1.37-2.72-2.87-5.91-3.67-9.65-3.07-.9.14-1.94.11-2.52-.55-1.92-2.17-3.93-4.4-4.76-7.2-.75-2.54.82-4.53,2.38-6.45,1.59-1.96,3.37-3.7,4.07-6.41.9-3.44.43-6.46-1.06-9.51-1.48-3.03-3.33-5.87-4.71-8.95-.88-1.96-1.64-3.92-.7-6.1-3,.37-5.83-2.05-6.45-5.61-.23-1.31-.3-2.64-1.08-3.78Z"/><path class="cls-10" d="M1.02,198.75c.49.06.82.37.95.8.17.57-.29.78-.73.87-.52.1-.85-.18-.9-.69-.04-.48.2-.83.68-.98Z"/><path class="cls-40" d="M103.67,386.64c-.86-.55-1.67-1.51-2.71-.24-.29.36-.78.62-1.16.25-2.16-2.11-4.99-.47-7.36-1.34-.34-.13-.73-.06-.82.39-.12.57.29.89.73.86,1.03-.09,1.99.84,3.07.1,1-.68,1.49.3,1.87.88.56.87-.19,1.01-.86,1.08-1.2.12-.68,1.04-.7,1.64-.03.82.44,1.03,1.23.83,1.14-.29,1.58.29,1.12,1.29-.32.69.03,2.33-1.62,1.65-.67-.28-1.08-.21-1.68.15-2.44,1.48-6.9.9-9.28-.89-2.46-1.85-2.29-3.89-.65-6.19-.37-.16-.64-.39-.8-.33-1.84.7-3.64,2.46-5.53.06-.07-.09-.63.21-.96.34-.62.03-1.24.01-1.56.74-.17.39-.53,1.07-.7,1.04-2.68-.48-5.35,1.3-8.02,0-1.44-.69-1.87-1.58-.64-2.86.5-.52.97-1.09.55-1.88-.46-.85-1.17-.47-1.87-.37-2.27.31-4.5.42-5.56-2.29-.11-.28-.6-.68-.78-.62-3.93,1.32-4.17-2.69-6.1-4.22-.97-.77-1.49-2.46-3.2-1.32-.53.36-.86.89-.85,1.57,0,.8.52,1.02,1.19,1.15,1.41.28,2.23.99,2.64,2.54.49,1.83,2.32,2.54,3.92,3.32.87.43,2,.82,1.4,2.08-.54,1.14-1.37.79-2.43.37-1.76-.69-3.86-.29-5.47-1.68-.42-.36-.97.21-1.32.61-.41.46-.34.9-.04,1.44,1.95,3.46,1.93,3.47-2.15,3.6-1,.44-1.85.24-2.58-.56-.18-.01-.37-.02-.55-.03-.12-.4.06-.68.38-.88,2.33-1.48,2.27-1.42.68-3.54-1.82-2.44-3.78-4.6-6.76-5.74-1.91-.73-3.57-2-4.2-4.17-.19-.64-.57-1.16-1.31-1.11-1.21.08-2.24-.43-3.31-.87-.67-.28-1.39-.39-2.01.14-.66.57-.42,1.26-.23,1.96,1.51,5.63,4.41,10.37,8.96,14.07.54.44,1.17.88.86,1.75-2.68-.33-5.3-1.11-8.03.31-1.02.53-2.39-.48-1.62-2.02,1.05-2.11.05-2.18-1.53-1.72-.9.26-1.54.05-2.17-.55-.86-.82-1.88-1.22-3.09-1.36-3.39-.39-4.52-2.64-2.77-5.31,1.37-2.07,3.71-2.22,5.78-2.87,1.44-.45,2.51-.94,1.75-2.74-.57-1.34,1.18-2.85.47-3.62-1.01-1.11-1.74,1.36-3.17,1.02-1.27-.3-2.63-.21-3.95-.35-.51-.05-1.32-.13-1.46-.44-1.9-4.23-4.38-.9-6.67-.63-1.94.23-3.75-.8-4.4-2.44-.92-2.29-2.51-2.47-4.1-1.7-2.48,1.21-5.13,1.73-7.7,2.58-.11-1.99.12-3.9,1.4-5.54.05-.07.1-.15.13-.23.59-1.63-.71-4.77,2.75-4.15,1.9.34,4.08-.81,5.76,1.02.51.56,1.31.34,1.95-.14,1.07-.79,1.84-.19,2.44.68.82,1.19-.26,1.47-.99,1.94-.79.5-1.86.83-.97,2.19.94,1.42,1.47.76,2.42-.04,1.44-1.21,2.69-.53,2.9,1.35.2,1.82.84,2.69,2.72,1.39,1.7-1.18,3.27-.63,4.43.87,1.1,1.41,1.76,2.53,3.09.05.78-1.45,2.96-1.36,4.28-2.77,1.49-1.6.58-1.7-.5-2.31-1.29-.73-2.53-.31-3.49.42-1.66,1.26-3.49,1.57-5.47,1.72-.85.06-1.61.33-1.92-.73-.25-.87.07-1.53.85-2.03,1.7-1.1,3.39-2.23,5.07-3.37.73-.5,1.59-.99,1.08-2.11-.55-1.2-1.46-1-2.47-.63-3.52,1.27-6.96,2.09-10.76.48-2.49-1.06-5.47.19-8.14-.79-.88-.32-2.16-.23-2.09-1.56.06-1.18,1.21-1.02,2.06-1.19,3.21-.64,4.41-2.12,4.08-5.41-.17-1.65.13-2.9,1.31-4.08,1.78-1.79,2.6-4.21,3.93-6.3.53-.84.57-1.88.03-2.8-.29-.5-.77-.38-1.12-.05-.78.73-2.36.84-2.07,2.42.43,2.32-.47,3.66-2.71,4.42-1.88.64-2,2.6-1.71,4.04.45,2.2-.54,2.47-2.22,2.49-.79.01-1.57.25-2.36.26-2.5.03-3.33,1.23-3.19,3.7.14,2.47-2.15,3.75-5.38,3.47-3.46-.3-6.81-1.45-10.36-1.21-1.19.08-1.92-1.18-2.54-2.13-.43-.67.17-1.18.67-1.53.99-.67,2-.58,2.98.08.59.4,1.19.78,1.78,1.18.72.49,1.93.75,2.21.22,1.07-2.05,3.58-3.63,3.05-6.19-.55-2.64.32-5.08.34-7.63.02-2.22,2.43-3.25,4.46-2.33,2.64,1.2,4.42.4,4.94-2.5.29-1.6,1.15-2.23,2.53-2.67,3.61-1.15,7.23-1.64,10.98-.65,1.41.37,1.73-.89,2.25-1.77,1.75-2.96,1.9-2.92,4.86-1.3,2.03,1.11,3.52,2.54,4.63,4.58,1.5,2.76,3.85,4.84,6.27,6.8.79.05,1.3.57,1.64,1.19,1.84,3.35,5.05,5.92,5.73,9.94.23,1.38,1.29.79,2.08.86,1.57.44,2.64,1.57,3.31,2.91,1.22,2.44,3.02,4.41,4.85,6.31,3.57,3.72,8.23,5.37,13.2,6.08,3.25.46,6.42,1.34,9.7,1.59,1.7.13,2.41,1.03,1.64,2.73-.42.68-1.01,1.22-1.58,1.76-2.29,2.2-2.8,2.25-5.33.35-.59-.44-1.2-.73-1.91-.8-1.57-.08-2.52,1.05-3.61,1.88-.44.41-1.05.61-1.47,1.23,4.06,2.39,8.12,3.2,12.44,1.08,2.89-.84,5.91-.96,8.82-1.7,1.61-.41,3.27-.86,4.11-2.18,2.05-3.24,5.29-3.58,8.54-3.85,2.53-.21,2.53-.08,1.69-2.54-.5-1.46-1.02-2.97.64-4.03,1.08-.69,3.94.3,4.6,1.77.74,1.65,1.62,3.34,1.29,5.29-1.96-.3-2.78-1.95-4-3.27,1.95,3.81,1.47,8.55,4.89,11.73,1.61,1.5.84,2.96-.09,4.49-1.57,2.55-1.4,2.71,1.51,2.87,1.2.06,2.85-.18,3.02,1.79Z"/><path class="cls-6" d="M98.35,369.03c-.69-.94-1.36-1.96-1.43-3.1-.11-1.76-.73-2.8-2.59-3.02-.62-.07-1.15-1.03-1.88-.33-.69.65-.5,1.45-.21,2.23.19.5.34,1.01.57,1.49.39.8,1.77,1.35.89,2.46-.8,1.01-2.07.69-3.22.77-3.01.21-6.22-.22-7.95,3.47-.55,1.17-2.36,2.31-3.92,2.34-2.84.06-5.39,1.74-8.3,1.25-.56-.09-1.19.29-1.79.45-1.33-1.47-.72-2.84.24-4.16.5-.69,1.22-1.25.8-2.25.46-1.03.73-1.96-.96-1.89-3.9.18-7.56-1.29-11.37-1.71-1.17-.13-2.33-.73-3.6-.67-1,.05-1.75-.08-2.4-1.15-.94-1.56-3.19-1.02-4.48-2.44-2.24-2.46-4.88-4.55-6.32-7.68-.72-1.57-2.01-2.68-3.4-3.65-1.19-.2-.95-.87-.54-1.6.07-2.35,1.57-4.49.73-7.02-.41-1.24.91-1.56,1.94-1.49,1.55.1,2.51-.4,2.93-2,.3-1.15,1.3-1.62,2.45-1.73,3.03-.29,6.1-.37,8.85-1.96.6-.35,1.23,0,1.72.39.75.58.1,1.06-.15,1.59-.36.74-1.31,1.54-.39,2.34.79.69,1.73.06,2.45-.4,1.59-1.02,2.77-.88,3.64.91.31.63.94,1.46,1.59,1.21,2.82-1.08,4.6,1.51,7.03,1.85,1.43.2,2.42,1,2.69-1.28.14-1.19,1.29-2.05,2.78-1.95,5.95.41,11.91.7,17.76-.89.92-.25,1.76-.33,2.46.42.87.93.02,1.6-.37,2.35-.2.38-.52.85-.45,1.21.49,2.35-1.15,3.3-2.72,4.31-.89.73-1.78,1.45-2.66,2.18-.94.77-1.03,1.62-.13,2.47.44.42,1.09.69,1.01,1.44-.21,2.1.98,1.39,1.9.9.75-.41,1.45-.84,2.12-.05.76.89-.03,1.33-.59,1.94-1.17,1.29-.25,2.2.89,2.63.86.32,2.02.44,2.86.13,1.48-.55,2.73-.98,3.99.41.33.36,1.04.32,1.45-.12.46-.48.17-.97-.13-1.43-1.01-1.56-1.97-3.14-3.04-4.66-.54-.77-1.11-1.55-.37-2.36.63-.68,1.35-1.29,2.51-1.21,3.55.27,6.03,2.33,8.06,4.91,1.13,1.43,2.06,2.42,3.92,1.4.47-.26,1.08-.51,1.36.18.32.78-.46.77-.9.97-.67.31-1.15.82-1.47,1.47-.11,1.32-.54,2.57-.48,3.93.13,2.91-.94,4.46-3.86,5.12-2.66.6-5.43.64-8.04,1.52-.51.17-1.03-.13-1.48-.43h0Z"/><path class="cls-22" d="M89.79,284.2c-3.51.43-5.59-2.62-4.16-6.28.66-1.7,2.33-3.28-.71-4.44-.78-.3-.36-1.63-.45-2.5-.07-.64-.19-1.31-.96-1.39-.8-.09-1.16.57-1.09,1.2.15,1.44-.89,2.49-1.07,3.76-.21,1.48-.63,2.56-2.29,2.74-1.76.19-3.09-.26-3.89-2.02-.72-1.6-1.17-3.03-.24-4.78,1.03-1.93.09-3.77-1.99-4.57-2.05-.79-5.03-1.52-5.36-3.27-.26-1.38,3.11-1.88,4.87-2.78,1.17-.6,2.45-1.04,3.16-2.62-6.3-1.14-12.53-.7-18.75-.58-.89.02-1.76.47-2.21-.71,7.45.01,14.9.11,22.35,0,2.41-.04,4.3.52,5.86,2.4,1.24,1.49,2.58,2.94,4.04,4.22,2.6,2.28,3.06,5.12,2.9,8.39-.21,4.39.41,4.83,4.81,4.47,1.05-.09,2.11-.13,3.17-.2-.52.77-1.54.22-2.14.77,1.21,3.55.68,4.55-2.93,5.66-1.35.41-2.08,1.55-2.93,2.54Z"/><path class="cls-31" d="M98.37,283.18c4.55-6.05,4.53-5.17,10.64-.53.36.36.28.82.27,1.25-.03,3.23,0,3.13,3.26,4.17,1.83.58,2.91,2.26,4.05,3.71.61.78,1.19,1.52,2.02,2.07h0c.73,1.42.09,2-1.29,2.02-.81.01-1.56-.37-2.26-.73-1.68-.85-3.34-.95-5.14-.34-2.49.84-5.1.62-7.66.4-1.76-.15-2.96-1.11-3.08-3.06-.04-.69.08-1.49-.53-2-1.31-1.1-1.33-2.46-.78-3.87.4-1.02-.1-2.14.5-3.1Z"/><path class="cls-42" d="M123.94,260.83c1.07-.02,2.14-.04,3.2-.06-.36.69-.17,1.4,0,2.08,1.48,6.19,2.01,12.57,3.76,18.71.39.38.93.5,1.4.76,2.68,1.49,2.79,1.86,1.37,4.53-.61,1.15-1.34,2.28-.99,3.9,1.35-.42,1.46-1.57,1.84-2.46.59-1.37,1.51-2.27,3.08-1.93,1.56.34,2.43,1.43,2.53,3.03.1,1.69-.42,3.31-1.83,4.21-1.44.92-2.84,1.67-3.59,3.35-.36.8-1.23,1.32-2.23.66-2.85-2.13-4.46-4.8-4.29-8.53.39-8.51-1.16-16.8-3.02-25.06-.26-1.16-1.04-2.03-1.22-3.17Z"/><path class="cls-40" d="M98.35,369.03c2.97-.74,5.84-1.67,9-1.81,2.89-.12,3.78-1.83,3.36-4.65-.22-1.52.15-2.8,1.51-3.68,2.08,1.96,1.4,5.18,3.43,7.32.82.86-.5,1.52-1.65,1.28-2.78-.56-4.19.83-3.6,3.7.27,1.32.05,1.99-1.23,2.74-2.03,1.19-3.74,2.93-6.37,2.79-.52-.03-1.06.22-1.42-.32-.38-.56-.05-1.02.33-1.4,1.35-1.32.88-2.08-.73-2.56-1.7-.5-2.06-2.04-2.63-3.42Z"/><path class="cls-5" d="M132.47,297.58c.88-.06,1.66-.5,1.87-1.28.41-1.49,1.55-2.02,2.74-2.65,1.89-.99,2.44-2.72,2.28-4.7-.1-1.2-.88-1.88-2.1-2.02-1.24-.13-1.76.62-2.03,1.65-.44,1.71-.92,4.24-3.05,3.32-1.92-.83-.25-3.09.18-4.69.11-.41.39-.81.7-1.11,1.43-1.4,1.17-2.43-.61-3.21-.65-.29-1.29-.61-1.57-1.35,4.04.72,6.73,3.62,9.48,6.23,1.69,1.59.41,5.24-2.02,6.49-.72.37-1.44.67-1.96,1.3-1.22,1.47-.83,3.11.78,3.35,3.06.45,3.28,2.62,3.94,4.81.43,1.43,1.27,2.73,1.79,4.14.27.74,1.04,1.7-.14,2.33-.92.49-1.67-.06-2.38-.69-1.1-.97-1.85-2.17-2.33-3.52-1.17-3.27-2.58-6.36-5.58-8.4Z"/><path class="cls-7" d="M98.37,283.18c-.03,1.32.12,2.65-.35,3.95-.34.96-.21,1.73,1.03,1.96,1.45.27,1.46,1.2,1.1,2.41-.62,2.08.27,3.05,2.41,2.9,2.78-.2,5.58.37,8.34-.93,1.96-.92,3.96.33,5.72,1.36,1.31.77,1.98.67,2-.98.99,1.31,2.26,2.49,2.91,3.95.83,1.87-.6,3.42-1.79,4.58-.93.91-2.37,1.03-3.4-.44-.81-1.15-2.18-.75-3.2-.57-4.08.7-7.66-.83-10.46-3.26-2.15-1.86-4.49-4.13-5.17-7.23-.58-2.62-.26-5.23.87-7.7Z"/><path class="cls-11" d="M99.24,271.39c-.1-2.47-.28-4.95-.29-7.42-.01-3.02.54-3.43,3.7-3.12-.87,2.93-.86,6.08-2.24,8.88-.31.62-.36,1.39-1.16,1.65Z"/><path class="cls-40" d="M107.96,385.53c-.91-.04-1.41.78-2.17,1.06-.35-1.63-1.52-2.53-2.93-3.16-.6-.27-1.25-.51-1.05-1.28.19-.7.87-.96,1.51-.69,1.83.79,2.84.03,3.52-1.63.23-.57.61-1.22,1.37-.92.94.37.52,1.07.34,1.79-.4,1.58-2.2,3.02-.59,4.84Z"/><path class="cls-7" d="M118.61,293.85c-2.21-.38-2.49-2.83-4.11-3.87-.79-.51-1.31-1.32-2.39-1.5-3.27-.53-3.52-.94-3.14-4.25.06-.52.03-1.05.04-1.58.55.45.59,1.07.53,1.69-.17,1.95.27,3.1,2.65,3.21,2.08.09,3.03,2.23,4.38,3.56.8.78,1.36,1.82,2.03,2.74Z"/><path class="cls-11" d="M104.74,260.72c2.06-.78,4.24-.12,6.34-.49-2.03,1.2-4.22.44-6.34.49Z"/><path class="cls-15" d="M110.08,387.14c-.36.65-.84,1.31-1.62.83-.89-.55-.37-1.59-.5-2.42.7.53.95,1.68,2.12,1.59Z"/><path class="cls-33" d="M78.94,211.73c-9.58,0-19.16.02-28.74-.03-.74,0-2.09.61-2.08-.77,0-.93,1.22-.79,2-.79,19.16,0,38.32-.01,57.47,0,.82,0,2.13-.26,2.08.95-.04,1.03-1.29.61-2,.61-9.58.03-19.16.02-28.74.02Z"/><path class="cls-33" d="M44.43,208.98c.01-.51.03-1.01.04-1.52.78.15,1.66.3,1.32,1.38-.24.74-.84.76-1.36.14Z"/><path class="cls-35" d="M147.95,386.08c-3.5-.77-4.25-2.42-2.23-4.98.49-.62.5-1.19.4-1.95-.29-2.16.78-2.96,2.73-2.2,3.2,1.24,3.24,1.24,4.49-1.93.28-.71.7-1.23,1.33-1.59.52-.29,1.08-.77,1.71-.33.82.56.38,1.26.05,1.88-.9,1.72-1.85,3.42.59,4.71,1.02.17,1.58,1.05,2.34,1.6,1.35.97,3.88,1.89,3.06,3.59-.94,1.98-2.63,4.12-5.4,4.36-3.54.43-6.21-1.64-9.07-3.16Z"/><path class="cls-32" d="M147.95,386.08c1.34-.24,2.57-.27,3.49,1.04.66.95,1.69,1.15,2.81,1.11,1.04-.04,2.16-.17,2.78,1.01,1.74,1.78-.02,2.4-1.07,3.26-.71.34-1.22,1.1-2.13,1.05-.64-.91.22-1.45.53-2.13-.83-1.65-2.19-.12-3.23-.55-.27-.02-.53-.04-.8-.05.38-2.15-1.23-3.1-2.53-4.24-.05-.05.1-.32.16-.49Z"/><path class="cls-25" d="M36.49,349.83c.01.59-.03,1.2.54,1.6-1.32,1.83-2.5.5-2.47-.58.1-3.34-2.68-4.99-3.88-7.53-.7-1.48-1.8-2.77-2.71-4.15-.06-.26-.03-.62-.19-.76-4.81-4.09-6.92-10.55-12.31-14.12-2.97-1.96-3.27-5.32-4.52-8.19-.28-.65-.35-1.4-.69-2.01-.85-1.51-2.01-2.86-3.8-3.04-1.76-.18-2.28,1.45-2.85,2.73-.9,2.04-2.75,3.4-3.66,5.49-.84,1.92-.42,3.8-.5,5.68-.05,1.31,1.1.81,1.8.8.52,0,1.08-.32,1.38.35.27.61-.25.97-.52,1.4-.92,1.47-2.52,1.98-3.99,2.47-1.76.59-2.72,1.53-2.7,3.42.02,1.35-.43,2.59-1.87,2.85-1.3.24-1.92-.88-2.69-1.78-2.94-3.39-2.24-7.47-2.13-11.35.04-1.45,1.75-1.77,3.19-1.71q6.09.26,7.38-5.88c.49-2.33.8-4.69,2.43-6.63,1.13-1.35.43-2.56-.78-3.38-2.58-1.75-3.08-4.18-2.89-7.1.21-3.27.05-6.57.05-9.85.1-1.52,1.39-1.47,2.34-1.54,1.79-.13,2.51-.95,2.48-2.71-.08-3.99.08-7.98-.2-11.98-.23-3.17-.09-6.39.73-9.5.55-2.11-.14-4.26.46-6.33.15-.04.31-.06.47-.05,1.36.03,2.09.34,1.8,2.07-.51,3.03,1.46,5,3.63,6.62,1.51,1.12,2.32-.5,3.55-1.33-3.01,5.2.88,8.84,2.67,12.94.28.64.74,1.2,1.1,1.82,3.84,6.63,4.02,12.18-2.15,18.93-3.36,3.67-3.28,4.87-.15,8.67.33.4.54.92.75,1.4,1.21,2.85,1.98,3.22,4.83,2.29,2.06-.67,6.68.94,8.22,2.86.72.89,1.35,1.94,2.73,1.84,1.69-.11.92-1.61,1.35-2.44.68-1.32,1.04-2.84,2.54-3.62.91-.47,1.44-1.38,1.65-2.34.39-1.73,1.79-2.45,3.11-3.04,2.74-1.23,4.5-.04,4.46,2.9-.02,1.72.24,3.3,1.04,4.86.86,1.68.19,3.67.94,5.53.45,1.12-.95,1.49-1.98.84-2.21-1.41-3.9-1.42-5,1.37-.39.99-1.64.98-2.52,1.33-2.04.82-2.88,2.26-1.94,4.19,1.97,4.03,1.57,8.47,2.48,12.67.23,1.07-.3,2.06-.52,3.09-.71,3.26-2.13,6.52-.49,9.91Z"/><path class="cls-20" d="M3.92,256.51c-.03,9.05-.06,18.1-.08,27.16q0,4.16-4.03,4.33c-.62.03-1.26-.02-1.69.57-1.17,1.1-.55,2.52-.59,3.79-.09,2.66-.02,5.33,0,8,0,.99.12,1.99-1,2.53h0c-2.96-.76-5.97-.28-8.95-.31-1.72-.02-2.17-.6-2.37-2.28-.38-3.2.16-6.35.05-9.51-.09-2.43-.58-3.84-3.73-4.15-3.12-.31-6.24-.66-9.39-.69-1.41-.01-1.83-.67-1.81-1.97.04-3.18.03-6.37,0-9.55,0-.84.37-1.79-.47-2.48-.95-.07-1.69-.37-1.7-1.5,2.38.38,2.43.44,3.04,3.41,1.88-1.94,2.98-4.41,3.72-6.57,1-2.91,3.27-3.28,5.22-3.68,6.11-1.26,12.37-.7,18.56-.6,4.51.07,4.51.31,4.68-4.49.02-.7-.1-1.44.53-1.98Z"/><path class="cls-25" d="M3.24,322.65c-.05.49-.34.82-.81.83-.63.02-.97-.39-.89-.98.06-.44.4-.78.91-.71.47.06.76.36.79.86Z"/><path class="cls-35" d="M132.49,411.52c.14,1.52-.66,2.76-2.25,3.23-1.5.44-2.18-.77-2.77-1.9-.2-.39-.42-.78-.59-1.18-.53-1.28-2.19-2.37-.73-3.99,1.15-1.28,2.28-.15,3.39.13,1.79.45,2.97,1.48,2.95,3.72Z"/><path class="cls-35" d="M151.12,390.87c.77-1.4,2.14-1.25,3.29-.97,1.62.4.53,1.02-.07,1.51-1.04-.38-2.6,2.28-3.23-.55Z"/><path class="cls-35" d="M119.97,396.62c-.04-1.16.22-1.83,1.22-1.87.47-.02.96.35.87.77-.2.99-1.16.8-2.09,1.09Z"/><path class="cls-35" d="M145.51,389.54c.38-.89.68-1.68,1.79-1.47.17.03.43.45.38.59-.36.96-1.08,1.19-2.16.88Z"/><path class="cls-21" d="M36.51,391.4c-3.76-2.49-6.13-6.18-8.58-9.83-1.45-2.16-1.43-4.78-2.45-7.1-.72-1.62,1.69-2.79,3.78-1.85,1.14.51,2.06,1.73,3.56.53.75-.6,1.08.35,1.14.92.39,3.58,3.28,4.59,5.94,5.72,3.53,1.5,4.85,4.96,7,7.66.7.88-.18,1.62-1.22,1.79-.77.12-1.62-.14-2.25.56-1.47,1-3.45.75-4.83,2.05-.72.68-1.31-.63-2.09-.45Z"/><path class="cls-35" d="M39.16,393.03c.09.52.27,1.05.24,1.56-.09,1.27,2.21,2.43.77,3.42-2.2,1.51-6.06.43-7.25-1.55-.3-.51-.78-1.06-.34-1.7.39-.56.97-.31,1.46-.16,2.07.63,3.44-.96,5.12-1.56,0,0,0,0,0,0Z"/><path class="cls-40" d="M11.43,390.9c-.48-1.54.11-2.82,1.61-2.93,1.27-.1,2.97.24,2.36,2.44-.08.31.5.75.52,1.15.06,1.23-.45,2.78-1.24,3.15-1.11.53-1.56-1.02-1.97-1.94-.32-.71-.41-1.54-1.27-1.88,0,0,0,0,0,0Z"/><path class="cls-35" d="M19.95,395.14c-.88.9-1.76.85-2.64.01h0c-.48-.78-.31-1.45.33-2.07.7-.69.33-1.22-.31-1.68.05-.44.15-.88.15-1.32-.02-2.3,1.06-2.79,3.02-1.86.35,1.95.98,3.9,0,5.85-.18.35-.37.71-.55,1.06Z"/><path class="cls-36" d="M43.98,389.83c.93-.13,1.8,0,2.58.56.09,1.67-2.41,2.06-1.94,3.93,0,.02-.37.22-.44.17-1.5-1.09-3.61-.11-5.02-1.47,0,0,0,0,0,0,.12-.72.57-1.77,1.14-1.43,2.28,1.35,2.71-.66,3.68-1.76Z"/><path class="cls-35" d="M56.78,389.78c.64,1.51,2.66-.88,3.1,1.19.24,1.15-2.36,3.47-3.62,3.28-1.75-.27-1.38-2.1-1.75-3.13-.37-1.02,1.33-.86,2.27-1.33Z"/><path class="cls-40" d="M9.84,386.09c-.68-1.25-.21-4.36.77-4.48,1.38-.16,2.28.96,2.79,1.98.49.98.21,2.16-1.2,2.41-.77.14-1.58.06-2.37.08,0,0,0,0,0,0Z"/><path class="cls-40" d="M20.49,394.08c0-1.95,0-3.9,0-5.85,1.36,1.3,1.36,4.24,0,5.85Z"/><path class="cls-40" d="M17.32,391.41c1.26.42,1.88,1.05.58,2.13-.54.45-.58,1.01-.59,1.61-1.54-1.25.82-2.49.01-3.75Z"/><path class="cls-40" d="M8.4,379.02c.41-.01.67.21.75.58.1.47.03.91-.54,1-.38.06-.71-.1-.77-.53-.07-.47.06-.87.56-1.05Z"/><path class="cls-18" d="M90.42,384.55c-.77-1.46,1.41-1.59.44-2.64-.53-.58-1.23-.58-1.91-.04-.78.62-1.63,1.03-.62,2.28.86,1.07-.15,1.43-1.02,1.35-1.58-.14-3.16-.38-4.71-.69-1.63-.33-1.25-2.18-.84-2.49,1.36-1.05.7-2.23.54-3.3-.51-3.52.93-4.5,4.33-4.04,2.17.29,4.23.6,6.28,1.36,1.44.53,1.82.99.97,2.47-.48.84-1.46,1.74-1.07,2.85.31.88,1.11,1.39,2.15,1.04.66-.22,1.45-.25,1.47.54.04,1.02-1.02,1.33-1.73,1.11-1.49-.46-2.93-.43-4.29.21Z"/><path class="cls-2" d="M69.56,370.62c.6.05,1.35-.1,1.66.54.4.84-.49.99-.95,1.27-1.81,1.09-1.92,2.78-1.75,4.6-1.15.88-3.08.29-3.77,2.03-.04.1-.35.22-.44.16-2.96-1.7-6.52-1.67-9.47-3.37-.94-.54-.41-1.05.18-1.32.79-.37,1.7-.5,2.28-1.24,1.51-.25,2.83-.82,3.75-2.13,1.2-.1,2.33.08,2.95,1.24,1.1,2.07,2.2,1.42,3.42.12.65-.69,1.42-1.28,2.14-1.91Z"/><path class="cls-26" d="M-.2,361.45c1.41.21,4.04-.24,4.76,2.02.29.93-2.17,1.61-3.48,1.64-1.72.04-2.95-1.17-3.27-2.88-.17-.91.62-1.11,1.99-.78Z"/><path class="cls-6" d="M61.04,371.17c.04,2.98-1.51,3.16-3.75,2.13,1.1-.97,2.2-1.93,3.75-2.13Z"/><path class="cls-40" d="M53.38,345.11c-.7.74-1.58,1.36-2.66,1.27-.68-.06-1-.79-.73-1.42.43-1,1.26-1.39,2.35-1.08.59.17,1.24.29,1.04,1.24Z"/><path class="cls-24" d="M108.4,296.48c3.42.46,7.03.51,10.64.53,1.05,0,2.02.52,2.03,1.67,0,1.06-1.05.94-1.82,1.1-3.38.72-6.81.72-10.23.83-1.82.06-2.84-1.33-3.9-2.47-.69-.74-.09-1.35.72-1.5.78-.15,1.59-.11,2.55-.16Z"/><path class="cls-40" d="M23.75,323.18c3.09.03,5.99,2.12,7.03,5.01,1.01,2.8,2.92,5.25,3.33,8.31.17,1.3.84,2.79-.71,3.53-1.55.74-2.54-.65-3.22-1.68-1.16-1.76-2.27-3.63-2.96-5.61-.93-2.66-2.89-4.36-4.81-6.13-.74-.68-1.69-1.18-1.17-2.33.47-1.02,1.52-1.07,2.52-1.09Z"/><path class="cls-40" d="M36.25,313.37c-.07.57-.45.69-.92.65-.64-.05-.9-.46-.89-1.05,0-.35.12-.75.55-.73.68.04,1.03.54,1.26,1.12Z"/><path class="cls-10" d="M1.07,266.76c0,.9.8,1.78.1,2.67-.05.06-.37.02-.46-.07-.9-.94-.07-1.75.36-2.6Z"/><path class="cls-40" d="M88.19,378.87c-.01,1.06-.36,1.88-1.32,1.76-1.64-.2-2.11-1.76-2.66-2.99-.31-.69.57-1.52,1.19-1.42,1.51.23,2.29,1.43,2.79,2.65Z"/></g><g class="cls-43"><path class="cls-34" d="M239.9,479.84c-77.96,0-155.91-.07-233.87.16-5.31.02-6.02-1.32-6.01-6.23C.18,317.86.19,161.95,0,6.04,0,.72,1.32.02,6.23.03,162.14.18,318.05.19,473.96,0c5.31,0,6.02,1.32,6.01,6.23-.16,155.91-.16,311.82.03,467.73,0,5.31-1.32,6.02-6.23,6.01-77.96-.19-155.91-.13-233.87-.13ZM88.74,352.04c.49-.81.97-1.62,1.46-2.43-1.24-13.34-.56-26.69-.06-40.04-.07-.79-.13-1.57-.2-2.36v.14c0-7.97,0-15.94,0-25.33-19.43,27.29-19.16,67.09-.41,94.92,28.15,47.18,97.54,53.29,136.31,11.92,2.96-3.16,8.69-6.89,7.06-10.38-1.63-3.5-8.01-.86-12.31-.85-2.37-1.29-5.55.07-6.13,1.13-3.86,7.09-10.44,10.44-17.01,14.19-27.63,15.79-56.22,12.78-80.87-6.42-4.07-3.17-6.44-8.87-12.68-9.01-4.85-.16-9.7-.31-14.53-.48.98-8.4,1.99-16.79-.61-25.1,0,0-.01.1-.01.1ZM325.46,176.57c1.3,2.86,2.57,1.84,4.43.31,24.54-20.21,65.14-19.71,90.75,1.53,22.29,18.48,30.49,50.57,24.29,74.55-5.55,21.46-18.96,37.3-38.62,47.13-14.36,7.18-30.16,12.13-46.04,7.33-28.07-8.48-49.04-25.29-56.29-55.43-.74-3.08-1.84-4.87-4.72-1.63-9.79,5.25-10.17,5.52-6.02,15.32,13.66,32.25,37.85,51.68,72.74,55.18,33.59,3.37,61.38-9.48,80.38-37.43,32.21-47.37,11.03-111.99-42.57-130.65-28.55-9.94-55.18-5.72-80.22,11.01-5.41,3.62-5.13,6.4-.74,10.14.94.8,1.76,1.75,2.63,2.63ZM208.5,273.54c8.13,5.95,13.54,14.1,18.57,22.61,1.15,1.95,1.46,5.09,5.03,4.25,3.69.02,7.41.73,11.42-.52-4.28-15.52-14.82-26.87-25.68-38.21,10.49,0,19.88.25,29.25-.05,25.58-.82,48.17-8.71,65.25-28.8,2.34-2.76,5.24-3.35,8.02-2.3,12.35,4.67,19.99-6.35,30.1-9.08,4.73-1.28,9.27-5.1,14.39-4.3,5.9.92,9.98-2.23,14.36-4.66,2.14-1.18,3.83-2.53,5.93-.9,2.17,1.69,1.1,4.62,1.97,6.86-3.25-.03-3.95,7.98-8.97,2.76-1.29-1.35-3.34-2.81-5.02-2.79-4.49.07-13.7,13.1-12.13,17.73,1.09,3.23.18,5.05-1.68,7.08,2.26.57,4.36,1.02,6.42,1.62,2.14.63,4.2,1.49,6.35,2.08,8.74,2.39,15.72-2.27,16.36-11.11.18-2.51,1.23-3.9,3.04-5.51,4.2-3.73,11.08-6.06,8.09-14.17-.61-1.65.55-3.24,3.17-2.39,6.38,2.07,12.41,10.54,10.41,16.88-1.57,4.99,1.7,6.71,4.25,7.22,4.81.98,9.9,2.38,15.09.74-3.63-6.47-7.4-12.54-6.82-20.03.34-4.37-2.58-7.57-5.5-8.92-4.83-2.24-8.33-6.21-13.05-8.37-4.83-2.2-6.58-5.76-6.27-11.15.49-8.57-1.63-10.62-9.7-10.04-19.29,1.38-38.78.94-57.75,5.26-3.93.89-5.75-.02-8.11-2.62-11.19-12.34-22-25.06-35.22-35.42-7.01-5.49-14.82-9.75-22.94-14.9,9.22-4.81,17.33-10.01,27.69-8.21,3.25.56,6.54.21,8.09-3.63,2.32-5.76-4.68-16.79-11.01-17.05-16.69-.66-33.37-.37-50,1.14-6.8.62-13.36.41-19.8-1.99-1.76-.66-4.17-2.31-5.3-.12-1.14,2.21,1.02,4.01,2.81,5.5,2.09,1.74,5.42,2.37,3.75,6.8-6.74,17.9-3.4,35.1,4.24,51.96,1.25,2.76,3.88,5.41,2.3,9.28-5.25-6.26-10.4-12.4-15.63-18.63,2.32-1,6.06,1.62,5.83-3.51-.66-15.25-13.44-29.82-29.06-32.35-13.31-2.15-26.72-2.57-40.2-2.24-33.6.83-67.2,1.4-100.39,7.59-1.37.26-3.29-.36-3.93,1.33-.8,2.14,1.32,2.97,2.53,4.05,13.15,11.91,27.9,21.59,42.94,30.88,2.58,1.59,4.94,1.56,7.76.79,21.5-5.84,43.42-9.77,65.39-13.24,12.53-1.98,25.19-4.45,38.04-.99-63.43,3.11-123.44,22.54-186.41,37.1,10.44,5.77,19.52,9.02,28.58,12.33,28.13,10.28,56.6,18.46,87.13,16.19,9.66-.72,19.42-.21,29.13-.14,5.88.04,8.77,4.8,6.15,9.66-.56,1.03-.64,2.41-.65,3.63-.06,22.66-.07,45.32-.09,67.98,0,2.61.77,4.17,3.87,4.08,6.22-.17,12.45.06,18.68-.06,4.48-.09,7.11-2.92,8.95-6.69,3.31-6.77,6.64-13.52,9.97-20.29ZM362.75,324.99c-4.05-.86-7.41-1-10.24-2.3-5.55-2.55-9.03-.91-12.58,3.73-5.16,6.73-11.68,12.23-18.5,17.26-10.13,7.47-20.84,13.34-34.04,13.31-56.49-.1-112.98-.14-169.46.12-5.98.03-7.27-1.65-7.24-7.33.23-40.31-.11-80.63.3-120.94.08-7.65-1.63-9.75-9.45-9.41-6.32.27-7.49,1.83-7.45,7.81.27,46.03.3,92.07-.03,138.11-.05,6.69,1.73,8.18,8.24,8.16,61.21-.25,122.43-.15,183.64-.12,16.43,0,30.65-5.94,43.5-15.76,3.45-2.63,7.17-4.91,10.51-7.67,8.61-7.1,15.97-15.34,22.79-24.99ZM203.51,347.05v.03c22.91,0,45.82-.32,68.73.09,21.51.39,39.46-7.41,54.75-22.02,2.64-2.52,7.14-4.83,6.75-8.3-.33-2.97-6.1-3.07-8.11-5.17-3.9-4.09-5.96-3.35-9.25.33-10.71,11.99-24.21,18.42-40.35,18.47-43.83.12-87.65-.08-131.48.17-6.26.04-8-1.78-7.94-7.97.28-32.37-.05-64.74.28-97.11.06-5.98-1.92-7.43-7.24-6.72-4.17.56-9.36-2.15-9.27,6.23.39,38.59.31,77.19.05,115.79-.04,5.65,2.02,6.34,6.88,6.29,25.4-.23,50.8-.11,76.2-.11ZM212.88,320.95c17.67,0,35.38-.65,53.01.2,14.92.72,26.48-5.15,36.92-14.72,7.58-6.96,7.16-6.66,1.35-14.79-4.01-5.62-6.24-4.44-10.36-.2-6.55,6.75-13.51,13.26-24.07,13.23-33.11-.1-66.22-.2-99.32.09-6.21.05-7.46-2.19-7.4-7.81.26-23.89-.19-47.8.31-71.69.16-7.49-4.01-6.43-8.47-6.34-4.23.08-8.68-1.57-8.57,6.12.44,29.87.32,59.74.03,89.61-.05,5.54,1.86,6.48,6.82,6.42,19.91-.26,39.83-.11,59.74-.11ZM216.13,112.04c.54-2.13-.61-2.86-1.51-3.63-3.4-2.9-3.4-6.76-1.67-10.06,2.05-3.91,5.26-.59,7.79.05,6.76,1.7,13.36,2.99,20.52,2.38,15.85-1.34,31.77-1.71,47.71-1.71,7.72,0,12.94,2.83,15.48,10.08,1.13,3.23,2.84,5.46,6.07,6.98,10.99,5.15,20.65,12.61,27.68,22.21,6.22,8.5,12.66,9.81,21.82,6.72,3.5-1.18,4.23-1.99,1.9-4.78-4.46-5.34-8.61-10.99-13.44-15.97-17.81-18.35-37.7-31.2-65.22-28.98-22.74,1.83-45.73.95-68.54.7-37.29-.41-74.57.3-111.84-.62-6.91-.17-7.47,2.54-7.39,8.15.08,5.65.15,8.85,7.7,8.7,27.85-.57,55.73-.23,83.59-.23,9.83,0,19.66,0,29.35,0ZM275.97,133.08c4.58,2.81,8.15,5.41,12.8,6.78,10.09,2.99,19.2,8.19,26.32,16.02,4.09,4.51,7.54,5.77,12.21,1.24,1.21-1.17,2.9-1.91,4.47-2.64,3.42-1.58,2.73-3.18.52-5.47-6.11-6.35-13.01-11.59-20.44-16.35-9.29-5.95-26.21-6.44-35.88.42ZM90.13,265.54c0-3.22-.07-6.45.02-9.67.07-2.56-.78-3.95-3.47-2.83-5.03,2.09-10.16,4.13-13.76,8.49-4.22,5.1-2.99,14.63,1.96,16.08,14.08,4.12,15.23,3.27,15.25-11.32,0-.25,0-.5,0-.74ZM361.45,253.32c-8.37,3.65-16.95,13.01-21.93,24.18-1.65,3.7-4.8,6.87-4.42,11.42.14,1.66-.78,3.59,1.59,4.36,1.78.58,3.59.56,4.62-1.23,7.15-12.4,19.17-22.25,20.15-38.72ZM380.58,292.68c3.75-7.79,9.01-15.07,5.39-24.42-.91-2.35-1.05-4.65,2.97-5.05,3.08-.31,2.87-3.64,2.87-6.08,0-1.63-1.23-3.02-2.75-2.98-3,.08-3.12,2.39-3.17,4.8-.07,3.56-1.86,2.83-3.69,1.17-1.17-1.05-1.14-3.54-3.45-2.99-4.94,12.08-1.67,23.8,1.83,35.55ZM314.26,262.65c7.69-2.28,13.15-7.19,18.94-11.42.71-.52.34-1.91-.69-2.5-3.43-1.96-2.83-2.83.69-3.8,4.44-1.22,3.52-5.2,2.59-7.97-1.29-3.88-4.08-2.21-6.58-.71-1.02.61-2.4.58-3.56,1.01-2.05.76-5.42-1.23-5.94,2.7-.49,3.64,2,5.05,4.8,6.39,1.03.49,3.35.29,2.44,3.25-7.83-.36-11.4,4.43-12.7,13.05ZM332.36,256.78c-5.53,3.6-10.01,7.14-15.02,9.6-4.39,2.15-1.84,4.84-1.03,6.86,1.08,2.7,3.24,2.61,6.07,1.17,7.02-3.58,9.25-9.46,9.98-17.63ZM372.57,286.99c-2.36,4.2-3.14,8.1-3.77,12.21-.33,2.19-2.37,4.21,1.63,4.45,2.37.14,4.94.8,5.31-3.1.44-4.69.76-9.21-3.17-13.56ZM215.51,131.07c1.71-10.58,1.68-10.61-8.84-8.63,2.84,2.77,5.62,5.49,8.84,8.63ZM378.21,171.43c.36-3.78-.19-6.29-3.87-6.4-2.11-.07-4.46.65-3.5,3.21,1.12,2.97.02,7.84,3.74,8.54,2.84.53,3.27-3.51,3.63-5.35ZM354.92,281.05c-5.34,4.11-7.23,8.46-9.91,12.15-.91,1.25-1.89,2.52-.15,3.74,1.81,1.26,3.41.64,4.23-1.24,1.79-4.16,4.8-7.83,5.83-14.65ZM368.05,290.09c-.3-.51-.53-1.4-1.02-1.57-.58-.2-1.8-.03-2.02.38-2.14,3.91-4.28,7.84-6.08,11.91-.53,1.19,1.03,2.07,2.16,2.53,1.39.57,2.8-.26,3.11-1.3,1.18-3.94,1.48-8.15,3.85-11.95ZM347.75,257.45c2.36-3,4.75-5.97,7.07-9.01.7-.91,1.79-1.98.58-3.17-1.02-.99-2.31-.47-3.5-.13-6.58,1.9-4.95,7.12-4.15,12.3ZM367.77,173.33c-3.54-.84,1.34-6.66-3.74-7.35-1.7-.23-4.72.18-3.63,3.01,1.05,2.74,1.54,6.35,4.99,7.47,1.55.5,2.93-.23,2.38-3.14ZM348.41,179.09c2.16.32,3.5-.56,2.98-1.75-1.01-2.33-1.56-5.44-4.3-6.26-1.39-.41-3.88.98-3.35,2.85.69,2.46,2.49,4.63,4.68,5.17ZM354.44,231.79c-.38.52-1.23,1.15-1.33,1.89-.22,1.65,1.18,1.71,2.36,1.78,1.05.06,1.82-.36,1.75-1.54-.09-1.43-1.1-1.91-2.78-2.12Z"/><path class="cls-17" d="M208.5,273.54c-3.32,6.76-6.65,13.52-9.97,20.29-1.85,3.77-4.48,6.6-8.95,6.69-6.22.12-12.46-.1-18.68.06-3.1.08-3.87-1.47-3.87-4.08.03-22.66.04-45.32.09-67.98,0-1.22.09-2.6.65-3.63,2.62-4.85-.28-9.61-6.15-9.66-9.71-.07-19.47-.58-29.13.14-30.53,2.28-58.99-5.9-87.13-16.19-9.06-3.31-18.14-6.56-28.58-12.33,62.97-14.56,122.98-33.99,186.41-37.1-12.85-3.46-25.51-.99-38.04.99-21.97,3.47-43.89,7.4-65.39,13.24-2.82.77-5.18.8-7.76-.79-15.04-9.29-29.79-18.97-42.94-30.88-1.2-1.09-3.33-1.92-2.53-4.05.63-1.69,2.56-1.07,3.93-1.33,33.19-6.19,66.79-6.77,100.39-7.59,13.48-.33,26.9.09,40.2,2.24,15.63,2.53,28.41,17.1,29.06,32.35.22,5.13-3.51,2.51-5.83,3.51,5.23,6.23,10.38,12.37,15.63,18.63,1.58-3.87-1.05-6.51-2.3-9.28-7.64-16.86-10.98-34.05-4.24-51.96,1.67-4.43-1.66-5.06-3.75-6.8-1.78-1.49-3.94-3.29-2.81-5.5,1.13-2.19,3.53-.54,5.3.12,6.44,2.39,13,2.6,19.8,1.99,16.63-1.51,33.31-1.8,50-1.14,6.33.25,13.33,11.29,11.01,17.05-1.55,3.84-4.84,4.19-8.09,3.63-10.37-1.8-18.48,3.4-27.69,8.21,8.12,5.15,15.93,9.41,22.94,14.9,13.22,10.36,24.03,23.08,35.22,35.42,2.36,2.6,4.18,3.52,8.11,2.62,18.97-4.32,38.46-3.88,57.75-5.26,8.07-.58,10.19,1.48,9.7,10.04-.31,5.39,1.44,8.94,6.27,11.15,4.72,2.15,8.23,6.13,13.05,8.37,2.91,1.35,5.83,4.54,5.5,8.92-.58,7.49,3.19,13.56,6.82,20.03-5.19,1.64-10.28.23-15.09-.74-2.55-.52-5.82-2.23-4.25-7.22,2-6.35-4.03-14.82-10.41-16.88-2.62-.85-3.78.74-3.17,2.39,2.99,8.11-3.88,10.44-8.09,14.17-1.81,1.61-2.86,3.01-3.04,5.51-.64,8.84-7.61,13.5-16.36,11.11-2.15-.59-4.21-1.45-6.35-2.08-2.06-.6-4.15-1.06-6.42-1.62,1.86-2.03,2.77-3.86,1.68-7.08-1.57-4.63,7.64-17.66,12.13-17.73,1.68-.03,3.72,1.44,5.02,2.79,5.02,5.22,5.72-2.79,8.97-2.76-.87-2.24.19-5.17-1.97-6.86-2.1-1.63-3.79-.28-5.93.9-4.37,2.43-8.45,5.58-14.36,4.66-5.11-.8-9.65,3.03-14.39,4.3-10.11,2.73-17.75,13.75-30.1,9.08-2.78-1.05-5.67-.46-8.02,2.3-17.08,20.09-39.67,27.98-65.25,28.8-9.37.3-18.76.05-29.25.05,10.86,11.34,21.4,22.69,25.68,38.21-4.02,1.25-7.74.54-11.42.52-4.15-11.32-10.97-20.7-20.5-28.08-1.56-1.21-3.67-3.21-3.1,1.23Z"/><path class="cls-12" d="M362.75,324.99c-6.82,9.65-14.18,17.89-22.79,24.99-3.34,2.75-7.07,5.03-10.51,7.67-12.86,9.82-27.07,15.77-43.5,15.76-61.21-.03-122.43-.14-183.64.12-6.51.03-8.29-1.46-8.24-8.16.33-46.03.3-92.07.03-138.11-.04-5.99,1.13-7.54,7.45-7.81,7.81-.34,9.53,1.76,9.45,9.41-.41,40.31-.07,80.63-.3,120.94-.03,5.68,1.26,7.36,7.24,7.33,56.49-.27,112.98-.23,169.46-.12,13.2.02,23.91-5.84,34.04-13.31,6.82-5.03,13.35-10.53,18.5-17.26,3.55-4.64,7.03-6.28,12.58-3.73,2.83,1.3,6.19,1.44,10.24,2.3Z"/><path class="cls-12" d="M203.51,347.05c-25.4,0-50.8-.12-76.2.11-4.86.04-6.92-.65-6.88-6.29.26-38.6.34-77.2-.05-115.79-.09-8.38,5.1-5.68,9.27-6.23,5.31-.71,7.3.74,7.24,6.72-.33,32.37,0,64.74-.28,97.11-.05,6.2,1.69,8.01,7.94,7.97,43.83-.26,87.65-.05,131.48-.17,16.14-.04,29.64-6.48,40.35-18.47,3.29-3.68,5.34-4.42,9.25-.33,2,2.1,7.77,2.2,8.11,5.17.39,3.47-4.11,5.77-6.75,8.3-15.3,14.62-33.24,22.41-54.75,22.02-22.9-.41-45.82-.09-68.73-.09v-.03Z"/><path class="cls-17" d="M325.46,176.57c-.87-.88-1.69-1.83-2.63-2.63-4.39-3.74-4.67-6.53.74-10.14,25.04-16.73,51.67-20.95,80.22-11.01,53.6,18.66,74.77,83.28,42.57,130.65-19,27.94-46.79,40.79-80.38,37.43-34.89-3.5-59.08-22.93-72.74-55.18-4.15-9.8-3.77-10.07,6.01-15.32,3.09,8.88,5.88,17.83,11.25,25.78,30.37,44.96,93.1,47.61,126.62,1.87,11.56-15.77,16.01-34.03,13.13-53.48-3.75-25.3-16.85-43.91-39.33-57.06-24.97-14.6-64.77-11.24-85.46,9.11Z"/><path class="cls-12" d="M212.88,320.94c-19.91,0-39.83-.15-59.74.11-4.96.06-6.88-.88-6.82-6.42.29-29.87.41-59.75-.03-89.61-.11-7.7,4.34-6.04,8.57-6.12,4.46-.09,8.63-1.15,8.47,6.34-.5,23.89-.05,47.79-.31,71.69-.06,5.62,1.19,7.87,7.4,7.81,33.11-.29,66.22-.2,99.32-.09,10.57.03,17.52-6.48,24.07-13.23,4.11-4.24,6.35-5.42,10.36.2,5.8,8.14,6.22,7.84-1.35,14.79-10.44,9.58-22,15.45-36.92,14.72-17.63-.86-35.34-.2-53.01-.2Z"/><path class="cls-12" d="M216.13,112.04c-9.69,0-19.52,0-29.35,0-27.87,0-55.74-.34-83.59.23-7.55.15-7.62-3.05-7.7-8.7-.08-5.61.48-8.32,7.39-8.15,37.27.92,74.56.2,111.84.62,22.81.25,45.79,1.14,68.54-.7,27.52-2.22,47.41,10.63,65.22,28.98,4.83,4.98,8.98,10.62,13.44,15.97,2.33,2.79,1.6,3.6-1.9,4.78-9.16,3.08-15.6,1.77-21.82-6.72-7.03-9.6-16.69-17.05-27.68-22.21-3.23-1.52-4.94-3.75-6.07-6.98-2.54-7.26-7.75-10.08-15.48-10.08-15.93,0-31.85.37-47.71,1.71-7.17.6-13.77-.68-20.52-2.38-2.53-.64-5.74-3.95-7.79-.05-1.73,3.3-1.73,7.16,1.67,10.06.9.77,2.05,1.5,1.51,3.63Z"/><path class="cls-17" d="M220.58,377.63c4.3-.01,10.68-2.65,12.31.85,1.63,3.49-4.1,7.22-7.06,10.38-38.77,41.37-108.16,35.26-136.31-11.92l-.18.12c4.85.16,9.7.31,14.55.47,10.43,14.31,24.92,22.21,41.77,26.3,27.29,6.63,59.12-4.52,74.92-26.2Z"/><path class="cls-12" d="M325.46,176.57c20.69-20.35,60.5-23.71,85.46-9.11,22.48,13.15,35.59,31.76,39.33,57.06,2.88,19.45-1.58,37.71-13.13,53.48-33.52,45.74-96.25,43.09-126.62-1.87-5.37-7.95-8.17-16.9-11.25-25.78,2.88-3.25,3.98-1.45,4.72,1.63,7.26,30.15,28.23,46.95,56.29,55.43,15.88,4.8,31.67-.16,46.04-7.33,19.66-9.83,33.08-25.67,38.62-47.13,6.2-23.99-2-56.07-24.29-74.55-25.61-21.24-66.22-21.74-90.75-1.53-1.85,1.53-3.13,2.56-4.43-.31Z"/><path class="cls-12" d="M275.97,133.08c9.67-6.86,26.59-6.36,35.88-.42,7.43,4.76,14.33,9.99,20.44,16.35,2.21,2.3,2.9,3.89-.52,5.47-1.57.73-3.26,1.47-4.47,2.64-4.67,4.53-8.12,3.26-12.21-1.24-7.12-7.84-16.22-13.04-26.32-16.02-4.65-1.37-8.22-3.97-12.8-6.78Z"/><path class="cls-17" d="M89.52,376.94c-18.75-27.83-19.02-67.63.41-94.92,0,9.39,0,17.36,0,25.33-.16-.08-.32-.17-.49-.25.16.04.33.08.49.11.07.79.13,1.57.2,2.34-5.91,13.35-5.72,26.71.06,40.06-.49.81-.97,1.62-1.46,2.43,0,0,.01-.1.01-.1,2.59,8.31,1.59,16.71.6,25.11-.01,0,.17-.11.17-.11Z"/><path class="cls-12" d="M220.58,377.63c-15.81,21.67-47.63,32.82-74.92,26.2-16.85-4.09-31.34-11.99-41.77-26.3,6.24.14,8.62,5.84,12.68,9.01,24.66,19.2,53.24,22.2,80.87,6.42,6.58-3.76,13.15-7.11,17.01-14.19.58-1.06,3.75-2.42,6.13-1.13Z"/><path class="cls-17" d="M90.13,265.54c0,.25,0,.5,0,.74-.02,14.6-1.17,15.45-15.25,11.32-4.95-1.45-6.18-10.98-1.96-16.08,3.61-4.36,8.73-6.4,13.76-8.49,2.69-1.12,3.54.27,3.47,2.83-.09,3.22-.02,6.45-.02,9.67Z"/><path class="cls-12" d="M361.45,253.32c-.98,16.47-12.99,26.32-20.15,38.72-1.03,1.79-2.84,1.81-4.62,1.23-2.37-.77-1.45-2.7-1.59-4.36-.37-4.55,2.78-7.72,4.42-11.42,4.98-11.17,13.56-20.53,21.93-24.18Z"/><path class="cls-12" d="M380.58,292.68c-3.5-11.76-6.76-23.47-1.83-35.55,2.31-.55,2.28,1.94,3.45,2.99,1.83,1.65,3.62,2.39,3.69-1.17.05-2.41.17-4.72,3.17-4.8,1.52-.04,2.75,1.34,2.75,2.98,0,2.44.21,5.77-2.87,6.08-4.02.4-3.89,2.7-2.97,5.05,3.62,9.35-1.64,16.63-5.39,24.42Z"/><path class="cls-12" d="M314.26,262.65c1.29-8.62,4.86-13.41,12.7-13.05.91-2.96-1.41-2.75-2.44-3.25-2.8-1.34-5.29-2.74-4.8-6.39.52-3.93,3.9-1.94,5.94-2.7,1.16-.43,2.54-.4,3.56-1.01,2.49-1.5,5.28-3.17,6.58.71.93,2.77,1.85,6.75-2.59,7.97-3.52.97-4.13,1.83-.69,3.8,1.03.59,1.4,1.98.69,2.5-5.79,4.22-11.25,9.14-18.94,11.42Z"/><path class="cls-12" d="M90.2,349.61c-5.78-13.35-5.97-26.71-.06-40.06-.49,13.37-1.17,26.71.06,40.06Z"/><path class="cls-12" d="M332.36,256.78c-.73,8.17-2.96,14.05-9.98,17.63-2.83,1.44-4.99,1.53-6.07-1.17-.81-2.02-3.37-4.71,1.03-6.86,5.02-2.45,9.5-6,15.02-9.6Z"/><path class="cls-12" d="M208.5,273.54c-.57-4.44,1.55-2.43,3.1-1.23,9.53,7.38,16.35,16.77,20.5,28.08-3.57.84-3.88-2.3-5.03-4.25-5.02-8.5-10.44-16.66-18.57-22.61Z"/><path class="cls-12" d="M372.57,286.99c3.93,4.35,3.62,8.87,3.17,13.56-.37,3.9-2.94,3.25-5.31,3.1-4-.24-1.96-2.27-1.63-4.45.63-4.1,1.41-8.01,3.77-12.21Z"/><path class="cls-12" d="M215.51,131.07c-3.21-3.14-6-5.86-8.84-8.63,10.52-1.97,10.55-1.95,8.84,8.63Z"/><path class="cls-12" d="M378.21,171.43c-.35,1.84-.79,5.88-3.63,5.35-3.72-.69-2.62-5.57-3.74-8.54-.96-2.56,1.39-3.28,3.5-3.21,3.68.12,4.22,2.62,3.87,6.4Z"/><path class="cls-12" d="M354.92,281.05c-1.03,6.82-4.04,10.49-5.83,14.65-.81,1.88-2.42,2.5-4.23,1.24-1.74-1.22-.77-2.48.15-3.74,2.68-3.69,4.57-8.04,9.91-12.15Z"/><path class="cls-12" d="M368.05,290.09c-2.37,3.81-2.66,8.02-3.85,11.95-.31,1.04-1.72,1.87-3.11,1.3-1.12-.46-2.68-1.34-2.16-2.53,1.8-4.07,3.94-8,6.08-11.91.22-.41,1.44-.59,2.02-.38.48.17.71,1.06,1.02,1.57Z"/><path class="cls-12" d="M347.75,257.45c-.81-5.18-2.43-10.4,4.15-12.3,1.19-.34,2.48-.86,3.5.13,1.22,1.19.12,2.26-.58,3.17-2.32,3.03-4.71,6.01-7.07,9.01Z"/><path class="cls-12" d="M367.77,173.33c.56,2.9-.83,3.64-2.38,3.14-3.45-1.12-3.94-4.73-4.99-7.47-1.09-2.83,1.94-3.24,3.63-3.01,5.08.69.2,6.51,3.74,7.35Z"/><path class="cls-12" d="M348.41,179.09c-2.19-.54-3.98-2.7-4.68-5.17-.52-1.87,1.97-3.26,3.35-2.85,2.74.82,3.29,3.93,4.3,6.26.52,1.19-.82,2.07-2.98,1.75Z"/><path class="cls-12" d="M354.44,231.79c1.68.21,2.69.69,2.78,2.12.07,1.19-.7,1.6-1.75,1.54-1.17-.07-2.57-.12-2.36-1.78.1-.73.94-1.37,1.33-1.89Z"/><path class="cls-12" d="M89.93,307.21c-.16-.04-.33-.08-.49-.11.16.09.33.17.49.25,0,0,0-.14,0-.14Z"/><path class="cls-12" d="M88.75,351.94s-.01.1-.01.1c0,0,.01-.1.01-.1Z"/></g></svg>