<?xml version="1.0" encoding="UTF-8"?><svg id="Layer_1" xmlns="http://www.w3.org/2000/svg" xmlns:xlink="http://www.w3.org/1999/xlink" viewBox="0 0 480 480"><defs><style>.cls-1{fill:#12288a;}.cls-1,.cls-2,.cls-3,.cls-4{stroke-width:0px;}.cls-2{fill:#f2f2f2;}.cls-3{fill:#799949;}.cls-4{fill:none;}.cls-5{clip-path:url(#clippath);}</style><clipPath id="clippath"><rect class="cls-4" y="0" width="480" height="480" rx="58.66" ry="58.66"/></clipPath></defs><rect class="cls-2" y="0" width="480" height="480" rx="58.66" ry="58.66"/><g class="cls-5"><path class="cls-1" d="M384.77.27c.01,5.42-.99,10.75-1.42,16.13-.54,6.67-1.84,13.22-3.23,19.73-.84,3.95-1.75,7.9-2.98,11.79-1.37,4.34-2.65,8.74-4.38,12.92-1.15,2.77-2.28,5.62-3.82,8.25-2.77,4.73-5.22,9.66-8.23,14.22-3.36,5.08-7.2,9.83-10.82,14.73-1.94,2.62-4.14,5.02-6.15,7.59-3.03,3.87-6.49,7.43-9.92,10.97-3.97,4.1-7.88,8.27-12.05,12.2-5.79,5.44-11.68,10.71-18.4,14.99-.73.46-1.33,1.14-2.19,1.89,6.06,2.29,10.96,5.84,15.79,9.49,3.98,3.01,7.41,6.58,10.79,10.27,4.56,4.99,8.12,10.62,11.46,16.4,1.91,3.31,3.07,7.06,4.63,10.57,1.62,3.66,2.96,7.39,3.8,11.24.84,3.87,2.3,7.61,2.56,11.62.2,3.08.81,6.13.96,9.21.2,4.11.78,8.2.43,12.33-.28,3.34-.43,6.69-.89,10.01-.71,5.1-1.36,10.22-2.82,15.18-2.2,7.43-4.88,14.65-8.59,21.5-3.83,7.08-8.49,13.51-13.89,19.45-4.36,4.8-9.13,9.22-14.45,12.85-5.96,4.06-12.24,7.68-19.15,10.04-3.03,1.03-5.9,2.55-9.14,2.92-1.4-3.78-2.47-7.66-3.29-11.6,3.04-.07,5.61-1.71,8.4-2.6,6.97-2.23,13.3-5.93,18.92-10.47,5.81-4.69,11.24-9.87,15.6-16.12,3.53-5.04,7.06-10.15,9.47-15.71,2.35-5.42,4.03-11.22,5.34-17.08,1.15-5.13,2.12-10.34,2.37-15.5.19-3.95.3-8.01-.08-12.06-.42-4.48-.61-8.98-1.63-13.37-1.22-5.29-2.11-10.64-4.49-15.68-1.33-2.81-2.1-5.94-3.56-8.78-3.13-6.08-6.74-11.82-11.34-16.91-2.25-2.49-4.39-5.17-7.02-7.18-3.61-2.75-7.24-5.57-11.46-7.47-3.2-1.44-6.37-2.93-9.72-3.98-1.31-.41-2.64-.8-4-1.02-2.61-.42-4.2-1.79-4.69-4.43-.57-3.05,0-4.78,2.67-6.39,1.56-.95,2.68-2.97,5-2.35.82-2.39,3.14-3.19,4.99-4.22,4.82-2.69,8.72-6.59,13.16-9.76,4.21-3,7.59-7.15,11.3-10.84,1.7-1.68,3.26-3.5,4.95-5.19,2.86-2.86,5.37-6.04,8.09-9,2.29-2.48,4.73-5.05,6.65-7.63,2.79-3.74,5.87-7.36,8.37-11.4,2.43-3.93,5.08-7.77,7.59-11.67,3.7-5.75,6.41-11.95,9.01-18.25,1.45-3.51,2.09-7.21,3.33-10.75,1.03-2.96,1.45-6.3,2.15-9.46,1.53-6.91,2.34-13.9,3.13-20.9.4-3.56.59-7.14.88-10.72,4,0,7.99,0,11.99,0Z"/><path class="cls-1" d="M.28,455.23c6.96-4.62,14.32-8.53,21.94-11.91,6.37-2.83,12.83-5.62,19.59-7.27,7.94-1.93,15.73-4.45,23.82-5.79,4.62-.77,9.15-2.04,13.77-2.82,4.64-.78,9.03-2.33,13.13-4.48,3.33-1.75,6.11-4.41,8.42-7.45,3.23-4.25,5.2-9.25,6.31-14.25.72-3.29,1.16-6.86,1.45-10.35.78-9.62.31-19.25.38-28.87.11-13.91.03-27.81.03-41.72v-79.61c0-5.36,0-10.72,0-16.08,0-4.71.05-9.42-.03-14.13-.02-1.36.36-1.77,1.72-1.72,2.8.1,5.62.18,8.41-.02,1.99-.14,1.9.88,1.9,2.28-.03,19.25-.02,38.51-.02,57.76v99.02c0,6,.06,12-.02,17.99-.07,5.61-.77,11.18-1.97,16.65-.61,2.79-1.38,5.6-2.4,8.28-1.08,2.86-2.14,5.83-3.82,8.35-3.62,5.43-7.85,10.27-13.69,13.66-4.4,2.56-9.08,4.29-13.88,5.58-3.81,1.02-7.69,2.13-11.76,2.18-1.13.01-2.45.84-3.75,1.01-6.14.81-11.92,3.02-17.9,4.42-5.74,1.34-11.34,3.1-16.88,5.03-3.79,1.32-7.46,3.07-11.07,4.86-2.75,1.36-5.48,2.86-8.25,4.11-2.36,1.07-4.22,2.7-6.38,3.95-2.57,1.48-5.01,3.18-7.54,4.72-.43.26-.89.72-1.51.52v-13.9Z"/><path class="cls-3" d="M.28,18.49c2.73,4.8,5.93,9.32,9.34,13.62,3.31,4.16,7.15,7.94,11.04,11.59,4.58,4.31,9.23,8.62,14.31,12.31,3.32,2.41,6.83,4.68,10.43,6.77,3.3,1.92,6.59,3.9,9.88,5.87,5.15,3.07,10.67,5.32,16.03,7.94,4.31,2.11,8.88,3.43,13.39,4.87,4.42,1.42,9.02,2.3,13.75,2.26,10.63-.08,21.26-.03,31.89-.03h89.69c17.86,0,35.72.05,53.58-.02,6.79-.03,13.59.09,20.32.79,4.26.44,8.42,1.81,12.62,2.76,1.73.39,3.46.78,4.97,1.77-3.16,3.51-6.96,6.27-10.66,9.14-6.24-1.47-12.54-2.46-18.97-2.45-20.34.02-40.68.09-61.02-.03-9.83-.06-19.66-.12-29.48-.12-10.56,0-21.13.01-31.69.13-12.72.14-25.45.12-38.17,0-9.53-.09-19.08.53-28.59-.3-6.18-.54-12.12-2.28-17.9-4.49-4.11-1.57-8.14-3.37-12.27-4.88-3.51-1.28-6.59-3.37-9.96-4.93-4.02-1.86-7.88-4.17-11.57-6.71-3.99-2.75-8.28-5.08-12.15-7.98-2.43-1.82-4.77-3.89-7.2-5.7-4.46-3.31-8.31-7.23-12.35-10.97-3.36-3.11-6.27-6.65-9.25-10.11v-21.09Z"/><path class="cls-1" d="M.28,72.18c4.97,4.3,10.58,7.72,15.79,11.69,4.37,3.33,9.34,5.74,14.03,8.56,6.02,3.62,12.69,6.16,19.1,9.12,4.92,2.27,10.05,3.92,15.07,5.86,3.99,1.54,8.37,2.2,12.58,3.21,7.7,1.86,15.44,1.06,23.2,1.21,5.07.1,10.15-.07,15.22.11,9.68.34,19.36,0,29.05.2,3.84.08,7.92-.34,11.77-.33,5.29.01,10.64-.04,15.96.13,6.01.2,12.04-.14,18.06-.14,7.05,0,14.1.14,21.15.19,4.46.03,8.92-.07,13.38.01,2.41.04,5.29,3.31,5.28,5.73,0,3.29-2.58,6.28-5.57,6.21-7.95-.19-15.93-.22-23.86-.17-10.68.07-21.36.11-32.04.17-19.5.09-39,.03-58.5.03-7.49,0-14.99.14-22.48-.05-4.86-.13-9.7-.58-14.47-1.82-3.5-.9-6.93-2.01-10.39-2.97-4.02-1.11-7.96-2.4-11.85-3.82-2.22-.81-4.43-1.76-6.6-2.76-3.92-1.8-7.77-3.75-11.72-5.43-3.81-1.62-7.32-3.75-10.81-5.86-5.15-3.12-10.55-5.87-15.27-9.71-1.88-1.52-4.04-2.69-6.08-4.02,0-5.11,0-10.23,0-15.34Z"/><path class="cls-1" d="M.28,138.34c6.03-.68,12.08.29,18.13-.33,2.5-.26,5.17.31,7.77.32,5.96,0,11.91-.26,17.87-.06,5.55.19,11.13.28,16.67.01,6.39-.31,12.79-.06,19.18-.19,5.13-.11,10.34.07,15.51.12,5.05.04,10.12.27,15.19,0,4.56-.25,9.14.13,13.72.13,8.24,0,16.48-.11,24.73.14,4.19.12,8.58-.32,12.85-.45,4.41-.14,8.86.26,13.31.07,7.22-.32,14.44.76,21.68-.15,4.2-.53,7.79,3.46,6.92,7.78-.32,1.61-1.65,3.26-3.65,3.86-4.39,1.32-8.84.21-13.23.43-6.11.31-12.22-.01-18.32.24-4.76.19-9.53-.09-14.3-.09-5.05,0-10.12.44-15.13.05-3.81-.29-7.59.14-11.41-.14-2.84-.21-5.9.02-8.86.13-4.78.17-9.57,0-14.35.06-5.73.08-11.45-.38-17.19-.05-2.15.12-4.42.09-6.72-.41-1.54-.33-3.85.17-5.83.21-3.08.07-6.14.58-9.26-.08-1.24-.27-2.75.62-3.96.31-3.33-.85-6.56.13-9.83.1-8.59-.08-17.18.08-25.77-.1-5.14-.11-10.29-.01-15.43-.12-3.38-.07-6.87-.29-10.29.2v-11.99Z"/><path class="cls-1" d="M300.85,98.12c3.7-2.87,7.5-5.63,10.66-9.14,4.12-3.2,7.43-7.16,10.78-11.11,1.4-1.65,2.16-3.7,3.55-5.31,3.84-4.47,6.37-9.75,9.28-14.78,3.78-6.53,5.69-13.76,7.52-21.04,1.33-5.31,1.72-10.75,2.83-16.07,1.4-6.73,1.76-13.58,2.39-20.4,4,0,7.99,0,11.99,0-.62,5.98-1.13,11.98-1.89,17.95-1.02,7.93-2.49,15.77-4.27,23.58-1.59,6.97-3.75,13.74-6.98,20.05-2.95,5.77-6.51,11.25-10.15,16.65-4.85,7.21-10.52,13.72-16.89,19.56-2.16,1.98-4.13,4.31-7.01,5.62-.83.38-1.94,1.71-2.92,2.61-4.61,4.23-9.68,7.91-14.9,11.27-4.77,3.08-7.77,1.84-10.17-3.09-.84-1.73.87-5.74,3.3-7.01,4.79-2.49,8.66-6.15,12.89-9.35Z"/><path class="cls-3" d="M279.36,317.16c.82,3.95,1.88,7.82,3.29,11.6-.19,2.55,1.16,4.79,1.69,7.17.61,2.7,1.23,5.54,2.47,8.11,1.03,3.83,2.06,7.65,3.09,11.48,1.26,4.54,2.52,9.08,3.78,13.62.35,1.27.77,2.61,2.49,2.13,3.82-1.07,7.79-1.51,11.56-2.82,3.19-1.11,6.28-2.55,9.43-3.65,3.99-1.39,7.86-3.08,11.42-5.12,4.49-2.56,8.74-5.61,12.91-8.78,5.96-4.53,11.21-9.68,16.28-15.11,3.5-3.75,6.31-8.02,9.47-12.02,2.3-2.92,4.22-6.2,5.98-9.49,2.2-4.13,4.51-8.19,6.44-12.49,1.83-4.06,3.34-8.25,4.98-12.35,1.99-4.97,3.6-10.13,4.69-15.42.5-2.43,1.43-4.83,1.71-7.22.46-3.89,1.5-7.68,1.75-11.6.22-3.4.86-6.78,1.01-10.18.18-4.09-.02-8.19.04-12.29.06-4.16-.15-8.38-.58-12.45-.44-4.19-1.02-8.48-1.7-12.69-1.36-8.54-3.14-16.95-5.64-25.22-1.33-4.43-3.04-8.72-4.55-13.07-1.34-3.85-3.54-7.25-5.13-10.96-1.83-4.27-4.4-8.1-6.8-12.04-3.68-6.06-7.92-11.63-13.03-16.54,2.7-3.05,5.41-6.09,8.11-9.14,3.42,3.25,6.17,7.07,9.11,10.73,4.74,5.92,8.71,12.38,12.27,19.04,4.1,7.67,7.28,15.78,10.08,24,1.94,5.69,3.45,11.51,4.7,17.42.93,4.39,1.84,8.78,2.66,13.19.7,3.79.8,7.69,1.31,11.52,1.14,8.6,1.27,17.25,1.14,25.89-.12,8.04-1.21,16-2.6,23.91-1.08,6.17-2.3,12.32-4.19,18.27-2.27,7.17-4.81,14.28-8.06,21.09-1.34,2.79,1.48,2.48,2.39,3.05,2.91,1.8,6.12,3.08,9.18,4.64,4.51,2.3,9.11,4.44,13.43,7.05,4.6,2.77,9.48,4.99,14.12,7.67,3.63,2.1,7.11,4.36,10.23,7.1,4.94,4.33,7.86,9.96,9.66,16.24,1.33,4.63,1.15,9.33.89,14.01-.37,6.63-1.64,13.19-3.15,19.61-1.25,5.35-2.39,10.75-3.79,16.07-2.08,7.94-3.6,16.01-3.86,24.2-.13,4.03.01,8.12.61,12.22.68,4.61,1.34,9.15,2.82,13.6,1.29,3.85,2.7,7.6,4.65,11.18,3.42,6.27,7.62,11.93,12.75,17.4-5.11,0-9.93-.01-14.75.01-.74,0-1.22-.37-1.59-.89-3.27-4.61-6.39-9.33-8.71-14.49-3.01-6.7-5.6-13.6-6.82-20.87-.46-2.75-.9-5.57-.69-8.44.24-3.34-.51-6.69-.2-10.06.55-5.9,1.18-11.78,2.12-17.64.96-5.98,2.65-11.78,3.73-17.73,1.02-5.57,2.77-11.01,3.95-16.56,1.05-4.97,1.47-9.98.88-15.14-.63-5.56-2.32-10.48-6.64-14.02-3.05-2.51-6.51-4.49-10.11-6.32-2.92-1.49-5.78-3.31-8.7-4.88-2.97-1.59-5.95-3.21-8.86-4.86-3.31-1.87-6.92-3.09-10.08-5.14-2.88-1.87-6.24-2.71-9.08-4.62-.9-.61-.83.57-.97.79-1.85,2.9-3.52,5.92-5.38,8.81-3.07,4.75-6.49,9.24-10.12,13.61-3.35,4.05-7.02,7.74-10.78,11.36-3.41,3.29-6.91,6.57-10.79,9.23-3,2.05-5.85,4.49-9.2,5.95-3.15,1.37-5.68,3.7-8.79,5.08-6.01,2.66-12.08,5.15-18.37,7.13-3.92,1.23-7.9,2.22-11.9,2.9-4.95.84-9.94,1.53-14.96,2-4.9.46-9.8.12-14.7.7-3.68.44-7.5-.56-11.23-.34-2.14.13-4.32.35-6.41.22-5.73-.37-11.44.58-17.17-.01-2.83-.29-5.73.22-8.6.28-3.25.07-6.5,0-9.75.05-4.04.08-8.09.44-12.12.3-3.98-.14-7.94.06-11.92,0-4.62-.06-9.25.08-13.87.04-3.92-.04-7.84.17-11.76-.12-1.17-.09-1.41-.21-1.39-1.31.06-3.31.1-6.63-.02-9.93-.04-1.18.79-.81,1.15-.8,8.56.17,17.11-.16,25.67-.16,8.87,0,17.73-.17,26.59-.3,4.91-.07,9.84-.22,14.74-.12,1.45.03,3.13-.29,4.59.45.77.39,1.05-.59,1.91-.57,6.6.13,13.2-.12,19.79.08,1.59.05,3.19-.4,4.8.05.96.27,1.8-.35,1.42-1.42-1.69-4.69-2.72-9.62-4.98-14.11-1.13-3.93-2.2-7.89-4.08-11.56-1.12-4.77-2.83-9.34-4.66-13.87-1.13-3.91-2.33-7.79-3.99-11.51.01-2.28-1.66-3.7-2.76-5.41-1.5-2.31-3.4-4.36-5.27-6.3-1.87-1.94-3.69-3.95-5.29-6.05-2.35-3.08-5.07-5.82-7.55-9.15-4.36,9.4-8.66,18.56-12.64,27.86-5.87.18-11.74.36-17.6.56-3.01.1-6.02.06-9.03.3-1.98.16-4.08.7-6.03-.32,2.53-6.9,4.17-14.07,6.34-21.08,2.06-6.68,3.98-13.45,5.75-20.24,1.01-3.9,2.18-7.77,3.31-11.63.56-1.93-.19-3.68-.69-5.43-2.15-7.52-2.91-15.21-2.62-22.97.21-5.69.48-11.41,1.6-17,.7-3.47.66-7.08,1.79-10.41.81-2.39.8-4.88,1.55-7.27,1.16-3.68,2-7.47,2.99-11.27-4.76.44-9.33,1.5-13.95,2.23-3.15.5-2.43,3.35-2.49,4.93-.16,4.07-1.35,7.93-1.73,11.94-.4,4.26-1.04,8.5-1.84,12.7-1.12,5.9-1.52,11.9-2.8,17.79-.34,1.58-.7,3.43-.57,5.22.14,1.89-.96,2.95-2.88,2.95-3.32,0-6.52.78-9.74,1.37-1.63.3-2.23,0-2.23-1.83.06-20.9.11-41.8-.05-62.7-.02-2.99,2.34-3.43,3.77-4.17,3.56-1.83,7-3.89,10.56-5.72,4.49-2.31,8.87-4.85,13.29-7.32,4.11-2.3,8.18-4.67,12.29-6.95,2.96-1.65,5.96-3.23,8.96-4.8,3.92-2.05,7.81-4.17,11.81-6.05,5.26-2.48,10.3-5.9,16.51-5.31,3.51.33,7.09.25,10.37,2.2,3.55,2.1,5.89,5.14,7.79,8.57,2.22,4,4.42,8.03,6.2,12.26,2.29,5.46,4.46,10.96,6.44,16.54,1.08,3.05,1.67,6.29,3.3,9.14.6,1.05.2,2.21.57,3.3.71,2.08,2.35,3.35,4.04,4.33,4.02,2.33,7.64,5.25,11.53,7.71,5.6,3.54,11.02,7.35,16.67,10.8,4.4,2.68,8.5,5.86,12.77,8.75,2.22,1.5,4.43,3.04,6.71,4.41,1.21.73.47,1.2.23,1.47-2.98,3.3-6.13,6.43-9,9.83-.72.85-2.14-.1-2.95-.44-6.44-2.63-13.11-4.6-19.67-6.89-4.18-1.46-8.34-2.94-12.53-4.38-3.81-1.31-7.58-2.73-11.46-3.79-2.71-.74-4.34-2.59-5.62-4.72-1.19-2-2.85-3.54-4.23-5.33-2.08-2.68-3.8-5.65-6.31-8.15-2.29,6.34-4.23,12.75-6.92,18.83-1.79,4.06-2.76,8.4-4.75,12.35-1.45,2.89.68,4.93,1.92,6.95,2.67,4.32,5.04,8.82,7.79,13.04,2.47,3.8,4.82,7.71,7.13,11.57,3.07,5.14,6.5,10.08,9.26,15.4,1.23,2.38,2.96,4.46,3.98,6.98,1.48,3.66,2.6,7.43,3.46,11.27.44,1.97.87,3.93,1.77,5.74Z"/><path class="cls-1" d="M364.55,120.6c-2.7,3.05-5.41,6.09-8.11,9.14-1.05.64-1.61,1.74-2.38,2.64-3.27,3.88-6.51,7.77-10.15,11.33-.91.89-3.39,2.23-.72,4.14,2.5,1.79,4.15,4.42,6.22,6.64,3.05,3.25,5.62,6.84,8.14,10.49,2.89,4.19,5.39,8.6,7.76,13.09,2,3.79,3.45,7.82,5.1,11.76.87,2.09,1.44,4.33,1.93,6.49.5,2.2,1.47,4.24,1.71,6.58.23,2.27.39,4.77,1.11,6.83,1.06,3.06.92,6.13,1.39,9.17.66,4.28.57,8.62.64,12.96.07,4.25-.28,8.45-.53,12.66-.49,7.9-2.38,15.58-4.59,23.13-2.42,8.28-5.37,16.39-9.39,24.06-1.86,3.55-3.9,7-5.86,10.49-2.27,4.04-5.1,7.69-7.76,11.46-1.95,2.76-4.04,5.46-6.19,7.98-3.15,3.7-6.76,7.05-10.39,10.34-2.84,2.57-6.03,4.64-8.84,7.23-2.04,1.89-4.62,3.09-6.94,4.62-4.31,2.84-8.93,5.04-13.64,7.08-4.28,1.85-8.7,3.27-13.16,4.62-1.03-3.83-2.06-7.65-3.09-11.48,2.29-.72,4.65-1.31,6.87-2.2,5.48-2.2,10.8-4.72,15.93-7.69,7.25-4.2,13.45-9.7,19.51-15.36,3.17-2.96,5.75-6.52,8.57-9.83,4.08-4.78,7.36-10.13,10.59-15.42,2.35-3.86,4.05-8.28,6.01-12.43,3.08-6.52,5.2-13.32,7.18-20.15,1.45-5.02,2.68-10.18,3.16-15.45.36-3.94.47-7.89.57-11.84.2-8.05-.65-15.96-2.01-23.86-1.05-6.13-2.79-12.06-4.8-17.91-1.97-5.73-4.99-10.96-8.11-16.11-3.25-5.37-7.1-10.33-11.16-15.11-1.89-2.23-4.09-4.19-6.16-6.27-1.36-1.37-2.85-2.64-4.07-4.13-2-2.41-1.51-5.54,1.04-8.55,2.81-3.32,5.56-6.76,8.57-9.81,4.74-4.8,8.75-10.19,13.28-15.14,4.03-4.4,7.88-8.99,11.63-13.65,2.71-3.36,5.51-6.74,8.5-9.86,3.35-3.49,6.38-7.21,9.49-10.89,4.29-5.06,8.57-10.14,13.19-14.9,6.01-6.19,13.15-10.88,20.85-14.82,3.46-1.77,6.99-3.39,10.58-4.77,1.56-.6,3.34-2.59,5.5-.92.16.13.06-.96.95-1.22,3.45-1.02,6.83-2.33,10.41-2.75,1.9-.22,3.77-.7,5.55-1.16,4.69-1.19,9.48-1.6,14.21-2.11,5.16-.56,10.38-1.35,15.63-.86.77.07,1.44.21,1.42,1.29-.05,3.11-.08,6.23,0,9.34.05,1.56-1.13,1.13-1.79,1.18-4.74.36-9.51.43-14.23.96-5.13.57-10.26,1.34-15.32,2.37-6.34,1.28-12.63,2.86-18.67,5.24-8.77,3.46-17.03,7.79-24.04,14.27-4.06,3.75-7.4,8.1-11.05,12.19-3.58,4.02-6.98,8.21-10.66,12.16-4.49,4.81-8.57,10.01-12.83,15.04-2.18,2.57-4.37,5.12-6.56,7.68Z"/><path class="cls-1" d="M256.77,346.31c1.88,3.67,2.95,7.62,4.08,11.56-1.61.63-3.31.47-4.96.5-7.37.12-14.76.14-22.12.1-5.26-.03-10.52.24-15.79,0-4.75-.22-9.54.47-14.28.2-5.56-.31-11.1.17-16.66-.07-6.84-.29-13.72.35-20.57.21-5.52-.11-11.02.26-16.53.04-1.35-.05-1.57.49-1.52,1.64.3,6.42.08,12.86.25,19.29.15,5.51,1.3,10.8,1.98,16.18.14,1.12,1.1,2.51,1.58,3.79.95,2.55,1.83,5.28,3.14,7.49,1.46,2.46,2.49,5.28,4.29,7.42,2.97,3.55,5.14,7.62,7.16,11.59,3.84,7.56,5.94,15.73,5.6,24.42-.37,9.47-3.08,18.34-6.25,27.13-.48,1.33-1.19,1.99-2.77,1.93-3.61-.14-7.22-.04-10.97-.04.64-3.11,2.62-5.51,3.47-8.46,1.23-4.29,2.86-8.48,3.52-12.91.71-4.76,1.52-9.51.69-14.42-.56-3.29-1.71-6.31-2.91-9.35-1.83-4.65-4.47-8.91-7.09-13.11-2.52-4.04-4.72-8.22-6.87-12.44-1.47-2.86-2.66-5.85-3.5-8.99-1.47-5.49-2.89-11.03-3.21-16.7-.32-5.6-.05-11.24-.04-16.87,0-1.13-.05-2.25-.05-3.38,0-9.91,0-19.81,0-29.72v-120.14c0-.4,0-.8,0-1.2q.05-3.19,3.11-3.19c2.33,0,4.66.11,6.97-.04,1.64-.11,1.96.5,1.93,2-.09,4.8-.05,9.6-.03,14.4.03,9.49.09,18.97.1,28.46,0,5.87-.27,11.75-.06,17.61.3,8.17.04,16.35.1,24.51.08,9.95-.11,19.94-.15,29.9-.02,4.88-.61,9.82.32,14.71.17.9-.35,1.94-.33,2.96.04,3.56,0,3.57,3.45,3.55,3.92-.03,7.84-.11,11.76-.13,4.31-.02,8.62.13,12.92-.01,4.66-.15,9.38.43,13.96-.03,4.2-.43,8.33.2,12.52-.14,3.71-.3,7.53-.31,11.34.19,2.81.37,5.79-.05,8.67-.15,6.46-.22,12.91-.09,19.36-.2,4.8-.08,9.59-.07,14.39-.1Z"/><path class="cls-1" d="M248.12,320.93c1.66,3.72,2.87,7.6,3.99,11.51-3.65.71-7.39.6-11.04.68-4.39.1-8.78.29-13.17.38-7.08.14-14.17.05-21.23.54-3.9.27-7.78-.03-11.67.25-5.35.38-10.74.04-16.12.04-4.16,0-8.32.04-12.49.1-.91.01-1.34.06-1.41-1.22-.05-.87-.25-1.84-.25-2.76-.02-17.49-.02-34.98-.02-52.47,0-2.88.06-5.76-.03-8.64-.04-1.28.39-1.62,1.62-1.59,2.79.08,5.6.14,8.38-.02,1.76-.1,2.05.53,2.05,2.14-.06,16.45-.04,32.9-.04,49.36q0,3.2,3.31,3.2c.64,0,1.28-.01,1.92-.02,1.95,1.03,4.06.48,6.03.32,3.01-.24,6.02-.2,9.03-.3,5.87-.2,11.74-.37,17.6-.56,3.15.26,6.27-.43,9.39-.37,4.84.1,9.65-.24,14.47-.47,3.22-.15,6.44-.08,9.66-.11Z"/><path class="cls-3" d="M236.63,125.85c.26-11.5,8.97-19.87,18.85-20.53,13.86-.92,21.59,9.69,22.27,18.31,1.11,14.11-9.66,23.05-20.65,22.84-11.34-.22-20.28-8.97-20.48-20.63Z"/></g></svg>