<?xml version="1.0" encoding="UTF-8"?><svg id="Layer_1" xmlns="http://www.w3.org/2000/svg" viewBox="0 0 480 480"><defs><style>.cls-1{fill:#000;stroke-width:0px;}</style></defs><rect class="cls-1" x="298.01" y="292.49" width="56.99" height="56.99"/><rect class="cls-1" x="212.53" y="292.49" width="56.99" height="56.99"/><rect class="cls-1" x="127.04" y="292.49" width="56.99" height="56.99"/><rect class="cls-1" x="212.53" y="207" width="56.99" height="56.99"/><rect class="cls-1" x="298.01" y="207" width="56.99" height="56.99"/><path class="cls-1" d="M421.34,0H58.66C26.26,0,0,26.26,0,58.66v362.69c0,32.39,26.26,58.66,58.66,58.66h362.69c32.39,0,58.66-26.26,58.66-58.66V58.66c0-32.39-26.26-58.66-58.66-58.66ZM412,377.98c0,15.67-12.82,28.5-28.5,28.5H98.54c-15.67,0-28.5-12.82-28.5-28.5v-227.97c0-15.67,12.82-28.5,28.5-28.5h28.5v-28.5c0-15.67,12.82-28.5,28.5-28.5s28.5,12.82,28.5,28.5v28.5h113.98v-28.5c0-15.67,12.82-28.5,28.5-28.5s28.5,12.82,28.5,28.5v28.5h28.5c15.67,0,28.5,12.82,28.5,28.5v227.97Z"/></svg>