<?xml version="1.0" encoding="utf-8"?>
<!-- Generator: Adobe Illustrator 28.3.0, SVG Export Plug-In . SVG Version: 6.00 Build 0)  -->
<svg version="1.1" id="Layer_1" xmlns="http://www.w3.org/2000/svg" xmlns:xlink="http://www.w3.org/1999/xlink" x="0px" y="0px"
	 viewBox="0 0 50 50" style="enable-background:new 0 0 50 50;" xml:space="preserve">
<g id="Layer_1_00000166640683248710641720000018328791993368919486_">
	<path d="M43.8,42.7H50V0H7.3v8.5H0V50h43.8V42.7z M10.4,3.1h36.5v36.5h-3.2V8.5H10.4V3.1z M8.3,11.6h32.4v6.9l-4.2-4.2L19.8,32
		L9.4,21.6l-6.3,7.3V11.6H8.3z M40.7,46.9H3.1V31.8l6.3-7.3L19.8,35l16.7-17.7l4.2,4.2v21.3V46.9z"/>
	<path d="M19.8,23.9c2.9,0,5.2-2.3,5.2-5.2s-2.3-5.2-5.2-5.2s-5.2,2.3-5.2,5.2S16.9,23.9,19.8,23.9z M19.8,15.5
		c1.7,0,3.1,1.4,3.1,3.1c0,1.7-1.4,3.1-3.1,3.1c-1.7,0-3.1-1.4-3.1-3.1C16.7,16.9,18.1,15.5,19.8,15.5z"/>
</g>
</svg>
