<?xml version="1.0" encoding="UTF-8"?>
<svg id="Layer_1" data-name="Layer 1" xmlns="http://www.w3.org/2000/svg" viewBox="0 0 200 200">
  <defs>
    <style>
      .cls-1 {
        stroke-width: 0px;
      }
    </style>
  </defs>
  <g id="Layer_2" data-name="Layer 2">
    <g id="Layer_1-2" data-name="Layer 1-2">
      <path class="cls-1" d="m52.05,159.39c-13.39-.03-25.27-9.32-29.53-23.1l-.29-1.03c-.93-3.17-1.42-6.48-1.45-9.81v-61.68L.58,137.03c-2.51,10.84,3.42,21.88,13.35,24.84l128.86,37.47c1.57.44,3.18.66,4.8.66,8.34.01,15.67-6.02,17.92-14.74l7.51-25.87H52.05Z"/>
      <path class="cls-1" d="m75.58,63.63c9.2,0,16.66-8.1,16.66-18.09s-7.46-18.09-16.66-18.09-16.66,8.1-16.66,18.09h0c.01,9.99,7.46,18.08,16.66,18.09Z"/>
      <path class="cls-1" d="m179.32,0H54.87c-11.45.01-20.73,10.14-20.74,22.64v99.59c0,12.51,9.28,22.65,20.74,22.66h124.45c11.43-.05,20.68-10.18,20.68-22.66V22.64c-.01-12.48-9.25-22.6-20.68-22.64ZM55.47,18.63h125.1c2.31,0,4.18,2.03,4.18,4.53h0v64.31l-26.4-33.43c-2.82-3.51-6.89-5.54-11.18-5.57-4.31.02-8.39,2.12-11.14,5.71l-30.96,40.32-10.09-10.93c-5.71-6.19-14.96-6.19-20.68,0l-23.02,24.98V23.16c0-2.5,1.87-4.53,4.18-4.53h0Z"/>
    </g>
  </g>
</svg>