<?xml version="1.0" encoding="UTF-8"?><svg id="Layer_1" xmlns="http://www.w3.org/2000/svg" viewBox="0 0 480 480"><defs><style>.cls-1{fill:#000;stroke-width:0px;}</style></defs><polygon class="cls-1" points="411.82 339.21 405.91 376.34 441.22 376.34 435.31 339.21 411.82 339.21"/><path class="cls-1" d="M421.34,0H58.66C26.26,0,0,26.26,0,58.66v362.69c0,32.39,26.26,58.66,58.66,58.66h362.69c32.39,0,58.66-26.26,58.66-58.66V58.66c0-32.39-26.26-58.66-58.66-58.66ZM416.61,226.74c0,11.14-9.03,20.17-20.17,20.17s-20.17-9.03-20.17-20.17,9.03-20.17,20.17-20.17,20.17,9.03,20.17,20.17ZM300.72,78.8c0-4.37,3.56-7.93,7.93-7.93h80.82c4.38,0,7.94,3.56,7.94,7.93v78.63c0,4.37-3.56,7.93-7.94,7.93h-23.09c-.53,0-.98.41-1.02.95-.39,4.62,2,9.45,4.38,13.03-4.29-3.29-9.79-8.25-11.76-13.32-.16-.4-.54-.66-.96-.66h-48.37c-4.37,0-7.93-3.56-7.93-7.93v-78.63ZM319.32,225.09c0,11.14-9.03,20.17-20.17,20.17s-20.17-9.03-20.17-20.17,9.03-20.17,20.17-20.17,20.17,9.03,20.17,20.17ZM196.69,111.03c0-3.97,3.23-7.2,7.2-7.2h76.13c3.97,0,7.2,3.23,7.2,7.2v72.98c0,3.98-3.23,7.21-7.2,7.21h-55.34c-2.92,6.3-12.04,11.83-12.44,12.07-.16.1-.35.15-.53.15-.3,0-.61-.13-.81-.39-.32-.4-.29-.99.07-1.36.06-.06,5.3-5.5,5.57-10.47h-12.65c-3.97,0-7.2-3.23-7.2-7.21v-72.98ZM223.3,276.74c4.07-.1-6.02,7.44-15.28-2.64-4.91-5.34-3.87-14.84-4.42-21.86,2.33-3.4,3.71-7.52,3.73-11.94,4.47,2.87,8.02,8.33,7.55,19.02-.67,15.02,4.35,17.52,8.42,17.42ZM220.29,273.23l-.65.1c-1.31-1.35-2.76-4.43-2.76-11.37l16.33-2.43,21.12-27.45c1.96-2.55,5.62-3.03,8.17-1.06,2.55,1.96,3.03,5.62,1.07,8.17l-22.55,29.32c-.92,1.2-2.27,1.99-3.76,2.21l-16.96,2.52ZM193.37,222.39c9.84,4.07,14.51,15.35,10.43,25.19-4.07,9.84-15.35,14.51-25.19,10.43-9.84-4.07-14.51-15.35-10.43-25.19s15.35-14.51,25.19-10.43ZM80.38,96.94c0-5.51,4.48-9.99,10-9.99h80.82c5.51,0,9.99,4.48,9.99,9.99v78.63c0,5.51-4.48,10-9.99,10h-47.68c-4.04,9.13-17.44,17.27-18.02,17.62-.17.1-.35.14-.53.14-.31,0-.61-.13-.81-.39-.32-.4-.29-.98.07-1.36.08-.08,8.16-8.47,8.24-16.01h-22.09c-5.52,0-10-4.49-10-10v-78.63ZM82.85,220.48c11.14,0,20.17,9.03,20.17,20.17s-9.03,20.17-20.17,20.17-20.17-9.03-20.17-20.17,9.03-20.17,20.17-20.17ZM88.35,382.75c-1.4,3.89-4.73,6.53-8.52,7.23l3.05,19.19-5.02.8-2.87-18.01h-37.1l-2.87,18.01-5.02-.8,9.55-59.97h-1.89c-1.48,0-2.7-1.21-2.7-2.7v-.23c0-1.48,1.21-2.7,2.7-2.7h10.99c.65.49,1.35.92,2.07,1.27l8.87,4.35h-14.89l-5.91,37.13h30.58c-2.58-2.96-3.53-7.19-2.11-11.15l3.51-9.8-1.85-11.61,15.15,7.43,4.7,20.39-.41,1.15ZM124.87,318.9s-.09,0-.14,0l-39.15-.75c-2.25-.04-4.35-1.14-5.67-2.96l-19.72-27.2c-2.33-3.21-1.61-7.69,1.59-10.02,3.21-2.33,7.69-1.61,10.02,1.6l17.63,24.3,35.58.68c3.96.08,7.11,3.35,7.04,7.31-.08,3.91-3.27,7.04-7.17,7.04ZM106.5,332.09l-3.28,9.15c-.57-.4-1.16-.78-1.8-1.09l-26.85-13.16c-.2-2.32-.26-4.68-.23-7.06l6.84-.93c1.32.74,2.81,1.18,4.36,1.21l18.48.35c.22.23.44.45.64.7,2.46,3.04,3.16,7.15,1.84,10.83ZM131.14,285.95l-30.18,7.77c-.59.15-1.19.23-1.79.23-1.18,0-2.35-.29-3.41-.86l-18.14-9.79c-.05.2-.1.39-.15.59l-4-5.52c-1.73-2.39-4.53-3.81-7.48-3.81-1.96,0-3.83.61-5.42,1.76-2,1.45-3.31,3.59-3.7,6.02-.39,2.44.2,4.88,1.64,6.87l14.52,20.02c-.13,1.09-.24,2.19-.34,3.28-.48,5.33-.61,10.71-.07,15.83l27.88,13.67c3.03,1.49,5.23,4.26,5.99,7.55l10.46,45.43c1.39,6.03-2.38,12.05-8.41,13.44-.85.19-1.69.29-2.52.29-5.1,0-9.72-3.51-10.91-8.69l-9.26-40.23-34.22-16.78c-.98-.48-1.85-1.09-2.62-1.79-3.75-2.18-6.83-6.12-8.24-13.17-.69-5.74-1.07-10.8-1.13-15.53-.14-11.68,1.72-21.38,6-34.27,4.46-13.15,15.53-17.35,23.19-15.48.75.18,1.46.46,2.13.8.44.14.87.31,1.29.54l27.84,15.02,27.46-7.07c3.84-.99,7.75,1.32,8.73,5.16.99,3.84-1.32,7.75-5.16,8.73ZM155.25,309.69c2.68-19.67,5.74-35.15,5.77-35.3.39-1.98,1.74-3.52,3.47-4.25,3.1-1.82,12.14-6.27,26.39-6.27,3.26,0,6.24.23,8.94.62l2.31-.34c.47,4.22,1.55,8.3,4.36,11.36,2.49,2.71,5,4.23,7.27,5.06-3.31,7.41-7.04,17.45-6.49,23.92.43,5.02,2.03,8.42,3.58,11.85-.23-.01-.47-.02-.71-.02-.7,0-1.41.06-2.1.19l-11.64,2.13c.35-1.91,0-3.86-1.01-5.53-1.1-1.8-2.83-3.07-4.87-3.56l-16.16-3.93c.05-.37.1-.74.13-1.13.41-4.78-1.53-11.51-3.9-17.69-.88,5.08-1.98,11.74-3.07,19.27l22.52,5.48c3.13.76,5.05,3.91,4.28,7.04-.65,2.66-3.03,4.45-5.66,4.45-.46,0-.92-.05-1.38-.17l-27.64-6.72c-2.9-.71-4.8-3.49-4.4-6.45ZM164.05,410.97l-5.61-.89,10.66-66.96h-1.98c-1.73,0-3.14-1.41-3.14-3.14,0-1.15.63-2.15,1.56-2.7,1.2,4.23,4.68,7.39,8.92,8.23l-6.22,39.07h0s13.84,0,13.84,0l-2.25,6.28h-12.59l-3.2,20.11ZM179.54,345.43l17.8-3.26c-.07.18-.15.36-.22.54l-2.96,8.25-14.62-5.53ZM188.14,411.19c-1.01,0-2.03-.17-3.03-.53-4.66-1.67-7.08-6.81-5.41-11.47l19.95-55.59c1.67-4.66,6.81-7.08,11.47-5.41,4.66,1.67,7.08,6.81,5.41,11.47l-19.95,55.59c-1.31,3.66-4.76,5.94-8.44,5.94ZM211.88,410.97l-3.2-20.11h-4.08l2.25-6.28h.83l-.25-1.59,3.98-11.1,6.08,38.19-5.61.89ZM242.48,383.06c-1.43.84-2.99,1.23-4.53,1.23-3.08,0-6.07-1.58-7.74-4.43l-13.44-22.91,2.29-6.38c1.05-2.93.9-6.09-.43-8.91-1.33-2.82-3.67-4.95-6.6-6-1.27-.46-2.59-.69-3.93-.69-3.47,0-6.68,1.56-8.86,4.1l-20.86,3.83c-4.87.89-9.54-2.33-10.44-7.2-.06-.33-.1-.65-.12-.97l-.16.09c-.23-1-.37-2.1-.37-3.34,0-2.45.18-4.16.49-5.3.27-2.12.77-3.94,1.37-5.62l17.66,4.29c.61.15,1.24.22,1.87.22,2.7,0,5.13-1.36,6.56-3.51l13.31-2.44c3.71-.68,7.44,1.03,9.35,4.28l27.79,47.37c2.51,4.27,1.08,9.76-3.2,12.27ZM275.23,400.97l-5.61-.89,3.03-19.06v8.02c0,3.25,1.17,6.23,3.11,8.54l-.54,3.38ZM297.07,389.05c0,6.12-4.96,11.08-11.09,11.08s-11.08-4.96-11.08-11.08v-60.22c0-6.12,4.96-11.08,11.08-11.08s11.09,4.96,11.09,11.08v60.22ZM312.31,400.13c-6.12,0-11.08-4.96-11.08-11.08v-60.22c0-6.12,4.96-11.08,11.08-11.08s11.09,4.96,11.09,11.08v60.22c0,6.12-4.96,11.08-11.09,11.08ZM323.06,400.97l-.54-3.38c1.94-2.32,3.11-5.29,3.11-8.54v-8.03l3.03,19.06-5.61.89ZM335,329.34c-.17,3.85-3.35,6.85-7.16,6.85-.11,0-.22,0-.33,0-.65-.03-1.28-.15-1.88-.34v-7.01c0-7.35-5.98-13.33-13.33-13.33-6.21,0-11.43,4.28-12.9,10.04h-.53c-1.47-5.76-6.69-10.04-12.9-10.04-7.35,0-13.33,5.98-13.33,13.33v7.01c-.6.19-1.22.32-1.88.34-.11,0-.22,0-.33,0-3.81,0-6.99-3-7.16-6.85-1.94-43.11,1.68-67.97,11.06-76.02,2.5-2.15,4.95-2.78,6.71-2.91.25-.03.51-.04.77-.04h34.64c.26,0,.52.02.77.05,1.76.12,4.2.76,6.71,2.91,9.38,8.05,13,32.92,11.06,76.02ZM364.21,304.84c10.02-9.76,29.03-10.63,39.35-10.29l4.76-28.34c.65-3.91,4.35-6.55,8.26-5.89,3.91.66,6.54,4.35,5.89,8.26l-5.83,34.74c-.63,3.75-4.1,6.36-7.86,5.94-9.92-1.08-28.08-.45-34.55,5.86-1.39,1.36-3.2,2.03-5,2.03s-3.73-.72-5.14-2.17c-2.76-2.84-2.7-7.38.13-10.14ZM390.73,391.04c-.92,5.47-5.67,9.34-11.04,9.34-.62,0-1.25-.05-1.88-.16-6.1-1.03-10.22-6.81-9.19-12.92l4.17-24.71,1.53,10.29c.96,6.46,6.59,11.32,13.11,11.32.65,0,1.31-.05,1.96-.14.91-.14,1.79-.36,2.62-.67l-1.29,7.64ZM389.09,382.03c-.56.08-1.11.12-1.66.12-5.46,0-10.25-4-11.07-9.56l-7.71-52c-.07-.47-.1-.94-.11-1.41.22.02.45.03.68.03,2.42,0,4.71-.93,6.44-2.62,3.66-3.57,12.86-5.7,24.61-5.7,2.92,0,5.79.14,8.28.41.34.04.69.06,1.02.06,4.52,0,8.35-3.24,9.1-7.71l5.83-34.74c.41-2.43-.16-4.88-1.59-6.89-1.43-2.01-3.56-3.34-5.99-3.75-.51-.09-1.03-.13-1.54-.13-4.52,0-8.35,3.24-9.1,7.71l-2.64,15.76c-.34-1.81-.69-3.58-1.02-5.28l-1.71,1.97-6.71,7.7c-1.39,1.59-3.37,2.46-5.41,2.46-.79,0-1.58-.13-2.35-.4l-33.56-11.65c-3.74-1.3-5.72-5.39-4.42-9.13,1.3-3.74,5.39-5.72,9.13-4.42l28.98,10.06,12.84-14.74,4.61-5.29c.33-.38.69-.71,1.07-1,1.36-1.4,3.01-2.42,4.92-2.89,7.66-1.87,18.74,2.33,23.19,15.48,6.02,18.11,7.28,29.89,4.87,49.8-1.12,5.62-3.31,9.26-6.04,11.61-2.05,2.58-5.22,4.25-8.77,4.25h-30.52l5.81,39.15c.91,6.12-3.32,11.82-9.44,12.73ZM444.98,399.97l-2.87-18.01h-37.1l-2.87,18.01-5.02-.8,9.55-59.97h-.51l-7.76,6.36-.69,4.09-2.59-17.45h19.59l-1.68,1.38h29.32c1.48,0,2.7,1.21,2.7,2.7v.23c0,1.48-1.21,2.7-2.7,2.7h-1.89l9.55,59.97-5.02.8Z"/></svg>