<?xml version="1.0" encoding="UTF-8"?><svg id="Layer_1" xmlns="http://www.w3.org/2000/svg" viewBox="0 0 480 480"><defs><style>.cls-1{fill:#000;}.cls-1,.cls-2{stroke-width:0px;}.cls-2{fill:#fff;}</style></defs><path class="cls-1" d="M329.43,248.91c-3.17-2.16-7.53-1.34-9.7,1.83l-38.37,56.18c-2.16,3.17-1.34,7.53,1.83,9.7s7.53,1.34,9.7-1.83l38.37-56.18c2.16-3.17,1.34-7.53-1.83-9.7Z"/><path class="cls-1" d="M315.42,338.63c3.17,2.16,7.53,1.34,9.7-1.83l38.37-56.18c2.16-3.17,1.34-7.53-1.83-9.7s-7.53-1.34-9.7,1.83l-38.37,56.18c-2.16,3.17-1.34,7.53,1.83,9.7Z"/><path class="cls-1" d="M353.1,355.31c.64-.94,1.37-1.85,2.2-2.68l38.09-38.09c.12-1.32.07-2.67-.18-4.01-.29-1.53-.81-2.98-1.54-4.3-1.05-1.89-2.52-3.52-4.35-4.77l-2.73-1.86-36.06,52.8,2.73,1.86c.59.4,1.21.74,1.84,1.05Z"/><path class="cls-1" d="M403.79,264.88c8.34,2.07,14.79-.16,18.42-2.1,6.7-3.57,11.5-10.09,11.69-15.85.14-4.51-.62-7.59-1.55-9.65-4.47,2.92-9.55,4.46-14.78,4.46-1.67,0-3.35-.16-5.04-.47-4.07-.76-6.76-4.67-6-8.74.76-4.07,4.68-6.76,8.74-6,4.29.8,7.52-.75,9.48-2.2,3.31-2.43,5.52-6.45,6.07-11.03,1.08-9.07-4.7-17.97-12.62-19.45-3.54-.66-7.06.25-9.93,2.54-1.76,1.42-4.07,1.96-6.28,1.48-2.21-.48-4.09-1.93-5.11-3.95-2.09-4.14-5.44-7.07-9.32-8.23,3.47,5.58,4.43,12.76,2.01,19.37-1.11,3.04-3.98,4.93-7.05,4.93-.85,0-1.72-.15-2.57-.46-3.89-1.42-5.9-5.72-4.48-9.62,1.17-3.2-.26-7.17-3.04-8.51-1.29-.62-2.35-.42-3.02-.15-1.14.46-2.05,1.49-2.56,2.89-1.42,3.89-5.72,5.9-9.62,4.48-3.89-1.42-5.9-5.72-4.48-9.62,1.95-5.35,5.96-9.59,11-11.64,2.15-.87,4.38-1.3,6.63-1.35-2.35-3.77-5.94-6.44-9.91-7.18-6.35-1.18-12.4,2.75-14.71,9.55-.79,2.32-2.67,4.11-5.02,4.79-2.36.68-4.9.16-6.8-1.38-1.89-1.53-3.98-2.52-6.21-2.94-4.28-.79-7.52.75-9.48,2.2-3.31,2.43-5.52,6.45-6.07,11.03-.78,6.56,2.03,13.02,6.65,16.66,4.62-1.89,10.07-1.52,14.47,1.49l63.94,43.67c3.82,2.61,6.07,6.67,6.56,10.96Z"/><path class="cls-1" d="M71.23,220.11c-2.47-.22-4.87.23-7.15,1.32-8.46,4.06-12.12,15.47-8.15,25.44,1.99,4.99,5.68,8.85,10.11,10.58,2.49.97,6.31,1.7,10.58-.14,1.07-4.06,3.77-7.68,7.78-9.74l68.86-35.42c7.19-3.7,16.02-1.09,20.13,5.75,6.02-3.74,10.06-8.65,11.73-14.33,1.75-5.97.74-12.58-2.94-19.11-7.67-13.61-21.22-11.73-28.02-8.47-3.93,1.89-6.97,5.49-8.57,10.14-.75,2.17-2.45,3.89-4.61,4.64-2.17.76-4.57.48-6.5-.75-4.37-2.78-9.43-3.15-13.87-1.02-.61.29-1.19.64-1.75,1.01,1.72.63,3.38,1.49,4.93,2.6,4.88,3.49,8.24,9.05,9.22,15.26.65,4.09-2.14,7.93-6.23,8.58-4.1.65-7.93-2.14-8.58-6.23-.36-2.27-1.5-4.24-3.14-5.41-.81-.58-2.12-1.22-3.7-.94-3.19.55-5.34,4.47-4.69,8.56.65,4.09-2.14,7.93-6.23,8.58-.4.06-.79.09-1.18.09-3.63,0-6.81-2.63-7.4-6.33-1.55-9.82,3.06-19.18,10.79-23.49-4.33-2.81-9.47-3.27-13.99-1.1-7.03,3.37-10.97,12.26-9.37,21.13.41,2.3-.27,4.66-1.84,6.39-1.58,1.73-3.88,2.61-6.19,2.41Z"/><path class="cls-1" d="M80.73,309.56c1.85.87,3.58,2.05,5.11,3.58l31.04,31.04-25.59-49.74-2.94,1.51c-5.19,2.67-8.03,8.12-7.63,13.6Z"/><path class="cls-1" d="M189.81,323.89c3.41-1.76,4.77-5.98,3.01-9.4l-31.12-60.5c-1.75-3.41-5.98-4.77-9.4-3.01-3.41,1.75-4.77,5.98-3.01,9.39l31.12,60.5c1.75,3.41,5.98,4.77,9.4,3.01Z"/><path class="cls-1" d="M117.59,268.84c-3.41,1.75-4.77,5.98-3.01,9.39l31.12,60.5c1.75,3.41,5.98,4.77,9.4,3.01,3.41-1.76,4.77-5.98,3.01-9.4l-31.12-60.5c-1.76-3.41-5.98-4.77-9.4-3.01Z"/><circle class="cls-2" cx="185.89" cy="115.97" r="9.96"/><path class="cls-1" d="M421.34,0H58.66C26.26,0,0,26.26,0,58.66v362.69c0,4.53.53,8.93,1.5,13.16v-37.34l28.4-28.64h.16c-7.12-7-7.12-18.46,0-25.58l29.5-29.31c-2.1-14.63,5.1-29.66,18.96-36.79l2.94-1.51-1.66-3.23c-2.8.88-5.68,1.34-8.58,1.34-3.57,0-7.16-.67-10.62-2.02-8.3-3.24-15.07-10.16-18.6-19-6.83-17.14.17-37.11,15.6-44.51,2.03-.98,4.16-1.7,6.34-2.18.52-12.55,7.36-23.86,18.22-29.07,8.88-4.26,19.13-3.62,27.6,1.39,1.38-.98,2.83-1.84,4.36-2.57,6.57-3.15,13.95-3.66,20.83-1.6,3.16-4.98,7.52-8.91,12.74-11.42,15.39-7.38,36.67-4.73,47.58,14.62,5.71,10.14,7.19,20.75,4.26,30.7-2.79,9.49-9.57,17.74-19.2,23.45l49.84,96.89c3.85,7.49.88,16.78-6.61,20.63l-68.86,35.42c-7.49,3.85-16.78.88-20.63-6.61l-3.68-7.14-.46.23c-.83,2.84-2.37,5.51-4.61,7.75l-30.02,30c-7.12,7.12-18.7,7.12-25.82,0l-.19-.11-53.51,53.04c10.71,11.48,25.96,18.66,42.89,18.66h362.69c16.95,0,32.21-7.2,42.92-18.7l-53.23-53.01.04.11c-7.12,7.12-18.66,7.12-25.78,0l-30-30c-.15-.15-.27-.31-.42-.46-5.6-.67-10.98-2.67-15.76-5.93l-2.73-1.86-4.53,6.63c-4.75,6.96-14.33,8.76-21.29,4.01l-63.94-43.67c-6.96-4.75-8.76-14.33-4.01-21.29l65.74-96.26c-7.89-6.89-12.45-17.89-11.1-29.24,1.04-8.68,5.44-16.45,12.08-21.33,6.15-4.52,13.65-6.24,21.1-4.86,1.75.33,3.48.82,5.15,1.48,6.29-8.84,16.84-13.51,27.6-11.52,8.99,1.67,16.67,7.62,21.09,16.03,1.53.02,3.06.18,4.59.46,6.62,1.23,12.53,4.75,16.99,9.97,4.71-1.9,9.86-2.42,15.04-1.46,15.68,2.91,26.8,19.05,24.78,35.97-.44,3.7-1.5,7.22-3.07,10.44,3.34,4.12,6.6,10.98,6.26,21.89-.35,11.22-8.06,22.45-19.62,28.61-5.87,3.13-12.23,4.69-18.74,4.69-3.93,0-7.91-.57-11.87-1.7l-1.94,2.84,2.73,1.86c7.84,5.35,13.12,13.46,14.89,22.84.17.89.28,1.79.38,2.68,2.12.89,4.09,2.19,5.82,3.92l29.96,30c7.12,7.12,7.04,18.66-.08,25.78l28.09,28.24v37.34c.97-4.23,1.5-8.63,1.5-13.16V58.66c0-32.39-26.26-58.66-58.66-58.66ZM65.2,154.36c-5.5,0-9.96-4.46-9.96-9.96s4.46-9.96,9.96-9.96,9.96,4.46,9.96,9.96-4.46,9.96-9.96,9.96ZM144.04,137.59c-1.94,2.82-5.07,4.34-8.25,4.34-1.95,0-3.92-.57-5.65-1.76l-43.52-29.86c-4.55-3.12-5.71-9.35-2.59-13.9,3.12-4.55,9.35-5.71,13.9-2.59l43.52,29.86c4.55,3.12,5.71,9.35,2.59,13.9ZM180.54,92.03c-1.69,1.1-3.59,1.63-5.46,1.63-3.26,0-6.46-1.59-8.38-4.53l-28.14-43.03c-3.02-4.62-1.73-10.82,2.9-13.84,4.62-3.02,10.82-1.72,13.84,2.9l28.14,43.03c3.02,4.62,1.73,10.82-2.9,13.84ZM233.5,14.52c0-5.52,4.48-10,10-10s10,4.48,10,10v55c0,5.52-4.48,10-10,10s-10-4.48-10-10V14.52ZM232.86,215.43c-2.75,0-4.98-2.23-4.98-4.98s2.23-4.98,4.98-4.98,4.98,2.23,4.98,4.98-2.23,4.98-4.98,4.98ZM247.8,196.3c-5.5,0-9.96-4.46-9.96-9.96s4.46-9.96,9.96-9.96,9.96,4.46,9.96,9.96-4.46,9.96-9.96,9.96ZM286.66,171.1c-5.5,0-9.96-4.46-9.96-9.96s4.46-9.96,9.96-9.96,9.96,4.46,9.96,9.96-4.46,9.96-9.96,9.96ZM301.74,120.95c-2.75,0-4.98-2.23-4.98-4.98s2.23-4.98,4.98-4.98,4.98,2.23,4.98,4.98-2.23,4.98-4.98,4.98ZM314.69,88.99c-1.93,2.89-5.1,4.46-8.33,4.46-1.91,0-3.83-.54-5.54-1.68-4.6-3.06-5.84-9.27-2.78-13.87l28.53-42.81c3.06-4.6,9.27-5.84,13.87-2.78,4.59,3.06,5.84,9.27,2.77,13.87l-28.53,42.81ZM393.32,110.2l-41.66,29.86c-1.76,1.26-3.8,1.87-5.82,1.87-3.12,0-6.18-1.45-8.14-4.18-3.22-4.49-2.19-10.74,2.3-13.95l41.66-29.86c4.49-3.22,10.74-2.19,13.95,2.3,3.22,4.49,2.19,10.74-2.3,13.95Z"/></svg>