<?xml version="1.0" encoding="UTF-8"?>
<svg id="Layer_1" data-name="Layer 1" xmlns="http://www.w3.org/2000/svg" viewBox="0 0 200 200">
  <defs>
    <style>
      .cls-1 {
        fill-rule: evenodd;
      }

      .cls-1, .cls-2 {
        stroke-width: 0px;
      }
    </style>
  </defs>
  <g id="building">
    <g id="building_020-town-houses-village-city" data-name="building 020-town-houses-village-city">
      <g>
        <path id="Shape" class="cls-1" d="m196.55,192.67c1.9,0,3.45-1.38,3.45-3.09s-1.54-3.09-3.45-3.09H3.45c-1.9,0-3.45,1.38-3.45,3.09s1.54,3.09,3.45,3.09h193.1Z"/>
        <path id="Shape-2" data-name="Shape" class="cls-1" d="m51.72,143.24c1.9,0,3.45-1.38,3.45-3.09s-1.54-3.09-3.45-3.09h-20.69c-1.9,0-3.45,1.38-3.45,3.09s1.54,3.09,3.45,3.09h20.69Z"/>
        <path id="Shape-3" data-name="Shape" class="cls-1" d="m58.62,87.64c1.9,0,3.45-1.38,3.45-3.09s-1.54-3.09-3.45-3.09h-20.69c-1.9,0-3.45,1.38-3.45,3.09s1.54,3.09,3.45,3.09h20.69Z"/>
        <path id="Shape-4" data-name="Shape" class="cls-1" d="m127.59,130.89c1.9,0,3.45-1.38,3.45-3.09s-1.54-3.09-3.45-3.09h-20.69c-1.9,0-3.45,1.38-3.45,3.09s1.54,3.09,3.45,3.09h20.69Z"/>
        <path id="Shape-5" data-name="Shape" class="cls-1" d="m106.9,38.22c1.9,0,3.45-1.38,3.45-3.09s-1.54-3.09-3.45-3.09h-6.9c-1.9,0-3.45,1.38-3.45,3.09s1.54,3.09,3.45,3.09h6.9Z"/>
        <path id="square" class="cls-1" d="m29.18,149.42h20.69c1.9,0,3.45,1.38,3.45,3.09v40.16h-27.59v-40.16c0-1.71,1.54-3.09,3.45-3.09Z"/>
        <path id="square-2" data-name="square" class="cls-1" d="m105.05,143.24h20.69c1.9,0,3.45,1.38,3.45,3.09v46.33h-27.59v-46.33c0-1.71,1.54-3.09,3.45-3.09Z"/>
        <path id="Shape-6" data-name="Shape" class="cls-1" d="m11.94,139.96l27.59-26.14,27.59,26.14v52.71h6.9v-54c0-.79-.34-1.55-.94-2.12l-31.03-29.4c-1.36-1.29-3.65-1.29-5.01,0l-31.03,29.4c-.61.57-.94,1.33-.94,2.12v54h6.9v-52.71Z"/>
        <path id="Shape-7" data-name="Shape" class="cls-1" d="m18.84,78.18l27.59-26.14,27.59,26.14v34.18h6.9v-35.47c0-.79-.34-1.55-.94-2.12l-31.03-29.4c-1.36-1.29-3.65-1.29-5.01,0l-31.03,29.4c-.61.57-.94,1.33-.94,2.12v58.07l6.9-6.18v-50.6Z"/>
        <path id="Shape-8" data-name="Shape" class="cls-1" d="m74.01,41.11l27.59-26.14,27.59,26.14v25.89l6.9,6.18v-33.36c0-.79-.34-1.55-.94-2.12l-31.03-29.4c-1.36-1.29-3.65-1.29-5.01,0l-31.03,29.4c-.61.57-.94,1.33-.94,2.12v10.76h6.9v-9.47Z"/>
        <rect id="Shape-9" data-name="Shape" class="cls-2" x="67.12" y="137.07" width="20.69" height="6.18"/>
        <rect id="Shape-10" data-name="Shape" class="cls-2" x="136.08" y="75.29" width="6.9" height="18.53"/>
        <rect id="Shape-11" data-name="Shape" class="cls-2" x="170.56" y="38.22" width="6.9" height="67.96"/>
        <rect id="Shape-12" data-name="Shape" class="cls-2" x="184.36" y="118.53" width="6.9" height="74.13"/>
        <path id="Shape-13" data-name="Shape" class="cls-1" d="m87.8,121.42l27.59-26.14,27.59,26.14v71.24h6.9v-72.53c0-.79-.34-1.55-.94-2.12l-31.03-29.4c-1.36-1.29-3.65-1.29-5.01,0l-31.03,29.4c-.61.57-.94,1.33-.94,2.12v72.53h6.9v-71.24Z"/>
        <path id="Shape-14" data-name="Shape" class="cls-1" d="m129.18,38.22v6.18h46.9c3.07,0,4.61-3.33,2.44-5.27l-34.48-30.89c-.65-.58-1.52-.9-2.44-.9h-40v6.18l27.59,24.71Z"/>
        <path id="Shape-15" data-name="Shape" class="cls-1" d="m74.01,75.29v6.18h67.59c3.07,0,4.61-3.33,2.44-5.27l-34.48-30.89c-.65-.58-1.52-.9-2.44-.9h-60.69v6.18l27.59,24.71Z"/>
        <path id="Shape-16" data-name="Shape" class="cls-1" d="m142.98,118.53v6.18h46.9c3.07,0,4.61-3.33,2.44-5.27l-34.48-30.89c-.65-.58-1.52-.9-2.44-.9h-40v6.18l27.59,24.71Z"/>
        <path id="Shape-17" data-name="Shape" class="cls-1" d="m73,143.24l-33.48-30.89v-6.18h40c.91,0,1.79.33,2.44.9l9.18,8.22-3.34,3.24v24.7h-14.8Z"/>
      </g>
    </g>
  </g>
</svg>