<?xml version="1.0" encoding="utf-8"?>
<!-- Generator: Adobe Illustrator 28.3.0, SVG Export Plug-In . SVG Version: 6.00 Build 0)  -->
<svg version="1.1" id="Layer_1" xmlns="http://www.w3.org/2000/svg" xmlns:xlink="http://www.w3.org/1999/xlink" x="0px" y="0px"
	 viewBox="0 0 24 24" style="enable-background:new 0 0 24 24;" xml:space="preserve">
<style type="text/css">
	.st0{fill-rule:evenodd;clip-rule:evenodd;}
</style>
<path class="st0" d="M0,6c0-3.3,2.7-6,6-6h12c3.3,0,6,2.7,6,6v12c0,3.3-2.7,6-6,6H6c-3.3,0-6-2.7-6-6V6z M6,2.2
	C3.9,2.2,2.2,3.9,2.2,6v12c0,2.1,1.7,3.8,3.8,3.8h12c2.1,0,3.8-1.7,3.8-3.8V6c0-2.1-1.7-3.8-3.8-3.8H6z"/>
<path class="st0" d="M8.8,9.9C9.1,9.8,9.6,9.8,9.9,10l5.5,3.8c0.3,0.2,0.5,0.5,0.5,0.9c0,0.4-0.2,0.7-0.5,0.9l-5.5,3.8
	c-0.3,0.2-0.8,0.3-1.1,0.1c-0.4-0.2-0.6-0.6-0.6-1v-7.6C8.2,10.5,8.4,10.1,8.8,9.9z M10.4,13v3.4l2.5-1.7L10.4,13z"/>
<path class="st0" d="M0,7.6C0,7,0.5,6.5,1.1,6.5h21.8C23.5,6.5,24,7,24,7.6c0,0.6-0.5,1.1-1.1,1.1H1.1C0.5,8.7,0,8.2,0,7.6z"/>
<path class="st0" d="M7.3,0.1c0.6-0.2,1.2,0.1,1.4,0.7l2.2,6.5c0.2,0.6-0.1,1.2-0.7,1.4C9.6,8.9,9,8.6,8.8,8L6.6,1.4
	C6.4,0.9,6.7,0.2,7.3,0.1z"/>
<path class="st0" d="M13.8,0.1c0.6-0.2,1.2,0.1,1.4,0.7l2.2,6.5c0.2,0.6-0.1,1.2-0.7,1.4c-0.6,0.2-1.2-0.1-1.4-0.7l-2.2-6.5
	C13,0.9,13.3,0.2,13.8,0.1z"/>
</svg>
