<?xml version="1.0" encoding="utf-8"?>
<!-- Generator: Adobe Illustrator 28.3.0, SVG Export Plug-In . SVG Version: 6.00 Build 0)  -->
<svg version="1.1" id="Layer_1" xmlns="http://www.w3.org/2000/svg" xmlns:xlink="http://www.w3.org/1999/xlink" x="0px" y="0px"
	 viewBox="0 0 56.7 56.7" style="enable-background:new 0 0 56.7 56.7;" xml:space="preserve">
<g>
	<path d="M28.4,13.6c-8,0-14.6,6.5-14.6,14.6s6.5,14.6,14.6,14.6S43,36.2,43,28.2S36.4,13.6,28.4,13.6z M28.4,37.6
		c-5.1,0-9.4-4.2-9.4-9.4s4.2-9.4,9.4-9.4s9.4,4.2,9.4,9.4S33.5,37.6,28.4,37.6z"/>
	<circle cx="43.6" cy="13.3" r="3.3"/>
	<path d="M52.1,4.7c-3-3.1-7.2-4.7-12-4.7H16.6C6.6,0,0,6.6,0,16.6V40c0,4.9,1.6,9.1,4.8,12.2c3.1,3,7.2,4.5,11.9,4.5H40
		c4.9,0,9-1.6,12-4.5c3.1-3,4.7-7.2,4.7-12.1V16.6C56.7,11.8,55.1,7.7,52.1,4.7z M51.7,40.1c0,3.5-1.3,6.4-3.3,8.3
		c-2.1,1.9-4.9,3-8.3,3H16.7c-3.4,0-6.3-1-8.3-3c-2.1-2.1-3.1-4.9-3.1-8.5V16.6c0-3.4,1-6.3,3.1-8.3c1.9-1.9,4.9-3,8.3-3h23.5
		c3.4,0,6.3,1,8.3,3.1c1.9,2.1,3.1,4.9,3.1,8.2V40.1L51.7,40.1z"/>
</g>
</svg>
