<?xml version="1.0" encoding="UTF-8"?>
<svg id="Layer_1" data-name="Layer 1" xmlns="http://www.w3.org/2000/svg" viewBox="0 0 200 200">
  <defs>
    <style>
      .cls-1 {
        stroke-width: 0px;
      }
    </style>
  </defs>
  <path class="cls-1" d="m162.71,192.61l-18.15-28.55h2.84c8.34,0,15.16-6.82,15.16-15.16v-79.69c0-16.56-13.59-30.16-30.31-30.16h-25.16l22.66-32.81h2.9c1.09,0,3.12.63,4.22,1.09l5.16,3.12c.47.31,1.09.47,1.72.47,1.09,0,2.03-.47,2.66-1.56.94-1.41.47-3.44-1.09-4.22l-5.16-3.13c-2.03-1.09-5.16-2.03-7.34-2.03h-66.88c-2.34,0-5.47.94-7.34,2.03l-5.16,3.13c-1.41.94-2.03,2.81-1.09,4.22s2.81,2.03,4.22,1.09l5.16-3.12c1.09-.47,3.12-1.09,4.22-1.09h4.44l22.66,32.81h-25.16c-16.74,0-30.31,13.57-30.31,30.31v79.53c0,8.34,6.82,15.16,15.16,15.16h2.5l-17.97,28.75c-1.41,2.19-.62,5.16,1.56,6.41.78.47,1.56.78,2.5.78,1.56,0,3.12-.78,4.06-2.19l7.34-11.87h94.64l7.6,11.79c.93,1.4,2.33,2.17,3.88,2.17.93,0,1.71-.31,2.48-.78,2.17-1.55,2.79-4.19,1.4-6.52ZM77.18,6.25h44.37l-22.19,32.03L77.18,6.25Zm69.53,132.34c-.83,4.08-4.26,7.25-8.38,7.88-2.47.38-4.28-.17-6.09-.97-3.28-1.56-5.47-4.84-5.62-8.75v-.19c0-4.51,2.87-8.66,7.22-9.87,7.64-2.12,14.42,4.34,12.88,11.91Zm-60.63-90.15h26.29c2.35,0,4.58,1.36,5.39,3.56,1.37,3.72-1.53,7.37-5.12,7.37h-26.29c-2.35,0-4.58-1.36-5.39-3.56-1.37-3.72,1.53-7.37,5.12-7.37Zm-32.9,30.35c0-5.49,4.52-10.04,10.14-10.04h73.45c5.59,0,10.16,4.57,10.16,10.16v25.45c0,2.82-2.34,5.02-4.99,5.02H58.18c-2.76,0-5-2.24-5-5v-25.59Zm10.16,67.8c-6.24,0-11.13-5.57-9.99-12.03.66-3.75,3.51-6.89,7.18-7.9,6.29-1.73,12.23,2.6,12.96,8.68v1.09c0,4.38-2.81,8.12-6.72,9.53-1.09.47-2.19.63-3.44.63Zm-5.53,29.98l7.81-12.5h67.03l7.97,12.5H57.81Z"/>
</svg>