<?xml version="1.0" ?><svg xmlns="http://www.w3.org/2000/svg" xmlns:xlink="http://www.w3.org/1999/xlink" version="1.1" id="Solid" viewBox="0 0 396.176 504" style="enable-background:new 0 0 396.176 504;" xml:space="preserve"><g><ellipse cx="276.974" cy="82.237" rx="13.642" ry="25.584"/><path d="M67.896,69.664c0-7.174-5.837-13.011-13.011-13.011H50.75v26.022h4.136C62.06,82.675,67.896,76.838,67.896,69.664z"/><path d="M392.176,0H4C1.791,0,0,1.791,0,4v496c0,2.209,1.791,4,4,4h388.176c2.209,0,4-1.791,4-4V4   C396.176,1.791,394.385,0,392.176,0z M276.974,48.652c12.136,0,21.642,14.752,21.642,33.584s-9.506,33.584-21.642,33.584   s-21.642-14.752-21.642-33.584S264.838,48.652,276.974,48.652z M235.267,52.652c0-2.209,1.791-4,4-4s4,1.791,4,4v59.169   c0,2.209-1.791,4-4,4s-4-1.791-4-4V52.652z M195.769,48.652h23.836c2.209,0,4,1.791,4,4s-1.791,4-4,4h-7.918v55.169   c0,2.209-1.791,4-4,4s-4-1.791-4-4V56.652h-7.918c-2.209,0-4-1.791-4-4S193.56,48.652,195.769,48.652z M172.106,52.652   c0-2.209,1.791-4,4-4s4,1.791,4,4v59.169c0,2.209-1.791,4-4,4s-4-1.791-4-4V52.652z M132.608,48.652h23.837c2.209,0,4,1.791,4,4   s-1.791,4-4,4h-7.918v55.169c0,2.209-1.791,4-4,4s-4-1.791-4-4V56.652h-7.919c-2.209,0-4-1.791-4-4S130.399,48.652,132.608,48.652z    M85.245,52.652c0-2.209,1.791-4,4-4h26.126c2.209,0,4,1.791,4,4s-1.791,4-4,4H93.245v21.584h22.126c2.209,0,4,1.791,4,4   s-1.791,4-4,4H93.245v21.584h22.126c2.209,0,4,1.791,4,4s-1.791,4-4,4H89.245c-2.209,0-4-1.791-4-4V52.652z M79.292,165.65h237.592   c2.209,0,4,1.791,4,4s-1.791,4-4,4H79.292c-2.209,0-4-1.791-4-4S77.083,165.65,79.292,165.65z M42.75,111.821V52.652   c0-2.209,1.791-4,4-4h8.136c11.585,0,21.011,9.426,21.011,21.011s-9.426,21.011-21.011,21.011H50.75v21.146c0,2.209-1.791,4-4,4   S42.75,114.03,42.75,111.821z M155.732,357.993H50.87c-2.209,0-4-1.791-4-4s1.791-4,4-4h104.862c2.209,0,4,1.791,4,4   S157.941,357.993,155.732,357.993z M155.732,311.907H50.87c-2.209,0-4-1.791-4-4s1.791-4,4-4h104.862c2.209,0,4,1.791,4,4   S157.941,311.907,155.732,311.907z M322.22,466.556h-69.43c-2.209,0-4-1.791-4-4s1.791-4,4-4h69.43c2.209,0,4,1.791,4,4   S324.429,466.556,322.22,466.556z M344.201,423.227c-2.913,2.469-17.971,14.56-28.351,10.077   c-6.68-2.886-8.252-11.183-8.349-17.891c-13.141,9.648-41.388,28.598-60.516,28.599c-0.962,0-1.899-0.048-2.813-0.147   c-8.229-0.896-14.296-5.285-17.543-12.689c-6.122-13.964-0.646-35.163,7.94-46.796c8.214-11.128,21.292-19.477,32.546-20.775   c5.826-0.671,10.788,0.572,14.342,3.597c10.668,9.083,3.458,29.017,2.601,31.26c-0.789,2.063-3.1,3.099-5.164,2.308   c-2.063-0.788-3.096-3.098-2.311-5.16c1.641-4.323,5.105-17.704-0.312-22.317c-2.303-1.958-5.754-2.029-8.239-1.741   c-9.188,1.06-20.048,8.125-27.025,17.579c-7.145,9.679-11.797,28.008-7.051,38.832c2.089,4.764,5.714,7.365,11.083,7.949   c17.788,1.938,52.659-22.576,64.595-32.184c1.296-1.045,3.105-1.177,4.541-0.33c1.435,0.846,2.194,2.493,1.908,4.134   c-1.111,6.438-0.946,16.75,2.938,18.429c4.33,1.869,14.496-4.167,20.006-8.836c1.684-1.427,4.21-1.22,5.638,0.466   C346.095,419.274,345.887,421.798,344.201,423.227z M345.306,265.821H50.87c-2.209,0-4-1.791-4-4s1.791-4,4-4h294.436   c2.209,0,4,1.791,4,4S347.515,265.821,345.306,265.821z M345.306,219.736H50.87c-2.209,0-4-1.791-4-4s1.791-4,4-4h294.436   c2.209,0,4,1.791,4,4S347.515,219.736,345.306,219.736z M353.426,111.821c0,1.82-1.229,3.411-2.99,3.871   c-0.336,0.087-0.675,0.13-1.01,0.13c-1.422,0-2.771-0.761-3.49-2.046l-25.639-45.792v43.837c0,2.209-1.791,4-4,4s-4-1.791-4-4   V52.652c0-1.82,1.229-3.411,2.99-3.871c1.764-0.457,3.61,0.329,4.5,1.917l25.639,45.792V52.652c0-2.209,1.791-4,4-4s4,1.791,4,4   V111.821z"/></g></svg>