<?xml version="1.0" encoding="UTF-8"?><svg id="Layer_1" xmlns="http://www.w3.org/2000/svg" viewBox="0 0 480 480"><defs><style>.cls-1{fill:#000;stroke-width:0px;}</style></defs><path class="cls-1" d="M421.34,0H58.66C26.26,0,0,26.26,0,58.66v362.69c0,32.39,26.26,58.66,58.66,58.66h362.69c32.39,0,58.66-26.26,58.66-58.66V58.66c0-32.39-26.26-58.66-58.66-58.66ZM193.22,212.07l67.82,67.81-85.26,65.9-48.44-48.45,65.88-85.25ZM133.7,404.07l-66.69,18.21c-.55,2.46-1.55,4.85-3.46,6.78-5.39,5.39-14.12,5.37-19.5,0-5.39-5.39-5.39-14.12,0-19.52,1.91-1.91,4.28-2.89,6.75-3.45l18.25-66.69c.92-4.05,3.53-7.52,7.18-9.51l39.43-21.01,48.57,48.57-21.01,39.43c-1.99,3.65-5.47,6.28-9.51,7.19ZM412.42,428.52c0,1.25-.51,2.44-1.43,3.3-.9.86-2.13,1.31-3.37,1.23-26.97-1.47-37.01-15.46-41.49-26.4-.35.43-.7.83-1.01,1.21-9.95,12.07-20.27,25.24-32.69,25.24-14.6,0-20.78-16.22-25.3-27.56-.16-.43-.35-.86-.54-1.35-.78.89-1.54,1.78-2.24,2.59-9.51,10.94-22.52,26.32-41.25,26.32-10.1,0-15.87-4.63-18.94-8.22-8.54-9.94-6.1-25.19-3.96-38.63.22-1.37.49-3.02.73-4.71-10.48,17.2-29.65,49.29-72.04,51.55-1.24.07-2.45-.39-3.35-1.24-.9-.86-1.41-2.05-1.41-3.29v-12.86c0-2.4,1.84-4.38,4.23-4.53,30.41-1.95,43.88-24.83,53.81-41.11,6.45-10.59,12.03-19.72,22.32-19.72,7.51,0,11.99,3.37,14.43,6.22,7.02,8.16,5.09,20.29,3.03,33.11-.93,5.9-2.88,18.13-1.04,20.96-.01-.16.71.19,2.2.19,8.65,0,17.48-10.18,24.58-18.37,7.23-8.32,12.94-14.52,21.46-14.52,10.52,0,14.55,9.73,18.45,19.53,1.4,3.56,3.85,9.7,5.82,12.45,3.56-2.48,10.94-11.42,14.68-15.95,8.27-10.02,13.74-15.98,21.66-16.03h.11c10.44,0,13.25,9.38,14.63,14.22,2.45,8.73,4.99,17.82,23.65,19.01,2.4.15,4.26,2.13,4.26,4.51v12.85ZM428.7,179.8l-90.9,90.88c-5.02,5.04-13.16,5.02-18.17,0-5.02-5.01-5.04-13.15,0-18.17l90.88-90.9c5.02-5.02,5.02-13.17,0-18.18l-6.52-6.52-131.34,131.36-67.81-67.82L344.35,60.93c18.71-18.71,49.08-18.71,67.82,0,15.22,15.22,17.83,38.04,8.32,56.14l8.2,8.19c15.06,15.06,15.07,39.47,0,54.54Z"/><path class="cls-1" d="M99.21,354.38c-4.07,4.07-5.05,10.02-2.98,15.03l-37.16,37.16c1.62.67,3.15,1.64,4.47,2.96,1.32,1.33,2.3,2.87,2.98,4.5l37.16-37.16c5.01,2.07,10.96,1.08,15.03-2.99,5.39-5.39,5.39-14.12,0-19.51s-14.12-5.39-19.5,0Z"/></svg>