<?xml version="1.0" encoding="utf-8"?>
<!-- Generator: Adobe Illustrator 28.3.0, SVG Export Plug-In . SVG Version: 6.00 Build 0)  -->
<svg version="1.1" id="Layer_3" xmlns="http://www.w3.org/2000/svg" xmlns:xlink="http://www.w3.org/1999/xlink" x="0px" y="0px"
	 viewBox="0 0 24 24" style="enable-background:new 0 0 24 24;" xml:space="preserve">
<path d="M14.8,8.5c-1.9,0-3.5,1.6-3.5,3.5v4.2c0,1.9,1.6,3.5,3.5,3.5c1.9,0,3.5-1.6,3.5-3.5V12C18.4,10.1,16.8,8.5,14.8,8.5z
	 M16.9,16.2c0,1.2-0.9,2.1-2.1,2.1s-2.1-0.9-2.1-2.1V12c0-1.2,0.9-2.1,2.1-2.1s2.1,0.9,2.1,2.1V16.2z"/>
<path d="M9.9,16.2c0,2.7,2.2,4.9,4.9,4.9s4.9-2.2,4.9-4.9c0-0.4,0.3-0.7,0.7-0.7c0.4,0,0.7,0.3,0.7,0.7c0,3.2-2.4,5.9-5.6,6.3v0.1
	h2.1c0.4,0,0.7,0.3,0.7,0.7c0,0.4-0.3,0.7-0.7,0.7H12c-0.4,0-0.7-0.3-0.7-0.7c0-0.4,0.3-0.7,0.7-0.7h2.1v-0.1
	c-3.2-0.4-5.6-3.1-5.6-6.3c0-0.4,0.3-0.7,0.7-0.7S9.9,15.8,9.9,16.2z"/>
<path d="M24,2.1v16.2c0,1.2-0.9,2.1-2.1,2.1h-0.4c-0.4,0-0.7-0.3-0.7-0.7c0-0.4,0.3-0.7,0.7-0.7h0.4c0.4,0,0.7-0.3,0.7-0.7V2.1
	c0-0.4-0.3-0.7-0.7-0.7H2.1c-0.4,0-0.7,0.3-0.7,0.7v16.2c0,0.4,0.3,0.7,0.7,0.7H3c0.2,0,0.4,0.1,0.5,0.2l2.2,2.6v-2.1
	c0-0.4,0.3-0.7,0.7-0.7h1.8c0.4,0,0.7,0.3,0.7,0.7c0,0.4-0.3,0.7-0.7,0.7H7.1v2.3c0,0.6-0.5,1.1-1.1,1.1c-0.3,0-0.6-0.1-0.7-0.3
	l-2.6-3H2.1c-1.2,0-2.1-0.9-2.1-2.1V2.1C0,0.9,0.9,0,2.1,0h19.8C23.1,0,24,0.9,24,2.1z"/>
<path d="M3.5,5.6c0.4,0,0.7,0.3,0.7,0.7v6.6c0,0.4-0.3,0.7-0.7,0.7s-0.7-0.3-0.7-0.7V6.4C2.8,6,3.1,5.6,3.5,5.6z"/>
<path d="M6.4,3.5c0.4,0,0.7,0.3,0.7,0.7V15c0,0.4-0.3,0.7-0.7,0.7S5.6,15.4,5.6,15V4.2C5.6,3.8,6,3.5,6.4,3.5z"/>
<path d="M9.2,4.9c0.4,0,0.7,0.3,0.7,0.7V11c0,0.4-0.3,0.7-0.7,0.7S8.5,11.4,8.5,11V5.6C8.5,5.3,8.8,4.9,9.2,4.9z"/>
<path d="M20.5,12.4c-0.4,0-0.7-0.3-0.7-0.7V6.4c0-0.4,0.3-0.7,0.7-0.7c0.4,0,0.7,0.3,0.7,0.7v5.3C21.2,12,20.9,12.4,20.5,12.4z"/>
<path d="M17.6,8c-0.4,0-0.7-0.3-0.7-0.7v-3c0-0.4,0.3-0.7,0.7-0.7c0.4,0,0.7,0.3,0.7,0.7v3C18.4,7.6,18,8,17.6,8z"/>
<path d="M14.8,7.2c-0.4,0-0.7-0.3-0.7-0.7V5.6c0-0.4,0.3-0.7,0.7-0.7s0.7,0.3,0.7,0.7v0.8C15.5,6.9,15.2,7.2,14.8,7.2z"/>
<path d="M12,7.6c-0.4,0-0.7-0.3-0.7-0.7V6.4c0-0.4,0.3-0.7,0.7-0.7s0.7,0.3,0.7,0.7v0.5C12.7,7.3,12.4,7.6,12,7.6z"/>
</svg>
