<?xml version="1.0" encoding="UTF-8"?>
<svg id="Layer_1" data-name="Layer 1" xmlns="http://www.w3.org/2000/svg" viewBox="0 0 480 480">
  <defs>
    <style>
      .cls-1 {
        fill: #000;
        stroke-width: 0px;
      }
    </style>
  </defs>
  <rect class="cls-1" x="155.42" y="274.28" width="16.73" height="16.73"/>
  <rect class="cls-1" x="155.42" y="250.11" width="16.73" height="16.73"/>
  <g>
    <path class="cls-1" d="M421.34,0H58.66C26.26,0,0,26.26,0,58.66v362.69c0,32.39,26.26,58.66,58.66,58.66h15.88v-134.14h176.63v134.14h170.18c32.39,0,58.66-26.26,58.66-58.66V58.66c0-32.39-26.26-58.66-58.66-58.66ZM163.9,129.87c20.52,0,37.22,16.61,37.22,37.03s-16.7,37.03-37.22,37.03-37.22-16.61-37.22-37.03,16.7-37.03,37.22-37.03ZM93.13,266.85c0-15.9,12.99-28.83,28.97-28.83h83.7c15.79,0,28.64,12.79,28.64,28.5v37.5H93.13v-37.17ZM293,336.56H34.56v-24.17h258.44v24.17ZM430,169.85c0,12.68-10.37,23.05-23.05,23.05h-66.84l-57.62,39.18v-39.18h-18.44c-12.68,0-23.05-10.37-23.05-23.05v-96.8c0-12.68,10.37-23.05,23.05-23.05h142.9c12.68,0,23.05,10.37,23.05,23.05v96.8Z"/>
    <path class="cls-1" d="M375.84,128.37h-83.9c-3.92,0-6.91,3.23-6.91,6.91,0,3.92,3.23,6.91,6.91,6.91h83.67c3.47,0,6.62-2.45,7.07-5.88.58-4.41-2.59-7.95-6.85-7.95Z"/>
    <path class="cls-1" d="M291.94,109.93h47.02c4.26,0,7.42-3.53,6.85-7.95-.45-3.44-3.6-5.88-7.07-5.88h-46.8c-3.92,0-6.91,3.23-6.91,6.91,0,3.92,3.23,6.91,6.91,6.91Z"/>
  </g>
</svg>