<?xml version="1.0" encoding="UTF-8"?>
<svg id="Layer_1" data-name="Layer 1" xmlns="http://www.w3.org/2000/svg" viewBox="0 0 200 200">
  <defs>
    <style>
      .cls-1 {
        stroke-width: 0px;
      }
    </style>
  </defs>
  <path class="cls-1" d="m138.19,200h45.37c9.08,0,16.44-6.76,16.44-15.1v-48.3h-61.81v63.4Z"/>
  <path class="cls-1" d="m138.19,126.59h61.81v-53.39h-61.81v53.39Zm12.75-23.25c.06-.06.11-.1.18-.17,1.22-1.18,3.69-3.56,3.84-3.71.2-.19.38-.44.77-.44s.64.3.84.48c.19.18,7.12,6.29,7.12,6.29l17.62-20.78c.15-.12.34-.2.56-.2s.4.08.55.19l4.84,3.51c.12.15.21.32.21.52,0,.18-.07.33-.18.47l-21.98,25.91c-.17.15-.46.5-.81.5s-.61-.23-.81-.42c-.2-.19-12.5-11.02-12.5-11.02l-.25-.21c-.11-.14-.18-.28-.18-.46s.07-.32.18-.46Z"/>
  <path class="cls-1" d="m183.55,13.14h-12.64v12.46c0,6.45-4.7,12.41-11.59,13.66-9.33,1.7-17.5-4.86-17.5-13.18v-12.94h-29.09v12.46c0,6.46-4.7,12.42-11.59,13.67-9.33,1.69-17.49-4.86-17.5-13.17v-12.96h-29.09v12.46c0,6.45-4.7,12.41-11.6,13.67-9.33,1.69-17.49-4.87-17.5-13.18h0v-12.95h-9C7.37,13.14,0,19.89,0,28.23v38.3h199.99V28.23c0-8.34-7.37-15.09-16.44-15.09Z"/>
  <path class="cls-1" d="m158.18,30.01c3.01,0,5.45-2.24,5.46-5.01V5.01c0-2.77-2.45-5.01-5.46-5.01s-5.46,2.24-5.46,5.01v19.99c0,2.77,2.45,5.01,5.46,5.01Z"/>
  <path class="cls-1" d="m72.72,200h58.18v-63.4h-58.18v63.4Zm10.65-26.66c.06-.06.11-.1.18-.17,1.22-1.18,3.69-3.56,3.84-3.71.2-.19.38-.44.77-.44s.64.3.84.48,7.12,6.29,7.12,6.29l17.62-20.78c.15-.12.34-.2.56-.2s.4.08.55.19l4.84,3.51c.12.15.21.32.21.52,0,.18-.07.33-.18.47l-21.98,25.91c-.17.15-.46.5-.81.5s-.61-.23-.81-.42c-.2-.19-12.5-11.02-12.5-11.02l-.25-.21c-.11-.14-.18-.28-.18-.46s.07-.32.18-.46Z"/>
  <rect class="cls-1" x="72.72" y="73.2" width="58.18" height="53.39"/>
  <path class="cls-1" d="m100,30.01c3.01,0,5.45-2.24,5.46-5.01V5.01c0-2.77-2.44-5.01-5.46-5.01s-5.45,2.24-5.46,5h0v20c.01,2.77,2.45,5.01,5.46,5.01Z"/>
  <path class="cls-1" d="m0,184.9c0,8.34,7.37,15.1,16.44,15.1h45.37v-63.4H0v48.3Z"/>
  <path class="cls-1" d="m0,126.59h61.81v-53.39H0v53.39Zm12.54-23.25c.06-.06.11-.1.18-.17,1.22-1.18,3.69-3.56,3.84-3.71.2-.19.38-.44.77-.44s.64.3.84.48c.19.18,7.12,6.29,7.12,6.29l17.62-20.78c.15-.12.34-.2.56-.2s.4.08.55.19l4.84,3.51c.12.15.21.32.21.52,0,.18-.07.33-.18.47l-21.98,25.91c-.17.15-.46.5-.81.5s-.61-.23-.81-.42c-.2-.19-12.5-11.02-12.5-11.02l-.25-.21c-.11-.14-.18-.28-.18-.46s.07-.32.18-.46Z"/>
  <path class="cls-1" d="m41.82,30.01c3.01,0,5.46-2.24,5.46-5.01V5.01c0-2.77-2.45-5.01-5.46-5.01s-5.46,2.24-5.46,5.01v19.99c.01,2.77,2.45,5.01,5.46,5.01Z"/>
</svg>