<?xml version="1.0" encoding="UTF-8"?><svg id="Layer_1" xmlns="http://www.w3.org/2000/svg" viewBox="0 0 480 480"><defs><style>.cls-1{fill:#000;stroke-width:0px;}</style></defs><path class="cls-1" d="M421.34,0H58.66C26.26,0,0,26.26,0,58.66v362.69c0,32.39,26.26,58.66,58.66,58.66h362.69c32.39,0,58.66-26.26,58.66-58.66V58.66C480,26.26,453.74,0,421.34,0ZM412,377.98c0,15.67-12.82,28.5-28.5,28.5H98.54c-15.67,0-28.5-12.82-28.5-28.5v-227.97c0-15.67,12.82-28.5,28.5-28.5h28.5v-28.5c0-15.67,12.82-28.5,28.5-28.5s28.5,12.82,28.5,28.5v28.5h113.98v-28.5c0-15.67,12.82-28.5,28.5-28.5s28.5,12.82,28.5,28.5v28.5h28.5c15.67,0,28.5,12.82,28.5,28.5v227.97Z"/><path class="cls-1" d="M249.61,181.65l17.64,54.29h57.08c9.78,0,13.85,12.52,5.94,18.27l-46.18,33.55,17.64,54.29c3.02,9.3-7.63,17.04-15.54,11.29l-46.18-33.55-46.18,33.55c-7.92,5.75-18.56-1.99-15.54-11.29l17.64-54.29-46.18-33.55c-7.92-5.75-3.85-18.27,5.94-18.27h57.08l17.64-54.29c3.02-9.3,16.19-9.3,19.21,0Z"/></svg>