<?xml version="1.0" ?><svg id="Layer_1" style="enable-background:new 0 0 150.779 237.775;" version="1.1" viewBox="0 0 150.779 237.775" xml:space="preserve" xmlns="http://www.w3.org/2000/svg" xmlns:xlink="http://www.w3.org/1999/xlink"><g><path d="M134.246,126.777v19.761c0.257,0.04,0.518,0.069,0.783,0.085c0.158,0.009,0.315,0.014,0.471,0.014   c4.206,0,7.733-3.283,7.982-7.535c0.252-4.333,0.41-8.42,0.501-12.324H134.246z"/><circle cx="94.066" cy="22.5" r="22.5"/><path d="M60.723,102.772c1.179-13.825,3.753-22.536,6.296-27.743v27.743h54.092V75.068c0.593,1.216,1.191,2.611,1.781,4.239   c1.909,5.292,3.61,12.896,4.508,23.465h16.048c-1.506-19.677-5.608-31.809-10.811-39.758c-3.285-4.986-7.126-8.184-10.678-9.956   c-2.322-1.17-4.45-1.721-6.146-1.964c-0.765-0.253-1.58-0.396-2.43-0.396H74.748c-0.849,0-1.663,0.142-2.426,0.395   c-1.697,0.242-3.827,0.792-6.152,1.965c-5.379,2.667-11.178,8.503-15.235,18.84c-2.613,6.603-4.675,15.088-5.836,26.212H30.455   c0.105-18.782,4.42-29.542,8.557-35.579c1.267-1.846,2.517-3.25,3.641-4.318l9.478-5.605c2.42,0.972,5.256,0.791,7.603-0.746   c3.811-2.495,4.877-7.608,2.383-11.421c-2.496-3.811-7.609-4.878-11.42-2.382c-2.347,1.535-3.649,4.063-3.724,6.667l-25.959,18.74   l3.561,5.438l9.175-5.426c-3.896,7.069-7.209,17.993-7.294,34.633H8.78v4.662H60.723z"/><polygon points="150.779,123.776 150.779,105.774 0,105.774 0,123.776 19.533,123.776 19.533,237.775 131.246,237.775    131.246,123.776  "/></g></svg>