<?xml version="1.0" ?><svg xmlns="http://www.w3.org/2000/svg" xmlns:xlink="http://www.w3.org/1999/xlink" version="1.1" id="Layer_1" width="128px" height="128px" viewBox="0 0 128 128" enable-background="new 0 0 128 128" xml:space="preserve"><g><path d="M65.852,65.399c-9.11,0.525-12.132,4.932-11.921,8.882c0.284,5.327,6.04,7.814,11.581,7.502   c5.425-0.298,11.583-2.427,12.633-15.537c-2.815-0.615-5.91-0.937-9.22-0.937C67.919,65.31,66.895,65.339,65.852,65.399z"/><path d="M104.709,0.962H23.291c-12.374,0-22.405,10.031-22.405,22.405v81.266c0,12.374,10.031,22.405,22.405,22.405h81.418   c12.374,0,22.405-10.031,22.405-22.405V23.367C127.114,10.993,117.083,0.962,104.709,0.962z M99.266,47.52   c-1.506-5.467-3.791-10.157-6.822-13.886c-6.181-7.604-15.496-11.505-27.69-11.595c-12.106,0.09-21.261,3.972-27.214,11.54   C31.966,40.665,29.085,50.9,28.978,64c0.107,13.1,2.988,23.335,8.562,30.421c5.953,7.567,15.108,11.45,27.214,11.54   c10.913-0.08,18.135-2.677,24.142-8.678c6.857-6.851,6.729-15.254,4.536-20.368c-1.29-3.008-3.625-5.511-6.776-7.412   c-0.767,5.72-2.506,10.259-5.254,13.762c-3.619,4.613-8.806,7.135-15.417,7.498c-5.007,0.273-9.824-0.934-13.564-3.403   c-4.424-2.921-7.013-7.392-7.29-12.589c-0.546-10.246,7.582-17.619,20.224-18.347c4.488-0.257,8.686-0.054,12.568,0.605   c-0.515-3.152-1.556-5.65-3.112-7.457c-2.138-2.483-5.442-3.755-9.821-3.783c-0.04,0-0.081,0-0.122,0   c-3.515,0-8.289,0.984-11.33,5.598l-7.313-5.017c4.071-6.178,10.686-9.573,18.64-9.573c0.06,0,0.12,0,0.18,0   c13.297,0.085,21.217,8.382,22.003,22.875c0.452,0.194,0.897,0.396,1.336,0.607c6.204,2.976,10.742,7.483,13.122,13.031   c3.317,7.737,3.62,20.341-6.444,30.396c-7.693,7.686-17.031,11.154-30.278,11.246h-0.06c-14.901-0.103-26.359-5.117-34.057-14.903   c-6.85-8.708-10.383-20.825-10.502-36.013l0-0.036l0-0.036c0.119-15.188,3.652-27.305,10.502-36.013   c7.698-9.786,19.156-14.8,34.057-14.903h0.06c14.931,0.104,26.52,5.099,34.443,14.847c3.909,4.81,6.782,10.609,8.608,17.339   L99.266,47.52z"/></g><g/><g/><g/><g/><g/><g/><g/><g/><g/><g/><g/><g/><g/><g/><g/></svg>