<?xml version="1.0" encoding="UTF-8"?>
<svg id="Layer_1" data-name="Layer 1" xmlns="http://www.w3.org/2000/svg" viewBox="0 0 200 200">
  <defs>
    <style>
      .cls-1 {
        stroke-width: 0px;
      }
    </style>
  </defs>
  <g id="Layer_2" data-name="Layer 2">
    <path class="cls-1" d="m179,200H21c-11.6,0-21-10.85-21-24.23V61.54h200v114.23c0,13.38-9.4,24.23-21,24.23ZM13.33,76.92v98.85c0,4.89,3.43,8.85,7.67,8.85h158c4.23,0,7.67-3.96,7.67-8.85v-98.85H13.33Z"/>
    <path class="cls-1" d="m200,76.92H0V24.23C0,10.85,9.4,0,21,0h158c11.6,0,21,10.85,21,24.23v52.69ZM13.33,61.54h173.33V24.23c0-4.89-3.43-8.85-7.67-8.85H21c-4.23,0-7.67,3.96-7.67,8.85h0v37.31Z"/>
    <polygon class="cls-1" points="84.71 63.59 103.11 1.1 115.74 6.05 97.33 68.54 84.71 63.59"/>
    <polygon class="cls-1" points="136.09 63.58 154.49 1.08 167.11 6.03 148.72 68.52 136.09 63.58"/>
    <polygon class="cls-1" points="31.24 63.62 49.64 1.13 62.27 6.08 43.86 68.57 31.24 63.62"/>
    <path class="cls-1" d="m6.67,69.23v106.54c0,9.13,6.42,16.54,14.33,16.54h158c7.92,0,14.33-7.4,14.33-16.54v-106.54H6.67Zm120,58.43l-38.79,29.12c-.36.27-.85.15-1.09-.26-.08-.14-.12-.31-.13-.48v-57.59c0-.5.37-.9.8-.89.15,0,.29.05.41.15l38.79,28.88c.32.34.33.92.03,1.28-.01.01-.02.03-.03.04v-.25Z"/>
  </g>
</svg>