<?xml version="1.0" encoding="UTF-8"?><svg id="Layer_1" xmlns="http://www.w3.org/2000/svg" xmlns:xlink="http://www.w3.org/1999/xlink" viewBox="0 0 480 480"><defs><style>.cls-1{fill:#000;}.cls-1,.cls-2{stroke-width:0px;}.cls-2{fill:none;}.cls-3{clip-path:url(#clippath);}</style><clipPath id="clippath"><rect class="cls-2" x="500" y="0" width="480" height="480" rx="58.66" ry="58.66"/></clipPath></defs><path class="cls-1" d="M421.34,0H58.66C26.26,0,0,26.26,0,58.66v362.69c0,32.39,26.26,58.66,58.66,58.66h362.69c32.39,0,58.66-26.26,58.66-58.66V58.66c0-32.39-26.26-58.66-58.66-58.66ZM408.6,175.68c4.95,7.57,8.59,20.15,8.61,42.89,0,4.41-.14,9.21-.45,14.43-.19,3.2-2.84,5.68-6.01,5.68-.12,0-.24,0-.36-.01-3.32-.19-5.86-3.04-5.67-6.37.29-5.01.43-9.58.43-13.73,0-15.07-1.78-24.73-3.9-30.62-.44-1.23-.89-2.28-1.34-3.19v33.06c-11.01-12.12-20.12-24.77-26.63-34.69-4.93-7.52-8.36-13.46-10.04-16.44.63-.09,1.19-.12,1.63-.12h0s.07-.01.1-.01h29.11s.05,0,.08,0c.01,0,.02,0,.02,0,1.33,0,3.68.27,6.35,1.61,2.67,1.34,5.57,3.75,8.04,7.5ZM379.54,128.37c9.36,0,16.95,7.59,16.95,16.95s-7.59,16.95-16.95,16.95-16.95-7.59-16.95-16.95,7.59-16.95,16.95-16.95ZM347.05,182.38c3.06-7.79,7.43-12.18,11.48-14.19.73-.37,1.43-.65,2.1-.87,3.51,6.34,18.04,31.53,39.29,54.35v76.08c0,5.14-4.17,9.31-9.31,9.31s-9.31-4.17-9.31-9.31v-68.01h-3.49v68.01c0,5.14-4.17,9.31-9.32,9.31s-9.31-4.17-9.31-9.31v-63.24c.24-.38.46-.77.65-1.17.85-1.8,1.28-3.8,1.28-5.98-.04-3.07-.83-5.99-1.93-8.76v-33.84c-2.1,4.31-4.23,11.8-4.97,24.08-2.29-3.82-5.16-8.11-8.71-13-.48-.66-1.06-1.24-1.7-1.73.86-4.62,1.97-8.48,3.25-11.73ZM316.17,185.12c6.07,0,11.38,3.2,14.38,8h-23.17v17.33h23.51c-2.92,5.12-8.41,8.57-14.72,8.57-9.36,0-16.95-7.59-16.95-16.95s7.59-16.95,16.95-16.95ZM326.47,201.78c0,2.57-2.08,4.65-4.65,4.65s-4.65-2.08-4.65-4.65,2.08-4.65,4.65-4.65,4.65,2.08,4.65,4.65ZM248.32,156.31c9.36,0,16.95,7.59,16.95,16.95s-7.59,16.95-16.95,16.95-16.95-7.59-16.95-16.95,7.59-16.95,16.95-16.95ZM238.55,228.94c-.17-2.05-.33-4.9-.33-8.36,0-6.87.64-16.11,3.06-26.08h14.06c2.42,9.97,3.06,19.21,3.06,26.08,0,3.46-.16,6.3-.33,8.36h-19.53ZM252.54,236.88c0,2.34-1.9,4.24-4.24,4.24s-4.24-1.9-4.24-4.24,1.9-4.24,4.24-4.24,4.24,1.9,4.24,4.24ZM162.4,138.72c0,14.49-10.56,26.5-24.41,28.77-1.55.26-3.14.39-4.76.39s-3.21-.14-4.76-.39c-13.84-2.27-24.41-14.29-24.41-28.77,0-16.11,13.06-29.17,29.17-29.17s29.17,13.06,29.17,29.17ZM168.3,206.59v194.38c0,8.85-7.18,16.03-16.03,16.03s-16.03-7.17-16.03-16.03v-117.01h-6.01v117.01c0,8.85-7.18,16.03-16.03,16.03s-16.03-7.17-16.03-16.03v-151.58h0v-53.01c-2.48.1-5.1.18-7.78.21-.36,0-.71.01-1.07.01-6.54-.02-13.46-.41-20.34-2.6-6.79-2.11-13.93-6.72-17.96-14.42-2.69-5.06-3.93-11-3.93-17.54.01-7.14,1.42-15.12,4.26-24.5,1.16-3.81,4.32-6.46,7.98-7.16V63h4.75v4.16c3.83-1.95,17.11-7.55,28.08,2.32,12.96,11.67,30.89,1.73,30.89,1.73,0,0-2.09,47.61-36.29,27.22-12.62-7.53-19.85.59-22.68,5.13v27.02c.07.02.14.03.21.05,5.48,1.67,8.57,7.46,6.9,12.94-2.44,8-3.37,14.14-3.36,18.46,0,4,.73,6.36,1.5,7.81.8,1.44,1.64,2.28,3.18,3.19,2.98,1.85,9.39,2.9,16.8,2.82,1.26,0,2.55-.03,3.84-.06,4.57-.12,9.29-.39,13.88-.45.38-.04.76-.07,1.15-.07h6.08l3.19,24.91,12.64-15.23-8.74-9.68h23.74l-8.74,9.68,12.64,15.23,3.19-24.91h6.08c.14,0,.27.02.41.02,2.33.02,6.25.52,10.71,2.77,4.6,2.3,9.58,6.44,13.84,12.9,8.52,13.02,14.77,34.67,14.82,73.8,0,7.59-.24,15.84-.77,24.83-.32,5.51-4.89,9.77-10.34,9.77-.2,0-.41,0-.61-.02-5.72-.34-10.08-5.24-9.75-10.96.5-8.62.73-16.48.73-23.62.01-25.94-3.06-42.55-6.72-52.68-.76-2.11-1.54-3.92-2.31-5.49ZM215.12,317.48h-39.04v-3.24h39.04v3.24ZM273.52,260.25c.29-5.01.43-9.58.43-13.73,0-15.07-1.78-24.73-3.9-30.62-.44-1.22-.89-2.27-1.34-3.19v112.97c0,5.14-4.17,9.31-9.32,9.31s-9.31-4.17-9.31-9.31v-68.01h-3.49v68.01c0,5.14-4.17,9.31-9.31,9.31s-9.31-4.17-9.31-9.31v-113c-2.62,5.35-5.28,15.58-5.25,33.83,0,4.15.13,8.72.43,13.73.2,3.32-2.34,6.18-5.66,6.37-.12,0-.24.01-.36.01-3.17,0-5.82-2.47-6.01-5.67-.31-5.23-.45-10.02-.45-14.44.01-17.07,2.09-28.38,5.18-36.2,3.06-7.79,7.42-12.18,11.48-14.19,2.67-1.35,5.02-1.62,6.35-1.61h0s.07-.01.1-.01h5.19c-2.37,9.99-2.99,19.19-2.99,26.08,0,4.16.22,7.47.43,9.6v13.82h23.86v-13.84c.2-2.14.42-5.44.42-9.58,0-6.88-.62-16.09-2.99-26.08h5.19s.07.01.1.01h0c1.34,0,3.68.26,6.36,1.61,2.67,1.33,5.57,3.74,8.04,7.5,3.64,5.57,6.57,13.87,7.87,26.92-1.42,2.06-2.79,4.57-3.98,7.63-2.82,7.14-4.5,16.16-5.11,27.39-1.69-1.15-2.77-3.12-2.64-5.32ZM338.75,237.12c-.76-.16-1.49-.33-2.2-.49v117.86c0,5.15-4.17,9.31-9.32,9.31s-9.31-4.17-9.31-9.31v-68.01h-3.49v68.01c0,5.15-4.17,9.31-9.31,9.31s-9.31-4.17-9.31-9.31v-113c-2.61,5.35-5.27,15.58-5.25,33.83,0,4.15.13,8.72.43,13.73.2,3.32-2.34,6.17-5.66,6.37-.12,0-.24.01-.36.01-3.17,0-5.82-2.47-6.01-5.67-.31-5.23-.45-10.02-.45-14.44.01-17.07,2.09-28.38,5.18-36.2,3.06-7.79,7.43-12.18,11.48-14.19,2.67-1.35,5.02-1.62,6.36-1.61h0s.07-.01.1-.01h29.11c.2,0,.4.04.59.06,1.26.08,2.36.28,3.53.51,1.39.29,2.82.64,4.26.97,2.66.63,5.41,1.16,7.13,1.2-.31-1.18-.98-3.07-2.25-5.5-1.98-3.88-5.32-9.21-10.34-16.1-1.96-2.69-1.36-6.46,1.33-8.42,2.69-1.96,6.46-1.36,8.42,1.33,5.25,7.23,8.89,12.97,11.32,17.7,2.39,4.76,3.73,8.45,3.79,12.32,0,1.59-.28,3.27-1.03,4.84-.73,1.57-1.94,2.93-3.26,3.83-2.7,1.8-5.33,2.03-7.65,2.07-2.76-.01-5.37-.48-7.82-.99ZM341.9,222.17c.12.24.25.49.36.72-.11-.02-.23-.05-.34-.07,0-.21-.01-.43-.02-.64ZM432.88,317.48h-85.3v-3.24h85.3v3.24Z"/><g class="cls-3"><image width="1600" height="900" transform="translate(313.33) scale(.53)" xlink:href="../../../../Pictures/dallas-neighbors-for-housing-cover.jpg"/></g></svg>