<?xml version="1.0" encoding="UTF-8"?>
<svg id="Layer_1" data-name="Layer 1" xmlns="http://www.w3.org/2000/svg" viewBox="0 0 480 480">
  <defs>
    <style>
      .cls-1 {
        fill: #000;
        stroke-width: 0px;
      }
    </style>
  </defs>
  <path class="cls-1" d="M120.97,127.5h120.51c6.41,0,11.38-6.54,8.57-13.26-1.44-3.44-5.04-5.49-8.77-5.49h-120.51c-6.41,0-11.38,6.54-8.57,13.26,1.44,3.44,5.04,5.49,8.77,5.49Z"/>
  <path class="cls-1" d="M320.42,212.58c1.22-2.44.23-5.44-2.25-6.66l-13.45-6.66c-2.44-1.22-5.44-.23-6.66,2.25l-4.73,9.56,22.36,11.11,4.73-9.61Z"/>
  <polygon class="cls-1" points="274.57 299.11 256.9 290.34 255.31 306.47 263.09 310.27 274.57 299.11"/>
  <path class="cls-1" d="M298.43,128.77c4.97,0,9.05-4.08,9.05-9.05s-4.08-9.05-9.05-9.05-9.05,4.08-9.05,9.05,4.08,9.05,9.05,9.05Z"/>
  <path class="cls-1" d="M326.6,128.77c4.97,0,9.05-4.08,9.05-9.05s-4.08-9.05-9.05-9.05-9.05,4.08-9.05,9.05,4.08,9.05,9.05,9.05Z"/>
  <path class="cls-1" d="M354.78,110.62c-4.97,0-9.05,4.08-9.05,9.05s4.08,9.05,9.05,9.05,9.05-4.08,9.05-9.05-4.08-9.05-9.05-9.05Z"/>
  <path class="cls-1" d="M113.44,366.56h248.44v-215.62H113.44v215.62ZM225.94,300.59v9.54c-.07.07-.11.11-.18.18h-66.1c-6.82,0-12.29-5.84-11.67-12.78.55-6.2,6.29-10.66,12.51-10.66h65.83c-.13,4.6-.22,9.16-.39,13.72ZM291.5,192.98c2.3-4.64,7.92-6.56,12.61-4.27l22.78,11.25.05.05c4.64,2.3,6.56,7.92,4.27,12.61l-.89,1.78-41.77,84.33c-.89,1.69-2.06,3.19-3.38,4.27-4.88,3.98-9.8,7.88-14.67,11.81-3.98,3.19-8.02,6.38-12,9.61-1.08.89-2.2,1.69-3.47,2.11-1.45.52-3.05.52-4.88-.42-3.19-1.64-3.56-4.55-3.47-7.45.14-4.92.23-9.84.33-14.77.14-6.47.28-12.98.47-19.45,0-1.78.52-3.66,1.31-5.3l41.58-83.91,1.12-2.25ZM159.63,202.5h100.56l-11.59,23.44h-88.98c-6.47,0-11.72-5.25-11.72-11.72s5.25-11.72,11.72-11.72ZM147.2,255.34c.55-6.2,6.29-10.66,12.51-10.66h80.85-.04l-11.59,23.44h-70.05c-6.82,0-12.29-5.84-11.67-12.78Z"/>
  <path class="cls-1" d="M421.34,0H58.66C26.26,0,0,26.26,0,58.66v362.69c0,32.39,26.26,58.66,58.66,58.66h362.69c32.39,0,58.66-26.26,58.66-58.66V58.66c0-32.39-26.26-58.66-58.66-58.66ZM390,146.25v218.81c0,13.72-11.22,24.94-24.94,24.94H114.94c-13.72,0-24.94-11.22-24.94-24.94V103.45c0-7.4,6.05-13.45,13.45-13.45h273.09c7.4,0,13.45,6.05,13.45,13.45v42.8Z"/>
</svg>