<?xml version="1.0" encoding="UTF-8"?>
<svg id="Layer_1" data-name="Layer 1" xmlns="http://www.w3.org/2000/svg" viewBox="0 0 64 64.08">
  <defs>
    <style>
      .cls-1 {
        fill: #231f20;
        stroke-width: 0px;
      }
    </style>
  </defs>
  <path class="cls-1" d="M61.13,0H2.87C1.29,0,0,1.29,0,2.87v8.85h.03v47.05c0,2.93,2.39,5.32,5.32,5.32h53.3c2.93,0,5.32-2.39,5.32-5.32V11.72h.03V2.87c0-1.58-1.29-2.87-2.87-2.87ZM50.95,4.66c1.06,0,1.93.87,1.93,1.93s-.87,1.93-1.93,1.93-1.93-.87-1.93-1.93.87-1.93,1.93-1.93ZM44.94,4.66c1.06,0,1.93.87,1.93,1.93s-.87,1.93-1.93,1.93-1.93-.87-1.93-1.93.87-1.93,1.93-1.93ZM7.49,4.66h24.85c1.06,0,1.93.87,1.93,1.93s-.87,1.93-1.93,1.93H7.49c-1.06,0-1.93-.87-1.93-1.93s.87-1.93,1.93-1.93ZM58.58,58.7H5.42V13.2h53.16v45.5h0ZM56.96,8.51c-1.06,0-1.93-.87-1.93-1.93s.87-1.93,1.93-1.93,1.93.87,1.93,1.93c0,1.06-.87,1.93-1.93,1.93Z"/>
  <g>
    <path class="cls-1" d="M51.01,23.71l-4.86-2.4c-1-.49-2.2-.08-2.69.91l-.24.48-8.87,17.9c-.17.35-.28.75-.28,1.13-.04,1.38-.07,2.77-.1,4.15-.02,1.05-.04,2.1-.07,3.15-.02.62.06,1.24.74,1.59.39.2.73.2,1.04.09.27-.09.51-.26.74-.45.85-.69,1.71-1.37,2.56-2.05,1.04-.84,2.09-1.67,3.13-2.52.28-.23.53-.55.72-.91l8.91-17.99.19-.38c.49-1,.08-2.2-.91-2.69ZM37.4,47.24l-1.66-.81.34-3.44,3.77,1.87-2.45,2.38ZM49.63,26.4l-1.01,2.05-4.77-2.37,1.01-2.04c.26-.53.9-.74,1.42-.48l2.87,1.42c.53.26.74.9.48,1.42Z"/>
    <path class="cls-1" d="M37.74,24.45H14.57c-1.49,0-2.7,1.21-2.7,2.7h0c0,1.49,1.21,2.7,2.7,2.7h20.5l2.67-5.4Z"/>
    <path class="cls-1" d="M33.39,33.23H14.57c-1.49,0-2.7,1.21-2.7,2.7s1.21,2.7,2.7,2.7h16.14l2.67-5.4Z"/>
    <path class="cls-1" d="M29.84,45.78v-.61c.04-1.05.06-2.1.09-3.16h-15.36c-1.49,0-2.7,1.21-2.7,2.7s1.21,2.7,2.7,2.7h15.23c.01-.54.03-1.09.04-1.63Z"/>
  </g>
</svg>