<?xml version="1.0" encoding="utf-8"?>
<!-- Generator: Adobe Illustrator 28.3.0, SVG Export Plug-In . SVG Version: 6.00 Build 0)  -->
<svg version="1.1" id="Layer_1" xmlns="http://www.w3.org/2000/svg" xmlns:xlink="http://www.w3.org/1999/xlink" x="0px" y="0px"
	 viewBox="0 0 56.7 56.7" style="enable-background:new 0 0 56.7 56.7;" xml:space="preserve">
<path d="M46.3,27.7h-36C4.6,27.7,0,32.3,0,38v8.3c0,5.7,4.6,10.4,10.4,10.4h36c5.7,0,10.4-4.6,10.4-10.4V38
	C56.7,32.3,52.1,27.7,46.3,27.7z M17.9,34.1h-3.3v16.6h-3.2V34.1H8v-2.8h9.9C17.9,31.3,17.9,34.1,17.9,34.1z M27.4,50.8h-2.9v-1.6
	c-0.5,0.6-1.1,1-1.7,1.3c-0.6,0.3-1.1,0.5-1.7,0.5c-0.7,0-1.2-0.2-1.5-0.6c-0.3-0.4-0.5-1.1-0.5-1.9v-12H22v11
	c0,0.3,0.1,0.6,0.2,0.7c0.1,0.2,0.3,0.2,0.6,0.2c0.2,0,0.5-0.1,0.8-0.3c0.3-0.2,0.6-0.5,0.9-0.8V36.4h2.9V50.8z M37.8,47.8
	c0,1-0.2,1.8-0.7,2.3c-0.4,0.5-1.1,0.8-1.9,0.8c-0.6,0-1.1-0.1-1.5-0.3c-0.4-0.2-0.9-0.5-1.2-1v1.1h-2.9V31.3h2.9v6.3
	c0.4-0.4,0.8-0.8,1.2-1c0.4-0.2,0.9-0.3,1.3-0.3c0.9,0,1.6,0.3,2.1,0.9c0.5,0.6,0.7,1.5,0.7,2.7L37.8,47.8L37.8,47.8z M47.7,43.9
	h-5.5v2.7c0,0.8,0.1,1.3,0.3,1.6c0.2,0.3,0.5,0.4,1,0.4c0.5,0,0.8-0.1,1-0.4c0.2-0.2,0.3-0.8,0.3-1.6V46h3v0.7
	c0,1.5-0.4,2.6-1.1,3.3c-0.7,0.7-1.8,1.1-3.2,1.1c-1.3,0-2.3-0.4-3-1.2c-0.7-0.8-1.1-1.9-1.1-3.3v-6.4c0-1.2,0.4-2.3,1.2-3
	c0.8-0.8,1.9-1.2,3.1-1.2c1.3,0,2.3,0.4,3,1.1c0.7,0.7,1.1,1.8,1.1,3.1V43.9z"/>
<path d="M43.5,38.6c-0.5,0-0.8,0.1-1,0.4c-0.2,0.3-0.3,0.7-0.3,1.3v1.5h2.5v-1.5c0-0.6-0.1-1-0.3-1.3C44.3,38.7,43.9,38.6,43.5,38.6
	z"/>
<path d="M33.6,38.5c-0.2,0-0.4,0-0.6,0.1c-0.2,0.1-0.4,0.2-0.6,0.4V48c0.2,0.2,0.5,0.4,0.7,0.5c0.2,0.1,0.4,0.2,0.7,0.2
	c0.4,0,0.6-0.1,0.8-0.3c0.2-0.2,0.2-0.5,0.2-1V40c0-0.5-0.1-0.9-0.3-1.1C34.3,38.6,34,38.5,33.6,38.5z"/>
<g>
	<polygon points="15.1,21.4 18.7,21.4 18.7,12.5 22.9,0 19.2,0 17,8.6 16.8,8.6 14.4,0 10.7,0 15.1,12.9 	"/>
	<path d="M27.9,21.8c1.5,0,2.6-0.4,3.5-1.2c0.8-0.8,1.3-1.8,1.3-3.2V9.3c0-1.2-0.4-2.2-1.3-3c-0.9-0.8-2-1.1-3.3-1.1
		c-1.5,0-2.6,0.4-3.5,1.1C23.6,7,23.2,8,23.2,9.2v8.2c0,1.3,0.4,2.4,1.3,3.2C25.3,21.4,26.4,21.8,27.9,21.8z M26.5,9.1
		c0-0.3,0.1-0.6,0.4-0.8c0.3-0.2,0.6-0.3,1-0.3c0.4,0,0.8,0.1,1,0.3c0.3,0.2,0.4,0.5,0.4,0.8v8.6c0,0.4-0.1,0.8-0.4,1
		c-0.3,0.2-0.6,0.4-1,0.4c-0.4,0-0.8-0.1-1-0.4c-0.2-0.2-0.3-0.6-0.3-1L26.5,9.1L26.5,9.1z"/>
	<path d="M37.4,21.7c0.6,0,1.2-0.2,1.9-0.5c0.6-0.3,1.3-0.8,1.9-1.5v1.8h3.2V5.6h-3.2v12c-0.3,0.3-0.6,0.6-1,0.8
		c-0.4,0.2-0.7,0.3-0.9,0.3c-0.3,0-0.5-0.1-0.7-0.3c-0.1-0.2-0.2-0.4-0.2-0.8V5.6h-3.2v13.2c0,0.9,0.2,1.6,0.6,2.1
		C36.1,21.4,36.7,21.7,37.4,21.7z"/>
</g>
</svg>
